M48
;GenerationSoftware,Autodesk,EAGLE,9.6.1*%
;CreationDate,2024-07-10T11:31:59Z*%
FMAT,2
ICI,OFF
METRIC,TZ,000.000
T3C0.250
T2C0.350
T1C1.016
%
G90
M71
T1
X10319Y952
X-6191Y4604
X-6191Y2064
X-6191Y-476
T2
X5239Y4819
X-2699Y-10001
X-4763Y-10795
X9208Y-7620
X8255Y-5874
X5398Y6667
X3651Y8096
X-3492Y7779
X-5239Y6826
X-7937Y-3651
X-9049Y-1111
X-8890Y-5874
X-5398Y-4819
X0Y-1001
X1682Y3815
X4128Y-8176
T3
X-4310Y7582
X-3465Y-10889
X-8395Y-4927
X9126Y-5972
X4442Y7617
X5057Y-6336
X1644Y-7486
X-318Y-7495
X-3651Y-6032
X-3651Y-6740
X-2857Y-7620
M30