G04 EAGLE Gerber RS-274X export*
G75*
%MOMM*%
%FSLAX34Y34*%
%LPD*%
%INTop Copper*%
%IPPOS*%
%AMOC8*
5,1,8,0,0,1.08239X$1,22.5*%
G01*
%ADD10R,1.100000X1.000000*%
%ADD11R,1.300000X1.500000*%
%ADD12R,0.800000X0.800000*%
%ADD13P,1.649562X8X22.500000*%
%ADD14C,1.524000*%
%ADD15C,1.000000*%
%ADD16R,0.500000X0.500000*%
%ADD17C,0.508000*%
%ADD18C,0.750000*%
%ADD19C,0.609600*%
%ADD20C,0.554800*%
%ADD21C,0.304800*%
%ADD22C,0.203200*%
%ADD23C,0.254000*%
%ADD24C,0.604800*%

G36*
X754753Y395606D02*
X754753Y395606D01*
X754781Y395604D01*
X754849Y395626D01*
X754920Y395640D01*
X754943Y395656D01*
X754970Y395665D01*
X755025Y395712D01*
X755084Y395753D01*
X755099Y395777D01*
X755121Y395795D01*
X755152Y395860D01*
X755191Y395920D01*
X755196Y395948D01*
X755208Y395974D01*
X755217Y396075D01*
X755224Y396114D01*
X792539Y396114D01*
X792559Y396117D01*
X792578Y396115D01*
X792680Y396137D01*
X792782Y396154D01*
X792799Y396163D01*
X792819Y396167D01*
X792908Y396220D01*
X792999Y396269D01*
X793013Y396283D01*
X793030Y396293D01*
X793097Y396372D01*
X793169Y396447D01*
X793177Y396465D01*
X793190Y396480D01*
X793229Y396576D01*
X793272Y396670D01*
X793274Y396690D01*
X793282Y396708D01*
X793300Y396875D01*
X793300Y396993D01*
X793306Y397000D01*
X793324Y397061D01*
X793352Y397117D01*
X793369Y397204D01*
X793378Y397235D01*
X793378Y397253D01*
X793383Y397282D01*
X793539Y399361D01*
X793536Y399396D01*
X793541Y399430D01*
X793525Y399518D01*
X793518Y399606D01*
X793504Y399638D01*
X793497Y399672D01*
X793463Y399744D01*
X793606Y400371D01*
X793608Y400404D01*
X793623Y400484D01*
X793671Y401122D01*
X793712Y401181D01*
X793769Y401249D01*
X793782Y401282D01*
X793801Y401310D01*
X793857Y401468D01*
X794347Y403615D01*
X794349Y403650D01*
X794359Y403683D01*
X794356Y403772D01*
X794362Y403861D01*
X794353Y403894D01*
X794352Y403929D01*
X794328Y404005D01*
X794563Y404604D01*
X794570Y404636D01*
X794597Y404712D01*
X794740Y405337D01*
X794789Y405389D01*
X794855Y405448D01*
X794873Y405478D01*
X794897Y405503D01*
X794975Y405651D01*
X795779Y407701D01*
X795786Y407735D01*
X795801Y407766D01*
X795812Y407855D01*
X795831Y407942D01*
X795827Y407976D01*
X795831Y408011D01*
X795819Y408089D01*
X796141Y408646D01*
X796153Y408677D01*
X796190Y408749D01*
X796424Y409345D01*
X796481Y409389D01*
X796555Y409437D01*
X796577Y409465D01*
X796604Y409486D01*
X796704Y409621D01*
X797555Y411096D01*
X797589Y411185D01*
X797629Y411272D01*
X797632Y411300D01*
X797642Y411326D01*
X797646Y411421D01*
X797656Y411516D01*
X797650Y411543D01*
X797651Y411572D01*
X797624Y411663D01*
X797604Y411756D01*
X797589Y411781D01*
X797581Y411808D01*
X797527Y411886D01*
X797478Y411967D01*
X797456Y411986D01*
X797440Y412009D01*
X797363Y412065D01*
X797291Y412127D01*
X797265Y412138D01*
X797242Y412155D01*
X797151Y412184D01*
X797063Y412219D01*
X797027Y412223D01*
X797008Y412230D01*
X796975Y412229D01*
X796896Y412238D01*
X793153Y412238D01*
X790063Y415328D01*
X790063Y419697D01*
X793153Y422787D01*
X793830Y422787D01*
X793920Y422802D01*
X794011Y422809D01*
X794041Y422822D01*
X794073Y422827D01*
X794154Y422870D01*
X794237Y422905D01*
X794270Y422931D01*
X794290Y422942D01*
X794312Y422965D01*
X794368Y423010D01*
X795896Y424538D01*
X795943Y424603D01*
X795952Y424613D01*
X795955Y424618D01*
X796008Y424681D01*
X796021Y424711D01*
X796039Y424737D01*
X796066Y424824D01*
X796100Y424909D01*
X796105Y424950D01*
X796112Y424972D01*
X796111Y425005D01*
X796119Y425076D01*
X796119Y431974D01*
X803101Y438956D01*
X812974Y438956D01*
X817808Y434123D01*
X817882Y434070D01*
X817951Y434010D01*
X817982Y433998D01*
X818008Y433979D01*
X818095Y433952D01*
X818180Y433918D01*
X818221Y433914D01*
X818243Y433907D01*
X818275Y433908D01*
X818346Y433900D01*
X819747Y433900D01*
X822837Y430810D01*
X822837Y426440D01*
X822746Y426349D01*
X822704Y426291D01*
X822655Y426239D01*
X822633Y426191D01*
X822602Y426149D01*
X822581Y426080D01*
X822551Y426015D01*
X822545Y425964D01*
X822530Y425914D01*
X822532Y425842D01*
X822524Y425771D01*
X822535Y425720D01*
X822536Y425668D01*
X822561Y425601D01*
X822576Y425531D01*
X822603Y425486D01*
X822621Y425437D01*
X822666Y425381D01*
X822702Y425320D01*
X822742Y425286D01*
X822774Y425245D01*
X822835Y425206D01*
X822889Y425160D01*
X822938Y425140D01*
X822981Y425112D01*
X823051Y425095D01*
X823117Y425068D01*
X823189Y425060D01*
X823220Y425052D01*
X823243Y425054D01*
X823284Y425049D01*
X823426Y425049D01*
X823460Y425055D01*
X823495Y425052D01*
X823581Y425075D01*
X823669Y425089D01*
X823699Y425105D01*
X823733Y425114D01*
X823802Y425154D01*
X824438Y425058D01*
X824471Y425058D01*
X824552Y425049D01*
X825192Y425049D01*
X825254Y425013D01*
X825326Y424961D01*
X825359Y424951D01*
X825389Y424933D01*
X825551Y424890D01*
X827728Y424562D01*
X827763Y424562D01*
X827797Y424555D01*
X827885Y424564D01*
X827974Y424565D01*
X828007Y424576D01*
X828041Y424580D01*
X828115Y424609D01*
X828730Y424419D01*
X828763Y424415D01*
X828841Y424394D01*
X829475Y424299D01*
X829530Y424253D01*
X829594Y424191D01*
X829625Y424176D01*
X829652Y424154D01*
X829806Y424088D01*
X831910Y423439D01*
X831944Y423434D01*
X831977Y423421D01*
X832066Y423417D01*
X832154Y423405D01*
X832188Y423411D01*
X832222Y423410D01*
X832300Y423428D01*
X832880Y423148D01*
X832911Y423139D01*
X832986Y423107D01*
X833597Y422918D01*
X833646Y422865D01*
X833699Y422794D01*
X833728Y422775D01*
X833751Y422749D01*
X833894Y422660D01*
X835878Y421705D01*
X835911Y421695D01*
X835941Y421678D01*
X836028Y421660D01*
X836114Y421635D01*
X836148Y421636D01*
X836182Y421630D01*
X836261Y421636D01*
X836793Y421273D01*
X836823Y421259D01*
X836892Y421216D01*
X837469Y420938D01*
X837508Y420879D01*
X837551Y420801D01*
X837576Y420777D01*
X837596Y420748D01*
X837723Y420639D01*
X839542Y419399D01*
X839574Y419384D01*
X839601Y419363D01*
X839685Y419332D01*
X839765Y419295D01*
X839800Y419291D01*
X839832Y419279D01*
X839912Y419273D01*
X840383Y418836D01*
X840411Y418817D01*
X840472Y418765D01*
X841001Y418404D01*
X841032Y418339D01*
X841062Y418256D01*
X841084Y418228D01*
X841099Y418197D01*
X841208Y418070D01*
X842823Y416572D01*
X842851Y416553D01*
X842875Y416528D01*
X842953Y416486D01*
X843028Y416436D01*
X843061Y416428D01*
X843091Y416411D01*
X843169Y416394D01*
X843570Y415890D01*
X843595Y415868D01*
X843648Y415807D01*
X844117Y415371D01*
X844138Y415303D01*
X844155Y415215D01*
X844173Y415185D01*
X844183Y415152D01*
X844272Y415010D01*
X845645Y413289D01*
X845670Y413266D01*
X845690Y413237D01*
X845762Y413183D01*
X845827Y413124D01*
X845859Y413110D01*
X845887Y413089D01*
X845961Y413060D01*
X846282Y412503D01*
X846303Y412477D01*
X846347Y412409D01*
X846746Y411908D01*
X846756Y411837D01*
X846760Y411748D01*
X846773Y411716D01*
X846778Y411682D01*
X846845Y411528D01*
X847946Y409621D01*
X847968Y409594D01*
X847983Y409563D01*
X848046Y409499D01*
X848102Y409431D01*
X848131Y409412D01*
X848156Y409388D01*
X848225Y409348D01*
X848460Y408749D01*
X848476Y408721D01*
X848509Y408646D01*
X848829Y408092D01*
X848829Y408020D01*
X848820Y407932D01*
X848827Y407898D01*
X848827Y407863D01*
X848871Y407701D01*
X849675Y405651D01*
X849693Y405622D01*
X849703Y405589D01*
X849755Y405517D01*
X849801Y405440D01*
X849827Y405417D01*
X849848Y405389D01*
X849910Y405340D01*
X850053Y404712D01*
X850065Y404682D01*
X850087Y404604D01*
X850320Y404008D01*
X850309Y403937D01*
X850287Y403851D01*
X850290Y403816D01*
X850284Y403782D01*
X850303Y403615D01*
X850793Y401468D01*
X850806Y401436D01*
X850812Y401402D01*
X850853Y401323D01*
X850886Y401241D01*
X850909Y401214D01*
X850925Y401184D01*
X850979Y401126D01*
X851027Y400484D01*
X851035Y400452D01*
X851044Y400371D01*
X851186Y399747D01*
X851165Y399678D01*
X851130Y399597D01*
X851128Y399562D01*
X851117Y399529D01*
X851111Y399361D01*
X851267Y397282D01*
X851282Y397221D01*
X851287Y397158D01*
X851310Y397102D01*
X851325Y397043D01*
X851350Y397003D01*
X851350Y396875D01*
X851353Y396855D01*
X851351Y396836D01*
X851373Y396734D01*
X851389Y396632D01*
X851399Y396615D01*
X851403Y396595D01*
X851456Y396506D01*
X851505Y396415D01*
X851519Y396401D01*
X851529Y396384D01*
X851608Y396317D01*
X851683Y396246D01*
X851701Y396237D01*
X851716Y396224D01*
X851812Y396185D01*
X851906Y396142D01*
X851926Y396140D01*
X851944Y396132D01*
X852111Y396114D01*
X889430Y396114D01*
X889431Y396111D01*
X889426Y396083D01*
X889443Y396014D01*
X889451Y395942D01*
X889466Y395918D01*
X889472Y395890D01*
X889515Y395832D01*
X889551Y395770D01*
X889573Y395753D01*
X889590Y395730D01*
X889652Y395693D01*
X889709Y395650D01*
X889737Y395643D01*
X889761Y395628D01*
X889861Y395612D01*
X889902Y395601D01*
X889912Y395603D01*
X889925Y395601D01*
X908925Y395601D01*
X909001Y395616D01*
X909079Y395625D01*
X909098Y395636D01*
X909120Y395640D01*
X909184Y395684D01*
X909252Y395723D01*
X909268Y395742D01*
X909284Y395753D01*
X909308Y395791D01*
X909358Y395851D01*
X909637Y396337D01*
X909662Y396356D01*
X909712Y396423D01*
X909735Y396447D01*
X909743Y396465D01*
X909763Y396491D01*
X938057Y444848D01*
X938099Y444957D01*
X938142Y445064D01*
X938142Y445071D01*
X938145Y445077D01*
X938150Y445194D01*
X938157Y445310D01*
X938155Y445316D01*
X938155Y445323D01*
X938123Y445435D01*
X938092Y445547D01*
X938089Y445553D01*
X938087Y445559D01*
X938020Y445655D01*
X937956Y445752D01*
X937950Y445757D01*
X937947Y445761D01*
X937931Y445773D01*
X937828Y445861D01*
X937671Y445968D01*
X937652Y445977D01*
X937623Y445998D01*
X936940Y446392D01*
X936936Y446401D01*
X936893Y446447D01*
X936858Y446500D01*
X936791Y446557D01*
X936769Y446581D01*
X936753Y446590D01*
X936731Y446609D01*
X935006Y447784D01*
X934974Y447799D01*
X934947Y447820D01*
X934864Y447850D01*
X934783Y447888D01*
X934748Y447892D01*
X934716Y447903D01*
X934637Y447909D01*
X934165Y448347D01*
X934137Y448365D01*
X934076Y448418D01*
X933546Y448778D01*
X933516Y448843D01*
X933485Y448927D01*
X933464Y448954D01*
X933449Y448985D01*
X933339Y449112D01*
X931723Y450611D01*
X931694Y450630D01*
X931670Y450655D01*
X931592Y450698D01*
X931518Y450747D01*
X931485Y450756D01*
X931454Y450772D01*
X931377Y450790D01*
X930975Y451293D01*
X930951Y451315D01*
X930898Y451376D01*
X930428Y451812D01*
X930408Y451880D01*
X930390Y451967D01*
X930373Y451997D01*
X930363Y452031D01*
X930273Y452172D01*
X928898Y453895D01*
X928873Y453919D01*
X928853Y453947D01*
X928782Y454001D01*
X928716Y454060D01*
X928684Y454074D01*
X928656Y454095D01*
X928582Y454124D01*
X928260Y454681D01*
X928239Y454707D01*
X928196Y454775D01*
X927797Y455276D01*
X927787Y455347D01*
X927782Y455435D01*
X927770Y455468D01*
X927765Y455502D01*
X927697Y455656D01*
X927445Y456092D01*
X927415Y456129D01*
X927392Y456171D01*
X927337Y456224D01*
X927289Y456282D01*
X927249Y456308D01*
X927214Y456341D01*
X927145Y456373D01*
X927081Y456413D01*
X927034Y456424D01*
X926991Y456444D01*
X926916Y456453D01*
X926842Y456470D01*
X926794Y456466D01*
X926747Y456471D01*
X926672Y456455D01*
X926597Y456449D01*
X926553Y456429D01*
X926506Y456419D01*
X926441Y456380D01*
X926371Y456350D01*
X926336Y456317D01*
X926295Y456293D01*
X926246Y456235D01*
X926190Y456184D01*
X926166Y456142D01*
X926135Y456106D01*
X926107Y456036D01*
X926070Y455969D01*
X926061Y455922D01*
X926043Y455878D01*
X926029Y455749D01*
X926025Y455728D01*
X926026Y455721D01*
X926025Y455711D01*
X926025Y453428D01*
X922935Y450338D01*
X918565Y450338D01*
X915475Y453428D01*
X915475Y454105D01*
X915461Y454195D01*
X915453Y454286D01*
X915441Y454316D01*
X915436Y454348D01*
X915393Y454429D01*
X915357Y454512D01*
X915331Y454545D01*
X915320Y454565D01*
X915297Y454587D01*
X915252Y454643D01*
X907038Y462858D01*
X907038Y474094D01*
X913665Y480721D01*
X913718Y480795D01*
X913777Y480864D01*
X913790Y480894D01*
X913808Y480920D01*
X913835Y481007D01*
X913869Y481092D01*
X913874Y481133D01*
X913881Y481156D01*
X913880Y481188D01*
X913888Y481259D01*
X913888Y481610D01*
X916978Y484700D01*
X921347Y484700D01*
X924188Y481859D01*
X924231Y481828D01*
X924268Y481790D01*
X924330Y481757D01*
X924387Y481716D01*
X924438Y481700D01*
X924485Y481675D01*
X924555Y481664D01*
X924623Y481643D01*
X924676Y481645D01*
X924728Y481636D01*
X924798Y481648D01*
X924868Y481650D01*
X924918Y481668D01*
X924971Y481677D01*
X925033Y481710D01*
X925099Y481734D01*
X925141Y481768D01*
X925188Y481792D01*
X925236Y481844D01*
X925291Y481888D01*
X925320Y481933D01*
X925357Y481971D01*
X925409Y482071D01*
X925424Y482095D01*
X925427Y482105D01*
X925435Y482120D01*
X925662Y482699D01*
X925669Y482733D01*
X925684Y482764D01*
X925695Y482853D01*
X925714Y482940D01*
X925710Y482974D01*
X925714Y483009D01*
X925702Y483087D01*
X926023Y483645D01*
X926035Y483675D01*
X926073Y483747D01*
X926307Y484343D01*
X926363Y484387D01*
X926438Y484436D01*
X926459Y484463D01*
X926487Y484484D01*
X926586Y484619D01*
X927687Y486529D01*
X927700Y486561D01*
X927719Y486590D01*
X927743Y486676D01*
X927774Y486759D01*
X927776Y486793D01*
X927785Y486827D01*
X927785Y486906D01*
X928186Y487410D01*
X928202Y487438D01*
X928250Y487504D01*
X928570Y488058D01*
X928632Y488094D01*
X928713Y488130D01*
X928739Y488154D01*
X928769Y488171D01*
X928887Y488290D01*
X930261Y490013D01*
X930278Y490044D01*
X930301Y490069D01*
X930338Y490151D01*
X930381Y490228D01*
X930388Y490262D01*
X930402Y490294D01*
X930413Y490372D01*
X930885Y490810D01*
X930905Y490836D01*
X930962Y490894D01*
X931362Y491395D01*
X931429Y491420D01*
X931514Y491444D01*
X931543Y491464D01*
X931575Y491476D01*
X931710Y491576D01*
X933325Y493076D01*
X933347Y493103D01*
X933374Y493125D01*
X933421Y493200D01*
X933476Y493270D01*
X933488Y493303D01*
X933506Y493332D01*
X933529Y493408D01*
X934061Y493771D01*
X934085Y493793D01*
X934150Y493842D01*
X934619Y494277D01*
X934689Y494293D01*
X934778Y494304D01*
X934809Y494319D01*
X934843Y494326D01*
X934991Y494405D01*
X936812Y495647D01*
X936837Y495671D01*
X936867Y495689D01*
X936925Y495755D01*
X936990Y495817D01*
X937006Y495848D01*
X937029Y495874D01*
X937063Y495945D01*
X937643Y496225D01*
X937670Y496244D01*
X937741Y496282D01*
X938270Y496642D01*
X938342Y496647D01*
X938431Y496645D01*
X938464Y496655D01*
X938499Y496658D01*
X938657Y496713D01*
X940642Y497670D01*
X940671Y497690D01*
X940703Y497703D01*
X940771Y497760D01*
X940844Y497811D01*
X940864Y497839D01*
X940891Y497862D01*
X940935Y497927D01*
X941550Y498117D01*
X941580Y498132D01*
X941656Y498159D01*
X942233Y498437D01*
X942305Y498431D01*
X942392Y498416D01*
X942426Y498421D01*
X942461Y498418D01*
X942626Y498449D01*
X944732Y499100D01*
X944763Y499115D01*
X944797Y499123D01*
X944873Y499170D01*
X944952Y499209D01*
X944976Y499234D01*
X945006Y499252D01*
X945060Y499310D01*
X945696Y499407D01*
X945728Y499417D01*
X945807Y499432D01*
X946419Y499621D01*
X946489Y499604D01*
X946573Y499576D01*
X946608Y499576D01*
X946642Y499568D01*
X946809Y499575D01*
X948989Y499904D01*
X949022Y499915D01*
X949056Y499917D01*
X949138Y499952D01*
X949223Y499979D01*
X949251Y500000D01*
X949283Y500014D01*
X949344Y500063D01*
X949988Y500063D01*
X950021Y500069D01*
X950102Y500072D01*
X950735Y500168D01*
X950801Y500141D01*
X950880Y500100D01*
X950915Y500095D01*
X950947Y500082D01*
X951114Y500064D01*
X953318Y500065D01*
X953352Y500070D01*
X953387Y500068D01*
X953473Y500090D01*
X953560Y500104D01*
X953591Y500121D01*
X953625Y500129D01*
X953693Y500169D01*
X954330Y500073D01*
X954363Y500074D01*
X954443Y500065D01*
X955084Y500065D01*
X955146Y500029D01*
X955218Y499977D01*
X955251Y499967D01*
X955281Y499949D01*
X955443Y499906D01*
X957623Y499578D01*
X957657Y499579D01*
X957691Y499571D01*
X957780Y499580D01*
X957868Y499581D01*
X957901Y499593D01*
X957936Y499596D01*
X958010Y499626D01*
X958625Y499436D01*
X958657Y499432D01*
X958735Y499411D01*
X959369Y499316D01*
X959425Y499270D01*
X959488Y499208D01*
X959519Y499193D01*
X959546Y499171D01*
X959700Y499105D01*
X961807Y498456D01*
X961841Y498451D01*
X961873Y498438D01*
X961962Y498434D01*
X962050Y498422D01*
X962084Y498429D01*
X962119Y498427D01*
X962196Y498445D01*
X962776Y498166D01*
X962808Y498156D01*
X962882Y498124D01*
X963494Y497936D01*
X963543Y497883D01*
X963596Y497812D01*
X963625Y497792D01*
X963648Y497767D01*
X963791Y497678D01*
X965671Y496773D01*
X965732Y496755D01*
X965789Y496728D01*
X965849Y496720D01*
X965907Y496703D01*
X965955Y496705D01*
X966647Y496306D01*
X966666Y496298D01*
X966697Y496279D01*
X967198Y496038D01*
X967306Y496007D01*
X967412Y495972D01*
X967423Y495972D01*
X967434Y495969D01*
X967546Y495973D01*
X967658Y495974D01*
X967668Y495978D01*
X967680Y495978D01*
X967785Y496018D01*
X967890Y496055D01*
X967899Y496062D01*
X967910Y496066D01*
X967996Y496136D01*
X968085Y496205D01*
X968093Y496216D01*
X968100Y496222D01*
X968113Y496244D01*
X968185Y496340D01*
X995703Y543370D01*
X995727Y543433D01*
X995760Y543491D01*
X995771Y543547D01*
X995791Y543600D01*
X995794Y543667D01*
X995807Y543733D01*
X995799Y543789D01*
X995801Y543845D01*
X995783Y543910D01*
X995774Y543977D01*
X995742Y544050D01*
X995733Y544082D01*
X995721Y544098D01*
X995707Y544131D01*
X995340Y544778D01*
X995958Y545851D01*
X995968Y545883D01*
X995977Y545896D01*
X995981Y545920D01*
X995982Y545924D01*
X996013Y545994D01*
X996013Y546018D01*
X996021Y546040D01*
X996015Y546116D01*
X996016Y546193D01*
X996006Y546217D01*
X996005Y546238D01*
X995984Y546277D01*
X995958Y546349D01*
X986458Y562849D01*
X986439Y562871D01*
X986426Y562897D01*
X986373Y562945D01*
X986326Y562998D01*
X986300Y563011D01*
X986279Y563030D01*
X986211Y563053D01*
X986147Y563084D01*
X986118Y563086D01*
X986091Y563095D01*
X986019Y563090D01*
X985948Y563093D01*
X985921Y563083D01*
X985892Y563081D01*
X985802Y563039D01*
X985762Y563024D01*
X985754Y563017D01*
X985741Y563011D01*
X985191Y562631D01*
X975073Y580432D01*
X975041Y580472D01*
X975017Y580516D01*
X974964Y580567D01*
X974918Y580624D01*
X974876Y580651D01*
X974839Y580686D01*
X974773Y580717D01*
X974711Y580756D01*
X974662Y580768D01*
X974616Y580789D01*
X974543Y580797D01*
X974472Y580815D01*
X974422Y580811D01*
X974372Y580816D01*
X974300Y580801D01*
X974227Y580795D01*
X974181Y580775D01*
X974131Y580764D01*
X974068Y580726D01*
X974001Y580698D01*
X973963Y580664D01*
X973920Y580638D01*
X973872Y580582D01*
X973818Y580533D01*
X973793Y580489D01*
X973760Y580451D01*
X973733Y580383D01*
X973697Y580319D01*
X973687Y580270D01*
X973668Y580223D01*
X973655Y580103D01*
X973650Y580078D01*
X973651Y580069D01*
X973650Y580056D01*
X973650Y575665D01*
X970560Y572575D01*
X966190Y572575D01*
X965711Y573054D01*
X965637Y573108D01*
X965568Y573167D01*
X965538Y573179D01*
X965511Y573198D01*
X965424Y573225D01*
X965340Y573259D01*
X965299Y573263D01*
X965276Y573270D01*
X965244Y573269D01*
X965173Y573277D01*
X947431Y573277D01*
X940418Y580290D01*
X940344Y580343D01*
X940275Y580402D01*
X940245Y580415D01*
X940219Y580433D01*
X940132Y580460D01*
X940047Y580494D01*
X940006Y580499D01*
X939984Y580506D01*
X939951Y580505D01*
X939880Y580513D01*
X939203Y580513D01*
X936113Y583603D01*
X936113Y587972D01*
X939203Y591062D01*
X943572Y591062D01*
X946662Y587972D01*
X946662Y587295D01*
X946677Y587205D01*
X946684Y587114D01*
X946697Y587084D01*
X946702Y587052D01*
X946745Y586972D01*
X946780Y586888D01*
X946806Y586855D01*
X946817Y586835D01*
X946840Y586813D01*
X946885Y586757D01*
X948092Y585550D01*
X948150Y585508D01*
X948202Y585459D01*
X948249Y585437D01*
X948291Y585407D01*
X948360Y585386D01*
X948425Y585355D01*
X948477Y585350D01*
X948526Y585334D01*
X948598Y585336D01*
X948669Y585328D01*
X948720Y585339D01*
X948772Y585341D01*
X948840Y585365D01*
X948910Y585381D01*
X948954Y585407D01*
X949003Y585425D01*
X949059Y585470D01*
X949121Y585507D01*
X949155Y585546D01*
X949195Y585579D01*
X949234Y585639D01*
X949281Y585694D01*
X949300Y585742D01*
X949328Y585786D01*
X949346Y585855D01*
X949373Y585922D01*
X949381Y585993D01*
X949388Y586024D01*
X949387Y586048D01*
X949391Y586089D01*
X949391Y589752D01*
X949376Y589842D01*
X949369Y589933D01*
X949357Y589963D01*
X949351Y589995D01*
X949309Y590075D01*
X949273Y590159D01*
X949247Y590192D01*
X949236Y590212D01*
X949213Y590234D01*
X949168Y590290D01*
X947112Y592347D01*
X947088Y592364D01*
X947069Y592386D01*
X946989Y592435D01*
X946912Y592490D01*
X946884Y592499D01*
X946859Y592514D01*
X946767Y592535D01*
X946677Y592562D01*
X946648Y592562D01*
X946619Y592568D01*
X946525Y592559D01*
X946489Y592558D01*
X945807Y592768D01*
X945775Y592773D01*
X945696Y592793D01*
X945063Y592889D01*
X945008Y592934D01*
X944944Y592996D01*
X944913Y593011D01*
X944886Y593033D01*
X944732Y593100D01*
X942626Y593751D01*
X942591Y593755D01*
X942559Y593768D01*
X942470Y593772D01*
X942382Y593784D01*
X942348Y593778D01*
X942313Y593779D01*
X942236Y593762D01*
X941656Y594041D01*
X941625Y594050D01*
X941550Y594083D01*
X940938Y594272D01*
X940890Y594325D01*
X940836Y594396D01*
X940808Y594415D01*
X940784Y594441D01*
X940642Y594530D01*
X938657Y595487D01*
X938624Y595497D01*
X938593Y595514D01*
X938541Y595524D01*
X938495Y595543D01*
X938450Y595548D01*
X938421Y595556D01*
X938386Y595555D01*
X938352Y595562D01*
X938335Y595560D01*
X938328Y595561D01*
X938321Y595561D01*
X938300Y595558D01*
X938273Y595556D01*
X937741Y595918D01*
X937711Y595932D01*
X937643Y595975D01*
X937066Y596253D01*
X937026Y596313D01*
X936984Y596391D01*
X936958Y596415D01*
X936939Y596444D01*
X936812Y596553D01*
X934991Y597795D01*
X934959Y597810D01*
X934932Y597831D01*
X934849Y597861D01*
X934768Y597899D01*
X934733Y597903D01*
X934701Y597915D01*
X934622Y597920D01*
X934150Y598358D01*
X934123Y598377D01*
X934061Y598429D01*
X933532Y598790D01*
X933502Y598855D01*
X933471Y598939D01*
X933450Y598966D01*
X933435Y598997D01*
X933325Y599124D01*
X931710Y600624D01*
X931681Y600643D01*
X931657Y600668D01*
X931579Y600711D01*
X931505Y600760D01*
X931472Y600769D01*
X931441Y600785D01*
X931364Y600803D01*
X930962Y601306D01*
X930938Y601329D01*
X930885Y601390D01*
X930416Y601825D01*
X930395Y601894D01*
X930378Y601981D01*
X930360Y602011D01*
X930350Y602045D01*
X930261Y602187D01*
X928887Y603910D01*
X928862Y603933D01*
X928842Y603962D01*
X928771Y604016D01*
X928705Y604075D01*
X928673Y604089D01*
X928645Y604110D01*
X928571Y604139D01*
X928250Y604696D01*
X928229Y604722D01*
X928186Y604790D01*
X927787Y605291D01*
X927777Y605362D01*
X927772Y605451D01*
X927760Y605483D01*
X927755Y605518D01*
X927687Y605671D01*
X926586Y607581D01*
X926564Y607607D01*
X926549Y607639D01*
X926486Y607702D01*
X926430Y607771D01*
X926401Y607789D01*
X926377Y607814D01*
X926308Y607854D01*
X926073Y608453D01*
X926056Y608481D01*
X926023Y608555D01*
X925703Y609110D01*
X925704Y609182D01*
X925713Y609270D01*
X925705Y609304D01*
X925706Y609339D01*
X925662Y609501D01*
X924857Y611553D01*
X924840Y611583D01*
X924829Y611616D01*
X924777Y611688D01*
X924732Y611764D01*
X924705Y611787D01*
X924685Y611815D01*
X924623Y611864D01*
X924480Y612492D01*
X924468Y612523D01*
X924446Y612601D01*
X924213Y613197D01*
X924224Y613268D01*
X924246Y613354D01*
X924243Y613388D01*
X924249Y613423D01*
X924230Y613589D01*
X923740Y615738D01*
X923727Y615770D01*
X923722Y615805D01*
X923681Y615884D01*
X923647Y615966D01*
X923625Y615993D01*
X923609Y616023D01*
X923555Y616081D01*
X923507Y616723D01*
X923499Y616755D01*
X923490Y616836D01*
X923348Y617460D01*
X923369Y617529D01*
X923404Y617611D01*
X923407Y617645D01*
X923417Y617678D01*
X923423Y617846D01*
X923259Y620044D01*
X923251Y620077D01*
X923251Y620112D01*
X923222Y620197D01*
X923201Y620283D01*
X923183Y620312D01*
X923172Y620345D01*
X923127Y620411D01*
X923175Y621052D01*
X923172Y621085D01*
X923175Y621166D01*
X923128Y621805D01*
X923159Y621869D01*
X923206Y621945D01*
X923214Y621979D01*
X923229Y622010D01*
X923260Y622175D01*
X923425Y624373D01*
X923422Y624407D01*
X923427Y624442D01*
X923412Y624529D01*
X923404Y624618D01*
X923390Y624650D01*
X923384Y624684D01*
X923349Y624755D01*
X923493Y625383D01*
X923495Y625416D01*
X923510Y625495D01*
X923558Y626134D01*
X923599Y626192D01*
X923656Y626261D01*
X923669Y626293D01*
X923688Y626321D01*
X923744Y626480D01*
X924235Y628629D01*
X924237Y628663D01*
X924247Y628696D01*
X924244Y628785D01*
X924250Y628874D01*
X924241Y628908D01*
X924240Y628942D01*
X924217Y629018D01*
X924452Y629617D01*
X924459Y629649D01*
X924485Y629726D01*
X924628Y630350D01*
X924677Y630402D01*
X924744Y630461D01*
X924761Y630491D01*
X924785Y630516D01*
X924863Y630665D01*
X925669Y632716D01*
X925677Y632750D01*
X925692Y632781D01*
X925702Y632870D01*
X925721Y632957D01*
X925717Y632991D01*
X925721Y633026D01*
X925710Y633104D01*
X926032Y633661D01*
X926043Y633692D01*
X926081Y633764D01*
X926315Y634360D01*
X926372Y634404D01*
X926446Y634452D01*
X926468Y634479D01*
X926495Y634501D01*
X926595Y634636D01*
X927697Y636544D01*
X927710Y636577D01*
X927729Y636606D01*
X927753Y636691D01*
X927784Y636774D01*
X927786Y636809D01*
X927795Y636843D01*
X927795Y636922D01*
X928196Y637425D01*
X928212Y637454D01*
X928260Y637519D01*
X928581Y638073D01*
X928643Y638109D01*
X928724Y638145D01*
X928750Y638169D01*
X928780Y638186D01*
X928898Y638305D01*
X930273Y640028D01*
X930281Y640042D01*
X930286Y640047D01*
X930292Y640059D01*
X930314Y640083D01*
X930350Y640164D01*
X930393Y640242D01*
X930400Y640276D01*
X930414Y640308D01*
X930426Y640386D01*
X930898Y640824D01*
X930918Y640850D01*
X930975Y640907D01*
X931375Y641408D01*
X931441Y641433D01*
X931527Y641457D01*
X931556Y641477D01*
X931588Y641489D01*
X931723Y641589D01*
X933339Y643088D01*
X933360Y643115D01*
X933388Y643137D01*
X933436Y643212D01*
X933490Y643282D01*
X933502Y643315D01*
X933520Y643344D01*
X933544Y643420D01*
X934076Y643782D01*
X934100Y643805D01*
X934165Y643853D01*
X934634Y644289D01*
X934704Y644304D01*
X934793Y644315D01*
X934824Y644330D01*
X934858Y644337D01*
X935006Y644416D01*
X936731Y645591D01*
X936776Y645635D01*
X936828Y645670D01*
X936865Y645719D01*
X936909Y645761D01*
X936931Y645802D01*
X937017Y645852D01*
X937030Y645863D01*
X937046Y645870D01*
X937125Y645940D01*
X937207Y646008D01*
X937217Y646023D01*
X937230Y646034D01*
X937282Y646126D01*
X937338Y646216D01*
X937342Y646233D01*
X937351Y646248D01*
X937371Y646352D01*
X937396Y646455D01*
X937394Y646473D01*
X937397Y646490D01*
X937383Y646595D01*
X937374Y646700D01*
X937367Y646716D01*
X937365Y646734D01*
X937298Y646888D01*
X918848Y679346D01*
X918862Y679378D01*
X918898Y679440D01*
X918901Y679468D01*
X918913Y679494D01*
X918914Y679566D01*
X918923Y679637D01*
X918915Y679664D01*
X918916Y679693D01*
X918880Y679788D01*
X918869Y679828D01*
X918862Y679837D01*
X918858Y679849D01*
X909358Y696349D01*
X909306Y696408D01*
X909260Y696470D01*
X909241Y696481D01*
X909226Y696498D01*
X909156Y696532D01*
X909089Y696572D01*
X909065Y696576D01*
X909047Y696584D01*
X909002Y696586D01*
X908925Y696599D01*
X889925Y696599D01*
X889897Y696594D01*
X889869Y696596D01*
X889801Y696574D01*
X889730Y696560D01*
X889707Y696544D01*
X889680Y696535D01*
X889625Y696488D01*
X889566Y696447D01*
X889551Y696423D01*
X889530Y696405D01*
X889498Y696340D01*
X889459Y696280D01*
X889454Y696252D01*
X889442Y696226D01*
X889433Y696125D01*
X889427Y696086D01*
X852111Y696086D01*
X852091Y696083D01*
X852072Y696085D01*
X851970Y696063D01*
X851868Y696047D01*
X851851Y696037D01*
X851831Y696033D01*
X851742Y695980D01*
X851651Y695931D01*
X851637Y695917D01*
X851620Y695907D01*
X851553Y695828D01*
X851481Y695753D01*
X851473Y695735D01*
X851460Y695720D01*
X851421Y695624D01*
X851378Y695530D01*
X851376Y695510D01*
X851368Y695492D01*
X851350Y695325D01*
X851350Y695207D01*
X851344Y695200D01*
X851326Y695139D01*
X851298Y695083D01*
X851281Y694996D01*
X851272Y694965D01*
X851272Y694947D01*
X851267Y694918D01*
X851111Y692839D01*
X851114Y692804D01*
X851109Y692770D01*
X851125Y692682D01*
X851132Y692594D01*
X851146Y692562D01*
X851153Y692528D01*
X851187Y692456D01*
X851044Y691829D01*
X851042Y691796D01*
X851027Y691716D01*
X850979Y691078D01*
X850938Y691019D01*
X850881Y690951D01*
X850868Y690918D01*
X850849Y690890D01*
X850793Y690732D01*
X850303Y688585D01*
X850301Y688550D01*
X850291Y688517D01*
X850294Y688431D01*
X850290Y688394D01*
X850291Y688387D01*
X850288Y688339D01*
X850297Y688306D01*
X850298Y688271D01*
X850322Y688195D01*
X850087Y687596D01*
X850080Y687564D01*
X850053Y687488D01*
X849911Y686863D01*
X849861Y686811D01*
X849795Y686752D01*
X849777Y686722D01*
X849753Y686697D01*
X849675Y686549D01*
X848871Y684499D01*
X848864Y684465D01*
X848849Y684434D01*
X848838Y684345D01*
X848819Y684258D01*
X848823Y684224D01*
X848819Y684190D01*
X848831Y684111D01*
X848509Y683554D01*
X848497Y683523D01*
X848460Y683451D01*
X848226Y682855D01*
X848169Y682811D01*
X848095Y682763D01*
X848073Y682735D01*
X848046Y682714D01*
X847946Y682579D01*
X846845Y680672D01*
X846833Y680640D01*
X846814Y680611D01*
X846790Y680525D01*
X846758Y680442D01*
X846757Y680407D01*
X846748Y680374D01*
X846748Y680294D01*
X846347Y679791D01*
X846330Y679762D01*
X846312Y679738D01*
X846302Y679727D01*
X846298Y679718D01*
X846282Y679697D01*
X845962Y679143D01*
X845900Y679107D01*
X845819Y679071D01*
X845794Y679047D01*
X845763Y679030D01*
X845645Y678911D01*
X844272Y677190D01*
X844255Y677160D01*
X844232Y677134D01*
X844195Y677053D01*
X844152Y676975D01*
X844145Y676941D01*
X844131Y676909D01*
X844119Y676831D01*
X843648Y676393D01*
X843627Y676367D01*
X843570Y676310D01*
X843171Y675809D01*
X843104Y675783D01*
X843018Y675759D01*
X842990Y675740D01*
X842957Y675727D01*
X842823Y675628D01*
X841208Y674130D01*
X841187Y674103D01*
X841160Y674081D01*
X841112Y674006D01*
X841058Y673936D01*
X841046Y673903D01*
X841027Y673874D01*
X841004Y673798D01*
X840472Y673435D01*
X840448Y673413D01*
X840383Y673364D01*
X840269Y673258D01*
X840248Y673231D01*
X840221Y673209D01*
X840173Y673134D01*
X840118Y673064D01*
X840106Y673031D01*
X840088Y673003D01*
X840066Y672916D01*
X840037Y672831D01*
X840036Y672797D01*
X840028Y672764D01*
X840035Y672675D01*
X840034Y672585D01*
X840044Y672553D01*
X840047Y672519D01*
X840082Y672437D01*
X840109Y672351D01*
X840130Y672324D01*
X840143Y672292D01*
X840248Y672162D01*
X843475Y668935D01*
X843475Y664565D01*
X840385Y661475D01*
X839707Y661475D01*
X839617Y661461D01*
X839526Y661453D01*
X839497Y661441D01*
X839465Y661436D01*
X839384Y661393D01*
X839300Y661357D01*
X839268Y661331D01*
X839247Y661320D01*
X839225Y661297D01*
X839169Y661252D01*
X830312Y652395D01*
X815433Y652395D01*
X809751Y658077D01*
X809677Y658130D01*
X809608Y658190D01*
X809578Y658202D01*
X809551Y658221D01*
X809464Y658248D01*
X809380Y658282D01*
X809339Y658286D01*
X809316Y658293D01*
X809284Y658292D01*
X809213Y658300D01*
X809028Y658300D01*
X805938Y661390D01*
X805938Y665760D01*
X809062Y668884D01*
X809097Y668889D01*
X809164Y668925D01*
X809236Y668952D01*
X809273Y668982D01*
X809314Y669005D01*
X809367Y669060D01*
X809426Y669108D01*
X809451Y669148D01*
X809484Y669183D01*
X809516Y669252D01*
X809556Y669317D01*
X809567Y669363D01*
X809587Y669406D01*
X809596Y669482D01*
X809614Y669556D01*
X809609Y669603D01*
X809615Y669650D01*
X809598Y669725D01*
X809591Y669801D01*
X809572Y669844D01*
X809562Y669891D01*
X809523Y669956D01*
X809492Y670026D01*
X809460Y670061D01*
X809436Y670102D01*
X809378Y670152D01*
X809327Y670208D01*
X809273Y670242D01*
X809249Y670262D01*
X809225Y670272D01*
X809185Y670297D01*
X808772Y670495D01*
X808739Y670505D01*
X808709Y670522D01*
X808622Y670540D01*
X808536Y670565D01*
X808502Y670564D01*
X808468Y670570D01*
X808389Y670564D01*
X807857Y670927D01*
X807827Y670941D01*
X807758Y670984D01*
X807181Y671262D01*
X807142Y671321D01*
X807099Y671399D01*
X807084Y671413D01*
X807082Y671416D01*
X807073Y671424D01*
X807054Y671452D01*
X806927Y671561D01*
X805108Y672801D01*
X805076Y672816D01*
X805049Y672837D01*
X804965Y672868D01*
X804885Y672905D01*
X804850Y672909D01*
X804818Y672921D01*
X804738Y672927D01*
X804267Y673364D01*
X804239Y673383D01*
X804178Y673435D01*
X803649Y673796D01*
X803618Y673861D01*
X803588Y673944D01*
X803566Y673972D01*
X803551Y674003D01*
X803442Y674130D01*
X801827Y675628D01*
X801799Y675647D01*
X801775Y675672D01*
X801697Y675714D01*
X801622Y675764D01*
X801589Y675772D01*
X801559Y675789D01*
X801481Y675806D01*
X801080Y676310D01*
X801055Y676332D01*
X801002Y676393D01*
X800533Y676829D01*
X800512Y676897D01*
X800495Y676985D01*
X800477Y677015D01*
X800467Y677048D01*
X800378Y677190D01*
X799005Y678911D01*
X798979Y678934D01*
X798960Y678963D01*
X798889Y679017D01*
X798823Y679076D01*
X798791Y679090D01*
X798763Y679111D01*
X798689Y679140D01*
X798367Y679697D01*
X798347Y679723D01*
X798303Y679791D01*
X797904Y680292D01*
X797894Y680363D01*
X797890Y680452D01*
X797877Y680484D01*
X797872Y680518D01*
X797805Y680672D01*
X796704Y682579D01*
X796682Y682606D01*
X796667Y682637D01*
X796604Y682701D01*
X796548Y682769D01*
X796519Y682788D01*
X796494Y682812D01*
X796425Y682852D01*
X796190Y683451D01*
X796174Y683479D01*
X796141Y683554D01*
X795821Y684108D01*
X795821Y684180D01*
X795830Y684268D01*
X795823Y684302D01*
X795823Y684337D01*
X795779Y684499D01*
X794975Y686549D01*
X794957Y686578D01*
X794947Y686611D01*
X794895Y686683D01*
X794849Y686760D01*
X794823Y686783D01*
X794802Y686811D01*
X794740Y686860D01*
X794597Y687488D01*
X794585Y687518D01*
X794563Y687596D01*
X794330Y688192D01*
X794341Y688263D01*
X794363Y688349D01*
X794360Y688384D01*
X794366Y688418D01*
X794360Y688468D01*
X794360Y688473D01*
X794358Y688484D01*
X794347Y688585D01*
X793857Y690732D01*
X793844Y690764D01*
X793838Y690798D01*
X793797Y690877D01*
X793764Y690959D01*
X793741Y690986D01*
X793725Y691016D01*
X793671Y691074D01*
X793623Y691716D01*
X793615Y691748D01*
X793606Y691829D01*
X793464Y692453D01*
X793485Y692522D01*
X793520Y692604D01*
X793523Y692638D01*
X793533Y692671D01*
X793539Y692839D01*
X793383Y694918D01*
X793368Y694979D01*
X793363Y695042D01*
X793340Y695098D01*
X793325Y695157D01*
X793300Y695197D01*
X793300Y695325D01*
X793297Y695345D01*
X793299Y695364D01*
X793277Y695466D01*
X793261Y695568D01*
X793251Y695585D01*
X793247Y695605D01*
X793194Y695694D01*
X793145Y695785D01*
X793131Y695799D01*
X793121Y695816D01*
X793042Y695883D01*
X792967Y695955D01*
X792949Y695963D01*
X792934Y695976D01*
X792838Y696015D01*
X792744Y696058D01*
X792724Y696060D01*
X792706Y696068D01*
X792539Y696086D01*
X755220Y696086D01*
X755219Y696089D01*
X755224Y696117D01*
X755207Y696186D01*
X755199Y696258D01*
X755185Y696282D01*
X755178Y696310D01*
X755135Y696368D01*
X755100Y696430D01*
X755077Y696447D01*
X755060Y696470D01*
X754998Y696507D01*
X754941Y696550D01*
X754913Y696557D01*
X754889Y696572D01*
X754789Y696588D01*
X754748Y696599D01*
X754738Y696597D01*
X754725Y696599D01*
X735725Y696599D01*
X735649Y696584D01*
X735571Y696575D01*
X735552Y696564D01*
X735530Y696560D01*
X735466Y696516D01*
X735398Y696477D01*
X735382Y696458D01*
X735366Y696447D01*
X735342Y696409D01*
X735292Y696349D01*
X725792Y679849D01*
X725783Y679822D01*
X725767Y679798D01*
X725752Y679728D01*
X725729Y679660D01*
X725732Y679632D01*
X725726Y679604D01*
X725740Y679534D01*
X725745Y679462D01*
X725758Y679437D01*
X725764Y679409D01*
X725804Y679349D01*
X725824Y679310D01*
X707640Y646715D01*
X707634Y646701D01*
X707626Y646688D01*
X707593Y646585D01*
X707556Y646483D01*
X707556Y646468D01*
X707551Y646454D01*
X707553Y646346D01*
X707551Y646237D01*
X707555Y646223D01*
X707555Y646208D01*
X707587Y646118D01*
X707613Y646023D01*
X707639Y645966D01*
X707655Y645905D01*
X707689Y645854D01*
X707714Y645799D01*
X707757Y645753D01*
X707792Y645700D01*
X707859Y645643D01*
X707881Y645619D01*
X707897Y645610D01*
X707919Y645591D01*
X709644Y644416D01*
X709676Y644401D01*
X709703Y644380D01*
X709787Y644350D01*
X709867Y644312D01*
X709902Y644308D01*
X709934Y644297D01*
X710013Y644291D01*
X710485Y643853D01*
X710513Y643835D01*
X710574Y643782D01*
X711104Y643422D01*
X711134Y643357D01*
X711165Y643273D01*
X711186Y643246D01*
X711201Y643215D01*
X711311Y643088D01*
X712927Y641589D01*
X712956Y641570D01*
X712980Y641545D01*
X713058Y641502D01*
X713132Y641453D01*
X713165Y641444D01*
X713196Y641428D01*
X713273Y641410D01*
X713675Y640907D01*
X713699Y640885D01*
X713752Y640824D01*
X714222Y640389D01*
X714242Y640320D01*
X714260Y640233D01*
X714277Y640203D01*
X714287Y640169D01*
X714377Y640028D01*
X715752Y638305D01*
X715777Y638281D01*
X715797Y638253D01*
X715868Y638199D01*
X715934Y638140D01*
X715966Y638126D01*
X715994Y638105D01*
X716068Y638076D01*
X716390Y637519D01*
X716411Y637493D01*
X716454Y637425D01*
X716853Y636924D01*
X716863Y636854D01*
X716868Y636765D01*
X716880Y636732D01*
X716885Y636698D01*
X716953Y636544D01*
X718055Y634636D01*
X718077Y634609D01*
X718093Y634578D01*
X718155Y634515D01*
X718211Y634446D01*
X718241Y634427D01*
X718265Y634402D01*
X718334Y634363D01*
X718569Y633764D01*
X718586Y633735D01*
X718618Y633661D01*
X718939Y633107D01*
X718938Y633035D01*
X718929Y632947D01*
X718937Y632913D01*
X718937Y632878D01*
X718981Y632716D01*
X719787Y630665D01*
X719804Y630635D01*
X719815Y630602D01*
X719867Y630530D01*
X719912Y630453D01*
X719939Y630431D01*
X719959Y630403D01*
X720021Y630353D01*
X720165Y629726D01*
X720177Y629695D01*
X720198Y629617D01*
X720432Y629021D01*
X720421Y628950D01*
X720399Y628864D01*
X720402Y628829D01*
X720396Y628795D01*
X720415Y628629D01*
X720906Y626480D01*
X720920Y626448D01*
X720925Y626413D01*
X720966Y626334D01*
X720999Y626252D01*
X721022Y626226D01*
X721038Y626195D01*
X721092Y626137D01*
X721140Y625495D01*
X721148Y625463D01*
X721157Y625383D01*
X721300Y624758D01*
X721278Y624690D01*
X721244Y624608D01*
X721241Y624573D01*
X721231Y624540D01*
X721225Y624373D01*
X721390Y622175D01*
X721398Y622141D01*
X721399Y622106D01*
X721427Y622022D01*
X721448Y621936D01*
X721467Y621906D01*
X721478Y621874D01*
X721533Y621792D01*
X721545Y621739D01*
X721552Y621664D01*
X721571Y621620D01*
X721581Y621573D01*
X721620Y621508D01*
X721650Y621439D01*
X721683Y621403D01*
X721707Y621361D01*
X721765Y621312D01*
X721815Y621256D01*
X721858Y621233D01*
X721894Y621201D01*
X721964Y621173D01*
X722030Y621137D01*
X722078Y621128D01*
X722122Y621110D01*
X722249Y621096D01*
X722272Y621091D01*
X722279Y621092D01*
X722289Y621091D01*
X725775Y621091D01*
X728293Y618573D01*
X728293Y615012D01*
X725775Y612494D01*
X722214Y612494D01*
X721562Y613145D01*
X721519Y613176D01*
X721482Y613215D01*
X721420Y613248D01*
X721362Y613289D01*
X721312Y613305D01*
X721265Y613329D01*
X721195Y613341D01*
X721127Y613361D01*
X721074Y613360D01*
X721022Y613368D01*
X720952Y613357D01*
X720881Y613355D01*
X720831Y613337D01*
X720779Y613328D01*
X720717Y613295D01*
X720650Y613271D01*
X720609Y613237D01*
X720562Y613212D01*
X720513Y613161D01*
X720458Y613117D01*
X720430Y613072D01*
X720393Y613034D01*
X720341Y612934D01*
X720325Y612910D01*
X720323Y612900D01*
X720315Y612885D01*
X720204Y612601D01*
X720197Y612568D01*
X720183Y612528D01*
X720176Y612514D01*
X720175Y612507D01*
X720170Y612492D01*
X720028Y611868D01*
X719979Y611816D01*
X719912Y611757D01*
X719895Y611727D01*
X719871Y611701D01*
X719793Y611553D01*
X718988Y609501D01*
X718983Y609475D01*
X718980Y609469D01*
X718979Y609463D01*
X718966Y609436D01*
X718955Y609347D01*
X718936Y609260D01*
X718940Y609226D01*
X718936Y609191D01*
X718948Y609113D01*
X718627Y608555D01*
X718615Y608525D01*
X718577Y608453D01*
X718343Y607857D01*
X718287Y607813D01*
X718212Y607764D01*
X718191Y607737D01*
X718163Y607716D01*
X718064Y607581D01*
X716963Y605671D01*
X716950Y605639D01*
X716931Y605610D01*
X716907Y605524D01*
X716876Y605441D01*
X716874Y605407D01*
X716865Y605373D01*
X716865Y605294D01*
X716464Y604790D01*
X716448Y604762D01*
X716400Y604696D01*
X716080Y604142D01*
X716018Y604106D01*
X715937Y604070D01*
X715911Y604046D01*
X715881Y604029D01*
X715763Y603910D01*
X714389Y602187D01*
X714372Y602156D01*
X714349Y602131D01*
X714312Y602049D01*
X714269Y601972D01*
X714262Y601938D01*
X714248Y601906D01*
X714237Y601828D01*
X713765Y601390D01*
X713745Y601364D01*
X713688Y601306D01*
X713288Y600805D01*
X713221Y600780D01*
X713136Y600756D01*
X713107Y600736D01*
X713075Y600724D01*
X712940Y600624D01*
X711325Y599124D01*
X711303Y599097D01*
X711276Y599075D01*
X711229Y599000D01*
X711174Y598930D01*
X711162Y598897D01*
X711144Y598868D01*
X711121Y598792D01*
X710589Y598429D01*
X710565Y598407D01*
X710500Y598358D01*
X710031Y597923D01*
X709961Y597907D01*
X709872Y597896D01*
X709841Y597881D01*
X709807Y597874D01*
X709659Y597795D01*
X707838Y596553D01*
X707813Y596529D01*
X707783Y596511D01*
X707725Y596445D01*
X707660Y596383D01*
X707644Y596353D01*
X707621Y596326D01*
X707587Y596255D01*
X707007Y595975D01*
X706980Y595957D01*
X706909Y595918D01*
X706380Y595558D01*
X706369Y595557D01*
X706329Y595561D01*
X706322Y595561D01*
X706275Y595554D01*
X706219Y595555D01*
X706186Y595545D01*
X706151Y595542D01*
X706103Y595525D01*
X706079Y595522D01*
X706053Y595508D01*
X705993Y595487D01*
X704008Y594530D01*
X703979Y594510D01*
X703947Y594497D01*
X703879Y594440D01*
X703806Y594389D01*
X703786Y594361D01*
X703759Y594338D01*
X703715Y594273D01*
X703100Y594083D01*
X703070Y594068D01*
X702994Y594041D01*
X702417Y593763D01*
X702345Y593769D01*
X702258Y593784D01*
X702224Y593779D01*
X702189Y593782D01*
X702024Y593751D01*
X699918Y593100D01*
X699887Y593085D01*
X699853Y593077D01*
X699777Y593030D01*
X699698Y592991D01*
X699674Y592966D01*
X699644Y592948D01*
X699590Y592890D01*
X698954Y592793D01*
X698922Y592783D01*
X698843Y592768D01*
X698231Y592579D01*
X698161Y592596D01*
X698077Y592624D01*
X698042Y592624D01*
X698008Y592632D01*
X697841Y592625D01*
X695661Y592296D01*
X695628Y592285D01*
X695594Y592283D01*
X695512Y592248D01*
X695427Y592221D01*
X695399Y592200D01*
X695367Y592186D01*
X695306Y592137D01*
X694662Y592137D01*
X694629Y592131D01*
X694548Y592128D01*
X693915Y592032D01*
X693849Y592059D01*
X693770Y592100D01*
X693735Y592105D01*
X693703Y592118D01*
X693536Y592136D01*
X691332Y592135D01*
X691298Y592130D01*
X691263Y592132D01*
X691177Y592110D01*
X691090Y592096D01*
X691059Y592079D01*
X691025Y592071D01*
X690957Y592031D01*
X690320Y592127D01*
X690287Y592126D01*
X690207Y592135D01*
X689566Y592135D01*
X689504Y592171D01*
X689432Y592223D01*
X689399Y592233D01*
X689369Y592251D01*
X689207Y592294D01*
X687027Y592622D01*
X686993Y592621D01*
X686959Y592629D01*
X686870Y592620D01*
X686782Y592619D01*
X686749Y592607D01*
X686714Y592604D01*
X686641Y592574D01*
X686025Y592764D01*
X685993Y592768D01*
X685914Y592789D01*
X685281Y592884D01*
X685225Y592930D01*
X685162Y592992D01*
X685131Y593007D01*
X685104Y593029D01*
X684950Y593095D01*
X682843Y593744D01*
X682809Y593749D01*
X682777Y593762D01*
X682688Y593766D01*
X682600Y593778D01*
X682566Y593771D01*
X682531Y593773D01*
X682454Y593755D01*
X681874Y594034D01*
X681842Y594044D01*
X681768Y594076D01*
X681156Y594264D01*
X681107Y594317D01*
X681054Y594388D01*
X681025Y594408D01*
X681002Y594433D01*
X680859Y594522D01*
X679662Y595098D01*
X679548Y595132D01*
X679433Y595167D01*
X679429Y595167D01*
X679426Y595168D01*
X679307Y595163D01*
X679187Y595160D01*
X679184Y595159D01*
X679180Y595158D01*
X679067Y595115D01*
X678956Y595074D01*
X678954Y595072D01*
X678950Y595071D01*
X678857Y594994D01*
X678765Y594920D01*
X678762Y594917D01*
X678760Y594915D01*
X678754Y594905D01*
X678667Y594783D01*
X660376Y561998D01*
X658909Y563011D01*
X658882Y563022D01*
X658860Y563041D01*
X658791Y563061D01*
X658726Y563089D01*
X658697Y563089D01*
X658669Y563097D01*
X658598Y563089D01*
X658527Y563090D01*
X658500Y563078D01*
X658471Y563075D01*
X658409Y563040D01*
X658344Y563012D01*
X658323Y562992D01*
X658298Y562977D01*
X658235Y562900D01*
X658205Y562870D01*
X658201Y562860D01*
X658192Y562849D01*
X648692Y546349D01*
X648668Y546276D01*
X648637Y546206D01*
X648637Y546182D01*
X648629Y546160D01*
X648636Y546084D01*
X648635Y546007D01*
X648644Y545983D01*
X648645Y545962D01*
X648666Y545923D01*
X648685Y545871D01*
X648686Y545865D01*
X648688Y545863D01*
X648692Y545851D01*
X658192Y529351D01*
X658211Y529329D01*
X658224Y529303D01*
X658277Y529255D01*
X658324Y529202D01*
X658350Y529189D01*
X658372Y529170D01*
X658439Y529147D01*
X658503Y529116D01*
X658532Y529115D01*
X658559Y529105D01*
X658631Y529110D01*
X658702Y529107D01*
X658729Y529117D01*
X658758Y529119D01*
X658848Y529161D01*
X658888Y529176D01*
X658896Y529183D01*
X658909Y529189D01*
X659308Y529465D01*
X677627Y496976D01*
X677642Y496958D01*
X677651Y496936D01*
X677685Y496899D01*
X677702Y496869D01*
X677735Y496842D01*
X677781Y496784D01*
X677801Y496771D01*
X677817Y496754D01*
X677876Y496721D01*
X677889Y496709D01*
X677911Y496700D01*
X677988Y496651D01*
X678011Y496646D01*
X678031Y496634D01*
X678114Y496619D01*
X678118Y496617D01*
X678127Y496616D01*
X678129Y496616D01*
X678226Y496591D01*
X678250Y496593D01*
X678273Y496589D01*
X678372Y496603D01*
X678471Y496611D01*
X678493Y496620D01*
X678517Y496623D01*
X678670Y496691D01*
X678686Y496700D01*
X678696Y496699D01*
X678757Y496713D01*
X678820Y496717D01*
X678904Y496746D01*
X678936Y496754D01*
X678951Y496763D01*
X678979Y496773D01*
X680859Y497678D01*
X680888Y497698D01*
X680920Y497710D01*
X680988Y497768D01*
X681061Y497819D01*
X681081Y497847D01*
X681108Y497869D01*
X681153Y497935D01*
X681768Y498124D01*
X681797Y498139D01*
X681874Y498166D01*
X682451Y498443D01*
X682522Y498437D01*
X682610Y498422D01*
X682644Y498427D01*
X682678Y498424D01*
X682843Y498456D01*
X684950Y499105D01*
X684981Y499120D01*
X685015Y499128D01*
X685090Y499174D01*
X685170Y499214D01*
X685195Y499239D01*
X685224Y499257D01*
X685278Y499315D01*
X685914Y499411D01*
X685946Y499421D01*
X686025Y499436D01*
X686637Y499625D01*
X686707Y499608D01*
X686791Y499580D01*
X686826Y499580D01*
X686860Y499572D01*
X687027Y499578D01*
X688065Y499734D01*
X688079Y499739D01*
X688094Y499739D01*
X688196Y499776D01*
X688299Y499810D01*
X688311Y499818D01*
X688325Y499824D01*
X688410Y499891D01*
X688497Y499956D01*
X688506Y499968D01*
X688517Y499977D01*
X688576Y500068D01*
X688638Y500157D01*
X688642Y500172D01*
X688650Y500184D01*
X688677Y500289D01*
X688707Y500393D01*
X688707Y500408D01*
X688710Y500423D01*
X688702Y500530D01*
X688698Y500639D01*
X688692Y500653D01*
X688691Y500668D01*
X688649Y500768D01*
X688610Y500869D01*
X688601Y500881D01*
X688595Y500894D01*
X688490Y501025D01*
X685288Y504228D01*
X685288Y508597D01*
X688378Y511687D01*
X692747Y511687D01*
X693226Y511208D01*
X693300Y511155D01*
X693370Y511096D01*
X693400Y511083D01*
X693426Y511065D01*
X693513Y511038D01*
X693598Y511004D01*
X693639Y510999D01*
X693661Y510992D01*
X693693Y510993D01*
X693765Y510985D01*
X698339Y510985D01*
X698429Y511000D01*
X698520Y511007D01*
X698549Y511020D01*
X698581Y511025D01*
X698662Y511068D01*
X698746Y511103D01*
X698778Y511129D01*
X698799Y511140D01*
X698821Y511163D01*
X698877Y511208D01*
X700031Y512362D01*
X705801Y512362D01*
X705891Y512377D01*
X705982Y512384D01*
X706012Y512396D01*
X706044Y512402D01*
X706124Y512444D01*
X706208Y512480D01*
X706240Y512506D01*
X706261Y512517D01*
X706283Y512540D01*
X706339Y512585D01*
X712498Y518743D01*
X712510Y518760D01*
X712525Y518772D01*
X712581Y518859D01*
X712641Y518943D01*
X712647Y518962D01*
X712658Y518979D01*
X712683Y519079D01*
X712714Y519178D01*
X712713Y519198D01*
X712718Y519218D01*
X712710Y519321D01*
X712707Y519424D01*
X712701Y519443D01*
X712699Y519463D01*
X712659Y519558D01*
X712623Y519655D01*
X712611Y519671D01*
X712603Y519689D01*
X712498Y519820D01*
X712275Y520043D01*
X712275Y524412D01*
X715365Y527502D01*
X719735Y527502D01*
X722825Y524412D01*
X722825Y520043D01*
X722346Y519564D01*
X722293Y519490D01*
X722233Y519420D01*
X722221Y519390D01*
X722202Y519364D01*
X722175Y519277D01*
X722141Y519192D01*
X722137Y519151D01*
X722130Y519129D01*
X722131Y519097D01*
X722123Y519025D01*
X722123Y515435D01*
X715015Y508327D01*
X715004Y508311D01*
X714988Y508299D01*
X714932Y508211D01*
X714872Y508128D01*
X714866Y508109D01*
X714855Y508092D01*
X714830Y507991D01*
X714800Y507893D01*
X714800Y507873D01*
X714795Y507853D01*
X714803Y507750D01*
X714806Y507647D01*
X714813Y507628D01*
X714814Y507608D01*
X714855Y507513D01*
X714890Y507416D01*
X714903Y507400D01*
X714911Y507382D01*
X715015Y507251D01*
X716886Y505380D01*
X716886Y502923D01*
X716889Y502904D01*
X716887Y502884D01*
X716909Y502783D01*
X716926Y502681D01*
X716935Y502663D01*
X716940Y502644D01*
X716993Y502555D01*
X717041Y502463D01*
X717055Y502450D01*
X717066Y502433D01*
X717144Y502365D01*
X717219Y502294D01*
X717237Y502286D01*
X717253Y502273D01*
X717349Y502234D01*
X717442Y502190D01*
X717462Y502188D01*
X717481Y502181D01*
X717647Y502162D01*
X718147Y502162D01*
X721237Y499072D01*
X721237Y494703D01*
X718147Y491613D01*
X714839Y491613D01*
X714755Y491599D01*
X714669Y491594D01*
X714634Y491579D01*
X714597Y491573D01*
X714521Y491533D01*
X714441Y491501D01*
X714413Y491476D01*
X714379Y491458D01*
X714320Y491396D01*
X714255Y491340D01*
X714236Y491307D01*
X714210Y491280D01*
X714174Y491202D01*
X714130Y491128D01*
X714122Y491091D01*
X714106Y491057D01*
X714097Y490971D01*
X714079Y490887D01*
X714083Y490850D01*
X714079Y490812D01*
X714097Y490728D01*
X714107Y490643D01*
X714123Y490609D01*
X714131Y490572D01*
X714175Y490498D01*
X714212Y490421D01*
X714230Y490400D01*
X714229Y490391D01*
X714255Y490306D01*
X714272Y490219D01*
X714290Y490189D01*
X714300Y490155D01*
X714389Y490013D01*
X715763Y488290D01*
X715788Y488267D01*
X715808Y488238D01*
X715879Y488184D01*
X715945Y488125D01*
X715977Y488111D01*
X716005Y488090D01*
X716079Y488061D01*
X716400Y487504D01*
X716421Y487478D01*
X716464Y487410D01*
X716863Y486909D01*
X716873Y486838D01*
X716878Y486749D01*
X716890Y486717D01*
X716895Y486682D01*
X716963Y486529D01*
X718064Y484619D01*
X718086Y484593D01*
X718101Y484561D01*
X718164Y484498D01*
X718220Y484429D01*
X718249Y484411D01*
X718273Y484386D01*
X718342Y484346D01*
X718577Y483747D01*
X718594Y483719D01*
X718627Y483645D01*
X718947Y483090D01*
X718946Y483018D01*
X718937Y482930D01*
X718945Y482896D01*
X718944Y482861D01*
X718988Y482699D01*
X719793Y480647D01*
X719810Y480617D01*
X719821Y480584D01*
X719873Y480512D01*
X719918Y480436D01*
X719945Y480413D01*
X719965Y480385D01*
X720027Y480336D01*
X720170Y479708D01*
X720182Y479677D01*
X720204Y479599D01*
X720437Y479003D01*
X720426Y478932D01*
X720404Y478846D01*
X720407Y478812D01*
X720401Y478777D01*
X720420Y478611D01*
X720910Y476462D01*
X720923Y476429D01*
X720928Y476395D01*
X720969Y476316D01*
X721003Y476234D01*
X721025Y476207D01*
X721041Y476177D01*
X721095Y476119D01*
X721143Y475477D01*
X721151Y475445D01*
X721160Y475364D01*
X721302Y474740D01*
X721281Y474672D01*
X721246Y474590D01*
X721243Y474555D01*
X721233Y474522D01*
X721227Y474354D01*
X721391Y472156D01*
X721399Y472123D01*
X721399Y472088D01*
X721428Y472003D01*
X721449Y471917D01*
X721467Y471888D01*
X721478Y471855D01*
X721523Y471789D01*
X721475Y471148D01*
X721478Y471115D01*
X721475Y471034D01*
X721522Y470395D01*
X721491Y470331D01*
X721444Y470255D01*
X721436Y470221D01*
X721421Y470190D01*
X721416Y470161D01*
X721415Y470160D01*
X721415Y470156D01*
X721390Y470025D01*
X721225Y467827D01*
X721228Y467793D01*
X721223Y467758D01*
X721238Y467671D01*
X721246Y467582D01*
X721260Y467550D01*
X721266Y467516D01*
X721301Y467445D01*
X721157Y466817D01*
X721155Y466784D01*
X721140Y466705D01*
X721092Y466066D01*
X721051Y466008D01*
X720994Y465939D01*
X720981Y465907D01*
X720962Y465879D01*
X720906Y465720D01*
X720415Y463571D01*
X720413Y463537D01*
X720403Y463504D01*
X720406Y463415D01*
X720400Y463326D01*
X720409Y463292D01*
X720410Y463258D01*
X720433Y463182D01*
X720198Y462583D01*
X720192Y462556D01*
X720188Y462548D01*
X720188Y462541D01*
X720165Y462474D01*
X720022Y461850D01*
X719973Y461798D01*
X719906Y461739D01*
X719889Y461709D01*
X719865Y461684D01*
X719787Y461535D01*
X718981Y459484D01*
X718973Y459450D01*
X718958Y459419D01*
X718948Y459330D01*
X718929Y459243D01*
X718933Y459209D01*
X718929Y459174D01*
X718940Y459096D01*
X718618Y458539D01*
X718607Y458508D01*
X718569Y458436D01*
X718335Y457840D01*
X718278Y457796D01*
X718204Y457748D01*
X718182Y457721D01*
X718155Y457699D01*
X718055Y457564D01*
X716953Y455656D01*
X716940Y455623D01*
X716921Y455594D01*
X716897Y455509D01*
X716866Y455426D01*
X716864Y455391D01*
X716855Y455357D01*
X716855Y455278D01*
X716454Y454775D01*
X716438Y454746D01*
X716390Y454681D01*
X716069Y454127D01*
X716007Y454091D01*
X715926Y454055D01*
X715900Y454031D01*
X715870Y454014D01*
X715752Y453895D01*
X714377Y452172D01*
X714360Y452142D01*
X714336Y452117D01*
X714300Y452036D01*
X714257Y451958D01*
X714250Y451924D01*
X714236Y451892D01*
X714224Y451814D01*
X713752Y451376D01*
X713732Y451350D01*
X713675Y451293D01*
X713275Y450792D01*
X713209Y450767D01*
X713123Y450743D01*
X713094Y450723D01*
X713062Y450711D01*
X712927Y450611D01*
X711311Y449112D01*
X711289Y449085D01*
X711262Y449063D01*
X711214Y448988D01*
X711160Y448918D01*
X711148Y448885D01*
X711130Y448856D01*
X711106Y448780D01*
X710574Y448418D01*
X710550Y448395D01*
X710485Y448347D01*
X710016Y447911D01*
X709946Y447896D01*
X709858Y447885D01*
X709826Y447870D01*
X709792Y447863D01*
X709644Y447784D01*
X707919Y446609D01*
X707874Y446565D01*
X707822Y446530D01*
X707785Y446481D01*
X707741Y446439D01*
X707719Y446398D01*
X707184Y446089D01*
X707171Y446079D01*
X707157Y446072D01*
X707077Y446001D01*
X706994Y445933D01*
X706985Y445919D01*
X706973Y445909D01*
X706920Y445816D01*
X706863Y445725D01*
X706859Y445709D01*
X706851Y445695D01*
X706830Y445589D01*
X706805Y445486D01*
X706807Y445470D01*
X706803Y445454D01*
X706817Y445347D01*
X706827Y445241D01*
X706833Y445226D01*
X706835Y445210D01*
X706901Y445056D01*
X734278Y396501D01*
X734322Y396445D01*
X734359Y396384D01*
X734399Y396350D01*
X734431Y396309D01*
X734492Y396271D01*
X734546Y396224D01*
X734595Y396205D01*
X734638Y396176D01*
X734708Y396159D01*
X734774Y396132D01*
X734846Y396124D01*
X734877Y396116D01*
X734900Y396118D01*
X734941Y396114D01*
X735141Y396114D01*
X735292Y395851D01*
X735344Y395793D01*
X735390Y395730D01*
X735409Y395719D01*
X735424Y395702D01*
X735494Y395668D01*
X735561Y395628D01*
X735586Y395624D01*
X735603Y395616D01*
X735648Y395614D01*
X735725Y395601D01*
X754725Y395601D01*
X754753Y395606D01*
G37*
%LPC*%
G36*
X770156Y492513D02*
X770156Y492513D01*
X769263Y493406D01*
X769263Y504669D01*
X770156Y505562D01*
X778545Y505562D01*
X778635Y505577D01*
X778726Y505584D01*
X778755Y505597D01*
X778787Y505602D01*
X778868Y505645D01*
X778952Y505680D01*
X778984Y505706D01*
X779005Y505717D01*
X779027Y505740D01*
X779083Y505785D01*
X779620Y506322D01*
X779673Y506396D01*
X779732Y506466D01*
X779745Y506496D01*
X779763Y506522D01*
X779790Y506609D01*
X779824Y506694D01*
X779829Y506735D01*
X779836Y506757D01*
X779835Y506789D01*
X779843Y506860D01*
X779843Y513203D01*
X779828Y513293D01*
X779821Y513384D01*
X779808Y513414D01*
X779803Y513446D01*
X779760Y513526D01*
X779725Y513610D01*
X779699Y513643D01*
X779688Y513663D01*
X779665Y513685D01*
X779620Y513741D01*
X778339Y515022D01*
X778339Y516750D01*
X778324Y516840D01*
X778317Y516931D01*
X778304Y516961D01*
X778299Y516993D01*
X778256Y517074D01*
X778221Y517157D01*
X778195Y517190D01*
X778184Y517210D01*
X778161Y517232D01*
X778116Y517288D01*
X774783Y520621D01*
X774783Y527551D01*
X803873Y556641D01*
X807847Y556641D01*
X807867Y556644D01*
X807886Y556642D01*
X807988Y556664D01*
X808090Y556680D01*
X808107Y556690D01*
X808127Y556694D01*
X808216Y556747D01*
X808307Y556796D01*
X808321Y556810D01*
X808338Y556820D01*
X808405Y556899D01*
X808477Y556974D01*
X808485Y556992D01*
X808498Y557007D01*
X808537Y557103D01*
X808580Y557197D01*
X808582Y557217D01*
X808590Y557235D01*
X808608Y557402D01*
X808608Y570334D01*
X809204Y570929D01*
X833859Y570929D01*
X834986Y569802D01*
X835044Y569760D01*
X835096Y569711D01*
X835143Y569689D01*
X835185Y569659D01*
X835254Y569638D01*
X835319Y569607D01*
X835371Y569602D01*
X835421Y569586D01*
X835492Y569588D01*
X835563Y569580D01*
X835614Y569591D01*
X835666Y569593D01*
X835734Y569617D01*
X835804Y569632D01*
X835849Y569659D01*
X835897Y569677D01*
X835953Y569722D01*
X836015Y569759D01*
X836049Y569798D01*
X836089Y569831D01*
X836128Y569891D01*
X836175Y569946D01*
X836194Y569994D01*
X836222Y570038D01*
X836240Y570107D01*
X836267Y570174D01*
X836275Y570245D01*
X836283Y570276D01*
X836281Y570299D01*
X836285Y570340D01*
X836285Y573739D01*
X836282Y573759D01*
X836284Y573778D01*
X836262Y573880D01*
X836246Y573982D01*
X836236Y573999D01*
X836232Y574019D01*
X836179Y574108D01*
X836130Y574199D01*
X836116Y574213D01*
X836106Y574230D01*
X836027Y574297D01*
X835952Y574369D01*
X835934Y574377D01*
X835919Y574390D01*
X835823Y574429D01*
X835729Y574472D01*
X835709Y574474D01*
X835691Y574482D01*
X835524Y574500D01*
X834218Y574500D01*
X833325Y575393D01*
X833325Y601857D01*
X834218Y602750D01*
X848482Y602750D01*
X849375Y601857D01*
X849375Y587946D01*
X849378Y587928D01*
X849376Y587909D01*
X849376Y587907D01*
X849398Y587806D01*
X849414Y587704D01*
X849424Y587686D01*
X849428Y587667D01*
X849481Y587578D01*
X849530Y587486D01*
X849544Y587473D01*
X849554Y587456D01*
X849633Y587388D01*
X849708Y587317D01*
X849726Y587309D01*
X849741Y587296D01*
X849837Y587257D01*
X849931Y587213D01*
X849951Y587211D01*
X849969Y587204D01*
X850136Y587185D01*
X854999Y587185D01*
X855089Y587200D01*
X855180Y587207D01*
X855210Y587220D01*
X855242Y587225D01*
X855322Y587268D01*
X855406Y587303D01*
X855438Y587329D01*
X855459Y587340D01*
X855461Y587342D01*
X855482Y587364D01*
X855537Y587408D01*
X856016Y587887D01*
X860386Y587887D01*
X863476Y584797D01*
X863476Y580428D01*
X860386Y577338D01*
X856016Y577338D01*
X855537Y577817D01*
X855463Y577870D01*
X855394Y577929D01*
X855364Y577942D01*
X855337Y577960D01*
X855250Y577987D01*
X855166Y578021D01*
X855125Y578026D01*
X855102Y578033D01*
X855070Y578032D01*
X854999Y578040D01*
X848136Y578040D01*
X848116Y578037D01*
X848097Y578039D01*
X847995Y578017D01*
X847893Y578000D01*
X847876Y577991D01*
X847856Y577986D01*
X847767Y577933D01*
X847676Y577885D01*
X847662Y577871D01*
X847645Y577860D01*
X847578Y577782D01*
X847506Y577707D01*
X847498Y577689D01*
X847485Y577673D01*
X847446Y577577D01*
X847403Y577484D01*
X847401Y577464D01*
X847393Y577445D01*
X847375Y577279D01*
X847375Y575393D01*
X846482Y574500D01*
X845176Y574500D01*
X845156Y574497D01*
X845137Y574499D01*
X845035Y574477D01*
X844933Y574461D01*
X844916Y574451D01*
X844896Y574447D01*
X844807Y574394D01*
X844716Y574345D01*
X844702Y574331D01*
X844685Y574321D01*
X844618Y574242D01*
X844546Y574167D01*
X844538Y574149D01*
X844525Y574134D01*
X844486Y574038D01*
X844443Y573944D01*
X844441Y573924D01*
X844433Y573906D01*
X844415Y573739D01*
X844415Y558486D01*
X844418Y558466D01*
X844416Y558447D01*
X844438Y558345D01*
X844454Y558243D01*
X844464Y558226D01*
X844468Y558206D01*
X844521Y558117D01*
X844570Y558026D01*
X844584Y558012D01*
X844594Y557995D01*
X844673Y557928D01*
X844748Y557856D01*
X844766Y557848D01*
X844781Y557835D01*
X844877Y557796D01*
X844971Y557753D01*
X844991Y557751D01*
X845009Y557743D01*
X845144Y557728D01*
X848237Y554635D01*
X848237Y550265D01*
X845147Y547175D01*
X840778Y547175D01*
X837688Y550265D01*
X837688Y550639D01*
X837676Y550710D01*
X837674Y550782D01*
X837656Y550830D01*
X837648Y550882D01*
X837614Y550945D01*
X837590Y551013D01*
X837557Y551053D01*
X837533Y551099D01*
X837481Y551149D01*
X837436Y551205D01*
X837392Y551233D01*
X837355Y551269D01*
X837290Y551299D01*
X837229Y551338D01*
X837179Y551350D01*
X837132Y551372D01*
X837060Y551380D01*
X836991Y551398D01*
X836939Y551394D01*
X836887Y551399D01*
X836817Y551384D01*
X836745Y551378D01*
X836698Y551358D01*
X836647Y551347D01*
X836585Y551310D01*
X836519Y551282D01*
X836463Y551237D01*
X836436Y551221D01*
X836420Y551203D01*
X836388Y551177D01*
X836265Y551054D01*
X836211Y550980D01*
X836152Y550910D01*
X836140Y550880D01*
X836121Y550854D01*
X836094Y550767D01*
X836060Y550682D01*
X836056Y550641D01*
X836049Y550619D01*
X836050Y550587D01*
X836042Y550516D01*
X836042Y539623D01*
X836056Y539533D01*
X836064Y539442D01*
X836076Y539412D01*
X836081Y539380D01*
X836124Y539299D01*
X836160Y539215D01*
X836186Y539183D01*
X836197Y539163D01*
X836220Y539140D01*
X836265Y539084D01*
X843139Y532210D01*
X843213Y532157D01*
X843282Y532098D01*
X843312Y532085D01*
X843339Y532067D01*
X843426Y532040D01*
X843510Y532006D01*
X843551Y532001D01*
X843574Y531994D01*
X843606Y531995D01*
X843677Y531987D01*
X851707Y531987D01*
X852600Y531094D01*
X852600Y519831D01*
X851707Y518938D01*
X839443Y518938D01*
X838550Y519831D01*
X838550Y527860D01*
X838536Y527950D01*
X838528Y528041D01*
X838516Y528071D01*
X838511Y528103D01*
X838468Y528183D01*
X838432Y528268D01*
X838406Y528300D01*
X838395Y528320D01*
X838372Y528343D01*
X838327Y528399D01*
X837341Y529385D01*
X837283Y529427D01*
X837231Y529476D01*
X837184Y529498D01*
X837142Y529528D01*
X837073Y529549D01*
X837008Y529580D01*
X836956Y529585D01*
X836906Y529601D01*
X836835Y529599D01*
X836764Y529607D01*
X836713Y529596D01*
X836661Y529594D01*
X836593Y529570D01*
X836523Y529554D01*
X836478Y529528D01*
X836430Y529510D01*
X836374Y529465D01*
X836312Y529428D01*
X836278Y529389D01*
X836238Y529356D01*
X836199Y529296D01*
X836152Y529241D01*
X836133Y529193D01*
X836105Y529149D01*
X836087Y529080D01*
X836060Y529013D01*
X836052Y528942D01*
X836044Y528911D01*
X836046Y528887D01*
X836042Y528846D01*
X836042Y521866D01*
X835446Y521271D01*
X833627Y521271D01*
X833607Y521268D01*
X833588Y521270D01*
X833486Y521248D01*
X833384Y521231D01*
X833367Y521222D01*
X833347Y521217D01*
X833258Y521164D01*
X833167Y521116D01*
X833153Y521102D01*
X833136Y521091D01*
X833069Y521013D01*
X832997Y520938D01*
X832989Y520920D01*
X832976Y520904D01*
X832937Y520808D01*
X832894Y520715D01*
X832892Y520695D01*
X832884Y520676D01*
X832866Y520510D01*
X832866Y512480D01*
X832880Y512390D01*
X832888Y512299D01*
X832900Y512269D01*
X832905Y512237D01*
X832948Y512157D01*
X832984Y512073D01*
X833010Y512041D01*
X833021Y512020D01*
X833044Y511998D01*
X833089Y511942D01*
X834096Y510934D01*
X834170Y510881D01*
X834240Y510822D01*
X834270Y510809D01*
X834296Y510791D01*
X834383Y510764D01*
X834468Y510730D01*
X834509Y510725D01*
X834531Y510718D01*
X834563Y510719D01*
X834635Y510711D01*
X836806Y510711D01*
X839324Y508193D01*
X839324Y506381D01*
X839338Y506291D01*
X839346Y506200D01*
X839358Y506171D01*
X839363Y506139D01*
X839406Y506058D01*
X839442Y505974D01*
X839468Y505942D01*
X839479Y505921D01*
X839502Y505899D01*
X839547Y505843D01*
X839605Y505785D01*
X839679Y505732D01*
X839748Y505673D01*
X839778Y505660D01*
X839804Y505642D01*
X839891Y505615D01*
X839976Y505581D01*
X840017Y505576D01*
X840039Y505569D01*
X840072Y505570D01*
X840143Y505562D01*
X849094Y505562D01*
X849987Y504669D01*
X849987Y493406D01*
X849094Y492513D01*
X836831Y492513D01*
X835938Y493406D01*
X835938Y501232D01*
X835923Y501322D01*
X835916Y501413D01*
X835903Y501443D01*
X835898Y501475D01*
X835855Y501555D01*
X835820Y501639D01*
X835794Y501671D01*
X835783Y501692D01*
X835760Y501714D01*
X835715Y501770D01*
X835594Y501891D01*
X835520Y501944D01*
X835451Y502003D01*
X835421Y502016D01*
X835395Y502034D01*
X835308Y502061D01*
X835223Y502095D01*
X835182Y502100D01*
X835160Y502107D01*
X835127Y502106D01*
X835056Y502114D01*
X833244Y502114D01*
X830726Y504632D01*
X830726Y506803D01*
X830712Y506893D01*
X830704Y506984D01*
X830692Y507014D01*
X830687Y507046D01*
X830644Y507126D01*
X830608Y507210D01*
X830582Y507242D01*
X830571Y507263D01*
X830548Y507285D01*
X830503Y507341D01*
X827784Y510060D01*
X827784Y520510D01*
X827781Y520529D01*
X827783Y520549D01*
X827761Y520650D01*
X827745Y520752D01*
X827735Y520770D01*
X827731Y520789D01*
X827678Y520878D01*
X827629Y520970D01*
X827615Y520983D01*
X827605Y521000D01*
X827526Y521068D01*
X827451Y521139D01*
X827433Y521147D01*
X827418Y521160D01*
X827322Y521199D01*
X827228Y521243D01*
X827208Y521245D01*
X827190Y521252D01*
X827023Y521271D01*
X817689Y521271D01*
X817670Y521268D01*
X817650Y521270D01*
X817549Y521248D01*
X817447Y521231D01*
X817429Y521222D01*
X817410Y521217D01*
X817321Y521164D01*
X817229Y521116D01*
X817216Y521102D01*
X817199Y521091D01*
X817131Y521013D01*
X817060Y520938D01*
X817052Y520920D01*
X817039Y520904D01*
X817000Y520808D01*
X816956Y520715D01*
X816954Y520695D01*
X816947Y520676D01*
X816928Y520510D01*
X816928Y510266D01*
X816943Y510176D01*
X816950Y510085D01*
X816963Y510056D01*
X816968Y510024D01*
X817011Y509943D01*
X817046Y509859D01*
X817072Y509827D01*
X817083Y509806D01*
X817106Y509784D01*
X817151Y509728D01*
X818686Y508193D01*
X818686Y506381D01*
X818701Y506291D01*
X818708Y506200D01*
X818721Y506171D01*
X818726Y506139D01*
X818769Y506058D01*
X818804Y505974D01*
X818830Y505942D01*
X818841Y505921D01*
X818864Y505899D01*
X818909Y505843D01*
X818967Y505785D01*
X819041Y505732D01*
X819111Y505673D01*
X819141Y505660D01*
X819167Y505642D01*
X819254Y505615D01*
X819339Y505581D01*
X819380Y505576D01*
X819402Y505569D01*
X819434Y505570D01*
X819505Y505562D01*
X826869Y505562D01*
X827762Y504669D01*
X827762Y493406D01*
X826869Y492513D01*
X814606Y492513D01*
X813713Y493406D01*
X813713Y501353D01*
X813710Y501372D01*
X813712Y501392D01*
X813690Y501493D01*
X813673Y501595D01*
X813664Y501613D01*
X813659Y501632D01*
X813606Y501721D01*
X813558Y501813D01*
X813544Y501826D01*
X813533Y501843D01*
X813455Y501911D01*
X813380Y501982D01*
X813362Y501990D01*
X813346Y502003D01*
X813250Y502042D01*
X813157Y502086D01*
X813137Y502088D01*
X813118Y502095D01*
X812952Y502114D01*
X812607Y502114D01*
X810089Y504632D01*
X810089Y508193D01*
X811624Y509728D01*
X811677Y509802D01*
X811736Y509872D01*
X811749Y509902D01*
X811767Y509928D01*
X811794Y510015D01*
X811828Y510100D01*
X811833Y510141D01*
X811840Y510163D01*
X811839Y510195D01*
X811847Y510266D01*
X811847Y520510D01*
X811844Y520529D01*
X811846Y520549D01*
X811824Y520650D01*
X811807Y520752D01*
X811798Y520770D01*
X811793Y520789D01*
X811740Y520878D01*
X811692Y520970D01*
X811678Y520983D01*
X811667Y521000D01*
X811589Y521068D01*
X811514Y521139D01*
X811496Y521147D01*
X811480Y521160D01*
X811384Y521199D01*
X811291Y521243D01*
X811271Y521245D01*
X811252Y521252D01*
X811086Y521271D01*
X810791Y521271D01*
X808608Y523454D01*
X808608Y542798D01*
X808605Y542818D01*
X808607Y542837D01*
X808585Y542939D01*
X808569Y543041D01*
X808559Y543058D01*
X808555Y543078D01*
X808502Y543167D01*
X808453Y543258D01*
X808439Y543272D01*
X808429Y543289D01*
X808350Y543356D01*
X808275Y543428D01*
X808257Y543436D01*
X808242Y543449D01*
X808146Y543488D01*
X808052Y543531D01*
X808032Y543533D01*
X808014Y543541D01*
X807847Y543559D01*
X806230Y543559D01*
X806140Y543545D01*
X806049Y543537D01*
X806019Y543525D01*
X805987Y543520D01*
X805907Y543477D01*
X805823Y543441D01*
X805791Y543415D01*
X805770Y543404D01*
X805748Y543381D01*
X805692Y543336D01*
X787350Y524994D01*
X787338Y524978D01*
X787323Y524965D01*
X787266Y524878D01*
X787206Y524794D01*
X787200Y524775D01*
X787190Y524759D01*
X787164Y524658D01*
X787134Y524559D01*
X787134Y524539D01*
X787129Y524520D01*
X787137Y524417D01*
X787140Y524313D01*
X787147Y524295D01*
X787149Y524275D01*
X787189Y524180D01*
X787225Y524082D01*
X787237Y524067D01*
X787245Y524048D01*
X787350Y523918D01*
X799447Y511820D01*
X801307Y509960D01*
X801307Y506323D01*
X801310Y506304D01*
X801308Y506284D01*
X801330Y506183D01*
X801347Y506081D01*
X801356Y506063D01*
X801361Y506044D01*
X801414Y505955D01*
X801462Y505863D01*
X801476Y505850D01*
X801487Y505833D01*
X801565Y505765D01*
X801640Y505694D01*
X801658Y505686D01*
X801674Y505673D01*
X801770Y505634D01*
X801863Y505590D01*
X801883Y505588D01*
X801902Y505581D01*
X802068Y505562D01*
X804644Y505562D01*
X805537Y504669D01*
X805537Y493406D01*
X804644Y492513D01*
X792381Y492513D01*
X791488Y493406D01*
X791488Y504669D01*
X792381Y505562D01*
X794957Y505562D01*
X794976Y505565D01*
X794996Y505563D01*
X795097Y505585D01*
X795199Y505602D01*
X795217Y505611D01*
X795236Y505616D01*
X795325Y505669D01*
X795417Y505717D01*
X795430Y505731D01*
X795447Y505742D01*
X795515Y505820D01*
X795586Y505895D01*
X795594Y505913D01*
X795607Y505929D01*
X795646Y506025D01*
X795690Y506118D01*
X795692Y506138D01*
X795699Y506157D01*
X795718Y506323D01*
X795718Y507329D01*
X795703Y507420D01*
X795696Y507510D01*
X795683Y507540D01*
X795678Y507572D01*
X795635Y507653D01*
X795600Y507737D01*
X795574Y507769D01*
X795563Y507790D01*
X795540Y507812D01*
X795495Y507868D01*
X788176Y515186D01*
X788160Y515198D01*
X788148Y515213D01*
X788061Y515269D01*
X787977Y515330D01*
X787958Y515335D01*
X787941Y515346D01*
X787840Y515372D01*
X787742Y515402D01*
X787722Y515401D01*
X787702Y515406D01*
X787599Y515398D01*
X787496Y515396D01*
X787477Y515389D01*
X787457Y515387D01*
X787362Y515347D01*
X787265Y515311D01*
X787249Y515299D01*
X787231Y515291D01*
X787100Y515186D01*
X785655Y513741D01*
X785602Y513667D01*
X785543Y513598D01*
X785530Y513568D01*
X785512Y513542D01*
X785485Y513455D01*
X785451Y513370D01*
X785446Y513329D01*
X785439Y513307D01*
X785440Y513274D01*
X785432Y513203D01*
X785432Y504230D01*
X783535Y502333D01*
X783482Y502259D01*
X783423Y502189D01*
X783410Y502159D01*
X783392Y502133D01*
X783365Y502046D01*
X783331Y501961D01*
X783326Y501920D01*
X783319Y501898D01*
X783320Y501866D01*
X783312Y501795D01*
X783312Y493406D01*
X782419Y492513D01*
X770156Y492513D01*
G37*
%LPD*%
G36*
X954266Y593667D02*
X954266Y593667D01*
X954309Y593666D01*
X958302Y594267D01*
X958332Y594278D01*
X958375Y594283D01*
X962234Y595472D01*
X962262Y595487D01*
X962303Y595499D01*
X965941Y597250D01*
X965963Y597267D01*
X965989Y597276D01*
X966042Y597326D01*
X966100Y597370D01*
X966113Y597394D01*
X966133Y597413D01*
X966163Y597479D01*
X966199Y597543D01*
X966202Y597570D01*
X966213Y597595D01*
X966214Y597668D01*
X966223Y597740D01*
X966215Y597766D01*
X966215Y597794D01*
X966179Y597892D01*
X966167Y597931D01*
X966161Y597939D01*
X966157Y597950D01*
X939157Y644750D01*
X939139Y644770D01*
X939128Y644795D01*
X939074Y644844D01*
X939026Y644899D01*
X939001Y644910D01*
X938981Y644929D01*
X938912Y644953D01*
X938846Y644984D01*
X938819Y644986D01*
X938794Y644995D01*
X938721Y644990D01*
X938648Y644993D01*
X938622Y644984D01*
X938595Y644982D01*
X938499Y644938D01*
X938461Y644924D01*
X938454Y644917D01*
X938444Y644913D01*
X935107Y642639D01*
X935085Y642616D01*
X935049Y642593D01*
X932088Y639847D01*
X932069Y639821D01*
X932037Y639793D01*
X929519Y636637D01*
X929504Y636608D01*
X929477Y636575D01*
X927457Y633079D01*
X927447Y633049D01*
X927424Y633012D01*
X925948Y629254D01*
X925943Y629222D01*
X925926Y629182D01*
X925026Y625246D01*
X925026Y625214D01*
X925015Y625172D01*
X924712Y621146D01*
X924715Y621123D01*
X924712Y621103D01*
X924714Y621093D01*
X924712Y621072D01*
X925013Y617045D01*
X925021Y617014D01*
X925024Y616971D01*
X925921Y613035D01*
X925934Y613006D01*
X925943Y612963D01*
X927417Y609204D01*
X927434Y609177D01*
X927449Y609137D01*
X929467Y605640D01*
X929488Y605616D01*
X929509Y605578D01*
X932025Y602420D01*
X932050Y602400D01*
X932076Y602366D01*
X935035Y599618D01*
X935062Y599602D01*
X935093Y599572D01*
X938429Y597296D01*
X938458Y597284D01*
X938493Y597259D01*
X942131Y595506D01*
X942161Y595498D01*
X942200Y595479D01*
X946058Y594287D01*
X946090Y594284D01*
X946131Y594271D01*
X950123Y593668D01*
X950155Y593669D01*
X950197Y593662D01*
X954235Y593661D01*
X954266Y593667D01*
G37*
G36*
X694453Y593662D02*
X694453Y593662D01*
X694484Y593668D01*
X694527Y593668D01*
X698519Y594271D01*
X698549Y594282D01*
X698592Y594287D01*
X702450Y595479D01*
X702478Y595494D01*
X702520Y595506D01*
X706157Y597259D01*
X706182Y597278D01*
X706221Y597296D01*
X709557Y599572D01*
X709579Y599595D01*
X709615Y599618D01*
X712574Y602366D01*
X712593Y602391D01*
X712625Y602420D01*
X715141Y605578D01*
X715156Y605606D01*
X715183Y605640D01*
X717201Y609137D01*
X717211Y609167D01*
X717233Y609204D01*
X718707Y612963D01*
X718713Y612995D01*
X718729Y613035D01*
X719626Y616971D01*
X719627Y617003D01*
X719637Y617045D01*
X719938Y621072D01*
X719934Y621103D01*
X719935Y621119D01*
X719938Y621136D01*
X719937Y621140D01*
X719938Y621146D01*
X719635Y625172D01*
X719626Y625203D01*
X719624Y625246D01*
X718724Y629182D01*
X718711Y629211D01*
X718702Y629254D01*
X717226Y633012D01*
X717208Y633039D01*
X717193Y633079D01*
X715173Y636575D01*
X715152Y636599D01*
X715131Y636637D01*
X712613Y639793D01*
X712588Y639813D01*
X712562Y639847D01*
X709601Y642593D01*
X709574Y642609D01*
X709543Y642639D01*
X706206Y644913D01*
X706181Y644923D01*
X706160Y644940D01*
X706090Y644961D01*
X706023Y644990D01*
X705995Y644990D01*
X705969Y644997D01*
X705897Y644989D01*
X705824Y644989D01*
X705799Y644978D01*
X705772Y644975D01*
X705708Y644939D01*
X705641Y644911D01*
X705622Y644891D01*
X705599Y644878D01*
X705532Y644797D01*
X705503Y644767D01*
X705500Y644758D01*
X705493Y644750D01*
X678493Y597950D01*
X678484Y597924D01*
X678468Y597901D01*
X678453Y597830D01*
X678429Y597761D01*
X678432Y597734D01*
X678426Y597707D01*
X678439Y597636D01*
X678445Y597563D01*
X678458Y597538D01*
X678463Y597512D01*
X678503Y597451D01*
X678537Y597386D01*
X678558Y597369D01*
X678573Y597346D01*
X678659Y597285D01*
X678690Y597260D01*
X678699Y597257D01*
X678709Y597250D01*
X682347Y595499D01*
X682378Y595492D01*
X682416Y595472D01*
X686275Y594283D01*
X686307Y594280D01*
X686348Y594267D01*
X690341Y593666D01*
X690372Y593668D01*
X690415Y593661D01*
X694453Y593662D01*
G37*
G36*
X938753Y447211D02*
X938753Y447211D01*
X938826Y447211D01*
X938851Y447222D01*
X938878Y447225D01*
X938942Y447261D01*
X939009Y447289D01*
X939028Y447309D01*
X939051Y447322D01*
X939119Y447403D01*
X939147Y447433D01*
X939150Y447442D01*
X939157Y447451D01*
X966157Y494251D01*
X966166Y494276D01*
X966182Y494299D01*
X966197Y494370D01*
X966221Y494439D01*
X966218Y494466D01*
X966224Y494493D01*
X966211Y494564D01*
X966205Y494637D01*
X966192Y494662D01*
X966187Y494688D01*
X966147Y494749D01*
X966113Y494814D01*
X966092Y494831D01*
X966077Y494854D01*
X965991Y494915D01*
X965960Y494940D01*
X965951Y494943D01*
X965941Y494950D01*
X962303Y496701D01*
X962272Y496708D01*
X962234Y496728D01*
X958375Y497917D01*
X958343Y497920D01*
X958302Y497933D01*
X954309Y498534D01*
X954278Y498532D01*
X954235Y498539D01*
X950197Y498538D01*
X950166Y498532D01*
X950123Y498532D01*
X946131Y497929D01*
X946101Y497918D01*
X946058Y497913D01*
X942200Y496721D01*
X942172Y496706D01*
X942131Y496694D01*
X938493Y494941D01*
X938468Y494922D01*
X938429Y494904D01*
X935093Y492628D01*
X935071Y492605D01*
X935035Y492582D01*
X932076Y489834D01*
X932057Y489809D01*
X932025Y489780D01*
X929509Y486622D01*
X929494Y486594D01*
X929467Y486560D01*
X927449Y483063D01*
X927439Y483033D01*
X927417Y482996D01*
X925943Y479237D01*
X925937Y479205D01*
X925921Y479165D01*
X925024Y475229D01*
X925023Y475197D01*
X925013Y475155D01*
X924712Y471129D01*
X924716Y471097D01*
X924712Y471054D01*
X925015Y467028D01*
X925024Y466997D01*
X925026Y466954D01*
X925926Y463018D01*
X925939Y462989D01*
X925948Y462946D01*
X927424Y459188D01*
X927442Y459161D01*
X927457Y459121D01*
X929477Y455625D01*
X929498Y455601D01*
X929519Y455563D01*
X932037Y452407D01*
X932062Y452387D01*
X932088Y452353D01*
X935049Y449607D01*
X935076Y449591D01*
X935107Y449561D01*
X938444Y447287D01*
X938469Y447277D01*
X938490Y447260D01*
X938560Y447239D01*
X938627Y447210D01*
X938655Y447211D01*
X938681Y447203D01*
X938753Y447211D01*
G37*
G36*
X705929Y447210D02*
X705929Y447210D01*
X706002Y447207D01*
X706028Y447216D01*
X706055Y447218D01*
X706151Y447262D01*
X706189Y447276D01*
X706196Y447283D01*
X706206Y447287D01*
X709543Y449561D01*
X709565Y449584D01*
X709601Y449607D01*
X712562Y452353D01*
X712581Y452379D01*
X712613Y452407D01*
X715131Y455563D01*
X715146Y455592D01*
X715173Y455625D01*
X717193Y459121D01*
X717203Y459151D01*
X717226Y459188D01*
X718702Y462946D01*
X718707Y462978D01*
X718724Y463018D01*
X719624Y466954D01*
X719624Y466986D01*
X719635Y467028D01*
X719938Y471054D01*
X719934Y471085D01*
X719938Y471129D01*
X719637Y475155D01*
X719629Y475186D01*
X719626Y475229D01*
X718729Y479165D01*
X718716Y479194D01*
X718707Y479237D01*
X717233Y482996D01*
X717216Y483023D01*
X717201Y483063D01*
X715183Y486560D01*
X715162Y486584D01*
X715141Y486622D01*
X712625Y489780D01*
X712600Y489800D01*
X712574Y489834D01*
X709615Y492582D01*
X709588Y492598D01*
X709557Y492628D01*
X706221Y494904D01*
X706192Y494916D01*
X706157Y494941D01*
X702520Y496694D01*
X702489Y496702D01*
X702450Y496721D01*
X698592Y497913D01*
X698560Y497916D01*
X698519Y497929D01*
X694527Y498532D01*
X694495Y498531D01*
X694453Y498538D01*
X690415Y498539D01*
X690384Y498533D01*
X690341Y498534D01*
X686348Y497933D01*
X686318Y497922D01*
X686275Y497917D01*
X682416Y496728D01*
X682388Y496713D01*
X682347Y496701D01*
X678709Y494950D01*
X678687Y494933D01*
X678661Y494924D01*
X678608Y494874D01*
X678550Y494830D01*
X678537Y494806D01*
X678517Y494787D01*
X678487Y494721D01*
X678451Y494657D01*
X678448Y494630D01*
X678437Y494605D01*
X678436Y494532D01*
X678427Y494460D01*
X678435Y494434D01*
X678435Y494406D01*
X678471Y494308D01*
X678483Y494269D01*
X678489Y494261D01*
X678493Y494251D01*
X705493Y447451D01*
X705511Y447430D01*
X705522Y447405D01*
X705576Y447356D01*
X705624Y447302D01*
X705649Y447290D01*
X705669Y447271D01*
X705738Y447247D01*
X705804Y447216D01*
X705831Y447215D01*
X705856Y447205D01*
X705929Y447210D01*
G37*
G36*
X824374Y668683D02*
X824374Y668683D01*
X824417Y668682D01*
X828407Y669283D01*
X828437Y669294D01*
X828480Y669300D01*
X832336Y670489D01*
X832364Y670505D01*
X832406Y670517D01*
X836042Y672268D01*
X836067Y672287D01*
X836106Y672305D01*
X839440Y674578D01*
X839463Y674601D01*
X839499Y674625D01*
X842457Y677369D01*
X842476Y677395D01*
X842508Y677424D01*
X845024Y680579D01*
X845038Y680607D01*
X845066Y680641D01*
X847084Y684136D01*
X847094Y684166D01*
X847116Y684203D01*
X848590Y687959D01*
X848591Y687966D01*
X848593Y687967D01*
X848597Y687994D01*
X848612Y688031D01*
X849510Y691965D01*
X849511Y691997D01*
X849521Y692039D01*
X849823Y696063D01*
X849819Y696090D01*
X849824Y696117D01*
X849807Y696187D01*
X849798Y696260D01*
X849784Y696284D01*
X849778Y696310D01*
X849735Y696369D01*
X849698Y696432D01*
X849676Y696448D01*
X849660Y696470D01*
X849597Y696507D01*
X849539Y696551D01*
X849512Y696558D01*
X849489Y696572D01*
X849385Y696589D01*
X849346Y696599D01*
X849336Y696597D01*
X849325Y696599D01*
X795325Y696599D01*
X795298Y696594D01*
X795271Y696596D01*
X795202Y696574D01*
X795130Y696560D01*
X795108Y696544D01*
X795082Y696536D01*
X795026Y696488D01*
X794966Y696447D01*
X794952Y696424D01*
X794931Y696406D01*
X794899Y696341D01*
X794859Y696280D01*
X794855Y696253D01*
X794843Y696228D01*
X794833Y696124D01*
X794826Y696083D01*
X794828Y696074D01*
X794827Y696063D01*
X795129Y692039D01*
X795137Y692008D01*
X795140Y691965D01*
X796038Y688031D01*
X796051Y688002D01*
X796060Y687959D01*
X797534Y684203D01*
X797551Y684176D01*
X797566Y684136D01*
X799584Y680641D01*
X799605Y680617D01*
X799626Y680579D01*
X802142Y677424D01*
X802167Y677404D01*
X802193Y677369D01*
X805151Y674625D01*
X805178Y674608D01*
X805210Y674578D01*
X808544Y672305D01*
X808573Y672292D01*
X808608Y672268D01*
X812244Y670517D01*
X812275Y670509D01*
X812314Y670489D01*
X816170Y669300D01*
X816201Y669297D01*
X816243Y669283D01*
X820233Y668682D01*
X820265Y668683D01*
X820307Y668676D01*
X824343Y668676D01*
X824374Y668683D01*
G37*
G36*
X849352Y395606D02*
X849352Y395606D01*
X849379Y395604D01*
X849448Y395626D01*
X849520Y395640D01*
X849542Y395656D01*
X849568Y395664D01*
X849624Y395712D01*
X849684Y395753D01*
X849698Y395776D01*
X849719Y395794D01*
X849752Y395859D01*
X849791Y395920D01*
X849795Y395947D01*
X849807Y395972D01*
X849817Y396076D01*
X849824Y396117D01*
X849822Y396126D01*
X849823Y396137D01*
X849521Y400161D01*
X849513Y400192D01*
X849510Y400235D01*
X848612Y404169D01*
X848599Y404198D01*
X848590Y404241D01*
X847116Y407997D01*
X847099Y408024D01*
X847084Y408065D01*
X845066Y411559D01*
X845045Y411583D01*
X845024Y411621D01*
X842508Y414776D01*
X842483Y414796D01*
X842457Y414831D01*
X839499Y417575D01*
X839472Y417592D01*
X839440Y417622D01*
X836106Y419895D01*
X836077Y419908D01*
X836042Y419933D01*
X832406Y421683D01*
X832375Y421691D01*
X832336Y421711D01*
X828480Y422900D01*
X828449Y422903D01*
X828407Y422917D01*
X824417Y423518D01*
X824385Y423517D01*
X824343Y423524D01*
X820307Y423524D01*
X820276Y423517D01*
X820233Y423518D01*
X816243Y422917D01*
X816213Y422906D01*
X816170Y422900D01*
X812314Y421711D01*
X812286Y421695D01*
X812244Y421683D01*
X808608Y419933D01*
X808583Y419913D01*
X808544Y419895D01*
X805210Y417622D01*
X805187Y417599D01*
X805151Y417575D01*
X802193Y414831D01*
X802175Y414805D01*
X802142Y414776D01*
X799626Y411621D01*
X799612Y411593D01*
X799584Y411559D01*
X797566Y408065D01*
X797556Y408034D01*
X797534Y407997D01*
X796060Y404241D01*
X796054Y404209D01*
X796038Y404169D01*
X795140Y400235D01*
X795139Y400203D01*
X795129Y400161D01*
X794827Y396137D01*
X794831Y396110D01*
X794826Y396083D01*
X794843Y396013D01*
X794852Y395940D01*
X794866Y395916D01*
X794872Y395890D01*
X794915Y395831D01*
X794952Y395768D01*
X794974Y395752D01*
X794990Y395730D01*
X795053Y395693D01*
X795111Y395649D01*
X795138Y395642D01*
X795161Y395628D01*
X795265Y395611D01*
X795304Y395601D01*
X795314Y395603D01*
X795325Y395601D01*
X849325Y395601D01*
X849352Y395606D01*
G37*
%LPC*%
G36*
X856443Y518938D02*
X856443Y518938D01*
X855550Y519831D01*
X855550Y531094D01*
X856443Y531987D01*
X868707Y531987D01*
X869600Y531094D01*
X869600Y529018D01*
X869603Y528999D01*
X869601Y528979D01*
X869623Y528878D01*
X869639Y528776D01*
X869649Y528758D01*
X869653Y528739D01*
X869706Y528650D01*
X869755Y528558D01*
X869769Y528545D01*
X869779Y528528D01*
X869858Y528460D01*
X869933Y528389D01*
X869951Y528381D01*
X869966Y528368D01*
X870062Y528329D01*
X870156Y528285D01*
X870176Y528283D01*
X870194Y528276D01*
X870361Y528257D01*
X903402Y528257D01*
X903492Y528272D01*
X903583Y528279D01*
X903613Y528292D01*
X903645Y528297D01*
X903725Y528340D01*
X903809Y528375D01*
X903841Y528401D01*
X903862Y528412D01*
X903884Y528435D01*
X903940Y528480D01*
X916532Y541072D01*
X916543Y541088D01*
X916559Y541100D01*
X916615Y541188D01*
X916675Y541271D01*
X916681Y541290D01*
X916692Y541307D01*
X916717Y541408D01*
X916748Y541506D01*
X916747Y541526D01*
X916752Y541546D01*
X916744Y541649D01*
X916741Y541752D01*
X916734Y541771D01*
X916733Y541791D01*
X916692Y541886D01*
X916657Y541983D01*
X916644Y541999D01*
X916637Y542017D01*
X916532Y542148D01*
X916368Y542312D01*
X916368Y549888D01*
X921725Y555245D01*
X929300Y555245D01*
X934657Y549888D01*
X934657Y542312D01*
X929300Y536955D01*
X921725Y536955D01*
X921561Y537119D01*
X921545Y537131D01*
X921532Y537146D01*
X921445Y537203D01*
X921361Y537263D01*
X921342Y537269D01*
X921325Y537279D01*
X921225Y537305D01*
X921126Y537335D01*
X921106Y537335D01*
X921087Y537340D01*
X920984Y537331D01*
X920880Y537329D01*
X920861Y537322D01*
X920841Y537320D01*
X920746Y537280D01*
X920649Y537244D01*
X920633Y537232D01*
X920615Y537224D01*
X920484Y537119D01*
X906033Y522668D01*
X870361Y522668D01*
X870341Y522665D01*
X870322Y522667D01*
X870220Y522645D01*
X870118Y522628D01*
X870101Y522619D01*
X870081Y522614D01*
X869992Y522561D01*
X869901Y522513D01*
X869887Y522499D01*
X869870Y522488D01*
X869803Y522410D01*
X869731Y522335D01*
X869723Y522317D01*
X869710Y522301D01*
X869671Y522205D01*
X869628Y522112D01*
X869626Y522092D01*
X869618Y522073D01*
X869600Y521907D01*
X869600Y519831D01*
X868707Y518938D01*
X856443Y518938D01*
G37*
%LPD*%
%LPC*%
G36*
X750656Y598868D02*
X750656Y598868D01*
X747295Y600260D01*
X744722Y602832D01*
X743330Y606194D01*
X743330Y609831D01*
X744722Y613193D01*
X747295Y615765D01*
X748956Y616453D01*
X749056Y616515D01*
X749156Y616575D01*
X749160Y616579D01*
X749165Y616583D01*
X749240Y616673D01*
X749316Y616762D01*
X749318Y616767D01*
X749322Y616772D01*
X749364Y616881D01*
X749408Y616990D01*
X749409Y616997D01*
X749410Y617002D01*
X749411Y617020D01*
X749426Y617156D01*
X749426Y624269D01*
X749407Y624383D01*
X749390Y624499D01*
X749388Y624505D01*
X749387Y624511D01*
X749332Y624614D01*
X749279Y624719D01*
X749274Y624723D01*
X749271Y624729D01*
X749187Y624808D01*
X749103Y624891D01*
X749097Y624895D01*
X749093Y624898D01*
X749076Y624906D01*
X748956Y624972D01*
X747295Y625660D01*
X744722Y628232D01*
X743330Y631594D01*
X743330Y635231D01*
X744722Y638593D01*
X747295Y641165D01*
X750656Y642557D01*
X754294Y642557D01*
X757655Y641165D01*
X760228Y638593D01*
X761620Y635231D01*
X761620Y631594D01*
X760228Y628232D01*
X757655Y625660D01*
X755994Y624972D01*
X755894Y624910D01*
X755794Y624850D01*
X755790Y624846D01*
X755785Y624842D01*
X755710Y624752D01*
X755634Y624663D01*
X755632Y624658D01*
X755628Y624653D01*
X755586Y624544D01*
X755542Y624435D01*
X755541Y624428D01*
X755540Y624423D01*
X755539Y624405D01*
X755524Y624269D01*
X755524Y617156D01*
X755543Y617042D01*
X755560Y616926D01*
X755562Y616920D01*
X755563Y616914D01*
X755618Y616811D01*
X755671Y616706D01*
X755676Y616702D01*
X755679Y616696D01*
X755763Y616617D01*
X755847Y616534D01*
X755853Y616530D01*
X755857Y616527D01*
X755874Y616519D01*
X755994Y616453D01*
X757655Y615765D01*
X760228Y613193D01*
X761620Y609831D01*
X761620Y606194D01*
X760228Y602832D01*
X757655Y600260D01*
X754294Y598868D01*
X750656Y598868D01*
G37*
%LPD*%
%LPC*%
G36*
X750656Y573468D02*
X750656Y573468D01*
X747295Y574860D01*
X744722Y577432D01*
X743330Y580794D01*
X743330Y584431D01*
X744722Y587793D01*
X747295Y590365D01*
X750656Y591757D01*
X754294Y591757D01*
X757655Y590365D01*
X760228Y587793D01*
X761620Y584431D01*
X761620Y580794D01*
X760228Y577432D01*
X757655Y574860D01*
X754294Y573468D01*
X750656Y573468D01*
G37*
%LPD*%
%LPC*%
G36*
X810193Y621538D02*
X810193Y621538D01*
X809300Y622431D01*
X809300Y631694D01*
X810193Y632587D01*
X819457Y632587D01*
X820350Y631694D01*
X820350Y622431D01*
X819457Y621538D01*
X810193Y621538D01*
G37*
%LPD*%
%LPC*%
G36*
X825193Y621538D02*
X825193Y621538D01*
X824300Y622431D01*
X824300Y631694D01*
X825193Y632587D01*
X834457Y632587D01*
X835350Y631694D01*
X835350Y622431D01*
X834457Y621538D01*
X825193Y621538D01*
G37*
%LPD*%
D10*
X823350Y581025D03*
X840350Y581025D03*
X862575Y525463D03*
X845575Y525463D03*
D11*
X822350Y593725D03*
X841350Y593725D03*
D12*
X829825Y627063D03*
X814825Y627063D03*
D13*
X925513Y546100D03*
D14*
X752475Y633413D03*
X752475Y608013D03*
X752475Y582613D03*
D15*
X904925Y689200D03*
X987525Y546100D03*
X904925Y403000D03*
X739725Y403000D03*
X657125Y546100D03*
X739725Y689200D03*
X946225Y617600D03*
X946225Y474600D03*
X822325Y403000D03*
X698425Y474600D03*
X698425Y617600D03*
X822325Y689200D03*
D10*
X842963Y499038D03*
X842963Y482038D03*
X798513Y499038D03*
X798513Y482038D03*
X820738Y499038D03*
X820738Y482038D03*
X776288Y499038D03*
X776288Y482038D03*
D16*
X830325Y562100D03*
X830325Y554100D03*
X830325Y546100D03*
X830325Y538100D03*
X830325Y530100D03*
X822325Y530100D03*
X814325Y530100D03*
X814325Y538100D03*
X814325Y546100D03*
X814325Y554100D03*
X814325Y562100D03*
X822325Y562100D03*
D17*
X814325Y572000D02*
X823350Y581025D01*
X830325Y574050D01*
D18*
X869950Y638175D03*
X768350Y554013D03*
D17*
X814325Y562100D02*
X814325Y572000D01*
X830325Y574050D02*
X830325Y562100D01*
X830325Y554100D02*
X823850Y554100D01*
X822325Y555625D01*
X822325Y562100D01*
X830325Y554100D02*
X830325Y550863D01*
X830325Y546100D01*
X830325Y538100D01*
X822325Y530100D02*
X822325Y555625D01*
X840350Y560888D02*
X840350Y581025D01*
X840350Y560888D02*
X830325Y550863D01*
X840350Y555063D02*
X840350Y560888D01*
X840350Y555063D02*
X842963Y552450D01*
D18*
X842963Y552450D03*
X690563Y506413D03*
X715963Y496888D03*
D19*
X700548Y506413D02*
X690563Y506413D01*
X700548Y506413D02*
X701925Y507789D01*
X708010Y507789D01*
X712314Y503486D01*
X712314Y500537D01*
X715963Y496888D01*
X708010Y507789D02*
X717550Y517329D01*
X717550Y522228D01*
D18*
X717550Y522228D03*
X795338Y417513D03*
X817563Y428625D03*
X920750Y455613D03*
X919163Y479425D03*
X968375Y577850D03*
X941388Y585788D03*
X838200Y666750D03*
X811213Y663575D03*
D19*
X804995Y434384D02*
X800692Y430080D01*
X804995Y434384D02*
X811080Y434384D01*
X800692Y422867D02*
X795338Y417513D01*
X816839Y428625D02*
X817563Y428625D01*
X800692Y430080D02*
X800692Y422867D01*
X811080Y434384D02*
X816839Y428625D01*
X918836Y479425D02*
X919163Y479425D01*
X918836Y479425D02*
X911611Y472200D01*
X911611Y464752D02*
X920750Y455613D01*
X911611Y464752D02*
X911611Y472200D01*
X949325Y577850D02*
X968375Y577850D01*
X949325Y577850D02*
X941388Y585788D01*
X817327Y656968D02*
X813024Y661271D01*
X813024Y661763D02*
X811213Y663575D01*
X813024Y661763D02*
X813024Y661271D01*
X817327Y656968D02*
X828418Y656968D01*
X838200Y666750D01*
X841350Y593725D02*
X841350Y582025D01*
X840350Y581025D01*
D20*
X814825Y627063D03*
D19*
X841938Y582613D02*
X840350Y581025D01*
X841938Y582613D02*
X858201Y582613D01*
D18*
X858201Y582613D03*
D21*
X832938Y538100D02*
X845575Y525463D01*
X832938Y538100D02*
X830325Y538100D01*
D22*
X723187Y617600D02*
X698425Y617600D01*
X723187Y617600D02*
X723995Y616792D01*
D20*
X723995Y616792D03*
X808038Y427038D03*
D22*
X822325Y412750D01*
X822325Y403000D01*
D20*
X704968Y500443D03*
D22*
X698425Y493901D01*
X698425Y474600D01*
D20*
X918957Y469157D03*
D22*
X940782Y469157D01*
X946225Y474600D01*
D20*
X820370Y664314D03*
D22*
X820370Y687245D01*
X822325Y689200D01*
D18*
X954666Y588386D03*
D22*
X946225Y596827D01*
X946225Y617600D01*
D20*
X829825Y627063D03*
D23*
X864149Y527050D02*
X864149Y527037D01*
X862575Y525463D01*
D24*
X864149Y527050D03*
D23*
X862575Y525463D02*
X904875Y525463D01*
X925513Y546100D01*
D21*
X752475Y608013D02*
X752475Y633413D01*
D20*
X835025Y506413D03*
D22*
X830325Y511113D01*
X830325Y530100D01*
D23*
X835025Y506413D02*
X842400Y499038D01*
X842963Y499038D01*
D22*
X814388Y530038D02*
X814325Y530100D01*
X814388Y530038D02*
X814388Y506413D01*
D20*
X814388Y506413D03*
D23*
X820738Y500063D01*
X820738Y499038D01*
D22*
X814325Y546100D02*
X804863Y546100D01*
X782638Y523875D01*
D20*
X782638Y523875D03*
D23*
X784142Y522371D01*
X784944Y522371D01*
X798513Y508802D01*
X798513Y499038D01*
D20*
X782638Y516803D03*
D22*
X780436Y518561D02*
X777324Y521674D01*
X780880Y518561D02*
X782638Y516803D01*
X780880Y518561D02*
X780436Y518561D01*
X777324Y521674D02*
X777324Y526499D01*
X804925Y554100D02*
X814325Y554100D01*
X804925Y554100D02*
X777324Y526499D01*
D23*
X782638Y516803D02*
X782638Y505388D01*
X776288Y499038D01*
M02*
