G04 EAGLE Gerber RS-274X export*
G75*
%MOMM*%
%FSLAX34Y34*%
%LPD*%
%INTop Copper*%
%IPPOS*%
%AMOC8*
5,1,8,0,0,1.08239X$1,22.5*%
G01*
%ADD10R,1.100000X1.000000*%
%ADD11R,1.000000X1.100000*%
%ADD12R,1.300000X1.500000*%
%ADD13R,0.800000X0.800000*%
%ADD14P,1.649562X8X22.500000*%
%ADD15C,1.524000*%
%ADD16R,0.500000X0.500000*%
%ADD17C,0.800000*%
%ADD18C,0.508000*%
%ADD19C,0.609600*%
%ADD20C,0.750000*%
%ADD21C,0.254000*%
%ADD22C,0.406400*%
%ADD23C,0.203200*%
%ADD24C,0.554800*%

G36*
X-29766Y-119821D02*
X-29766Y-119821D01*
X-29747Y-119823D01*
X-29645Y-119801D01*
X-29543Y-119784D01*
X-29526Y-119775D01*
X-29506Y-119770D01*
X-29417Y-119717D01*
X-29326Y-119669D01*
X-29312Y-119655D01*
X-29295Y-119644D01*
X-29228Y-119566D01*
X-29156Y-119491D01*
X-29148Y-119473D01*
X-29135Y-119457D01*
X-29096Y-119361D01*
X-29053Y-119268D01*
X-29051Y-119248D01*
X-29043Y-119229D01*
X-29025Y-119063D01*
X-29025Y-118307D01*
X-29019Y-118300D01*
X-29001Y-118239D01*
X-28973Y-118183D01*
X-28956Y-118096D01*
X-28947Y-118065D01*
X-28947Y-118047D01*
X-28942Y-118018D01*
X-28870Y-117059D01*
X-28874Y-117011D01*
X-28869Y-116963D01*
X-28885Y-116889D01*
X-28891Y-116814D01*
X-28911Y-116770D01*
X-28921Y-116722D01*
X-28960Y-116657D01*
X-28990Y-116588D01*
X-29022Y-116553D01*
X-29047Y-116511D01*
X-29105Y-116462D01*
X-29155Y-116406D01*
X-29197Y-116383D01*
X-29234Y-116351D01*
X-29304Y-116323D01*
X-29370Y-116286D01*
X-29417Y-116277D01*
X-29462Y-116259D01*
X-29589Y-116245D01*
X-29612Y-116241D01*
X-29619Y-116242D01*
X-29629Y-116241D01*
X-30893Y-116241D01*
X-33726Y-113408D01*
X-33800Y-113355D01*
X-33869Y-113296D01*
X-33900Y-113284D01*
X-33926Y-113265D01*
X-34013Y-113238D01*
X-34098Y-113204D01*
X-34138Y-113199D01*
X-34161Y-113192D01*
X-34193Y-113193D01*
X-34264Y-113185D01*
X-36435Y-113185D01*
X-39117Y-110503D01*
X-39133Y-110492D01*
X-39146Y-110476D01*
X-39233Y-110420D01*
X-39317Y-110360D01*
X-39336Y-110354D01*
X-39352Y-110343D01*
X-39453Y-110318D01*
X-39552Y-110288D01*
X-39572Y-110288D01*
X-39591Y-110283D01*
X-39694Y-110291D01*
X-39798Y-110294D01*
X-39816Y-110301D01*
X-39836Y-110302D01*
X-39931Y-110343D01*
X-40029Y-110378D01*
X-40044Y-110391D01*
X-40063Y-110399D01*
X-40193Y-110503D01*
X-42213Y-112523D01*
X-44423Y-112523D01*
X-44513Y-112537D01*
X-44604Y-112545D01*
X-44634Y-112557D01*
X-44666Y-112562D01*
X-44746Y-112605D01*
X-44830Y-112641D01*
X-44862Y-112667D01*
X-44883Y-112678D01*
X-44905Y-112701D01*
X-44961Y-112746D01*
X-45440Y-113225D01*
X-49810Y-113225D01*
X-52900Y-110135D01*
X-52900Y-105765D01*
X-49810Y-102675D01*
X-45614Y-102675D01*
X-45524Y-102661D01*
X-45433Y-102653D01*
X-45403Y-102641D01*
X-45371Y-102636D01*
X-45291Y-102593D01*
X-45207Y-102557D01*
X-45175Y-102531D01*
X-45154Y-102520D01*
X-45132Y-102497D01*
X-45076Y-102452D01*
X-39591Y-96968D01*
X-31718Y-96968D01*
X-31628Y-96953D01*
X-31537Y-96946D01*
X-31507Y-96933D01*
X-31475Y-96928D01*
X-31394Y-96885D01*
X-31310Y-96850D01*
X-31278Y-96824D01*
X-31258Y-96813D01*
X-31235Y-96790D01*
X-31179Y-96745D01*
X-29172Y-94738D01*
X-24803Y-94738D01*
X-21713Y-97828D01*
X-21713Y-98110D01*
X-21703Y-98167D01*
X-21704Y-98225D01*
X-21684Y-98288D01*
X-21673Y-98353D01*
X-21646Y-98404D01*
X-21628Y-98459D01*
X-21589Y-98512D01*
X-21558Y-98570D01*
X-21516Y-98610D01*
X-21482Y-98656D01*
X-21428Y-98694D01*
X-21380Y-98740D01*
X-21327Y-98764D01*
X-21280Y-98797D01*
X-21217Y-98816D01*
X-21157Y-98843D01*
X-21099Y-98850D01*
X-21044Y-98866D01*
X-20978Y-98863D01*
X-20912Y-98871D01*
X-20856Y-98858D01*
X-20798Y-98856D01*
X-20737Y-98832D01*
X-20672Y-98818D01*
X-20622Y-98789D01*
X-20569Y-98768D01*
X-20488Y-98708D01*
X-20461Y-98692D01*
X-20452Y-98682D01*
X-20434Y-98668D01*
X-18883Y-97230D01*
X-18862Y-97203D01*
X-18835Y-97181D01*
X-18787Y-97106D01*
X-18733Y-97036D01*
X-18721Y-97003D01*
X-18702Y-96974D01*
X-18679Y-96898D01*
X-18147Y-96535D01*
X-18123Y-96513D01*
X-18058Y-96464D01*
X-17589Y-96029D01*
X-17519Y-96013D01*
X-17431Y-96002D01*
X-17399Y-95987D01*
X-17365Y-95980D01*
X-17217Y-95901D01*
X-15398Y-94661D01*
X-15373Y-94637D01*
X-15343Y-94619D01*
X-15284Y-94553D01*
X-15220Y-94491D01*
X-15204Y-94461D01*
X-15181Y-94435D01*
X-15147Y-94363D01*
X-14567Y-94084D01*
X-14540Y-94065D01*
X-14468Y-94027D01*
X-13939Y-93666D01*
X-13867Y-93661D01*
X-13779Y-93664D01*
X-13745Y-93653D01*
X-13711Y-93651D01*
X-13553Y-93595D01*
X-11569Y-92640D01*
X-11540Y-92620D01*
X-11508Y-92607D01*
X-11440Y-92550D01*
X-11367Y-92499D01*
X-11347Y-92471D01*
X-11320Y-92449D01*
X-11276Y-92383D01*
X-10661Y-92193D01*
X-10631Y-92178D01*
X-10555Y-92152D01*
X-9978Y-91874D01*
X-9906Y-91880D01*
X-9819Y-91895D01*
X-9784Y-91890D01*
X-9750Y-91893D01*
X-9585Y-91861D01*
X-7481Y-91212D01*
X-7450Y-91197D01*
X-7416Y-91189D01*
X-7340Y-91143D01*
X-7261Y-91103D01*
X-7236Y-91078D01*
X-7207Y-91060D01*
X-7153Y-91002D01*
X-6516Y-90906D01*
X-6485Y-90896D01*
X-6405Y-90881D01*
X-5793Y-90692D01*
X-5724Y-90708D01*
X-5639Y-90737D01*
X-5605Y-90737D01*
X-5571Y-90745D01*
X-5403Y-90738D01*
X-3226Y-90410D01*
X-3193Y-90399D01*
X-3158Y-90397D01*
X-3077Y-90362D01*
X-2992Y-90335D01*
X-2964Y-90314D01*
X-2932Y-90300D01*
X-2870Y-90251D01*
X-2227Y-90251D01*
X-2194Y-90245D01*
X-2113Y-90242D01*
X-1480Y-90147D01*
X-1413Y-90174D01*
X-1334Y-90214D01*
X-1300Y-90219D01*
X-1268Y-90232D01*
X-1101Y-90251D01*
X1101Y-90251D01*
X1135Y-90245D01*
X1170Y-90248D01*
X1256Y-90225D01*
X1344Y-90211D01*
X1374Y-90195D01*
X1408Y-90186D01*
X1477Y-90146D01*
X2113Y-90242D01*
X2146Y-90242D01*
X2227Y-90251D01*
X2867Y-90251D01*
X2929Y-90287D01*
X3001Y-90339D01*
X3034Y-90349D01*
X3064Y-90367D01*
X3226Y-90410D01*
X5403Y-90738D01*
X5438Y-90738D01*
X5472Y-90745D01*
X5560Y-90736D01*
X5649Y-90735D01*
X5682Y-90724D01*
X5717Y-90720D01*
X5790Y-90691D01*
X6405Y-90881D01*
X6438Y-90885D01*
X6516Y-90906D01*
X7150Y-91001D01*
X7205Y-91047D01*
X7269Y-91109D01*
X7300Y-91124D01*
X7327Y-91146D01*
X7481Y-91212D01*
X9585Y-91861D01*
X9619Y-91866D01*
X9652Y-91879D01*
X9741Y-91883D01*
X9829Y-91895D01*
X9863Y-91889D01*
X9897Y-91890D01*
X9975Y-91872D01*
X10555Y-92152D01*
X10586Y-92161D01*
X10661Y-92193D01*
X11273Y-92382D01*
X11321Y-92435D01*
X11374Y-92506D01*
X11403Y-92525D01*
X11426Y-92551D01*
X11569Y-92640D01*
X13553Y-93595D01*
X13586Y-93605D01*
X13616Y-93622D01*
X13703Y-93640D01*
X13788Y-93665D01*
X13823Y-93664D01*
X13857Y-93670D01*
X13936Y-93664D01*
X14468Y-94027D01*
X14498Y-94041D01*
X14567Y-94084D01*
X15144Y-94362D01*
X15183Y-94421D01*
X15226Y-94499D01*
X15251Y-94523D01*
X15271Y-94552D01*
X15398Y-94661D01*
X17217Y-95901D01*
X17249Y-95916D01*
X17276Y-95937D01*
X17360Y-95968D01*
X17440Y-96005D01*
X17475Y-96009D01*
X17507Y-96021D01*
X17587Y-96027D01*
X18058Y-96464D01*
X18086Y-96483D01*
X18147Y-96535D01*
X18676Y-96896D01*
X18707Y-96961D01*
X18737Y-97044D01*
X18759Y-97072D01*
X18774Y-97103D01*
X18883Y-97230D01*
X20498Y-98728D01*
X20526Y-98747D01*
X20550Y-98772D01*
X20628Y-98814D01*
X20703Y-98864D01*
X20736Y-98872D01*
X20766Y-98889D01*
X20844Y-98906D01*
X21245Y-99410D01*
X21270Y-99432D01*
X21323Y-99493D01*
X21792Y-99929D01*
X21813Y-99997D01*
X21830Y-100085D01*
X21848Y-100115D01*
X21858Y-100148D01*
X21947Y-100290D01*
X23320Y-102011D01*
X23345Y-102034D01*
X23365Y-102063D01*
X23437Y-102117D01*
X23502Y-102176D01*
X23534Y-102190D01*
X23562Y-102211D01*
X23636Y-102240D01*
X23957Y-102797D01*
X23978Y-102823D01*
X24022Y-102891D01*
X24421Y-103392D01*
X24431Y-103463D01*
X24435Y-103552D01*
X24448Y-103584D01*
X24453Y-103618D01*
X24520Y-103772D01*
X25621Y-105679D01*
X25643Y-105706D01*
X25658Y-105737D01*
X25721Y-105801D01*
X25777Y-105869D01*
X25806Y-105888D01*
X25831Y-105912D01*
X25900Y-105952D01*
X26135Y-106551D01*
X26151Y-106579D01*
X26184Y-106654D01*
X26504Y-107208D01*
X26504Y-107280D01*
X26495Y-107368D01*
X26502Y-107402D01*
X26502Y-107437D01*
X26546Y-107599D01*
X27350Y-109649D01*
X27368Y-109678D01*
X27378Y-109711D01*
X27430Y-109783D01*
X27476Y-109860D01*
X27502Y-109883D01*
X27523Y-109911D01*
X27585Y-109960D01*
X27728Y-110588D01*
X27740Y-110618D01*
X27762Y-110696D01*
X27995Y-111292D01*
X27984Y-111363D01*
X27962Y-111449D01*
X27965Y-111484D01*
X27959Y-111518D01*
X27978Y-111685D01*
X28468Y-113832D01*
X28481Y-113864D01*
X28487Y-113898D01*
X28528Y-113977D01*
X28561Y-114059D01*
X28584Y-114086D01*
X28600Y-114116D01*
X28654Y-114174D01*
X28702Y-114816D01*
X28710Y-114848D01*
X28719Y-114929D01*
X28861Y-115553D01*
X28840Y-115622D01*
X28805Y-115703D01*
X28803Y-115738D01*
X28792Y-115771D01*
X28786Y-115939D01*
X28942Y-118018D01*
X28957Y-118079D01*
X28962Y-118142D01*
X28985Y-118198D01*
X29000Y-118257D01*
X29025Y-118297D01*
X29025Y-119063D01*
X29028Y-119082D01*
X29026Y-119102D01*
X29048Y-119203D01*
X29064Y-119305D01*
X29074Y-119323D01*
X29078Y-119342D01*
X29131Y-119431D01*
X29180Y-119523D01*
X29194Y-119536D01*
X29204Y-119553D01*
X29283Y-119621D01*
X29358Y-119692D01*
X29376Y-119700D01*
X29391Y-119713D01*
X29487Y-119752D01*
X29581Y-119796D01*
X29601Y-119798D01*
X29619Y-119805D01*
X29786Y-119824D01*
X63798Y-119824D01*
X63818Y-119821D01*
X63838Y-119823D01*
X63939Y-119801D01*
X64041Y-119784D01*
X64058Y-119775D01*
X64078Y-119770D01*
X64167Y-119717D01*
X64258Y-119669D01*
X64272Y-119654D01*
X64289Y-119644D01*
X64356Y-119565D01*
X64427Y-119491D01*
X64436Y-119472D01*
X64449Y-119457D01*
X64488Y-119361D01*
X64531Y-119268D01*
X64533Y-119248D01*
X64541Y-119229D01*
X64559Y-119062D01*
X64559Y-117812D01*
X64885Y-115223D01*
X67560Y-115223D01*
X67348Y-116107D01*
X67347Y-116140D01*
X67336Y-116185D01*
X67102Y-119161D01*
X67106Y-119189D01*
X67101Y-119217D01*
X67118Y-119287D01*
X67127Y-119358D01*
X67141Y-119383D01*
X67147Y-119410D01*
X67190Y-119468D01*
X67226Y-119531D01*
X67248Y-119548D01*
X67265Y-119570D01*
X67327Y-119607D01*
X67385Y-119650D01*
X67412Y-119657D01*
X67436Y-119672D01*
X67537Y-119689D01*
X67577Y-119699D01*
X67588Y-119697D01*
X67600Y-119699D01*
X86600Y-119699D01*
X86629Y-119693D01*
X86659Y-119696D01*
X86726Y-119674D01*
X86795Y-119660D01*
X86820Y-119643D01*
X86848Y-119633D01*
X86901Y-119587D01*
X86959Y-119547D01*
X86975Y-119522D01*
X86997Y-119502D01*
X87043Y-119416D01*
X87066Y-119380D01*
X87068Y-119368D01*
X87075Y-119355D01*
X92975Y-101255D01*
X92978Y-101227D01*
X92989Y-101200D01*
X92989Y-101128D01*
X92997Y-101057D01*
X92989Y-101030D01*
X92989Y-101001D01*
X92962Y-100935D01*
X92941Y-100866D01*
X92923Y-100844D01*
X92912Y-100818D01*
X92861Y-100768D01*
X92815Y-100713D01*
X92790Y-100700D01*
X92770Y-100680D01*
X92676Y-100640D01*
X92639Y-100620D01*
X92628Y-100620D01*
X92616Y-100615D01*
X89713Y-99918D01*
X89680Y-99917D01*
X89636Y-99906D01*
X86660Y-99673D01*
X86627Y-99677D01*
X86581Y-99673D01*
X84123Y-99867D01*
X84123Y-97244D01*
X86620Y-97086D01*
X89391Y-97260D01*
X92119Y-97779D01*
X92630Y-97945D01*
X92649Y-97948D01*
X92667Y-97956D01*
X92770Y-97967D01*
X92873Y-97983D01*
X92892Y-97979D01*
X92911Y-97981D01*
X93013Y-97958D01*
X93116Y-97940D01*
X93133Y-97931D01*
X93151Y-97927D01*
X93240Y-97873D01*
X93332Y-97823D01*
X93345Y-97809D01*
X93361Y-97799D01*
X93428Y-97719D01*
X93499Y-97643D01*
X93507Y-97625D01*
X93520Y-97611D01*
X93589Y-97458D01*
X104150Y-65154D01*
X104153Y-65134D01*
X104161Y-65115D01*
X104172Y-65013D01*
X104187Y-64911D01*
X104184Y-64891D01*
X104186Y-64871D01*
X104163Y-64770D01*
X104146Y-64669D01*
X104136Y-64651D01*
X104131Y-64631D01*
X104078Y-64543D01*
X104029Y-64452D01*
X104014Y-64438D01*
X104003Y-64421D01*
X103924Y-64355D01*
X103849Y-64284D01*
X103830Y-64276D01*
X103815Y-64263D01*
X103662Y-64194D01*
X103524Y-64149D01*
X103519Y-64141D01*
X103467Y-64105D01*
X103422Y-64061D01*
X103345Y-64019D01*
X103318Y-64000D01*
X103301Y-63995D01*
X103275Y-63981D01*
X101350Y-63190D01*
X101316Y-63182D01*
X101285Y-63167D01*
X101197Y-63155D01*
X101110Y-63135D01*
X101075Y-63138D01*
X101041Y-63133D01*
X100962Y-63144D01*
X100410Y-62814D01*
X100379Y-62802D01*
X100308Y-62763D01*
X99716Y-62520D01*
X99673Y-62463D01*
X99625Y-62387D01*
X99599Y-62365D01*
X99578Y-62337D01*
X99444Y-62236D01*
X97558Y-61107D01*
X97526Y-61095D01*
X97497Y-61075D01*
X97412Y-61050D01*
X97329Y-61017D01*
X97294Y-61015D01*
X97261Y-61005D01*
X97182Y-61004D01*
X96807Y-60695D01*
X96776Y-60678D01*
X96751Y-60654D01*
X96671Y-60616D01*
X96594Y-60572D01*
X96560Y-60565D01*
X96528Y-60550D01*
X96440Y-60540D01*
X96353Y-60523D01*
X96318Y-60527D01*
X96283Y-60523D01*
X96197Y-60542D01*
X96109Y-60553D01*
X96077Y-60568D01*
X96043Y-60575D01*
X95967Y-60621D01*
X95887Y-60659D01*
X95862Y-60683D01*
X95832Y-60701D01*
X95774Y-60769D01*
X95711Y-60831D01*
X95695Y-60862D01*
X95672Y-60888D01*
X95639Y-60971D01*
X95599Y-61049D01*
X95593Y-61084D01*
X95580Y-61116D01*
X95562Y-61283D01*
X95562Y-61505D01*
X92880Y-64186D01*
X92868Y-64203D01*
X92853Y-64215D01*
X92797Y-64302D01*
X92736Y-64386D01*
X92731Y-64405D01*
X92720Y-64422D01*
X92694Y-64522D01*
X92664Y-64621D01*
X92665Y-64641D01*
X92660Y-64660D01*
X92668Y-64763D01*
X92670Y-64867D01*
X92677Y-64886D01*
X92679Y-64906D01*
X92719Y-65000D01*
X92755Y-65098D01*
X92767Y-65114D01*
X92775Y-65132D01*
X92880Y-65263D01*
X96648Y-69031D01*
X96648Y-72998D01*
X96662Y-73088D01*
X96670Y-73179D01*
X96682Y-73209D01*
X96687Y-73241D01*
X96730Y-73321D01*
X96766Y-73405D01*
X96792Y-73437D01*
X96803Y-73458D01*
X96826Y-73480D01*
X96871Y-73536D01*
X97350Y-74015D01*
X97350Y-78385D01*
X94260Y-81475D01*
X89890Y-81475D01*
X86800Y-78385D01*
X86800Y-74015D01*
X87211Y-73604D01*
X87223Y-73588D01*
X87238Y-73576D01*
X87294Y-73489D01*
X87355Y-73405D01*
X87360Y-73386D01*
X87371Y-73369D01*
X87397Y-73268D01*
X87427Y-73169D01*
X87426Y-73150D01*
X87431Y-73130D01*
X87423Y-73027D01*
X87421Y-72924D01*
X87414Y-72905D01*
X87412Y-72885D01*
X87372Y-72790D01*
X87336Y-72693D01*
X87324Y-72677D01*
X87316Y-72659D01*
X87211Y-72528D01*
X79344Y-64661D01*
X79344Y-63307D01*
X79330Y-63217D01*
X79322Y-63126D01*
X79310Y-63096D01*
X79305Y-63064D01*
X79262Y-62983D01*
X79226Y-62899D01*
X79200Y-62867D01*
X79189Y-62847D01*
X79166Y-62824D01*
X79121Y-62768D01*
X77275Y-60922D01*
X77275Y-56553D01*
X80365Y-53463D01*
X84735Y-53463D01*
X87423Y-56151D01*
X87481Y-56192D01*
X87533Y-56242D01*
X87580Y-56264D01*
X87622Y-56294D01*
X87691Y-56315D01*
X87756Y-56345D01*
X87808Y-56351D01*
X87858Y-56367D01*
X87929Y-56365D01*
X88000Y-56373D01*
X88051Y-56361D01*
X88103Y-56360D01*
X88171Y-56336D01*
X88241Y-56320D01*
X88285Y-56294D01*
X88334Y-56276D01*
X88390Y-56231D01*
X88452Y-56194D01*
X88486Y-56155D01*
X88526Y-56122D01*
X88565Y-56062D01*
X88612Y-56007D01*
X88631Y-55959D01*
X88659Y-55915D01*
X88677Y-55846D01*
X88704Y-55779D01*
X88712Y-55708D01*
X88720Y-55677D01*
X88718Y-55653D01*
X88722Y-55612D01*
X88722Y-52272D01*
X88721Y-52263D01*
X88722Y-52254D01*
X88701Y-52141D01*
X88682Y-52029D01*
X88678Y-52021D01*
X88676Y-52012D01*
X88620Y-51912D01*
X88567Y-51812D01*
X88561Y-51806D01*
X88556Y-51797D01*
X88471Y-51721D01*
X88389Y-51643D01*
X88381Y-51639D01*
X88374Y-51632D01*
X88303Y-51597D01*
X88033Y-51013D01*
X88014Y-50986D01*
X87977Y-50913D01*
X87625Y-50379D01*
X87621Y-50307D01*
X87625Y-50218D01*
X87615Y-50185D01*
X87613Y-50150D01*
X87560Y-49991D01*
X86637Y-47996D01*
X86618Y-47968D01*
X86605Y-47935D01*
X86549Y-47866D01*
X86499Y-47793D01*
X86472Y-47772D01*
X86450Y-47745D01*
X86385Y-47699D01*
X86205Y-47081D01*
X86190Y-47052D01*
X86165Y-46975D01*
X85896Y-46394D01*
X85903Y-46322D01*
X85920Y-46235D01*
X85915Y-46201D01*
X85918Y-46166D01*
X85889Y-46001D01*
X85274Y-43890D01*
X85259Y-43859D01*
X85252Y-43825D01*
X85206Y-43749D01*
X85168Y-43669D01*
X85144Y-43644D01*
X85126Y-43614D01*
X85069Y-43559D01*
X84983Y-42921D01*
X84973Y-42890D01*
X84959Y-42810D01*
X84780Y-42195D01*
X84798Y-42126D01*
X84827Y-42042D01*
X84828Y-42007D01*
X84836Y-41974D01*
X84832Y-41806D01*
X84538Y-39627D01*
X84528Y-39594D01*
X84526Y-39560D01*
X84493Y-39477D01*
X84467Y-39392D01*
X84447Y-39364D01*
X84433Y-39332D01*
X84385Y-39269D01*
X84395Y-38626D01*
X84390Y-38593D01*
X84388Y-38512D01*
X84302Y-37877D01*
X84330Y-37811D01*
X84372Y-37733D01*
X84378Y-37698D01*
X84391Y-37667D01*
X84412Y-37500D01*
X84446Y-35302D01*
X84444Y-35289D01*
X84445Y-35286D01*
X84442Y-35271D01*
X84441Y-35268D01*
X84444Y-35233D01*
X84423Y-35147D01*
X84410Y-35059D01*
X84395Y-35028D01*
X84386Y-34994D01*
X84348Y-34925D01*
X84454Y-34290D01*
X84454Y-34257D01*
X84464Y-34177D01*
X84474Y-33537D01*
X84506Y-33483D01*
X84519Y-33469D01*
X84526Y-33455D01*
X84564Y-33404D01*
X84575Y-33371D01*
X84593Y-33341D01*
X84615Y-33264D01*
X84623Y-33246D01*
X84625Y-33227D01*
X84639Y-33180D01*
X85000Y-31012D01*
X85000Y-30977D01*
X85008Y-30943D01*
X85000Y-30855D01*
X85001Y-30766D01*
X84990Y-30733D01*
X84987Y-30698D01*
X84959Y-30624D01*
X85158Y-30012D01*
X85163Y-29980D01*
X85185Y-29901D01*
X85290Y-29270D01*
X85336Y-29215D01*
X85399Y-29152D01*
X85415Y-29121D01*
X85437Y-29095D01*
X85506Y-28942D01*
X86187Y-26852D01*
X86192Y-26817D01*
X86205Y-26785D01*
X86211Y-26696D01*
X86224Y-26608D01*
X86218Y-26574D01*
X86220Y-26540D01*
X86204Y-26462D01*
X86492Y-25886D01*
X86502Y-25855D01*
X86535Y-25781D01*
X86733Y-25172D01*
X86787Y-25125D01*
X86859Y-25072D01*
X86879Y-25044D01*
X86905Y-25021D01*
X86996Y-24880D01*
X87980Y-22915D01*
X87991Y-22882D01*
X88008Y-22852D01*
X88027Y-22765D01*
X88053Y-22680D01*
X88053Y-22645D01*
X88060Y-22611D01*
X88055Y-22532D01*
X88426Y-22006D01*
X88440Y-21976D01*
X88484Y-21908D01*
X88771Y-21336D01*
X88831Y-21297D01*
X88910Y-21255D01*
X88934Y-21230D01*
X88963Y-21212D01*
X89074Y-21086D01*
X90341Y-19289D01*
X90356Y-19258D01*
X90378Y-19231D01*
X90409Y-19148D01*
X90448Y-19068D01*
X90452Y-19034D01*
X90465Y-19001D01*
X90472Y-18922D01*
X90917Y-18457D01*
X90935Y-18430D01*
X90989Y-18369D01*
X91358Y-17846D01*
X91423Y-17816D01*
X91507Y-17787D01*
X91535Y-17766D01*
X91566Y-17752D01*
X91695Y-17644D01*
X93215Y-16056D01*
X93234Y-16027D01*
X93260Y-16004D01*
X93274Y-15979D01*
X93292Y-15961D01*
X93315Y-15909D01*
X93354Y-15853D01*
X93363Y-15820D01*
X93380Y-15790D01*
X93391Y-15747D01*
X93395Y-15738D01*
X93397Y-15721D01*
X93399Y-15712D01*
X93908Y-15319D01*
X93931Y-15295D01*
X93993Y-15243D01*
X94436Y-14780D01*
X94505Y-14761D01*
X94592Y-14744D01*
X94623Y-14728D01*
X94656Y-14718D01*
X94799Y-14631D01*
X96539Y-13287D01*
X96563Y-13262D01*
X96592Y-13243D01*
X96646Y-13172D01*
X96707Y-13107D01*
X96721Y-13076D01*
X96742Y-13048D01*
X96772Y-12975D01*
X97335Y-12662D01*
X97361Y-12641D01*
X97430Y-12599D01*
X97937Y-12208D01*
X98008Y-12199D01*
X98097Y-12196D01*
X98129Y-12184D01*
X98163Y-12179D01*
X98318Y-12114D01*
X100239Y-11045D01*
X100266Y-11023D01*
X100297Y-11009D01*
X100361Y-10947D01*
X100431Y-10892D01*
X100450Y-10863D01*
X100475Y-10839D01*
X100516Y-10771D01*
X101119Y-10545D01*
X101147Y-10529D01*
X101222Y-10497D01*
X101781Y-10186D01*
X101853Y-10187D01*
X101942Y-10198D01*
X101975Y-10190D01*
X102010Y-10191D01*
X102173Y-10150D01*
X104231Y-9379D01*
X104261Y-9362D01*
X104294Y-9352D01*
X104367Y-9301D01*
X104444Y-9257D01*
X104467Y-9231D01*
X104496Y-9211D01*
X104546Y-9149D01*
X105176Y-9016D01*
X105207Y-9004D01*
X105285Y-8984D01*
X105885Y-8759D01*
X105955Y-8772D01*
X106041Y-8795D01*
X106076Y-8793D01*
X106110Y-8799D01*
X106277Y-8782D01*
X108427Y-8327D01*
X108460Y-8314D01*
X108494Y-8309D01*
X108574Y-8270D01*
X108657Y-8237D01*
X108683Y-8215D01*
X108714Y-8200D01*
X108773Y-8147D01*
X109415Y-8108D01*
X109448Y-8101D01*
X109528Y-8093D01*
X110155Y-7960D01*
X110223Y-7983D01*
X110304Y-8019D01*
X110339Y-8022D01*
X110372Y-8033D01*
X110539Y-8042D01*
X112733Y-7911D01*
X112767Y-7904D01*
X112802Y-7904D01*
X112887Y-7877D01*
X112973Y-7857D01*
X113003Y-7839D01*
X113036Y-7829D01*
X113102Y-7785D01*
X113743Y-7843D01*
X113776Y-7841D01*
X113857Y-7845D01*
X114496Y-7807D01*
X114560Y-7840D01*
X114635Y-7887D01*
X114669Y-7895D01*
X114700Y-7911D01*
X114864Y-7945D01*
X117053Y-8143D01*
X117088Y-8140D01*
X117122Y-8146D01*
X117210Y-8132D01*
X117299Y-8125D01*
X117331Y-8112D01*
X117365Y-8106D01*
X117437Y-8073D01*
X118062Y-8226D01*
X118095Y-8228D01*
X118174Y-8244D01*
X118812Y-8302D01*
X118870Y-8344D01*
X118938Y-8402D01*
X118970Y-8415D01*
X118998Y-8436D01*
X119155Y-8493D01*
X121177Y-8988D01*
X121240Y-8992D01*
X121301Y-9007D01*
X121362Y-9002D01*
X121422Y-9007D01*
X121468Y-8995D01*
X121686Y-9066D01*
X121706Y-9069D01*
X121723Y-9077D01*
X121827Y-9088D01*
X121929Y-9104D01*
X121949Y-9100D01*
X121968Y-9102D01*
X122070Y-9079D01*
X122172Y-9061D01*
X122189Y-9052D01*
X122208Y-9048D01*
X122297Y-8994D01*
X122388Y-8944D01*
X122401Y-8930D01*
X122418Y-8920D01*
X122485Y-8841D01*
X122556Y-8764D01*
X122564Y-8747D01*
X122576Y-8732D01*
X122646Y-8579D01*
X133245Y23843D01*
X133248Y23864D01*
X133257Y23883D01*
X133267Y23985D01*
X133283Y24086D01*
X133279Y24107D01*
X133281Y24128D01*
X133258Y24228D01*
X133241Y24329D01*
X133231Y24347D01*
X133226Y24367D01*
X133210Y24395D01*
X133226Y24405D01*
X133329Y24466D01*
X133331Y24469D01*
X133334Y24470D01*
X133411Y24562D01*
X133489Y24653D01*
X133490Y24656D01*
X133492Y24659D01*
X133562Y24811D01*
X134279Y27006D01*
X134304Y27001D01*
X134332Y27007D01*
X134361Y27004D01*
X134429Y27027D01*
X134499Y27042D01*
X134522Y27058D01*
X134550Y27068D01*
X134603Y27115D01*
X134662Y27156D01*
X134677Y27180D01*
X134699Y27199D01*
X134745Y27289D01*
X134767Y27325D01*
X134769Y27335D01*
X134775Y27347D01*
X140575Y45347D01*
X140578Y45375D01*
X140590Y45402D01*
X140589Y45473D01*
X140597Y45545D01*
X140589Y45572D01*
X140589Y45601D01*
X140561Y45667D01*
X140540Y45735D01*
X140522Y45757D01*
X140511Y45784D01*
X140441Y45856D01*
X140414Y45888D01*
X140404Y45893D01*
X140395Y45903D01*
X135123Y49762D01*
X135123Y49920D01*
X135119Y49947D01*
X135121Y49975D01*
X135099Y50068D01*
X135083Y50162D01*
X135071Y50187D01*
X135064Y50214D01*
X135013Y50295D01*
X134968Y50380D01*
X134948Y50399D01*
X134934Y50422D01*
X134810Y50535D01*
X133286Y51644D01*
X133275Y51649D01*
X133266Y51658D01*
X133165Y51704D01*
X133066Y51754D01*
X133054Y51756D01*
X133043Y51761D01*
X132933Y51773D01*
X132823Y51789D01*
X132811Y51787D01*
X132799Y51788D01*
X132690Y51765D01*
X132581Y51744D01*
X132570Y51739D01*
X132558Y51736D01*
X132486Y51693D01*
X127834Y55098D01*
X125095Y57103D01*
X125068Y57115D01*
X125046Y57134D01*
X124979Y57156D01*
X124914Y57186D01*
X124885Y57187D01*
X124857Y57196D01*
X124787Y57190D01*
X124716Y57192D01*
X124688Y57182D01*
X124659Y57179D01*
X124596Y57146D01*
X124530Y57120D01*
X124509Y57100D01*
X124484Y57086D01*
X124418Y57011D01*
X124388Y56981D01*
X124383Y56971D01*
X124374Y56961D01*
X122819Y54421D01*
X122808Y54390D01*
X122784Y54351D01*
X121645Y51599D01*
X121639Y51567D01*
X121621Y51525D01*
X120927Y48629D01*
X120926Y48596D01*
X120915Y48552D01*
X120682Y45583D01*
X120686Y45550D01*
X120682Y45504D01*
X120728Y44923D01*
X118139Y44923D01*
X118139Y46928D01*
X118485Y49677D01*
X119173Y52361D01*
X120192Y54937D01*
X120280Y55098D01*
X121525Y57365D01*
X122050Y58087D01*
X122055Y58098D01*
X122063Y58107D01*
X122065Y58110D01*
X122068Y58114D01*
X122071Y58121D01*
X122341Y58489D01*
X122342Y58489D01*
X122343Y58491D01*
X122343Y58492D01*
X122344Y58493D01*
X122346Y58495D01*
X122424Y58603D01*
X122433Y58620D01*
X122446Y58635D01*
X122488Y58730D01*
X122534Y58822D01*
X122537Y58842D01*
X122545Y58860D01*
X122554Y58963D01*
X122569Y59066D01*
X122565Y59085D01*
X122567Y59105D01*
X122543Y59206D01*
X122524Y59308D01*
X122515Y59325D01*
X122510Y59344D01*
X122455Y59432D01*
X122404Y59523D01*
X122390Y59536D01*
X122380Y59553D01*
X122256Y59666D01*
X94712Y79697D01*
X94610Y79749D01*
X94508Y79803D01*
X94500Y79804D01*
X94493Y79808D01*
X94379Y79824D01*
X94266Y79843D01*
X94257Y79841D01*
X94249Y79843D01*
X94136Y79822D01*
X94023Y79803D01*
X94016Y79799D01*
X94007Y79798D01*
X93907Y79742D01*
X93805Y79689D01*
X93798Y79682D01*
X93792Y79678D01*
X93777Y79662D01*
X93684Y79573D01*
X93513Y79372D01*
X93502Y79353D01*
X93478Y79327D01*
X93015Y78689D01*
X93006Y78685D01*
X92955Y78648D01*
X92900Y78618D01*
X92835Y78558D01*
X92809Y78538D01*
X92799Y78523D01*
X92778Y78503D01*
X91431Y76912D01*
X91414Y76882D01*
X91389Y76858D01*
X91351Y76778D01*
X91305Y76701D01*
X91297Y76667D01*
X91282Y76636D01*
X91268Y76558D01*
X90784Y76134D01*
X90763Y76109D01*
X90704Y76053D01*
X90291Y75564D01*
X90223Y75541D01*
X90137Y75519D01*
X90107Y75500D01*
X90075Y75489D01*
X89937Y75393D01*
X88281Y73944D01*
X88259Y73917D01*
X88231Y73896D01*
X88181Y73823D01*
X88124Y73754D01*
X88112Y73722D01*
X88092Y73693D01*
X88067Y73618D01*
X87524Y73271D01*
X87500Y73249D01*
X87434Y73202D01*
X86952Y72781D01*
X86881Y72768D01*
X86793Y72759D01*
X86761Y72745D01*
X86727Y72738D01*
X86577Y72664D01*
X84723Y71478D01*
X84697Y71455D01*
X84666Y71438D01*
X84606Y71373D01*
X84540Y71314D01*
X84523Y71283D01*
X84499Y71258D01*
X84463Y71188D01*
X83875Y70925D01*
X83847Y70907D01*
X83775Y70871D01*
X83235Y70526D01*
X83163Y70524D01*
X83075Y70528D01*
X83041Y70519D01*
X83007Y70518D01*
X82847Y70467D01*
X80837Y69570D01*
X80808Y69551D01*
X80775Y69539D01*
X80705Y69484D01*
X80631Y69435D01*
X80610Y69408D01*
X80583Y69386D01*
X80536Y69322D01*
X79916Y69150D01*
X79886Y69136D01*
X79809Y69111D01*
X79224Y68851D01*
X79153Y68859D01*
X79066Y68877D01*
X79031Y68872D01*
X78997Y68876D01*
X78831Y68850D01*
X76710Y68263D01*
X76679Y68248D01*
X76645Y68241D01*
X76568Y68197D01*
X76487Y68159D01*
X76462Y68136D01*
X76431Y68118D01*
X76376Y68062D01*
X75737Y67984D01*
X75705Y67975D01*
X75625Y67962D01*
X75008Y67791D01*
X74939Y67810D01*
X74855Y67841D01*
X74821Y67842D01*
X74787Y67851D01*
X74620Y67849D01*
X72435Y67585D01*
X72401Y67575D01*
X72367Y67573D01*
X72284Y67541D01*
X72198Y67516D01*
X72170Y67496D01*
X72138Y67484D01*
X72074Y67436D01*
X71431Y67455D01*
X71398Y67450D01*
X71317Y67450D01*
X70681Y67373D01*
X70616Y67401D01*
X70538Y67444D01*
X70504Y67450D01*
X70472Y67464D01*
X70306Y67488D01*
X68106Y67552D01*
X68071Y67547D01*
X68037Y67551D01*
X67950Y67531D01*
X67862Y67519D01*
X67831Y67504D01*
X67797Y67496D01*
X67727Y67458D01*
X67094Y67573D01*
X67061Y67573D01*
X66981Y67585D01*
X66341Y67603D01*
X66280Y67641D01*
X66209Y67695D01*
X66177Y67707D01*
X66147Y67725D01*
X65986Y67773D01*
X63820Y68164D01*
X63786Y68165D01*
X63752Y68173D01*
X63664Y68167D01*
X63575Y68168D01*
X63541Y68158D01*
X63507Y68155D01*
X63432Y68128D01*
X62823Y68336D01*
X62791Y68341D01*
X62713Y68364D01*
X62083Y68478D01*
X62028Y68525D01*
X61967Y68589D01*
X61936Y68605D01*
X61909Y68628D01*
X61758Y68699D01*
X60256Y69210D01*
X60235Y69214D01*
X60216Y69223D01*
X60115Y69234D01*
X60014Y69251D01*
X59993Y69248D01*
X59972Y69250D01*
X59872Y69228D01*
X59771Y69212D01*
X59752Y69202D01*
X59731Y69198D01*
X59644Y69145D01*
X59553Y69098D01*
X59538Y69082D01*
X59520Y69072D01*
X59454Y68994D01*
X59383Y68920D01*
X59374Y68901D01*
X59360Y68885D01*
X59322Y68790D01*
X59279Y68698D01*
X59276Y68676D01*
X59268Y68656D01*
X59250Y68490D01*
X59250Y64490D01*
X56160Y61400D01*
X51790Y61400D01*
X51311Y61879D01*
X51237Y61933D01*
X51168Y61992D01*
X51138Y62004D01*
X51111Y62023D01*
X51024Y62050D01*
X50940Y62084D01*
X50899Y62088D01*
X50876Y62095D01*
X50844Y62094D01*
X50773Y62102D01*
X40049Y62102D01*
X30918Y71233D01*
X30918Y81835D01*
X31015Y81932D01*
X31068Y82006D01*
X31127Y82075D01*
X31140Y82105D01*
X31158Y82131D01*
X31185Y82218D01*
X31219Y82303D01*
X31224Y82344D01*
X31231Y82366D01*
X31230Y82398D01*
X31238Y82470D01*
X31238Y83147D01*
X34328Y86237D01*
X38697Y86237D01*
X41787Y83147D01*
X41787Y81230D01*
X41790Y81210D01*
X41788Y81191D01*
X41810Y81089D01*
X41827Y80987D01*
X41836Y80970D01*
X41841Y80950D01*
X41894Y80861D01*
X41942Y80770D01*
X41956Y80756D01*
X41967Y80739D01*
X42045Y80672D01*
X42120Y80601D01*
X42138Y80592D01*
X42154Y80579D01*
X42250Y80541D01*
X42343Y80497D01*
X42363Y80495D01*
X42382Y80487D01*
X42548Y80469D01*
X44403Y80469D01*
X44491Y80483D01*
X44581Y80490D01*
X44612Y80503D01*
X44646Y80509D01*
X44725Y80550D01*
X44807Y80585D01*
X44833Y80608D01*
X44864Y80624D01*
X44925Y80688D01*
X44992Y80748D01*
X45009Y80777D01*
X45033Y80802D01*
X45071Y80883D01*
X45115Y80960D01*
X45126Y81003D01*
X45137Y81025D01*
X45140Y81057D01*
X45157Y81123D01*
X45179Y81279D01*
X45179Y81313D01*
X45186Y81347D01*
X45176Y81436D01*
X45174Y81525D01*
X45162Y81557D01*
X45159Y81592D01*
X45096Y81747D01*
X44051Y83685D01*
X44030Y83712D01*
X44016Y83744D01*
X43955Y83809D01*
X43901Y83879D01*
X43872Y83899D01*
X43849Y83924D01*
X43781Y83966D01*
X43564Y84571D01*
X43548Y84600D01*
X43517Y84675D01*
X43213Y85239D01*
X43216Y85311D01*
X43227Y85399D01*
X43221Y85433D01*
X43222Y85468D01*
X43183Y85631D01*
X42439Y87702D01*
X42422Y87732D01*
X42413Y87766D01*
X42363Y87839D01*
X42320Y87917D01*
X42294Y87941D01*
X42274Y87969D01*
X42214Y88020D01*
X42089Y88652D01*
X42077Y88682D01*
X42059Y88761D01*
X41842Y89364D01*
X41856Y89435D01*
X41880Y89520D01*
X41878Y89555D01*
X41885Y89589D01*
X41871Y89756D01*
X41444Y91915D01*
X41432Y91947D01*
X41427Y91982D01*
X41389Y92062D01*
X41358Y92145D01*
X41336Y92172D01*
X41321Y92204D01*
X41268Y92263D01*
X41239Y92906D01*
X41232Y92939D01*
X41225Y93019D01*
X41101Y93647D01*
X41125Y93715D01*
X41162Y93796D01*
X41165Y93830D01*
X41177Y93863D01*
X41188Y94031D01*
X41087Y96229D01*
X41080Y96263D01*
X41081Y96298D01*
X41055Y96383D01*
X41036Y96470D01*
X41019Y96500D01*
X41009Y96533D01*
X40966Y96600D01*
X41033Y97240D01*
X41031Y97273D01*
X41036Y97353D01*
X41007Y97993D01*
X41040Y98057D01*
X41089Y98131D01*
X41098Y98165D01*
X41114Y98195D01*
X41149Y98359D01*
X41378Y100548D01*
X41376Y100583D01*
X41382Y100617D01*
X41369Y100705D01*
X41364Y100794D01*
X41351Y100826D01*
X41345Y100860D01*
X41313Y100933D01*
X41474Y101556D01*
X41477Y101589D01*
X41495Y101668D01*
X41561Y102305D01*
X41604Y102362D01*
X41663Y102429D01*
X41676Y102461D01*
X41697Y102489D01*
X41757Y102645D01*
X42309Y104776D01*
X42312Y104810D01*
X42323Y104843D01*
X42323Y104932D01*
X42331Y105021D01*
X42323Y105055D01*
X42323Y105089D01*
X42302Y105166D01*
X42555Y105758D01*
X42563Y105790D01*
X42591Y105866D01*
X42752Y106485D01*
X42803Y106536D01*
X42871Y106593D01*
X42889Y106622D01*
X42914Y106647D01*
X42996Y106793D01*
X43860Y108818D01*
X43868Y108851D01*
X43884Y108882D01*
X43897Y108970D01*
X43918Y109056D01*
X43915Y109091D01*
X43921Y109125D01*
X43911Y109204D01*
X44249Y109752D01*
X44262Y109782D01*
X44301Y109853D01*
X44552Y110442D01*
X44610Y110484D01*
X44686Y110530D01*
X44709Y110557D01*
X44737Y110578D01*
X44840Y110710D01*
X45934Y112483D01*
X45958Y112542D01*
X45991Y112595D01*
X46005Y112655D01*
X46028Y112711D01*
X46031Y112758D01*
X46500Y113404D01*
X46509Y113423D01*
X46532Y113452D01*
X46709Y113739D01*
X46752Y113845D01*
X46798Y113949D01*
X46799Y113958D01*
X46802Y113966D01*
X46810Y114080D01*
X46820Y114194D01*
X46818Y114203D01*
X46819Y114212D01*
X46790Y114322D01*
X46763Y114433D01*
X46758Y114441D01*
X46756Y114450D01*
X46693Y114544D01*
X46633Y114641D01*
X46624Y114649D01*
X46620Y114655D01*
X46602Y114669D01*
X46509Y114754D01*
X19035Y134735D01*
X19018Y134744D01*
X19003Y134757D01*
X18908Y134799D01*
X18816Y134845D01*
X18796Y134848D01*
X18778Y134856D01*
X18674Y134866D01*
X18572Y134880D01*
X18553Y134877D01*
X18533Y134878D01*
X18432Y134854D01*
X18330Y134836D01*
X18313Y134826D01*
X18293Y134821D01*
X18206Y134766D01*
X18115Y134716D01*
X18102Y134701D01*
X18085Y134691D01*
X17972Y134567D01*
X17867Y134422D01*
X17866Y134421D01*
X17865Y134420D01*
X17582Y134026D01*
X17570Y134014D01*
X17044Y133289D01*
X15142Y131264D01*
X13002Y129493D01*
X10656Y128005D01*
X8143Y126822D01*
X5501Y125964D01*
X2773Y125443D01*
X1523Y125365D01*
X1523Y127972D01*
X3017Y128090D01*
X3049Y128099D01*
X3094Y128102D01*
X5999Y128800D01*
X6029Y128814D01*
X6073Y128824D01*
X8833Y129967D01*
X8861Y129985D01*
X8903Y130002D01*
X11450Y131563D01*
X11474Y131586D01*
X11513Y131609D01*
X13784Y133549D01*
X13805Y133575D01*
X13840Y133604D01*
X15780Y135876D01*
X15794Y135901D01*
X15814Y135922D01*
X15842Y135987D01*
X15876Y136050D01*
X15879Y136079D01*
X15890Y136105D01*
X15890Y136177D01*
X15897Y136247D01*
X15889Y136275D01*
X15888Y136304D01*
X15860Y136370D01*
X15839Y136438D01*
X15820Y136460D01*
X15809Y136487D01*
X15739Y136558D01*
X15712Y136590D01*
X15702Y136595D01*
X15692Y136605D01*
X11600Y139555D01*
X11609Y139663D01*
X11622Y139778D01*
X11620Y139785D01*
X11621Y139793D01*
X11594Y139905D01*
X11570Y140018D01*
X11566Y140025D01*
X11564Y140032D01*
X11503Y140130D01*
X11444Y140229D01*
X11438Y140234D01*
X11433Y140241D01*
X11310Y140354D01*
X9214Y141878D01*
X9186Y141892D01*
X9161Y141913D01*
X9076Y141947D01*
X8994Y141988D01*
X8963Y141993D01*
X8933Y142005D01*
X8766Y142023D01*
X8175Y142023D01*
X292Y147705D01*
X266Y147717D01*
X245Y147735D01*
X176Y147757D01*
X111Y147787D01*
X82Y147787D01*
X55Y147796D01*
X-16Y147790D01*
X-88Y147791D01*
X-114Y147781D01*
X-143Y147778D01*
X-234Y147734D01*
X-273Y147718D01*
X-280Y147711D01*
X-292Y147705D01*
X-8175Y142023D01*
X-8766Y142023D01*
X-8798Y142018D01*
X-8830Y142021D01*
X-8919Y141998D01*
X-9009Y141983D01*
X-9037Y141968D01*
X-9068Y141961D01*
X-9214Y141878D01*
X-11310Y140354D01*
X-11315Y140348D01*
X-11322Y140344D01*
X-11401Y140261D01*
X-11482Y140179D01*
X-11486Y140172D01*
X-11491Y140166D01*
X-11540Y140062D01*
X-11591Y139958D01*
X-11592Y139950D01*
X-11595Y139943D01*
X-11608Y139829D01*
X-11623Y139714D01*
X-11621Y139706D01*
X-11622Y139699D01*
X-11598Y139586D01*
X-11592Y139560D01*
X-15692Y136605D01*
X-15712Y136584D01*
X-15737Y136569D01*
X-15779Y136511D01*
X-15827Y136459D01*
X-15837Y136432D01*
X-15854Y136408D01*
X-15870Y136339D01*
X-15894Y136272D01*
X-15892Y136243D01*
X-15899Y136214D01*
X-15887Y136144D01*
X-15883Y136073D01*
X-15870Y136047D01*
X-15865Y136019D01*
X-15814Y135933D01*
X-15795Y135895D01*
X-15787Y135888D01*
X-15780Y135876D01*
X-13840Y133604D01*
X-13814Y133584D01*
X-13784Y133549D01*
X-11513Y131609D01*
X-11484Y131593D01*
X-11450Y131563D01*
X-8903Y130002D01*
X-8872Y129991D01*
X-8833Y129967D01*
X-6073Y128824D01*
X-6041Y128817D01*
X-5999Y128800D01*
X-3094Y128102D01*
X-3061Y128101D01*
X-3017Y128090D01*
X-1523Y127972D01*
X-1523Y125365D01*
X-2772Y125443D01*
X-5501Y125964D01*
X-8143Y126822D01*
X-10656Y128005D01*
X-13002Y129493D01*
X-15142Y131264D01*
X-17044Y133289D01*
X-17570Y134014D01*
X-17576Y134019D01*
X-17579Y134026D01*
X-17585Y134032D01*
X-17589Y134038D01*
X-17594Y134044D01*
X-17866Y134421D01*
X-17867Y134422D01*
X-17869Y134425D01*
X-17972Y134567D01*
X-17986Y134581D01*
X-17996Y134598D01*
X-18073Y134667D01*
X-18147Y134740D01*
X-18165Y134749D01*
X-18180Y134762D01*
X-18275Y134802D01*
X-18368Y134848D01*
X-18387Y134851D01*
X-18406Y134858D01*
X-18509Y134867D01*
X-18612Y134880D01*
X-18631Y134876D01*
X-18651Y134878D01*
X-18751Y134853D01*
X-18853Y134833D01*
X-18870Y134823D01*
X-18890Y134818D01*
X-19035Y134735D01*
X-46509Y114754D01*
X-46589Y114673D01*
X-46671Y114594D01*
X-46675Y114586D01*
X-46682Y114579D01*
X-46731Y114477D01*
X-46784Y114376D01*
X-46786Y114367D01*
X-46790Y114359D01*
X-46805Y114246D01*
X-46822Y114133D01*
X-46821Y114124D01*
X-46822Y114115D01*
X-46800Y114003D01*
X-46781Y113891D01*
X-46776Y113880D01*
X-46774Y113873D01*
X-46763Y113853D01*
X-46709Y113739D01*
X-46532Y113452D01*
X-46518Y113436D01*
X-46500Y113404D01*
X-46037Y112766D01*
X-46037Y112757D01*
X-46016Y112697D01*
X-46006Y112635D01*
X-45968Y112555D01*
X-45957Y112524D01*
X-45947Y112510D01*
X-45934Y112483D01*
X-44840Y110710D01*
X-44817Y110683D01*
X-44801Y110653D01*
X-44737Y110591D01*
X-44679Y110524D01*
X-44649Y110506D01*
X-44624Y110482D01*
X-44554Y110445D01*
X-44301Y109853D01*
X-44284Y109825D01*
X-44249Y109752D01*
X-43913Y109207D01*
X-43911Y109135D01*
X-43917Y109046D01*
X-43909Y109013D01*
X-43908Y108978D01*
X-43860Y108817D01*
X-42996Y106793D01*
X-42978Y106764D01*
X-42966Y106731D01*
X-42912Y106661D01*
X-42864Y106585D01*
X-42837Y106564D01*
X-42816Y106536D01*
X-42753Y106489D01*
X-42591Y105866D01*
X-42578Y105835D01*
X-42555Y105758D01*
X-42303Y105169D01*
X-42313Y105098D01*
X-42332Y105011D01*
X-42328Y104976D01*
X-42333Y104942D01*
X-42309Y104776D01*
X-41757Y102645D01*
X-41743Y102614D01*
X-41737Y102580D01*
X-41693Y102502D01*
X-41657Y102420D01*
X-41634Y102395D01*
X-41617Y102364D01*
X-41561Y102308D01*
X-41495Y101668D01*
X-41486Y101636D01*
X-41474Y101556D01*
X-41314Y100936D01*
X-41334Y100867D01*
X-41366Y100784D01*
X-41367Y100749D01*
X-41377Y100716D01*
X-41378Y100548D01*
X-41149Y98359D01*
X-41140Y98326D01*
X-41139Y98291D01*
X-41108Y98208D01*
X-41085Y98122D01*
X-41065Y98093D01*
X-41053Y98061D01*
X-41007Y97997D01*
X-41036Y97353D01*
X-41032Y97321D01*
X-41033Y97240D01*
X-40966Y96603D01*
X-40996Y96538D01*
X-41040Y96461D01*
X-41047Y96426D01*
X-41061Y96395D01*
X-41087Y96229D01*
X-41188Y94031D01*
X-41184Y93996D01*
X-41188Y93962D01*
X-41169Y93875D01*
X-41159Y93786D01*
X-41144Y93755D01*
X-41137Y93721D01*
X-41100Y93651D01*
X-41225Y93019D01*
X-41226Y92986D01*
X-41239Y92906D01*
X-41268Y92266D01*
X-41307Y92206D01*
X-41363Y92137D01*
X-41374Y92104D01*
X-41393Y92075D01*
X-41444Y91915D01*
X-41871Y89756D01*
X-41872Y89721D01*
X-41881Y89688D01*
X-41876Y89599D01*
X-41879Y89510D01*
X-41869Y89477D01*
X-41867Y89442D01*
X-41841Y89367D01*
X-42059Y88761D01*
X-42065Y88729D01*
X-42089Y88652D01*
X-42213Y88024D01*
X-42261Y87970D01*
X-42326Y87909D01*
X-42342Y87879D01*
X-42365Y87853D01*
X-42439Y87702D01*
X-43183Y85631D01*
X-43189Y85597D01*
X-43203Y85565D01*
X-43212Y85476D01*
X-43228Y85389D01*
X-43223Y85355D01*
X-43226Y85320D01*
X-43212Y85242D01*
X-43517Y84675D01*
X-43528Y84644D01*
X-43564Y84571D01*
X-43780Y83969D01*
X-43835Y83923D01*
X-43908Y83872D01*
X-43929Y83845D01*
X-43956Y83823D01*
X-44051Y83685D01*
X-45096Y81747D01*
X-45107Y81714D01*
X-45126Y81685D01*
X-45147Y81599D01*
X-45176Y81515D01*
X-45176Y81480D01*
X-45184Y81446D01*
X-45182Y81367D01*
X-45207Y81334D01*
X-45215Y81318D01*
X-45228Y81305D01*
X-45272Y81210D01*
X-45321Y81116D01*
X-45324Y81098D01*
X-45331Y81082D01*
X-45343Y80978D01*
X-45359Y80873D01*
X-45356Y80855D01*
X-45358Y80837D01*
X-45336Y80735D01*
X-45318Y80631D01*
X-45310Y80615D01*
X-45306Y80597D01*
X-45252Y80507D01*
X-45202Y80414D01*
X-45189Y80401D01*
X-45180Y80386D01*
X-45100Y80317D01*
X-45023Y80245D01*
X-45007Y80238D01*
X-44993Y80226D01*
X-44895Y80187D01*
X-44799Y80143D01*
X-44782Y80141D01*
X-44765Y80134D01*
X-44598Y80116D01*
X-41321Y80116D01*
X-41227Y80022D01*
X-41211Y80010D01*
X-41198Y79994D01*
X-41111Y79938D01*
X-41027Y79878D01*
X-41008Y79872D01*
X-40992Y79861D01*
X-40891Y79836D01*
X-40792Y79806D01*
X-40772Y79806D01*
X-40753Y79801D01*
X-40650Y79809D01*
X-40546Y79812D01*
X-40528Y79819D01*
X-40508Y79820D01*
X-40413Y79861D01*
X-40315Y79897D01*
X-40300Y79909D01*
X-40281Y79917D01*
X-40150Y80022D01*
X-37110Y83062D01*
X-32740Y83062D01*
X-29650Y79972D01*
X-29650Y79295D01*
X-29636Y79205D01*
X-29628Y79114D01*
X-29616Y79084D01*
X-29611Y79052D01*
X-29596Y79024D01*
X-29596Y72468D01*
X-38373Y63690D01*
X-49185Y63690D01*
X-49275Y63675D01*
X-49366Y63668D01*
X-49396Y63655D01*
X-49428Y63650D01*
X-49509Y63607D01*
X-49593Y63572D01*
X-49625Y63546D01*
X-49645Y63535D01*
X-49668Y63512D01*
X-49724Y63467D01*
X-50203Y62988D01*
X-54572Y62988D01*
X-57662Y66078D01*
X-57662Y69020D01*
X-57675Y69097D01*
X-57678Y69175D01*
X-57695Y69218D01*
X-57702Y69263D01*
X-57739Y69332D01*
X-57767Y69405D01*
X-57796Y69440D01*
X-57817Y69480D01*
X-57874Y69534D01*
X-57924Y69594D01*
X-57962Y69618D01*
X-57995Y69649D01*
X-58066Y69682D01*
X-58133Y69723D01*
X-58177Y69734D01*
X-58218Y69753D01*
X-58296Y69762D01*
X-58372Y69779D01*
X-58418Y69775D01*
X-58463Y69780D01*
X-58539Y69764D01*
X-58617Y69756D01*
X-58674Y69734D01*
X-58703Y69728D01*
X-58727Y69714D01*
X-58774Y69696D01*
X-59282Y69432D01*
X-59354Y69436D01*
X-59442Y69449D01*
X-59476Y69443D01*
X-59510Y69445D01*
X-59674Y69409D01*
X-61089Y68927D01*
X-61089Y68926D01*
X-61758Y68699D01*
X-61788Y68683D01*
X-61822Y68674D01*
X-61896Y68625D01*
X-61975Y68583D01*
X-61998Y68558D01*
X-62027Y68539D01*
X-62079Y68479D01*
X-62713Y68364D01*
X-62744Y68353D01*
X-62823Y68336D01*
X-63429Y68129D01*
X-63499Y68144D01*
X-63584Y68170D01*
X-63619Y68169D01*
X-63653Y68176D01*
X-63820Y68164D01*
X-65986Y67773D01*
X-66019Y67761D01*
X-66054Y67758D01*
X-66134Y67720D01*
X-66218Y67691D01*
X-66245Y67669D01*
X-66277Y67655D01*
X-66337Y67603D01*
X-66981Y67585D01*
X-67013Y67578D01*
X-67094Y67573D01*
X-67724Y67459D01*
X-67791Y67484D01*
X-67872Y67522D01*
X-67906Y67526D01*
X-67939Y67538D01*
X-68106Y67552D01*
X-70306Y67488D01*
X-70340Y67481D01*
X-70374Y67482D01*
X-70460Y67458D01*
X-70547Y67441D01*
X-70577Y67424D01*
X-70611Y67414D01*
X-70678Y67372D01*
X-71317Y67450D01*
X-71350Y67448D01*
X-71431Y67455D01*
X-72071Y67436D01*
X-72134Y67471D01*
X-72207Y67520D01*
X-72241Y67530D01*
X-72271Y67546D01*
X-72435Y67585D01*
X-74620Y67849D01*
X-74654Y67848D01*
X-74688Y67854D01*
X-74777Y67843D01*
X-74865Y67839D01*
X-74898Y67826D01*
X-74932Y67822D01*
X-75005Y67791D01*
X-75625Y67962D01*
X-75658Y67966D01*
X-75737Y67984D01*
X-76373Y68061D01*
X-76430Y68105D01*
X-76495Y68165D01*
X-76527Y68179D01*
X-76554Y68200D01*
X-76710Y68263D01*
X-78831Y68850D01*
X-78866Y68853D01*
X-78898Y68865D01*
X-78987Y68867D01*
X-79076Y68876D01*
X-79110Y68869D01*
X-79144Y68869D01*
X-79221Y68849D01*
X-79809Y69111D01*
X-79841Y69120D01*
X-79916Y69150D01*
X-80533Y69321D01*
X-80583Y69372D01*
X-80639Y69442D01*
X-80668Y69460D01*
X-80692Y69485D01*
X-80837Y69570D01*
X-82847Y70467D01*
X-82880Y70476D01*
X-82911Y70492D01*
X-82999Y70507D01*
X-83085Y70529D01*
X-83119Y70527D01*
X-83153Y70533D01*
X-83232Y70524D01*
X-83775Y70871D01*
X-83805Y70884D01*
X-83875Y70925D01*
X-84460Y71186D01*
X-84501Y71244D01*
X-84546Y71321D01*
X-84572Y71344D01*
X-84592Y71373D01*
X-84723Y71478D01*
X-86576Y72664D01*
X-86608Y72678D01*
X-86636Y72699D01*
X-86721Y72726D01*
X-86802Y72762D01*
X-86837Y72764D01*
X-86870Y72775D01*
X-86949Y72779D01*
X-87433Y73202D01*
X-87461Y73220D01*
X-87524Y73271D01*
X-88064Y73616D01*
X-88096Y73680D01*
X-88129Y73763D01*
X-88152Y73789D01*
X-88167Y73820D01*
X-88281Y73944D01*
X-89937Y75393D01*
X-89966Y75411D01*
X-89991Y75436D01*
X-90070Y75476D01*
X-90146Y75523D01*
X-90180Y75531D01*
X-90211Y75547D01*
X-90288Y75562D01*
X-90704Y76053D01*
X-90730Y76075D01*
X-90784Y76134D01*
X-91266Y76556D01*
X-91289Y76624D01*
X-91309Y76711D01*
X-91327Y76740D01*
X-91338Y76773D01*
X-91431Y76912D01*
X-92778Y78503D01*
X-92826Y78544D01*
X-92866Y78592D01*
X-92919Y78623D01*
X-92965Y78663D01*
X-93009Y78680D01*
X-93478Y79327D01*
X-93492Y79341D01*
X-93500Y79353D01*
X-93502Y79356D01*
X-93513Y79372D01*
X-93684Y79573D01*
X-93771Y79648D01*
X-93857Y79724D01*
X-93864Y79727D01*
X-93871Y79733D01*
X-93977Y79776D01*
X-94083Y79821D01*
X-94091Y79821D01*
X-94099Y79824D01*
X-94214Y79831D01*
X-94328Y79840D01*
X-94336Y79838D01*
X-94345Y79838D01*
X-94456Y79808D01*
X-94567Y79780D01*
X-94575Y79775D01*
X-94582Y79773D01*
X-94601Y79761D01*
X-94712Y79697D01*
X-122256Y59666D01*
X-122269Y59652D01*
X-122286Y59642D01*
X-122355Y59565D01*
X-122428Y59491D01*
X-122437Y59473D01*
X-122450Y59459D01*
X-122491Y59363D01*
X-122537Y59270D01*
X-122539Y59250D01*
X-122547Y59232D01*
X-122555Y59129D01*
X-122569Y59026D01*
X-122565Y59007D01*
X-122566Y58987D01*
X-122541Y58886D01*
X-122521Y58785D01*
X-122512Y58768D01*
X-122507Y58749D01*
X-122424Y58603D01*
X-122344Y58493D01*
X-122343Y58492D01*
X-122342Y58490D01*
X-122058Y58103D01*
X-122050Y58087D01*
X-121526Y57365D01*
X-120192Y54937D01*
X-119173Y52361D01*
X-118485Y49677D01*
X-118139Y46928D01*
X-118139Y44923D01*
X-120728Y44923D01*
X-120682Y45504D01*
X-120686Y45537D01*
X-120682Y45583D01*
X-120915Y48552D01*
X-120924Y48584D01*
X-120927Y48629D01*
X-121621Y51525D01*
X-121635Y51555D01*
X-121645Y51599D01*
X-122784Y54351D01*
X-122802Y54379D01*
X-122819Y54421D01*
X-124374Y56961D01*
X-124394Y56982D01*
X-124407Y57008D01*
X-124461Y57054D01*
X-124510Y57106D01*
X-124536Y57118D01*
X-124559Y57137D01*
X-124626Y57158D01*
X-124691Y57187D01*
X-124720Y57188D01*
X-124748Y57197D01*
X-124819Y57190D01*
X-124890Y57191D01*
X-124917Y57180D01*
X-124946Y57177D01*
X-125035Y57133D01*
X-125075Y57117D01*
X-125083Y57109D01*
X-125095Y57103D01*
X-132484Y51694D01*
X-132532Y51714D01*
X-132633Y51761D01*
X-132645Y51762D01*
X-132656Y51767D01*
X-132767Y51776D01*
X-132878Y51788D01*
X-132889Y51786D01*
X-132902Y51787D01*
X-133009Y51760D01*
X-133118Y51736D01*
X-133128Y51730D01*
X-133140Y51727D01*
X-133286Y51644D01*
X-134810Y50535D01*
X-134829Y50516D01*
X-134853Y50502D01*
X-134915Y50429D01*
X-134983Y50360D01*
X-134995Y50336D01*
X-135013Y50315D01*
X-135049Y50225D01*
X-135091Y50140D01*
X-135094Y50112D01*
X-135105Y50086D01*
X-135123Y49920D01*
X-135123Y49762D01*
X-140395Y45903D01*
X-140414Y45882D01*
X-140439Y45867D01*
X-140481Y45809D01*
X-140529Y45756D01*
X-140538Y45729D01*
X-140555Y45705D01*
X-140571Y45636D01*
X-140595Y45568D01*
X-140593Y45540D01*
X-140599Y45512D01*
X-140585Y45412D01*
X-140582Y45370D01*
X-140577Y45360D01*
X-140575Y45347D01*
X-134775Y27347D01*
X-134761Y27322D01*
X-134755Y27294D01*
X-134713Y27236D01*
X-134678Y27174D01*
X-134655Y27156D01*
X-134638Y27133D01*
X-134577Y27096D01*
X-134520Y27052D01*
X-134493Y27045D01*
X-134468Y27030D01*
X-134397Y27020D01*
X-134328Y27002D01*
X-134300Y27006D01*
X-134278Y27003D01*
X-133562Y24811D01*
X-133560Y24808D01*
X-133560Y24805D01*
X-133504Y24701D01*
X-133448Y24593D01*
X-133446Y24591D01*
X-133444Y24588D01*
X-133358Y24506D01*
X-133271Y24422D01*
X-133268Y24421D01*
X-133266Y24418D01*
X-133206Y24391D01*
X-133208Y24385D01*
X-133252Y24293D01*
X-133255Y24272D01*
X-133263Y24253D01*
X-133270Y24150D01*
X-133282Y24049D01*
X-133278Y24028D01*
X-133279Y24008D01*
X-133245Y23843D01*
X-122646Y-8579D01*
X-122637Y-8596D01*
X-122633Y-8615D01*
X-122580Y-8705D01*
X-122532Y-8797D01*
X-122518Y-8811D01*
X-122509Y-8828D01*
X-122430Y-8896D01*
X-122355Y-8968D01*
X-122338Y-8977D01*
X-122323Y-8989D01*
X-122227Y-9029D01*
X-122133Y-9074D01*
X-122114Y-9076D01*
X-122096Y-9083D01*
X-121992Y-9091D01*
X-121889Y-9103D01*
X-121870Y-9099D01*
X-121851Y-9100D01*
X-121686Y-9066D01*
X-121478Y-8998D01*
X-121469Y-9001D01*
X-121406Y-9000D01*
X-121343Y-9009D01*
X-121256Y-8998D01*
X-121223Y-8997D01*
X-121206Y-8991D01*
X-121177Y-8988D01*
X-119155Y-8493D01*
X-119124Y-8480D01*
X-119089Y-8474D01*
X-119011Y-8432D01*
X-118929Y-8397D01*
X-118903Y-8374D01*
X-118873Y-8357D01*
X-118815Y-8302D01*
X-118174Y-8244D01*
X-118142Y-8236D01*
X-118062Y-8226D01*
X-117440Y-8073D01*
X-117371Y-8094D01*
X-117289Y-8127D01*
X-117254Y-8129D01*
X-117221Y-8139D01*
X-117053Y-8143D01*
X-114864Y-7945D01*
X-114831Y-7936D01*
X-114796Y-7935D01*
X-114712Y-7905D01*
X-114626Y-7883D01*
X-114597Y-7864D01*
X-114564Y-7852D01*
X-114500Y-7807D01*
X-113857Y-7845D01*
X-113824Y-7841D01*
X-113743Y-7843D01*
X-113105Y-7785D01*
X-113041Y-7816D01*
X-112964Y-7861D01*
X-112930Y-7868D01*
X-112899Y-7883D01*
X-112733Y-7912D01*
X-110539Y-8042D01*
X-110505Y-8038D01*
X-110470Y-8043D01*
X-110383Y-8026D01*
X-110295Y-8016D01*
X-110263Y-8002D01*
X-110229Y-7995D01*
X-110158Y-7960D01*
X-109528Y-8093D01*
X-109495Y-8095D01*
X-109415Y-8108D01*
X-108776Y-8146D01*
X-108717Y-8186D01*
X-108648Y-8242D01*
X-108615Y-8255D01*
X-108587Y-8274D01*
X-108427Y-8327D01*
X-106277Y-8782D01*
X-106242Y-8784D01*
X-106209Y-8794D01*
X-106120Y-8790D01*
X-106031Y-8794D01*
X-105998Y-8784D01*
X-105963Y-8783D01*
X-105888Y-8758D01*
X-105285Y-8984D01*
X-105253Y-8990D01*
X-105176Y-9016D01*
X-104549Y-9149D01*
X-104497Y-9197D01*
X-104437Y-9263D01*
X-104406Y-9280D01*
X-104381Y-9303D01*
X-104231Y-9379D01*
X-102173Y-10150D01*
X-102139Y-10157D01*
X-102107Y-10171D01*
X-102019Y-10181D01*
X-101931Y-10198D01*
X-101897Y-10194D01*
X-101863Y-10197D01*
X-101784Y-10184D01*
X-101222Y-10497D01*
X-101191Y-10508D01*
X-101119Y-10545D01*
X-100519Y-10770D01*
X-100474Y-10826D01*
X-100425Y-10899D01*
X-100397Y-10921D01*
X-100375Y-10948D01*
X-100239Y-11045D01*
X-98318Y-12114D01*
X-98285Y-12126D01*
X-98256Y-12145D01*
X-98170Y-12167D01*
X-98087Y-12198D01*
X-98052Y-12198D01*
X-98019Y-12207D01*
X-97939Y-12206D01*
X-97430Y-12599D01*
X-97401Y-12615D01*
X-97335Y-12662D01*
X-96894Y-12907D01*
X-96810Y-12938D01*
X-96728Y-12975D01*
X-96695Y-12979D01*
X-96662Y-12991D01*
X-96573Y-12993D01*
X-96484Y-13002D01*
X-96451Y-12995D01*
X-96417Y-12996D01*
X-96331Y-12969D01*
X-96244Y-12950D01*
X-96214Y-12933D01*
X-96182Y-12922D01*
X-96109Y-12870D01*
X-96033Y-12824D01*
X-96010Y-12798D01*
X-95983Y-12778D01*
X-95931Y-12705D01*
X-95873Y-12637D01*
X-95860Y-12605D01*
X-95840Y-12578D01*
X-95814Y-12492D01*
X-95781Y-12409D01*
X-95776Y-12366D01*
X-95769Y-12342D01*
X-95770Y-12311D01*
X-95762Y-12242D01*
X-95762Y-8928D01*
X-92672Y-5838D01*
X-88303Y-5838D01*
X-85213Y-8928D01*
X-85213Y-9605D01*
X-85198Y-9695D01*
X-85191Y-9786D01*
X-85178Y-9816D01*
X-85173Y-9848D01*
X-85130Y-9929D01*
X-85095Y-10012D01*
X-85069Y-10045D01*
X-85058Y-10065D01*
X-85035Y-10087D01*
X-84990Y-10143D01*
X-74802Y-20331D01*
X-74802Y-33310D01*
X-74788Y-33400D01*
X-74780Y-33491D01*
X-74768Y-33521D01*
X-74763Y-33553D01*
X-74720Y-33634D01*
X-74684Y-33718D01*
X-74658Y-33750D01*
X-74647Y-33770D01*
X-74624Y-33793D01*
X-74579Y-33849D01*
X-74100Y-34328D01*
X-74100Y-38697D01*
X-74579Y-39176D01*
X-74633Y-39250D01*
X-74692Y-39320D01*
X-74704Y-39350D01*
X-74723Y-39376D01*
X-74750Y-39463D01*
X-74784Y-39548D01*
X-74788Y-39589D01*
X-74795Y-39611D01*
X-74794Y-39643D01*
X-74802Y-39715D01*
X-74802Y-41246D01*
X-74788Y-41336D01*
X-74780Y-41427D01*
X-74768Y-41457D01*
X-74763Y-41489D01*
X-74720Y-41569D01*
X-74684Y-41653D01*
X-74658Y-41685D01*
X-74647Y-41706D01*
X-74624Y-41728D01*
X-74579Y-41784D01*
X-72034Y-44329D01*
X-72034Y-54203D01*
X-79016Y-61185D01*
X-83573Y-61185D01*
X-83663Y-61200D01*
X-83754Y-61207D01*
X-83783Y-61220D01*
X-83815Y-61225D01*
X-83896Y-61268D01*
X-83980Y-61303D01*
X-84012Y-61329D01*
X-84033Y-61340D01*
X-84053Y-61361D01*
X-84055Y-61362D01*
X-84060Y-61367D01*
X-84111Y-61408D01*
X-86715Y-64012D01*
X-91085Y-64012D01*
X-94175Y-60922D01*
X-94175Y-60141D01*
X-94180Y-60107D01*
X-94178Y-60072D01*
X-94200Y-59986D01*
X-94214Y-59899D01*
X-94231Y-59868D01*
X-94240Y-59834D01*
X-94288Y-59760D01*
X-94330Y-59681D01*
X-94355Y-59657D01*
X-94374Y-59628D01*
X-94444Y-59573D01*
X-94508Y-59512D01*
X-94540Y-59497D01*
X-94567Y-59476D01*
X-94651Y-59446D01*
X-94731Y-59408D01*
X-94766Y-59404D01*
X-94799Y-59393D01*
X-94887Y-59391D01*
X-94975Y-59381D01*
X-95010Y-59389D01*
X-95045Y-59388D01*
X-95129Y-59415D01*
X-95216Y-59434D01*
X-95246Y-59452D01*
X-95279Y-59462D01*
X-95420Y-59554D01*
X-95816Y-59880D01*
X-95839Y-59906D01*
X-95867Y-59926D01*
X-95919Y-59998D01*
X-95978Y-60065D01*
X-95991Y-60097D01*
X-96012Y-60125D01*
X-96040Y-60199D01*
X-96592Y-60530D01*
X-96617Y-60551D01*
X-96685Y-60595D01*
X-97179Y-61002D01*
X-97250Y-61013D01*
X-97339Y-61019D01*
X-97371Y-61032D01*
X-97405Y-61038D01*
X-97558Y-61107D01*
X-99444Y-62236D01*
X-99471Y-62258D01*
X-99502Y-62274D01*
X-99564Y-62337D01*
X-99632Y-62395D01*
X-99650Y-62424D01*
X-99674Y-62449D01*
X-99713Y-62518D01*
X-100308Y-62763D01*
X-100336Y-62780D01*
X-100410Y-62814D01*
X-100960Y-63143D01*
X-101031Y-63143D01*
X-101120Y-63136D01*
X-101154Y-63144D01*
X-101188Y-63144D01*
X-101350Y-63190D01*
X-103275Y-63981D01*
X-103328Y-64014D01*
X-103387Y-64038D01*
X-103433Y-64078D01*
X-103484Y-64109D01*
X-103515Y-64146D01*
X-103662Y-64194D01*
X-103680Y-64203D01*
X-103700Y-64207D01*
X-103789Y-64259D01*
X-103880Y-64307D01*
X-103895Y-64321D01*
X-103912Y-64332D01*
X-103980Y-64409D01*
X-104051Y-64483D01*
X-104060Y-64502D01*
X-104074Y-64517D01*
X-104113Y-64612D01*
X-104157Y-64705D01*
X-104160Y-64726D01*
X-104168Y-64744D01*
X-104174Y-64848D01*
X-104187Y-64950D01*
X-104183Y-64969D01*
X-104184Y-64990D01*
X-104150Y-65154D01*
X-93589Y-97458D01*
X-93580Y-97475D01*
X-93576Y-97494D01*
X-93524Y-97584D01*
X-93476Y-97676D01*
X-93462Y-97690D01*
X-93452Y-97706D01*
X-93374Y-97775D01*
X-93299Y-97847D01*
X-93282Y-97855D01*
X-93267Y-97868D01*
X-93171Y-97908D01*
X-93077Y-97953D01*
X-93058Y-97955D01*
X-93040Y-97962D01*
X-92936Y-97969D01*
X-92832Y-97982D01*
X-92814Y-97978D01*
X-92795Y-97979D01*
X-92630Y-97945D01*
X-92119Y-97779D01*
X-89391Y-97260D01*
X-86620Y-97086D01*
X-84123Y-97244D01*
X-84123Y-99867D01*
X-86581Y-99673D01*
X-86614Y-99677D01*
X-86660Y-99673D01*
X-89636Y-99906D01*
X-89668Y-99915D01*
X-89713Y-99918D01*
X-92616Y-100615D01*
X-92642Y-100627D01*
X-92670Y-100631D01*
X-92732Y-100668D01*
X-92797Y-100698D01*
X-92816Y-100720D01*
X-92840Y-100734D01*
X-92882Y-100793D01*
X-92930Y-100846D01*
X-92939Y-100873D01*
X-92956Y-100896D01*
X-92971Y-100966D01*
X-92995Y-101034D01*
X-92993Y-101062D01*
X-92999Y-101090D01*
X-92984Y-101190D01*
X-92981Y-101232D01*
X-92977Y-101242D01*
X-92975Y-101255D01*
X-87075Y-119355D01*
X-87060Y-119381D01*
X-87053Y-119410D01*
X-87011Y-119467D01*
X-86977Y-119528D01*
X-86953Y-119546D01*
X-86935Y-119570D01*
X-86875Y-119606D01*
X-86819Y-119649D01*
X-86790Y-119656D01*
X-86764Y-119672D01*
X-86668Y-119688D01*
X-86626Y-119699D01*
X-86615Y-119697D01*
X-86600Y-119699D01*
X-67600Y-119699D01*
X-67572Y-119694D01*
X-67545Y-119696D01*
X-67476Y-119674D01*
X-67405Y-119660D01*
X-67382Y-119644D01*
X-67355Y-119635D01*
X-67301Y-119588D01*
X-67241Y-119547D01*
X-67226Y-119523D01*
X-67205Y-119505D01*
X-67173Y-119440D01*
X-67134Y-119380D01*
X-67129Y-119352D01*
X-67117Y-119327D01*
X-67108Y-119225D01*
X-67101Y-119183D01*
X-67103Y-119174D01*
X-67102Y-119161D01*
X-67336Y-116185D01*
X-67345Y-116153D01*
X-67348Y-116107D01*
X-67560Y-115223D01*
X-64885Y-115223D01*
X-64559Y-117813D01*
X-64559Y-119062D01*
X-64556Y-119082D01*
X-64558Y-119102D01*
X-64536Y-119203D01*
X-64520Y-119305D01*
X-64510Y-119323D01*
X-64506Y-119342D01*
X-64453Y-119431D01*
X-64405Y-119522D01*
X-64390Y-119536D01*
X-64380Y-119553D01*
X-64301Y-119621D01*
X-64226Y-119692D01*
X-64208Y-119700D01*
X-64193Y-119713D01*
X-64097Y-119752D01*
X-64003Y-119796D01*
X-63983Y-119798D01*
X-63965Y-119805D01*
X-63798Y-119824D01*
X-29786Y-119824D01*
X-29766Y-119821D01*
G37*
%LPC*%
G36*
X39090Y-87039D02*
X39090Y-87039D01*
X36000Y-83949D01*
X36000Y-79579D01*
X37495Y-78084D01*
X37548Y-78010D01*
X37608Y-77941D01*
X37620Y-77911D01*
X37639Y-77884D01*
X37666Y-77797D01*
X37700Y-77713D01*
X37704Y-77672D01*
X37711Y-77649D01*
X37710Y-77617D01*
X37718Y-77546D01*
X37718Y-73436D01*
X37715Y-73416D01*
X37717Y-73397D01*
X37695Y-73295D01*
X37679Y-73193D01*
X37669Y-73176D01*
X37665Y-73156D01*
X37612Y-73067D01*
X37563Y-72976D01*
X37549Y-72962D01*
X37539Y-72945D01*
X37460Y-72878D01*
X37385Y-72806D01*
X37367Y-72798D01*
X37352Y-72785D01*
X37256Y-72746D01*
X37162Y-72703D01*
X37142Y-72701D01*
X37124Y-72693D01*
X36957Y-72675D01*
X35643Y-72675D01*
X34733Y-71765D01*
X34727Y-71735D01*
X34711Y-71637D01*
X34699Y-71615D01*
X34694Y-71592D01*
X34642Y-71507D01*
X34595Y-71419D01*
X34578Y-71403D01*
X34565Y-71382D01*
X34489Y-71318D01*
X34417Y-71250D01*
X34395Y-71240D01*
X34377Y-71224D01*
X34284Y-71188D01*
X34194Y-71146D01*
X34170Y-71144D01*
X34147Y-71135D01*
X34048Y-71130D01*
X33950Y-71119D01*
X33926Y-71124D01*
X33902Y-71123D01*
X33806Y-71150D01*
X33709Y-71171D01*
X33688Y-71184D01*
X33665Y-71191D01*
X33583Y-71247D01*
X33498Y-71298D01*
X33482Y-71316D01*
X33462Y-71330D01*
X33403Y-71409D01*
X33338Y-71485D01*
X33329Y-71507D01*
X33315Y-71526D01*
X33287Y-71597D01*
X32933Y-72210D01*
X32460Y-72683D01*
X31881Y-73018D01*
X31234Y-73191D01*
X26923Y-73191D01*
X26923Y-66412D01*
X26920Y-66392D01*
X26922Y-66373D01*
X26900Y-66271D01*
X26883Y-66169D01*
X26874Y-66152D01*
X26870Y-66132D01*
X26817Y-66043D01*
X26768Y-65952D01*
X26754Y-65938D01*
X26744Y-65921D01*
X26665Y-65854D01*
X26590Y-65783D01*
X26572Y-65774D01*
X26557Y-65761D01*
X26461Y-65722D01*
X26367Y-65679D01*
X26347Y-65677D01*
X26329Y-65669D01*
X26162Y-65651D01*
X24638Y-65651D01*
X24618Y-65654D01*
X24599Y-65652D01*
X24497Y-65674D01*
X24395Y-65691D01*
X24378Y-65700D01*
X24358Y-65704D01*
X24269Y-65757D01*
X24178Y-65806D01*
X24164Y-65820D01*
X24147Y-65830D01*
X24080Y-65909D01*
X24009Y-65984D01*
X24000Y-66002D01*
X23987Y-66017D01*
X23948Y-66113D01*
X23905Y-66207D01*
X23903Y-66227D01*
X23895Y-66245D01*
X23877Y-66412D01*
X23877Y-73191D01*
X21504Y-73191D01*
X21484Y-73194D01*
X21464Y-73192D01*
X21363Y-73214D01*
X21261Y-73230D01*
X21244Y-73240D01*
X21224Y-73244D01*
X21135Y-73297D01*
X21044Y-73346D01*
X21030Y-73360D01*
X21013Y-73370D01*
X20946Y-73449D01*
X20874Y-73524D01*
X20866Y-73542D01*
X20853Y-73557D01*
X20814Y-73653D01*
X20771Y-73747D01*
X20769Y-73767D01*
X20761Y-73785D01*
X20743Y-73952D01*
X20743Y-76640D01*
X18225Y-79158D01*
X14663Y-79158D01*
X12145Y-76640D01*
X12145Y-73952D01*
X12142Y-73932D01*
X12144Y-73913D01*
X12122Y-73811D01*
X12105Y-73709D01*
X12096Y-73692D01*
X12092Y-73672D01*
X12039Y-73583D01*
X11990Y-73492D01*
X11976Y-73478D01*
X11966Y-73461D01*
X11887Y-73394D01*
X11812Y-73322D01*
X11794Y-73314D01*
X11779Y-73301D01*
X11683Y-73262D01*
X11589Y-73219D01*
X11569Y-73217D01*
X11551Y-73209D01*
X11384Y-73191D01*
X9461Y-73191D01*
X9461Y-66412D01*
X9457Y-66392D01*
X9460Y-66373D01*
X9438Y-66271D01*
X9421Y-66169D01*
X9412Y-66152D01*
X9407Y-66132D01*
X9354Y-66043D01*
X9306Y-65952D01*
X9291Y-65938D01*
X9281Y-65921D01*
X9202Y-65854D01*
X9127Y-65783D01*
X9109Y-65774D01*
X9094Y-65761D01*
X8998Y-65722D01*
X8904Y-65679D01*
X8885Y-65677D01*
X8866Y-65669D01*
X8699Y-65651D01*
X7176Y-65651D01*
X7156Y-65654D01*
X7136Y-65652D01*
X7035Y-65674D01*
X6933Y-65691D01*
X6915Y-65700D01*
X6896Y-65704D01*
X6807Y-65757D01*
X6715Y-65806D01*
X6702Y-65820D01*
X6685Y-65830D01*
X6617Y-65909D01*
X6546Y-65984D01*
X6538Y-66002D01*
X6525Y-66017D01*
X6486Y-66113D01*
X6442Y-66207D01*
X6440Y-66227D01*
X6433Y-66245D01*
X6414Y-66412D01*
X6414Y-73191D01*
X2103Y-73191D01*
X2082Y-73185D01*
X1964Y-73173D01*
X1846Y-73160D01*
X1841Y-73161D01*
X1837Y-73161D01*
X1721Y-73187D01*
X1605Y-73212D01*
X1602Y-73215D01*
X1598Y-73215D01*
X1496Y-73278D01*
X1394Y-73339D01*
X1391Y-73342D01*
X1388Y-73344D01*
X1312Y-73435D01*
X1234Y-73526D01*
X1233Y-73529D01*
X1230Y-73532D01*
X1187Y-73642D01*
X1142Y-73754D01*
X1142Y-73759D01*
X1140Y-73762D01*
X1140Y-73775D01*
X1124Y-73920D01*
X1124Y-76729D01*
X-1394Y-79247D01*
X-4956Y-79247D01*
X-7474Y-76729D01*
X-7474Y-73952D01*
X-7477Y-73932D01*
X-7475Y-73913D01*
X-7497Y-73811D01*
X-7513Y-73709D01*
X-7523Y-73692D01*
X-7527Y-73672D01*
X-7580Y-73583D01*
X-7629Y-73492D01*
X-7643Y-73478D01*
X-7653Y-73461D01*
X-7732Y-73394D01*
X-7807Y-73322D01*
X-7825Y-73314D01*
X-7840Y-73301D01*
X-7936Y-73262D01*
X-8002Y-73232D01*
X-8002Y-66412D01*
X-8005Y-66392D01*
X-8003Y-66373D01*
X-8025Y-66271D01*
X-8042Y-66169D01*
X-8051Y-66152D01*
X-8055Y-66132D01*
X-8108Y-66043D01*
X-8157Y-65952D01*
X-8171Y-65938D01*
X-8181Y-65921D01*
X-8260Y-65854D01*
X-8335Y-65783D01*
X-8353Y-65774D01*
X-8368Y-65761D01*
X-8464Y-65722D01*
X-8558Y-65679D01*
X-8578Y-65677D01*
X-8596Y-65669D01*
X-8763Y-65651D01*
X-9526Y-65651D01*
X-9526Y-65649D01*
X-8763Y-65649D01*
X-8743Y-65646D01*
X-8724Y-65648D01*
X-8622Y-65626D01*
X-8520Y-65609D01*
X-8503Y-65600D01*
X-8483Y-65596D01*
X-8394Y-65543D01*
X-8303Y-65494D01*
X-8289Y-65480D01*
X-8272Y-65470D01*
X-8205Y-65391D01*
X-8134Y-65316D01*
X-8125Y-65298D01*
X-8112Y-65283D01*
X-8073Y-65187D01*
X-8030Y-65093D01*
X-8028Y-65073D01*
X-8020Y-65055D01*
X-8002Y-64888D01*
X-8002Y-58109D01*
X-4787Y-58109D01*
X-4767Y-58106D01*
X-4748Y-58108D01*
X-4646Y-58086D01*
X-4544Y-58070D01*
X-4527Y-58060D01*
X-4507Y-58056D01*
X-4418Y-58003D01*
X-4327Y-57954D01*
X-4313Y-57940D01*
X-4296Y-57930D01*
X-4229Y-57851D01*
X-4157Y-57776D01*
X-4149Y-57758D01*
X-4136Y-57743D01*
X-4097Y-57647D01*
X-4054Y-57553D01*
X-4052Y-57533D01*
X-4044Y-57515D01*
X-4026Y-57348D01*
X-4026Y-57020D01*
X-3480Y-56474D01*
X-3438Y-56416D01*
X-3389Y-56364D01*
X-3367Y-56317D01*
X-3336Y-56275D01*
X-3315Y-56206D01*
X-3285Y-56141D01*
X-3279Y-56089D01*
X-3264Y-56039D01*
X-3266Y-55968D01*
X-3258Y-55897D01*
X-3269Y-55846D01*
X-3270Y-55794D01*
X-3295Y-55726D01*
X-3310Y-55656D01*
X-3337Y-55611D01*
X-3355Y-55563D01*
X-3400Y-55507D01*
X-3436Y-55445D01*
X-3476Y-55411D01*
X-3509Y-55371D01*
X-3569Y-55332D01*
X-3623Y-55285D01*
X-3672Y-55266D01*
X-3715Y-55238D01*
X-3785Y-55220D01*
X-3851Y-55193D01*
X-3923Y-55185D01*
X-3954Y-55177D01*
X-3977Y-55179D01*
X-4018Y-55175D01*
X-13924Y-55175D01*
X-14014Y-55189D01*
X-14105Y-55197D01*
X-14135Y-55209D01*
X-14167Y-55214D01*
X-14247Y-55257D01*
X-14331Y-55293D01*
X-14364Y-55319D01*
X-14384Y-55330D01*
X-14406Y-55353D01*
X-14462Y-55398D01*
X-15874Y-56810D01*
X-15916Y-56868D01*
X-15966Y-56920D01*
X-15988Y-56967D01*
X-16018Y-57009D01*
X-16039Y-57078D01*
X-16069Y-57143D01*
X-16075Y-57195D01*
X-16090Y-57245D01*
X-16089Y-57316D01*
X-16096Y-57387D01*
X-16085Y-57438D01*
X-16084Y-57490D01*
X-16059Y-57558D01*
X-16044Y-57628D01*
X-16017Y-57673D01*
X-16000Y-57721D01*
X-15955Y-57777D01*
X-15918Y-57839D01*
X-15878Y-57873D01*
X-15846Y-57913D01*
X-15786Y-57952D01*
X-15731Y-57999D01*
X-15683Y-58018D01*
X-15639Y-58046D01*
X-15569Y-58064D01*
X-15503Y-58091D01*
X-15432Y-58099D01*
X-15400Y-58107D01*
X-15377Y-58105D01*
X-15336Y-58109D01*
X-11048Y-58109D01*
X-11048Y-64127D01*
X-24638Y-64127D01*
X-24658Y-64130D01*
X-24677Y-64128D01*
X-24779Y-64150D01*
X-24881Y-64167D01*
X-24898Y-64176D01*
X-24918Y-64180D01*
X-25007Y-64233D01*
X-25098Y-64282D01*
X-25112Y-64296D01*
X-25129Y-64306D01*
X-25196Y-64385D01*
X-25267Y-64460D01*
X-25276Y-64478D01*
X-25289Y-64493D01*
X-25328Y-64589D01*
X-25371Y-64683D01*
X-25373Y-64703D01*
X-25381Y-64721D01*
X-25399Y-64888D01*
X-25399Y-66412D01*
X-25396Y-66432D01*
X-25398Y-66451D01*
X-25376Y-66553D01*
X-25359Y-66655D01*
X-25350Y-66672D01*
X-25346Y-66692D01*
X-25293Y-66781D01*
X-25244Y-66872D01*
X-25230Y-66886D01*
X-25220Y-66903D01*
X-25141Y-66970D01*
X-25066Y-67041D01*
X-25048Y-67050D01*
X-25033Y-67063D01*
X-24937Y-67102D01*
X-24843Y-67145D01*
X-24823Y-67147D01*
X-24805Y-67155D01*
X-24638Y-67173D01*
X-11048Y-67173D01*
X-11048Y-73191D01*
X-15359Y-73191D01*
X-16006Y-73018D01*
X-16585Y-72683D01*
X-16924Y-72344D01*
X-16940Y-72332D01*
X-16953Y-72317D01*
X-17040Y-72261D01*
X-17124Y-72200D01*
X-17143Y-72195D01*
X-17160Y-72184D01*
X-17260Y-72158D01*
X-17359Y-72128D01*
X-17379Y-72129D01*
X-17398Y-72124D01*
X-17501Y-72132D01*
X-17605Y-72134D01*
X-17624Y-72141D01*
X-17644Y-72143D01*
X-17738Y-72183D01*
X-17836Y-72219D01*
X-17852Y-72231D01*
X-17870Y-72239D01*
X-18001Y-72344D01*
X-18340Y-72683D01*
X-18919Y-73018D01*
X-19566Y-73191D01*
X-23667Y-73191D01*
X-23738Y-73202D01*
X-23810Y-73204D01*
X-23858Y-73222D01*
X-23910Y-73230D01*
X-23973Y-73264D01*
X-24041Y-73289D01*
X-24081Y-73321D01*
X-24127Y-73346D01*
X-24177Y-73398D01*
X-24233Y-73442D01*
X-24261Y-73486D01*
X-24297Y-73524D01*
X-24327Y-73589D01*
X-24366Y-73649D01*
X-24378Y-73700D01*
X-24400Y-73747D01*
X-24408Y-73818D01*
X-24426Y-73888D01*
X-24422Y-73940D01*
X-24427Y-73991D01*
X-24412Y-74062D01*
X-24407Y-74133D01*
X-24386Y-74181D01*
X-24375Y-74232D01*
X-24338Y-74293D01*
X-24310Y-74359D01*
X-24276Y-74402D01*
X-24276Y-77981D01*
X-26794Y-80499D01*
X-27489Y-80499D01*
X-27509Y-80502D01*
X-27528Y-80500D01*
X-27630Y-80522D01*
X-27732Y-80538D01*
X-27749Y-80548D01*
X-27769Y-80552D01*
X-27858Y-80605D01*
X-27949Y-80654D01*
X-27963Y-80668D01*
X-27980Y-80678D01*
X-28047Y-80757D01*
X-28119Y-80832D01*
X-28127Y-80850D01*
X-28140Y-80865D01*
X-28179Y-80961D01*
X-28222Y-81055D01*
X-28224Y-81075D01*
X-28232Y-81093D01*
X-28250Y-81260D01*
X-28250Y-84007D01*
X-29143Y-84900D01*
X-38407Y-84900D01*
X-39300Y-84007D01*
X-39300Y-74743D01*
X-38407Y-73850D01*
X-33131Y-73850D01*
X-33060Y-73839D01*
X-32988Y-73837D01*
X-32939Y-73819D01*
X-32888Y-73811D01*
X-32825Y-73777D01*
X-32757Y-73752D01*
X-32717Y-73720D01*
X-32671Y-73695D01*
X-32621Y-73644D01*
X-32565Y-73599D01*
X-32537Y-73555D01*
X-32501Y-73517D01*
X-32471Y-73452D01*
X-32432Y-73392D01*
X-32419Y-73341D01*
X-32398Y-73294D01*
X-32390Y-73223D01*
X-32372Y-73153D01*
X-32376Y-73101D01*
X-32370Y-73050D01*
X-32386Y-72979D01*
X-32391Y-72908D01*
X-32412Y-72860D01*
X-32423Y-72809D01*
X-32460Y-72748D01*
X-32488Y-72682D01*
X-32532Y-72626D01*
X-32549Y-72598D01*
X-32567Y-72583D01*
X-32592Y-72551D01*
X-32933Y-72210D01*
X-33284Y-71603D01*
X-33359Y-71511D01*
X-33433Y-71418D01*
X-33437Y-71416D01*
X-33439Y-71412D01*
X-33540Y-71349D01*
X-33640Y-71285D01*
X-33644Y-71284D01*
X-33648Y-71282D01*
X-33763Y-71254D01*
X-33879Y-71225D01*
X-33883Y-71225D01*
X-33887Y-71224D01*
X-34006Y-71235D01*
X-34124Y-71244D01*
X-34128Y-71246D01*
X-34132Y-71246D01*
X-34242Y-71294D01*
X-34350Y-71340D01*
X-34354Y-71343D01*
X-34357Y-71345D01*
X-34368Y-71354D01*
X-34481Y-71445D01*
X-34732Y-71696D01*
X-38293Y-71696D01*
X-40811Y-69178D01*
X-40811Y-67450D01*
X-40826Y-67360D01*
X-40833Y-67269D01*
X-40846Y-67239D01*
X-40851Y-67207D01*
X-40894Y-67126D01*
X-40929Y-67043D01*
X-40955Y-67010D01*
X-40966Y-66990D01*
X-40989Y-66968D01*
X-41034Y-66912D01*
X-44367Y-63579D01*
X-44367Y-57071D01*
X-42656Y-55360D01*
X-39100Y-51805D01*
X-39100Y-51804D01*
X-37389Y-50093D01*
X-33186Y-50093D01*
X-33166Y-50090D01*
X-33147Y-50092D01*
X-33045Y-50070D01*
X-32943Y-50054D01*
X-32926Y-50044D01*
X-32906Y-50040D01*
X-32817Y-49987D01*
X-32726Y-49938D01*
X-32712Y-49924D01*
X-32695Y-49914D01*
X-32628Y-49835D01*
X-32556Y-49760D01*
X-32548Y-49742D01*
X-32535Y-49727D01*
X-32496Y-49631D01*
X-32453Y-49537D01*
X-32451Y-49517D01*
X-32443Y-49499D01*
X-32425Y-49332D01*
X-32425Y-43018D01*
X-31532Y-42125D01*
X-28702Y-42125D01*
X-28682Y-42122D01*
X-28663Y-42124D01*
X-28561Y-42102D01*
X-28459Y-42086D01*
X-28442Y-42076D01*
X-28422Y-42072D01*
X-28333Y-42019D01*
X-28242Y-41970D01*
X-28228Y-41956D01*
X-28211Y-41946D01*
X-28144Y-41867D01*
X-28072Y-41792D01*
X-28064Y-41774D01*
X-28051Y-41759D01*
X-28012Y-41663D01*
X-27969Y-41569D01*
X-27967Y-41549D01*
X-27959Y-41531D01*
X-27941Y-41364D01*
X-27941Y-535D01*
X-16865Y10541D01*
X-14478Y10541D01*
X-14458Y10544D01*
X-14439Y10542D01*
X-14337Y10564D01*
X-14235Y10580D01*
X-14218Y10590D01*
X-14198Y10594D01*
X-14109Y10647D01*
X-14018Y10696D01*
X-14004Y10710D01*
X-13987Y10720D01*
X-13920Y10799D01*
X-13848Y10874D01*
X-13840Y10892D01*
X-13827Y10907D01*
X-13788Y11003D01*
X-13745Y11097D01*
X-13743Y11117D01*
X-13735Y11135D01*
X-13717Y11302D01*
X-13717Y24234D01*
X-13121Y24829D01*
X-7908Y24829D01*
X-7861Y24837D01*
X-7813Y24835D01*
X-7740Y24857D01*
X-7666Y24869D01*
X-7623Y24891D01*
X-7577Y24905D01*
X-7515Y24949D01*
X-7448Y24984D01*
X-7415Y25019D01*
X-7376Y25046D01*
X-7331Y25108D01*
X-7279Y25162D01*
X-7259Y25206D01*
X-7230Y25245D01*
X-7207Y25317D01*
X-7175Y25385D01*
X-7170Y25433D01*
X-7155Y25479D01*
X-7157Y25555D01*
X-7148Y25630D01*
X-7158Y25677D01*
X-7159Y25725D01*
X-7184Y25796D01*
X-7200Y25870D01*
X-7225Y25911D01*
X-7241Y25957D01*
X-7288Y26016D01*
X-7327Y26081D01*
X-7363Y26113D01*
X-7393Y26150D01*
X-7496Y26227D01*
X-7514Y26241D01*
X-7520Y26244D01*
X-7528Y26250D01*
X-7623Y26304D01*
X-8096Y26777D01*
X-8430Y27357D01*
X-8603Y28003D01*
X-8603Y31814D01*
X-1325Y31814D01*
X-1305Y31818D01*
X-1285Y31815D01*
X-1184Y31837D01*
X-1082Y31854D01*
X-1064Y31863D01*
X-1045Y31868D01*
X-956Y31921D01*
X-864Y31969D01*
X-851Y31984D01*
X-834Y31994D01*
X-766Y32072D01*
X-695Y32147D01*
X-687Y32166D01*
X-674Y32181D01*
X-635Y32277D01*
X-591Y32371D01*
X-589Y32390D01*
X-582Y32409D01*
X-563Y32576D01*
X-563Y33338D01*
X-562Y33338D01*
X-562Y32576D01*
X-558Y32556D01*
X-561Y32536D01*
X-539Y32435D01*
X-522Y32333D01*
X-513Y32315D01*
X-508Y32296D01*
X-455Y32207D01*
X-407Y32115D01*
X-392Y32102D01*
X-382Y32085D01*
X-303Y32017D01*
X-228Y31946D01*
X-210Y31938D01*
X-195Y31925D01*
X-99Y31886D01*
X-5Y31842D01*
X14Y31840D01*
X33Y31833D01*
X200Y31814D01*
X7478Y31814D01*
X7478Y28003D01*
X7305Y27357D01*
X6971Y26777D01*
X6498Y26304D01*
X6403Y26250D01*
X6366Y26219D01*
X6323Y26197D01*
X6271Y26142D01*
X6213Y26094D01*
X6187Y26053D01*
X6154Y26019D01*
X6122Y25950D01*
X6082Y25886D01*
X6071Y25839D01*
X6050Y25795D01*
X6042Y25720D01*
X6024Y25647D01*
X6029Y25599D01*
X6023Y25551D01*
X6039Y25477D01*
X6046Y25402D01*
X6065Y25358D01*
X6075Y25311D01*
X6114Y25246D01*
X6145Y25176D01*
X6177Y25141D01*
X6202Y25100D01*
X6259Y25050D01*
X6310Y24994D01*
X6352Y24971D01*
X6389Y24940D01*
X6459Y24911D01*
X6525Y24874D01*
X6572Y24866D01*
X6617Y24848D01*
X6745Y24834D01*
X6767Y24829D01*
X6773Y24830D01*
X6783Y24829D01*
X11534Y24829D01*
X11581Y24782D01*
X11639Y24740D01*
X11691Y24690D01*
X11739Y24668D01*
X11781Y24638D01*
X11850Y24617D01*
X11915Y24587D01*
X11966Y24581D01*
X12016Y24566D01*
X12088Y24568D01*
X12159Y24560D01*
X12210Y24571D01*
X12262Y24572D01*
X12329Y24597D01*
X12399Y24612D01*
X12444Y24639D01*
X12493Y24657D01*
X12549Y24701D01*
X12610Y24738D01*
X12644Y24778D01*
X12685Y24810D01*
X12724Y24870D01*
X12770Y24925D01*
X12790Y24973D01*
X12818Y25017D01*
X12835Y25087D01*
X12862Y25153D01*
X12870Y25224D01*
X12878Y25256D01*
X12876Y25279D01*
X12881Y25320D01*
X12881Y26052D01*
X12878Y26071D01*
X12880Y26091D01*
X12858Y26192D01*
X12841Y26294D01*
X12832Y26312D01*
X12827Y26331D01*
X12774Y26420D01*
X12726Y26512D01*
X12712Y26525D01*
X12701Y26542D01*
X12623Y26610D01*
X12548Y26681D01*
X12530Y26689D01*
X12514Y26702D01*
X12418Y26741D01*
X12325Y26785D01*
X12305Y26787D01*
X12286Y26794D01*
X12120Y26813D01*
X10306Y26813D01*
X9413Y27706D01*
X9413Y54169D01*
X10306Y55062D01*
X24569Y55062D01*
X25462Y54169D01*
X25462Y37906D01*
X24569Y37013D01*
X24223Y37013D01*
X24204Y37010D01*
X24184Y37012D01*
X24083Y36990D01*
X23981Y36973D01*
X23963Y36964D01*
X23944Y36959D01*
X23855Y36906D01*
X23763Y36858D01*
X23750Y36844D01*
X23733Y36833D01*
X23665Y36755D01*
X23594Y36680D01*
X23586Y36662D01*
X23573Y36646D01*
X23534Y36550D01*
X23490Y36457D01*
X23488Y36437D01*
X23481Y36418D01*
X23462Y36252D01*
X23462Y27706D01*
X22569Y26813D01*
X20755Y26813D01*
X20736Y26810D01*
X20716Y26812D01*
X20615Y26790D01*
X20513Y26773D01*
X20495Y26764D01*
X20476Y26759D01*
X20387Y26706D01*
X20295Y26658D01*
X20282Y26644D01*
X20265Y26633D01*
X20197Y26555D01*
X20126Y26480D01*
X20118Y26462D01*
X20105Y26446D01*
X20066Y26350D01*
X20022Y26257D01*
X20020Y26237D01*
X20013Y26218D01*
X19994Y26052D01*
X19994Y6527D01*
X17911Y4443D01*
X14478Y4443D01*
X14458Y4440D01*
X14439Y4442D01*
X14337Y4420D01*
X14235Y4404D01*
X14218Y4394D01*
X14198Y4390D01*
X14109Y4337D01*
X14018Y4288D01*
X14004Y4274D01*
X13987Y4264D01*
X13920Y4185D01*
X13848Y4110D01*
X13840Y4092D01*
X13827Y4077D01*
X13788Y3981D01*
X13745Y3887D01*
X13743Y3867D01*
X13735Y3849D01*
X13717Y3682D01*
X13717Y-12698D01*
X13720Y-12718D01*
X13718Y-12737D01*
X13740Y-12839D01*
X13756Y-12941D01*
X13766Y-12958D01*
X13770Y-12978D01*
X13823Y-13067D01*
X13872Y-13158D01*
X13886Y-13172D01*
X13896Y-13189D01*
X13975Y-13256D01*
X14050Y-13328D01*
X14068Y-13336D01*
X14083Y-13349D01*
X14179Y-13388D01*
X14273Y-13431D01*
X14293Y-13433D01*
X14311Y-13441D01*
X14478Y-13459D01*
X15465Y-13459D01*
X27941Y-25935D01*
X27941Y-41364D01*
X27944Y-41384D01*
X27942Y-41403D01*
X27964Y-41505D01*
X27980Y-41607D01*
X27990Y-41624D01*
X27994Y-41644D01*
X28047Y-41733D01*
X28096Y-41824D01*
X28110Y-41838D01*
X28120Y-41855D01*
X28199Y-41922D01*
X28274Y-41994D01*
X28292Y-42002D01*
X28307Y-42015D01*
X28403Y-42054D01*
X28497Y-42097D01*
X28517Y-42099D01*
X28535Y-42107D01*
X28702Y-42125D01*
X31532Y-42125D01*
X32425Y-43018D01*
X32425Y-54282D01*
X31532Y-55175D01*
X22784Y-55175D01*
X22694Y-55189D01*
X22603Y-55197D01*
X22573Y-55209D01*
X22541Y-55214D01*
X22460Y-55257D01*
X22376Y-55293D01*
X22344Y-55319D01*
X22324Y-55330D01*
X22301Y-55353D01*
X22245Y-55398D01*
X20833Y-56810D01*
X20792Y-56868D01*
X20742Y-56920D01*
X20720Y-56967D01*
X20690Y-57009D01*
X20669Y-57078D01*
X20639Y-57143D01*
X20633Y-57195D01*
X20617Y-57245D01*
X20619Y-57316D01*
X20611Y-57387D01*
X20623Y-57438D01*
X20624Y-57490D01*
X20648Y-57558D01*
X20664Y-57628D01*
X20690Y-57672D01*
X20708Y-57721D01*
X20753Y-57777D01*
X20790Y-57839D01*
X20829Y-57873D01*
X20862Y-57913D01*
X20922Y-57952D01*
X20977Y-57999D01*
X21025Y-58018D01*
X21069Y-58046D01*
X21138Y-58064D01*
X21205Y-58091D01*
X21276Y-58099D01*
X21307Y-58107D01*
X21331Y-58105D01*
X21372Y-58109D01*
X23877Y-58109D01*
X23877Y-64888D01*
X23880Y-64908D01*
X23878Y-64927D01*
X23900Y-65029D01*
X23917Y-65131D01*
X23926Y-65148D01*
X23930Y-65168D01*
X23983Y-65257D01*
X24032Y-65348D01*
X24046Y-65362D01*
X24056Y-65379D01*
X24135Y-65446D01*
X24210Y-65517D01*
X24228Y-65526D01*
X24243Y-65539D01*
X24339Y-65578D01*
X24433Y-65621D01*
X24453Y-65623D01*
X24471Y-65631D01*
X24638Y-65649D01*
X26162Y-65649D01*
X26182Y-65646D01*
X26201Y-65648D01*
X26303Y-65626D01*
X26405Y-65609D01*
X26422Y-65600D01*
X26442Y-65596D01*
X26531Y-65543D01*
X26622Y-65494D01*
X26636Y-65480D01*
X26653Y-65470D01*
X26720Y-65391D01*
X26791Y-65316D01*
X26800Y-65298D01*
X26813Y-65283D01*
X26852Y-65187D01*
X26895Y-65093D01*
X26897Y-65073D01*
X26905Y-65055D01*
X26923Y-64888D01*
X26923Y-58109D01*
X31234Y-58109D01*
X31881Y-58282D01*
X32460Y-58617D01*
X32933Y-59090D01*
X33305Y-59734D01*
X33314Y-59751D01*
X33355Y-59842D01*
X33371Y-59859D01*
X33383Y-59881D01*
X33455Y-59949D01*
X33522Y-60022D01*
X33543Y-60033D01*
X33561Y-60050D01*
X33651Y-60092D01*
X33738Y-60139D01*
X33762Y-60143D01*
X33784Y-60154D01*
X33883Y-60165D01*
X33980Y-60182D01*
X34004Y-60178D01*
X34028Y-60181D01*
X34125Y-60160D01*
X34224Y-60145D01*
X34245Y-60134D01*
X34269Y-60129D01*
X34354Y-60078D01*
X34442Y-60032D01*
X34459Y-60015D01*
X34480Y-60002D01*
X34544Y-59927D01*
X34614Y-59856D01*
X34624Y-59834D01*
X34640Y-59815D01*
X34677Y-59723D01*
X34720Y-59634D01*
X34723Y-59610D01*
X34732Y-59587D01*
X34738Y-59531D01*
X35643Y-58625D01*
X45819Y-58625D01*
X45890Y-58614D01*
X45962Y-58612D01*
X46011Y-58594D01*
X46062Y-58586D01*
X46125Y-58552D01*
X46193Y-58527D01*
X46234Y-58495D01*
X46279Y-58470D01*
X46329Y-58419D01*
X46385Y-58374D01*
X46413Y-58330D01*
X46449Y-58292D01*
X46479Y-58227D01*
X46518Y-58167D01*
X46531Y-58116D01*
X46552Y-58069D01*
X46560Y-57998D01*
X46578Y-57928D01*
X46574Y-57876D01*
X46580Y-57825D01*
X46564Y-57754D01*
X46559Y-57683D01*
X46538Y-57635D01*
X46527Y-57584D01*
X46490Y-57523D01*
X46462Y-57457D01*
X46418Y-57401D01*
X46401Y-57373D01*
X46383Y-57358D01*
X46358Y-57326D01*
X44930Y-55898D01*
X44856Y-55845D01*
X44786Y-55785D01*
X44756Y-55773D01*
X44730Y-55754D01*
X44643Y-55727D01*
X44558Y-55693D01*
X44517Y-55689D01*
X44495Y-55682D01*
X44463Y-55683D01*
X44391Y-55675D01*
X35643Y-55675D01*
X34750Y-54782D01*
X34750Y-42518D01*
X35643Y-41625D01*
X37973Y-41625D01*
X37993Y-41622D01*
X38012Y-41624D01*
X38114Y-41602D01*
X38216Y-41586D01*
X38233Y-41576D01*
X38253Y-41572D01*
X38342Y-41519D01*
X38433Y-41470D01*
X38447Y-41456D01*
X38464Y-41446D01*
X38531Y-41367D01*
X38603Y-41292D01*
X38611Y-41274D01*
X38624Y-41259D01*
X38663Y-41163D01*
X38706Y-41069D01*
X38708Y-41049D01*
X38716Y-41031D01*
X38734Y-40864D01*
X38734Y-25935D01*
X76735Y12066D01*
X93282Y12066D01*
X93301Y12069D01*
X93321Y12067D01*
X93422Y12089D01*
X93524Y12105D01*
X93542Y12115D01*
X93561Y12119D01*
X93650Y12172D01*
X93742Y12221D01*
X93755Y12235D01*
X93772Y12245D01*
X93840Y12324D01*
X93911Y12399D01*
X93919Y12417D01*
X93932Y12432D01*
X93971Y12528D01*
X94015Y12622D01*
X94017Y12642D01*
X94024Y12660D01*
X94043Y12827D01*
X94043Y13313D01*
X99400Y18670D01*
X106975Y18670D01*
X112332Y13313D01*
X112332Y5737D01*
X106975Y380D01*
X99400Y380D01*
X94043Y5737D01*
X94043Y6223D01*
X94040Y6243D01*
X94042Y6262D01*
X94020Y6364D01*
X94003Y6466D01*
X93994Y6483D01*
X93989Y6503D01*
X93936Y6592D01*
X93888Y6683D01*
X93874Y6697D01*
X93863Y6714D01*
X93785Y6781D01*
X93710Y6853D01*
X93692Y6861D01*
X93676Y6874D01*
X93580Y6913D01*
X93487Y6956D01*
X93467Y6958D01*
X93448Y6966D01*
X93282Y6984D01*
X79155Y6984D01*
X79065Y6970D01*
X78974Y6962D01*
X78944Y6950D01*
X78912Y6945D01*
X78832Y6902D01*
X78748Y6866D01*
X78716Y6840D01*
X78695Y6829D01*
X78673Y6806D01*
X78617Y6761D01*
X44039Y-27817D01*
X43986Y-27891D01*
X43926Y-27960D01*
X43914Y-27991D01*
X43895Y-28017D01*
X43868Y-28104D01*
X43834Y-28189D01*
X43830Y-28229D01*
X43823Y-28252D01*
X43824Y-28284D01*
X43816Y-28355D01*
X43816Y-40864D01*
X43819Y-40884D01*
X43817Y-40903D01*
X43839Y-41005D01*
X43855Y-41107D01*
X43865Y-41124D01*
X43869Y-41144D01*
X43922Y-41233D01*
X43971Y-41324D01*
X43985Y-41338D01*
X43995Y-41355D01*
X44074Y-41422D01*
X44149Y-41494D01*
X44167Y-41502D01*
X44182Y-41515D01*
X44278Y-41554D01*
X44372Y-41597D01*
X44392Y-41599D01*
X44410Y-41607D01*
X44577Y-41625D01*
X46907Y-41625D01*
X47800Y-42518D01*
X47800Y-51266D01*
X47814Y-51356D01*
X47822Y-51447D01*
X47834Y-51477D01*
X47839Y-51509D01*
X47882Y-51590D01*
X47918Y-51674D01*
X47944Y-51706D01*
X47955Y-51726D01*
X47978Y-51749D01*
X48023Y-51805D01*
X51402Y-55184D01*
X51403Y-55184D01*
X53114Y-56896D01*
X53114Y-59510D01*
X53128Y-59600D01*
X53136Y-59691D01*
X53148Y-59721D01*
X53153Y-59753D01*
X53196Y-59833D01*
X53232Y-59917D01*
X53258Y-59949D01*
X53269Y-59970D01*
X53292Y-59992D01*
X53337Y-60048D01*
X54872Y-61583D01*
X54872Y-65144D01*
X52354Y-67662D01*
X48561Y-67662D01*
X48541Y-67666D01*
X48522Y-67664D01*
X48420Y-67686D01*
X48318Y-67702D01*
X48301Y-67712D01*
X48281Y-67716D01*
X48192Y-67769D01*
X48101Y-67817D01*
X48087Y-67832D01*
X48070Y-67842D01*
X48003Y-67921D01*
X47931Y-67996D01*
X47923Y-68014D01*
X47910Y-68029D01*
X47871Y-68125D01*
X47828Y-68219D01*
X47826Y-68238D01*
X47818Y-68257D01*
X47800Y-68424D01*
X47800Y-71782D01*
X46907Y-72675D01*
X45593Y-72675D01*
X45573Y-72678D01*
X45554Y-72676D01*
X45452Y-72698D01*
X45350Y-72714D01*
X45333Y-72724D01*
X45313Y-72728D01*
X45224Y-72781D01*
X45133Y-72830D01*
X45119Y-72844D01*
X45102Y-72854D01*
X45035Y-72933D01*
X44963Y-73008D01*
X44955Y-73026D01*
X44942Y-73041D01*
X44903Y-73137D01*
X44860Y-73231D01*
X44858Y-73251D01*
X44850Y-73269D01*
X44832Y-73436D01*
X44832Y-77546D01*
X44846Y-77636D01*
X44854Y-77727D01*
X44866Y-77757D01*
X44871Y-77789D01*
X44914Y-77869D01*
X44950Y-77953D01*
X44976Y-77985D01*
X44987Y-78006D01*
X45010Y-78028D01*
X45055Y-78084D01*
X46550Y-79579D01*
X46550Y-83949D01*
X43460Y-87039D01*
X39090Y-87039D01*
G37*
%LPD*%
G36*
X27027Y-119694D02*
X27027Y-119694D01*
X27054Y-119696D01*
X27123Y-119674D01*
X27195Y-119660D01*
X27217Y-119644D01*
X27243Y-119636D01*
X27299Y-119588D01*
X27359Y-119547D01*
X27373Y-119524D01*
X27394Y-119506D01*
X27427Y-119441D01*
X27466Y-119380D01*
X27470Y-119353D01*
X27482Y-119328D01*
X27492Y-119224D01*
X27499Y-119183D01*
X27497Y-119174D01*
X27498Y-119163D01*
X27196Y-115139D01*
X27188Y-115108D01*
X27185Y-115065D01*
X26287Y-111131D01*
X26274Y-111102D01*
X26265Y-111059D01*
X24791Y-107303D01*
X24774Y-107276D01*
X24759Y-107236D01*
X22741Y-103741D01*
X22720Y-103717D01*
X22699Y-103679D01*
X20183Y-100524D01*
X20158Y-100504D01*
X20132Y-100469D01*
X17174Y-97725D01*
X17147Y-97708D01*
X17115Y-97678D01*
X13781Y-95405D01*
X13752Y-95392D01*
X13717Y-95368D01*
X10081Y-93617D01*
X10050Y-93609D01*
X10011Y-93589D01*
X6155Y-92400D01*
X6124Y-92397D01*
X6082Y-92383D01*
X2092Y-91782D01*
X2060Y-91783D01*
X2018Y-91776D01*
X-2018Y-91776D01*
X-2049Y-91783D01*
X-2092Y-91782D01*
X-6082Y-92383D01*
X-6112Y-92394D01*
X-6155Y-92400D01*
X-10011Y-93589D01*
X-10039Y-93605D01*
X-10081Y-93617D01*
X-13717Y-95368D01*
X-13742Y-95387D01*
X-13781Y-95405D01*
X-17115Y-97678D01*
X-17138Y-97701D01*
X-17174Y-97725D01*
X-20132Y-100469D01*
X-20151Y-100495D01*
X-20183Y-100524D01*
X-22699Y-103679D01*
X-22713Y-103707D01*
X-22741Y-103741D01*
X-24759Y-107236D01*
X-24769Y-107266D01*
X-24791Y-107303D01*
X-26265Y-111059D01*
X-26271Y-111091D01*
X-26287Y-111131D01*
X-27185Y-115065D01*
X-27186Y-115097D01*
X-27196Y-115139D01*
X-27498Y-119163D01*
X-27494Y-119190D01*
X-27499Y-119217D01*
X-27482Y-119287D01*
X-27473Y-119360D01*
X-27459Y-119384D01*
X-27453Y-119410D01*
X-27410Y-119469D01*
X-27373Y-119532D01*
X-27351Y-119548D01*
X-27335Y-119570D01*
X-27272Y-119607D01*
X-27214Y-119651D01*
X-27187Y-119658D01*
X-27164Y-119672D01*
X-27060Y-119689D01*
X-27021Y-119699D01*
X-27011Y-119697D01*
X-27000Y-119699D01*
X27000Y-119699D01*
X27027Y-119694D01*
G37*
G36*
X75377Y69484D02*
X75377Y69484D01*
X75420Y69488D01*
X79308Y70564D01*
X79336Y70579D01*
X79378Y70590D01*
X83063Y72233D01*
X83088Y72252D01*
X83128Y72269D01*
X86527Y74443D01*
X86549Y74465D01*
X86586Y74488D01*
X89622Y77145D01*
X89642Y77170D01*
X89675Y77198D01*
X92281Y80277D01*
X92294Y80301D01*
X92314Y80320D01*
X92342Y80388D01*
X92377Y80452D01*
X92380Y80479D01*
X92390Y80504D01*
X92389Y80577D01*
X92397Y80650D01*
X92389Y80676D01*
X92389Y80703D01*
X92360Y80770D01*
X92338Y80840D01*
X92320Y80860D01*
X92310Y80885D01*
X92236Y80961D01*
X92210Y80992D01*
X92201Y80996D01*
X92193Y81004D01*
X48493Y112704D01*
X48468Y112715D01*
X48448Y112733D01*
X48379Y112756D01*
X48312Y112787D01*
X48285Y112787D01*
X48259Y112796D01*
X48186Y112790D01*
X48113Y112792D01*
X48088Y112782D01*
X48061Y112780D01*
X47996Y112746D01*
X47928Y112719D01*
X47909Y112700D01*
X47885Y112687D01*
X47815Y112608D01*
X47786Y112580D01*
X47783Y112571D01*
X47775Y112562D01*
X45657Y109129D01*
X45646Y109099D01*
X45623Y109062D01*
X44040Y105351D01*
X44033Y105320D01*
X44016Y105281D01*
X43004Y101375D01*
X43002Y101343D01*
X42990Y101302D01*
X42572Y97289D01*
X42575Y97257D01*
X42569Y97215D01*
X42753Y93184D01*
X42761Y93154D01*
X42762Y93110D01*
X43545Y89152D01*
X43557Y89123D01*
X43565Y89081D01*
X44929Y85284D01*
X44939Y85267D01*
X44943Y85251D01*
X44951Y85239D01*
X44959Y85215D01*
X46873Y81664D01*
X46894Y81640D01*
X46914Y81601D01*
X49336Y78375D01*
X49360Y78354D01*
X49385Y78319D01*
X52261Y75490D01*
X52288Y75472D01*
X52318Y75441D01*
X55584Y73073D01*
X55613Y73059D01*
X55648Y73033D01*
X59230Y71178D01*
X59261Y71169D01*
X59298Y71148D01*
X63117Y69847D01*
X63149Y69843D01*
X63190Y69828D01*
X67160Y69111D01*
X67192Y69112D01*
X67234Y69103D01*
X71267Y68986D01*
X71298Y68991D01*
X71341Y68989D01*
X75346Y69474D01*
X75377Y69484D01*
G37*
G36*
X-67234Y69103D02*
X-67234Y69103D01*
X-67203Y69111D01*
X-67160Y69111D01*
X-63190Y69828D01*
X-63160Y69840D01*
X-63117Y69847D01*
X-59298Y71148D01*
X-59271Y71164D01*
X-59230Y71178D01*
X-55648Y73033D01*
X-55623Y73053D01*
X-55584Y73073D01*
X-52318Y75441D01*
X-52297Y75465D01*
X-52261Y75490D01*
X-49385Y78319D01*
X-49367Y78345D01*
X-49336Y78375D01*
X-46914Y81601D01*
X-46900Y81630D01*
X-46873Y81664D01*
X-44959Y85215D01*
X-44950Y85246D01*
X-44933Y85277D01*
X-44930Y85281D01*
X-44930Y85282D01*
X-44929Y85284D01*
X-43565Y89081D01*
X-43560Y89112D01*
X-43545Y89152D01*
X-42762Y93110D01*
X-42762Y93142D01*
X-42753Y93184D01*
X-42569Y97215D01*
X-42574Y97246D01*
X-42572Y97289D01*
X-42990Y101302D01*
X-43000Y101332D01*
X-43004Y101375D01*
X-44016Y105281D01*
X-44030Y105309D01*
X-44040Y105351D01*
X-45623Y109062D01*
X-45641Y109088D01*
X-45657Y109129D01*
X-47775Y112562D01*
X-47794Y112582D01*
X-47806Y112606D01*
X-47861Y112654D01*
X-47911Y112707D01*
X-47936Y112718D01*
X-47957Y112736D01*
X-48026Y112758D01*
X-48093Y112788D01*
X-48120Y112788D01*
X-48146Y112796D01*
X-48219Y112790D01*
X-48292Y112791D01*
X-48317Y112781D01*
X-48344Y112778D01*
X-48438Y112731D01*
X-48476Y112716D01*
X-48483Y112709D01*
X-48493Y112704D01*
X-92193Y81004D01*
X-92212Y80984D01*
X-92235Y80970D01*
X-92278Y80911D01*
X-92328Y80858D01*
X-92337Y80832D01*
X-92353Y80810D01*
X-92370Y80739D01*
X-92394Y80670D01*
X-92393Y80643D01*
X-92399Y80617D01*
X-92387Y80545D01*
X-92383Y80472D01*
X-92370Y80448D01*
X-92366Y80421D01*
X-92312Y80330D01*
X-92294Y80294D01*
X-92287Y80288D01*
X-92281Y80277D01*
X-89675Y77198D01*
X-89650Y77178D01*
X-89622Y77145D01*
X-86586Y74488D01*
X-86559Y74472D01*
X-86527Y74443D01*
X-83128Y72269D01*
X-83098Y72257D01*
X-83063Y72233D01*
X-79378Y70590D01*
X-79347Y70583D01*
X-79308Y70564D01*
X-75420Y69488D01*
X-75388Y69486D01*
X-75346Y69474D01*
X-71341Y68989D01*
X-71309Y68992D01*
X-71267Y68986D01*
X-67234Y69103D01*
G37*
G36*
X-105000Y-62995D02*
X-105000Y-62995D01*
X-104973Y-62999D01*
X-104870Y-62975D01*
X-104830Y-62969D01*
X-104822Y-62964D01*
X-104810Y-62962D01*
X-101081Y-61431D01*
X-101054Y-61413D01*
X-101014Y-61397D01*
X-97554Y-59328D01*
X-97531Y-59306D01*
X-97493Y-59285D01*
X-94381Y-56722D01*
X-94360Y-56698D01*
X-94327Y-56671D01*
X-91631Y-53673D01*
X-91614Y-53646D01*
X-91585Y-53614D01*
X-89366Y-50248D01*
X-89354Y-50219D01*
X-89329Y-50183D01*
X-87637Y-46524D01*
X-87629Y-46493D01*
X-87611Y-46454D01*
X-86482Y-42583D01*
X-86480Y-42552D01*
X-86467Y-42510D01*
X-85928Y-38515D01*
X-85930Y-38483D01*
X-85923Y-38440D01*
X-85986Y-34409D01*
X-85993Y-34378D01*
X-85993Y-34335D01*
X-86655Y-30358D01*
X-86667Y-30328D01*
X-86673Y-30286D01*
X-87921Y-26452D01*
X-87937Y-26424D01*
X-87949Y-26383D01*
X-89755Y-22778D01*
X-89774Y-22753D01*
X-89793Y-22714D01*
X-92116Y-19419D01*
X-92139Y-19397D01*
X-92163Y-19361D01*
X-94951Y-16448D01*
X-94977Y-16430D01*
X-95006Y-16399D01*
X-98197Y-13934D01*
X-98226Y-13920D01*
X-98259Y-13893D01*
X-101782Y-11932D01*
X-101812Y-11922D01*
X-101849Y-11900D01*
X-105625Y-10486D01*
X-105656Y-10481D01*
X-105696Y-10465D01*
X-109640Y-9629D01*
X-109672Y-9629D01*
X-109714Y-9619D01*
X-113739Y-9380D01*
X-113771Y-9384D01*
X-113814Y-9381D01*
X-117829Y-9745D01*
X-117859Y-9754D01*
X-117902Y-9757D01*
X-121819Y-10715D01*
X-121843Y-10727D01*
X-121870Y-10731D01*
X-121932Y-10769D01*
X-121999Y-10800D01*
X-122017Y-10820D01*
X-122040Y-10834D01*
X-122082Y-10894D01*
X-122131Y-10948D01*
X-122140Y-10974D01*
X-122156Y-10996D01*
X-122172Y-11067D01*
X-122195Y-11136D01*
X-122193Y-11163D01*
X-122199Y-11190D01*
X-122184Y-11294D01*
X-122181Y-11335D01*
X-122176Y-11343D01*
X-122175Y-11355D01*
X-105475Y-62655D01*
X-105461Y-62678D01*
X-105455Y-62705D01*
X-105413Y-62764D01*
X-105377Y-62828D01*
X-105355Y-62844D01*
X-105339Y-62866D01*
X-105277Y-62904D01*
X-105219Y-62949D01*
X-105193Y-62955D01*
X-105169Y-62970D01*
X-105097Y-62980D01*
X-105027Y-62999D01*
X-105000Y-62995D01*
G37*
G36*
X105032Y-62994D02*
X105032Y-62994D01*
X105059Y-62996D01*
X105129Y-62973D01*
X105200Y-62957D01*
X105222Y-62942D01*
X105248Y-62933D01*
X105303Y-62885D01*
X105363Y-62843D01*
X105377Y-62820D01*
X105398Y-62802D01*
X105446Y-62709D01*
X105468Y-62674D01*
X105469Y-62665D01*
X105475Y-62655D01*
X122175Y-11355D01*
X122178Y-11328D01*
X122189Y-11303D01*
X122189Y-11229D01*
X122197Y-11157D01*
X122190Y-11131D01*
X122190Y-11104D01*
X122162Y-11036D01*
X122141Y-10966D01*
X122124Y-10945D01*
X122113Y-10920D01*
X122061Y-10869D01*
X122015Y-10813D01*
X121991Y-10800D01*
X121971Y-10781D01*
X121875Y-10739D01*
X121839Y-10720D01*
X121829Y-10720D01*
X121819Y-10715D01*
X117902Y-9757D01*
X117871Y-9756D01*
X117829Y-9745D01*
X113814Y-9381D01*
X113782Y-9385D01*
X113739Y-9380D01*
X109714Y-9619D01*
X109684Y-9627D01*
X109640Y-9629D01*
X105696Y-10465D01*
X105667Y-10478D01*
X105625Y-10486D01*
X101849Y-11900D01*
X101822Y-11917D01*
X101782Y-11932D01*
X98259Y-13893D01*
X98235Y-13914D01*
X98197Y-13934D01*
X95006Y-16399D01*
X94985Y-16423D01*
X94951Y-16448D01*
X92163Y-19361D01*
X92146Y-19388D01*
X92116Y-19419D01*
X89793Y-22714D01*
X89780Y-22743D01*
X89755Y-22778D01*
X87949Y-26383D01*
X87941Y-26414D01*
X87921Y-26452D01*
X86673Y-30286D01*
X86669Y-30317D01*
X86655Y-30358D01*
X85993Y-34335D01*
X85994Y-34367D01*
X85986Y-34409D01*
X85923Y-38440D01*
X85929Y-38472D01*
X85928Y-38515D01*
X86467Y-42510D01*
X86477Y-42541D01*
X86482Y-42583D01*
X87611Y-46454D01*
X87625Y-46482D01*
X87637Y-46524D01*
X89329Y-50183D01*
X89348Y-50209D01*
X89366Y-50248D01*
X91585Y-53614D01*
X91607Y-53637D01*
X91631Y-53673D01*
X94327Y-56671D01*
X94352Y-56690D01*
X94381Y-56722D01*
X97493Y-59285D01*
X97521Y-59300D01*
X97554Y-59328D01*
X101014Y-61397D01*
X101044Y-61408D01*
X101081Y-61431D01*
X104810Y-62962D01*
X104837Y-62967D01*
X104861Y-62980D01*
X104934Y-62986D01*
X105006Y-62999D01*
X105032Y-62994D01*
G37*
%LPC*%
G36*
X-53407Y-84900D02*
X-53407Y-84900D01*
X-54300Y-84007D01*
X-54300Y-78118D01*
X-54314Y-78028D01*
X-54322Y-77937D01*
X-54334Y-77907D01*
X-54339Y-77875D01*
X-54382Y-77795D01*
X-54418Y-77711D01*
X-54444Y-77678D01*
X-54455Y-77658D01*
X-54478Y-77636D01*
X-54523Y-77580D01*
X-54910Y-77193D01*
X-56770Y-75333D01*
X-56770Y-72936D01*
X-56773Y-72916D01*
X-56771Y-72897D01*
X-56793Y-72795D01*
X-56809Y-72693D01*
X-56819Y-72676D01*
X-56823Y-72656D01*
X-56876Y-72567D01*
X-56925Y-72476D01*
X-56939Y-72462D01*
X-56949Y-72445D01*
X-57028Y-72378D01*
X-57103Y-72306D01*
X-57121Y-72298D01*
X-57136Y-72285D01*
X-57232Y-72246D01*
X-57326Y-72203D01*
X-57346Y-72201D01*
X-57364Y-72193D01*
X-57531Y-72175D01*
X-60107Y-72175D01*
X-61000Y-71282D01*
X-61000Y-60018D01*
X-60107Y-59125D01*
X-47843Y-59125D01*
X-46950Y-60018D01*
X-46950Y-71282D01*
X-47843Y-72175D01*
X-50185Y-72175D01*
X-50256Y-72186D01*
X-50328Y-72188D01*
X-50377Y-72206D01*
X-50428Y-72214D01*
X-50491Y-72248D01*
X-50559Y-72273D01*
X-50599Y-72305D01*
X-50645Y-72330D01*
X-50695Y-72381D01*
X-50751Y-72426D01*
X-50779Y-72470D01*
X-50815Y-72508D01*
X-50845Y-72573D01*
X-50884Y-72633D01*
X-50896Y-72684D01*
X-50918Y-72731D01*
X-50926Y-72802D01*
X-50944Y-72872D01*
X-50940Y-72924D01*
X-50945Y-72975D01*
X-50930Y-73046D01*
X-50925Y-73117D01*
X-50904Y-73165D01*
X-50893Y-73216D01*
X-50856Y-73277D01*
X-50828Y-73343D01*
X-50783Y-73399D01*
X-50767Y-73427D01*
X-50749Y-73442D01*
X-50723Y-73474D01*
X-50570Y-73627D01*
X-50496Y-73680D01*
X-50427Y-73740D01*
X-50397Y-73752D01*
X-50371Y-73771D01*
X-50284Y-73798D01*
X-50199Y-73832D01*
X-50158Y-73836D01*
X-50136Y-73843D01*
X-50103Y-73842D01*
X-50032Y-73850D01*
X-44143Y-73850D01*
X-43250Y-74743D01*
X-43250Y-84007D01*
X-44143Y-84900D01*
X-53407Y-84900D01*
G37*
%LPD*%
%LPC*%
G36*
X-63731Y36893D02*
X-63731Y36893D01*
X-67093Y38285D01*
X-69665Y40857D01*
X-71057Y44219D01*
X-71057Y47856D01*
X-69665Y51218D01*
X-67093Y53790D01*
X-63731Y55182D01*
X-60094Y55182D01*
X-56732Y53790D01*
X-54160Y51218D01*
X-52768Y47856D01*
X-52768Y44219D01*
X-54160Y40857D01*
X-56732Y38285D01*
X-60094Y36893D01*
X-63731Y36893D01*
G37*
%LPD*%
%LPC*%
G36*
X-63731Y11493D02*
X-63731Y11493D01*
X-67093Y12885D01*
X-69665Y15457D01*
X-71057Y18819D01*
X-71057Y22456D01*
X-69665Y25818D01*
X-67093Y28390D01*
X-63731Y29782D01*
X-60094Y29782D01*
X-56732Y28390D01*
X-54160Y25818D01*
X-52768Y22456D01*
X-52768Y18819D01*
X-54160Y15457D01*
X-56732Y12885D01*
X-60094Y11493D01*
X-63731Y11493D01*
G37*
%LPD*%
%LPC*%
G36*
X-63731Y-13907D02*
X-63731Y-13907D01*
X-67093Y-12515D01*
X-69665Y-9943D01*
X-71057Y-6581D01*
X-71057Y-2944D01*
X-69665Y418D01*
X-67093Y2990D01*
X-63731Y4382D01*
X-60094Y4382D01*
X-56732Y2990D01*
X-54160Y418D01*
X-52768Y-2944D01*
X-52768Y-6581D01*
X-54160Y-9943D01*
X-56732Y-12515D01*
X-60094Y-13907D01*
X-63731Y-13907D01*
G37*
%LPD*%
%LPC*%
G36*
X-60107Y-55175D02*
X-60107Y-55175D01*
X-61000Y-54282D01*
X-61000Y-43018D01*
X-60107Y-42125D01*
X-47843Y-42125D01*
X-46950Y-43018D01*
X-46950Y-54282D01*
X-47843Y-55175D01*
X-60107Y-55175D01*
G37*
%LPD*%
%LPC*%
G36*
X-8603Y34861D02*
X-8603Y34861D01*
X-8603Y35476D01*
X-8606Y35494D01*
X-8604Y35511D01*
X-8614Y35557D01*
X-8615Y35611D01*
X-8634Y35664D01*
X-8643Y35719D01*
X-8654Y35740D01*
X-8656Y35751D01*
X-8677Y35785D01*
X-8697Y35843D01*
X-8732Y35887D01*
X-8758Y35937D01*
X-8780Y35957D01*
X-8783Y35962D01*
X-8807Y35983D01*
X-8849Y36036D01*
X-8913Y36083D01*
X-8936Y36106D01*
X-8955Y36115D01*
X-8984Y36136D01*
X-9623Y36504D01*
X-10096Y36977D01*
X-10430Y37557D01*
X-10603Y38203D01*
X-10603Y44514D01*
X-3086Y44514D01*
X-3086Y41639D01*
X-3082Y41620D01*
X-3085Y41600D01*
X-3063Y41499D01*
X-3046Y41397D01*
X-3037Y41379D01*
X-3032Y41360D01*
X-2979Y41271D01*
X-2931Y41179D01*
X-2916Y41166D01*
X-2906Y41149D01*
X-2827Y41081D01*
X-2752Y41010D01*
X-2734Y41002D01*
X-2719Y40989D01*
X-2623Y40950D01*
X-2529Y40906D01*
X-2510Y40904D01*
X-2491Y40897D01*
X-2324Y40878D01*
X-2086Y40878D01*
X-2086Y34861D01*
X-8603Y34861D01*
G37*
%LPD*%
%LPC*%
G36*
X961Y34861D02*
X961Y34861D01*
X961Y35236D01*
X957Y35255D01*
X960Y35275D01*
X938Y35376D01*
X921Y35478D01*
X912Y35496D01*
X907Y35515D01*
X854Y35604D01*
X806Y35696D01*
X791Y35709D01*
X781Y35726D01*
X702Y35794D01*
X627Y35865D01*
X609Y35873D01*
X594Y35886D01*
X498Y35925D01*
X404Y35969D01*
X385Y35971D01*
X366Y35978D01*
X199Y35997D01*
X-39Y35997D01*
X-39Y44514D01*
X7478Y44514D01*
X7478Y34861D01*
X961Y34861D01*
G37*
%LPD*%
%LPC*%
G36*
X-10603Y47561D02*
X-10603Y47561D01*
X-10603Y53872D01*
X-10430Y54518D01*
X-10096Y55098D01*
X-9623Y55571D01*
X-9043Y55905D01*
X-8397Y56078D01*
X-3086Y56078D01*
X-3086Y47561D01*
X-10603Y47561D01*
G37*
%LPD*%
%LPC*%
G36*
X-39Y47561D02*
X-39Y47561D01*
X-39Y56078D01*
X5272Y56078D01*
X5918Y55905D01*
X6498Y55571D01*
X6971Y55098D01*
X7305Y54518D01*
X7478Y53872D01*
X7478Y47561D01*
X-39Y47561D01*
G37*
%LPD*%
%LPC*%
G36*
X-132077Y25048D02*
X-132077Y25048D01*
X-132077Y27880D01*
X-131357Y28177D01*
X-131330Y28196D01*
X-131288Y28213D01*
X-128748Y29768D01*
X-128724Y29790D01*
X-128685Y29814D01*
X-126419Y31747D01*
X-126399Y31773D01*
X-126364Y31802D01*
X-124429Y34066D01*
X-124413Y34095D01*
X-124383Y34129D01*
X-122826Y36668D01*
X-122815Y36699D01*
X-122790Y36738D01*
X-121650Y39489D01*
X-121643Y39521D01*
X-121626Y39563D01*
X-121069Y41877D01*
X-118429Y41877D01*
X-118488Y41409D01*
X-119178Y38726D01*
X-120199Y36150D01*
X-121534Y33723D01*
X-123164Y31482D01*
X-125061Y29463D01*
X-127197Y27698D01*
X-129536Y26214D01*
X-132044Y25035D01*
X-132079Y25024D01*
X-132077Y25048D01*
G37*
%LPD*%
%LPC*%
G36*
X132044Y25035D02*
X132044Y25035D01*
X129907Y26040D01*
X129536Y26214D01*
X127485Y27515D01*
X127197Y27698D01*
X125288Y29275D01*
X125061Y29463D01*
X123164Y31482D01*
X121535Y33722D01*
X120199Y36150D01*
X119178Y38726D01*
X118488Y41409D01*
X118429Y41877D01*
X121069Y41877D01*
X121626Y39563D01*
X121640Y39533D01*
X121650Y39489D01*
X122790Y36738D01*
X122809Y36710D01*
X122826Y36668D01*
X124383Y34129D01*
X124406Y34105D01*
X124429Y34066D01*
X126364Y31802D01*
X126390Y31782D01*
X126419Y31747D01*
X128685Y29814D01*
X128714Y29798D01*
X128748Y29768D01*
X131288Y28213D01*
X131319Y28201D01*
X131357Y28177D01*
X132077Y27880D01*
X132077Y25048D01*
X132077Y25045D01*
X132077Y25041D01*
X132080Y25024D01*
X132044Y25035D01*
G37*
%LPD*%
G36*
X8719Y-65646D02*
X8719Y-65646D01*
X8739Y-65648D01*
X8840Y-65626D01*
X8942Y-65609D01*
X8960Y-65600D01*
X8979Y-65596D01*
X9068Y-65543D01*
X9160Y-65494D01*
X9173Y-65480D01*
X9190Y-65470D01*
X9258Y-65391D01*
X9329Y-65316D01*
X9337Y-65298D01*
X9350Y-65283D01*
X9389Y-65187D01*
X9433Y-65093D01*
X9435Y-65073D01*
X9442Y-65055D01*
X9461Y-64888D01*
X9461Y-58109D01*
X13142Y-58109D01*
X13162Y-58106D01*
X13181Y-58108D01*
X13283Y-58086D01*
X13385Y-58070D01*
X13402Y-58060D01*
X13422Y-58056D01*
X13511Y-58003D01*
X13602Y-57954D01*
X13616Y-57940D01*
X13633Y-57930D01*
X13700Y-57851D01*
X13771Y-57776D01*
X13780Y-57758D01*
X13793Y-57743D01*
X13832Y-57647D01*
X13875Y-57553D01*
X13877Y-57533D01*
X13885Y-57515D01*
X13903Y-57348D01*
X13903Y-56554D01*
X13983Y-56474D01*
X14024Y-56416D01*
X14074Y-56364D01*
X14096Y-56317D01*
X14126Y-56275D01*
X14147Y-56206D01*
X14177Y-56141D01*
X14183Y-56089D01*
X14199Y-56039D01*
X14197Y-55968D01*
X14205Y-55897D01*
X14193Y-55846D01*
X14192Y-55794D01*
X14168Y-55726D01*
X14152Y-55656D01*
X14126Y-55611D01*
X14108Y-55563D01*
X14063Y-55507D01*
X14026Y-55445D01*
X13987Y-55411D01*
X13954Y-55371D01*
X13894Y-55332D01*
X13839Y-55285D01*
X13791Y-55266D01*
X13747Y-55238D01*
X13678Y-55220D01*
X13611Y-55193D01*
X13540Y-55185D01*
X13509Y-55177D01*
X13485Y-55179D01*
X13444Y-55175D01*
X5321Y-55175D01*
X5231Y-55189D01*
X5140Y-55197D01*
X5110Y-55209D01*
X5078Y-55214D01*
X4998Y-55257D01*
X4914Y-55293D01*
X4882Y-55319D01*
X4861Y-55330D01*
X4839Y-55353D01*
X4783Y-55398D01*
X3371Y-56810D01*
X3329Y-56868D01*
X3280Y-56920D01*
X3258Y-56967D01*
X3227Y-57009D01*
X3206Y-57078D01*
X3176Y-57143D01*
X3170Y-57195D01*
X3155Y-57245D01*
X3157Y-57316D01*
X3149Y-57387D01*
X3160Y-57438D01*
X3161Y-57490D01*
X3186Y-57558D01*
X3201Y-57628D01*
X3228Y-57672D01*
X3246Y-57721D01*
X3291Y-57777D01*
X3327Y-57839D01*
X3367Y-57873D01*
X3400Y-57913D01*
X3460Y-57952D01*
X3514Y-57999D01*
X3563Y-58018D01*
X3606Y-58046D01*
X3676Y-58064D01*
X3742Y-58091D01*
X3814Y-58099D01*
X3845Y-58107D01*
X3868Y-58105D01*
X3909Y-58109D01*
X6414Y-58109D01*
X6414Y-64888D01*
X6418Y-64908D01*
X6415Y-64927D01*
X6437Y-65029D01*
X6454Y-65131D01*
X6463Y-65148D01*
X6468Y-65168D01*
X6521Y-65257D01*
X6569Y-65348D01*
X6584Y-65362D01*
X6594Y-65379D01*
X6672Y-65446D01*
X6747Y-65517D01*
X6766Y-65526D01*
X6781Y-65539D01*
X6877Y-65578D01*
X6971Y-65621D01*
X6990Y-65623D01*
X7009Y-65631D01*
X7176Y-65649D01*
X8699Y-65649D01*
X8719Y-65646D01*
G37*
%LPC*%
G36*
X65672Y-112177D02*
X65672Y-112177D01*
X66197Y-110849D01*
X66618Y-109786D01*
X67475Y-108225D01*
X67955Y-107353D01*
X69064Y-105826D01*
X69586Y-105106D01*
X71486Y-103082D01*
X73625Y-101312D01*
X75969Y-99823D01*
X78481Y-98640D01*
X81077Y-97796D01*
X81077Y-100509D01*
X80625Y-100617D01*
X80595Y-100631D01*
X80551Y-100642D01*
X77838Y-101766D01*
X77793Y-101785D01*
X77765Y-101803D01*
X77723Y-101820D01*
X75178Y-103381D01*
X75154Y-103403D01*
X75114Y-103427D01*
X72845Y-105366D01*
X72824Y-105392D01*
X72789Y-105422D01*
X70851Y-107692D01*
X70835Y-107721D01*
X70805Y-107756D01*
X69246Y-110302D01*
X69234Y-110333D01*
X69210Y-110371D01*
X68736Y-111518D01*
X68463Y-112177D01*
X65672Y-112177D01*
G37*
%LPD*%
%LPC*%
G36*
X-68463Y-112177D02*
X-68463Y-112177D01*
X-68736Y-111518D01*
X-69210Y-110371D01*
X-69229Y-110344D01*
X-69246Y-110302D01*
X-70805Y-107756D01*
X-70828Y-107731D01*
X-70851Y-107692D01*
X-72789Y-105422D01*
X-72816Y-105401D01*
X-72845Y-105366D01*
X-75114Y-103427D01*
X-75144Y-103411D01*
X-75178Y-103381D01*
X-77723Y-101820D01*
X-77754Y-101809D01*
X-77793Y-101785D01*
X-80551Y-100642D01*
X-80583Y-100635D01*
X-80625Y-100617D01*
X-81077Y-100509D01*
X-81077Y-97796D01*
X-79351Y-98357D01*
X-78481Y-98640D01*
X-76655Y-99500D01*
X-75969Y-99823D01*
X-74175Y-100962D01*
X-73625Y-101312D01*
X-71486Y-103082D01*
X-69586Y-105106D01*
X-67955Y-107353D01*
X-66618Y-109787D01*
X-65672Y-112177D01*
X-68463Y-112177D01*
G37*
%LPD*%
%LPC*%
G36*
X-1563Y46037D02*
X-1563Y46037D01*
X-1563Y46038D01*
X-1562Y46038D01*
X-1562Y46037D01*
X-1563Y46037D01*
G37*
%LPD*%
D10*
X-563Y33338D03*
X16438Y33338D03*
D11*
X41275Y-48650D03*
X41275Y-65650D03*
D12*
X-1563Y46038D03*
X17438Y46038D03*
D13*
X-33775Y-79375D03*
X-48775Y-79375D03*
D14*
X103188Y9525D03*
D15*
X-61913Y46038D03*
X-61913Y20638D03*
X-61913Y-4763D03*
D10*
X-53975Y-65650D03*
X-53975Y-48650D03*
X25400Y-48650D03*
X25400Y-65650D03*
X-9525Y-48650D03*
X-9525Y-65650D03*
X7938Y-48650D03*
X7938Y-65650D03*
X-25400Y-48650D03*
X-25400Y-65650D03*
D16*
X8000Y16000D03*
X8000Y8000D03*
X8000Y0D03*
X8000Y-8000D03*
X8000Y-16000D03*
X0Y-16000D03*
X-8000Y-16000D03*
X-8000Y-8000D03*
X-8000Y0D03*
X-8000Y8000D03*
X-8000Y16000D03*
X0Y16000D03*
D17*
X0Y140500D03*
X133600Y43400D03*
X82600Y-113700D03*
X-82600Y-113700D03*
X-133600Y43400D03*
X66800Y92000D03*
X108100Y-35100D03*
X0Y-113700D03*
X-108100Y-35100D03*
X-66800Y92000D03*
D18*
X-8000Y25338D02*
X-8000Y16000D01*
X-563Y32775D02*
X-563Y33338D01*
X-563Y32775D02*
X-8000Y25338D01*
X8000Y24775D02*
X8000Y16000D01*
X8000Y24775D02*
X-563Y33338D01*
D19*
X-110075Y43400D02*
X-133600Y43400D01*
X-110075Y43400D02*
X-109538Y42863D01*
X-82600Y-90538D02*
X-82600Y-113700D01*
X-82600Y-90538D02*
X-82550Y-90488D01*
X-82600Y-113700D02*
X-58138Y-113700D01*
X-57150Y-112713D01*
X82600Y-113700D02*
X82600Y-90538D01*
X82550Y-90488D01*
X82600Y-113700D02*
X58138Y-113700D01*
X57150Y-112713D01*
X111663Y43400D02*
X133600Y43400D01*
X111663Y43400D02*
X111125Y42863D01*
X0Y117475D02*
X0Y140500D01*
D20*
X52388Y48188D03*
X-26988Y-100013D03*
X-47625Y-107950D03*
D19*
X-28516Y-101541D02*
X-26988Y-100013D01*
X-44107Y-107950D02*
X-47625Y-107950D01*
X-37697Y-101541D02*
X-28516Y-101541D01*
X-37697Y-101541D02*
X-44107Y-107950D01*
D20*
X92075Y-76200D03*
X82550Y-58738D03*
D19*
X83917Y-60105D02*
X83917Y-62767D01*
X83917Y-60105D02*
X82550Y-58738D01*
X92075Y-70925D02*
X92075Y-76200D01*
X92075Y-70925D02*
X83917Y-62767D01*
D20*
X53975Y66675D03*
X36513Y80963D03*
X-34925Y77788D03*
X-52388Y68263D03*
X-79375Y-36513D03*
X-90488Y-11113D03*
X-88900Y-58738D03*
D19*
X-79375Y-22225D02*
X-90488Y-11113D01*
X-79375Y-22225D02*
X-79375Y-36513D01*
X-86775Y-56612D02*
X-88900Y-58738D01*
X-86775Y-56612D02*
X-80910Y-56612D01*
X-76607Y-52309D01*
X-76607Y-46223D01*
X-79375Y-43455D01*
X-79375Y-36513D01*
X-34168Y77031D02*
X-34925Y77788D01*
X-34168Y77031D02*
X-34168Y74362D01*
X-40267Y68263D01*
X-52388Y68263D01*
X35491Y79941D02*
X36513Y80963D01*
X35491Y79941D02*
X35491Y73127D01*
X41943Y66675D02*
X53975Y66675D01*
X41943Y66675D02*
X35491Y73127D01*
D21*
X-50338Y-45013D02*
X-53975Y-48650D01*
D20*
X-53975Y-48188D03*
D18*
X0Y-16000D02*
X0Y-10011D01*
X0Y-7938D02*
X0Y0D01*
X0Y7938D01*
X0Y16000D01*
X0Y0D02*
X8000Y0D01*
X8000Y-8000D02*
X63Y-8000D01*
X0Y-7938D01*
X63Y8000D02*
X8000Y8000D01*
X63Y8000D02*
X0Y7938D01*
D22*
X16438Y33338D02*
X16817Y38151D01*
X16438Y33338D02*
X16438Y8000D01*
X8000Y8000D01*
X0Y-7938D02*
X0Y-10011D01*
D20*
X0Y-10011D03*
D22*
X17438Y38151D02*
X17438Y46038D01*
X17438Y38151D02*
X16817Y38151D01*
D20*
X16817Y38151D03*
D22*
X41275Y-65650D02*
X41275Y-81764D01*
D20*
X41275Y-81764D03*
D19*
X-53975Y-48650D02*
X-53975Y-48188D01*
D23*
X-50617Y75817D02*
X-66800Y92000D01*
X-50617Y75817D02*
X-43102Y75817D01*
D24*
X-43102Y75817D03*
D23*
X-29841Y-113700D02*
X0Y-113700D01*
X-29841Y-113700D02*
X-34655Y-108887D01*
D24*
X-34655Y-108887D03*
X-83953Y-49266D03*
D23*
X-93934Y-49266D01*
X-108100Y-35100D01*
X91263Y-51937D02*
X108100Y-35100D01*
X91263Y-51937D02*
X91263Y-59724D01*
D24*
X91263Y-59724D03*
X44424Y76170D03*
D23*
X60254Y92000D01*
X66800Y92000D01*
X41275Y-48650D02*
X50573Y-57948D01*
X50573Y-63364D01*
D24*
X50573Y-63364D03*
D23*
X77788Y9525D02*
X103188Y9525D01*
X41275Y-26988D02*
X41275Y-48650D01*
X41275Y-26988D02*
X77788Y9525D01*
D24*
X16444Y-74860D03*
D23*
X16444Y-57606D01*
X25400Y-48650D01*
X14413Y-16000D02*
X8000Y-16000D01*
X25400Y-26988D02*
X25400Y-48650D01*
X25400Y-26988D02*
X14413Y-16000D01*
D24*
X-3175Y-74948D03*
D23*
X-3175Y-73392D01*
X-1485Y-58073D02*
X7938Y-48650D01*
X-1485Y-71702D02*
X-3175Y-73392D01*
X-1485Y-71702D02*
X-1485Y-58073D01*
X-8000Y-18988D02*
X-8000Y-16000D01*
X7938Y-34925D02*
X7938Y-48650D01*
X7938Y-34925D02*
X-8000Y-18988D01*
D24*
X-36513Y-60325D03*
D23*
X-32378Y-56190D01*
X-11308Y-48650D02*
X-9525Y-48650D01*
X-18848Y-56190D02*
X-32378Y-56190D01*
X-18848Y-56190D02*
X-11308Y-48650D01*
X-9525Y-48650D02*
X-9525Y-42300D01*
X-17463Y-34363D01*
X-11767Y0D02*
X-8000Y0D01*
X-11767Y0D02*
X-17463Y-5695D01*
X-17463Y-34363D01*
D24*
X-36513Y-67397D03*
D23*
X-38714Y-65639D02*
X-41827Y-62526D01*
X-41827Y-58124D01*
X-29384Y-52634D02*
X-25400Y-48650D01*
X-38271Y-65639D02*
X-36513Y-67397D01*
X-38271Y-65639D02*
X-38714Y-65639D01*
X-41827Y-58124D02*
X-36337Y-52634D01*
X-29384Y-52634D01*
X-25400Y-48650D02*
X-25400Y-1588D01*
X-15813Y8000D02*
X-8000Y8000D01*
X-15813Y8000D02*
X-25400Y-1588D01*
D21*
X-53975Y-74175D02*
X-48775Y-79375D01*
X-53975Y-74175D02*
X-53975Y-65650D01*
X-33775Y-79375D02*
X-30600Y-76200D01*
X-28575Y-76200D01*
D24*
X-28575Y-76200D03*
M02*
