G04 EAGLE Gerber RS-274X export*
G75*
%MOMM*%
%FSLAX34Y34*%
%LPD*%
%INBottom Copper*%
%IPPOS*%
%AMOC8*
5,1,8,0,0,1.08239X$1,22.5*%
G01*
%ADD10R,1.300000X1.500000*%
%ADD11R,1.000000X1.100000*%
%ADD12R,1.500000X1.300000*%
%ADD13R,1.100000X1.000000*%
%ADD14P,1.649562X8X22.500000*%
%ADD15C,1.524000*%
%ADD16C,1.000000*%
%ADD17R,0.550000X0.297181*%
%ADD18R,0.297181X0.550000*%
%ADD19R,5.600000X5.600000*%
%ADD20R,1.399997X0.400000*%
%ADD21R,0.500000X0.800000*%
%ADD22C,0.609600*%
%ADD23C,0.304800*%
%ADD24C,0.750000*%
%ADD25C,0.554800*%
%ADD26C,0.203200*%
%ADD27C,0.254000*%
%ADD28C,0.604800*%

G36*
X887057Y516241D02*
X887057Y516241D01*
X887148Y516248D01*
X887178Y516260D01*
X887210Y516266D01*
X887291Y516308D01*
X887375Y516344D01*
X887407Y516370D01*
X887427Y516381D01*
X887450Y516404D01*
X887506Y516449D01*
X900524Y529467D01*
X900577Y529541D01*
X900636Y529610D01*
X900649Y529641D01*
X900667Y529667D01*
X900694Y529754D01*
X900728Y529839D01*
X900733Y529879D01*
X900740Y529902D01*
X900739Y529934D01*
X900747Y530005D01*
X900747Y554310D01*
X924668Y578232D01*
X941036Y578232D01*
X941126Y578246D01*
X941217Y578254D01*
X941247Y578266D01*
X941279Y578271D01*
X941359Y578314D01*
X941443Y578350D01*
X941475Y578376D01*
X941496Y578387D01*
X941518Y578410D01*
X941574Y578455D01*
X949168Y586049D01*
X949221Y586123D01*
X949281Y586192D01*
X949293Y586222D01*
X949312Y586249D01*
X949338Y586335D01*
X949373Y586420D01*
X949377Y586461D01*
X949384Y586484D01*
X949383Y586516D01*
X949391Y586587D01*
X949391Y590571D01*
X949658Y590837D01*
X949700Y590895D01*
X949749Y590948D01*
X949771Y590995D01*
X949801Y591037D01*
X949822Y591105D01*
X949853Y591171D01*
X949858Y591222D01*
X949874Y591272D01*
X949872Y591344D01*
X949880Y591415D01*
X949869Y591466D01*
X949867Y591518D01*
X949843Y591585D01*
X949827Y591655D01*
X949801Y591700D01*
X949783Y591749D01*
X949738Y591805D01*
X949701Y591867D01*
X949662Y591900D01*
X949629Y591941D01*
X949569Y591980D01*
X949514Y592026D01*
X949466Y592046D01*
X949422Y592074D01*
X949420Y592074D01*
X949413Y592081D01*
X949385Y592102D01*
X949363Y592128D01*
X949286Y592173D01*
X949214Y592225D01*
X949181Y592235D01*
X949151Y592253D01*
X948989Y592296D01*
X946809Y592625D01*
X946774Y592625D01*
X946741Y592633D01*
X946652Y592623D01*
X946563Y592622D01*
X946531Y592611D01*
X946496Y592607D01*
X946422Y592578D01*
X945807Y592768D01*
X945775Y592773D01*
X945696Y592793D01*
X945063Y592889D01*
X945008Y592934D01*
X944944Y592996D01*
X944913Y593011D01*
X944886Y593033D01*
X944732Y593100D01*
X942626Y593751D01*
X942591Y593755D01*
X942559Y593768D01*
X942470Y593772D01*
X942382Y593784D01*
X942348Y593778D01*
X942313Y593779D01*
X942236Y593762D01*
X941656Y594041D01*
X941625Y594050D01*
X941550Y594083D01*
X940938Y594272D01*
X940890Y594325D01*
X940836Y594396D01*
X940808Y594415D01*
X940784Y594441D01*
X940642Y594530D01*
X938657Y595487D01*
X938624Y595496D01*
X938593Y595514D01*
X938541Y595524D01*
X938495Y595543D01*
X938449Y595548D01*
X938421Y595556D01*
X938386Y595555D01*
X938352Y595562D01*
X938335Y595560D01*
X938328Y595561D01*
X938321Y595561D01*
X938300Y595558D01*
X938273Y595556D01*
X937741Y595918D01*
X937711Y595932D01*
X937643Y595975D01*
X937066Y596253D01*
X937026Y596313D01*
X936984Y596391D01*
X936958Y596415D01*
X936939Y596444D01*
X936812Y596553D01*
X934991Y597795D01*
X934959Y597810D01*
X934932Y597831D01*
X934849Y597861D01*
X934768Y597899D01*
X934733Y597903D01*
X934701Y597915D01*
X934622Y597920D01*
X934150Y598358D01*
X934122Y598377D01*
X934061Y598429D01*
X933532Y598790D01*
X933502Y598855D01*
X933471Y598939D01*
X933450Y598966D01*
X933435Y598997D01*
X933325Y599124D01*
X931710Y600624D01*
X931681Y600643D01*
X931657Y600668D01*
X931579Y600711D01*
X931505Y600760D01*
X931472Y600769D01*
X931441Y600785D01*
X931364Y600803D01*
X930962Y601306D01*
X930938Y601329D01*
X930885Y601390D01*
X930416Y601825D01*
X930395Y601894D01*
X930378Y601981D01*
X930360Y602011D01*
X930350Y602045D01*
X930261Y602187D01*
X928887Y603910D01*
X928862Y603933D01*
X928842Y603962D01*
X928771Y604016D01*
X928705Y604075D01*
X928673Y604089D01*
X928645Y604110D01*
X928571Y604139D01*
X928250Y604696D01*
X928229Y604722D01*
X928186Y604790D01*
X927787Y605291D01*
X927777Y605362D01*
X927772Y605451D01*
X927760Y605483D01*
X927755Y605518D01*
X927687Y605671D01*
X926586Y607581D01*
X926564Y607607D01*
X926549Y607639D01*
X926486Y607702D01*
X926430Y607771D01*
X926401Y607789D01*
X926377Y607814D01*
X926308Y607854D01*
X926073Y608453D01*
X926056Y608481D01*
X926023Y608555D01*
X925703Y609110D01*
X925704Y609182D01*
X925713Y609270D01*
X925705Y609304D01*
X925706Y609339D01*
X925662Y609501D01*
X924857Y611553D01*
X924840Y611583D01*
X924829Y611616D01*
X924777Y611688D01*
X924732Y611764D01*
X924705Y611787D01*
X924685Y611815D01*
X924623Y611864D01*
X924480Y612492D01*
X924468Y612523D01*
X924446Y612601D01*
X924213Y613197D01*
X924224Y613268D01*
X924246Y613354D01*
X924243Y613388D01*
X924249Y613423D01*
X924230Y613589D01*
X923740Y615738D01*
X923727Y615770D01*
X923722Y615805D01*
X923681Y615884D01*
X923647Y615966D01*
X923625Y615993D01*
X923609Y616023D01*
X923555Y616081D01*
X923507Y616723D01*
X923499Y616755D01*
X923490Y616836D01*
X923348Y617460D01*
X923369Y617529D01*
X923404Y617611D01*
X923407Y617645D01*
X923417Y617678D01*
X923423Y617846D01*
X923259Y620044D01*
X923251Y620077D01*
X923251Y620112D01*
X923222Y620197D01*
X923201Y620283D01*
X923183Y620312D01*
X923172Y620345D01*
X923127Y620411D01*
X923175Y621052D01*
X923172Y621085D01*
X923175Y621166D01*
X923128Y621805D01*
X923159Y621869D01*
X923206Y621945D01*
X923213Y621979D01*
X923229Y622010D01*
X923260Y622175D01*
X923425Y624373D01*
X923422Y624407D01*
X923427Y624442D01*
X923412Y624529D01*
X923404Y624618D01*
X923390Y624650D01*
X923384Y624684D01*
X923349Y624755D01*
X923493Y625383D01*
X923495Y625416D01*
X923510Y625495D01*
X923558Y626134D01*
X923599Y626192D01*
X923656Y626261D01*
X923669Y626293D01*
X923688Y626321D01*
X923744Y626480D01*
X924235Y628629D01*
X924237Y628663D01*
X924247Y628696D01*
X924244Y628785D01*
X924250Y628874D01*
X924241Y628908D01*
X924240Y628942D01*
X924217Y629018D01*
X924452Y629617D01*
X924459Y629649D01*
X924485Y629726D01*
X924628Y630350D01*
X924677Y630402D01*
X924744Y630461D01*
X924761Y630491D01*
X924785Y630516D01*
X924863Y630665D01*
X925669Y632716D01*
X925677Y632750D01*
X925692Y632781D01*
X925702Y632870D01*
X925721Y632957D01*
X925717Y632991D01*
X925721Y633026D01*
X925710Y633104D01*
X926032Y633661D01*
X926043Y633692D01*
X926081Y633764D01*
X926315Y634360D01*
X926372Y634404D01*
X926446Y634452D01*
X926468Y634479D01*
X926495Y634501D01*
X926595Y634636D01*
X927697Y636544D01*
X927710Y636577D01*
X927729Y636606D01*
X927753Y636691D01*
X927784Y636774D01*
X927786Y636809D01*
X927795Y636843D01*
X927795Y636922D01*
X928196Y637425D01*
X928212Y637454D01*
X928260Y637519D01*
X928581Y638073D01*
X928643Y638109D01*
X928724Y638145D01*
X928750Y638169D01*
X928780Y638186D01*
X928898Y638305D01*
X930273Y640028D01*
X930281Y640042D01*
X930286Y640047D01*
X930292Y640059D01*
X930314Y640083D01*
X930350Y640164D01*
X930393Y640242D01*
X930400Y640276D01*
X930414Y640308D01*
X930426Y640386D01*
X930898Y640824D01*
X930918Y640850D01*
X930975Y640907D01*
X931375Y641408D01*
X931441Y641433D01*
X931527Y641457D01*
X931556Y641477D01*
X931588Y641489D01*
X931723Y641589D01*
X933339Y643088D01*
X933360Y643115D01*
X933388Y643137D01*
X933436Y643212D01*
X933490Y643282D01*
X933502Y643315D01*
X933520Y643344D01*
X933544Y643420D01*
X934076Y643782D01*
X934100Y643805D01*
X934165Y643853D01*
X934634Y644289D01*
X934704Y644304D01*
X934793Y644315D01*
X934824Y644330D01*
X934858Y644337D01*
X935006Y644416D01*
X936731Y645591D01*
X936776Y645635D01*
X936828Y645670D01*
X936865Y645719D01*
X936909Y645761D01*
X936931Y645802D01*
X937353Y646046D01*
X937367Y646057D01*
X937383Y646064D01*
X937462Y646135D01*
X937544Y646202D01*
X937553Y646217D01*
X937566Y646228D01*
X937618Y646321D01*
X937675Y646410D01*
X937679Y646427D01*
X937687Y646442D01*
X937707Y646547D01*
X937732Y646649D01*
X937731Y646667D01*
X937734Y646684D01*
X937720Y646789D01*
X937710Y646894D01*
X937703Y646910D01*
X937701Y646928D01*
X937635Y647082D01*
X910224Y695304D01*
X910180Y695359D01*
X910144Y695419D01*
X910103Y695454D01*
X910070Y695496D01*
X910010Y695533D01*
X909957Y695579D01*
X909907Y695599D01*
X909862Y695628D01*
X909794Y695645D01*
X909754Y695661D01*
X909358Y696349D01*
X909306Y696408D01*
X909260Y696470D01*
X909241Y696481D01*
X909226Y696498D01*
X909156Y696532D01*
X909089Y696572D01*
X909065Y696576D01*
X909047Y696584D01*
X909002Y696586D01*
X908925Y696599D01*
X889925Y696599D01*
X889897Y696594D01*
X889869Y696596D01*
X889801Y696574D01*
X889730Y696560D01*
X889707Y696544D01*
X889680Y696535D01*
X889625Y696488D01*
X889566Y696447D01*
X889551Y696423D01*
X889530Y696405D01*
X889498Y696340D01*
X889459Y696280D01*
X889454Y696252D01*
X889442Y696226D01*
X889433Y696125D01*
X889426Y696083D01*
X889428Y696073D01*
X889427Y696060D01*
X889457Y695689D01*
X852093Y695689D01*
X852003Y695675D01*
X851912Y695668D01*
X851882Y695655D01*
X851850Y695650D01*
X851770Y695607D01*
X851686Y695571D01*
X851654Y695546D01*
X851633Y695535D01*
X851611Y695511D01*
X851555Y695466D01*
X851488Y695399D01*
X851451Y695348D01*
X851406Y695303D01*
X851380Y695249D01*
X851344Y695199D01*
X851326Y695139D01*
X851298Y695083D01*
X851281Y694996D01*
X851272Y694964D01*
X851272Y694947D01*
X851267Y694918D01*
X851111Y692839D01*
X851114Y692804D01*
X851109Y692770D01*
X851125Y692682D01*
X851133Y692594D01*
X851146Y692562D01*
X851153Y692528D01*
X851187Y692456D01*
X851044Y691829D01*
X851042Y691796D01*
X851027Y691716D01*
X850979Y691078D01*
X850938Y691019D01*
X850881Y690951D01*
X850868Y690918D01*
X850849Y690890D01*
X850793Y690732D01*
X850303Y688585D01*
X850301Y688550D01*
X850291Y688517D01*
X850294Y688431D01*
X850290Y688394D01*
X850291Y688387D01*
X850288Y688339D01*
X850297Y688306D01*
X850298Y688271D01*
X850322Y688195D01*
X850087Y687596D01*
X850080Y687564D01*
X850053Y687488D01*
X849911Y686863D01*
X849861Y686811D01*
X849795Y686752D01*
X849777Y686722D01*
X849753Y686697D01*
X849675Y686549D01*
X848871Y684499D01*
X848864Y684465D01*
X848849Y684434D01*
X848838Y684345D01*
X848819Y684258D01*
X848823Y684224D01*
X848819Y684190D01*
X848831Y684111D01*
X848509Y683554D01*
X848497Y683523D01*
X848460Y683451D01*
X848226Y682855D01*
X848169Y682811D01*
X848095Y682763D01*
X848073Y682735D01*
X848046Y682714D01*
X847946Y682579D01*
X846845Y680672D01*
X846833Y680640D01*
X846814Y680611D01*
X846790Y680525D01*
X846758Y680442D01*
X846757Y680407D01*
X846748Y680374D01*
X846748Y680294D01*
X846347Y679791D01*
X846330Y679762D01*
X846312Y679738D01*
X846302Y679727D01*
X846298Y679718D01*
X846282Y679697D01*
X845962Y679143D01*
X845900Y679107D01*
X845819Y679071D01*
X845793Y679047D01*
X845763Y679030D01*
X845645Y678911D01*
X844272Y677190D01*
X844255Y677160D01*
X844232Y677134D01*
X844195Y677053D01*
X844152Y676975D01*
X844145Y676941D01*
X844131Y676909D01*
X844119Y676831D01*
X843648Y676393D01*
X843627Y676367D01*
X843570Y676310D01*
X843171Y675809D01*
X843104Y675783D01*
X843018Y675759D01*
X842990Y675740D01*
X842957Y675727D01*
X842823Y675628D01*
X841208Y674130D01*
X841187Y674103D01*
X841160Y674081D01*
X841112Y674006D01*
X841058Y673936D01*
X841046Y673903D01*
X841027Y673874D01*
X841004Y673798D01*
X840472Y673435D01*
X840448Y673413D01*
X840383Y673364D01*
X839914Y672929D01*
X839844Y672913D01*
X839756Y672902D01*
X839724Y672887D01*
X839691Y672880D01*
X839542Y672801D01*
X837723Y671561D01*
X837698Y671537D01*
X837668Y671519D01*
X837609Y671453D01*
X837545Y671391D01*
X837531Y671364D01*
X837520Y671353D01*
X837518Y671348D01*
X837506Y671335D01*
X837472Y671263D01*
X836892Y670984D01*
X836865Y670965D01*
X836793Y670927D01*
X836264Y670566D01*
X836192Y670561D01*
X836103Y670564D01*
X836070Y670553D01*
X836036Y670551D01*
X835878Y670495D01*
X833894Y669540D01*
X833865Y669520D01*
X833833Y669507D01*
X833765Y669450D01*
X833692Y669399D01*
X833672Y669371D01*
X833645Y669349D01*
X833601Y669283D01*
X832986Y669093D01*
X832956Y669078D01*
X832880Y669052D01*
X832303Y668774D01*
X832231Y668780D01*
X832144Y668795D01*
X832109Y668790D01*
X832075Y668793D01*
X831910Y668761D01*
X830812Y668423D01*
X830740Y668387D01*
X830663Y668359D01*
X830630Y668332D01*
X830592Y668313D01*
X830535Y668256D01*
X830471Y668205D01*
X830448Y668169D01*
X830418Y668139D01*
X830382Y668067D01*
X830338Y667998D01*
X830328Y667957D01*
X830309Y667919D01*
X830298Y667839D01*
X830278Y667760D01*
X830282Y667717D01*
X830276Y667675D01*
X830291Y667595D01*
X830297Y667514D01*
X830314Y667475D01*
X830322Y667434D01*
X830362Y667363D01*
X830394Y667288D01*
X830429Y667245D01*
X830443Y667219D01*
X830464Y667200D01*
X830498Y667157D01*
X850661Y646994D01*
X850662Y646994D01*
X852373Y645283D01*
X852373Y584067D01*
X852387Y583977D01*
X852395Y583886D01*
X852407Y583856D01*
X852412Y583824D01*
X852455Y583743D01*
X852491Y583659D01*
X852517Y583627D01*
X852528Y583607D01*
X852551Y583584D01*
X852596Y583529D01*
X852843Y583282D01*
X852843Y577379D01*
X852846Y577359D01*
X852844Y577339D01*
X852866Y577238D01*
X852882Y577136D01*
X852892Y577119D01*
X852896Y577099D01*
X852949Y577010D01*
X852997Y576919D01*
X853012Y576905D01*
X853022Y576888D01*
X853101Y576821D01*
X853176Y576749D01*
X853194Y576741D01*
X853209Y576728D01*
X853305Y576689D01*
X853399Y576646D01*
X853419Y576644D01*
X853437Y576636D01*
X853604Y576618D01*
X859507Y576618D01*
X860400Y575724D01*
X860400Y571417D01*
X860395Y571409D01*
X860370Y571309D01*
X860339Y571210D01*
X860340Y571190D01*
X860335Y571171D01*
X860343Y571068D01*
X860345Y570964D01*
X860352Y570945D01*
X860354Y570926D01*
X860394Y570831D01*
X860400Y570816D01*
X860400Y566416D01*
X860394Y566408D01*
X860369Y566307D01*
X860339Y566209D01*
X860339Y566189D01*
X860334Y566169D01*
X860342Y566066D01*
X860345Y565963D01*
X860352Y565944D01*
X860353Y565924D01*
X860394Y565829D01*
X860400Y565813D01*
X860400Y562259D01*
X860411Y562188D01*
X860413Y562117D01*
X860431Y562068D01*
X860439Y562016D01*
X860473Y561953D01*
X860498Y561886D01*
X860530Y561845D01*
X860555Y561799D01*
X860607Y561749D01*
X860651Y561693D01*
X860695Y561665D01*
X860733Y561629D01*
X860798Y561599D01*
X860858Y561560D01*
X860909Y561548D01*
X860956Y561526D01*
X861027Y561518D01*
X861097Y561500D01*
X861149Y561504D01*
X861200Y561499D01*
X861271Y561514D01*
X861342Y561520D01*
X861390Y561540D01*
X861441Y561551D01*
X861502Y561588D01*
X861568Y561616D01*
X861624Y561661D01*
X861652Y561677D01*
X861667Y561695D01*
X861699Y561721D01*
X862678Y562699D01*
X862731Y562773D01*
X862790Y562843D01*
X862802Y562873D01*
X862821Y562899D01*
X862848Y562986D01*
X862882Y563071D01*
X862887Y563112D01*
X862894Y563134D01*
X862893Y563166D01*
X862901Y563238D01*
X862901Y576390D01*
X862886Y576480D01*
X862879Y576571D01*
X862866Y576601D01*
X862861Y576633D01*
X862818Y576714D01*
X862783Y576797D01*
X862757Y576830D01*
X862746Y576850D01*
X862723Y576872D01*
X862678Y576928D01*
X861950Y577656D01*
X861950Y608207D01*
X862678Y608934D01*
X862731Y609008D01*
X862790Y609078D01*
X862803Y609108D01*
X862821Y609134D01*
X862848Y609221D01*
X862882Y609306D01*
X862887Y609347D01*
X862894Y609369D01*
X862893Y609401D01*
X862901Y609472D01*
X862901Y617055D01*
X862907Y617070D01*
X862911Y617111D01*
X862918Y617133D01*
X862917Y617165D01*
X862925Y617237D01*
X862925Y617844D01*
X863818Y618737D01*
X876082Y618737D01*
X876975Y617844D01*
X876975Y617237D01*
X876989Y617147D01*
X876997Y617056D01*
X877009Y617026D01*
X877014Y616994D01*
X877057Y616914D01*
X877093Y616830D01*
X877119Y616797D01*
X877130Y616777D01*
X877153Y616755D01*
X877198Y616699D01*
X878587Y615310D01*
X878587Y562615D01*
X878223Y562251D01*
X878170Y562177D01*
X878110Y562108D01*
X878098Y562078D01*
X878079Y562052D01*
X878052Y561965D01*
X878018Y561880D01*
X878014Y561839D01*
X878007Y561816D01*
X878008Y561784D01*
X878000Y561713D01*
X878000Y559518D01*
X877107Y558625D01*
X874912Y558625D01*
X874822Y558611D01*
X874731Y558603D01*
X874701Y558591D01*
X874669Y558586D01*
X874589Y558543D01*
X874505Y558507D01*
X874472Y558481D01*
X874452Y558470D01*
X874430Y558447D01*
X874374Y558402D01*
X873943Y557971D01*
X873901Y557913D01*
X873851Y557861D01*
X873829Y557814D01*
X873799Y557771D01*
X873778Y557703D01*
X873748Y557638D01*
X873742Y557586D01*
X873727Y557536D01*
X873729Y557465D01*
X873721Y557393D01*
X873732Y557343D01*
X873733Y557291D01*
X873758Y557223D01*
X873773Y557153D01*
X873800Y557108D01*
X873818Y557060D01*
X873862Y557004D01*
X873899Y556942D01*
X873939Y556908D01*
X873971Y556867D01*
X874031Y556829D01*
X874086Y556782D01*
X874134Y556763D01*
X874178Y556734D01*
X874248Y556717D01*
X874314Y556690D01*
X874385Y556682D01*
X874417Y556674D01*
X874440Y556676D01*
X874481Y556672D01*
X881072Y556672D01*
X881162Y556686D01*
X881253Y556693D01*
X881283Y556706D01*
X881315Y556711D01*
X881395Y556754D01*
X881479Y556790D01*
X881511Y556816D01*
X881532Y556826D01*
X881554Y556850D01*
X881610Y556895D01*
X882054Y557338D01*
X882065Y557355D01*
X882081Y557367D01*
X882137Y557454D01*
X882197Y557538D01*
X882203Y557557D01*
X882214Y557574D01*
X882239Y557674D01*
X882270Y557773D01*
X882269Y557793D01*
X882274Y557812D01*
X882266Y557915D01*
X882263Y558019D01*
X882256Y558038D01*
X882255Y558058D01*
X882215Y558153D01*
X882179Y558250D01*
X882166Y558266D01*
X882159Y558284D01*
X882054Y558415D01*
X880950Y559518D01*
X880950Y608207D01*
X881728Y608984D01*
X881781Y609058D01*
X881840Y609127D01*
X881852Y609158D01*
X881871Y609184D01*
X881898Y609271D01*
X881932Y609356D01*
X881937Y609397D01*
X881944Y609419D01*
X881943Y609451D01*
X881951Y609522D01*
X881951Y617055D01*
X881957Y617070D01*
X881961Y617111D01*
X881968Y617134D01*
X881967Y617166D01*
X881975Y617237D01*
X881975Y617844D01*
X882868Y618737D01*
X895132Y618737D01*
X896025Y617844D01*
X896025Y617237D01*
X896039Y617147D01*
X896047Y617056D01*
X896049Y617050D01*
X896049Y609472D01*
X896064Y609382D01*
X896071Y609291D01*
X896084Y609262D01*
X896089Y609230D01*
X896132Y609149D01*
X896167Y609065D01*
X896193Y609033D01*
X896204Y609012D01*
X896227Y608990D01*
X896272Y608934D01*
X897000Y608207D01*
X897000Y577656D01*
X896272Y576928D01*
X896219Y576854D01*
X896160Y576785D01*
X896148Y576755D01*
X896129Y576729D01*
X896102Y576642D01*
X896068Y576557D01*
X896063Y576516D01*
X896056Y576494D01*
X896057Y576461D01*
X896049Y576390D01*
X896049Y561028D01*
X895223Y560201D01*
X895170Y560127D01*
X895110Y560058D01*
X895098Y560028D01*
X895079Y560002D01*
X895052Y559915D01*
X895018Y559830D01*
X895014Y559789D01*
X895007Y559766D01*
X895008Y559734D01*
X895000Y559663D01*
X895000Y559518D01*
X894107Y558625D01*
X893962Y558625D01*
X893872Y558611D01*
X893781Y558603D01*
X893751Y558591D01*
X893719Y558586D01*
X893639Y558543D01*
X893555Y558507D01*
X893523Y558481D01*
X893502Y558470D01*
X893480Y558447D01*
X893424Y558402D01*
X893122Y558101D01*
X891755Y558101D01*
X891665Y558086D01*
X891574Y558079D01*
X891544Y558066D01*
X891512Y558061D01*
X891431Y558018D01*
X891347Y557983D01*
X891315Y557957D01*
X891295Y557946D01*
X891272Y557923D01*
X891216Y557878D01*
X889015Y555676D01*
X886017Y552678D01*
X886005Y552662D01*
X885990Y552650D01*
X885958Y552601D01*
X885956Y552598D01*
X885953Y552593D01*
X885934Y552563D01*
X885873Y552479D01*
X885868Y552460D01*
X885857Y552443D01*
X885831Y552342D01*
X885801Y552244D01*
X885802Y552224D01*
X885797Y552204D01*
X885805Y552101D01*
X885807Y551998D01*
X885814Y551979D01*
X885816Y551959D01*
X885856Y551864D01*
X885892Y551767D01*
X885904Y551751D01*
X885912Y551733D01*
X886017Y551602D01*
X886412Y551207D01*
X886412Y545943D01*
X885519Y545050D01*
X877126Y545050D01*
X877036Y545035D01*
X876945Y545028D01*
X876916Y545016D01*
X876884Y545010D01*
X876803Y544968D01*
X876719Y544932D01*
X876687Y544906D01*
X876666Y544895D01*
X876644Y544872D01*
X876588Y544827D01*
X868653Y536892D01*
X868641Y536876D01*
X868626Y536863D01*
X868570Y536776D01*
X868509Y536692D01*
X868503Y536673D01*
X868493Y536656D01*
X868467Y536556D01*
X868437Y536457D01*
X868437Y536437D01*
X868433Y536418D01*
X868441Y536315D01*
X868443Y536211D01*
X868450Y536192D01*
X868452Y536173D01*
X868492Y536078D01*
X868528Y535980D01*
X868540Y535965D01*
X868548Y535946D01*
X868653Y535815D01*
X870042Y534426D01*
X876145Y528323D01*
X876219Y528270D01*
X876289Y528210D01*
X876319Y528198D01*
X876345Y528179D01*
X876432Y528152D01*
X876517Y528118D01*
X876558Y528114D01*
X876580Y528107D01*
X876612Y528108D01*
X876684Y528100D01*
X885519Y528100D01*
X886412Y527207D01*
X886412Y521943D01*
X885519Y521050D01*
X870256Y521050D01*
X869363Y521943D01*
X869363Y523993D01*
X869351Y524064D01*
X869349Y524136D01*
X869331Y524185D01*
X869323Y524236D01*
X869290Y524299D01*
X869265Y524367D01*
X869232Y524407D01*
X869208Y524453D01*
X869156Y524503D01*
X869111Y524559D01*
X869067Y524587D01*
X869030Y524623D01*
X868965Y524653D01*
X868904Y524692D01*
X868854Y524704D01*
X868807Y524726D01*
X868735Y524734D01*
X868666Y524752D01*
X868614Y524748D01*
X868562Y524753D01*
X868492Y524738D01*
X868421Y524733D01*
X868373Y524712D01*
X868322Y524701D01*
X868260Y524664D01*
X868194Y524636D01*
X868138Y524591D01*
X868111Y524575D01*
X868095Y524557D01*
X868063Y524531D01*
X865967Y522435D01*
X865954Y522428D01*
X865887Y522403D01*
X865846Y522371D01*
X865800Y522346D01*
X865751Y522294D01*
X865695Y522250D01*
X865666Y522206D01*
X865630Y522168D01*
X865600Y522103D01*
X865562Y522043D01*
X865549Y521992D01*
X865527Y521945D01*
X865519Y521874D01*
X865501Y521804D01*
X865506Y521752D01*
X865500Y521701D01*
X865515Y521630D01*
X865521Y521559D01*
X865541Y521511D01*
X865552Y521460D01*
X865589Y521399D01*
X865617Y521333D01*
X865662Y521277D01*
X865678Y521249D01*
X865695Y521235D01*
X865698Y521229D01*
X865703Y521225D01*
X865722Y521202D01*
X870475Y516449D01*
X870549Y516396D01*
X870618Y516336D01*
X870648Y516324D01*
X870674Y516305D01*
X870762Y516278D01*
X870846Y516244D01*
X870887Y516240D01*
X870910Y516233D01*
X870942Y516234D01*
X871013Y516226D01*
X886967Y516226D01*
X887057Y516241D01*
G37*
G36*
X909001Y395616D02*
X909001Y395616D01*
X909079Y395625D01*
X909098Y395636D01*
X909120Y395640D01*
X909184Y395684D01*
X909252Y395723D01*
X909268Y395742D01*
X909284Y395753D01*
X909308Y395791D01*
X909358Y395851D01*
X909509Y396114D01*
X909958Y396114D01*
X910026Y396125D01*
X910094Y396126D01*
X910147Y396145D01*
X910201Y396154D01*
X910262Y396185D01*
X910326Y396208D01*
X910370Y396243D01*
X910419Y396269D01*
X910466Y396318D01*
X910519Y396360D01*
X910565Y396423D01*
X910588Y396447D01*
X910597Y396466D01*
X910619Y396496D01*
X938303Y444687D01*
X938343Y444794D01*
X938385Y444899D01*
X938386Y444908D01*
X938389Y444917D01*
X938393Y445031D01*
X938400Y445144D01*
X938397Y445154D01*
X938398Y445163D01*
X938365Y445272D01*
X938335Y445382D01*
X938330Y445390D01*
X938327Y445399D01*
X938262Y445492D01*
X938199Y445586D01*
X938190Y445594D01*
X938186Y445600D01*
X938166Y445614D01*
X938071Y445695D01*
X937671Y445968D01*
X937652Y445977D01*
X937623Y445998D01*
X936940Y446392D01*
X936936Y446401D01*
X936893Y446447D01*
X936858Y446500D01*
X936791Y446557D01*
X936769Y446581D01*
X936753Y446590D01*
X936731Y446609D01*
X935006Y447784D01*
X934974Y447799D01*
X934947Y447820D01*
X934864Y447850D01*
X934783Y447888D01*
X934748Y447892D01*
X934716Y447903D01*
X934637Y447909D01*
X934165Y448347D01*
X934137Y448365D01*
X934076Y448418D01*
X933546Y448778D01*
X933516Y448843D01*
X933485Y448927D01*
X933464Y448954D01*
X933449Y448985D01*
X933339Y449112D01*
X931723Y450611D01*
X931694Y450630D01*
X931670Y450655D01*
X931592Y450698D01*
X931518Y450747D01*
X931485Y450756D01*
X931454Y450772D01*
X931377Y450790D01*
X930975Y451293D01*
X930951Y451315D01*
X930898Y451376D01*
X930428Y451812D01*
X930408Y451880D01*
X930390Y451967D01*
X930373Y451997D01*
X930363Y452031D01*
X930273Y452172D01*
X928898Y453895D01*
X928873Y453919D01*
X928853Y453947D01*
X928782Y454001D01*
X928716Y454060D01*
X928684Y454074D01*
X928656Y454095D01*
X928582Y454124D01*
X928260Y454681D01*
X928239Y454707D01*
X928196Y454775D01*
X927797Y455276D01*
X927787Y455346D01*
X927782Y455435D01*
X927770Y455468D01*
X927765Y455502D01*
X927697Y455656D01*
X926595Y457564D01*
X926573Y457591D01*
X926557Y457622D01*
X926495Y457685D01*
X926439Y457754D01*
X926409Y457773D01*
X926385Y457798D01*
X926316Y457837D01*
X926081Y458436D01*
X926064Y458465D01*
X926032Y458539D01*
X925711Y459093D01*
X925712Y459165D01*
X925721Y459253D01*
X925713Y459287D01*
X925713Y459322D01*
X925669Y459484D01*
X925260Y460526D01*
X925259Y460527D01*
X925259Y460528D01*
X925194Y460636D01*
X925134Y460738D01*
X925133Y460738D01*
X925133Y460739D01*
X925041Y460817D01*
X924947Y460898D01*
X924946Y460899D01*
X924834Y460944D01*
X924720Y460990D01*
X924719Y460991D01*
X924718Y460991D01*
X924551Y461009D01*
X891123Y461009D01*
X847886Y504246D01*
X847812Y504299D01*
X847742Y504359D01*
X847712Y504371D01*
X847686Y504390D01*
X847599Y504417D01*
X847514Y504451D01*
X847473Y504455D01*
X847451Y504462D01*
X847419Y504461D01*
X847347Y504469D01*
X846242Y504469D01*
X842854Y507857D01*
X842838Y507868D01*
X842826Y507884D01*
X842738Y507940D01*
X842655Y508000D01*
X842635Y508006D01*
X842619Y508017D01*
X842518Y508042D01*
X842419Y508072D01*
X842399Y508072D01*
X842380Y508077D01*
X842277Y508069D01*
X842174Y508066D01*
X842155Y508059D01*
X842135Y508058D01*
X842059Y508025D01*
X840085Y508025D01*
X840065Y508022D01*
X840046Y508024D01*
X839944Y508002D01*
X839842Y507986D01*
X839825Y507976D01*
X839805Y507972D01*
X839716Y507919D01*
X839625Y507870D01*
X839611Y507856D01*
X839594Y507846D01*
X839527Y507767D01*
X839455Y507692D01*
X839447Y507674D01*
X839434Y507659D01*
X839395Y507563D01*
X839352Y507469D01*
X839350Y507449D01*
X839342Y507431D01*
X839324Y507264D01*
X839324Y504632D01*
X836806Y502114D01*
X833244Y502114D01*
X830726Y504632D01*
X830726Y507264D01*
X830724Y507281D01*
X830725Y507296D01*
X830725Y507298D01*
X830725Y507303D01*
X830703Y507405D01*
X830687Y507507D01*
X830677Y507524D01*
X830673Y507544D01*
X830620Y507633D01*
X830571Y507724D01*
X830557Y507738D01*
X830547Y507755D01*
X830468Y507822D01*
X830393Y507894D01*
X830375Y507902D01*
X830360Y507915D01*
X830264Y507954D01*
X830170Y507997D01*
X830150Y507999D01*
X830132Y508007D01*
X829965Y508025D01*
X827637Y508025D01*
X827629Y508030D01*
X827529Y508055D01*
X827430Y508086D01*
X827410Y508085D01*
X827391Y508090D01*
X827288Y508082D01*
X827184Y508080D01*
X827165Y508073D01*
X827146Y508071D01*
X827050Y508031D01*
X827036Y508025D01*
X822636Y508025D01*
X822628Y508031D01*
X822527Y508056D01*
X822429Y508086D01*
X822409Y508086D01*
X822389Y508091D01*
X822286Y508083D01*
X822183Y508080D01*
X822164Y508073D01*
X822144Y508072D01*
X822049Y508031D01*
X822033Y508025D01*
X819447Y508025D01*
X819428Y508022D01*
X819408Y508024D01*
X819307Y508002D01*
X819205Y507986D01*
X819187Y507976D01*
X819168Y507972D01*
X819079Y507919D01*
X818987Y507870D01*
X818974Y507856D01*
X818957Y507846D01*
X818889Y507767D01*
X818818Y507692D01*
X818810Y507674D01*
X818797Y507659D01*
X818758Y507563D01*
X818714Y507469D01*
X818712Y507449D01*
X818705Y507431D01*
X818686Y507264D01*
X818686Y504632D01*
X816168Y502114D01*
X812607Y502114D01*
X810089Y504632D01*
X810089Y507264D01*
X810086Y507281D01*
X810088Y507296D01*
X810087Y507298D01*
X810088Y507303D01*
X810066Y507405D01*
X810049Y507507D01*
X810040Y507524D01*
X810035Y507544D01*
X809982Y507633D01*
X809934Y507724D01*
X809920Y507738D01*
X809909Y507755D01*
X809831Y507822D01*
X809756Y507894D01*
X809738Y507902D01*
X809722Y507915D01*
X809626Y507954D01*
X809533Y507997D01*
X809513Y507999D01*
X809494Y508007D01*
X809328Y508025D01*
X808123Y508025D01*
X808103Y508022D01*
X808084Y508024D01*
X807982Y508002D01*
X807880Y507986D01*
X807863Y507976D01*
X807843Y507972D01*
X807754Y507919D01*
X807663Y507870D01*
X807649Y507856D01*
X807632Y507846D01*
X807565Y507767D01*
X807493Y507692D01*
X807485Y507674D01*
X807472Y507659D01*
X807433Y507563D01*
X807390Y507469D01*
X807388Y507449D01*
X807380Y507431D01*
X807362Y507264D01*
X807362Y432097D01*
X807365Y432078D01*
X807363Y432058D01*
X807385Y431957D01*
X807401Y431855D01*
X807411Y431837D01*
X807415Y431818D01*
X807468Y431729D01*
X807517Y431637D01*
X807531Y431624D01*
X807541Y431607D01*
X807620Y431539D01*
X807695Y431468D01*
X807713Y431460D01*
X807728Y431447D01*
X807824Y431408D01*
X807918Y431364D01*
X807938Y431362D01*
X807956Y431355D01*
X808123Y431336D01*
X809818Y431336D01*
X812336Y428818D01*
X812336Y425257D01*
X811834Y424755D01*
X811795Y424700D01*
X811748Y424652D01*
X811723Y424601D01*
X811690Y424555D01*
X811671Y424491D01*
X811642Y424430D01*
X811635Y424374D01*
X811618Y424320D01*
X811620Y424253D01*
X811611Y424186D01*
X811623Y424130D01*
X811624Y424074D01*
X811647Y424011D01*
X811661Y423945D01*
X811689Y423896D01*
X811709Y423843D01*
X811751Y423790D01*
X811784Y423732D01*
X811827Y423695D01*
X811862Y423651D01*
X811919Y423614D01*
X811969Y423570D01*
X812042Y423536D01*
X812069Y423518D01*
X812089Y423513D01*
X812121Y423498D01*
X812264Y423447D01*
X812298Y423441D01*
X812330Y423428D01*
X812419Y423420D01*
X812506Y423405D01*
X812541Y423410D01*
X812575Y423407D01*
X812740Y423439D01*
X814844Y424088D01*
X814875Y424103D01*
X814909Y424111D01*
X814985Y424157D01*
X815064Y424197D01*
X815089Y424222D01*
X815118Y424240D01*
X815172Y424298D01*
X815809Y424394D01*
X815840Y424404D01*
X815920Y424419D01*
X816532Y424608D01*
X816601Y424592D01*
X816686Y424563D01*
X816720Y424563D01*
X816754Y424555D01*
X816922Y424562D01*
X819099Y424890D01*
X819132Y424901D01*
X819167Y424903D01*
X819248Y424938D01*
X819333Y424965D01*
X819361Y424986D01*
X819393Y425000D01*
X819455Y425049D01*
X820099Y425049D01*
X820131Y425055D01*
X820212Y425058D01*
X820845Y425153D01*
X820912Y425126D01*
X820991Y425086D01*
X821025Y425081D01*
X821057Y425068D01*
X821224Y425049D01*
X823426Y425049D01*
X823460Y425055D01*
X823495Y425052D01*
X823581Y425075D01*
X823669Y425089D01*
X823699Y425105D01*
X823733Y425114D01*
X823802Y425154D01*
X824438Y425058D01*
X824471Y425058D01*
X824552Y425049D01*
X825192Y425049D01*
X825254Y425013D01*
X825326Y424961D01*
X825359Y424951D01*
X825389Y424933D01*
X825551Y424890D01*
X827728Y424562D01*
X827763Y424562D01*
X827797Y424555D01*
X827885Y424564D01*
X827974Y424565D01*
X828007Y424576D01*
X828041Y424580D01*
X828115Y424609D01*
X828730Y424419D01*
X828763Y424415D01*
X828841Y424394D01*
X829475Y424299D01*
X829530Y424253D01*
X829594Y424191D01*
X829625Y424176D01*
X829652Y424154D01*
X829806Y424088D01*
X831910Y423439D01*
X831944Y423434D01*
X831977Y423421D01*
X832066Y423417D01*
X832154Y423405D01*
X832188Y423411D01*
X832222Y423410D01*
X832300Y423428D01*
X832880Y423148D01*
X832911Y423139D01*
X832986Y423107D01*
X833597Y422918D01*
X833646Y422865D01*
X833699Y422794D01*
X833728Y422775D01*
X833751Y422749D01*
X833894Y422660D01*
X835878Y421705D01*
X835911Y421695D01*
X835941Y421678D01*
X836028Y421660D01*
X836114Y421635D01*
X836148Y421636D01*
X836182Y421630D01*
X836261Y421636D01*
X836793Y421273D01*
X836823Y421259D01*
X836892Y421216D01*
X837469Y420938D01*
X837508Y420879D01*
X837551Y420801D01*
X837576Y420777D01*
X837596Y420748D01*
X837723Y420639D01*
X839542Y419399D01*
X839574Y419384D01*
X839601Y419363D01*
X839685Y419332D01*
X839765Y419295D01*
X839800Y419291D01*
X839832Y419279D01*
X839912Y419273D01*
X840383Y418836D01*
X840411Y418817D01*
X840472Y418765D01*
X841001Y418404D01*
X841032Y418339D01*
X841062Y418256D01*
X841084Y418228D01*
X841099Y418197D01*
X841208Y418070D01*
X842823Y416572D01*
X842851Y416553D01*
X842875Y416528D01*
X842953Y416486D01*
X843028Y416436D01*
X843061Y416428D01*
X843091Y416411D01*
X843169Y416394D01*
X843570Y415890D01*
X843595Y415868D01*
X843648Y415807D01*
X844117Y415371D01*
X844138Y415303D01*
X844155Y415215D01*
X844173Y415185D01*
X844183Y415152D01*
X844272Y415010D01*
X845645Y413289D01*
X845671Y413266D01*
X845690Y413237D01*
X845761Y413183D01*
X845827Y413124D01*
X845859Y413110D01*
X845887Y413089D01*
X845961Y413060D01*
X846283Y412503D01*
X846303Y412477D01*
X846347Y412409D01*
X846746Y411908D01*
X846756Y411837D01*
X846760Y411748D01*
X846773Y411716D01*
X846778Y411682D01*
X846845Y411528D01*
X847946Y409621D01*
X847968Y409594D01*
X847983Y409563D01*
X848046Y409499D01*
X848102Y409431D01*
X848131Y409412D01*
X848156Y409388D01*
X848225Y409348D01*
X848460Y408749D01*
X848476Y408721D01*
X848509Y408646D01*
X848829Y408092D01*
X848829Y408020D01*
X848820Y407932D01*
X848827Y407898D01*
X848827Y407863D01*
X848871Y407701D01*
X849675Y405651D01*
X849693Y405622D01*
X849703Y405589D01*
X849755Y405517D01*
X849801Y405440D01*
X849827Y405417D01*
X849848Y405389D01*
X849910Y405340D01*
X850053Y404712D01*
X850065Y404682D01*
X850087Y404604D01*
X850320Y404008D01*
X850309Y403937D01*
X850287Y403851D01*
X850290Y403816D01*
X850284Y403782D01*
X850303Y403615D01*
X850793Y401468D01*
X850806Y401436D01*
X850812Y401402D01*
X850853Y401323D01*
X850886Y401241D01*
X850909Y401214D01*
X850925Y401184D01*
X850979Y401126D01*
X851027Y400484D01*
X851035Y400452D01*
X851044Y400371D01*
X851186Y399747D01*
X851165Y399678D01*
X851130Y399596D01*
X851128Y399562D01*
X851117Y399529D01*
X851111Y399361D01*
X851267Y397282D01*
X851282Y397221D01*
X851287Y397158D01*
X851310Y397102D01*
X851325Y397043D01*
X851350Y397003D01*
X851350Y396875D01*
X851353Y396855D01*
X851351Y396836D01*
X851373Y396734D01*
X851389Y396632D01*
X851399Y396615D01*
X851403Y396595D01*
X851456Y396506D01*
X851505Y396415D01*
X851519Y396401D01*
X851529Y396384D01*
X851608Y396317D01*
X851683Y396246D01*
X851701Y396237D01*
X851716Y396224D01*
X851812Y396185D01*
X851906Y396142D01*
X851926Y396140D01*
X851944Y396132D01*
X852111Y396114D01*
X889430Y396114D01*
X889431Y396111D01*
X889426Y396083D01*
X889443Y396014D01*
X889451Y395942D01*
X889466Y395918D01*
X889472Y395890D01*
X889515Y395832D01*
X889551Y395770D01*
X889573Y395753D01*
X889590Y395730D01*
X889652Y395693D01*
X889709Y395650D01*
X889737Y395643D01*
X889761Y395628D01*
X889861Y395612D01*
X889902Y395601D01*
X889912Y395603D01*
X889925Y395601D01*
X908925Y395601D01*
X909001Y395616D01*
G37*
G36*
X754753Y395606D02*
X754753Y395606D01*
X754781Y395604D01*
X754849Y395626D01*
X754920Y395640D01*
X754943Y395656D01*
X754970Y395665D01*
X755025Y395712D01*
X755084Y395753D01*
X755099Y395777D01*
X755121Y395795D01*
X755152Y395860D01*
X755191Y395920D01*
X755196Y395948D01*
X755208Y395974D01*
X755217Y396075D01*
X755224Y396114D01*
X792539Y396114D01*
X792559Y396117D01*
X792578Y396115D01*
X792680Y396137D01*
X792782Y396154D01*
X792799Y396163D01*
X792819Y396167D01*
X792908Y396220D01*
X792999Y396269D01*
X793013Y396283D01*
X793030Y396293D01*
X793097Y396372D01*
X793169Y396447D01*
X793177Y396465D01*
X793190Y396480D01*
X793229Y396576D01*
X793272Y396670D01*
X793274Y396690D01*
X793282Y396708D01*
X793300Y396875D01*
X793300Y396993D01*
X793306Y397000D01*
X793324Y397061D01*
X793352Y397117D01*
X793369Y397204D01*
X793378Y397235D01*
X793378Y397253D01*
X793383Y397282D01*
X793539Y399361D01*
X793536Y399396D01*
X793541Y399430D01*
X793525Y399518D01*
X793518Y399606D01*
X793504Y399638D01*
X793497Y399672D01*
X793463Y399744D01*
X793606Y400371D01*
X793608Y400404D01*
X793623Y400484D01*
X793671Y401122D01*
X793712Y401181D01*
X793769Y401249D01*
X793782Y401282D01*
X793801Y401310D01*
X793857Y401468D01*
X794347Y403615D01*
X794349Y403650D01*
X794359Y403683D01*
X794356Y403772D01*
X794362Y403861D01*
X794353Y403894D01*
X794352Y403929D01*
X794328Y404005D01*
X794563Y404604D01*
X794570Y404636D01*
X794597Y404712D01*
X794739Y405337D01*
X794789Y405389D01*
X794855Y405448D01*
X794873Y405478D01*
X794897Y405503D01*
X794975Y405651D01*
X795779Y407701D01*
X795786Y407735D01*
X795801Y407766D01*
X795812Y407855D01*
X795831Y407942D01*
X795827Y407976D01*
X795831Y408010D01*
X795819Y408089D01*
X796141Y408646D01*
X796153Y408677D01*
X796190Y408749D01*
X796424Y409345D01*
X796481Y409389D01*
X796555Y409437D01*
X796577Y409465D01*
X796604Y409486D01*
X796704Y409621D01*
X797805Y411528D01*
X797817Y411560D01*
X797836Y411589D01*
X797860Y411675D01*
X797892Y411758D01*
X797893Y411793D01*
X797902Y411826D01*
X797902Y411906D01*
X798303Y412409D01*
X798313Y412426D01*
X798320Y412433D01*
X798326Y412447D01*
X798368Y412503D01*
X798688Y413057D01*
X798750Y413093D01*
X798831Y413129D01*
X798857Y413153D01*
X798887Y413170D01*
X799005Y413289D01*
X800378Y415010D01*
X800395Y415041D01*
X800419Y415066D01*
X800455Y415147D01*
X800498Y415225D01*
X800505Y415259D01*
X800519Y415291D01*
X800531Y415369D01*
X801002Y415807D01*
X801023Y415833D01*
X801080Y415890D01*
X801479Y416391D01*
X801546Y416417D01*
X801632Y416441D01*
X801660Y416460D01*
X801693Y416473D01*
X801827Y416572D01*
X802976Y417639D01*
X802997Y417666D01*
X803024Y417687D01*
X803054Y417734D01*
X803081Y417762D01*
X803094Y417790D01*
X803127Y417833D01*
X803139Y417865D01*
X803157Y417894D01*
X803175Y417963D01*
X803185Y417985D01*
X803187Y418003D01*
X803208Y418065D01*
X803209Y418099D01*
X803217Y418132D01*
X803211Y418218D01*
X803212Y418229D01*
X803210Y418236D01*
X803211Y418311D01*
X803201Y418344D01*
X803198Y418378D01*
X803163Y418460D01*
X803136Y418545D01*
X803115Y418573D01*
X803102Y418604D01*
X802997Y418735D01*
X798990Y422742D01*
X797278Y424454D01*
X797278Y507264D01*
X797276Y507281D01*
X797277Y507296D01*
X797277Y507298D01*
X797277Y507303D01*
X797255Y507405D01*
X797239Y507507D01*
X797229Y507524D01*
X797225Y507544D01*
X797172Y507633D01*
X797123Y507724D01*
X797109Y507738D01*
X797099Y507755D01*
X797020Y507822D01*
X796945Y507894D01*
X796927Y507902D01*
X796912Y507915D01*
X796816Y507954D01*
X796722Y507997D01*
X796702Y507999D01*
X796684Y508007D01*
X796517Y508025D01*
X792701Y508025D01*
X791807Y508918D01*
X791807Y514821D01*
X791804Y514841D01*
X791806Y514861D01*
X791784Y514962D01*
X791768Y515064D01*
X791758Y515081D01*
X791754Y515101D01*
X791701Y515190D01*
X791653Y515281D01*
X791638Y515295D01*
X791628Y515312D01*
X791549Y515379D01*
X791474Y515451D01*
X791456Y515459D01*
X791441Y515472D01*
X791345Y515511D01*
X791251Y515554D01*
X791231Y515556D01*
X791213Y515564D01*
X791046Y515582D01*
X789423Y515582D01*
X789333Y515568D01*
X789242Y515561D01*
X789212Y515548D01*
X789180Y515543D01*
X789099Y515500D01*
X789016Y515464D01*
X788983Y515439D01*
X788963Y515428D01*
X788941Y515404D01*
X788885Y515359D01*
X787787Y514262D01*
X786491Y514262D01*
X786401Y514248D01*
X786310Y514240D01*
X786281Y514228D01*
X786249Y514223D01*
X786168Y514180D01*
X786084Y514144D01*
X786052Y514118D01*
X786031Y514107D01*
X786009Y514084D01*
X785953Y514039D01*
X784418Y512504D01*
X780857Y512504D01*
X778339Y515022D01*
X778339Y518584D01*
X779556Y519801D01*
X779567Y519817D01*
X779583Y519829D01*
X779639Y519917D01*
X779699Y520000D01*
X779705Y520019D01*
X779716Y520036D01*
X779741Y520137D01*
X779772Y520236D01*
X779771Y520255D01*
X779776Y520275D01*
X779768Y520378D01*
X779765Y520481D01*
X779759Y520500D01*
X779757Y520520D01*
X779717Y520615D01*
X779681Y520712D01*
X779668Y520728D01*
X779661Y520746D01*
X779556Y520877D01*
X778148Y522286D01*
X778131Y522297D01*
X778119Y522313D01*
X778040Y522364D01*
X778031Y522371D01*
X778026Y522373D01*
X777948Y522429D01*
X777929Y522435D01*
X777912Y522446D01*
X777811Y522471D01*
X777713Y522502D01*
X777693Y522501D01*
X777673Y522506D01*
X777570Y522498D01*
X777467Y522495D01*
X777448Y522488D01*
X777428Y522487D01*
X777333Y522446D01*
X777236Y522411D01*
X777220Y522398D01*
X777202Y522390D01*
X777122Y522327D01*
X777122Y522326D01*
X777121Y522326D01*
X777071Y522286D01*
X768182Y513397D01*
X720505Y513397D01*
X720415Y513382D01*
X720324Y513375D01*
X720294Y513362D01*
X720262Y513357D01*
X720182Y513314D01*
X720098Y513279D01*
X720066Y513253D01*
X720045Y513242D01*
X720023Y513219D01*
X719967Y513174D01*
X709489Y502696D01*
X709436Y502622D01*
X709377Y502553D01*
X709364Y502522D01*
X709346Y502496D01*
X709319Y502409D01*
X709285Y502324D01*
X709280Y502284D01*
X709273Y502261D01*
X709274Y502229D01*
X709266Y502158D01*
X709266Y498662D01*
X707645Y497041D01*
X707630Y497021D01*
X707611Y497004D01*
X707559Y496921D01*
X707538Y496892D01*
X707534Y496887D01*
X707533Y496885D01*
X707501Y496841D01*
X707494Y496817D01*
X707481Y496796D01*
X707458Y496700D01*
X707447Y496664D01*
X707444Y496658D01*
X707444Y496656D01*
X707429Y496606D01*
X707430Y496581D01*
X707424Y496556D01*
X707433Y496459D01*
X707434Y496427D01*
X707433Y496412D01*
X707434Y496407D01*
X707435Y496360D01*
X707444Y496337D01*
X707446Y496311D01*
X707467Y496266D01*
X707471Y496249D01*
X707549Y496025D01*
X707565Y495994D01*
X707574Y495961D01*
X707624Y495887D01*
X707666Y495809D01*
X707692Y495785D01*
X707711Y495756D01*
X707838Y495647D01*
X709659Y494405D01*
X709691Y494390D01*
X709718Y494369D01*
X709801Y494339D01*
X709882Y494301D01*
X709917Y494297D01*
X709949Y494285D01*
X710028Y494280D01*
X710500Y493842D01*
X710527Y493823D01*
X710589Y493771D01*
X711118Y493410D01*
X711148Y493345D01*
X711179Y493261D01*
X711200Y493234D01*
X711215Y493203D01*
X711325Y493076D01*
X712940Y491576D01*
X712969Y491557D01*
X712993Y491532D01*
X713071Y491489D01*
X713145Y491440D01*
X713178Y491431D01*
X713209Y491415D01*
X713286Y491397D01*
X713688Y490894D01*
X713712Y490871D01*
X713765Y490810D01*
X714234Y490375D01*
X714255Y490306D01*
X714272Y490219D01*
X714290Y490189D01*
X714300Y490155D01*
X714389Y490013D01*
X715763Y488290D01*
X715788Y488267D01*
X715808Y488238D01*
X715879Y488184D01*
X715945Y488125D01*
X715977Y488111D01*
X716005Y488090D01*
X716079Y488061D01*
X716400Y487504D01*
X716421Y487478D01*
X716464Y487410D01*
X716863Y486909D01*
X716873Y486838D01*
X716878Y486749D01*
X716890Y486717D01*
X716895Y486682D01*
X716963Y486529D01*
X718064Y484619D01*
X718086Y484593D01*
X718101Y484561D01*
X718164Y484498D01*
X718220Y484429D01*
X718249Y484411D01*
X718273Y484386D01*
X718342Y484346D01*
X718577Y483747D01*
X718594Y483719D01*
X718627Y483645D01*
X718947Y483090D01*
X718946Y483018D01*
X718937Y482930D01*
X718945Y482896D01*
X718944Y482861D01*
X718988Y482699D01*
X719793Y480647D01*
X719810Y480617D01*
X719821Y480584D01*
X719873Y480512D01*
X719918Y480436D01*
X719945Y480413D01*
X719965Y480385D01*
X720027Y480336D01*
X720170Y479708D01*
X720182Y479677D01*
X720204Y479599D01*
X720437Y479003D01*
X720426Y478932D01*
X720404Y478846D01*
X720407Y478812D01*
X720401Y478777D01*
X720420Y478611D01*
X720910Y476462D01*
X720923Y476430D01*
X720928Y476395D01*
X720969Y476316D01*
X721003Y476234D01*
X721025Y476207D01*
X721041Y476177D01*
X721095Y476119D01*
X721143Y475477D01*
X721151Y475445D01*
X721160Y475364D01*
X721302Y474740D01*
X721281Y474672D01*
X721246Y474590D01*
X721243Y474555D01*
X721233Y474522D01*
X721227Y474354D01*
X721391Y472156D01*
X721399Y472123D01*
X721399Y472088D01*
X721428Y472003D01*
X721449Y471917D01*
X721467Y471888D01*
X721478Y471855D01*
X721523Y471789D01*
X721475Y471148D01*
X721478Y471115D01*
X721475Y471034D01*
X721522Y470395D01*
X721491Y470331D01*
X721444Y470255D01*
X721436Y470221D01*
X721421Y470190D01*
X721416Y470161D01*
X721415Y470160D01*
X721415Y470156D01*
X721390Y470025D01*
X721225Y467827D01*
X721228Y467793D01*
X721223Y467758D01*
X721238Y467671D01*
X721246Y467582D01*
X721260Y467550D01*
X721266Y467516D01*
X721301Y467445D01*
X721157Y466817D01*
X721155Y466784D01*
X721140Y466705D01*
X721092Y466066D01*
X721051Y466008D01*
X720994Y465939D01*
X720981Y465907D01*
X720962Y465879D01*
X720906Y465720D01*
X720415Y463571D01*
X720413Y463537D01*
X720403Y463504D01*
X720406Y463415D01*
X720400Y463326D01*
X720409Y463292D01*
X720410Y463258D01*
X720433Y463182D01*
X720198Y462583D01*
X720192Y462556D01*
X720188Y462548D01*
X720188Y462541D01*
X720165Y462474D01*
X720022Y461850D01*
X719973Y461798D01*
X719906Y461739D01*
X719889Y461709D01*
X719865Y461684D01*
X719787Y461535D01*
X718981Y459484D01*
X718973Y459450D01*
X718958Y459419D01*
X718948Y459330D01*
X718929Y459243D01*
X718933Y459209D01*
X718929Y459174D01*
X718940Y459096D01*
X718618Y458539D01*
X718607Y458508D01*
X718569Y458436D01*
X718335Y457840D01*
X718278Y457796D01*
X718204Y457748D01*
X718182Y457721D01*
X718155Y457699D01*
X718055Y457564D01*
X716953Y455656D01*
X716940Y455623D01*
X716921Y455594D01*
X716897Y455509D01*
X716866Y455426D01*
X716864Y455391D01*
X716855Y455357D01*
X716855Y455278D01*
X716454Y454775D01*
X716438Y454746D01*
X716390Y454681D01*
X716069Y454127D01*
X716007Y454091D01*
X715926Y454055D01*
X715900Y454031D01*
X715870Y454014D01*
X715752Y453895D01*
X714377Y452172D01*
X714360Y452142D01*
X714336Y452117D01*
X714300Y452036D01*
X714257Y451958D01*
X714250Y451924D01*
X714236Y451892D01*
X714224Y451814D01*
X713752Y451376D01*
X713732Y451350D01*
X713675Y451293D01*
X713275Y450792D01*
X713209Y450767D01*
X713123Y450743D01*
X713094Y450723D01*
X713062Y450711D01*
X712927Y450611D01*
X711311Y449112D01*
X711289Y449085D01*
X711262Y449063D01*
X711214Y448988D01*
X711160Y448918D01*
X711148Y448885D01*
X711130Y448856D01*
X711106Y448780D01*
X710574Y448418D01*
X710550Y448395D01*
X710485Y448347D01*
X710016Y447911D01*
X709946Y447896D01*
X709858Y447885D01*
X709826Y447870D01*
X709792Y447863D01*
X709644Y447784D01*
X707919Y446609D01*
X707874Y446565D01*
X707822Y446530D01*
X707785Y446481D01*
X707741Y446439D01*
X707719Y446398D01*
X707652Y446359D01*
X707635Y446345D01*
X707615Y446336D01*
X707540Y446267D01*
X707462Y446203D01*
X707450Y446184D01*
X707433Y446169D01*
X707385Y446080D01*
X707331Y445995D01*
X707326Y445973D01*
X707315Y445954D01*
X707297Y445854D01*
X707273Y445756D01*
X707275Y445734D01*
X707271Y445712D01*
X707286Y445611D01*
X707295Y445511D01*
X707304Y445490D01*
X707307Y445468D01*
X707375Y445315D01*
X726201Y413141D01*
X726012Y413051D01*
X725989Y413034D01*
X725962Y413024D01*
X725910Y412975D01*
X725852Y412932D01*
X725838Y412907D01*
X725817Y412888D01*
X725788Y412822D01*
X725752Y412760D01*
X725749Y412732D01*
X725737Y412706D01*
X725736Y412634D01*
X725727Y412563D01*
X725735Y412536D01*
X725735Y412507D01*
X725770Y412412D01*
X725781Y412372D01*
X725788Y412363D01*
X725792Y412351D01*
X735292Y395851D01*
X735344Y395793D01*
X735390Y395730D01*
X735409Y395719D01*
X735424Y395702D01*
X735494Y395668D01*
X735561Y395628D01*
X735586Y395624D01*
X735603Y395616D01*
X735648Y395614D01*
X735725Y395601D01*
X754725Y395601D01*
X754753Y395606D01*
G37*
G36*
X822364Y584117D02*
X822364Y584117D01*
X822467Y584120D01*
X822486Y584127D01*
X822506Y584128D01*
X822601Y584169D01*
X822617Y584175D01*
X827016Y584175D01*
X827024Y584170D01*
X827124Y584145D01*
X827223Y584114D01*
X827243Y584115D01*
X827262Y584110D01*
X827365Y584118D01*
X827469Y584120D01*
X827488Y584127D01*
X827507Y584129D01*
X827602Y584169D01*
X827617Y584175D01*
X832017Y584175D01*
X832025Y584170D01*
X832125Y584145D01*
X832224Y584114D01*
X832244Y584115D01*
X832263Y584110D01*
X832366Y584118D01*
X832470Y584120D01*
X832489Y584127D01*
X832508Y584129D01*
X832603Y584169D01*
X832618Y584175D01*
X835048Y584175D01*
X835118Y584186D01*
X835190Y584188D01*
X835239Y584206D01*
X835290Y584214D01*
X835354Y584248D01*
X835421Y584273D01*
X835462Y584305D01*
X835508Y584330D01*
X835557Y584382D01*
X835613Y584426D01*
X835641Y584470D01*
X835677Y584508D01*
X835707Y584573D01*
X835746Y584633D01*
X835759Y584684D01*
X835781Y584731D01*
X835789Y584802D01*
X835806Y584872D01*
X835802Y584924D01*
X835808Y584975D01*
X835793Y585046D01*
X835787Y585117D01*
X835767Y585165D01*
X835756Y585216D01*
X835719Y585277D01*
X835691Y585343D01*
X835646Y585399D01*
X835629Y585427D01*
X835612Y585442D01*
X835586Y585474D01*
X833058Y588002D01*
X832984Y588055D01*
X832914Y588115D01*
X832884Y588127D01*
X832858Y588146D01*
X832771Y588173D01*
X832686Y588207D01*
X832645Y588211D01*
X832623Y588218D01*
X832591Y588217D01*
X832520Y588225D01*
X824131Y588225D01*
X823238Y589118D01*
X823238Y600382D01*
X824131Y601275D01*
X836394Y601275D01*
X837287Y600382D01*
X837287Y591993D01*
X837302Y591903D01*
X837309Y591812D01*
X837322Y591782D01*
X837327Y591750D01*
X837370Y591670D01*
X837405Y591586D01*
X837431Y591553D01*
X837442Y591533D01*
X837465Y591511D01*
X837510Y591455D01*
X840991Y587974D01*
X841049Y587932D01*
X841101Y587883D01*
X841148Y587861D01*
X841190Y587831D01*
X841259Y587809D01*
X841324Y587779D01*
X841376Y587774D01*
X841426Y587758D01*
X841497Y587760D01*
X841568Y587752D01*
X841619Y587763D01*
X841671Y587765D01*
X841739Y587789D01*
X841809Y587804D01*
X841854Y587831D01*
X841902Y587849D01*
X841958Y587894D01*
X842020Y587931D01*
X842054Y587970D01*
X842094Y588003D01*
X842133Y588063D01*
X842180Y588118D01*
X842199Y588166D01*
X842227Y588210D01*
X842245Y588279D01*
X842272Y588346D01*
X842280Y588417D01*
X842288Y588448D01*
X842286Y588471D01*
X842290Y588512D01*
X842290Y636526D01*
X842276Y636616D01*
X842268Y636707D01*
X842256Y636737D01*
X842251Y636769D01*
X842208Y636850D01*
X842172Y636934D01*
X842146Y636966D01*
X842135Y636986D01*
X842112Y637009D01*
X842067Y637065D01*
X819340Y659792D01*
X819266Y659845D01*
X819196Y659905D01*
X819166Y659917D01*
X819140Y659936D01*
X819053Y659962D01*
X818968Y659997D01*
X818927Y660001D01*
X818905Y660008D01*
X818873Y660007D01*
X818801Y660015D01*
X818590Y660015D01*
X816072Y662533D01*
X816072Y666094D01*
X816431Y666454D01*
X816479Y666520D01*
X816533Y666580D01*
X816550Y666619D01*
X816575Y666654D01*
X816599Y666731D01*
X816631Y666806D01*
X816635Y666848D01*
X816647Y666889D01*
X816645Y666970D01*
X816652Y667051D01*
X816642Y667092D01*
X816641Y667135D01*
X816613Y667211D01*
X816593Y667290D01*
X816571Y667326D01*
X816556Y667366D01*
X816505Y667429D01*
X816462Y667498D01*
X816429Y667525D01*
X816403Y667558D01*
X816334Y667602D01*
X816271Y667653D01*
X816220Y667675D01*
X816196Y667691D01*
X816168Y667698D01*
X816117Y667720D01*
X815920Y667781D01*
X815887Y667785D01*
X815809Y667806D01*
X815175Y667901D01*
X815120Y667947D01*
X815056Y668009D01*
X815025Y668024D01*
X814998Y668046D01*
X814844Y668112D01*
X812740Y668761D01*
X812706Y668766D01*
X812673Y668779D01*
X812584Y668783D01*
X812496Y668795D01*
X812462Y668789D01*
X812428Y668790D01*
X812350Y668772D01*
X811770Y669052D01*
X811739Y669061D01*
X811664Y669093D01*
X811053Y669282D01*
X811004Y669335D01*
X810951Y669406D01*
X810922Y669425D01*
X810899Y669451D01*
X810756Y669540D01*
X808772Y670495D01*
X808739Y670505D01*
X808709Y670522D01*
X808622Y670540D01*
X808537Y670565D01*
X808502Y670564D01*
X808468Y670570D01*
X808389Y670564D01*
X807857Y670927D01*
X807827Y670941D01*
X807758Y670984D01*
X807181Y671262D01*
X807142Y671321D01*
X807099Y671399D01*
X807084Y671413D01*
X807082Y671416D01*
X807073Y671424D01*
X807054Y671452D01*
X806927Y671561D01*
X805108Y672801D01*
X805076Y672816D01*
X805049Y672837D01*
X804965Y672868D01*
X804885Y672905D01*
X804850Y672909D01*
X804818Y672921D01*
X804738Y672927D01*
X804267Y673364D01*
X804239Y673383D01*
X804178Y673435D01*
X803649Y673796D01*
X803618Y673861D01*
X803588Y673944D01*
X803566Y673972D01*
X803551Y674003D01*
X803442Y674130D01*
X801827Y675628D01*
X801799Y675647D01*
X801775Y675672D01*
X801697Y675714D01*
X801623Y675764D01*
X801589Y675772D01*
X801559Y675789D01*
X801481Y675806D01*
X801080Y676310D01*
X801055Y676332D01*
X801002Y676393D01*
X800533Y676829D01*
X800512Y676897D01*
X800495Y676985D01*
X800477Y677015D01*
X800468Y677048D01*
X800378Y677190D01*
X799005Y678911D01*
X798980Y678934D01*
X798960Y678963D01*
X798888Y679017D01*
X798823Y679076D01*
X798791Y679090D01*
X798763Y679111D01*
X798689Y679140D01*
X798368Y679697D01*
X798347Y679723D01*
X798303Y679791D01*
X797904Y680292D01*
X797894Y680363D01*
X797890Y680452D01*
X797877Y680484D01*
X797872Y680518D01*
X797805Y680672D01*
X796704Y682579D01*
X796682Y682606D01*
X796667Y682637D01*
X796604Y682701D01*
X796548Y682769D01*
X796519Y682788D01*
X796494Y682812D01*
X796425Y682852D01*
X796190Y683451D01*
X796174Y683479D01*
X796141Y683554D01*
X795821Y684108D01*
X795821Y684180D01*
X795830Y684268D01*
X795823Y684302D01*
X795823Y684337D01*
X795779Y684499D01*
X794975Y686549D01*
X794957Y686578D01*
X794947Y686611D01*
X794895Y686683D01*
X794849Y686760D01*
X794823Y686783D01*
X794802Y686811D01*
X794740Y686860D01*
X794597Y687488D01*
X794585Y687518D01*
X794563Y687596D01*
X794330Y688192D01*
X794341Y688263D01*
X794363Y688349D01*
X794360Y688384D01*
X794366Y688418D01*
X794360Y688469D01*
X794360Y688473D01*
X794358Y688484D01*
X794347Y688585D01*
X793857Y690732D01*
X793844Y690764D01*
X793838Y690798D01*
X793797Y690877D01*
X793764Y690959D01*
X793741Y690986D01*
X793725Y691016D01*
X793671Y691074D01*
X793623Y691716D01*
X793615Y691748D01*
X793606Y691829D01*
X793464Y692453D01*
X793485Y692522D01*
X793520Y692603D01*
X793522Y692638D01*
X793533Y692671D01*
X793539Y692839D01*
X793383Y694918D01*
X793368Y694979D01*
X793363Y695042D01*
X793340Y695098D01*
X793325Y695157D01*
X793292Y695210D01*
X793267Y695268D01*
X793212Y695337D01*
X793194Y695365D01*
X793181Y695376D01*
X793162Y695399D01*
X793095Y695466D01*
X793021Y695520D01*
X792952Y695579D01*
X792922Y695591D01*
X792895Y695610D01*
X792808Y695637D01*
X792724Y695671D01*
X792683Y695675D01*
X792660Y695682D01*
X792628Y695681D01*
X792557Y695689D01*
X755193Y695689D01*
X755223Y696060D01*
X755219Y696089D01*
X755224Y696117D01*
X755207Y696186D01*
X755199Y696258D01*
X755185Y696282D01*
X755178Y696310D01*
X755135Y696368D01*
X755100Y696430D01*
X755077Y696447D01*
X755060Y696470D01*
X754998Y696507D01*
X754941Y696550D01*
X754913Y696557D01*
X754889Y696572D01*
X754789Y696588D01*
X754748Y696599D01*
X754738Y696597D01*
X754725Y696599D01*
X735725Y696599D01*
X735649Y696584D01*
X735571Y696575D01*
X735552Y696564D01*
X735530Y696560D01*
X735466Y696516D01*
X735398Y696477D01*
X735382Y696458D01*
X735366Y696447D01*
X735342Y696409D01*
X735292Y696349D01*
X734803Y695500D01*
X734786Y695482D01*
X734729Y695436D01*
X734689Y695379D01*
X734667Y695356D01*
X734657Y695334D01*
X734632Y695299D01*
X732884Y692166D01*
X725792Y679849D01*
X725783Y679822D01*
X725767Y679798D01*
X725752Y679728D01*
X725729Y679660D01*
X725732Y679632D01*
X725726Y679604D01*
X725740Y679534D01*
X725745Y679462D01*
X725758Y679437D01*
X725764Y679409D01*
X725765Y679406D01*
X707554Y646764D01*
X707549Y646750D01*
X707541Y646738D01*
X707508Y646634D01*
X707471Y646532D01*
X707470Y646518D01*
X707466Y646504D01*
X707468Y646395D01*
X707465Y646287D01*
X707470Y646273D01*
X707470Y646258D01*
X707506Y646156D01*
X707538Y646052D01*
X707547Y646040D01*
X707552Y646026D01*
X707619Y645940D01*
X707683Y645853D01*
X707693Y645845D01*
X707714Y645799D01*
X707757Y645753D01*
X707792Y645700D01*
X707859Y645643D01*
X707881Y645619D01*
X707897Y645610D01*
X707919Y645591D01*
X709644Y644416D01*
X709676Y644401D01*
X709703Y644380D01*
X709787Y644350D01*
X709867Y644312D01*
X709902Y644308D01*
X709934Y644297D01*
X710013Y644291D01*
X710485Y643853D01*
X710513Y643835D01*
X710574Y643782D01*
X711104Y643422D01*
X711134Y643357D01*
X711165Y643273D01*
X711186Y643246D01*
X711201Y643215D01*
X711311Y643088D01*
X712927Y641589D01*
X712956Y641570D01*
X712980Y641545D01*
X713058Y641503D01*
X713132Y641453D01*
X713166Y641444D01*
X713196Y641428D01*
X713273Y641410D01*
X713675Y640907D01*
X713699Y640885D01*
X713752Y640824D01*
X714222Y640388D01*
X714242Y640320D01*
X714260Y640233D01*
X714277Y640203D01*
X714287Y640169D01*
X714377Y640028D01*
X715752Y638305D01*
X715777Y638281D01*
X715797Y638253D01*
X715868Y638199D01*
X715934Y638140D01*
X715966Y638126D01*
X715994Y638105D01*
X716068Y638076D01*
X716390Y637519D01*
X716411Y637493D01*
X716454Y637425D01*
X716853Y636924D01*
X716863Y636854D01*
X716868Y636765D01*
X716880Y636732D01*
X716885Y636698D01*
X716953Y636544D01*
X718055Y634636D01*
X718077Y634609D01*
X718093Y634578D01*
X718155Y634515D01*
X718211Y634446D01*
X718241Y634427D01*
X718265Y634402D01*
X718334Y634363D01*
X718569Y633764D01*
X718586Y633735D01*
X718618Y633661D01*
X718939Y633107D01*
X718938Y633035D01*
X718929Y632947D01*
X718937Y632913D01*
X718937Y632878D01*
X718981Y632716D01*
X719787Y630665D01*
X719804Y630635D01*
X719815Y630602D01*
X719867Y630530D01*
X719912Y630453D01*
X719939Y630431D01*
X719959Y630403D01*
X720021Y630353D01*
X720165Y629726D01*
X720177Y629695D01*
X720198Y629617D01*
X720432Y629021D01*
X720421Y628950D01*
X720399Y628864D01*
X720402Y628829D01*
X720396Y628795D01*
X720415Y628629D01*
X720906Y626480D01*
X720920Y626448D01*
X720925Y626413D01*
X720966Y626334D01*
X720999Y626252D01*
X721022Y626226D01*
X721038Y626195D01*
X721092Y626137D01*
X721140Y625495D01*
X721148Y625463D01*
X721157Y625383D01*
X721300Y624758D01*
X721278Y624690D01*
X721244Y624608D01*
X721241Y624573D01*
X721231Y624540D01*
X721225Y624373D01*
X721390Y622175D01*
X721398Y622141D01*
X721398Y622106D01*
X721427Y622022D01*
X721448Y621936D01*
X721467Y621906D01*
X721478Y621874D01*
X721534Y621792D01*
X721545Y621739D01*
X721552Y621664D01*
X721571Y621620D01*
X721581Y621573D01*
X721620Y621508D01*
X721650Y621439D01*
X721683Y621403D01*
X721707Y621361D01*
X721765Y621312D01*
X721815Y621256D01*
X721858Y621233D01*
X721894Y621201D01*
X721964Y621173D01*
X722030Y621137D01*
X722078Y621128D01*
X722122Y621110D01*
X722249Y621096D01*
X722272Y621091D01*
X722279Y621092D01*
X722289Y621091D01*
X723198Y621091D01*
X723288Y621106D01*
X723379Y621113D01*
X723408Y621126D01*
X723440Y621131D01*
X723521Y621174D01*
X723605Y621209D01*
X723637Y621235D01*
X723658Y621246D01*
X723680Y621269D01*
X723736Y621314D01*
X726691Y624269D01*
X746848Y624269D01*
X746919Y624281D01*
X746990Y624283D01*
X747039Y624301D01*
X747091Y624309D01*
X747154Y624343D01*
X747221Y624367D01*
X747262Y624400D01*
X747308Y624424D01*
X747357Y624476D01*
X747413Y624521D01*
X747442Y624565D01*
X747477Y624602D01*
X747508Y624667D01*
X747546Y624728D01*
X747559Y624778D01*
X747581Y624825D01*
X747589Y624897D01*
X747606Y624966D01*
X747602Y625018D01*
X747608Y625070D01*
X747593Y625140D01*
X747587Y625211D01*
X747567Y625259D01*
X747556Y625310D01*
X747519Y625372D01*
X747491Y625438D01*
X747446Y625494D01*
X747430Y625521D01*
X747412Y625537D01*
X747386Y625569D01*
X744722Y628232D01*
X743330Y631594D01*
X743330Y635231D01*
X744722Y638593D01*
X747295Y641165D01*
X750656Y642557D01*
X754294Y642557D01*
X757655Y641165D01*
X760228Y638593D01*
X761620Y635231D01*
X761620Y631594D01*
X760228Y628232D01*
X757564Y625569D01*
X757522Y625511D01*
X757473Y625459D01*
X757451Y625411D01*
X757420Y625369D01*
X757399Y625301D01*
X757369Y625235D01*
X757363Y625184D01*
X757348Y625134D01*
X757350Y625062D01*
X757342Y624991D01*
X757353Y624940D01*
X757354Y624888D01*
X757379Y624821D01*
X757394Y624751D01*
X757421Y624706D01*
X757439Y624657D01*
X757484Y624601D01*
X757520Y624540D01*
X757560Y624506D01*
X757592Y624465D01*
X757653Y624426D01*
X757707Y624380D01*
X757756Y624360D01*
X757799Y624332D01*
X757869Y624315D01*
X757935Y624288D01*
X758007Y624280D01*
X758038Y624272D01*
X758061Y624274D01*
X758102Y624269D01*
X783504Y624269D01*
X785215Y622558D01*
X816265Y591508D01*
X817976Y589797D01*
X817976Y584936D01*
X817979Y584916D01*
X817977Y584897D01*
X817999Y584795D01*
X818016Y584693D01*
X818025Y584676D01*
X818029Y584656D01*
X818083Y584567D01*
X818131Y584476D01*
X818145Y584462D01*
X818156Y584445D01*
X818234Y584378D01*
X818309Y584306D01*
X818327Y584298D01*
X818342Y584285D01*
X818439Y584246D01*
X818532Y584203D01*
X818552Y584201D01*
X818571Y584193D01*
X818737Y584175D01*
X822014Y584175D01*
X822022Y584169D01*
X822123Y584144D01*
X822221Y584114D01*
X822241Y584114D01*
X822261Y584109D01*
X822364Y584117D01*
G37*
G36*
X915193Y471712D02*
X915193Y471712D01*
X915284Y471719D01*
X915313Y471732D01*
X915345Y471737D01*
X915426Y471780D01*
X915510Y471816D01*
X915542Y471841D01*
X915563Y471852D01*
X915585Y471876D01*
X915641Y471920D01*
X917176Y473455D01*
X920737Y473455D01*
X922000Y472192D01*
X922036Y472167D01*
X922065Y472135D01*
X922135Y472096D01*
X922200Y472049D01*
X922242Y472036D01*
X922280Y472015D01*
X922359Y472000D01*
X922435Y471976D01*
X922479Y471978D01*
X922521Y471970D01*
X922601Y471981D01*
X922681Y471983D01*
X922722Y471998D01*
X922765Y472004D01*
X922837Y472040D01*
X922912Y472067D01*
X922946Y472094D01*
X922985Y472114D01*
X923041Y472171D01*
X923104Y472221D01*
X923128Y472258D01*
X923158Y472288D01*
X923194Y472360D01*
X923237Y472428D01*
X923248Y472470D01*
X923267Y472509D01*
X923294Y472654D01*
X923297Y472666D01*
X923297Y472669D01*
X923298Y472674D01*
X923423Y474354D01*
X923420Y474389D01*
X923425Y474423D01*
X923409Y474511D01*
X923402Y474599D01*
X923388Y474631D01*
X923382Y474665D01*
X923347Y474737D01*
X923490Y475364D01*
X923492Y475397D01*
X923507Y475477D01*
X923555Y476115D01*
X923595Y476174D01*
X923653Y476242D01*
X923665Y476275D01*
X923685Y476303D01*
X923740Y476462D01*
X924230Y478611D01*
X924232Y478645D01*
X924242Y478678D01*
X924240Y478767D01*
X924245Y478856D01*
X924236Y478890D01*
X924235Y478924D01*
X924211Y479000D01*
X924446Y479599D01*
X924453Y479630D01*
X924461Y479646D01*
X924462Y479656D01*
X924480Y479708D01*
X924622Y480332D01*
X924671Y480384D01*
X924738Y480443D01*
X924755Y480473D01*
X924779Y480499D01*
X924857Y480647D01*
X925662Y482699D01*
X925669Y482733D01*
X925684Y482764D01*
X925695Y482853D01*
X925714Y482940D01*
X925710Y482974D01*
X925714Y483009D01*
X925702Y483087D01*
X926023Y483645D01*
X926035Y483675D01*
X926073Y483747D01*
X926307Y484343D01*
X926363Y484387D01*
X926438Y484436D01*
X926459Y484463D01*
X926487Y484484D01*
X926586Y484619D01*
X927687Y486529D01*
X927700Y486561D01*
X927719Y486590D01*
X927743Y486676D01*
X927774Y486759D01*
X927776Y486793D01*
X927785Y486827D01*
X927785Y486906D01*
X928186Y487410D01*
X928202Y487438D01*
X928250Y487504D01*
X928570Y488058D01*
X928632Y488094D01*
X928713Y488130D01*
X928739Y488154D01*
X928769Y488171D01*
X928887Y488290D01*
X930261Y490013D01*
X930278Y490044D01*
X930301Y490069D01*
X930338Y490151D01*
X930381Y490228D01*
X930388Y490262D01*
X930402Y490294D01*
X930413Y490372D01*
X930885Y490810D01*
X930905Y490836D01*
X930962Y490894D01*
X931362Y491395D01*
X931429Y491420D01*
X931514Y491444D01*
X931543Y491464D01*
X931575Y491476D01*
X931710Y491576D01*
X933325Y493076D01*
X933347Y493103D01*
X933374Y493125D01*
X933421Y493200D01*
X933476Y493270D01*
X933488Y493303D01*
X933506Y493332D01*
X933529Y493408D01*
X934061Y493771D01*
X934085Y493793D01*
X934150Y493842D01*
X934619Y494277D01*
X934689Y494293D01*
X934778Y494304D01*
X934809Y494319D01*
X934843Y494326D01*
X934991Y494405D01*
X936812Y495647D01*
X936837Y495671D01*
X936867Y495689D01*
X936925Y495755D01*
X936990Y495817D01*
X937006Y495847D01*
X937029Y495874D01*
X937063Y495945D01*
X937643Y496225D01*
X937670Y496243D01*
X937741Y496282D01*
X938270Y496642D01*
X938342Y496647D01*
X938431Y496645D01*
X938464Y496655D01*
X938499Y496658D01*
X938657Y496713D01*
X940642Y497670D01*
X940671Y497690D01*
X940703Y497703D01*
X940771Y497760D01*
X940844Y497811D01*
X940864Y497839D01*
X940891Y497862D01*
X940935Y497927D01*
X941550Y498117D01*
X941580Y498132D01*
X941656Y498159D01*
X942233Y498437D01*
X942305Y498431D01*
X942392Y498416D01*
X942426Y498421D01*
X942461Y498418D01*
X942626Y498449D01*
X944732Y499100D01*
X944763Y499115D01*
X944797Y499123D01*
X944873Y499170D01*
X944952Y499209D01*
X944976Y499234D01*
X945006Y499252D01*
X945060Y499310D01*
X945696Y499407D01*
X945728Y499417D01*
X945807Y499432D01*
X946419Y499621D01*
X946489Y499604D01*
X946573Y499576D01*
X946608Y499576D01*
X946642Y499568D01*
X946809Y499575D01*
X948989Y499904D01*
X949022Y499915D01*
X949056Y499917D01*
X949138Y499952D01*
X949223Y499979D01*
X949251Y500000D01*
X949283Y500014D01*
X949344Y500063D01*
X949988Y500063D01*
X950021Y500069D01*
X950102Y500072D01*
X950735Y500168D01*
X950801Y500141D01*
X950880Y500100D01*
X950915Y500095D01*
X950947Y500082D01*
X951114Y500064D01*
X953318Y500065D01*
X953352Y500070D01*
X953387Y500068D01*
X953473Y500090D01*
X953560Y500104D01*
X953591Y500121D01*
X953625Y500129D01*
X953693Y500169D01*
X954330Y500073D01*
X954363Y500074D01*
X954443Y500065D01*
X955084Y500065D01*
X955146Y500029D01*
X955218Y499977D01*
X955251Y499967D01*
X955281Y499949D01*
X955443Y499906D01*
X957623Y499578D01*
X957657Y499579D01*
X957691Y499571D01*
X957779Y499580D01*
X957868Y499581D01*
X957901Y499593D01*
X957936Y499596D01*
X958010Y499626D01*
X958625Y499436D01*
X958657Y499432D01*
X958736Y499411D01*
X959369Y499316D01*
X959424Y499270D01*
X959488Y499208D01*
X959519Y499193D01*
X959546Y499171D01*
X959700Y499105D01*
X961807Y498456D01*
X961841Y498451D01*
X961873Y498438D01*
X961962Y498434D01*
X962050Y498422D01*
X962084Y498429D01*
X962119Y498427D01*
X962196Y498445D01*
X962776Y498166D01*
X962808Y498156D01*
X962882Y498124D01*
X963494Y497936D01*
X963543Y497883D01*
X963596Y497812D01*
X963625Y497792D01*
X963648Y497767D01*
X963791Y497678D01*
X965671Y496773D01*
X965732Y496755D01*
X965789Y496728D01*
X965849Y496720D01*
X965907Y496703D01*
X965955Y496705D01*
X966647Y496306D01*
X966666Y496298D01*
X966697Y496279D01*
X967034Y496117D01*
X967145Y496085D01*
X967254Y496050D01*
X967262Y496050D01*
X967270Y496048D01*
X967385Y496052D01*
X967500Y496054D01*
X967507Y496057D01*
X967516Y496057D01*
X967623Y496098D01*
X967732Y496137D01*
X967738Y496142D01*
X967745Y496144D01*
X967834Y496217D01*
X967925Y496289D01*
X967931Y496296D01*
X967936Y496300D01*
X967947Y496319D01*
X968024Y496424D01*
X995577Y544387D01*
X995600Y544447D01*
X995632Y544503D01*
X995643Y544562D01*
X995664Y544618D01*
X995666Y544682D01*
X995678Y544745D01*
X995670Y544804D01*
X995672Y544863D01*
X995654Y544925D01*
X995645Y544989D01*
X995611Y545067D01*
X995602Y545099D01*
X995591Y545114D01*
X995579Y545143D01*
X995565Y545168D01*
X995958Y545851D01*
X995968Y545883D01*
X995977Y545896D01*
X995981Y545920D01*
X995982Y545924D01*
X996013Y545994D01*
X996013Y546018D01*
X996021Y546040D01*
X996015Y546116D01*
X996016Y546193D01*
X996006Y546217D01*
X996005Y546238D01*
X995984Y546277D01*
X995958Y546349D01*
X986458Y562849D01*
X986439Y562871D01*
X986426Y562897D01*
X986373Y562945D01*
X986326Y562998D01*
X986300Y563011D01*
X986279Y563030D01*
X986211Y563053D01*
X986147Y563084D01*
X986118Y563086D01*
X986091Y563095D01*
X986019Y563090D01*
X985948Y563093D01*
X985921Y563083D01*
X985892Y563081D01*
X985802Y563039D01*
X985762Y563024D01*
X985754Y563017D01*
X985741Y563011D01*
X985512Y562853D01*
X967089Y595265D01*
X967075Y595282D01*
X967066Y595303D01*
X966998Y595377D01*
X966934Y595456D01*
X966915Y595468D01*
X966900Y595485D01*
X966812Y595534D01*
X966727Y595588D01*
X966705Y595594D01*
X966685Y595605D01*
X966586Y595623D01*
X966488Y595647D01*
X966466Y595645D01*
X966444Y595650D01*
X966343Y595635D01*
X966243Y595627D01*
X966222Y595618D01*
X966200Y595615D01*
X966046Y595548D01*
X965964Y595500D01*
X965954Y595501D01*
X965893Y595487D01*
X965830Y595483D01*
X965746Y595454D01*
X965714Y595446D01*
X965699Y595437D01*
X965671Y595427D01*
X964997Y595103D01*
X964918Y595048D01*
X964836Y594999D01*
X964818Y594978D01*
X964795Y594962D01*
X964738Y594884D01*
X964676Y594812D01*
X964666Y594786D01*
X964649Y594764D01*
X964620Y594673D01*
X964584Y594583D01*
X964580Y594549D01*
X964574Y594530D01*
X964575Y594497D01*
X964566Y594417D01*
X964566Y583148D01*
X947837Y566419D01*
X929022Y566419D01*
X928932Y566405D01*
X928841Y566397D01*
X928811Y566385D01*
X928779Y566380D01*
X928698Y566337D01*
X928614Y566301D01*
X928582Y566275D01*
X928562Y566264D01*
X928539Y566241D01*
X928484Y566196D01*
X911766Y549479D01*
X911713Y549405D01*
X911654Y549336D01*
X911641Y549305D01*
X911623Y549279D01*
X911596Y549192D01*
X911562Y549107D01*
X911557Y549067D01*
X911550Y549044D01*
X911551Y549012D01*
X911543Y548941D01*
X911543Y523509D01*
X894035Y506001D01*
X865124Y506001D01*
X863413Y507712D01*
X855765Y515359D01*
X855691Y515413D01*
X855622Y515472D01*
X855592Y515484D01*
X855566Y515503D01*
X855479Y515530D01*
X855394Y515564D01*
X855353Y515568D01*
X855331Y515575D01*
X855298Y515574D01*
X855227Y515582D01*
X853604Y515582D01*
X853584Y515579D01*
X853564Y515581D01*
X853463Y515559D01*
X853361Y515543D01*
X853344Y515533D01*
X853324Y515529D01*
X853235Y515476D01*
X853144Y515428D01*
X853130Y515413D01*
X853113Y515403D01*
X853046Y515324D01*
X852974Y515249D01*
X852966Y515231D01*
X852953Y515216D01*
X852914Y515120D01*
X852871Y515026D01*
X852869Y515006D01*
X852861Y514988D01*
X852843Y514821D01*
X852843Y513198D01*
X852857Y513108D01*
X852864Y513017D01*
X852877Y512987D01*
X852882Y512955D01*
X852925Y512874D01*
X852961Y512791D01*
X852986Y512758D01*
X852997Y512738D01*
X853021Y512716D01*
X853066Y512660D01*
X893805Y471920D01*
X893879Y471867D01*
X893948Y471808D01*
X893978Y471796D01*
X894004Y471777D01*
X894091Y471750D01*
X894176Y471716D01*
X894217Y471711D01*
X894240Y471705D01*
X894272Y471705D01*
X894343Y471697D01*
X915103Y471697D01*
X915193Y471712D01*
G37*
G36*
X701837Y503613D02*
X701837Y503613D01*
X701908Y503619D01*
X701956Y503639D01*
X702007Y503650D01*
X702068Y503687D01*
X702134Y503715D01*
X702190Y503760D01*
X702218Y503777D01*
X702233Y503794D01*
X702265Y503820D01*
X703187Y504742D01*
X704033Y504742D01*
X704123Y504757D01*
X704214Y504764D01*
X704244Y504776D01*
X704276Y504782D01*
X704357Y504824D01*
X704441Y504860D01*
X704473Y504886D01*
X704493Y504897D01*
X704516Y504920D01*
X704572Y504965D01*
X718085Y518478D01*
X765762Y518478D01*
X765852Y518493D01*
X765943Y518500D01*
X765973Y518513D01*
X766005Y518518D01*
X766085Y518561D01*
X766169Y518596D01*
X766201Y518622D01*
X766222Y518633D01*
X766244Y518656D01*
X766300Y518701D01*
X777889Y530290D01*
X777942Y530364D01*
X778001Y530433D01*
X778014Y530463D01*
X778032Y530490D01*
X778059Y530577D01*
X778093Y530661D01*
X778098Y530702D01*
X778105Y530725D01*
X778104Y530757D01*
X778112Y530828D01*
X778112Y537230D01*
X782021Y541139D01*
X784358Y541139D01*
X784448Y541153D01*
X784539Y541161D01*
X784569Y541173D01*
X784601Y541178D01*
X784682Y541221D01*
X784766Y541257D01*
X784798Y541283D01*
X784818Y541294D01*
X784840Y541317D01*
X784897Y541362D01*
X785143Y541609D01*
X791907Y541609D01*
X792800Y540715D01*
X792800Y536408D01*
X792795Y536400D01*
X792769Y536300D01*
X792739Y536201D01*
X792740Y536181D01*
X792735Y536162D01*
X792743Y536058D01*
X792745Y535955D01*
X792752Y535936D01*
X792754Y535916D01*
X792794Y535822D01*
X792800Y535807D01*
X792800Y531407D01*
X792795Y531399D01*
X792769Y531299D01*
X792739Y531200D01*
X792740Y531180D01*
X792735Y531161D01*
X792743Y531057D01*
X792745Y530954D01*
X792752Y530935D01*
X792754Y530915D01*
X792794Y530821D01*
X792800Y530806D01*
X792800Y526406D01*
X792794Y526398D01*
X792769Y526297D01*
X792739Y526198D01*
X792739Y526178D01*
X792734Y526159D01*
X792742Y526056D01*
X792745Y525953D01*
X792752Y525934D01*
X792753Y525914D01*
X792794Y525819D01*
X792800Y525803D01*
X792800Y521404D01*
X792795Y521396D01*
X792769Y521296D01*
X792739Y521197D01*
X792740Y521177D01*
X792735Y521158D01*
X792743Y521054D01*
X792745Y520951D01*
X792752Y520932D01*
X792754Y520912D01*
X792794Y520818D01*
X792800Y520803D01*
X792800Y517336D01*
X792803Y517316D01*
X792801Y517297D01*
X792823Y517195D01*
X792839Y517093D01*
X792849Y517076D01*
X792853Y517056D01*
X792906Y516967D01*
X792955Y516876D01*
X792969Y516862D01*
X792979Y516845D01*
X793058Y516778D01*
X793133Y516706D01*
X793151Y516698D01*
X793166Y516685D01*
X793262Y516646D01*
X793356Y516603D01*
X793376Y516601D01*
X793394Y516593D01*
X793561Y516575D01*
X797008Y516575D01*
X797016Y516570D01*
X797116Y516545D01*
X797215Y516514D01*
X797235Y516515D01*
X797254Y516510D01*
X797357Y516518D01*
X797461Y516520D01*
X797480Y516527D01*
X797499Y516529D01*
X797594Y516569D01*
X797609Y516575D01*
X802009Y516575D01*
X802017Y516569D01*
X802118Y516544D01*
X802217Y516514D01*
X802237Y516514D01*
X802256Y516509D01*
X802359Y516517D01*
X802462Y516520D01*
X802481Y516527D01*
X802501Y516528D01*
X802596Y516569D01*
X802612Y516575D01*
X807011Y516575D01*
X807019Y516570D01*
X807119Y516544D01*
X807218Y516514D01*
X807238Y516515D01*
X807257Y516510D01*
X807361Y516518D01*
X807464Y516520D01*
X807483Y516527D01*
X807503Y516529D01*
X807597Y516569D01*
X807612Y516575D01*
X812012Y516575D01*
X812020Y516570D01*
X812120Y516544D01*
X812219Y516514D01*
X812239Y516515D01*
X812258Y516510D01*
X812362Y516518D01*
X812465Y516520D01*
X812484Y516527D01*
X812504Y516529D01*
X812598Y516569D01*
X812613Y516575D01*
X817013Y516575D01*
X817021Y516570D01*
X817121Y516544D01*
X817220Y516514D01*
X817240Y516515D01*
X817259Y516510D01*
X817363Y516518D01*
X817466Y516520D01*
X817485Y516527D01*
X817505Y516529D01*
X817599Y516569D01*
X817614Y516575D01*
X822014Y516575D01*
X822022Y516569D01*
X822123Y516544D01*
X822222Y516514D01*
X822242Y516514D01*
X822261Y516509D01*
X822364Y516517D01*
X822467Y516520D01*
X822486Y516527D01*
X822506Y516528D01*
X822601Y516569D01*
X822617Y516575D01*
X827016Y516575D01*
X827024Y516570D01*
X827124Y516544D01*
X827223Y516514D01*
X827243Y516515D01*
X827262Y516510D01*
X827366Y516518D01*
X827469Y516520D01*
X827488Y516527D01*
X827508Y516529D01*
X827602Y516569D01*
X827617Y516575D01*
X832017Y516575D01*
X832025Y516570D01*
X832125Y516544D01*
X832224Y516514D01*
X832244Y516515D01*
X832263Y516510D01*
X832367Y516518D01*
X832470Y516520D01*
X832489Y516527D01*
X832509Y516529D01*
X832603Y516569D01*
X832618Y516575D01*
X837018Y516575D01*
X837026Y516570D01*
X837126Y516544D01*
X837225Y516514D01*
X837245Y516515D01*
X837264Y516510D01*
X837368Y516518D01*
X837471Y516520D01*
X837490Y516527D01*
X837510Y516529D01*
X837604Y516569D01*
X837619Y516575D01*
X842019Y516575D01*
X842027Y516569D01*
X842128Y516544D01*
X842227Y516514D01*
X842247Y516514D01*
X842266Y516509D01*
X842369Y516517D01*
X842472Y516520D01*
X842491Y516527D01*
X842511Y516528D01*
X842606Y516569D01*
X842622Y516575D01*
X847021Y516575D01*
X847029Y516570D01*
X847129Y516544D01*
X847228Y516514D01*
X847248Y516515D01*
X847267Y516510D01*
X847371Y516518D01*
X847474Y516520D01*
X847493Y516527D01*
X847513Y516529D01*
X847607Y516569D01*
X847622Y516575D01*
X851089Y516575D01*
X851109Y516578D01*
X851128Y516576D01*
X851230Y516598D01*
X851332Y516614D01*
X851349Y516624D01*
X851369Y516628D01*
X851458Y516681D01*
X851549Y516730D01*
X851563Y516744D01*
X851580Y516754D01*
X851647Y516833D01*
X851719Y516908D01*
X851727Y516926D01*
X851740Y516941D01*
X851779Y517037D01*
X851822Y517131D01*
X851824Y517151D01*
X851832Y517169D01*
X851850Y517336D01*
X851850Y520783D01*
X851855Y520791D01*
X851881Y520891D01*
X851911Y520990D01*
X851910Y521010D01*
X851915Y521029D01*
X851907Y521133D01*
X851905Y521236D01*
X851898Y521255D01*
X851896Y521275D01*
X851856Y521369D01*
X851850Y521384D01*
X851850Y525784D01*
X851856Y525792D01*
X851881Y525893D01*
X851911Y525992D01*
X851911Y526012D01*
X851916Y526031D01*
X851908Y526134D01*
X851905Y526237D01*
X851898Y526256D01*
X851897Y526276D01*
X851856Y526371D01*
X851850Y526387D01*
X851850Y530786D01*
X851855Y530794D01*
X851881Y530894D01*
X851911Y530993D01*
X851910Y531013D01*
X851915Y531032D01*
X851907Y531136D01*
X851905Y531239D01*
X851898Y531258D01*
X851896Y531278D01*
X851856Y531372D01*
X851850Y531387D01*
X851850Y535787D01*
X851855Y535795D01*
X851881Y535895D01*
X851911Y535994D01*
X851910Y536014D01*
X851915Y536033D01*
X851907Y536137D01*
X851905Y536240D01*
X851898Y536259D01*
X851896Y536279D01*
X851856Y536373D01*
X851850Y536388D01*
X851850Y540788D01*
X851855Y540796D01*
X851881Y540896D01*
X851911Y540995D01*
X851910Y541015D01*
X851915Y541034D01*
X851907Y541138D01*
X851905Y541241D01*
X851898Y541260D01*
X851896Y541280D01*
X851856Y541374D01*
X851850Y541389D01*
X851850Y545789D01*
X851856Y545797D01*
X851881Y545898D01*
X851911Y545997D01*
X851911Y546017D01*
X851916Y546036D01*
X851908Y546139D01*
X851905Y546242D01*
X851898Y546261D01*
X851897Y546281D01*
X851856Y546376D01*
X851842Y546416D01*
X851836Y546453D01*
X851828Y546544D01*
X851816Y546574D01*
X851811Y546606D01*
X851788Y546648D01*
X851788Y559843D01*
X851798Y559873D01*
X851832Y559958D01*
X851836Y559999D01*
X851843Y560021D01*
X851842Y560053D01*
X851850Y560125D01*
X851850Y560793D01*
X851855Y560801D01*
X851881Y560901D01*
X851911Y561000D01*
X851910Y561020D01*
X851915Y561039D01*
X851907Y561143D01*
X851905Y561246D01*
X851898Y561265D01*
X851896Y561285D01*
X851856Y561379D01*
X851850Y561394D01*
X851850Y565794D01*
X851856Y565802D01*
X851881Y565903D01*
X851911Y566002D01*
X851911Y566022D01*
X851916Y566041D01*
X851908Y566144D01*
X851905Y566247D01*
X851898Y566266D01*
X851897Y566286D01*
X851856Y566381D01*
X851850Y566397D01*
X851850Y570796D01*
X851855Y570804D01*
X851881Y570904D01*
X851911Y571003D01*
X851910Y571023D01*
X851915Y571042D01*
X851907Y571146D01*
X851905Y571249D01*
X851898Y571268D01*
X851896Y571288D01*
X851856Y571382D01*
X851850Y571397D01*
X851850Y574864D01*
X851847Y574884D01*
X851849Y574903D01*
X851827Y575005D01*
X851811Y575107D01*
X851801Y575124D01*
X851797Y575144D01*
X851744Y575233D01*
X851695Y575324D01*
X851681Y575338D01*
X851671Y575355D01*
X851592Y575422D01*
X851517Y575494D01*
X851499Y575502D01*
X851484Y575515D01*
X851388Y575554D01*
X851294Y575597D01*
X851274Y575599D01*
X851256Y575607D01*
X851089Y575625D01*
X847642Y575625D01*
X847634Y575630D01*
X847534Y575656D01*
X847435Y575686D01*
X847415Y575685D01*
X847396Y575690D01*
X847292Y575682D01*
X847189Y575680D01*
X847170Y575673D01*
X847150Y575671D01*
X847056Y575631D01*
X847041Y575625D01*
X842641Y575625D01*
X842633Y575631D01*
X842532Y575656D01*
X842433Y575686D01*
X842413Y575686D01*
X842394Y575691D01*
X842291Y575683D01*
X842188Y575680D01*
X842169Y575673D01*
X842149Y575672D01*
X842054Y575631D01*
X842038Y575625D01*
X837639Y575625D01*
X837631Y575630D01*
X837531Y575656D01*
X837432Y575686D01*
X837412Y575685D01*
X837393Y575690D01*
X837289Y575682D01*
X837186Y575680D01*
X837167Y575673D01*
X837147Y575671D01*
X837053Y575631D01*
X837038Y575625D01*
X832638Y575625D01*
X832630Y575630D01*
X832530Y575656D01*
X832431Y575686D01*
X832411Y575685D01*
X832392Y575690D01*
X832288Y575682D01*
X832185Y575680D01*
X832166Y575673D01*
X832146Y575671D01*
X832052Y575631D01*
X832037Y575625D01*
X827637Y575625D01*
X827629Y575630D01*
X827529Y575656D01*
X827430Y575686D01*
X827410Y575685D01*
X827391Y575690D01*
X827287Y575682D01*
X827184Y575680D01*
X827165Y575673D01*
X827145Y575671D01*
X827051Y575631D01*
X827036Y575625D01*
X822636Y575625D01*
X822628Y575631D01*
X822527Y575656D01*
X822428Y575686D01*
X822408Y575686D01*
X822389Y575691D01*
X822286Y575683D01*
X822183Y575680D01*
X822164Y575673D01*
X822144Y575672D01*
X822049Y575631D01*
X822033Y575625D01*
X817634Y575625D01*
X817626Y575630D01*
X817526Y575656D01*
X817427Y575686D01*
X817407Y575685D01*
X817388Y575690D01*
X817284Y575682D01*
X817181Y575680D01*
X817162Y575673D01*
X817142Y575671D01*
X817048Y575631D01*
X817033Y575625D01*
X812633Y575625D01*
X812625Y575630D01*
X812525Y575656D01*
X812426Y575686D01*
X812406Y575685D01*
X812387Y575690D01*
X812283Y575682D01*
X812180Y575680D01*
X812161Y575673D01*
X812141Y575671D01*
X812047Y575631D01*
X812032Y575625D01*
X807632Y575625D01*
X807624Y575630D01*
X807524Y575656D01*
X807425Y575686D01*
X807405Y575685D01*
X807386Y575690D01*
X807282Y575682D01*
X807179Y575680D01*
X807160Y575673D01*
X807140Y575671D01*
X807046Y575631D01*
X807031Y575625D01*
X802631Y575625D01*
X802623Y575631D01*
X802522Y575656D01*
X802423Y575686D01*
X802403Y575686D01*
X802384Y575691D01*
X802281Y575683D01*
X802178Y575680D01*
X802159Y575673D01*
X802139Y575672D01*
X802044Y575631D01*
X802028Y575625D01*
X797629Y575625D01*
X797621Y575630D01*
X797521Y575656D01*
X797422Y575686D01*
X797402Y575685D01*
X797383Y575690D01*
X797279Y575682D01*
X797176Y575680D01*
X797157Y575673D01*
X797137Y575671D01*
X797043Y575631D01*
X797028Y575625D01*
X793561Y575625D01*
X793541Y575622D01*
X793522Y575624D01*
X793420Y575602D01*
X793318Y575586D01*
X793301Y575576D01*
X793281Y575572D01*
X793192Y575519D01*
X793101Y575470D01*
X793087Y575456D01*
X793070Y575446D01*
X793003Y575367D01*
X792931Y575292D01*
X792923Y575274D01*
X792910Y575259D01*
X792871Y575163D01*
X792828Y575069D01*
X792826Y575049D01*
X792818Y575031D01*
X792800Y574864D01*
X792800Y571417D01*
X792795Y571409D01*
X792769Y571309D01*
X792739Y571210D01*
X792740Y571190D01*
X792735Y571171D01*
X792743Y571067D01*
X792745Y570964D01*
X792752Y570945D01*
X792754Y570925D01*
X792794Y570831D01*
X792800Y570816D01*
X792800Y566416D01*
X792794Y566408D01*
X792769Y566307D01*
X792739Y566208D01*
X792739Y566188D01*
X792734Y566169D01*
X792742Y566066D01*
X792745Y565963D01*
X792752Y565944D01*
X792753Y565924D01*
X792794Y565829D01*
X792800Y565813D01*
X792800Y561414D01*
X792795Y561406D01*
X792769Y561306D01*
X792739Y561207D01*
X792740Y561187D01*
X792735Y561168D01*
X792743Y561064D01*
X792745Y560961D01*
X792752Y560942D01*
X792754Y560922D01*
X792794Y560828D01*
X792800Y560813D01*
X792800Y556413D01*
X792795Y556405D01*
X792769Y556305D01*
X792739Y556206D01*
X792740Y556186D01*
X792735Y556167D01*
X792743Y556063D01*
X792745Y555960D01*
X792752Y555941D01*
X792754Y555921D01*
X792794Y555827D01*
X792800Y555812D01*
X792800Y551412D01*
X792795Y551404D01*
X792769Y551304D01*
X792739Y551205D01*
X792740Y551185D01*
X792735Y551166D01*
X792743Y551062D01*
X792745Y550959D01*
X792752Y550940D01*
X792754Y550920D01*
X792794Y550826D01*
X792800Y550811D01*
X792800Y546484D01*
X791907Y545590D01*
X790141Y545590D01*
X790051Y545576D01*
X789960Y545569D01*
X789930Y545556D01*
X789909Y545552D01*
X776261Y545552D01*
X776049Y545765D01*
X775975Y545818D01*
X775905Y545877D01*
X775875Y545890D01*
X775849Y545908D01*
X775762Y545935D01*
X775677Y545969D01*
X775636Y545974D01*
X775614Y545981D01*
X775582Y545980D01*
X775510Y545988D01*
X753868Y545988D01*
X752975Y546881D01*
X752975Y548679D01*
X752972Y548698D01*
X752974Y548718D01*
X752952Y548819D01*
X752936Y548921D01*
X752926Y548939D01*
X752922Y548958D01*
X752869Y549047D01*
X752820Y549139D01*
X752806Y549152D01*
X752796Y549169D01*
X752717Y549237D01*
X752642Y549308D01*
X752624Y549316D01*
X752609Y549329D01*
X752513Y549368D01*
X752419Y549412D01*
X752399Y549414D01*
X752381Y549421D01*
X752214Y549440D01*
X749024Y549440D01*
X748934Y549425D01*
X748843Y549418D01*
X748813Y549405D01*
X748781Y549400D01*
X748700Y549357D01*
X748617Y549322D01*
X748584Y549296D01*
X748564Y549285D01*
X748542Y549262D01*
X748486Y549217D01*
X747669Y548400D01*
X741406Y548400D01*
X740513Y549293D01*
X740513Y551168D01*
X740498Y551258D01*
X740491Y551349D01*
X740478Y551378D01*
X740473Y551410D01*
X740430Y551491D01*
X740395Y551575D01*
X740369Y551607D01*
X740358Y551628D01*
X740335Y551650D01*
X740290Y551706D01*
X739965Y552031D01*
X739965Y555819D01*
X740290Y556144D01*
X740343Y556218D01*
X740402Y556288D01*
X740415Y556318D01*
X740433Y556344D01*
X740460Y556431D01*
X740494Y556516D01*
X740499Y556557D01*
X740506Y556579D01*
X740505Y556611D01*
X740513Y556682D01*
X740513Y558557D01*
X741406Y559450D01*
X747669Y559450D01*
X748311Y558808D01*
X748385Y558755D01*
X748454Y558696D01*
X748484Y558683D01*
X748510Y558665D01*
X748597Y558638D01*
X748682Y558604D01*
X748723Y558599D01*
X748745Y558592D01*
X748778Y558593D01*
X748849Y558585D01*
X752214Y558585D01*
X752234Y558588D01*
X752253Y558586D01*
X752355Y558608D01*
X752457Y558625D01*
X752474Y558634D01*
X752494Y558639D01*
X752583Y558692D01*
X752674Y558740D01*
X752688Y558754D01*
X752705Y558765D01*
X752772Y558843D01*
X752844Y558918D01*
X752852Y558936D01*
X752865Y558952D01*
X752904Y559048D01*
X752947Y559141D01*
X752949Y559161D01*
X752957Y559180D01*
X752975Y559346D01*
X752975Y561338D01*
X752974Y561344D01*
X752974Y561345D01*
X752972Y561358D01*
X752974Y561377D01*
X752952Y561479D01*
X752936Y561581D01*
X752926Y561598D01*
X752922Y561618D01*
X752869Y561707D01*
X752820Y561798D01*
X752806Y561812D01*
X752796Y561829D01*
X752717Y561896D01*
X752642Y561968D01*
X752624Y561976D01*
X752609Y561989D01*
X752513Y562028D01*
X752419Y562071D01*
X752399Y562073D01*
X752381Y562081D01*
X752214Y562099D01*
X739045Y562099D01*
X738955Y562085D01*
X738864Y562077D01*
X738834Y562065D01*
X738802Y562060D01*
X738722Y562017D01*
X738638Y561981D01*
X738606Y561955D01*
X738585Y561944D01*
X738563Y561921D01*
X738507Y561876D01*
X701189Y524558D01*
X701136Y524484D01*
X701076Y524415D01*
X701064Y524384D01*
X701045Y524358D01*
X701018Y524271D01*
X700984Y524186D01*
X700980Y524146D01*
X700973Y524123D01*
X700974Y524091D01*
X700966Y524020D01*
X700966Y504358D01*
X700977Y504288D01*
X700979Y504216D01*
X700997Y504167D01*
X701005Y504116D01*
X701039Y504052D01*
X701064Y503985D01*
X701096Y503944D01*
X701121Y503898D01*
X701173Y503849D01*
X701217Y503793D01*
X701261Y503765D01*
X701299Y503729D01*
X701364Y503699D01*
X701424Y503660D01*
X701475Y503647D01*
X701522Y503625D01*
X701593Y503617D01*
X701663Y503600D01*
X701715Y503604D01*
X701766Y503598D01*
X701837Y503613D01*
G37*
G36*
X678020Y496397D02*
X678020Y496397D01*
X678125Y496407D01*
X678142Y496415D01*
X678159Y496417D01*
X678313Y496484D01*
X678686Y496700D01*
X678696Y496699D01*
X678757Y496713D01*
X678820Y496717D01*
X678904Y496746D01*
X678936Y496754D01*
X678951Y496763D01*
X678979Y496773D01*
X680859Y497678D01*
X680888Y497698D01*
X680920Y497710D01*
X680988Y497768D01*
X681061Y497819D01*
X681081Y497847D01*
X681108Y497869D01*
X681153Y497935D01*
X681768Y498124D01*
X681797Y498139D01*
X681874Y498166D01*
X682451Y498443D01*
X682522Y498437D01*
X682610Y498422D01*
X682644Y498427D01*
X682678Y498424D01*
X682843Y498456D01*
X684950Y499105D01*
X684981Y499120D01*
X685015Y499128D01*
X685090Y499175D01*
X685170Y499214D01*
X685194Y499239D01*
X685224Y499257D01*
X685278Y499315D01*
X685915Y499411D01*
X685946Y499421D01*
X686025Y499436D01*
X686637Y499625D01*
X686707Y499608D01*
X686791Y499580D01*
X686826Y499580D01*
X686860Y499572D01*
X687027Y499578D01*
X689207Y499906D01*
X689240Y499917D01*
X689275Y499919D01*
X689357Y499954D01*
X689441Y499981D01*
X689469Y500002D01*
X689501Y500016D01*
X689563Y500065D01*
X690207Y500065D01*
X690239Y500070D01*
X690320Y500073D01*
X690953Y500169D01*
X691020Y500142D01*
X691099Y500101D01*
X691133Y500096D01*
X691166Y500083D01*
X691332Y500065D01*
X693536Y500064D01*
X693571Y500069D01*
X693605Y500067D01*
X693691Y500089D01*
X693779Y500103D01*
X693810Y500120D01*
X693843Y500128D01*
X693912Y500168D01*
X694548Y500072D01*
X694581Y500072D01*
X694662Y500063D01*
X695123Y500063D01*
X695143Y500067D01*
X695162Y500064D01*
X695263Y500086D01*
X695366Y500103D01*
X695383Y500112D01*
X695403Y500117D01*
X695492Y500170D01*
X695583Y500218D01*
X695597Y500233D01*
X695614Y500243D01*
X695681Y500321D01*
X695752Y500396D01*
X695761Y500414D01*
X695774Y500430D01*
X695812Y500526D01*
X695856Y500619D01*
X695858Y500639D01*
X695866Y500658D01*
X695884Y500825D01*
X695884Y526440D01*
X736625Y567181D01*
X762476Y567181D01*
X762547Y567192D01*
X762618Y567194D01*
X762667Y567212D01*
X762719Y567220D01*
X762782Y567254D01*
X762849Y567279D01*
X762890Y567311D01*
X762936Y567336D01*
X762985Y567387D01*
X763041Y567432D01*
X763069Y567476D01*
X763105Y567514D01*
X763136Y567579D01*
X763174Y567639D01*
X763187Y567690D01*
X763209Y567737D01*
X763217Y567808D01*
X763234Y567878D01*
X763230Y567930D01*
X763236Y567981D01*
X763221Y568052D01*
X763215Y568123D01*
X763195Y568171D01*
X763184Y568222D01*
X763147Y568283D01*
X763119Y568349D01*
X763074Y568405D01*
X763058Y568433D01*
X763040Y568448D01*
X763014Y568480D01*
X757293Y574201D01*
X757199Y574269D01*
X757104Y574339D01*
X757098Y574341D01*
X757093Y574345D01*
X756982Y574379D01*
X756870Y574415D01*
X756864Y574415D01*
X756858Y574417D01*
X756741Y574414D01*
X756625Y574413D01*
X756617Y574411D01*
X756612Y574411D01*
X756595Y574404D01*
X756463Y574366D01*
X754294Y573468D01*
X750656Y573468D01*
X747295Y574860D01*
X744722Y577432D01*
X743330Y580794D01*
X743330Y584431D01*
X744722Y587793D01*
X747295Y590365D01*
X750656Y591757D01*
X753774Y591757D01*
X753845Y591769D01*
X753917Y591771D01*
X753966Y591789D01*
X754017Y591797D01*
X754080Y591830D01*
X754148Y591855D01*
X754189Y591888D01*
X754234Y591912D01*
X754284Y591964D01*
X754340Y592009D01*
X754368Y592053D01*
X754404Y592090D01*
X754434Y592155D01*
X754473Y592216D01*
X754486Y592266D01*
X754507Y592313D01*
X754515Y592385D01*
X754533Y592454D01*
X754529Y592506D01*
X754535Y592558D01*
X754519Y592628D01*
X754514Y592699D01*
X754493Y592747D01*
X754482Y592798D01*
X754445Y592860D01*
X754417Y592926D01*
X754373Y592982D01*
X754356Y593009D01*
X754338Y593025D01*
X754313Y593057D01*
X751900Y595470D01*
X751826Y595523D01*
X751756Y595582D01*
X751726Y595595D01*
X751700Y595613D01*
X751613Y595640D01*
X751528Y595674D01*
X751487Y595679D01*
X751465Y595686D01*
X751433Y595685D01*
X751361Y595693D01*
X743860Y595693D01*
X743770Y595678D01*
X743679Y595671D01*
X743650Y595658D01*
X743618Y595653D01*
X743537Y595610D01*
X743453Y595575D01*
X743421Y595549D01*
X743400Y595538D01*
X743378Y595515D01*
X743322Y595470D01*
X740673Y592820D01*
X740620Y592746D01*
X740560Y592677D01*
X740548Y592647D01*
X740529Y592621D01*
X740502Y592534D01*
X740468Y592449D01*
X740464Y592408D01*
X740457Y592386D01*
X740458Y592353D01*
X740450Y592282D01*
X740450Y583893D01*
X739557Y583000D01*
X727293Y583000D01*
X726400Y583893D01*
X726400Y595157D01*
X727293Y596050D01*
X735682Y596050D01*
X735772Y596064D01*
X735863Y596072D01*
X735893Y596084D01*
X735925Y596089D01*
X736005Y596132D01*
X736089Y596168D01*
X736122Y596194D01*
X736142Y596205D01*
X736164Y596228D01*
X736220Y596273D01*
X739370Y599422D01*
X741230Y601282D01*
X744435Y601282D01*
X744506Y601294D01*
X744577Y601296D01*
X744626Y601314D01*
X744678Y601322D01*
X744741Y601355D01*
X744808Y601380D01*
X744849Y601413D01*
X744895Y601437D01*
X744944Y601489D01*
X745000Y601534D01*
X745029Y601578D01*
X745064Y601615D01*
X745095Y601680D01*
X745133Y601741D01*
X745146Y601791D01*
X745168Y601838D01*
X745176Y601910D01*
X745193Y601979D01*
X745189Y602031D01*
X745195Y602083D01*
X745180Y602153D01*
X745174Y602225D01*
X745154Y602272D01*
X745143Y602323D01*
X745106Y602385D01*
X745078Y602451D01*
X745033Y602507D01*
X745017Y602534D01*
X744999Y602550D01*
X744973Y602582D01*
X744722Y602832D01*
X743330Y606194D01*
X743330Y609831D01*
X744722Y613193D01*
X745862Y614332D01*
X745904Y614390D01*
X745953Y614442D01*
X745975Y614490D01*
X746006Y614532D01*
X746027Y614600D01*
X746057Y614666D01*
X746063Y614717D01*
X746078Y614767D01*
X746076Y614839D01*
X746084Y614910D01*
X746073Y614961D01*
X746072Y615013D01*
X746047Y615080D01*
X746032Y615150D01*
X746005Y615195D01*
X745987Y615244D01*
X745942Y615300D01*
X745906Y615361D01*
X745866Y615395D01*
X745834Y615436D01*
X745773Y615475D01*
X745719Y615521D01*
X745670Y615541D01*
X745627Y615569D01*
X745557Y615586D01*
X745491Y615613D01*
X745419Y615621D01*
X745388Y615629D01*
X745365Y615627D01*
X745324Y615632D01*
X735347Y615632D01*
X735257Y615617D01*
X735166Y615610D01*
X735136Y615597D01*
X735104Y615592D01*
X735023Y615549D01*
X734939Y615514D01*
X734907Y615488D01*
X734887Y615477D01*
X734864Y615454D01*
X734809Y615409D01*
X728046Y608647D01*
X719172Y608647D01*
X719171Y608647D01*
X719170Y608647D01*
X719047Y608626D01*
X718930Y608607D01*
X718929Y608607D01*
X718928Y608606D01*
X718817Y608548D01*
X718712Y608492D01*
X718712Y608491D01*
X718711Y608491D01*
X718627Y608402D01*
X718543Y608314D01*
X718542Y608313D01*
X718542Y608312D01*
X718464Y608163D01*
X718343Y607857D01*
X718287Y607813D01*
X718212Y607764D01*
X718191Y607737D01*
X718163Y607716D01*
X718064Y607581D01*
X716963Y605671D01*
X716950Y605639D01*
X716931Y605610D01*
X716907Y605524D01*
X716876Y605441D01*
X716874Y605407D01*
X716865Y605373D01*
X716865Y605294D01*
X716464Y604790D01*
X716448Y604762D01*
X716400Y604696D01*
X716080Y604142D01*
X716018Y604106D01*
X715937Y604070D01*
X715911Y604046D01*
X715881Y604029D01*
X715763Y603910D01*
X714389Y602187D01*
X714372Y602156D01*
X714349Y602131D01*
X714312Y602049D01*
X714269Y601972D01*
X714262Y601938D01*
X714248Y601906D01*
X714237Y601828D01*
X713765Y601390D01*
X713745Y601364D01*
X713688Y601306D01*
X713288Y600805D01*
X713222Y600780D01*
X713136Y600756D01*
X713107Y600736D01*
X713075Y600724D01*
X712940Y600624D01*
X711325Y599124D01*
X711304Y599097D01*
X711277Y599075D01*
X711229Y599000D01*
X711174Y598930D01*
X711163Y598897D01*
X711144Y598868D01*
X711121Y598792D01*
X710589Y598429D01*
X710565Y598407D01*
X710500Y598358D01*
X710031Y597923D01*
X709961Y597907D01*
X709872Y597896D01*
X709841Y597881D01*
X709807Y597874D01*
X709659Y597795D01*
X707838Y596553D01*
X707813Y596529D01*
X707783Y596511D01*
X707725Y596445D01*
X707660Y596383D01*
X707644Y596353D01*
X707621Y596326D01*
X707587Y596255D01*
X707007Y595975D01*
X706980Y595957D01*
X706909Y595918D01*
X706380Y595558D01*
X706369Y595557D01*
X706329Y595561D01*
X706322Y595561D01*
X706275Y595554D01*
X706219Y595555D01*
X706186Y595545D01*
X706151Y595542D01*
X706103Y595525D01*
X706079Y595522D01*
X706053Y595508D01*
X705993Y595487D01*
X704008Y594530D01*
X703979Y594510D01*
X703947Y594497D01*
X703879Y594440D01*
X703806Y594389D01*
X703786Y594361D01*
X703759Y594338D01*
X703715Y594273D01*
X703100Y594083D01*
X703070Y594068D01*
X702994Y594041D01*
X702417Y593763D01*
X702345Y593769D01*
X702258Y593784D01*
X702224Y593779D01*
X702189Y593782D01*
X702024Y593751D01*
X699918Y593100D01*
X699887Y593085D01*
X699853Y593077D01*
X699777Y593030D01*
X699698Y592991D01*
X699674Y592966D01*
X699644Y592948D01*
X699590Y592890D01*
X698954Y592793D01*
X698922Y592783D01*
X698843Y592768D01*
X698231Y592579D01*
X698161Y592596D01*
X698077Y592624D01*
X698042Y592624D01*
X698008Y592632D01*
X697841Y592625D01*
X695661Y592296D01*
X695628Y592285D01*
X695594Y592283D01*
X695512Y592248D01*
X695427Y592221D01*
X695399Y592200D01*
X695367Y592186D01*
X695306Y592137D01*
X694662Y592137D01*
X694629Y592131D01*
X694548Y592128D01*
X693915Y592032D01*
X693849Y592059D01*
X693770Y592100D01*
X693735Y592105D01*
X693703Y592118D01*
X693536Y592136D01*
X691332Y592135D01*
X691298Y592130D01*
X691263Y592132D01*
X691177Y592110D01*
X691090Y592096D01*
X691059Y592079D01*
X691025Y592071D01*
X690957Y592031D01*
X690320Y592127D01*
X690287Y592126D01*
X690207Y592135D01*
X689566Y592135D01*
X689504Y592171D01*
X689432Y592223D01*
X689399Y592233D01*
X689369Y592251D01*
X689207Y592294D01*
X687027Y592622D01*
X686993Y592621D01*
X686959Y592629D01*
X686870Y592620D01*
X686782Y592619D01*
X686749Y592607D01*
X686714Y592604D01*
X686641Y592574D01*
X686025Y592764D01*
X685993Y592768D01*
X685914Y592789D01*
X685281Y592884D01*
X685225Y592930D01*
X685162Y592992D01*
X685131Y593007D01*
X685104Y593029D01*
X684950Y593095D01*
X682843Y593744D01*
X682809Y593749D01*
X682777Y593762D01*
X682688Y593766D01*
X682600Y593778D01*
X682566Y593771D01*
X682531Y593773D01*
X682454Y593755D01*
X681874Y594034D01*
X681842Y594044D01*
X681768Y594076D01*
X681156Y594264D01*
X681107Y594317D01*
X681054Y594388D01*
X681025Y594408D01*
X681002Y594433D01*
X680859Y594522D01*
X679573Y595141D01*
X679459Y595175D01*
X679344Y595210D01*
X679340Y595210D01*
X679337Y595211D01*
X679218Y595206D01*
X679098Y595202D01*
X679095Y595201D01*
X679092Y595201D01*
X678978Y595158D01*
X678867Y595117D01*
X678865Y595115D01*
X678862Y595114D01*
X678768Y595037D01*
X678676Y594963D01*
X678674Y594959D01*
X678671Y594958D01*
X678665Y594948D01*
X678578Y594826D01*
X660295Y562054D01*
X658909Y563011D01*
X658882Y563022D01*
X658860Y563041D01*
X658791Y563061D01*
X658726Y563089D01*
X658697Y563089D01*
X658669Y563097D01*
X658598Y563089D01*
X658527Y563090D01*
X658500Y563078D01*
X658471Y563075D01*
X658409Y563040D01*
X658344Y563012D01*
X658323Y562992D01*
X658298Y562977D01*
X658235Y562900D01*
X658205Y562870D01*
X658201Y562860D01*
X658192Y562849D01*
X648692Y546349D01*
X648668Y546276D01*
X648637Y546206D01*
X648637Y546182D01*
X648629Y546160D01*
X648636Y546084D01*
X648635Y546007D01*
X648644Y545983D01*
X648645Y545962D01*
X648666Y545923D01*
X648685Y545871D01*
X648686Y545865D01*
X648688Y545863D01*
X648692Y545851D01*
X650054Y543486D01*
X650060Y543447D01*
X650059Y543388D01*
X650078Y543326D01*
X650087Y543263D01*
X650122Y543185D01*
X650132Y543153D01*
X650143Y543138D01*
X650155Y543110D01*
X657378Y530765D01*
X658192Y529351D01*
X658211Y529329D01*
X658224Y529303D01*
X658245Y529284D01*
X677275Y496759D01*
X677286Y496746D01*
X677293Y496730D01*
X677365Y496651D01*
X677432Y496570D01*
X677447Y496561D01*
X677459Y496547D01*
X677551Y496496D01*
X677641Y496440D01*
X677658Y496436D01*
X677674Y496428D01*
X677777Y496408D01*
X677881Y496384D01*
X677898Y496386D01*
X677915Y496383D01*
X678020Y496397D01*
G37*
G36*
X954266Y593667D02*
X954266Y593667D01*
X954309Y593666D01*
X958302Y594267D01*
X958332Y594278D01*
X958375Y594283D01*
X962234Y595472D01*
X962262Y595487D01*
X962303Y595499D01*
X965941Y597250D01*
X965963Y597267D01*
X965989Y597276D01*
X966042Y597326D01*
X966100Y597370D01*
X966113Y597394D01*
X966133Y597413D01*
X966163Y597479D01*
X966199Y597543D01*
X966202Y597570D01*
X966213Y597595D01*
X966214Y597668D01*
X966223Y597740D01*
X966215Y597766D01*
X966215Y597794D01*
X966179Y597892D01*
X966167Y597931D01*
X966161Y597939D01*
X966157Y597950D01*
X939157Y644750D01*
X939139Y644770D01*
X939128Y644795D01*
X939074Y644844D01*
X939026Y644899D01*
X939001Y644910D01*
X938981Y644929D01*
X938912Y644953D01*
X938846Y644984D01*
X938819Y644986D01*
X938794Y644995D01*
X938721Y644990D01*
X938648Y644993D01*
X938622Y644984D01*
X938595Y644982D01*
X938499Y644938D01*
X938461Y644924D01*
X938454Y644917D01*
X938444Y644913D01*
X935107Y642639D01*
X935085Y642616D01*
X935049Y642593D01*
X932088Y639847D01*
X932069Y639821D01*
X932037Y639793D01*
X929519Y636637D01*
X929504Y636608D01*
X929477Y636575D01*
X927457Y633079D01*
X927447Y633049D01*
X927424Y633012D01*
X925948Y629254D01*
X925943Y629222D01*
X925926Y629182D01*
X925026Y625246D01*
X925026Y625214D01*
X925015Y625172D01*
X924712Y621146D01*
X924715Y621123D01*
X924712Y621103D01*
X924714Y621093D01*
X924712Y621072D01*
X925013Y617045D01*
X925021Y617014D01*
X925024Y616971D01*
X925921Y613035D01*
X925934Y613006D01*
X925943Y612963D01*
X927417Y609204D01*
X927434Y609177D01*
X927449Y609137D01*
X929467Y605640D01*
X929488Y605616D01*
X929509Y605578D01*
X932025Y602420D01*
X932050Y602400D01*
X932076Y602366D01*
X935035Y599618D01*
X935062Y599602D01*
X935093Y599572D01*
X938429Y597296D01*
X938458Y597284D01*
X938493Y597259D01*
X942131Y595506D01*
X942161Y595498D01*
X942200Y595479D01*
X946058Y594287D01*
X946090Y594284D01*
X946131Y594271D01*
X950123Y593668D01*
X950155Y593669D01*
X950197Y593662D01*
X954235Y593661D01*
X954266Y593667D01*
G37*
G36*
X694453Y593662D02*
X694453Y593662D01*
X694484Y593668D01*
X694527Y593668D01*
X698519Y594271D01*
X698549Y594282D01*
X698592Y594287D01*
X702450Y595479D01*
X702478Y595494D01*
X702520Y595506D01*
X706157Y597259D01*
X706182Y597278D01*
X706221Y597296D01*
X709557Y599572D01*
X709579Y599595D01*
X709615Y599618D01*
X712574Y602366D01*
X712593Y602391D01*
X712625Y602420D01*
X715141Y605578D01*
X715156Y605606D01*
X715183Y605640D01*
X717201Y609137D01*
X717211Y609167D01*
X717233Y609204D01*
X718707Y612963D01*
X718713Y612995D01*
X718729Y613035D01*
X719626Y616971D01*
X719627Y617003D01*
X719637Y617045D01*
X719938Y621072D01*
X719934Y621103D01*
X719935Y621119D01*
X719938Y621136D01*
X719937Y621140D01*
X719938Y621146D01*
X719635Y625172D01*
X719626Y625203D01*
X719624Y625246D01*
X718724Y629182D01*
X718711Y629211D01*
X718702Y629254D01*
X717226Y633012D01*
X717208Y633039D01*
X717193Y633079D01*
X715173Y636575D01*
X715152Y636599D01*
X715131Y636637D01*
X712613Y639793D01*
X712588Y639813D01*
X712562Y639847D01*
X709601Y642593D01*
X709574Y642609D01*
X709543Y642639D01*
X706206Y644913D01*
X706181Y644923D01*
X706160Y644940D01*
X706090Y644961D01*
X706023Y644990D01*
X705995Y644990D01*
X705969Y644997D01*
X705897Y644989D01*
X705824Y644989D01*
X705799Y644978D01*
X705772Y644975D01*
X705708Y644939D01*
X705641Y644911D01*
X705622Y644891D01*
X705599Y644878D01*
X705532Y644797D01*
X705503Y644767D01*
X705500Y644758D01*
X705493Y644750D01*
X678493Y597950D01*
X678484Y597924D01*
X678468Y597901D01*
X678453Y597830D01*
X678429Y597761D01*
X678432Y597734D01*
X678426Y597707D01*
X678439Y597636D01*
X678445Y597563D01*
X678458Y597538D01*
X678463Y597512D01*
X678503Y597451D01*
X678537Y597386D01*
X678558Y597369D01*
X678573Y597346D01*
X678659Y597285D01*
X678690Y597260D01*
X678699Y597257D01*
X678709Y597250D01*
X682347Y595499D01*
X682378Y595492D01*
X682416Y595472D01*
X686275Y594283D01*
X686307Y594280D01*
X686348Y594267D01*
X690341Y593666D01*
X690372Y593668D01*
X690415Y593661D01*
X694453Y593662D01*
G37*
G36*
X938753Y447211D02*
X938753Y447211D01*
X938826Y447211D01*
X938851Y447222D01*
X938878Y447225D01*
X938942Y447261D01*
X939009Y447289D01*
X939028Y447309D01*
X939051Y447322D01*
X939119Y447403D01*
X939147Y447433D01*
X939150Y447442D01*
X939157Y447451D01*
X966157Y494251D01*
X966166Y494276D01*
X966182Y494299D01*
X966197Y494370D01*
X966221Y494439D01*
X966218Y494466D01*
X966224Y494493D01*
X966211Y494564D01*
X966205Y494637D01*
X966192Y494662D01*
X966187Y494688D01*
X966147Y494749D01*
X966113Y494814D01*
X966092Y494831D01*
X966077Y494854D01*
X965991Y494915D01*
X965960Y494940D01*
X965951Y494943D01*
X965941Y494950D01*
X962303Y496701D01*
X962272Y496708D01*
X962234Y496728D01*
X958375Y497917D01*
X958343Y497920D01*
X958302Y497933D01*
X954309Y498534D01*
X954278Y498532D01*
X954235Y498539D01*
X950197Y498538D01*
X950166Y498532D01*
X950123Y498532D01*
X946131Y497929D01*
X946101Y497918D01*
X946058Y497913D01*
X942200Y496721D01*
X942172Y496706D01*
X942131Y496694D01*
X938493Y494941D01*
X938468Y494922D01*
X938429Y494904D01*
X935093Y492628D01*
X935071Y492605D01*
X935035Y492582D01*
X932076Y489834D01*
X932057Y489809D01*
X932025Y489780D01*
X929509Y486622D01*
X929494Y486594D01*
X929467Y486560D01*
X927449Y483063D01*
X927439Y483033D01*
X927417Y482996D01*
X925943Y479237D01*
X925937Y479205D01*
X925921Y479165D01*
X925024Y475229D01*
X925023Y475197D01*
X925013Y475155D01*
X924712Y471129D01*
X924716Y471097D01*
X924712Y471054D01*
X925015Y467028D01*
X925024Y466997D01*
X925026Y466954D01*
X925926Y463018D01*
X925939Y462989D01*
X925948Y462946D01*
X927424Y459188D01*
X927442Y459161D01*
X927457Y459121D01*
X929477Y455625D01*
X929498Y455601D01*
X929519Y455563D01*
X932037Y452407D01*
X932062Y452387D01*
X932088Y452353D01*
X935049Y449607D01*
X935076Y449591D01*
X935107Y449561D01*
X938444Y447287D01*
X938469Y447277D01*
X938490Y447260D01*
X938560Y447239D01*
X938627Y447210D01*
X938655Y447211D01*
X938681Y447203D01*
X938753Y447211D01*
G37*
G36*
X705929Y447210D02*
X705929Y447210D01*
X706002Y447207D01*
X706028Y447216D01*
X706055Y447218D01*
X706151Y447262D01*
X706189Y447276D01*
X706196Y447283D01*
X706206Y447287D01*
X709543Y449561D01*
X709565Y449584D01*
X709601Y449607D01*
X712562Y452353D01*
X712581Y452379D01*
X712613Y452407D01*
X715131Y455563D01*
X715146Y455592D01*
X715173Y455625D01*
X717193Y459121D01*
X717203Y459151D01*
X717226Y459188D01*
X718702Y462946D01*
X718707Y462978D01*
X718724Y463018D01*
X719624Y466954D01*
X719624Y466986D01*
X719635Y467028D01*
X719938Y471054D01*
X719934Y471085D01*
X719938Y471129D01*
X719637Y475155D01*
X719629Y475186D01*
X719626Y475229D01*
X718729Y479165D01*
X718716Y479194D01*
X718707Y479237D01*
X717233Y482996D01*
X717216Y483023D01*
X717201Y483063D01*
X715183Y486560D01*
X715162Y486584D01*
X715141Y486622D01*
X712625Y489780D01*
X712600Y489800D01*
X712574Y489834D01*
X709615Y492582D01*
X709588Y492598D01*
X709557Y492628D01*
X706221Y494904D01*
X706192Y494916D01*
X706157Y494941D01*
X702520Y496694D01*
X702489Y496702D01*
X702450Y496721D01*
X698592Y497913D01*
X698560Y497916D01*
X698519Y497929D01*
X694527Y498532D01*
X694495Y498531D01*
X694453Y498538D01*
X690415Y498539D01*
X690384Y498533D01*
X690341Y498534D01*
X686348Y497933D01*
X686318Y497922D01*
X686275Y497917D01*
X682416Y496728D01*
X682388Y496713D01*
X682347Y496701D01*
X678709Y494950D01*
X678687Y494933D01*
X678661Y494924D01*
X678608Y494874D01*
X678550Y494830D01*
X678537Y494806D01*
X678517Y494787D01*
X678487Y494721D01*
X678451Y494657D01*
X678448Y494630D01*
X678437Y494605D01*
X678436Y494532D01*
X678427Y494460D01*
X678435Y494434D01*
X678435Y494406D01*
X678471Y494308D01*
X678483Y494269D01*
X678489Y494261D01*
X678493Y494251D01*
X705493Y447451D01*
X705511Y447430D01*
X705522Y447405D01*
X705576Y447356D01*
X705624Y447302D01*
X705649Y447290D01*
X705669Y447271D01*
X705738Y447247D01*
X705804Y447216D01*
X705831Y447215D01*
X705856Y447205D01*
X705929Y447210D01*
G37*
G36*
X824374Y668683D02*
X824374Y668683D01*
X824417Y668682D01*
X828407Y669283D01*
X828437Y669294D01*
X828480Y669300D01*
X832336Y670489D01*
X832364Y670505D01*
X832406Y670517D01*
X836042Y672268D01*
X836067Y672287D01*
X836106Y672305D01*
X839440Y674578D01*
X839463Y674601D01*
X839499Y674625D01*
X842457Y677369D01*
X842476Y677395D01*
X842508Y677424D01*
X845024Y680579D01*
X845038Y680607D01*
X845066Y680641D01*
X847084Y684136D01*
X847094Y684166D01*
X847116Y684203D01*
X848590Y687959D01*
X848591Y687966D01*
X848593Y687967D01*
X848597Y687994D01*
X848612Y688031D01*
X849510Y691965D01*
X849511Y691997D01*
X849521Y692039D01*
X849823Y696063D01*
X849819Y696090D01*
X849824Y696117D01*
X849807Y696187D01*
X849798Y696260D01*
X849784Y696284D01*
X849778Y696310D01*
X849735Y696369D01*
X849698Y696432D01*
X849676Y696448D01*
X849660Y696470D01*
X849597Y696507D01*
X849539Y696551D01*
X849512Y696558D01*
X849489Y696572D01*
X849385Y696589D01*
X849346Y696599D01*
X849336Y696597D01*
X849325Y696599D01*
X795325Y696599D01*
X795298Y696594D01*
X795271Y696596D01*
X795202Y696574D01*
X795130Y696560D01*
X795108Y696544D01*
X795082Y696536D01*
X795026Y696488D01*
X794966Y696447D01*
X794952Y696424D01*
X794931Y696406D01*
X794899Y696341D01*
X794859Y696280D01*
X794855Y696253D01*
X794843Y696228D01*
X794833Y696124D01*
X794826Y696083D01*
X794828Y696074D01*
X794827Y696063D01*
X795129Y692039D01*
X795137Y692008D01*
X795140Y691965D01*
X796038Y688031D01*
X796051Y688002D01*
X796060Y687959D01*
X797534Y684203D01*
X797551Y684176D01*
X797566Y684136D01*
X799584Y680641D01*
X799605Y680617D01*
X799626Y680579D01*
X802142Y677424D01*
X802167Y677404D01*
X802193Y677369D01*
X805151Y674625D01*
X805178Y674608D01*
X805210Y674578D01*
X808544Y672305D01*
X808573Y672292D01*
X808608Y672268D01*
X812244Y670517D01*
X812275Y670509D01*
X812314Y670489D01*
X816170Y669300D01*
X816201Y669297D01*
X816243Y669283D01*
X820233Y668682D01*
X820265Y668683D01*
X820307Y668676D01*
X824343Y668676D01*
X824374Y668683D01*
G37*
G36*
X849352Y395606D02*
X849352Y395606D01*
X849379Y395604D01*
X849448Y395626D01*
X849520Y395640D01*
X849542Y395656D01*
X849568Y395664D01*
X849624Y395712D01*
X849684Y395753D01*
X849698Y395776D01*
X849719Y395794D01*
X849752Y395859D01*
X849791Y395920D01*
X849795Y395947D01*
X849807Y395972D01*
X849817Y396076D01*
X849824Y396117D01*
X849822Y396126D01*
X849823Y396137D01*
X849521Y400161D01*
X849513Y400192D01*
X849510Y400235D01*
X848612Y404169D01*
X848599Y404198D01*
X848590Y404241D01*
X847116Y407997D01*
X847099Y408024D01*
X847084Y408065D01*
X845066Y411559D01*
X845045Y411583D01*
X845024Y411621D01*
X842508Y414776D01*
X842483Y414796D01*
X842457Y414831D01*
X839499Y417575D01*
X839472Y417592D01*
X839440Y417622D01*
X836106Y419895D01*
X836077Y419908D01*
X836042Y419933D01*
X832406Y421683D01*
X832375Y421691D01*
X832336Y421711D01*
X828480Y422900D01*
X828449Y422903D01*
X828407Y422917D01*
X824417Y423518D01*
X824385Y423517D01*
X824343Y423524D01*
X820307Y423524D01*
X820276Y423517D01*
X820233Y423518D01*
X816243Y422917D01*
X816213Y422906D01*
X816170Y422900D01*
X812314Y421711D01*
X812286Y421695D01*
X812244Y421683D01*
X808608Y419933D01*
X808583Y419913D01*
X808544Y419895D01*
X805210Y417622D01*
X805187Y417599D01*
X805151Y417575D01*
X802193Y414831D01*
X802175Y414805D01*
X802142Y414776D01*
X799626Y411621D01*
X799612Y411593D01*
X799584Y411559D01*
X797566Y408065D01*
X797556Y408034D01*
X797534Y407997D01*
X796060Y404241D01*
X796054Y404209D01*
X796038Y404169D01*
X795140Y400235D01*
X795139Y400203D01*
X795129Y400161D01*
X794827Y396137D01*
X794831Y396110D01*
X794826Y396083D01*
X794843Y396013D01*
X794852Y395940D01*
X794866Y395916D01*
X794872Y395890D01*
X794915Y395831D01*
X794952Y395768D01*
X794974Y395752D01*
X794990Y395730D01*
X795053Y395693D01*
X795111Y395649D01*
X795138Y395642D01*
X795161Y395628D01*
X795265Y395611D01*
X795304Y395601D01*
X795314Y395603D01*
X795325Y395601D01*
X849325Y395601D01*
X849352Y395606D01*
G37*
G36*
X854915Y546941D02*
X854915Y546941D01*
X855006Y546948D01*
X855036Y546961D01*
X855068Y546966D01*
X855149Y547009D01*
X855233Y547044D01*
X855265Y547070D01*
X855285Y547081D01*
X855308Y547104D01*
X855322Y547116D01*
X858491Y547116D01*
X858581Y547131D01*
X858672Y547138D01*
X858702Y547150D01*
X858734Y547156D01*
X858814Y547198D01*
X858898Y547234D01*
X858930Y547260D01*
X858951Y547271D01*
X858973Y547294D01*
X859029Y547339D01*
X868362Y556672D01*
X870170Y556672D01*
X870261Y556686D01*
X870351Y556694D01*
X870381Y556706D01*
X870413Y556711D01*
X870494Y556754D01*
X870578Y556790D01*
X870610Y556816D01*
X870631Y556826D01*
X870653Y556850D01*
X870709Y556895D01*
X876838Y563024D01*
X876891Y563098D01*
X876951Y563168D01*
X876963Y563198D01*
X876982Y563224D01*
X877009Y563311D01*
X877043Y563396D01*
X877047Y563437D01*
X877054Y563459D01*
X877053Y563491D01*
X877061Y563563D01*
X877061Y614363D01*
X877047Y614453D01*
X877039Y614544D01*
X877027Y614573D01*
X877022Y614605D01*
X876979Y614686D01*
X876943Y614770D01*
X876917Y614802D01*
X876906Y614823D01*
X876883Y614845D01*
X876838Y614901D01*
X875251Y616488D01*
X875177Y616541D01*
X875107Y616601D01*
X875077Y616613D01*
X875051Y616632D01*
X874964Y616659D01*
X874879Y616693D01*
X874838Y616697D01*
X874816Y616704D01*
X874784Y616703D01*
X874713Y616711D01*
X865188Y616711D01*
X865168Y616708D01*
X865148Y616710D01*
X865047Y616688D01*
X864945Y616672D01*
X864927Y616662D01*
X864908Y616658D01*
X864819Y616605D01*
X864727Y616556D01*
X864714Y616542D01*
X864697Y616532D01*
X864629Y616453D01*
X864558Y616378D01*
X864550Y616360D01*
X864537Y616345D01*
X864498Y616249D01*
X864454Y616155D01*
X864452Y616135D01*
X864445Y616117D01*
X864426Y615950D01*
X864426Y562290D01*
X861697Y559561D01*
X854075Y559561D01*
X854055Y559558D01*
X854036Y559560D01*
X853934Y559538D01*
X853832Y559522D01*
X853815Y559512D01*
X853795Y559508D01*
X853706Y559455D01*
X853615Y559406D01*
X853601Y559392D01*
X853584Y559382D01*
X853517Y559303D01*
X853446Y559228D01*
X853437Y559210D01*
X853424Y559195D01*
X853385Y559099D01*
X853342Y559005D01*
X853340Y558985D01*
X853332Y558967D01*
X853314Y558800D01*
X853314Y547688D01*
X853317Y547668D01*
X853315Y547648D01*
X853337Y547547D01*
X853354Y547445D01*
X853363Y547427D01*
X853367Y547408D01*
X853420Y547319D01*
X853469Y547227D01*
X853483Y547214D01*
X853493Y547197D01*
X853572Y547129D01*
X853647Y547058D01*
X853665Y547050D01*
X853680Y547037D01*
X853776Y546998D01*
X853870Y546954D01*
X853890Y546952D01*
X853908Y546945D01*
X854075Y546926D01*
X854825Y546926D01*
X854915Y546941D01*
G37*
%LPC*%
G36*
X921725Y536955D02*
X921725Y536955D01*
X916368Y542312D01*
X916368Y549888D01*
X921725Y555245D01*
X929300Y555245D01*
X934657Y549888D01*
X934657Y542312D01*
X929300Y536955D01*
X921725Y536955D01*
G37*
%LPD*%
%LPC*%
G36*
X824131Y605225D02*
X824131Y605225D01*
X823238Y606118D01*
X823238Y617382D01*
X824131Y618275D01*
X826269Y618275D01*
X826289Y618278D01*
X826308Y618276D01*
X826410Y618298D01*
X826512Y618314D01*
X826529Y618324D01*
X826549Y618328D01*
X826638Y618381D01*
X826729Y618430D01*
X826743Y618444D01*
X826760Y618454D01*
X826827Y618533D01*
X826899Y618608D01*
X826907Y618626D01*
X826920Y618641D01*
X826959Y618737D01*
X827002Y618831D01*
X827004Y618851D01*
X827012Y618869D01*
X827030Y619036D01*
X827030Y623463D01*
X827016Y623553D01*
X827008Y623644D01*
X826996Y623673D01*
X826991Y623705D01*
X826948Y623786D01*
X826912Y623870D01*
X826886Y623902D01*
X826875Y623923D01*
X826852Y623945D01*
X826807Y624001D01*
X825526Y625282D01*
X825526Y628843D01*
X828044Y631361D01*
X831606Y631361D01*
X834124Y628843D01*
X834124Y625282D01*
X832843Y624001D01*
X832790Y623927D01*
X832730Y623857D01*
X832718Y623827D01*
X832699Y623801D01*
X832672Y623714D01*
X832638Y623629D01*
X832634Y623588D01*
X832627Y623566D01*
X832628Y623534D01*
X832620Y623463D01*
X832620Y619036D01*
X832623Y619016D01*
X832621Y618997D01*
X832643Y618895D01*
X832659Y618793D01*
X832669Y618776D01*
X832673Y618756D01*
X832726Y618667D01*
X832775Y618576D01*
X832789Y618562D01*
X832799Y618545D01*
X832878Y618478D01*
X832953Y618406D01*
X832971Y618398D01*
X832986Y618385D01*
X833082Y618346D01*
X833176Y618303D01*
X833196Y618301D01*
X833214Y618293D01*
X833381Y618275D01*
X836394Y618275D01*
X837287Y617382D01*
X837287Y606118D01*
X836394Y605225D01*
X824131Y605225D01*
G37*
%LPD*%
%LPC*%
G36*
X863818Y622688D02*
X863818Y622688D01*
X862925Y623581D01*
X862925Y634844D01*
X863818Y635737D01*
X863914Y635737D01*
X863934Y635740D01*
X863953Y635738D01*
X864055Y635760D01*
X864157Y635777D01*
X864174Y635786D01*
X864194Y635791D01*
X864283Y635844D01*
X864374Y635892D01*
X864388Y635906D01*
X864405Y635917D01*
X864472Y635995D01*
X864544Y636070D01*
X864552Y636088D01*
X864565Y636104D01*
X864604Y636200D01*
X864647Y636293D01*
X864649Y636313D01*
X864657Y636332D01*
X864675Y636498D01*
X864675Y640360D01*
X867765Y643450D01*
X872135Y643450D01*
X875225Y640360D01*
X875225Y636498D01*
X875228Y636479D01*
X875226Y636459D01*
X875248Y636358D01*
X875264Y636256D01*
X875274Y636238D01*
X875278Y636219D01*
X875331Y636130D01*
X875380Y636038D01*
X875394Y636025D01*
X875404Y636008D01*
X875483Y635940D01*
X875558Y635869D01*
X875576Y635861D01*
X875591Y635848D01*
X875687Y635809D01*
X875781Y635765D01*
X875801Y635763D01*
X875819Y635756D01*
X875986Y635737D01*
X876082Y635737D01*
X876975Y634844D01*
X876975Y623581D01*
X876082Y622688D01*
X863818Y622688D01*
G37*
%LPD*%
G36*
X889757Y585792D02*
X889757Y585792D01*
X889776Y585789D01*
X889878Y585811D01*
X889980Y585828D01*
X889997Y585837D01*
X890017Y585842D01*
X890106Y585895D01*
X890197Y585943D01*
X890211Y585958D01*
X890228Y585968D01*
X890295Y586047D01*
X890366Y586122D01*
X890375Y586140D01*
X890388Y586155D01*
X890427Y586251D01*
X890470Y586345D01*
X890472Y586364D01*
X890480Y586383D01*
X890498Y586550D01*
X890498Y599313D01*
X890495Y599333D01*
X890497Y599352D01*
X890475Y599454D01*
X890458Y599556D01*
X890449Y599573D01*
X890445Y599593D01*
X890392Y599682D01*
X890343Y599773D01*
X890329Y599787D01*
X890319Y599804D01*
X890240Y599871D01*
X890165Y599942D01*
X890147Y599951D01*
X890132Y599964D01*
X890036Y600003D01*
X889942Y600046D01*
X889922Y600048D01*
X889904Y600056D01*
X889737Y600074D01*
X888213Y600074D01*
X888193Y600071D01*
X888174Y600073D01*
X888072Y600051D01*
X887970Y600034D01*
X887953Y600025D01*
X887933Y600021D01*
X887844Y599968D01*
X887753Y599919D01*
X887739Y599905D01*
X887722Y599895D01*
X887655Y599816D01*
X887584Y599741D01*
X887575Y599723D01*
X887562Y599708D01*
X887523Y599612D01*
X887480Y599518D01*
X887478Y599498D01*
X887470Y599480D01*
X887452Y599313D01*
X887452Y586550D01*
X887455Y586530D01*
X887453Y586510D01*
X887475Y586409D01*
X887492Y586307D01*
X887501Y586289D01*
X887505Y586270D01*
X887558Y586181D01*
X887607Y586089D01*
X887621Y586076D01*
X887631Y586059D01*
X887710Y585991D01*
X887785Y585920D01*
X887803Y585912D01*
X887818Y585899D01*
X887914Y585860D01*
X888008Y585816D01*
X888028Y585814D01*
X888046Y585807D01*
X888213Y585788D01*
X889737Y585788D01*
X889757Y585792D01*
G37*
G36*
X889757Y600079D02*
X889757Y600079D01*
X889776Y600077D01*
X889878Y600099D01*
X889980Y600116D01*
X889997Y600125D01*
X890017Y600129D01*
X890106Y600182D01*
X890197Y600231D01*
X890211Y600245D01*
X890228Y600255D01*
X890295Y600334D01*
X890366Y600409D01*
X890375Y600427D01*
X890388Y600442D01*
X890427Y600538D01*
X890470Y600632D01*
X890472Y600652D01*
X890480Y600670D01*
X890498Y600837D01*
X890498Y610694D01*
X890505Y610710D01*
X890523Y610877D01*
X890523Y611450D01*
X890520Y611470D01*
X890522Y611490D01*
X890500Y611591D01*
X890483Y611693D01*
X890474Y611711D01*
X890470Y611730D01*
X890417Y611819D01*
X890368Y611911D01*
X890354Y611924D01*
X890344Y611941D01*
X890265Y612009D01*
X890190Y612080D01*
X890172Y612088D01*
X890157Y612101D01*
X890061Y612140D01*
X889967Y612184D01*
X889947Y612186D01*
X889929Y612193D01*
X889762Y612212D01*
X888238Y612212D01*
X888218Y612208D01*
X888199Y612211D01*
X888097Y612189D01*
X887995Y612172D01*
X887978Y612163D01*
X887958Y612158D01*
X887869Y612105D01*
X887778Y612057D01*
X887764Y612042D01*
X887747Y612032D01*
X887680Y611953D01*
X887609Y611878D01*
X887600Y611860D01*
X887587Y611845D01*
X887548Y611749D01*
X887505Y611655D01*
X887503Y611636D01*
X887495Y611617D01*
X887477Y611450D01*
X887477Y604093D01*
X887470Y604077D01*
X887452Y603911D01*
X887452Y600837D01*
X887455Y600817D01*
X887453Y600798D01*
X887475Y600696D01*
X887492Y600594D01*
X887501Y600577D01*
X887505Y600557D01*
X887558Y600468D01*
X887607Y600377D01*
X887621Y600363D01*
X887631Y600346D01*
X887710Y600279D01*
X887785Y600208D01*
X887803Y600199D01*
X887818Y600186D01*
X887914Y600147D01*
X888008Y600104D01*
X888028Y600102D01*
X888046Y600094D01*
X888213Y600076D01*
X889737Y600076D01*
X889757Y600079D01*
G37*
G36*
X888757Y565154D02*
X888757Y565154D01*
X888776Y565152D01*
X888878Y565174D01*
X888980Y565191D01*
X888997Y565200D01*
X889017Y565204D01*
X889106Y565257D01*
X889197Y565306D01*
X889211Y565320D01*
X889228Y565330D01*
X889295Y565409D01*
X889366Y565484D01*
X889375Y565502D01*
X889388Y565517D01*
X889427Y565613D01*
X889470Y565707D01*
X889472Y565727D01*
X889480Y565745D01*
X889498Y565912D01*
X889498Y573913D01*
X889495Y573933D01*
X889497Y573952D01*
X889475Y574054D01*
X889458Y574156D01*
X889449Y574173D01*
X889445Y574193D01*
X889392Y574282D01*
X889343Y574373D01*
X889329Y574387D01*
X889319Y574404D01*
X889240Y574471D01*
X889165Y574542D01*
X889147Y574551D01*
X889132Y574564D01*
X889036Y574603D01*
X888942Y574646D01*
X888922Y574648D01*
X888904Y574656D01*
X888737Y574674D01*
X887213Y574674D01*
X887193Y574671D01*
X887174Y574673D01*
X887072Y574651D01*
X886970Y574634D01*
X886953Y574625D01*
X886933Y574621D01*
X886844Y574568D01*
X886753Y574519D01*
X886739Y574505D01*
X886722Y574495D01*
X886655Y574416D01*
X886584Y574341D01*
X886575Y574323D01*
X886562Y574308D01*
X886523Y574212D01*
X886480Y574118D01*
X886478Y574098D01*
X886470Y574080D01*
X886452Y573913D01*
X886452Y565912D01*
X886455Y565892D01*
X886453Y565873D01*
X886475Y565771D01*
X886492Y565669D01*
X886501Y565652D01*
X886505Y565632D01*
X886558Y565543D01*
X886607Y565452D01*
X886621Y565438D01*
X886631Y565421D01*
X886710Y565354D01*
X886785Y565283D01*
X886803Y565274D01*
X886818Y565261D01*
X886914Y565222D01*
X887008Y565179D01*
X887028Y565177D01*
X887046Y565169D01*
X887213Y565151D01*
X888737Y565151D01*
X888757Y565154D01*
G37*
D10*
X869975Y585788D03*
X888975Y585788D03*
D11*
X773113Y553013D03*
X773113Y536013D03*
D12*
X762000Y554013D03*
X762000Y535013D03*
D13*
X870975Y574675D03*
X887975Y574675D03*
X870975Y565150D03*
X887975Y565150D03*
D10*
X869975Y600075D03*
X888975Y600075D03*
D13*
X869950Y612213D03*
X869950Y629213D03*
D14*
X925513Y546100D03*
D15*
X752475Y633413D03*
X752475Y608013D03*
X752475Y582613D03*
D16*
X904925Y689200D03*
X987525Y546100D03*
X904925Y403000D03*
X739725Y403000D03*
X657125Y546100D03*
X739725Y689200D03*
X946225Y617600D03*
X946225Y474600D03*
X822325Y403000D03*
X698425Y474600D03*
X698425Y617600D03*
X822325Y689200D03*
D13*
X830263Y594750D03*
X830263Y611750D03*
X889000Y629213D03*
X889000Y612213D03*
X733425Y572525D03*
X733425Y589525D03*
D17*
X856125Y573607D03*
X856125Y568606D03*
X856125Y563604D03*
X856125Y558603D03*
X856125Y553602D03*
X856125Y548601D03*
X856125Y543599D03*
X856125Y538598D03*
X856125Y533597D03*
X856125Y528596D03*
X856125Y523594D03*
X856125Y518593D03*
D18*
X849832Y512300D03*
X844831Y512300D03*
X839829Y512300D03*
X834828Y512300D03*
X829827Y512300D03*
X824826Y512300D03*
X819824Y512300D03*
X814823Y512300D03*
X809822Y512300D03*
X804821Y512300D03*
X799819Y512300D03*
X794818Y512300D03*
D17*
X788525Y518593D03*
X788525Y523594D03*
X788525Y528596D03*
X788525Y533597D03*
X788525Y538598D03*
X788525Y543599D03*
X788525Y548601D03*
X788525Y553602D03*
X788525Y558603D03*
X788525Y563604D03*
X788525Y568606D03*
X788525Y573607D03*
D18*
X794818Y579900D03*
X799819Y579900D03*
X804821Y579900D03*
X809822Y579900D03*
X814823Y579900D03*
X819824Y579900D03*
X824826Y579900D03*
X829827Y579900D03*
X834828Y579900D03*
X839829Y579900D03*
X844831Y579900D03*
X849832Y579900D03*
D19*
X822325Y546100D03*
D20*
X877888Y524575D03*
X877888Y536575D03*
X877888Y548575D03*
D21*
X744538Y531925D03*
X744538Y553925D03*
D22*
X744625Y554013D01*
X762000Y554013D01*
X768350Y554013D02*
X772113Y554013D01*
X773113Y553013D01*
D23*
X777524Y548601D02*
X788525Y548601D01*
X777524Y548601D02*
X772113Y554013D01*
D22*
X869950Y629213D02*
X869950Y638175D01*
D24*
X869950Y638175D03*
D22*
X768350Y554013D02*
X762000Y554013D01*
D24*
X768350Y554013D03*
X842963Y552450D03*
X690563Y506413D03*
X715963Y496888D03*
X717550Y522228D03*
X795338Y417513D03*
X817563Y428625D03*
X920750Y455613D03*
X919163Y479425D03*
X968375Y577850D03*
X941388Y585788D03*
X838200Y666750D03*
X811213Y663575D03*
D25*
X814825Y627063D03*
D24*
X858201Y582613D03*
D25*
X723995Y616792D03*
D26*
X782451Y621729D02*
X815435Y588744D01*
X815435Y580512D02*
X814823Y579900D01*
X815435Y580512D02*
X815435Y588744D01*
X727744Y621729D02*
X723995Y617979D01*
X723995Y616792D01*
X727744Y621729D02*
X782451Y621729D01*
X704838Y611188D02*
X698425Y617600D01*
X733979Y618173D02*
X780415Y618173D01*
X809822Y588766D01*
X733979Y618173D02*
X726994Y611188D01*
X809822Y588766D02*
X809822Y579900D01*
X726994Y611188D02*
X704838Y611188D01*
X804821Y512300D02*
X804821Y430254D01*
X808038Y427038D01*
D25*
X808038Y427038D03*
D26*
X788525Y538598D02*
X783073Y538598D01*
X780653Y536178D02*
X780653Y529460D01*
X767130Y515938D01*
X719138Y515938D01*
X704968Y501768D01*
X704968Y500443D01*
D25*
X704968Y500443D03*
D26*
X780653Y536178D02*
X783073Y538598D01*
X799819Y425506D02*
X822325Y403000D01*
X799819Y425506D02*
X799819Y512300D01*
X698425Y525388D02*
X698425Y474600D01*
X698425Y525388D02*
X737678Y564640D01*
X780653Y559565D02*
X780653Y558648D01*
X785698Y553602D01*
X788525Y553602D01*
X775577Y564640D02*
X737678Y564640D01*
X775577Y564640D02*
X780653Y559565D01*
D23*
X856125Y543599D02*
X856593Y544067D01*
X860138Y544067D01*
X861923Y545853D01*
X869625Y553623D02*
X882650Y553623D01*
X861923Y545921D02*
X861923Y545853D01*
X861923Y545921D02*
X869625Y553623D01*
X882650Y553623D02*
X887975Y558948D01*
X887975Y565150D01*
D27*
X888975Y575675D02*
X888975Y585788D01*
X888975Y575675D02*
X887975Y574675D01*
D26*
X849832Y512300D02*
X892975Y469157D01*
X918957Y469157D01*
D25*
X918957Y469157D03*
D26*
X844831Y579900D02*
X844831Y637894D01*
X820370Y662355D02*
X820370Y664314D01*
D25*
X820370Y664314D03*
D26*
X820370Y662355D02*
X844831Y637894D01*
X847294Y507010D02*
X848715Y507010D01*
X892175Y463550D01*
X844831Y509473D02*
X844831Y512300D01*
X844831Y509473D02*
X847294Y507010D01*
X892175Y463550D02*
X935175Y463550D01*
X946225Y474600D01*
X822325Y671738D02*
X822325Y689200D01*
X822325Y671738D02*
X849832Y644231D01*
X849832Y579900D01*
X856125Y523594D02*
X859736Y523594D01*
D24*
X954666Y588386D03*
D26*
X942404Y575691D02*
X925721Y575691D01*
X954666Y587953D02*
X954666Y588386D01*
X954666Y587953D02*
X942404Y575691D01*
X869645Y513685D02*
X859736Y523594D01*
X869645Y513685D02*
X888335Y513685D01*
X903288Y553258D02*
X925721Y575691D01*
X903288Y528638D02*
X888335Y513685D01*
X903288Y528638D02*
X903288Y553258D01*
X909003Y550308D02*
X927654Y568960D01*
X946785Y568960D01*
X962025Y584200D01*
X866176Y508542D02*
X856125Y518593D01*
X962025Y584200D02*
X962025Y593725D01*
X946225Y609525D02*
X946225Y617600D01*
X946225Y609525D02*
X962025Y593725D01*
X909003Y524561D02*
X892983Y508542D01*
X866176Y508542D01*
X909003Y524561D02*
X909003Y550308D01*
D27*
X830263Y611750D02*
X829825Y612188D01*
X829825Y627063D01*
D25*
X829825Y627063D03*
D28*
X864149Y527050D03*
D27*
X862603Y528596D01*
X856125Y528596D01*
D26*
X867278Y533597D02*
X876300Y524575D01*
X877888Y524575D01*
X867278Y533597D02*
X856125Y533597D01*
X856125Y538598D02*
X857062Y539535D01*
X876743Y548575D02*
X877888Y548575D01*
X867703Y539535D02*
X857062Y539535D01*
X867703Y539535D02*
X876743Y548575D01*
X788525Y573607D02*
X777356Y573607D01*
X752475Y598488D02*
X752475Y608013D01*
X752475Y598488D02*
X777356Y573607D01*
D27*
X742388Y598488D02*
X733425Y589525D01*
X742388Y598488D02*
X752475Y598488D01*
D26*
X752475Y582613D02*
X766482Y568606D01*
X788525Y568606D01*
D27*
X839829Y579900D02*
X839829Y585184D01*
X830263Y594750D01*
D26*
X834828Y512300D02*
X835025Y512103D01*
X835025Y506413D01*
D25*
X835025Y506413D03*
X814388Y506413D03*
D26*
X814388Y511865D01*
X814823Y512300D01*
D25*
X782638Y523875D03*
D26*
X788244Y523875D01*
X788525Y523594D01*
X788525Y518593D02*
X786735Y516803D01*
X782638Y516803D01*
D25*
X782638Y516803D03*
M02*
