G04 EAGLE Gerber RS-274X export*
G75*
%MOMM*%
%FSLAX34Y34*%
%LPD*%
%INSilkscreen Bottom*%
%IPPOS*%
%AMOC8*
5,1,8,0,0,1.08239X$1,22.5*%
G01*
%ADD10C,0.152400*%
%ADD11C,0.101600*%
%ADD12C,0.076200*%
%ADD13C,0.254000*%
%ADD14C,0.406400*%
%ADD15C,0.150000*%

G36*
X782195Y541569D02*
X782195Y541569D01*
X782197Y541568D01*
X782240Y541588D01*
X782284Y541606D01*
X782284Y541608D01*
X782286Y541609D01*
X782319Y541694D01*
X782319Y545504D01*
X782318Y545506D01*
X782319Y545508D01*
X782299Y545551D01*
X782281Y545595D01*
X782279Y545595D01*
X782278Y545597D01*
X782193Y545630D01*
X779653Y545630D01*
X779651Y545629D01*
X779649Y545630D01*
X779606Y545610D01*
X779562Y545592D01*
X779562Y545590D01*
X779560Y545589D01*
X779527Y545504D01*
X779527Y541694D01*
X779528Y541692D01*
X779527Y541690D01*
X779547Y541647D01*
X779565Y541603D01*
X779567Y541603D01*
X779568Y541601D01*
X779653Y541568D01*
X782193Y541568D01*
X782195Y541569D01*
G37*
G36*
X864999Y526566D02*
X864999Y526566D01*
X865001Y526565D01*
X865044Y526585D01*
X865088Y526603D01*
X865088Y526605D01*
X865090Y526606D01*
X865123Y526691D01*
X865123Y530501D01*
X865122Y530503D01*
X865123Y530505D01*
X865103Y530548D01*
X865085Y530592D01*
X865083Y530592D01*
X865082Y530594D01*
X864997Y530627D01*
X862457Y530627D01*
X862455Y530626D01*
X862453Y530627D01*
X862410Y530607D01*
X862366Y530589D01*
X862366Y530587D01*
X862364Y530586D01*
X862331Y530501D01*
X862331Y526691D01*
X862332Y526689D01*
X862331Y526687D01*
X862351Y526644D01*
X862369Y526600D01*
X862371Y526600D01*
X862372Y526598D01*
X862457Y526565D01*
X864997Y526565D01*
X864999Y526566D01*
G37*
G36*
X816730Y503303D02*
X816730Y503303D01*
X816732Y503302D01*
X816775Y503322D01*
X816819Y503340D01*
X816819Y503342D01*
X816821Y503343D01*
X816854Y503428D01*
X816854Y505968D01*
X816853Y505970D01*
X816854Y505972D01*
X816834Y506015D01*
X816816Y506059D01*
X816814Y506059D01*
X816813Y506061D01*
X816728Y506094D01*
X812918Y506094D01*
X812916Y506093D01*
X812914Y506094D01*
X812871Y506074D01*
X812827Y506056D01*
X812827Y506054D01*
X812825Y506053D01*
X812792Y505968D01*
X812792Y503428D01*
X812793Y503426D01*
X812792Y503424D01*
X812812Y503381D01*
X812830Y503337D01*
X812832Y503337D01*
X812833Y503335D01*
X812918Y503302D01*
X816728Y503302D01*
X816730Y503303D01*
G37*
D10*
X859663Y453200D02*
X859663Y469456D01*
X859663Y462231D02*
X850632Y462231D01*
X850632Y469456D02*
X850632Y453200D01*
X843511Y461328D02*
X843507Y461648D01*
X843496Y461967D01*
X843477Y462287D01*
X843450Y462605D01*
X843416Y462923D01*
X843374Y463240D01*
X843324Y463556D01*
X843267Y463871D01*
X843203Y464184D01*
X843131Y464496D01*
X843052Y464806D01*
X842965Y465113D01*
X842871Y465419D01*
X842770Y465722D01*
X842661Y466023D01*
X842546Y466321D01*
X842423Y466617D01*
X842293Y466909D01*
X842156Y467198D01*
X842117Y467306D01*
X842074Y467413D01*
X842028Y467518D01*
X841977Y467622D01*
X841924Y467724D01*
X841867Y467824D01*
X841806Y467922D01*
X841742Y468017D01*
X841675Y468111D01*
X841604Y468202D01*
X841531Y468291D01*
X841454Y468377D01*
X841375Y468460D01*
X841293Y468541D01*
X841208Y468619D01*
X841120Y468693D01*
X841030Y468765D01*
X840938Y468833D01*
X840843Y468899D01*
X840746Y468961D01*
X840647Y469019D01*
X840545Y469075D01*
X840443Y469126D01*
X840338Y469174D01*
X840232Y469219D01*
X840124Y469260D01*
X840015Y469297D01*
X839905Y469330D01*
X839793Y469359D01*
X839681Y469385D01*
X839568Y469407D01*
X839454Y469424D01*
X839340Y469438D01*
X839225Y469448D01*
X839110Y469454D01*
X838995Y469456D01*
X838880Y469454D01*
X838765Y469448D01*
X838650Y469438D01*
X838536Y469424D01*
X838422Y469407D01*
X838309Y469385D01*
X838197Y469359D01*
X838085Y469330D01*
X837975Y469297D01*
X837866Y469260D01*
X837758Y469219D01*
X837652Y469174D01*
X837548Y469126D01*
X837445Y469075D01*
X837344Y469019D01*
X837244Y468961D01*
X837147Y468899D01*
X837053Y468834D01*
X836960Y468765D01*
X836870Y468693D01*
X836782Y468619D01*
X836697Y468541D01*
X836615Y468460D01*
X836536Y468377D01*
X836459Y468291D01*
X836386Y468202D01*
X836315Y468111D01*
X836248Y468017D01*
X836184Y467922D01*
X836123Y467824D01*
X836066Y467724D01*
X836013Y467622D01*
X835962Y467518D01*
X835916Y467413D01*
X835873Y467306D01*
X835834Y467198D01*
X835835Y467198D02*
X835698Y466909D01*
X835568Y466617D01*
X835445Y466321D01*
X835330Y466023D01*
X835221Y465722D01*
X835120Y465419D01*
X835026Y465113D01*
X834939Y464806D01*
X834860Y464496D01*
X834788Y464184D01*
X834724Y463871D01*
X834667Y463556D01*
X834617Y463240D01*
X834575Y462923D01*
X834541Y462605D01*
X834514Y462287D01*
X834495Y461967D01*
X834484Y461648D01*
X834480Y461328D01*
X843510Y461328D02*
X843506Y461008D01*
X843495Y460689D01*
X843476Y460369D01*
X843449Y460051D01*
X843415Y459733D01*
X843373Y459416D01*
X843323Y459100D01*
X843266Y458785D01*
X843202Y458472D01*
X843130Y458160D01*
X843051Y457850D01*
X842964Y457543D01*
X842870Y457237D01*
X842769Y456934D01*
X842660Y456633D01*
X842545Y456335D01*
X842422Y456039D01*
X842292Y455747D01*
X842155Y455458D01*
X842156Y455457D02*
X842117Y455349D01*
X842074Y455242D01*
X842028Y455137D01*
X841977Y455033D01*
X841924Y454931D01*
X841867Y454831D01*
X841806Y454733D01*
X841742Y454638D01*
X841675Y454544D01*
X841604Y454453D01*
X841531Y454364D01*
X841454Y454278D01*
X841375Y454195D01*
X841293Y454114D01*
X841208Y454036D01*
X841120Y453962D01*
X841030Y453890D01*
X840937Y453821D01*
X840843Y453756D01*
X840746Y453694D01*
X840646Y453636D01*
X840545Y453580D01*
X840443Y453529D01*
X840338Y453481D01*
X840232Y453436D01*
X840124Y453395D01*
X840015Y453358D01*
X839905Y453325D01*
X839793Y453296D01*
X839681Y453270D01*
X839568Y453248D01*
X839454Y453231D01*
X839340Y453217D01*
X839225Y453207D01*
X839110Y453201D01*
X838995Y453199D01*
X835835Y455458D02*
X835698Y455747D01*
X835568Y456039D01*
X835445Y456335D01*
X835330Y456633D01*
X835221Y456934D01*
X835120Y457237D01*
X835026Y457543D01*
X834939Y457850D01*
X834860Y458160D01*
X834788Y458472D01*
X834724Y458785D01*
X834667Y459100D01*
X834617Y459416D01*
X834575Y459733D01*
X834541Y460051D01*
X834514Y460369D01*
X834495Y460689D01*
X834484Y461008D01*
X834480Y461328D01*
X835834Y455457D02*
X835873Y455349D01*
X835916Y455242D01*
X835962Y455137D01*
X836013Y455033D01*
X836066Y454931D01*
X836124Y454831D01*
X836184Y454733D01*
X836248Y454638D01*
X836315Y454544D01*
X836386Y454453D01*
X836459Y454364D01*
X836536Y454278D01*
X836615Y454195D01*
X836697Y454114D01*
X836782Y454036D01*
X836870Y453962D01*
X836960Y453890D01*
X837053Y453821D01*
X837147Y453756D01*
X837244Y453694D01*
X837344Y453636D01*
X837445Y453580D01*
X837548Y453529D01*
X837652Y453481D01*
X837758Y453436D01*
X837866Y453395D01*
X837975Y453358D01*
X838085Y453325D01*
X838197Y453296D01*
X838309Y453270D01*
X838422Y453248D01*
X838536Y453231D01*
X838650Y453217D01*
X838765Y453207D01*
X838880Y453201D01*
X838995Y453199D01*
X842608Y456812D02*
X835383Y465843D01*
X827880Y457715D02*
X827878Y457848D01*
X827872Y457980D01*
X827862Y458112D01*
X827849Y458244D01*
X827831Y458376D01*
X827810Y458506D01*
X827785Y458637D01*
X827756Y458766D01*
X827723Y458894D01*
X827687Y459022D01*
X827647Y459148D01*
X827603Y459273D01*
X827555Y459397D01*
X827504Y459519D01*
X827449Y459640D01*
X827391Y459759D01*
X827329Y459877D01*
X827264Y459992D01*
X827195Y460106D01*
X827124Y460217D01*
X827048Y460326D01*
X826970Y460433D01*
X826889Y460538D01*
X826804Y460640D01*
X826717Y460740D01*
X826627Y460837D01*
X826534Y460932D01*
X826438Y461023D01*
X826340Y461112D01*
X826239Y461198D01*
X826135Y461281D01*
X826029Y461361D01*
X825921Y461437D01*
X825811Y461511D01*
X825698Y461581D01*
X825584Y461648D01*
X825467Y461711D01*
X825349Y461771D01*
X825229Y461828D01*
X825107Y461881D01*
X824984Y461930D01*
X824860Y461976D01*
X824734Y462018D01*
X824607Y462056D01*
X824479Y462091D01*
X824350Y462122D01*
X824221Y462149D01*
X824090Y462172D01*
X823959Y462192D01*
X823827Y462207D01*
X823695Y462219D01*
X823563Y462227D01*
X823430Y462231D01*
X823298Y462231D01*
X823165Y462227D01*
X823033Y462219D01*
X822901Y462207D01*
X822769Y462192D01*
X822638Y462172D01*
X822507Y462149D01*
X822378Y462122D01*
X822249Y462091D01*
X822121Y462056D01*
X821994Y462018D01*
X821868Y461976D01*
X821744Y461930D01*
X821621Y461881D01*
X821499Y461828D01*
X821379Y461771D01*
X821261Y461711D01*
X821144Y461648D01*
X821030Y461581D01*
X820917Y461511D01*
X820807Y461437D01*
X820699Y461361D01*
X820593Y461281D01*
X820489Y461198D01*
X820388Y461112D01*
X820290Y461023D01*
X820194Y460932D01*
X820101Y460837D01*
X820011Y460740D01*
X819924Y460640D01*
X819839Y460538D01*
X819758Y460433D01*
X819680Y460326D01*
X819604Y460217D01*
X819533Y460106D01*
X819464Y459992D01*
X819399Y459877D01*
X819337Y459759D01*
X819279Y459640D01*
X819224Y459519D01*
X819173Y459397D01*
X819125Y459273D01*
X819081Y459148D01*
X819041Y459022D01*
X819005Y458894D01*
X818972Y458766D01*
X818943Y458637D01*
X818918Y458506D01*
X818897Y458376D01*
X818879Y458244D01*
X818866Y458112D01*
X818856Y457980D01*
X818850Y457848D01*
X818848Y457715D01*
X818850Y457582D01*
X818856Y457450D01*
X818866Y457318D01*
X818879Y457186D01*
X818897Y457054D01*
X818918Y456924D01*
X818943Y456793D01*
X818972Y456664D01*
X819005Y456536D01*
X819041Y456408D01*
X819081Y456282D01*
X819125Y456157D01*
X819173Y456033D01*
X819224Y455911D01*
X819279Y455790D01*
X819337Y455671D01*
X819399Y455553D01*
X819464Y455438D01*
X819533Y455324D01*
X819604Y455213D01*
X819680Y455104D01*
X819758Y454997D01*
X819839Y454892D01*
X819924Y454790D01*
X820011Y454690D01*
X820101Y454593D01*
X820194Y454498D01*
X820290Y454407D01*
X820388Y454318D01*
X820489Y454232D01*
X820593Y454149D01*
X820699Y454069D01*
X820807Y453993D01*
X820917Y453919D01*
X821030Y453849D01*
X821144Y453782D01*
X821261Y453719D01*
X821379Y453659D01*
X821499Y453602D01*
X821621Y453549D01*
X821744Y453500D01*
X821868Y453454D01*
X821994Y453412D01*
X822121Y453374D01*
X822249Y453339D01*
X822378Y453308D01*
X822507Y453281D01*
X822638Y453258D01*
X822769Y453238D01*
X822901Y453223D01*
X823033Y453211D01*
X823165Y453203D01*
X823298Y453199D01*
X823430Y453199D01*
X823563Y453203D01*
X823695Y453211D01*
X823827Y453223D01*
X823959Y453238D01*
X824090Y453258D01*
X824221Y453281D01*
X824350Y453308D01*
X824479Y453339D01*
X824607Y453374D01*
X824734Y453412D01*
X824860Y453454D01*
X824984Y453500D01*
X825107Y453549D01*
X825229Y453602D01*
X825349Y453659D01*
X825467Y453719D01*
X825584Y453782D01*
X825698Y453849D01*
X825811Y453919D01*
X825921Y453993D01*
X826029Y454069D01*
X826135Y454149D01*
X826239Y454232D01*
X826340Y454318D01*
X826438Y454407D01*
X826534Y454498D01*
X826627Y454593D01*
X826717Y454690D01*
X826804Y454790D01*
X826889Y454892D01*
X826970Y454997D01*
X827048Y455104D01*
X827124Y455213D01*
X827195Y455324D01*
X827264Y455438D01*
X827329Y455553D01*
X827391Y455671D01*
X827449Y455790D01*
X827504Y455911D01*
X827555Y456033D01*
X827603Y456157D01*
X827647Y456282D01*
X827687Y456408D01*
X827723Y456536D01*
X827756Y456664D01*
X827785Y456793D01*
X827810Y456924D01*
X827831Y457054D01*
X827849Y457186D01*
X827862Y457318D01*
X827872Y457450D01*
X827878Y457582D01*
X827880Y457715D01*
X826976Y465843D02*
X826974Y465962D01*
X826968Y466082D01*
X826958Y466201D01*
X826944Y466319D01*
X826927Y466438D01*
X826905Y466555D01*
X826880Y466672D01*
X826850Y466787D01*
X826817Y466902D01*
X826780Y467016D01*
X826740Y467128D01*
X826695Y467239D01*
X826647Y467348D01*
X826596Y467456D01*
X826541Y467562D01*
X826482Y467666D01*
X826420Y467768D01*
X826355Y467868D01*
X826286Y467966D01*
X826214Y468062D01*
X826139Y468155D01*
X826062Y468245D01*
X825981Y468333D01*
X825897Y468418D01*
X825810Y468500D01*
X825721Y468580D01*
X825629Y468656D01*
X825535Y468730D01*
X825438Y468800D01*
X825340Y468867D01*
X825239Y468931D01*
X825135Y468991D01*
X825030Y469048D01*
X824923Y469101D01*
X824815Y469151D01*
X824705Y469197D01*
X824593Y469239D01*
X824480Y469278D01*
X824366Y469313D01*
X824251Y469344D01*
X824134Y469372D01*
X824017Y469395D01*
X823900Y469415D01*
X823781Y469431D01*
X823662Y469443D01*
X823543Y469451D01*
X823424Y469455D01*
X823304Y469455D01*
X823185Y469451D01*
X823066Y469443D01*
X822947Y469431D01*
X822828Y469415D01*
X822711Y469395D01*
X822594Y469372D01*
X822477Y469344D01*
X822362Y469313D01*
X822248Y469278D01*
X822135Y469239D01*
X822023Y469197D01*
X821913Y469151D01*
X821805Y469101D01*
X821698Y469048D01*
X821593Y468991D01*
X821489Y468931D01*
X821388Y468867D01*
X821290Y468800D01*
X821193Y468730D01*
X821099Y468656D01*
X821007Y468580D01*
X820918Y468500D01*
X820831Y468418D01*
X820747Y468333D01*
X820666Y468245D01*
X820589Y468155D01*
X820514Y468062D01*
X820442Y467966D01*
X820373Y467868D01*
X820308Y467768D01*
X820246Y467666D01*
X820187Y467562D01*
X820132Y467456D01*
X820081Y467348D01*
X820033Y467239D01*
X819988Y467128D01*
X819948Y467016D01*
X819911Y466902D01*
X819878Y466787D01*
X819848Y466672D01*
X819823Y466555D01*
X819801Y466438D01*
X819784Y466319D01*
X819770Y466201D01*
X819760Y466082D01*
X819754Y465962D01*
X819752Y465843D01*
X819754Y465724D01*
X819760Y465604D01*
X819770Y465485D01*
X819784Y465367D01*
X819801Y465248D01*
X819823Y465131D01*
X819848Y465014D01*
X819878Y464899D01*
X819911Y464784D01*
X819948Y464670D01*
X819988Y464558D01*
X820033Y464447D01*
X820081Y464338D01*
X820132Y464230D01*
X820187Y464124D01*
X820246Y464020D01*
X820308Y463918D01*
X820373Y463818D01*
X820442Y463720D01*
X820514Y463624D01*
X820589Y463531D01*
X820666Y463441D01*
X820747Y463353D01*
X820831Y463268D01*
X820918Y463186D01*
X821007Y463106D01*
X821099Y463030D01*
X821193Y462956D01*
X821290Y462886D01*
X821388Y462819D01*
X821489Y462755D01*
X821593Y462695D01*
X821698Y462638D01*
X821805Y462585D01*
X821913Y462535D01*
X822023Y462489D01*
X822135Y462447D01*
X822248Y462408D01*
X822362Y462373D01*
X822477Y462342D01*
X822594Y462314D01*
X822711Y462291D01*
X822828Y462271D01*
X822947Y462255D01*
X823066Y462243D01*
X823185Y462235D01*
X823304Y462231D01*
X823424Y462231D01*
X823543Y462235D01*
X823662Y462243D01*
X823781Y462255D01*
X823900Y462271D01*
X824017Y462291D01*
X824134Y462314D01*
X824251Y462342D01*
X824366Y462373D01*
X824480Y462408D01*
X824593Y462447D01*
X824705Y462489D01*
X824815Y462535D01*
X824923Y462585D01*
X825030Y462638D01*
X825135Y462695D01*
X825239Y462755D01*
X825340Y462819D01*
X825438Y462886D01*
X825535Y462956D01*
X825629Y463030D01*
X825721Y463106D01*
X825810Y463186D01*
X825897Y463268D01*
X825981Y463353D01*
X826062Y463441D01*
X826139Y463531D01*
X826214Y463624D01*
X826286Y463720D01*
X826355Y463818D01*
X826420Y463918D01*
X826482Y464020D01*
X826541Y464124D01*
X826596Y464230D01*
X826647Y464338D01*
X826695Y464447D01*
X826740Y464558D01*
X826780Y464670D01*
X826817Y464784D01*
X826850Y464899D01*
X826880Y465014D01*
X826905Y465131D01*
X826927Y465248D01*
X826944Y465367D01*
X826958Y465485D01*
X826968Y465604D01*
X826974Y465724D01*
X826976Y465843D01*
X811636Y469456D02*
X811636Y453200D01*
X811636Y469456D02*
X807120Y469456D01*
X806987Y469454D01*
X806855Y469448D01*
X806723Y469438D01*
X806591Y469425D01*
X806459Y469407D01*
X806329Y469386D01*
X806198Y469361D01*
X806069Y469332D01*
X805941Y469299D01*
X805813Y469263D01*
X805687Y469223D01*
X805562Y469179D01*
X805438Y469131D01*
X805316Y469080D01*
X805195Y469025D01*
X805076Y468967D01*
X804958Y468905D01*
X804843Y468840D01*
X804729Y468771D01*
X804618Y468700D01*
X804509Y468624D01*
X804402Y468546D01*
X804297Y468465D01*
X804195Y468380D01*
X804095Y468293D01*
X803998Y468203D01*
X803903Y468110D01*
X803812Y468014D01*
X803723Y467916D01*
X803637Y467815D01*
X803554Y467711D01*
X803474Y467605D01*
X803398Y467497D01*
X803324Y467387D01*
X803254Y467274D01*
X803187Y467160D01*
X803124Y467043D01*
X803064Y466925D01*
X803007Y466805D01*
X802954Y466683D01*
X802905Y466560D01*
X802859Y466436D01*
X802817Y466310D01*
X802779Y466183D01*
X802744Y466055D01*
X802713Y465926D01*
X802686Y465797D01*
X802663Y465666D01*
X802643Y465535D01*
X802628Y465403D01*
X802616Y465271D01*
X802608Y465139D01*
X802604Y465006D01*
X802604Y464874D01*
X802608Y464741D01*
X802616Y464609D01*
X802628Y464477D01*
X802643Y464345D01*
X802663Y464214D01*
X802686Y464083D01*
X802713Y463954D01*
X802744Y463825D01*
X802779Y463697D01*
X802817Y463570D01*
X802859Y463444D01*
X802905Y463320D01*
X802954Y463197D01*
X803007Y463075D01*
X803064Y462955D01*
X803124Y462837D01*
X803187Y462720D01*
X803254Y462606D01*
X803324Y462493D01*
X803398Y462383D01*
X803474Y462275D01*
X803554Y462169D01*
X803637Y462065D01*
X803723Y461964D01*
X803812Y461866D01*
X803903Y461770D01*
X803998Y461677D01*
X804095Y461587D01*
X804195Y461500D01*
X804297Y461415D01*
X804402Y461334D01*
X804509Y461256D01*
X804618Y461180D01*
X804729Y461109D01*
X804843Y461040D01*
X804958Y460975D01*
X805076Y460913D01*
X805195Y460855D01*
X805316Y460800D01*
X805438Y460749D01*
X805562Y460701D01*
X805687Y460657D01*
X805813Y460617D01*
X805941Y460581D01*
X806069Y460548D01*
X806198Y460519D01*
X806329Y460494D01*
X806459Y460473D01*
X806591Y460455D01*
X806723Y460442D01*
X806855Y460432D01*
X806987Y460426D01*
X807120Y460424D01*
X811636Y460424D01*
X806217Y460424D02*
X802605Y453200D01*
X796096Y467649D02*
X796096Y469456D01*
X787065Y469456D01*
X791580Y453200D01*
X780465Y461328D02*
X780461Y461648D01*
X780450Y461967D01*
X780431Y462287D01*
X780404Y462605D01*
X780370Y462923D01*
X780328Y463240D01*
X780278Y463556D01*
X780221Y463871D01*
X780157Y464184D01*
X780085Y464496D01*
X780006Y464806D01*
X779919Y465113D01*
X779825Y465419D01*
X779724Y465722D01*
X779615Y466023D01*
X779500Y466321D01*
X779377Y466617D01*
X779247Y466909D01*
X779110Y467198D01*
X779071Y467306D01*
X779028Y467413D01*
X778982Y467518D01*
X778931Y467622D01*
X778878Y467724D01*
X778821Y467824D01*
X778760Y467922D01*
X778696Y468017D01*
X778629Y468111D01*
X778558Y468202D01*
X778485Y468291D01*
X778408Y468377D01*
X778329Y468460D01*
X778247Y468541D01*
X778162Y468619D01*
X778074Y468693D01*
X777984Y468765D01*
X777892Y468833D01*
X777797Y468899D01*
X777700Y468961D01*
X777601Y469019D01*
X777499Y469075D01*
X777397Y469126D01*
X777292Y469174D01*
X777186Y469219D01*
X777078Y469260D01*
X776969Y469297D01*
X776859Y469330D01*
X776747Y469359D01*
X776635Y469385D01*
X776522Y469407D01*
X776408Y469424D01*
X776294Y469438D01*
X776179Y469448D01*
X776064Y469454D01*
X775949Y469456D01*
X775834Y469454D01*
X775719Y469448D01*
X775604Y469438D01*
X775490Y469424D01*
X775376Y469407D01*
X775263Y469385D01*
X775151Y469359D01*
X775039Y469330D01*
X774929Y469297D01*
X774820Y469260D01*
X774712Y469219D01*
X774606Y469174D01*
X774502Y469126D01*
X774399Y469075D01*
X774298Y469019D01*
X774198Y468961D01*
X774101Y468899D01*
X774007Y468834D01*
X773914Y468765D01*
X773824Y468693D01*
X773736Y468619D01*
X773651Y468541D01*
X773569Y468460D01*
X773490Y468377D01*
X773413Y468291D01*
X773340Y468202D01*
X773269Y468111D01*
X773202Y468017D01*
X773138Y467922D01*
X773077Y467824D01*
X773020Y467724D01*
X772967Y467622D01*
X772916Y467518D01*
X772870Y467413D01*
X772827Y467306D01*
X772788Y467198D01*
X772789Y467198D02*
X772652Y466909D01*
X772522Y466617D01*
X772399Y466321D01*
X772284Y466023D01*
X772175Y465722D01*
X772074Y465419D01*
X771980Y465113D01*
X771893Y464806D01*
X771814Y464496D01*
X771742Y464184D01*
X771678Y463871D01*
X771621Y463556D01*
X771571Y463240D01*
X771529Y462923D01*
X771495Y462605D01*
X771468Y462287D01*
X771449Y461967D01*
X771438Y461648D01*
X771434Y461328D01*
X780464Y461328D02*
X780460Y461008D01*
X780449Y460689D01*
X780430Y460369D01*
X780403Y460051D01*
X780369Y459733D01*
X780327Y459416D01*
X780277Y459100D01*
X780220Y458785D01*
X780156Y458472D01*
X780084Y458160D01*
X780005Y457850D01*
X779918Y457543D01*
X779824Y457237D01*
X779723Y456934D01*
X779614Y456633D01*
X779499Y456335D01*
X779376Y456039D01*
X779246Y455747D01*
X779109Y455458D01*
X779110Y455457D02*
X779071Y455349D01*
X779028Y455242D01*
X778982Y455137D01*
X778931Y455033D01*
X778878Y454931D01*
X778821Y454831D01*
X778760Y454733D01*
X778696Y454638D01*
X778629Y454544D01*
X778558Y454453D01*
X778485Y454364D01*
X778408Y454278D01*
X778329Y454195D01*
X778247Y454114D01*
X778162Y454036D01*
X778074Y453962D01*
X777984Y453890D01*
X777891Y453821D01*
X777797Y453756D01*
X777700Y453694D01*
X777600Y453636D01*
X777499Y453580D01*
X777397Y453529D01*
X777292Y453481D01*
X777186Y453436D01*
X777078Y453395D01*
X776969Y453358D01*
X776859Y453325D01*
X776747Y453296D01*
X776635Y453270D01*
X776522Y453248D01*
X776408Y453231D01*
X776294Y453217D01*
X776179Y453207D01*
X776064Y453201D01*
X775949Y453199D01*
X772789Y455458D02*
X772652Y455747D01*
X772522Y456039D01*
X772399Y456335D01*
X772284Y456633D01*
X772175Y456934D01*
X772074Y457237D01*
X771980Y457543D01*
X771893Y457850D01*
X771814Y458160D01*
X771742Y458472D01*
X771678Y458785D01*
X771621Y459100D01*
X771571Y459416D01*
X771529Y459733D01*
X771495Y460051D01*
X771468Y460369D01*
X771449Y460689D01*
X771438Y461008D01*
X771434Y461328D01*
X772788Y455457D02*
X772827Y455349D01*
X772870Y455242D01*
X772916Y455137D01*
X772967Y455033D01*
X773020Y454931D01*
X773078Y454831D01*
X773138Y454733D01*
X773202Y454638D01*
X773269Y454544D01*
X773340Y454453D01*
X773413Y454364D01*
X773490Y454278D01*
X773569Y454195D01*
X773651Y454114D01*
X773736Y454036D01*
X773824Y453962D01*
X773914Y453890D01*
X774007Y453821D01*
X774101Y453756D01*
X774198Y453694D01*
X774298Y453636D01*
X774399Y453580D01*
X774502Y453529D01*
X774606Y453481D01*
X774712Y453436D01*
X774820Y453395D01*
X774929Y453358D01*
X775039Y453325D01*
X775151Y453296D01*
X775263Y453270D01*
X775376Y453248D01*
X775490Y453231D01*
X775604Y453217D01*
X775719Y453207D01*
X775834Y453201D01*
X775949Y453199D01*
X779562Y456812D02*
X772337Y465843D01*
D11*
X758588Y416088D02*
X760184Y414971D01*
X758588Y416088D02*
X754865Y410771D01*
X758056Y408537D01*
X758139Y408482D01*
X758223Y408430D01*
X758310Y408381D01*
X758398Y408335D01*
X758488Y408293D01*
X758580Y408254D01*
X758673Y408219D01*
X758767Y408187D01*
X758862Y408159D01*
X758959Y408135D01*
X759056Y408114D01*
X759154Y408098D01*
X759253Y408084D01*
X759352Y408075D01*
X759451Y408070D01*
X759551Y408068D01*
X759650Y408070D01*
X759749Y408076D01*
X759848Y408086D01*
X759947Y408099D01*
X760045Y408117D01*
X760142Y408138D01*
X760238Y408162D01*
X760334Y408191D01*
X760428Y408223D01*
X760521Y408258D01*
X760612Y408297D01*
X760702Y408340D01*
X760790Y408386D01*
X760876Y408435D01*
X760961Y408488D01*
X761043Y408544D01*
X761123Y408603D01*
X761201Y408665D01*
X761276Y408730D01*
X761349Y408797D01*
X761419Y408868D01*
X761487Y408941D01*
X761551Y409017D01*
X761613Y409095D01*
X761672Y409175D01*
X761672Y409174D02*
X765395Y414491D01*
X765395Y414492D02*
X765450Y414575D01*
X765502Y414659D01*
X765551Y414746D01*
X765597Y414834D01*
X765639Y414924D01*
X765678Y415016D01*
X765713Y415109D01*
X765745Y415203D01*
X765773Y415298D01*
X765797Y415395D01*
X765818Y415492D01*
X765834Y415590D01*
X765848Y415689D01*
X765857Y415788D01*
X765862Y415887D01*
X765864Y415987D01*
X765862Y416086D01*
X765856Y416185D01*
X765846Y416284D01*
X765833Y416383D01*
X765815Y416481D01*
X765794Y416578D01*
X765770Y416674D01*
X765741Y416770D01*
X765709Y416864D01*
X765674Y416957D01*
X765635Y417048D01*
X765592Y417138D01*
X765546Y417226D01*
X765497Y417312D01*
X765444Y417397D01*
X765388Y417479D01*
X765329Y417559D01*
X765267Y417637D01*
X765202Y417712D01*
X765135Y417785D01*
X765064Y417855D01*
X764991Y417923D01*
X764915Y417987D01*
X764837Y418049D01*
X764757Y418108D01*
X761567Y420341D01*
X756897Y423611D02*
X750195Y414040D01*
X744878Y417764D02*
X756897Y423611D01*
X751580Y427334D02*
X744878Y417764D01*
X740208Y421033D02*
X746910Y430604D01*
X744251Y432466D01*
X744252Y432466D02*
X744158Y432529D01*
X744062Y432589D01*
X743964Y432646D01*
X743864Y432699D01*
X743762Y432749D01*
X743658Y432795D01*
X743553Y432837D01*
X743447Y432876D01*
X743339Y432911D01*
X743230Y432942D01*
X743120Y432970D01*
X743009Y432993D01*
X742898Y433013D01*
X742786Y433029D01*
X742673Y433041D01*
X742560Y433049D01*
X742447Y433053D01*
X742333Y433053D01*
X742220Y433049D01*
X742107Y433041D01*
X741994Y433029D01*
X741882Y433013D01*
X741771Y432993D01*
X741660Y432970D01*
X741550Y432942D01*
X741441Y432911D01*
X741333Y432876D01*
X741227Y432837D01*
X741122Y432795D01*
X741018Y432749D01*
X740916Y432699D01*
X740816Y432646D01*
X740718Y432589D01*
X740622Y432529D01*
X740528Y432466D01*
X740437Y432399D01*
X740347Y432330D01*
X740260Y432257D01*
X740176Y432181D01*
X740095Y432102D01*
X740016Y432021D01*
X739940Y431937D01*
X739867Y431850D01*
X739798Y431761D01*
X739731Y431669D01*
X736753Y427415D01*
X736752Y427416D02*
X736689Y427322D01*
X736629Y427226D01*
X736572Y427128D01*
X736519Y427028D01*
X736469Y426926D01*
X736423Y426822D01*
X736381Y426717D01*
X736342Y426611D01*
X736307Y426503D01*
X736276Y426394D01*
X736248Y426284D01*
X736225Y426173D01*
X736205Y426062D01*
X736189Y425950D01*
X736177Y425837D01*
X736169Y425724D01*
X736165Y425611D01*
X736165Y425497D01*
X736169Y425384D01*
X736177Y425271D01*
X736189Y425158D01*
X736205Y425046D01*
X736225Y424935D01*
X736248Y424824D01*
X736276Y424714D01*
X736307Y424605D01*
X736342Y424497D01*
X736381Y424391D01*
X736423Y424286D01*
X736469Y424182D01*
X736519Y424080D01*
X736572Y423980D01*
X736629Y423882D01*
X736689Y423786D01*
X736752Y423692D01*
X736819Y423600D01*
X736888Y423511D01*
X736961Y423424D01*
X737037Y423340D01*
X737116Y423259D01*
X737197Y423180D01*
X737281Y423104D01*
X737368Y423031D01*
X737458Y422962D01*
X737549Y422895D01*
X737550Y422895D02*
X740208Y421033D01*
X900199Y425348D02*
X901690Y426600D01*
X900199Y425348D02*
X904371Y420375D01*
X907355Y422879D01*
X907430Y422945D01*
X907502Y423013D01*
X907572Y423084D01*
X907639Y423157D01*
X907703Y423233D01*
X907764Y423312D01*
X907822Y423393D01*
X907877Y423476D01*
X907929Y423560D01*
X907977Y423647D01*
X908022Y423736D01*
X908064Y423826D01*
X908102Y423918D01*
X908137Y424011D01*
X908168Y424106D01*
X908195Y424201D01*
X908219Y424298D01*
X908239Y424395D01*
X908255Y424494D01*
X908267Y424592D01*
X908276Y424691D01*
X908281Y424791D01*
X908282Y424890D01*
X908279Y424990D01*
X908273Y425089D01*
X908262Y425188D01*
X908248Y425286D01*
X908230Y425384D01*
X908209Y425481D01*
X908183Y425577D01*
X908154Y425672D01*
X908122Y425766D01*
X908085Y425859D01*
X908046Y425950D01*
X908003Y426040D01*
X907956Y426128D01*
X907906Y426214D01*
X907853Y426298D01*
X907797Y426380D01*
X907737Y426459D01*
X907675Y426537D01*
X903502Y431509D01*
X903437Y431584D01*
X903369Y431657D01*
X903298Y431726D01*
X903224Y431793D01*
X903148Y431858D01*
X903070Y431919D01*
X902989Y431977D01*
X902906Y432032D01*
X902821Y432084D01*
X902734Y432132D01*
X902645Y432177D01*
X902555Y432219D01*
X902463Y432257D01*
X902370Y432292D01*
X902275Y432323D01*
X902180Y432350D01*
X902083Y432374D01*
X901986Y432394D01*
X901888Y432410D01*
X901789Y432422D01*
X901690Y432431D01*
X901590Y432436D01*
X901491Y432437D01*
X901391Y432434D01*
X901292Y432428D01*
X901193Y432417D01*
X901095Y432403D01*
X900997Y432385D01*
X900900Y432364D01*
X900804Y432338D01*
X900708Y432309D01*
X900614Y432277D01*
X900522Y432240D01*
X900431Y432201D01*
X900341Y432157D01*
X900253Y432111D01*
X900167Y432061D01*
X900083Y432008D01*
X900001Y431951D01*
X899921Y431892D01*
X899844Y431829D01*
X896861Y429326D01*
X892494Y425661D02*
X900004Y416711D01*
X895032Y412538D02*
X892494Y425661D01*
X887521Y421489D02*
X895032Y412538D01*
X890664Y408874D02*
X883154Y417824D01*
X880668Y415738D01*
X880668Y415739D02*
X880582Y415664D01*
X880499Y415587D01*
X880419Y415507D01*
X880342Y415424D01*
X880267Y415339D01*
X880196Y415250D01*
X880128Y415160D01*
X880063Y415067D01*
X880001Y414972D01*
X879943Y414875D01*
X879888Y414776D01*
X879837Y414675D01*
X879789Y414572D01*
X879744Y414468D01*
X879704Y414362D01*
X879667Y414255D01*
X879634Y414147D01*
X879604Y414037D01*
X879579Y413927D01*
X879557Y413816D01*
X879540Y413704D01*
X879526Y413591D01*
X879516Y413478D01*
X879510Y413365D01*
X879508Y413252D01*
X879510Y413139D01*
X879516Y413026D01*
X879526Y412913D01*
X879540Y412800D01*
X879557Y412688D01*
X879579Y412577D01*
X879604Y412467D01*
X879634Y412357D01*
X879667Y412249D01*
X879704Y412142D01*
X879744Y412036D01*
X879789Y411932D01*
X879837Y411829D01*
X879888Y411728D01*
X879943Y411629D01*
X880001Y411532D01*
X880063Y411437D01*
X880128Y411344D01*
X880196Y411254D01*
X880267Y411166D01*
X880268Y411166D02*
X883606Y407188D01*
X883605Y407188D02*
X883680Y407102D01*
X883757Y407019D01*
X883837Y406939D01*
X883920Y406862D01*
X884006Y406787D01*
X884094Y406716D01*
X884184Y406648D01*
X884277Y406583D01*
X884372Y406521D01*
X884469Y406463D01*
X884568Y406408D01*
X884669Y406357D01*
X884772Y406309D01*
X884876Y406264D01*
X884982Y406224D01*
X885089Y406187D01*
X885197Y406154D01*
X885307Y406124D01*
X885417Y406099D01*
X885528Y406077D01*
X885640Y406060D01*
X885753Y406046D01*
X885866Y406036D01*
X885979Y406030D01*
X886092Y406028D01*
X886205Y406030D01*
X886318Y406036D01*
X886431Y406046D01*
X886544Y406060D01*
X886656Y406077D01*
X886767Y406099D01*
X886877Y406124D01*
X886987Y406154D01*
X887095Y406187D01*
X887202Y406224D01*
X887308Y406264D01*
X887412Y406309D01*
X887515Y406357D01*
X887616Y406408D01*
X887715Y406463D01*
X887812Y406521D01*
X887907Y406583D01*
X888000Y406648D01*
X888090Y406716D01*
X888179Y406787D01*
X888178Y406788D02*
X890664Y408874D01*
X901471Y667383D02*
X899876Y668500D01*
X896153Y663183D01*
X899343Y660949D01*
X899426Y660894D01*
X899510Y660842D01*
X899597Y660793D01*
X899685Y660747D01*
X899775Y660705D01*
X899867Y660666D01*
X899960Y660631D01*
X900054Y660599D01*
X900149Y660571D01*
X900246Y660547D01*
X900343Y660526D01*
X900441Y660510D01*
X900540Y660496D01*
X900639Y660487D01*
X900738Y660482D01*
X900838Y660480D01*
X900937Y660482D01*
X901036Y660488D01*
X901135Y660498D01*
X901234Y660511D01*
X901332Y660529D01*
X901429Y660550D01*
X901525Y660574D01*
X901621Y660603D01*
X901715Y660635D01*
X901808Y660670D01*
X901899Y660709D01*
X901989Y660752D01*
X902077Y660798D01*
X902163Y660847D01*
X902248Y660900D01*
X902330Y660956D01*
X902410Y661015D01*
X902488Y661077D01*
X902563Y661142D01*
X902636Y661209D01*
X902706Y661280D01*
X902774Y661353D01*
X902838Y661429D01*
X902900Y661507D01*
X902959Y661587D01*
X906682Y666904D01*
X906737Y666987D01*
X906789Y667071D01*
X906838Y667158D01*
X906884Y667246D01*
X906926Y667336D01*
X906965Y667428D01*
X907000Y667521D01*
X907032Y667615D01*
X907060Y667710D01*
X907084Y667807D01*
X907105Y667904D01*
X907121Y668002D01*
X907135Y668101D01*
X907144Y668200D01*
X907149Y668299D01*
X907151Y668399D01*
X907149Y668498D01*
X907143Y668597D01*
X907133Y668696D01*
X907120Y668795D01*
X907102Y668893D01*
X907081Y668990D01*
X907057Y669086D01*
X907028Y669182D01*
X906996Y669276D01*
X906961Y669369D01*
X906922Y669460D01*
X906879Y669550D01*
X906833Y669638D01*
X906784Y669724D01*
X906731Y669809D01*
X906675Y669891D01*
X906616Y669971D01*
X906554Y670049D01*
X906489Y670124D01*
X906422Y670197D01*
X906351Y670267D01*
X906278Y670335D01*
X906202Y670399D01*
X906124Y670461D01*
X906044Y670520D01*
X906045Y670520D02*
X902854Y672754D01*
X898185Y676024D02*
X891483Y666453D01*
X886166Y670176D02*
X898185Y676024D01*
X892867Y679747D02*
X886166Y670176D01*
X881496Y673446D02*
X888197Y683017D01*
X885539Y684878D01*
X885539Y684879D02*
X885445Y684942D01*
X885349Y685002D01*
X885251Y685059D01*
X885151Y685112D01*
X885049Y685162D01*
X884945Y685208D01*
X884840Y685250D01*
X884734Y685289D01*
X884626Y685324D01*
X884517Y685355D01*
X884407Y685383D01*
X884296Y685406D01*
X884185Y685426D01*
X884073Y685442D01*
X883960Y685454D01*
X883847Y685462D01*
X883734Y685466D01*
X883620Y685466D01*
X883507Y685462D01*
X883394Y685454D01*
X883281Y685442D01*
X883169Y685426D01*
X883058Y685406D01*
X882947Y685383D01*
X882837Y685355D01*
X882728Y685324D01*
X882620Y685289D01*
X882514Y685250D01*
X882409Y685208D01*
X882305Y685162D01*
X882203Y685112D01*
X882103Y685059D01*
X882005Y685002D01*
X881909Y684942D01*
X881815Y684879D01*
X881724Y684812D01*
X881634Y684743D01*
X881547Y684670D01*
X881463Y684594D01*
X881382Y684515D01*
X881303Y684434D01*
X881227Y684350D01*
X881154Y684263D01*
X881085Y684174D01*
X881018Y684082D01*
X881019Y684081D02*
X878040Y679828D01*
X877977Y679734D01*
X877917Y679638D01*
X877860Y679540D01*
X877807Y679440D01*
X877757Y679338D01*
X877711Y679234D01*
X877669Y679129D01*
X877630Y679023D01*
X877595Y678915D01*
X877564Y678806D01*
X877536Y678696D01*
X877513Y678585D01*
X877493Y678474D01*
X877477Y678362D01*
X877465Y678249D01*
X877457Y678136D01*
X877453Y678023D01*
X877453Y677909D01*
X877457Y677796D01*
X877465Y677683D01*
X877477Y677570D01*
X877493Y677458D01*
X877513Y677347D01*
X877536Y677236D01*
X877564Y677126D01*
X877595Y677017D01*
X877630Y676909D01*
X877669Y676803D01*
X877711Y676698D01*
X877757Y676594D01*
X877807Y676492D01*
X877860Y676392D01*
X877917Y676294D01*
X877977Y676198D01*
X878040Y676104D01*
X878107Y676012D01*
X878176Y675923D01*
X878249Y675836D01*
X878325Y675752D01*
X878404Y675671D01*
X878485Y675592D01*
X878569Y675516D01*
X878656Y675443D01*
X878746Y675374D01*
X878837Y675307D01*
X881496Y673446D01*
X681687Y538741D02*
X681687Y536794D01*
X681687Y538741D02*
X675196Y538741D01*
X675196Y534846D01*
X675198Y534747D01*
X675204Y534647D01*
X675213Y534548D01*
X675226Y534450D01*
X675243Y534352D01*
X675264Y534254D01*
X675289Y534158D01*
X675317Y534063D01*
X675349Y533969D01*
X675384Y533876D01*
X675423Y533784D01*
X675466Y533694D01*
X675511Y533606D01*
X675561Y533519D01*
X675613Y533435D01*
X675669Y533352D01*
X675727Y533272D01*
X675789Y533194D01*
X675854Y533119D01*
X675922Y533046D01*
X675992Y532976D01*
X676065Y532908D01*
X676140Y532843D01*
X676218Y532781D01*
X676298Y532723D01*
X676381Y532667D01*
X676465Y532615D01*
X676552Y532565D01*
X676640Y532520D01*
X676730Y532477D01*
X676822Y532438D01*
X676915Y532403D01*
X677009Y532371D01*
X677104Y532343D01*
X677200Y532318D01*
X677298Y532297D01*
X677396Y532280D01*
X677494Y532267D01*
X677593Y532258D01*
X677693Y532252D01*
X677792Y532250D01*
X684283Y532250D01*
X684382Y532252D01*
X684482Y532258D01*
X684581Y532267D01*
X684679Y532280D01*
X684777Y532297D01*
X684875Y532318D01*
X684971Y532343D01*
X685066Y532371D01*
X685160Y532403D01*
X685253Y532438D01*
X685345Y532477D01*
X685435Y532520D01*
X685523Y532565D01*
X685610Y532615D01*
X685694Y532667D01*
X685777Y532723D01*
X685857Y532781D01*
X685935Y532843D01*
X686010Y532908D01*
X686083Y532976D01*
X686153Y533046D01*
X686221Y533119D01*
X686286Y533194D01*
X686348Y533272D01*
X686406Y533352D01*
X686462Y533435D01*
X686514Y533519D01*
X686564Y533606D01*
X686609Y533694D01*
X686652Y533784D01*
X686691Y533876D01*
X686726Y533968D01*
X686758Y534063D01*
X686786Y534158D01*
X686811Y534254D01*
X686832Y534352D01*
X686849Y534450D01*
X686862Y534548D01*
X686871Y534647D01*
X686877Y534747D01*
X686879Y534846D01*
X686880Y534846D02*
X686880Y538741D01*
X686880Y544442D02*
X675196Y544442D01*
X675196Y550933D02*
X686880Y544442D01*
X686880Y550933D02*
X675196Y550933D01*
X675196Y556634D02*
X686880Y556634D01*
X686880Y559879D01*
X686878Y559992D01*
X686872Y560105D01*
X686862Y560218D01*
X686848Y560331D01*
X686831Y560443D01*
X686809Y560554D01*
X686784Y560664D01*
X686754Y560774D01*
X686721Y560882D01*
X686684Y560989D01*
X686644Y561095D01*
X686599Y561199D01*
X686551Y561302D01*
X686500Y561403D01*
X686445Y561502D01*
X686387Y561599D01*
X686325Y561694D01*
X686260Y561787D01*
X686192Y561877D01*
X686121Y561965D01*
X686046Y562051D01*
X685969Y562134D01*
X685889Y562214D01*
X685806Y562291D01*
X685720Y562366D01*
X685632Y562437D01*
X685542Y562505D01*
X685449Y562570D01*
X685354Y562632D01*
X685257Y562690D01*
X685158Y562745D01*
X685057Y562796D01*
X684954Y562844D01*
X684850Y562889D01*
X684744Y562929D01*
X684637Y562966D01*
X684529Y562999D01*
X684419Y563029D01*
X684309Y563054D01*
X684198Y563076D01*
X684086Y563093D01*
X683973Y563107D01*
X683860Y563117D01*
X683747Y563123D01*
X683634Y563125D01*
X678441Y563125D01*
X678328Y563123D01*
X678215Y563117D01*
X678102Y563107D01*
X677989Y563093D01*
X677877Y563076D01*
X677766Y563054D01*
X677656Y563029D01*
X677546Y562999D01*
X677438Y562966D01*
X677331Y562929D01*
X677225Y562889D01*
X677121Y562844D01*
X677018Y562796D01*
X676917Y562745D01*
X676818Y562690D01*
X676721Y562632D01*
X676626Y562570D01*
X676533Y562505D01*
X676443Y562437D01*
X676355Y562366D01*
X676269Y562291D01*
X676186Y562214D01*
X676106Y562134D01*
X676029Y562051D01*
X675954Y561965D01*
X675883Y561877D01*
X675815Y561787D01*
X675750Y561694D01*
X675688Y561599D01*
X675630Y561502D01*
X675575Y561403D01*
X675524Y561302D01*
X675476Y561199D01*
X675431Y561095D01*
X675391Y560989D01*
X675354Y560882D01*
X675321Y560774D01*
X675291Y560664D01*
X675266Y560554D01*
X675244Y560443D01*
X675227Y560331D01*
X675213Y560218D01*
X675203Y560105D01*
X675197Y559992D01*
X675195Y559879D01*
X675196Y559879D02*
X675196Y556634D01*
X969024Y537154D02*
X969024Y535206D01*
X969024Y537154D02*
X962533Y537154D01*
X962533Y533259D01*
X962535Y533160D01*
X962541Y533060D01*
X962550Y532961D01*
X962563Y532863D01*
X962580Y532765D01*
X962601Y532667D01*
X962626Y532571D01*
X962654Y532476D01*
X962686Y532382D01*
X962721Y532289D01*
X962760Y532197D01*
X962803Y532107D01*
X962848Y532019D01*
X962898Y531932D01*
X962950Y531848D01*
X963006Y531765D01*
X963064Y531685D01*
X963126Y531607D01*
X963191Y531532D01*
X963259Y531459D01*
X963329Y531389D01*
X963402Y531321D01*
X963477Y531256D01*
X963555Y531194D01*
X963635Y531136D01*
X963718Y531080D01*
X963802Y531028D01*
X963889Y530978D01*
X963977Y530933D01*
X964067Y530890D01*
X964159Y530851D01*
X964252Y530816D01*
X964346Y530784D01*
X964441Y530756D01*
X964537Y530731D01*
X964635Y530710D01*
X964733Y530693D01*
X964831Y530680D01*
X964930Y530671D01*
X965030Y530665D01*
X965129Y530663D01*
X971621Y530663D01*
X971720Y530665D01*
X971820Y530671D01*
X971919Y530680D01*
X972017Y530693D01*
X972115Y530710D01*
X972213Y530731D01*
X972309Y530756D01*
X972404Y530784D01*
X972498Y530816D01*
X972591Y530851D01*
X972683Y530890D01*
X972773Y530933D01*
X972861Y530978D01*
X972948Y531028D01*
X973032Y531080D01*
X973115Y531136D01*
X973195Y531194D01*
X973273Y531256D01*
X973348Y531321D01*
X973421Y531389D01*
X973491Y531459D01*
X973559Y531532D01*
X973624Y531607D01*
X973686Y531685D01*
X973744Y531765D01*
X973800Y531848D01*
X973852Y531932D01*
X973902Y532019D01*
X973947Y532107D01*
X973990Y532197D01*
X974029Y532289D01*
X974064Y532381D01*
X974096Y532476D01*
X974124Y532571D01*
X974149Y532667D01*
X974170Y532765D01*
X974187Y532863D01*
X974200Y532961D01*
X974209Y533060D01*
X974215Y533160D01*
X974217Y533259D01*
X974217Y537154D01*
X974217Y542854D02*
X962533Y542854D01*
X962533Y549346D02*
X974217Y542854D01*
X974217Y549346D02*
X962533Y549346D01*
X962533Y555046D02*
X974217Y555046D01*
X974217Y558292D01*
X974215Y558405D01*
X974209Y558518D01*
X974199Y558631D01*
X974185Y558744D01*
X974168Y558856D01*
X974146Y558967D01*
X974121Y559077D01*
X974091Y559187D01*
X974058Y559295D01*
X974021Y559402D01*
X973981Y559508D01*
X973936Y559612D01*
X973888Y559715D01*
X973837Y559816D01*
X973782Y559915D01*
X973724Y560012D01*
X973662Y560107D01*
X973597Y560200D01*
X973529Y560290D01*
X973458Y560378D01*
X973383Y560464D01*
X973306Y560547D01*
X973226Y560627D01*
X973143Y560704D01*
X973057Y560779D01*
X972969Y560850D01*
X972879Y560918D01*
X972786Y560983D01*
X972691Y561045D01*
X972594Y561103D01*
X972495Y561158D01*
X972394Y561209D01*
X972291Y561257D01*
X972187Y561302D01*
X972081Y561342D01*
X971974Y561379D01*
X971866Y561412D01*
X971756Y561442D01*
X971646Y561467D01*
X971535Y561489D01*
X971423Y561506D01*
X971310Y561520D01*
X971197Y561530D01*
X971084Y561536D01*
X970971Y561538D01*
X965779Y561538D01*
X965666Y561536D01*
X965553Y561530D01*
X965440Y561520D01*
X965327Y561506D01*
X965215Y561489D01*
X965104Y561467D01*
X964994Y561442D01*
X964884Y561412D01*
X964776Y561379D01*
X964669Y561342D01*
X964563Y561302D01*
X964459Y561257D01*
X964356Y561209D01*
X964255Y561158D01*
X964156Y561103D01*
X964059Y561045D01*
X963964Y560983D01*
X963871Y560918D01*
X963781Y560850D01*
X963693Y560779D01*
X963607Y560704D01*
X963524Y560627D01*
X963444Y560547D01*
X963367Y560464D01*
X963292Y560378D01*
X963221Y560290D01*
X963153Y560200D01*
X963088Y560107D01*
X963026Y560012D01*
X962968Y559915D01*
X962913Y559816D01*
X962862Y559715D01*
X962814Y559612D01*
X962769Y559508D01*
X962729Y559402D01*
X962692Y559295D01*
X962659Y559187D01*
X962629Y559077D01*
X962604Y558967D01*
X962582Y558856D01*
X962565Y558744D01*
X962551Y558631D01*
X962541Y558518D01*
X962535Y558405D01*
X962533Y558292D01*
X962533Y555046D01*
D10*
X933063Y494665D02*
X933063Y476885D01*
X933063Y494665D02*
X928124Y494665D01*
X927984Y494663D01*
X927845Y494657D01*
X927705Y494647D01*
X927566Y494633D01*
X927427Y494616D01*
X927289Y494594D01*
X927152Y494568D01*
X927015Y494539D01*
X926879Y494506D01*
X926745Y494469D01*
X926611Y494428D01*
X926479Y494383D01*
X926347Y494334D01*
X926218Y494282D01*
X926090Y494227D01*
X925963Y494167D01*
X925838Y494104D01*
X925715Y494038D01*
X925594Y493968D01*
X925475Y493895D01*
X925358Y493818D01*
X925244Y493738D01*
X925131Y493655D01*
X925021Y493569D01*
X924914Y493479D01*
X924809Y493387D01*
X924707Y493292D01*
X924607Y493194D01*
X924510Y493093D01*
X924416Y492989D01*
X924326Y492883D01*
X924238Y492774D01*
X924153Y492663D01*
X924072Y492549D01*
X923993Y492434D01*
X923918Y492316D01*
X923847Y492196D01*
X923779Y492073D01*
X923714Y491950D01*
X923653Y491824D01*
X923595Y491696D01*
X923541Y491568D01*
X923491Y491437D01*
X923444Y491305D01*
X923401Y491172D01*
X923362Y491038D01*
X923327Y490903D01*
X923296Y490767D01*
X923268Y490629D01*
X923245Y490492D01*
X923225Y490353D01*
X923209Y490214D01*
X923197Y490075D01*
X923189Y489936D01*
X923185Y489796D01*
X923185Y489656D01*
X923189Y489516D01*
X923197Y489377D01*
X923209Y489238D01*
X923225Y489099D01*
X923245Y488960D01*
X923268Y488823D01*
X923296Y488685D01*
X923327Y488549D01*
X923362Y488414D01*
X923401Y488280D01*
X923444Y488147D01*
X923491Y488015D01*
X923541Y487884D01*
X923595Y487756D01*
X923653Y487628D01*
X923714Y487502D01*
X923779Y487379D01*
X923847Y487257D01*
X923918Y487136D01*
X923993Y487018D01*
X924072Y486903D01*
X924153Y486789D01*
X924238Y486678D01*
X924326Y486569D01*
X924416Y486463D01*
X924510Y486359D01*
X924607Y486258D01*
X924707Y486160D01*
X924809Y486065D01*
X924914Y485973D01*
X925021Y485883D01*
X925131Y485797D01*
X925244Y485714D01*
X925358Y485634D01*
X925475Y485557D01*
X925594Y485484D01*
X925715Y485414D01*
X925838Y485348D01*
X925963Y485285D01*
X926090Y485225D01*
X926218Y485170D01*
X926347Y485118D01*
X926479Y485069D01*
X926611Y485024D01*
X926745Y484983D01*
X926879Y484946D01*
X927015Y484913D01*
X927152Y484884D01*
X927289Y484858D01*
X927427Y484836D01*
X927566Y484819D01*
X927705Y484805D01*
X927845Y484795D01*
X927984Y484789D01*
X928124Y484787D01*
X933063Y484787D01*
X911635Y494665D02*
X911503Y494663D01*
X911372Y494657D01*
X911240Y494647D01*
X911109Y494634D01*
X910979Y494616D01*
X910849Y494595D01*
X910719Y494570D01*
X910591Y494541D01*
X910463Y494508D01*
X910337Y494471D01*
X910211Y494431D01*
X910087Y494387D01*
X909964Y494339D01*
X909843Y494288D01*
X909723Y494233D01*
X909605Y494175D01*
X909489Y494113D01*
X909375Y494047D01*
X909262Y493979D01*
X909152Y493907D01*
X909044Y493832D01*
X908938Y493753D01*
X908834Y493672D01*
X908733Y493587D01*
X908635Y493500D01*
X908539Y493409D01*
X908446Y493316D01*
X908355Y493220D01*
X908268Y493122D01*
X908183Y493021D01*
X908102Y492917D01*
X908023Y492811D01*
X907948Y492703D01*
X907876Y492593D01*
X907808Y492480D01*
X907742Y492366D01*
X907680Y492250D01*
X907622Y492132D01*
X907567Y492012D01*
X907516Y491891D01*
X907468Y491768D01*
X907424Y491644D01*
X907384Y491518D01*
X907347Y491392D01*
X907314Y491264D01*
X907285Y491136D01*
X907260Y491006D01*
X907239Y490876D01*
X907221Y490746D01*
X907208Y490615D01*
X907198Y490483D01*
X907192Y490352D01*
X907190Y490220D01*
X911635Y494665D02*
X911785Y494663D01*
X911934Y494657D01*
X912083Y494647D01*
X912232Y494634D01*
X912381Y494616D01*
X912529Y494595D01*
X912677Y494569D01*
X912823Y494540D01*
X912969Y494507D01*
X913114Y494470D01*
X913258Y494429D01*
X913401Y494385D01*
X913543Y494337D01*
X913683Y494285D01*
X913822Y494230D01*
X913960Y494171D01*
X914095Y494108D01*
X914230Y494042D01*
X914362Y493972D01*
X914492Y493899D01*
X914621Y493822D01*
X914748Y493742D01*
X914872Y493659D01*
X914994Y493573D01*
X915114Y493483D01*
X915231Y493390D01*
X915346Y493295D01*
X915459Y493196D01*
X915569Y493094D01*
X915676Y492990D01*
X915780Y492883D01*
X915882Y492773D01*
X915980Y492660D01*
X916076Y492545D01*
X916168Y492427D01*
X916258Y492307D01*
X916344Y492185D01*
X916427Y492061D01*
X916507Y491934D01*
X916583Y491806D01*
X916656Y491675D01*
X916726Y491542D01*
X916792Y491408D01*
X916854Y491272D01*
X916913Y491135D01*
X916969Y490996D01*
X917020Y490855D01*
X917068Y490714D01*
X908672Y486763D02*
X908576Y486856D01*
X908484Y486952D01*
X908394Y487051D01*
X908307Y487152D01*
X908223Y487255D01*
X908141Y487360D01*
X908063Y487468D01*
X907988Y487578D01*
X907915Y487690D01*
X907846Y487804D01*
X907780Y487920D01*
X907718Y488038D01*
X907659Y488157D01*
X907603Y488278D01*
X907550Y488401D01*
X907501Y488525D01*
X907456Y488650D01*
X907413Y488777D01*
X907375Y488904D01*
X907340Y489033D01*
X907309Y489162D01*
X907281Y489293D01*
X907257Y489424D01*
X907236Y489556D01*
X907220Y489688D01*
X907207Y489821D01*
X907197Y489954D01*
X907192Y490087D01*
X907190Y490220D01*
X908672Y486763D02*
X917068Y476885D01*
X907190Y476885D01*
X894820Y483799D02*
X894820Y489726D01*
X894820Y483799D02*
X891363Y479354D01*
X894820Y483799D02*
X898277Y479354D01*
X894820Y483799D02*
X889387Y485775D01*
X894820Y483799D02*
X900253Y485775D01*
X752088Y493078D02*
X752088Y475298D01*
X752088Y493078D02*
X747149Y493078D01*
X747009Y493076D01*
X746870Y493070D01*
X746730Y493060D01*
X746591Y493046D01*
X746452Y493029D01*
X746314Y493007D01*
X746177Y492981D01*
X746040Y492952D01*
X745904Y492919D01*
X745770Y492882D01*
X745636Y492841D01*
X745504Y492796D01*
X745372Y492747D01*
X745243Y492695D01*
X745115Y492640D01*
X744988Y492580D01*
X744863Y492517D01*
X744740Y492451D01*
X744619Y492381D01*
X744500Y492308D01*
X744383Y492231D01*
X744269Y492151D01*
X744156Y492068D01*
X744046Y491982D01*
X743939Y491892D01*
X743834Y491800D01*
X743732Y491705D01*
X743632Y491607D01*
X743535Y491506D01*
X743441Y491402D01*
X743351Y491296D01*
X743263Y491187D01*
X743178Y491076D01*
X743097Y490962D01*
X743018Y490847D01*
X742943Y490729D01*
X742872Y490609D01*
X742804Y490486D01*
X742739Y490363D01*
X742678Y490237D01*
X742620Y490109D01*
X742566Y489981D01*
X742516Y489850D01*
X742469Y489718D01*
X742426Y489585D01*
X742387Y489451D01*
X742352Y489316D01*
X742321Y489180D01*
X742293Y489042D01*
X742270Y488905D01*
X742250Y488766D01*
X742234Y488627D01*
X742222Y488488D01*
X742214Y488349D01*
X742210Y488209D01*
X742210Y488069D01*
X742214Y487929D01*
X742222Y487790D01*
X742234Y487651D01*
X742250Y487512D01*
X742270Y487373D01*
X742293Y487236D01*
X742321Y487098D01*
X742352Y486962D01*
X742387Y486827D01*
X742426Y486693D01*
X742469Y486560D01*
X742516Y486428D01*
X742566Y486297D01*
X742620Y486169D01*
X742678Y486041D01*
X742739Y485915D01*
X742804Y485792D01*
X742872Y485670D01*
X742943Y485549D01*
X743018Y485431D01*
X743097Y485316D01*
X743178Y485202D01*
X743263Y485091D01*
X743351Y484982D01*
X743441Y484876D01*
X743535Y484772D01*
X743632Y484671D01*
X743732Y484573D01*
X743834Y484478D01*
X743939Y484386D01*
X744046Y484296D01*
X744156Y484210D01*
X744269Y484127D01*
X744383Y484047D01*
X744500Y483970D01*
X744619Y483897D01*
X744740Y483827D01*
X744863Y483761D01*
X744988Y483698D01*
X745115Y483638D01*
X745243Y483583D01*
X745372Y483531D01*
X745504Y483482D01*
X745636Y483437D01*
X745770Y483396D01*
X745904Y483359D01*
X746040Y483326D01*
X746177Y483297D01*
X746314Y483271D01*
X746452Y483249D01*
X746591Y483232D01*
X746730Y483218D01*
X746870Y483208D01*
X747009Y483202D01*
X747149Y483200D01*
X752088Y483200D01*
X736093Y479249D02*
X732142Y493078D01*
X736093Y479249D02*
X726215Y479249D01*
X729178Y483200D02*
X729178Y475298D01*
X713845Y482212D02*
X713845Y488139D01*
X713845Y482212D02*
X710388Y477767D01*
X713845Y482212D02*
X717302Y477767D01*
X713845Y482212D02*
X708412Y484188D01*
X713845Y482212D02*
X719278Y484188D01*
X716199Y583248D02*
X716199Y601028D01*
X711260Y601028D01*
X711120Y601026D01*
X710981Y601020D01*
X710841Y601010D01*
X710702Y600996D01*
X710563Y600979D01*
X710425Y600957D01*
X710288Y600931D01*
X710151Y600902D01*
X710015Y600869D01*
X709881Y600832D01*
X709747Y600791D01*
X709615Y600746D01*
X709483Y600697D01*
X709354Y600645D01*
X709226Y600590D01*
X709099Y600530D01*
X708974Y600467D01*
X708851Y600401D01*
X708730Y600331D01*
X708611Y600258D01*
X708494Y600181D01*
X708380Y600101D01*
X708267Y600018D01*
X708157Y599932D01*
X708050Y599842D01*
X707945Y599750D01*
X707843Y599655D01*
X707743Y599557D01*
X707646Y599456D01*
X707552Y599352D01*
X707462Y599246D01*
X707374Y599137D01*
X707289Y599026D01*
X707208Y598912D01*
X707129Y598797D01*
X707054Y598679D01*
X706983Y598559D01*
X706915Y598436D01*
X706850Y598313D01*
X706789Y598187D01*
X706731Y598059D01*
X706677Y597931D01*
X706627Y597800D01*
X706580Y597668D01*
X706537Y597535D01*
X706498Y597401D01*
X706463Y597266D01*
X706432Y597130D01*
X706404Y596992D01*
X706381Y596855D01*
X706361Y596716D01*
X706345Y596577D01*
X706333Y596438D01*
X706325Y596299D01*
X706321Y596159D01*
X706321Y596019D01*
X706325Y595879D01*
X706333Y595740D01*
X706345Y595601D01*
X706361Y595462D01*
X706381Y595323D01*
X706404Y595186D01*
X706432Y595048D01*
X706463Y594912D01*
X706498Y594777D01*
X706537Y594643D01*
X706580Y594510D01*
X706627Y594378D01*
X706677Y594247D01*
X706731Y594119D01*
X706789Y593991D01*
X706850Y593865D01*
X706915Y593742D01*
X706983Y593620D01*
X707054Y593499D01*
X707129Y593381D01*
X707208Y593266D01*
X707289Y593152D01*
X707374Y593041D01*
X707462Y592932D01*
X707552Y592826D01*
X707646Y592722D01*
X707743Y592621D01*
X707843Y592523D01*
X707945Y592428D01*
X708050Y592336D01*
X708157Y592246D01*
X708267Y592160D01*
X708380Y592077D01*
X708494Y591997D01*
X708611Y591920D01*
X708730Y591847D01*
X708851Y591777D01*
X708974Y591711D01*
X709099Y591648D01*
X709226Y591588D01*
X709354Y591533D01*
X709483Y591481D01*
X709615Y591432D01*
X709747Y591387D01*
X709881Y591346D01*
X710015Y591309D01*
X710151Y591276D01*
X710288Y591247D01*
X710425Y591221D01*
X710563Y591199D01*
X710702Y591182D01*
X710841Y591168D01*
X710981Y591158D01*
X711120Y591152D01*
X711260Y591150D01*
X716199Y591150D01*
X700204Y583248D02*
X694277Y583248D01*
X694153Y583250D01*
X694029Y583256D01*
X693905Y583266D01*
X693782Y583279D01*
X693659Y583297D01*
X693537Y583318D01*
X693415Y583343D01*
X693294Y583372D01*
X693175Y583405D01*
X693056Y583441D01*
X692939Y583482D01*
X692823Y583525D01*
X692708Y583573D01*
X692595Y583624D01*
X692483Y583679D01*
X692374Y583737D01*
X692266Y583798D01*
X692160Y583863D01*
X692056Y583931D01*
X691955Y584003D01*
X691855Y584077D01*
X691759Y584155D01*
X691664Y584235D01*
X691572Y584319D01*
X691483Y584405D01*
X691397Y584494D01*
X691313Y584586D01*
X691233Y584681D01*
X691155Y584777D01*
X691081Y584877D01*
X691009Y584978D01*
X690941Y585082D01*
X690876Y585188D01*
X690815Y585296D01*
X690757Y585405D01*
X690702Y585517D01*
X690651Y585630D01*
X690603Y585745D01*
X690560Y585861D01*
X690519Y585978D01*
X690483Y586097D01*
X690450Y586216D01*
X690421Y586337D01*
X690396Y586459D01*
X690375Y586581D01*
X690357Y586704D01*
X690344Y586827D01*
X690334Y586951D01*
X690328Y587075D01*
X690326Y587199D01*
X690326Y589174D01*
X690328Y589298D01*
X690334Y589422D01*
X690344Y589546D01*
X690357Y589669D01*
X690375Y589792D01*
X690396Y589914D01*
X690421Y590036D01*
X690450Y590157D01*
X690483Y590276D01*
X690519Y590395D01*
X690560Y590512D01*
X690603Y590628D01*
X690651Y590743D01*
X690702Y590856D01*
X690757Y590968D01*
X690815Y591077D01*
X690876Y591185D01*
X690941Y591291D01*
X691009Y591395D01*
X691081Y591496D01*
X691155Y591596D01*
X691233Y591692D01*
X691313Y591787D01*
X691397Y591879D01*
X691483Y591968D01*
X691572Y592054D01*
X691664Y592138D01*
X691759Y592218D01*
X691855Y592296D01*
X691955Y592370D01*
X692056Y592442D01*
X692160Y592510D01*
X692266Y592575D01*
X692374Y592636D01*
X692483Y592694D01*
X692595Y592749D01*
X692708Y592800D01*
X692823Y592848D01*
X692939Y592891D01*
X693056Y592932D01*
X693175Y592968D01*
X693294Y593001D01*
X693415Y593030D01*
X693537Y593055D01*
X693659Y593076D01*
X693782Y593094D01*
X693905Y593107D01*
X694029Y593117D01*
X694153Y593123D01*
X694277Y593125D01*
X700204Y593125D01*
X700204Y601028D01*
X690326Y601028D01*
X833674Y657860D02*
X833674Y675640D01*
X828735Y675640D01*
X828595Y675638D01*
X828456Y675632D01*
X828316Y675622D01*
X828177Y675608D01*
X828038Y675591D01*
X827900Y675569D01*
X827763Y675543D01*
X827626Y675514D01*
X827490Y675481D01*
X827356Y675444D01*
X827222Y675403D01*
X827090Y675358D01*
X826958Y675309D01*
X826829Y675257D01*
X826701Y675202D01*
X826574Y675142D01*
X826449Y675079D01*
X826326Y675013D01*
X826205Y674943D01*
X826086Y674870D01*
X825969Y674793D01*
X825855Y674713D01*
X825742Y674630D01*
X825632Y674544D01*
X825525Y674454D01*
X825420Y674362D01*
X825318Y674267D01*
X825218Y674169D01*
X825121Y674068D01*
X825027Y673964D01*
X824937Y673858D01*
X824849Y673749D01*
X824764Y673638D01*
X824683Y673524D01*
X824604Y673409D01*
X824529Y673291D01*
X824458Y673171D01*
X824390Y673048D01*
X824325Y672925D01*
X824264Y672799D01*
X824206Y672671D01*
X824152Y672543D01*
X824102Y672412D01*
X824055Y672280D01*
X824012Y672147D01*
X823973Y672013D01*
X823938Y671878D01*
X823907Y671742D01*
X823879Y671604D01*
X823856Y671467D01*
X823836Y671328D01*
X823820Y671189D01*
X823808Y671050D01*
X823800Y670911D01*
X823796Y670771D01*
X823796Y670631D01*
X823800Y670491D01*
X823808Y670352D01*
X823820Y670213D01*
X823836Y670074D01*
X823856Y669935D01*
X823879Y669798D01*
X823907Y669660D01*
X823938Y669524D01*
X823973Y669389D01*
X824012Y669255D01*
X824055Y669122D01*
X824102Y668990D01*
X824152Y668859D01*
X824206Y668731D01*
X824264Y668603D01*
X824325Y668477D01*
X824390Y668354D01*
X824458Y668232D01*
X824529Y668111D01*
X824604Y667993D01*
X824683Y667878D01*
X824764Y667764D01*
X824849Y667653D01*
X824937Y667544D01*
X825027Y667438D01*
X825121Y667334D01*
X825218Y667233D01*
X825318Y667135D01*
X825420Y667040D01*
X825525Y666948D01*
X825632Y666858D01*
X825742Y666772D01*
X825855Y666689D01*
X825969Y666609D01*
X826086Y666532D01*
X826205Y666459D01*
X826326Y666389D01*
X826449Y666323D01*
X826574Y666260D01*
X826701Y666200D01*
X826829Y666145D01*
X826958Y666093D01*
X827090Y666044D01*
X827222Y665999D01*
X827356Y665958D01*
X827490Y665921D01*
X827626Y665888D01*
X827763Y665859D01*
X827900Y665833D01*
X828038Y665811D01*
X828177Y665794D01*
X828316Y665780D01*
X828456Y665770D01*
X828595Y665764D01*
X828735Y665762D01*
X833674Y665762D01*
X817679Y667738D02*
X811752Y667738D01*
X811628Y667736D01*
X811504Y667730D01*
X811380Y667720D01*
X811257Y667707D01*
X811134Y667689D01*
X811012Y667668D01*
X810890Y667643D01*
X810769Y667614D01*
X810650Y667581D01*
X810531Y667545D01*
X810414Y667504D01*
X810298Y667461D01*
X810183Y667413D01*
X810070Y667362D01*
X809958Y667307D01*
X809849Y667249D01*
X809741Y667188D01*
X809635Y667123D01*
X809531Y667055D01*
X809430Y666983D01*
X809330Y666909D01*
X809234Y666831D01*
X809139Y666751D01*
X809047Y666667D01*
X808958Y666581D01*
X808872Y666492D01*
X808788Y666400D01*
X808708Y666305D01*
X808630Y666209D01*
X808556Y666109D01*
X808484Y666008D01*
X808416Y665904D01*
X808351Y665798D01*
X808290Y665690D01*
X808232Y665581D01*
X808177Y665469D01*
X808126Y665356D01*
X808078Y665241D01*
X808035Y665125D01*
X807994Y665008D01*
X807958Y664889D01*
X807925Y664770D01*
X807896Y664649D01*
X807871Y664527D01*
X807850Y664405D01*
X807832Y664282D01*
X807819Y664159D01*
X807809Y664035D01*
X807803Y663911D01*
X807801Y663787D01*
X807801Y662799D01*
X807803Y662659D01*
X807809Y662520D01*
X807819Y662380D01*
X807833Y662241D01*
X807850Y662102D01*
X807872Y661964D01*
X807898Y661827D01*
X807927Y661690D01*
X807960Y661554D01*
X807997Y661420D01*
X808038Y661286D01*
X808083Y661154D01*
X808132Y661022D01*
X808184Y660893D01*
X808239Y660765D01*
X808299Y660638D01*
X808362Y660513D01*
X808428Y660390D01*
X808498Y660269D01*
X808571Y660150D01*
X808648Y660033D01*
X808728Y659919D01*
X808811Y659806D01*
X808897Y659696D01*
X808987Y659589D01*
X809079Y659484D01*
X809174Y659382D01*
X809272Y659282D01*
X809373Y659185D01*
X809477Y659091D01*
X809583Y659001D01*
X809692Y658913D01*
X809803Y658828D01*
X809917Y658747D01*
X810032Y658668D01*
X810150Y658593D01*
X810271Y658522D01*
X810393Y658454D01*
X810516Y658389D01*
X810642Y658328D01*
X810770Y658270D01*
X810898Y658216D01*
X811029Y658166D01*
X811161Y658119D01*
X811294Y658076D01*
X811428Y658037D01*
X811563Y658002D01*
X811699Y657971D01*
X811837Y657943D01*
X811974Y657920D01*
X812113Y657900D01*
X812252Y657884D01*
X812391Y657872D01*
X812530Y657864D01*
X812670Y657860D01*
X812810Y657860D01*
X812950Y657864D01*
X813089Y657872D01*
X813228Y657884D01*
X813367Y657900D01*
X813506Y657920D01*
X813643Y657943D01*
X813781Y657971D01*
X813917Y658002D01*
X814052Y658037D01*
X814186Y658076D01*
X814319Y658119D01*
X814451Y658166D01*
X814582Y658216D01*
X814710Y658270D01*
X814838Y658328D01*
X814964Y658389D01*
X815087Y658454D01*
X815210Y658522D01*
X815330Y658593D01*
X815448Y658668D01*
X815563Y658747D01*
X815677Y658828D01*
X815788Y658913D01*
X815897Y659001D01*
X816003Y659091D01*
X816107Y659185D01*
X816208Y659282D01*
X816306Y659382D01*
X816401Y659484D01*
X816493Y659589D01*
X816583Y659696D01*
X816669Y659806D01*
X816752Y659919D01*
X816832Y660033D01*
X816909Y660150D01*
X816982Y660269D01*
X817052Y660390D01*
X817118Y660513D01*
X817181Y660638D01*
X817241Y660765D01*
X817296Y660893D01*
X817348Y661022D01*
X817397Y661154D01*
X817442Y661286D01*
X817483Y661420D01*
X817520Y661554D01*
X817553Y661690D01*
X817582Y661827D01*
X817608Y661964D01*
X817630Y662102D01*
X817647Y662241D01*
X817661Y662380D01*
X817671Y662520D01*
X817677Y662659D01*
X817679Y662799D01*
X817679Y667738D01*
X817677Y667932D01*
X817669Y668126D01*
X817658Y668319D01*
X817641Y668513D01*
X817620Y668705D01*
X817593Y668897D01*
X817563Y669089D01*
X817527Y669280D01*
X817487Y669469D01*
X817442Y669658D01*
X817393Y669846D01*
X817339Y670032D01*
X817280Y670217D01*
X817217Y670400D01*
X817150Y670582D01*
X817078Y670762D01*
X817001Y670940D01*
X816920Y671117D01*
X816835Y671291D01*
X816746Y671463D01*
X816652Y671633D01*
X816555Y671800D01*
X816453Y671966D01*
X816347Y672128D01*
X816238Y672288D01*
X816124Y672445D01*
X816007Y672600D01*
X815885Y672751D01*
X815760Y672899D01*
X815632Y673045D01*
X815500Y673187D01*
X815365Y673326D01*
X815226Y673461D01*
X815084Y673593D01*
X814938Y673721D01*
X814790Y673846D01*
X814639Y673967D01*
X814484Y674085D01*
X814327Y674199D01*
X814167Y674308D01*
X814005Y674414D01*
X813839Y674516D01*
X813672Y674613D01*
X813502Y674707D01*
X813330Y674796D01*
X813156Y674881D01*
X812979Y674962D01*
X812801Y675038D01*
X812621Y675110D01*
X812439Y675178D01*
X812256Y675241D01*
X812071Y675300D01*
X811885Y675354D01*
X811697Y675403D01*
X811508Y675448D01*
X811319Y675488D01*
X811128Y675524D01*
X810937Y675554D01*
X810744Y675581D01*
X810552Y675602D01*
X810358Y675619D01*
X810165Y675630D01*
X809971Y675638D01*
X809777Y675640D01*
X951149Y601028D02*
X951149Y583248D01*
X951149Y601028D02*
X946210Y601028D01*
X946070Y601026D01*
X945931Y601020D01*
X945791Y601010D01*
X945652Y600996D01*
X945513Y600979D01*
X945375Y600957D01*
X945238Y600931D01*
X945101Y600902D01*
X944965Y600869D01*
X944831Y600832D01*
X944697Y600791D01*
X944565Y600746D01*
X944433Y600697D01*
X944304Y600645D01*
X944176Y600590D01*
X944049Y600530D01*
X943924Y600467D01*
X943801Y600401D01*
X943680Y600331D01*
X943561Y600258D01*
X943444Y600181D01*
X943330Y600101D01*
X943217Y600018D01*
X943107Y599932D01*
X943000Y599842D01*
X942895Y599750D01*
X942793Y599655D01*
X942693Y599557D01*
X942596Y599456D01*
X942502Y599352D01*
X942412Y599246D01*
X942324Y599137D01*
X942239Y599026D01*
X942158Y598912D01*
X942079Y598797D01*
X942004Y598679D01*
X941933Y598559D01*
X941865Y598436D01*
X941800Y598313D01*
X941739Y598187D01*
X941681Y598059D01*
X941627Y597931D01*
X941577Y597800D01*
X941530Y597668D01*
X941487Y597535D01*
X941448Y597401D01*
X941413Y597266D01*
X941382Y597130D01*
X941354Y596992D01*
X941331Y596855D01*
X941311Y596716D01*
X941295Y596577D01*
X941283Y596438D01*
X941275Y596299D01*
X941271Y596159D01*
X941271Y596019D01*
X941275Y595879D01*
X941283Y595740D01*
X941295Y595601D01*
X941311Y595462D01*
X941331Y595323D01*
X941354Y595186D01*
X941382Y595048D01*
X941413Y594912D01*
X941448Y594777D01*
X941487Y594643D01*
X941530Y594510D01*
X941577Y594378D01*
X941627Y594247D01*
X941681Y594119D01*
X941739Y593991D01*
X941800Y593865D01*
X941865Y593742D01*
X941933Y593620D01*
X942004Y593499D01*
X942079Y593381D01*
X942158Y593266D01*
X942239Y593152D01*
X942324Y593041D01*
X942412Y592932D01*
X942502Y592826D01*
X942596Y592722D01*
X942693Y592621D01*
X942793Y592523D01*
X942895Y592428D01*
X943000Y592336D01*
X943107Y592246D01*
X943217Y592160D01*
X943330Y592077D01*
X943444Y591997D01*
X943561Y591920D01*
X943680Y591847D01*
X943801Y591777D01*
X943924Y591711D01*
X944049Y591648D01*
X944176Y591588D01*
X944304Y591533D01*
X944433Y591481D01*
X944565Y591432D01*
X944697Y591387D01*
X944831Y591346D01*
X944965Y591309D01*
X945101Y591276D01*
X945238Y591247D01*
X945375Y591221D01*
X945513Y591199D01*
X945652Y591182D01*
X945791Y591168D01*
X945931Y591158D01*
X946070Y591152D01*
X946210Y591150D01*
X951149Y591150D01*
X935154Y597076D02*
X930215Y601028D01*
X930215Y583248D01*
X935154Y583248D02*
X925276Y583248D01*
D11*
X758815Y680600D02*
X757324Y679348D01*
X761496Y674375D01*
X764480Y676879D01*
X764555Y676945D01*
X764627Y677013D01*
X764697Y677084D01*
X764764Y677157D01*
X764828Y677233D01*
X764889Y677312D01*
X764947Y677393D01*
X765002Y677476D01*
X765054Y677560D01*
X765102Y677647D01*
X765147Y677736D01*
X765189Y677826D01*
X765227Y677918D01*
X765262Y678011D01*
X765293Y678106D01*
X765320Y678201D01*
X765344Y678298D01*
X765364Y678395D01*
X765380Y678494D01*
X765392Y678592D01*
X765401Y678691D01*
X765406Y678791D01*
X765407Y678890D01*
X765404Y678990D01*
X765398Y679089D01*
X765387Y679188D01*
X765373Y679286D01*
X765355Y679384D01*
X765334Y679481D01*
X765308Y679577D01*
X765279Y679672D01*
X765247Y679766D01*
X765210Y679859D01*
X765171Y679950D01*
X765128Y680040D01*
X765081Y680128D01*
X765031Y680214D01*
X764978Y680298D01*
X764922Y680380D01*
X764862Y680459D01*
X764800Y680537D01*
X760627Y685509D01*
X760562Y685584D01*
X760494Y685657D01*
X760423Y685726D01*
X760349Y685793D01*
X760273Y685858D01*
X760195Y685919D01*
X760114Y685977D01*
X760031Y686032D01*
X759946Y686084D01*
X759859Y686132D01*
X759770Y686177D01*
X759680Y686219D01*
X759588Y686257D01*
X759495Y686292D01*
X759400Y686323D01*
X759305Y686350D01*
X759208Y686374D01*
X759111Y686394D01*
X759013Y686410D01*
X758914Y686422D01*
X758815Y686431D01*
X758715Y686436D01*
X758616Y686437D01*
X758516Y686434D01*
X758417Y686428D01*
X758318Y686417D01*
X758220Y686403D01*
X758122Y686385D01*
X758025Y686364D01*
X757929Y686338D01*
X757833Y686309D01*
X757739Y686277D01*
X757647Y686240D01*
X757556Y686201D01*
X757466Y686157D01*
X757378Y686111D01*
X757292Y686061D01*
X757208Y686008D01*
X757126Y685951D01*
X757046Y685892D01*
X756969Y685829D01*
X753986Y683326D01*
X749619Y679661D02*
X757129Y670711D01*
X752157Y666538D02*
X749619Y679661D01*
X744646Y675489D02*
X752157Y666538D01*
X747790Y662874D02*
X740279Y671824D01*
X737793Y669738D01*
X737793Y669739D02*
X737707Y669664D01*
X737624Y669587D01*
X737544Y669507D01*
X737467Y669424D01*
X737392Y669339D01*
X737321Y669250D01*
X737253Y669160D01*
X737188Y669067D01*
X737126Y668972D01*
X737068Y668875D01*
X737013Y668776D01*
X736962Y668675D01*
X736914Y668572D01*
X736869Y668468D01*
X736829Y668362D01*
X736792Y668255D01*
X736759Y668147D01*
X736729Y668037D01*
X736704Y667927D01*
X736682Y667816D01*
X736665Y667704D01*
X736651Y667591D01*
X736641Y667478D01*
X736635Y667365D01*
X736633Y667252D01*
X736635Y667139D01*
X736641Y667026D01*
X736651Y666913D01*
X736665Y666800D01*
X736682Y666688D01*
X736704Y666577D01*
X736729Y666467D01*
X736759Y666357D01*
X736792Y666249D01*
X736829Y666142D01*
X736869Y666036D01*
X736914Y665932D01*
X736962Y665829D01*
X737013Y665728D01*
X737068Y665629D01*
X737126Y665532D01*
X737188Y665437D01*
X737253Y665344D01*
X737321Y665254D01*
X737392Y665166D01*
X737393Y665166D02*
X740731Y661188D01*
X740730Y661188D02*
X740805Y661102D01*
X740882Y661019D01*
X740962Y660939D01*
X741045Y660862D01*
X741131Y660787D01*
X741219Y660716D01*
X741309Y660648D01*
X741402Y660583D01*
X741497Y660521D01*
X741594Y660463D01*
X741693Y660408D01*
X741794Y660357D01*
X741897Y660309D01*
X742001Y660264D01*
X742107Y660224D01*
X742214Y660187D01*
X742322Y660154D01*
X742432Y660124D01*
X742542Y660099D01*
X742653Y660077D01*
X742765Y660060D01*
X742878Y660046D01*
X742991Y660036D01*
X743104Y660030D01*
X743217Y660028D01*
X743330Y660030D01*
X743443Y660036D01*
X743556Y660046D01*
X743669Y660060D01*
X743781Y660077D01*
X743892Y660099D01*
X744002Y660124D01*
X744112Y660154D01*
X744220Y660187D01*
X744327Y660224D01*
X744433Y660264D01*
X744537Y660309D01*
X744640Y660357D01*
X744741Y660408D01*
X744840Y660463D01*
X744937Y660521D01*
X745032Y660583D01*
X745125Y660648D01*
X745215Y660716D01*
X745304Y660787D01*
X745303Y660788D02*
X747790Y662874D01*
D10*
X833674Y434340D02*
X833674Y416560D01*
X833674Y434340D02*
X828735Y434340D01*
X828595Y434338D01*
X828456Y434332D01*
X828316Y434322D01*
X828177Y434308D01*
X828038Y434291D01*
X827900Y434269D01*
X827763Y434243D01*
X827626Y434214D01*
X827490Y434181D01*
X827356Y434144D01*
X827222Y434103D01*
X827090Y434058D01*
X826958Y434009D01*
X826829Y433957D01*
X826701Y433902D01*
X826574Y433842D01*
X826449Y433779D01*
X826326Y433713D01*
X826205Y433643D01*
X826086Y433570D01*
X825969Y433493D01*
X825855Y433413D01*
X825742Y433330D01*
X825632Y433244D01*
X825525Y433154D01*
X825420Y433062D01*
X825318Y432967D01*
X825218Y432869D01*
X825121Y432768D01*
X825027Y432664D01*
X824937Y432558D01*
X824849Y432449D01*
X824764Y432338D01*
X824683Y432224D01*
X824604Y432109D01*
X824529Y431991D01*
X824458Y431871D01*
X824390Y431748D01*
X824325Y431625D01*
X824264Y431499D01*
X824206Y431371D01*
X824152Y431243D01*
X824102Y431112D01*
X824055Y430980D01*
X824012Y430847D01*
X823973Y430713D01*
X823938Y430578D01*
X823907Y430442D01*
X823879Y430304D01*
X823856Y430167D01*
X823836Y430028D01*
X823820Y429889D01*
X823808Y429750D01*
X823800Y429611D01*
X823796Y429471D01*
X823796Y429331D01*
X823800Y429191D01*
X823808Y429052D01*
X823820Y428913D01*
X823836Y428774D01*
X823856Y428635D01*
X823879Y428498D01*
X823907Y428360D01*
X823938Y428224D01*
X823973Y428089D01*
X824012Y427955D01*
X824055Y427822D01*
X824102Y427690D01*
X824152Y427559D01*
X824206Y427431D01*
X824264Y427303D01*
X824325Y427177D01*
X824390Y427054D01*
X824458Y426932D01*
X824529Y426811D01*
X824604Y426693D01*
X824683Y426578D01*
X824764Y426464D01*
X824849Y426353D01*
X824937Y426244D01*
X825027Y426138D01*
X825121Y426034D01*
X825218Y425933D01*
X825318Y425835D01*
X825420Y425740D01*
X825525Y425648D01*
X825632Y425558D01*
X825742Y425472D01*
X825855Y425389D01*
X825969Y425309D01*
X826086Y425232D01*
X826205Y425159D01*
X826326Y425089D01*
X826449Y425023D01*
X826574Y424960D01*
X826701Y424900D01*
X826829Y424845D01*
X826958Y424793D01*
X827090Y424744D01*
X827222Y424699D01*
X827356Y424658D01*
X827490Y424621D01*
X827626Y424588D01*
X827763Y424559D01*
X827900Y424533D01*
X828038Y424511D01*
X828177Y424494D01*
X828316Y424480D01*
X828456Y424470D01*
X828595Y424464D01*
X828735Y424462D01*
X833674Y424462D01*
X817679Y416560D02*
X812740Y416560D01*
X812600Y416562D01*
X812461Y416568D01*
X812321Y416578D01*
X812182Y416592D01*
X812043Y416609D01*
X811905Y416631D01*
X811768Y416657D01*
X811631Y416686D01*
X811495Y416719D01*
X811361Y416756D01*
X811227Y416797D01*
X811095Y416842D01*
X810963Y416891D01*
X810834Y416943D01*
X810706Y416998D01*
X810579Y417058D01*
X810454Y417121D01*
X810331Y417187D01*
X810210Y417257D01*
X810091Y417330D01*
X809974Y417407D01*
X809860Y417487D01*
X809747Y417570D01*
X809637Y417656D01*
X809530Y417746D01*
X809425Y417838D01*
X809323Y417933D01*
X809223Y418031D01*
X809126Y418132D01*
X809032Y418236D01*
X808942Y418342D01*
X808854Y418451D01*
X808769Y418562D01*
X808688Y418676D01*
X808609Y418791D01*
X808534Y418909D01*
X808463Y419030D01*
X808395Y419152D01*
X808330Y419275D01*
X808269Y419401D01*
X808211Y419529D01*
X808157Y419657D01*
X808107Y419788D01*
X808060Y419920D01*
X808017Y420053D01*
X807978Y420187D01*
X807943Y420322D01*
X807912Y420458D01*
X807884Y420596D01*
X807861Y420733D01*
X807841Y420872D01*
X807825Y421011D01*
X807813Y421150D01*
X807805Y421289D01*
X807801Y421429D01*
X807801Y421569D01*
X807805Y421709D01*
X807813Y421848D01*
X807825Y421987D01*
X807841Y422126D01*
X807861Y422265D01*
X807884Y422402D01*
X807912Y422540D01*
X807943Y422676D01*
X807978Y422811D01*
X808017Y422945D01*
X808060Y423078D01*
X808107Y423210D01*
X808157Y423341D01*
X808211Y423469D01*
X808269Y423597D01*
X808330Y423723D01*
X808395Y423846D01*
X808463Y423969D01*
X808534Y424089D01*
X808609Y424207D01*
X808688Y424322D01*
X808769Y424436D01*
X808854Y424547D01*
X808942Y424656D01*
X809032Y424762D01*
X809126Y424866D01*
X809223Y424967D01*
X809323Y425065D01*
X809425Y425160D01*
X809530Y425252D01*
X809637Y425342D01*
X809747Y425428D01*
X809860Y425511D01*
X809974Y425591D01*
X810091Y425668D01*
X810210Y425741D01*
X810331Y425811D01*
X810454Y425877D01*
X810579Y425940D01*
X810706Y426000D01*
X810834Y426055D01*
X810963Y426107D01*
X811095Y426156D01*
X811227Y426201D01*
X811361Y426242D01*
X811495Y426279D01*
X811631Y426312D01*
X811768Y426341D01*
X811905Y426367D01*
X812043Y426389D01*
X812182Y426406D01*
X812321Y426420D01*
X812461Y426430D01*
X812600Y426436D01*
X812740Y426438D01*
X811752Y434340D02*
X817679Y434340D01*
X811752Y434340D02*
X811628Y434338D01*
X811504Y434332D01*
X811380Y434322D01*
X811257Y434309D01*
X811134Y434291D01*
X811012Y434270D01*
X810890Y434245D01*
X810769Y434216D01*
X810650Y434183D01*
X810531Y434147D01*
X810414Y434106D01*
X810298Y434063D01*
X810183Y434015D01*
X810070Y433964D01*
X809958Y433909D01*
X809849Y433851D01*
X809741Y433790D01*
X809635Y433725D01*
X809531Y433657D01*
X809430Y433585D01*
X809330Y433511D01*
X809234Y433433D01*
X809139Y433353D01*
X809047Y433269D01*
X808958Y433183D01*
X808872Y433094D01*
X808788Y433002D01*
X808708Y432907D01*
X808630Y432811D01*
X808556Y432711D01*
X808484Y432610D01*
X808416Y432506D01*
X808351Y432400D01*
X808290Y432292D01*
X808232Y432183D01*
X808177Y432071D01*
X808126Y431958D01*
X808078Y431843D01*
X808035Y431727D01*
X807994Y431610D01*
X807958Y431491D01*
X807925Y431372D01*
X807896Y431251D01*
X807871Y431129D01*
X807850Y431007D01*
X807832Y430884D01*
X807819Y430761D01*
X807809Y430637D01*
X807803Y430513D01*
X807801Y430389D01*
X807803Y430265D01*
X807809Y430141D01*
X807819Y430017D01*
X807832Y429894D01*
X807850Y429771D01*
X807871Y429649D01*
X807896Y429527D01*
X807925Y429406D01*
X807958Y429287D01*
X807994Y429168D01*
X808035Y429051D01*
X808078Y428935D01*
X808126Y428820D01*
X808177Y428707D01*
X808232Y428595D01*
X808290Y428486D01*
X808351Y428378D01*
X808416Y428272D01*
X808484Y428168D01*
X808556Y428067D01*
X808630Y427967D01*
X808708Y427871D01*
X808788Y427776D01*
X808872Y427684D01*
X808958Y427595D01*
X809047Y427509D01*
X809139Y427425D01*
X809234Y427345D01*
X809330Y427267D01*
X809430Y427193D01*
X809531Y427121D01*
X809635Y427053D01*
X809741Y426988D01*
X809849Y426927D01*
X809958Y426869D01*
X810070Y426814D01*
X810183Y426763D01*
X810298Y426715D01*
X810414Y426672D01*
X810531Y426631D01*
X810650Y426595D01*
X810769Y426562D01*
X810890Y426533D01*
X811012Y426508D01*
X811134Y426487D01*
X811257Y426469D01*
X811380Y426456D01*
X811504Y426446D01*
X811628Y426440D01*
X811752Y426438D01*
X815703Y426438D01*
D12*
X853694Y495117D02*
X853694Y501904D01*
X853694Y495117D02*
X853692Y495016D01*
X853686Y494915D01*
X853676Y494814D01*
X853663Y494714D01*
X853645Y494614D01*
X853624Y494515D01*
X853598Y494417D01*
X853569Y494320D01*
X853537Y494224D01*
X853500Y494130D01*
X853460Y494037D01*
X853416Y493945D01*
X853369Y493856D01*
X853318Y493768D01*
X853264Y493682D01*
X853207Y493599D01*
X853147Y493517D01*
X853083Y493439D01*
X853017Y493362D01*
X852947Y493289D01*
X852875Y493218D01*
X852800Y493150D01*
X852722Y493085D01*
X852642Y493023D01*
X852560Y492964D01*
X852475Y492908D01*
X852389Y492856D01*
X852300Y492807D01*
X852209Y492761D01*
X852117Y492720D01*
X852023Y492681D01*
X851928Y492647D01*
X851832Y492616D01*
X851734Y492589D01*
X851636Y492565D01*
X851536Y492546D01*
X851436Y492530D01*
X851336Y492518D01*
X851235Y492510D01*
X851134Y492506D01*
X851032Y492506D01*
X850931Y492510D01*
X850830Y492518D01*
X850730Y492530D01*
X850630Y492546D01*
X850530Y492565D01*
X850432Y492589D01*
X850334Y492616D01*
X850238Y492647D01*
X850143Y492681D01*
X850049Y492720D01*
X849957Y492761D01*
X849866Y492807D01*
X849778Y492856D01*
X849691Y492908D01*
X849606Y492964D01*
X849524Y493023D01*
X849444Y493085D01*
X849366Y493150D01*
X849291Y493218D01*
X849219Y493289D01*
X849149Y493362D01*
X849083Y493439D01*
X849019Y493517D01*
X848959Y493599D01*
X848902Y493682D01*
X848848Y493768D01*
X848797Y493856D01*
X848750Y493945D01*
X848706Y494037D01*
X848666Y494130D01*
X848629Y494224D01*
X848597Y494320D01*
X848568Y494417D01*
X848542Y494515D01*
X848521Y494614D01*
X848503Y494714D01*
X848490Y494814D01*
X848480Y494915D01*
X848474Y495016D01*
X848472Y495117D01*
X848473Y495117D02*
X848473Y501904D01*
X844245Y499816D02*
X841635Y501904D01*
X841635Y492506D01*
X844245Y492506D02*
X839024Y492506D01*
D10*
X859320Y575831D02*
X859320Y595960D01*
D13*
X876173Y585788D02*
X882777Y585788D01*
D12*
X908622Y584391D02*
X910259Y584391D01*
X910259Y584390D02*
X910337Y584392D01*
X910415Y584397D01*
X910492Y584407D01*
X910569Y584420D01*
X910645Y584436D01*
X910720Y584456D01*
X910794Y584480D01*
X910867Y584507D01*
X910939Y584538D01*
X911009Y584572D01*
X911078Y584609D01*
X911144Y584650D01*
X911209Y584694D01*
X911271Y584740D01*
X911331Y584790D01*
X911389Y584842D01*
X911444Y584897D01*
X911496Y584955D01*
X911546Y585015D01*
X911592Y585077D01*
X911636Y585142D01*
X911677Y585209D01*
X911714Y585277D01*
X911748Y585347D01*
X911779Y585419D01*
X911806Y585492D01*
X911830Y585566D01*
X911850Y585641D01*
X911866Y585717D01*
X911879Y585794D01*
X911889Y585871D01*
X911894Y585949D01*
X911896Y586027D01*
X911895Y586027D02*
X911895Y590120D01*
X911896Y590120D02*
X911894Y590198D01*
X911889Y590276D01*
X911879Y590353D01*
X911866Y590430D01*
X911850Y590506D01*
X911830Y590581D01*
X911806Y590655D01*
X911779Y590728D01*
X911748Y590800D01*
X911714Y590870D01*
X911677Y590939D01*
X911636Y591005D01*
X911592Y591070D01*
X911546Y591132D01*
X911496Y591192D01*
X911444Y591250D01*
X911389Y591305D01*
X911331Y591357D01*
X911271Y591407D01*
X911209Y591453D01*
X911144Y591497D01*
X911078Y591538D01*
X911009Y591575D01*
X910939Y591609D01*
X910867Y591640D01*
X910794Y591667D01*
X910720Y591691D01*
X910645Y591711D01*
X910569Y591727D01*
X910492Y591740D01*
X910415Y591750D01*
X910337Y591755D01*
X910259Y591757D01*
X908622Y591757D01*
X903526Y591757D02*
X903441Y591755D01*
X903356Y591749D01*
X903272Y591739D01*
X903188Y591726D01*
X903104Y591708D01*
X903022Y591687D01*
X902941Y591662D01*
X902861Y591633D01*
X902782Y591600D01*
X902705Y591564D01*
X902630Y591524D01*
X902556Y591481D01*
X902485Y591435D01*
X902416Y591385D01*
X902349Y591332D01*
X902285Y591276D01*
X902224Y591217D01*
X902165Y591156D01*
X902109Y591092D01*
X902056Y591025D01*
X902006Y590956D01*
X901960Y590885D01*
X901917Y590811D01*
X901877Y590736D01*
X901841Y590659D01*
X901808Y590580D01*
X901779Y590500D01*
X901754Y590419D01*
X901733Y590337D01*
X901715Y590253D01*
X901702Y590169D01*
X901692Y590085D01*
X901686Y590000D01*
X901684Y589915D01*
X903526Y591757D02*
X903622Y591755D01*
X903718Y591749D01*
X903813Y591739D01*
X903908Y591726D01*
X904003Y591708D01*
X904096Y591687D01*
X904189Y591662D01*
X904280Y591633D01*
X904371Y591601D01*
X904460Y591565D01*
X904547Y591525D01*
X904633Y591482D01*
X904717Y591436D01*
X904799Y591386D01*
X904879Y591332D01*
X904956Y591276D01*
X905031Y591216D01*
X905104Y591154D01*
X905174Y591088D01*
X905242Y591020D01*
X905307Y590949D01*
X905368Y590876D01*
X905427Y590800D01*
X905483Y590721D01*
X905535Y590641D01*
X905584Y590558D01*
X905630Y590474D01*
X905672Y590388D01*
X905710Y590300D01*
X905745Y590211D01*
X905777Y590120D01*
X902298Y588483D02*
X902238Y588542D01*
X902181Y588604D01*
X902126Y588668D01*
X902075Y588735D01*
X902026Y588804D01*
X901980Y588874D01*
X901937Y588947D01*
X901897Y589021D01*
X901861Y589097D01*
X901828Y589175D01*
X901798Y589254D01*
X901771Y589334D01*
X901748Y589415D01*
X901729Y589497D01*
X901713Y589579D01*
X901700Y589663D01*
X901691Y589747D01*
X901686Y589831D01*
X901684Y589915D01*
X902298Y588483D02*
X905776Y584391D01*
X901684Y584391D01*
D13*
X773113Y547815D02*
X773113Y541211D01*
D12*
X770128Y516556D02*
X770128Y514920D01*
X770130Y514842D01*
X770135Y514764D01*
X770145Y514687D01*
X770158Y514610D01*
X770174Y514534D01*
X770194Y514459D01*
X770218Y514385D01*
X770245Y514312D01*
X770276Y514240D01*
X770310Y514170D01*
X770347Y514102D01*
X770388Y514035D01*
X770432Y513970D01*
X770478Y513908D01*
X770528Y513848D01*
X770580Y513790D01*
X770635Y513735D01*
X770693Y513683D01*
X770753Y513633D01*
X770815Y513587D01*
X770880Y513543D01*
X770947Y513502D01*
X771015Y513465D01*
X771085Y513431D01*
X771157Y513400D01*
X771230Y513373D01*
X771304Y513349D01*
X771379Y513329D01*
X771455Y513313D01*
X771532Y513300D01*
X771609Y513290D01*
X771687Y513285D01*
X771765Y513283D01*
X775857Y513283D01*
X775935Y513285D01*
X776013Y513290D01*
X776090Y513300D01*
X776167Y513313D01*
X776243Y513329D01*
X776318Y513349D01*
X776392Y513373D01*
X776465Y513400D01*
X776537Y513431D01*
X776607Y513465D01*
X776676Y513502D01*
X776742Y513543D01*
X776807Y513587D01*
X776869Y513633D01*
X776929Y513683D01*
X776987Y513735D01*
X777042Y513790D01*
X777094Y513848D01*
X777144Y513908D01*
X777190Y513970D01*
X777234Y514035D01*
X777275Y514102D01*
X777312Y514170D01*
X777346Y514240D01*
X777377Y514312D01*
X777404Y514385D01*
X777428Y514459D01*
X777448Y514534D01*
X777464Y514610D01*
X777477Y514687D01*
X777487Y514764D01*
X777492Y514842D01*
X777494Y514920D01*
X777494Y516556D01*
X770128Y519402D02*
X770128Y521448D01*
X770130Y521537D01*
X770136Y521626D01*
X770146Y521715D01*
X770159Y521803D01*
X770176Y521891D01*
X770198Y521978D01*
X770223Y522063D01*
X770251Y522148D01*
X770284Y522231D01*
X770320Y522313D01*
X770359Y522393D01*
X770402Y522471D01*
X770448Y522547D01*
X770498Y522622D01*
X770551Y522694D01*
X770607Y522763D01*
X770666Y522830D01*
X770727Y522895D01*
X770792Y522956D01*
X770859Y523015D01*
X770928Y523071D01*
X771000Y523124D01*
X771075Y523174D01*
X771151Y523220D01*
X771229Y523263D01*
X771309Y523302D01*
X771391Y523338D01*
X771474Y523371D01*
X771559Y523399D01*
X771644Y523424D01*
X771731Y523446D01*
X771819Y523463D01*
X771907Y523476D01*
X771996Y523486D01*
X772085Y523492D01*
X772174Y523494D01*
X772263Y523492D01*
X772352Y523486D01*
X772441Y523476D01*
X772529Y523463D01*
X772617Y523446D01*
X772704Y523424D01*
X772789Y523399D01*
X772874Y523371D01*
X772957Y523338D01*
X773039Y523302D01*
X773119Y523263D01*
X773197Y523220D01*
X773273Y523174D01*
X773348Y523124D01*
X773420Y523071D01*
X773489Y523015D01*
X773556Y522956D01*
X773621Y522895D01*
X773682Y522830D01*
X773741Y522763D01*
X773797Y522694D01*
X773850Y522622D01*
X773900Y522547D01*
X773946Y522471D01*
X773989Y522393D01*
X774028Y522313D01*
X774064Y522231D01*
X774097Y522148D01*
X774125Y522063D01*
X774150Y521978D01*
X774172Y521891D01*
X774189Y521803D01*
X774202Y521715D01*
X774212Y521626D01*
X774218Y521537D01*
X774220Y521448D01*
X777494Y521857D02*
X777494Y519402D01*
X777494Y521857D02*
X777492Y521936D01*
X777486Y522015D01*
X777477Y522094D01*
X777464Y522172D01*
X777446Y522249D01*
X777426Y522325D01*
X777401Y522400D01*
X777373Y522474D01*
X777342Y522547D01*
X777306Y522618D01*
X777268Y522687D01*
X777226Y522754D01*
X777181Y522819D01*
X777133Y522882D01*
X777082Y522943D01*
X777028Y523000D01*
X776972Y523056D01*
X776913Y523108D01*
X776851Y523158D01*
X776787Y523204D01*
X776721Y523248D01*
X776653Y523288D01*
X776583Y523324D01*
X776511Y523358D01*
X776437Y523388D01*
X776363Y523414D01*
X776287Y523437D01*
X776210Y523455D01*
X776133Y523471D01*
X776054Y523482D01*
X775976Y523490D01*
X775897Y523494D01*
X775817Y523494D01*
X775738Y523490D01*
X775660Y523482D01*
X775581Y523471D01*
X775504Y523455D01*
X775427Y523437D01*
X775351Y523414D01*
X775277Y523388D01*
X775203Y523358D01*
X775131Y523324D01*
X775061Y523288D01*
X774993Y523248D01*
X774927Y523204D01*
X774863Y523158D01*
X774801Y523108D01*
X774742Y523056D01*
X774686Y523000D01*
X774632Y522943D01*
X774581Y522882D01*
X774533Y522819D01*
X774488Y522754D01*
X774446Y522687D01*
X774408Y522618D01*
X774372Y522547D01*
X774341Y522474D01*
X774313Y522400D01*
X774288Y522325D01*
X774268Y522249D01*
X774250Y522172D01*
X774237Y522094D01*
X774228Y522015D01*
X774222Y521936D01*
X774220Y521857D01*
X774220Y520220D01*
D10*
X772173Y564667D02*
X752043Y564667D01*
D13*
X762000Y547815D02*
X762000Y541211D01*
D12*
X757222Y516814D02*
X757222Y515177D01*
X757224Y515099D01*
X757229Y515021D01*
X757239Y514944D01*
X757252Y514867D01*
X757268Y514791D01*
X757288Y514716D01*
X757312Y514642D01*
X757339Y514569D01*
X757370Y514497D01*
X757404Y514427D01*
X757441Y514359D01*
X757482Y514292D01*
X757526Y514227D01*
X757572Y514165D01*
X757622Y514105D01*
X757674Y514047D01*
X757729Y513992D01*
X757787Y513940D01*
X757847Y513890D01*
X757909Y513844D01*
X757974Y513800D01*
X758041Y513759D01*
X758109Y513722D01*
X758179Y513688D01*
X758251Y513657D01*
X758324Y513630D01*
X758398Y513606D01*
X758473Y513586D01*
X758549Y513570D01*
X758626Y513557D01*
X758703Y513547D01*
X758781Y513542D01*
X758859Y513540D01*
X762951Y513540D01*
X763029Y513542D01*
X763107Y513547D01*
X763184Y513557D01*
X763261Y513570D01*
X763337Y513586D01*
X763412Y513606D01*
X763486Y513630D01*
X763559Y513657D01*
X763631Y513688D01*
X763701Y513722D01*
X763770Y513759D01*
X763836Y513800D01*
X763901Y513844D01*
X763963Y513890D01*
X764023Y513940D01*
X764081Y513992D01*
X764136Y514047D01*
X764188Y514105D01*
X764238Y514165D01*
X764284Y514227D01*
X764328Y514292D01*
X764369Y514359D01*
X764406Y514427D01*
X764440Y514497D01*
X764471Y514569D01*
X764498Y514642D01*
X764522Y514716D01*
X764542Y514791D01*
X764558Y514867D01*
X764571Y514944D01*
X764581Y515021D01*
X764586Y515099D01*
X764588Y515177D01*
X764588Y516814D01*
X764588Y521296D02*
X758859Y519659D01*
X758859Y523752D01*
X760495Y522524D02*
X757222Y522524D01*
D13*
X876173Y574675D02*
X882777Y574675D01*
D12*
X909019Y572881D02*
X910655Y572881D01*
X910733Y572883D01*
X910811Y572888D01*
X910888Y572898D01*
X910965Y572911D01*
X911041Y572927D01*
X911116Y572947D01*
X911190Y572971D01*
X911263Y572998D01*
X911335Y573029D01*
X911405Y573063D01*
X911474Y573100D01*
X911540Y573141D01*
X911605Y573185D01*
X911667Y573231D01*
X911727Y573281D01*
X911785Y573333D01*
X911840Y573388D01*
X911892Y573446D01*
X911942Y573506D01*
X911988Y573568D01*
X912032Y573633D01*
X912073Y573700D01*
X912110Y573768D01*
X912144Y573838D01*
X912175Y573910D01*
X912202Y573983D01*
X912226Y574057D01*
X912246Y574132D01*
X912262Y574208D01*
X912275Y574285D01*
X912285Y574362D01*
X912290Y574440D01*
X912292Y574518D01*
X912292Y578610D01*
X912290Y578688D01*
X912285Y578766D01*
X912275Y578843D01*
X912262Y578920D01*
X912246Y578996D01*
X912226Y579071D01*
X912202Y579145D01*
X912175Y579218D01*
X912144Y579290D01*
X912110Y579360D01*
X912073Y579429D01*
X912032Y579495D01*
X911988Y579560D01*
X911942Y579622D01*
X911892Y579682D01*
X911840Y579740D01*
X911785Y579795D01*
X911727Y579847D01*
X911667Y579897D01*
X911605Y579943D01*
X911540Y579987D01*
X911474Y580028D01*
X911405Y580065D01*
X911335Y580099D01*
X911263Y580130D01*
X911190Y580157D01*
X911116Y580181D01*
X911041Y580201D01*
X910965Y580217D01*
X910888Y580230D01*
X910811Y580240D01*
X910733Y580245D01*
X910655Y580247D01*
X909019Y580247D01*
X906173Y572881D02*
X903718Y572881D01*
X903638Y572883D01*
X903558Y572889D01*
X903478Y572899D01*
X903399Y572912D01*
X903320Y572930D01*
X903243Y572951D01*
X903167Y572977D01*
X903092Y573006D01*
X903018Y573038D01*
X902946Y573074D01*
X902876Y573114D01*
X902809Y573157D01*
X902743Y573203D01*
X902680Y573253D01*
X902619Y573305D01*
X902560Y573360D01*
X902505Y573419D01*
X902453Y573479D01*
X902403Y573543D01*
X902357Y573608D01*
X902314Y573676D01*
X902274Y573746D01*
X902238Y573818D01*
X902206Y573892D01*
X902177Y573966D01*
X902152Y574043D01*
X902130Y574120D01*
X902112Y574199D01*
X902099Y574278D01*
X902089Y574357D01*
X902083Y574438D01*
X902081Y574518D01*
X902081Y575336D01*
X902083Y575414D01*
X902088Y575492D01*
X902098Y575569D01*
X902111Y575646D01*
X902127Y575722D01*
X902147Y575797D01*
X902171Y575871D01*
X902198Y575944D01*
X902229Y576016D01*
X902263Y576086D01*
X902300Y576155D01*
X902341Y576221D01*
X902385Y576286D01*
X902431Y576348D01*
X902481Y576408D01*
X902533Y576466D01*
X902588Y576521D01*
X902646Y576573D01*
X902706Y576623D01*
X902768Y576669D01*
X902833Y576713D01*
X902900Y576754D01*
X902968Y576791D01*
X903038Y576825D01*
X903110Y576856D01*
X903183Y576883D01*
X903257Y576907D01*
X903332Y576927D01*
X903408Y576943D01*
X903485Y576956D01*
X903562Y576966D01*
X903640Y576971D01*
X903718Y576973D01*
X906173Y576973D01*
X906173Y580247D01*
X902081Y580247D01*
D13*
X882777Y565150D02*
X876173Y565150D01*
D12*
X908364Y561562D02*
X910001Y561562D01*
X910079Y561564D01*
X910157Y561569D01*
X910234Y561579D01*
X910311Y561592D01*
X910387Y561608D01*
X910462Y561628D01*
X910536Y561652D01*
X910609Y561679D01*
X910681Y561710D01*
X910751Y561744D01*
X910820Y561781D01*
X910886Y561822D01*
X910951Y561866D01*
X911013Y561912D01*
X911073Y561962D01*
X911131Y562014D01*
X911186Y562069D01*
X911238Y562127D01*
X911288Y562187D01*
X911334Y562249D01*
X911378Y562314D01*
X911419Y562381D01*
X911456Y562449D01*
X911490Y562519D01*
X911521Y562591D01*
X911548Y562664D01*
X911572Y562738D01*
X911592Y562813D01*
X911608Y562889D01*
X911621Y562966D01*
X911631Y563043D01*
X911636Y563121D01*
X911638Y563199D01*
X911638Y567291D01*
X911636Y567369D01*
X911631Y567447D01*
X911621Y567524D01*
X911608Y567601D01*
X911592Y567677D01*
X911572Y567752D01*
X911548Y567826D01*
X911521Y567899D01*
X911490Y567971D01*
X911456Y568041D01*
X911419Y568110D01*
X911378Y568176D01*
X911334Y568241D01*
X911288Y568303D01*
X911238Y568363D01*
X911186Y568421D01*
X911131Y568476D01*
X911073Y568528D01*
X911013Y568578D01*
X910951Y568624D01*
X910886Y568668D01*
X910820Y568709D01*
X910751Y568746D01*
X910681Y568780D01*
X910609Y568811D01*
X910536Y568838D01*
X910462Y568862D01*
X910387Y568882D01*
X910311Y568898D01*
X910234Y568911D01*
X910157Y568921D01*
X910079Y568926D01*
X910001Y568928D01*
X908364Y568928D01*
X905519Y565654D02*
X903063Y565654D01*
X903063Y565655D02*
X902983Y565653D01*
X902903Y565647D01*
X902823Y565637D01*
X902744Y565624D01*
X902665Y565606D01*
X902588Y565585D01*
X902512Y565559D01*
X902437Y565530D01*
X902363Y565498D01*
X902291Y565462D01*
X902221Y565422D01*
X902154Y565379D01*
X902088Y565333D01*
X902025Y565283D01*
X901964Y565231D01*
X901905Y565176D01*
X901850Y565117D01*
X901798Y565057D01*
X901748Y564993D01*
X901702Y564927D01*
X901659Y564860D01*
X901619Y564790D01*
X901583Y564718D01*
X901551Y564644D01*
X901522Y564570D01*
X901496Y564493D01*
X901475Y564416D01*
X901457Y564337D01*
X901444Y564258D01*
X901434Y564178D01*
X901428Y564098D01*
X901426Y564018D01*
X901426Y563608D01*
X901427Y563608D02*
X901429Y563519D01*
X901435Y563430D01*
X901445Y563341D01*
X901458Y563253D01*
X901475Y563165D01*
X901497Y563078D01*
X901522Y562993D01*
X901550Y562908D01*
X901583Y562825D01*
X901619Y562743D01*
X901658Y562663D01*
X901701Y562585D01*
X901747Y562509D01*
X901797Y562434D01*
X901850Y562362D01*
X901906Y562293D01*
X901965Y562226D01*
X902026Y562161D01*
X902091Y562100D01*
X902158Y562041D01*
X902227Y561985D01*
X902299Y561932D01*
X902374Y561882D01*
X902450Y561836D01*
X902528Y561793D01*
X902608Y561754D01*
X902690Y561718D01*
X902773Y561685D01*
X902858Y561657D01*
X902943Y561632D01*
X903030Y561610D01*
X903118Y561593D01*
X903206Y561580D01*
X903295Y561570D01*
X903384Y561564D01*
X903473Y561562D01*
X903562Y561564D01*
X903651Y561570D01*
X903740Y561580D01*
X903828Y561593D01*
X903916Y561610D01*
X904003Y561632D01*
X904088Y561657D01*
X904173Y561685D01*
X904256Y561718D01*
X904338Y561754D01*
X904418Y561793D01*
X904496Y561836D01*
X904572Y561882D01*
X904647Y561932D01*
X904719Y561985D01*
X904788Y562041D01*
X904855Y562100D01*
X904920Y562161D01*
X904981Y562226D01*
X905040Y562293D01*
X905096Y562362D01*
X905149Y562434D01*
X905199Y562509D01*
X905245Y562585D01*
X905288Y562663D01*
X905327Y562743D01*
X905363Y562825D01*
X905396Y562908D01*
X905424Y562993D01*
X905449Y563078D01*
X905471Y563165D01*
X905488Y563253D01*
X905501Y563341D01*
X905511Y563430D01*
X905517Y563519D01*
X905519Y563608D01*
X905519Y565654D01*
X905517Y565766D01*
X905511Y565877D01*
X905502Y565989D01*
X905489Y566100D01*
X905471Y566210D01*
X905451Y566320D01*
X905426Y566429D01*
X905398Y566537D01*
X905366Y566644D01*
X905330Y566750D01*
X905291Y566855D01*
X905248Y566958D01*
X905202Y567060D01*
X905152Y567160D01*
X905099Y567259D01*
X905042Y567355D01*
X904983Y567450D01*
X904920Y567542D01*
X904854Y567632D01*
X904785Y567720D01*
X904713Y567806D01*
X904638Y567889D01*
X904560Y567969D01*
X904480Y568047D01*
X904397Y568122D01*
X904311Y568194D01*
X904223Y568263D01*
X904133Y568329D01*
X904041Y568392D01*
X903946Y568451D01*
X903850Y568508D01*
X903751Y568561D01*
X903651Y568611D01*
X903549Y568657D01*
X903446Y568700D01*
X903341Y568739D01*
X903235Y568775D01*
X903128Y568807D01*
X903020Y568835D01*
X902911Y568860D01*
X902801Y568880D01*
X902691Y568898D01*
X902580Y568911D01*
X902468Y568920D01*
X902357Y568926D01*
X902245Y568928D01*
D10*
X859320Y590118D02*
X859320Y610248D01*
D13*
X876173Y600075D02*
X882777Y600075D01*
D12*
X908225Y597884D02*
X909862Y597884D01*
X909940Y597886D01*
X910018Y597891D01*
X910095Y597901D01*
X910172Y597914D01*
X910248Y597930D01*
X910323Y597950D01*
X910397Y597974D01*
X910470Y598001D01*
X910542Y598032D01*
X910612Y598066D01*
X910681Y598103D01*
X910747Y598144D01*
X910812Y598188D01*
X910874Y598234D01*
X910934Y598284D01*
X910992Y598336D01*
X911047Y598391D01*
X911099Y598449D01*
X911149Y598509D01*
X911195Y598571D01*
X911239Y598636D01*
X911280Y598703D01*
X911317Y598771D01*
X911351Y598841D01*
X911382Y598913D01*
X911409Y598986D01*
X911433Y599060D01*
X911453Y599135D01*
X911469Y599211D01*
X911482Y599288D01*
X911492Y599365D01*
X911497Y599443D01*
X911499Y599521D01*
X911499Y603613D01*
X911497Y603691D01*
X911492Y603769D01*
X911482Y603846D01*
X911469Y603923D01*
X911453Y603999D01*
X911433Y604074D01*
X911409Y604148D01*
X911382Y604221D01*
X911351Y604293D01*
X911317Y604363D01*
X911280Y604432D01*
X911239Y604498D01*
X911195Y604563D01*
X911149Y604625D01*
X911099Y604685D01*
X911047Y604743D01*
X910992Y604798D01*
X910934Y604850D01*
X910874Y604900D01*
X910812Y604946D01*
X910747Y604990D01*
X910681Y605031D01*
X910612Y605068D01*
X910542Y605102D01*
X910470Y605133D01*
X910397Y605160D01*
X910323Y605184D01*
X910248Y605204D01*
X910172Y605220D01*
X910095Y605233D01*
X910018Y605243D01*
X909940Y605248D01*
X909862Y605250D01*
X908225Y605250D01*
X905379Y605250D02*
X905379Y604432D01*
X905379Y605250D02*
X901287Y605250D01*
X903333Y597884D01*
X873141Y639753D02*
X865775Y639753D01*
X873141Y639753D02*
X873141Y643027D01*
X869867Y643027D02*
X869867Y639753D01*
X869867Y646195D02*
X869867Y648241D01*
X869865Y648330D01*
X869859Y648419D01*
X869849Y648508D01*
X869836Y648596D01*
X869819Y648684D01*
X869797Y648771D01*
X869772Y648856D01*
X869744Y648941D01*
X869711Y649024D01*
X869675Y649106D01*
X869636Y649186D01*
X869593Y649264D01*
X869547Y649340D01*
X869497Y649415D01*
X869444Y649487D01*
X869388Y649556D01*
X869329Y649623D01*
X869268Y649688D01*
X869203Y649749D01*
X869136Y649808D01*
X869067Y649864D01*
X868995Y649917D01*
X868920Y649967D01*
X868844Y650013D01*
X868766Y650056D01*
X868686Y650095D01*
X868604Y650131D01*
X868521Y650164D01*
X868436Y650192D01*
X868351Y650217D01*
X868264Y650239D01*
X868176Y650256D01*
X868088Y650269D01*
X867999Y650279D01*
X867910Y650285D01*
X867821Y650287D01*
X867732Y650285D01*
X867643Y650279D01*
X867554Y650269D01*
X867466Y650256D01*
X867378Y650239D01*
X867291Y650217D01*
X867206Y650192D01*
X867121Y650164D01*
X867038Y650131D01*
X866956Y650095D01*
X866876Y650056D01*
X866798Y650013D01*
X866722Y649967D01*
X866647Y649917D01*
X866575Y649864D01*
X866506Y649808D01*
X866439Y649749D01*
X866374Y649688D01*
X866313Y649623D01*
X866254Y649556D01*
X866198Y649487D01*
X866145Y649415D01*
X866095Y649340D01*
X866049Y649264D01*
X866006Y649186D01*
X865967Y649106D01*
X865931Y649024D01*
X865898Y648941D01*
X865870Y648856D01*
X865845Y648771D01*
X865823Y648684D01*
X865806Y648596D01*
X865793Y648508D01*
X865783Y648419D01*
X865777Y648330D01*
X865775Y648241D01*
X865775Y646195D01*
X873141Y646195D01*
X873141Y648241D01*
X873139Y648320D01*
X873133Y648399D01*
X873124Y648478D01*
X873111Y648556D01*
X873093Y648633D01*
X873073Y648709D01*
X873048Y648784D01*
X873020Y648858D01*
X872989Y648931D01*
X872953Y649002D01*
X872915Y649071D01*
X872873Y649138D01*
X872828Y649203D01*
X872780Y649266D01*
X872729Y649327D01*
X872675Y649384D01*
X872619Y649440D01*
X872560Y649492D01*
X872498Y649542D01*
X872434Y649588D01*
X872368Y649632D01*
X872300Y649672D01*
X872230Y649708D01*
X872158Y649742D01*
X872084Y649772D01*
X872010Y649798D01*
X871934Y649821D01*
X871857Y649839D01*
X871780Y649855D01*
X871701Y649866D01*
X871623Y649874D01*
X871544Y649878D01*
X871464Y649878D01*
X871385Y649874D01*
X871307Y649866D01*
X871228Y649855D01*
X871151Y649839D01*
X871074Y649821D01*
X870998Y649798D01*
X870924Y649772D01*
X870850Y649742D01*
X870778Y649708D01*
X870708Y649672D01*
X870640Y649632D01*
X870574Y649588D01*
X870510Y649542D01*
X870448Y649492D01*
X870389Y649440D01*
X870333Y649384D01*
X870279Y649327D01*
X870228Y649266D01*
X870180Y649203D01*
X870135Y649138D01*
X870093Y649071D01*
X870055Y649002D01*
X870019Y648931D01*
X869988Y648858D01*
X869960Y648784D01*
X869935Y648709D01*
X869915Y648633D01*
X869897Y648556D01*
X869884Y648478D01*
X869875Y648399D01*
X869869Y648320D01*
X869867Y648241D01*
X871504Y653149D02*
X873141Y655195D01*
X865775Y655195D01*
X865775Y653149D02*
X865775Y657241D01*
D13*
X830263Y606552D02*
X830263Y600202D01*
D12*
X820150Y597678D02*
X812784Y597678D01*
X820150Y597678D02*
X820150Y599724D01*
X820148Y599813D01*
X820142Y599902D01*
X820132Y599991D01*
X820119Y600079D01*
X820102Y600167D01*
X820080Y600254D01*
X820055Y600339D01*
X820027Y600424D01*
X819994Y600507D01*
X819958Y600589D01*
X819919Y600669D01*
X819876Y600747D01*
X819830Y600823D01*
X819780Y600898D01*
X819727Y600970D01*
X819671Y601039D01*
X819612Y601106D01*
X819551Y601171D01*
X819486Y601232D01*
X819419Y601291D01*
X819350Y601347D01*
X819278Y601400D01*
X819203Y601450D01*
X819127Y601496D01*
X819049Y601539D01*
X818969Y601578D01*
X818887Y601614D01*
X818804Y601647D01*
X818719Y601675D01*
X818634Y601700D01*
X818547Y601722D01*
X818459Y601739D01*
X818371Y601752D01*
X818282Y601762D01*
X818193Y601768D01*
X818104Y601770D01*
X818015Y601768D01*
X817926Y601762D01*
X817837Y601752D01*
X817749Y601739D01*
X817661Y601722D01*
X817574Y601700D01*
X817489Y601675D01*
X817404Y601647D01*
X817321Y601614D01*
X817239Y601578D01*
X817159Y601539D01*
X817081Y601496D01*
X817005Y601450D01*
X816930Y601400D01*
X816858Y601347D01*
X816789Y601291D01*
X816722Y601232D01*
X816657Y601171D01*
X816596Y601106D01*
X816537Y601039D01*
X816481Y600970D01*
X816428Y600898D01*
X816378Y600823D01*
X816332Y600747D01*
X816289Y600669D01*
X816250Y600589D01*
X816214Y600507D01*
X816181Y600424D01*
X816153Y600339D01*
X816128Y600254D01*
X816106Y600167D01*
X816089Y600079D01*
X816076Y599991D01*
X816066Y599902D01*
X816060Y599813D01*
X816058Y599724D01*
X816058Y597678D01*
X816058Y600133D02*
X812784Y601770D01*
X818513Y604942D02*
X820150Y606988D01*
X812784Y606988D01*
X812784Y604942D02*
X812784Y609034D01*
X886603Y638556D02*
X893969Y638556D01*
X893969Y640602D01*
X893967Y640691D01*
X893961Y640780D01*
X893951Y640869D01*
X893938Y640957D01*
X893921Y641045D01*
X893899Y641132D01*
X893874Y641217D01*
X893846Y641302D01*
X893813Y641385D01*
X893777Y641467D01*
X893738Y641547D01*
X893695Y641625D01*
X893649Y641701D01*
X893599Y641776D01*
X893546Y641848D01*
X893490Y641917D01*
X893431Y641984D01*
X893370Y642049D01*
X893305Y642110D01*
X893238Y642169D01*
X893169Y642225D01*
X893097Y642278D01*
X893022Y642328D01*
X892946Y642374D01*
X892868Y642417D01*
X892788Y642456D01*
X892706Y642492D01*
X892623Y642525D01*
X892538Y642553D01*
X892453Y642578D01*
X892366Y642600D01*
X892278Y642617D01*
X892190Y642630D01*
X892101Y642640D01*
X892012Y642646D01*
X891923Y642648D01*
X891834Y642646D01*
X891745Y642640D01*
X891656Y642630D01*
X891568Y642617D01*
X891480Y642600D01*
X891393Y642578D01*
X891308Y642553D01*
X891223Y642525D01*
X891140Y642492D01*
X891058Y642456D01*
X890978Y642417D01*
X890900Y642374D01*
X890824Y642328D01*
X890749Y642278D01*
X890677Y642225D01*
X890608Y642169D01*
X890541Y642110D01*
X890476Y642049D01*
X890415Y641984D01*
X890356Y641917D01*
X890300Y641848D01*
X890247Y641776D01*
X890197Y641701D01*
X890151Y641625D01*
X890108Y641547D01*
X890069Y641467D01*
X890033Y641385D01*
X890000Y641302D01*
X889972Y641217D01*
X889947Y641132D01*
X889925Y641045D01*
X889908Y640957D01*
X889895Y640869D01*
X889885Y640780D01*
X889879Y640691D01*
X889877Y640602D01*
X889877Y638556D01*
X889877Y641011D02*
X886603Y642648D01*
X892127Y649913D02*
X892212Y649911D01*
X892297Y649905D01*
X892381Y649895D01*
X892465Y649882D01*
X892549Y649864D01*
X892631Y649843D01*
X892712Y649818D01*
X892792Y649789D01*
X892871Y649756D01*
X892948Y649720D01*
X893023Y649680D01*
X893097Y649637D01*
X893168Y649591D01*
X893237Y649541D01*
X893304Y649488D01*
X893368Y649432D01*
X893429Y649373D01*
X893488Y649312D01*
X893544Y649248D01*
X893597Y649181D01*
X893647Y649112D01*
X893693Y649041D01*
X893736Y648967D01*
X893776Y648892D01*
X893812Y648815D01*
X893845Y648736D01*
X893874Y648656D01*
X893899Y648575D01*
X893920Y648493D01*
X893938Y648409D01*
X893951Y648325D01*
X893961Y648241D01*
X893967Y648156D01*
X893969Y648071D01*
X893967Y647975D01*
X893961Y647879D01*
X893951Y647784D01*
X893938Y647689D01*
X893920Y647594D01*
X893899Y647501D01*
X893874Y647408D01*
X893845Y647317D01*
X893813Y647226D01*
X893777Y647137D01*
X893737Y647050D01*
X893694Y646964D01*
X893648Y646880D01*
X893598Y646798D01*
X893544Y646718D01*
X893488Y646641D01*
X893428Y646566D01*
X893366Y646493D01*
X893300Y646423D01*
X893232Y646355D01*
X893161Y646290D01*
X893088Y646229D01*
X893012Y646170D01*
X892933Y646114D01*
X892853Y646062D01*
X892770Y646013D01*
X892686Y645967D01*
X892600Y645925D01*
X892512Y645887D01*
X892423Y645852D01*
X892332Y645820D01*
X890695Y649298D02*
X890754Y649358D01*
X890816Y649415D01*
X890880Y649470D01*
X890947Y649521D01*
X891016Y649570D01*
X891086Y649616D01*
X891159Y649659D01*
X891233Y649699D01*
X891309Y649735D01*
X891387Y649768D01*
X891466Y649798D01*
X891546Y649825D01*
X891627Y649848D01*
X891709Y649867D01*
X891791Y649883D01*
X891875Y649896D01*
X891959Y649905D01*
X892043Y649910D01*
X892127Y649912D01*
X890695Y649298D02*
X886603Y645820D01*
X886603Y649912D01*
D13*
X733425Y584327D02*
X733425Y577977D01*
D12*
X735616Y599265D02*
X728250Y599265D01*
X735616Y599265D02*
X735616Y601311D01*
X735614Y601400D01*
X735608Y601489D01*
X735598Y601578D01*
X735585Y601666D01*
X735568Y601754D01*
X735546Y601841D01*
X735521Y601926D01*
X735493Y602011D01*
X735460Y602094D01*
X735424Y602176D01*
X735385Y602256D01*
X735342Y602334D01*
X735296Y602410D01*
X735246Y602485D01*
X735193Y602557D01*
X735137Y602626D01*
X735078Y602693D01*
X735017Y602758D01*
X734952Y602819D01*
X734885Y602878D01*
X734816Y602934D01*
X734744Y602987D01*
X734669Y603037D01*
X734593Y603083D01*
X734515Y603126D01*
X734435Y603165D01*
X734353Y603201D01*
X734270Y603234D01*
X734185Y603262D01*
X734100Y603287D01*
X734013Y603309D01*
X733925Y603326D01*
X733837Y603339D01*
X733748Y603349D01*
X733659Y603355D01*
X733570Y603357D01*
X733481Y603355D01*
X733392Y603349D01*
X733303Y603339D01*
X733215Y603326D01*
X733127Y603309D01*
X733040Y603287D01*
X732955Y603262D01*
X732870Y603234D01*
X732787Y603201D01*
X732705Y603165D01*
X732625Y603126D01*
X732547Y603083D01*
X732471Y603037D01*
X732396Y602987D01*
X732324Y602934D01*
X732255Y602878D01*
X732188Y602819D01*
X732123Y602758D01*
X732062Y602693D01*
X732003Y602626D01*
X731947Y602557D01*
X731894Y602485D01*
X731844Y602410D01*
X731798Y602334D01*
X731755Y602256D01*
X731716Y602176D01*
X731680Y602094D01*
X731647Y602011D01*
X731619Y601926D01*
X731594Y601841D01*
X731572Y601754D01*
X731555Y601666D01*
X731542Y601578D01*
X731532Y601489D01*
X731526Y601400D01*
X731524Y601311D01*
X731524Y599265D01*
X731524Y601721D02*
X728250Y603358D01*
X728250Y606529D02*
X728250Y608576D01*
X728252Y608665D01*
X728258Y608754D01*
X728268Y608843D01*
X728281Y608931D01*
X728298Y609019D01*
X728320Y609106D01*
X728345Y609191D01*
X728373Y609276D01*
X728406Y609359D01*
X728442Y609441D01*
X728481Y609521D01*
X728524Y609599D01*
X728570Y609675D01*
X728620Y609750D01*
X728673Y609822D01*
X728729Y609891D01*
X728788Y609958D01*
X728849Y610023D01*
X728914Y610084D01*
X728981Y610143D01*
X729050Y610199D01*
X729122Y610252D01*
X729197Y610302D01*
X729273Y610348D01*
X729351Y610391D01*
X729431Y610430D01*
X729513Y610466D01*
X729596Y610499D01*
X729681Y610527D01*
X729766Y610552D01*
X729853Y610574D01*
X729941Y610591D01*
X730029Y610604D01*
X730118Y610614D01*
X730207Y610620D01*
X730296Y610622D01*
X730385Y610620D01*
X730474Y610614D01*
X730563Y610604D01*
X730651Y610591D01*
X730739Y610574D01*
X730826Y610552D01*
X730911Y610527D01*
X730996Y610499D01*
X731079Y610466D01*
X731161Y610430D01*
X731241Y610391D01*
X731319Y610348D01*
X731395Y610302D01*
X731470Y610252D01*
X731542Y610199D01*
X731611Y610143D01*
X731678Y610084D01*
X731743Y610023D01*
X731804Y609958D01*
X731863Y609891D01*
X731919Y609822D01*
X731972Y609750D01*
X732022Y609675D01*
X732068Y609599D01*
X732111Y609521D01*
X732150Y609441D01*
X732186Y609359D01*
X732219Y609276D01*
X732247Y609191D01*
X732272Y609106D01*
X732294Y609019D01*
X732311Y608931D01*
X732324Y608843D01*
X732334Y608754D01*
X732340Y608665D01*
X732342Y608576D01*
X735616Y608985D02*
X735616Y606529D01*
X735616Y608985D02*
X735614Y609064D01*
X735608Y609143D01*
X735599Y609222D01*
X735586Y609300D01*
X735568Y609377D01*
X735548Y609453D01*
X735523Y609528D01*
X735495Y609602D01*
X735464Y609675D01*
X735428Y609746D01*
X735390Y609815D01*
X735348Y609882D01*
X735303Y609947D01*
X735255Y610010D01*
X735204Y610071D01*
X735150Y610128D01*
X735094Y610184D01*
X735035Y610236D01*
X734973Y610286D01*
X734909Y610332D01*
X734843Y610376D01*
X734775Y610416D01*
X734705Y610452D01*
X734633Y610486D01*
X734559Y610516D01*
X734485Y610542D01*
X734409Y610565D01*
X734332Y610583D01*
X734255Y610599D01*
X734176Y610610D01*
X734098Y610618D01*
X734019Y610622D01*
X733939Y610622D01*
X733860Y610618D01*
X733782Y610610D01*
X733703Y610599D01*
X733626Y610583D01*
X733549Y610565D01*
X733473Y610542D01*
X733399Y610516D01*
X733325Y610486D01*
X733253Y610452D01*
X733183Y610416D01*
X733115Y610376D01*
X733049Y610332D01*
X732985Y610286D01*
X732923Y610236D01*
X732864Y610184D01*
X732808Y610128D01*
X732754Y610071D01*
X732703Y610010D01*
X732655Y609947D01*
X732610Y609882D01*
X732568Y609815D01*
X732530Y609746D01*
X732494Y609675D01*
X732463Y609602D01*
X732435Y609528D01*
X732410Y609453D01*
X732390Y609377D01*
X732372Y609300D01*
X732359Y609222D01*
X732350Y609143D01*
X732344Y609064D01*
X732342Y608985D01*
X732342Y607348D01*
D10*
X854175Y509270D02*
X859155Y509270D01*
X785495Y509270D02*
X785495Y514250D01*
X785495Y582930D02*
X790475Y582930D01*
X859155Y582930D02*
X859155Y577950D01*
X859155Y514250D02*
X859155Y509270D01*
X790475Y509270D02*
X785495Y509270D01*
X785495Y577950D02*
X785495Y582930D01*
X854175Y582930D02*
X859155Y582930D01*
D14*
X853003Y579946D02*
X853005Y580042D01*
X853011Y580138D01*
X853021Y580234D01*
X853035Y580329D01*
X853052Y580424D01*
X853074Y580517D01*
X853099Y580610D01*
X853128Y580702D01*
X853161Y580792D01*
X853198Y580881D01*
X853238Y580968D01*
X853282Y581054D01*
X853329Y581138D01*
X853380Y581220D01*
X853433Y581299D01*
X853491Y581376D01*
X853551Y581451D01*
X853614Y581524D01*
X853680Y581594D01*
X853750Y581660D01*
X853821Y581725D01*
X853896Y581786D01*
X853972Y581844D01*
X854051Y581898D01*
X854133Y581950D01*
X854216Y581998D01*
X854301Y582042D01*
X854388Y582084D01*
X854477Y582121D01*
X854567Y582155D01*
X854658Y582185D01*
X854750Y582211D01*
X854844Y582234D01*
X854938Y582252D01*
X855033Y582267D01*
X855129Y582278D01*
X855225Y582285D01*
X855321Y582288D01*
X855417Y582287D01*
X855513Y582282D01*
X855609Y582273D01*
X855704Y582260D01*
X855799Y582244D01*
X855893Y582223D01*
X855986Y582199D01*
X856078Y582170D01*
X856169Y582138D01*
X856258Y582103D01*
X856346Y582063D01*
X856432Y582021D01*
X856516Y581974D01*
X856598Y581924D01*
X856678Y581871D01*
X856756Y581815D01*
X856832Y581755D01*
X856905Y581693D01*
X856975Y581627D01*
X857043Y581559D01*
X857108Y581488D01*
X857170Y581414D01*
X857228Y581338D01*
X857284Y581260D01*
X857336Y581179D01*
X857385Y581096D01*
X857431Y581011D01*
X857473Y580925D01*
X857511Y580837D01*
X857546Y580747D01*
X857577Y580656D01*
X857604Y580564D01*
X857628Y580470D01*
X857647Y580376D01*
X857663Y580281D01*
X857675Y580186D01*
X857683Y580090D01*
X857687Y579994D01*
X857687Y579898D01*
X857683Y579802D01*
X857675Y579706D01*
X857663Y579611D01*
X857647Y579516D01*
X857628Y579422D01*
X857604Y579328D01*
X857577Y579236D01*
X857546Y579145D01*
X857511Y579055D01*
X857473Y578967D01*
X857431Y578881D01*
X857385Y578796D01*
X857336Y578713D01*
X857284Y578632D01*
X857228Y578554D01*
X857170Y578478D01*
X857108Y578404D01*
X857043Y578333D01*
X856975Y578265D01*
X856905Y578199D01*
X856832Y578137D01*
X856756Y578077D01*
X856678Y578021D01*
X856598Y577968D01*
X856516Y577918D01*
X856432Y577871D01*
X856346Y577829D01*
X856258Y577789D01*
X856169Y577754D01*
X856078Y577722D01*
X855986Y577693D01*
X855893Y577669D01*
X855799Y577648D01*
X855704Y577632D01*
X855609Y577619D01*
X855513Y577610D01*
X855417Y577605D01*
X855321Y577604D01*
X855225Y577607D01*
X855129Y577614D01*
X855033Y577625D01*
X854938Y577640D01*
X854844Y577658D01*
X854750Y577681D01*
X854658Y577707D01*
X854567Y577737D01*
X854477Y577771D01*
X854388Y577808D01*
X854301Y577850D01*
X854216Y577894D01*
X854133Y577942D01*
X854051Y577994D01*
X853972Y578048D01*
X853896Y578106D01*
X853821Y578167D01*
X853750Y578232D01*
X853680Y578298D01*
X853614Y578368D01*
X853551Y578441D01*
X853491Y578516D01*
X853433Y578593D01*
X853380Y578672D01*
X853329Y578754D01*
X853282Y578838D01*
X853238Y578924D01*
X853198Y579011D01*
X853161Y579100D01*
X853128Y579190D01*
X853099Y579282D01*
X853074Y579375D01*
X853052Y579468D01*
X853035Y579563D01*
X853021Y579658D01*
X853011Y579754D01*
X853005Y579850D01*
X853003Y579946D01*
D12*
X892159Y529257D02*
X899525Y534167D01*
X899525Y529257D02*
X892159Y534167D01*
X897888Y536981D02*
X899525Y539027D01*
X892159Y539027D01*
X892159Y536981D02*
X892159Y541073D01*
D15*
X751038Y534175D02*
X751038Y551675D01*
X738038Y551675D02*
X738038Y534175D01*
D12*
X740131Y513106D02*
X747497Y513106D01*
X747497Y515152D01*
X747495Y515241D01*
X747489Y515330D01*
X747479Y515419D01*
X747466Y515507D01*
X747449Y515595D01*
X747427Y515682D01*
X747402Y515767D01*
X747374Y515852D01*
X747341Y515935D01*
X747305Y516017D01*
X747266Y516097D01*
X747223Y516175D01*
X747177Y516251D01*
X747127Y516326D01*
X747074Y516398D01*
X747018Y516467D01*
X746959Y516534D01*
X746898Y516599D01*
X746833Y516660D01*
X746766Y516719D01*
X746697Y516775D01*
X746625Y516828D01*
X746550Y516878D01*
X746474Y516924D01*
X746396Y516967D01*
X746316Y517006D01*
X746234Y517042D01*
X746151Y517075D01*
X746066Y517103D01*
X745981Y517128D01*
X745894Y517150D01*
X745806Y517167D01*
X745718Y517180D01*
X745629Y517190D01*
X745540Y517196D01*
X745451Y517198D01*
X742177Y517198D01*
X742088Y517196D01*
X741999Y517190D01*
X741910Y517180D01*
X741822Y517167D01*
X741734Y517150D01*
X741647Y517128D01*
X741562Y517103D01*
X741477Y517075D01*
X741394Y517042D01*
X741312Y517006D01*
X741232Y516967D01*
X741154Y516924D01*
X741078Y516878D01*
X741003Y516828D01*
X740931Y516775D01*
X740862Y516719D01*
X740795Y516660D01*
X740730Y516599D01*
X740669Y516534D01*
X740610Y516467D01*
X740554Y516398D01*
X740501Y516326D01*
X740451Y516251D01*
X740405Y516175D01*
X740362Y516097D01*
X740323Y516017D01*
X740287Y515935D01*
X740254Y515852D01*
X740226Y515767D01*
X740201Y515682D01*
X740179Y515595D01*
X740162Y515507D01*
X740149Y515419D01*
X740139Y515330D01*
X740133Y515241D01*
X740131Y515152D01*
X740131Y513106D01*
X747498Y522916D02*
X747496Y523001D01*
X747490Y523086D01*
X747480Y523170D01*
X747467Y523254D01*
X747449Y523338D01*
X747428Y523420D01*
X747403Y523501D01*
X747374Y523581D01*
X747341Y523660D01*
X747305Y523737D01*
X747265Y523812D01*
X747222Y523886D01*
X747176Y523957D01*
X747126Y524026D01*
X747073Y524093D01*
X747017Y524157D01*
X746958Y524218D01*
X746897Y524277D01*
X746833Y524333D01*
X746766Y524386D01*
X746697Y524436D01*
X746626Y524482D01*
X746552Y524525D01*
X746477Y524565D01*
X746400Y524601D01*
X746321Y524634D01*
X746241Y524663D01*
X746160Y524688D01*
X746078Y524709D01*
X745994Y524727D01*
X745910Y524740D01*
X745826Y524750D01*
X745741Y524756D01*
X745656Y524758D01*
X747497Y522916D02*
X747495Y522820D01*
X747489Y522724D01*
X747479Y522629D01*
X747466Y522534D01*
X747448Y522439D01*
X747427Y522346D01*
X747402Y522253D01*
X747373Y522162D01*
X747341Y522071D01*
X747305Y521982D01*
X747265Y521895D01*
X747222Y521809D01*
X747176Y521725D01*
X747126Y521643D01*
X747072Y521563D01*
X747016Y521486D01*
X746956Y521411D01*
X746894Y521338D01*
X746828Y521268D01*
X746760Y521200D01*
X746689Y521135D01*
X746616Y521074D01*
X746540Y521015D01*
X746461Y520959D01*
X746381Y520907D01*
X746298Y520858D01*
X746214Y520812D01*
X746128Y520770D01*
X746040Y520732D01*
X745951Y520697D01*
X745860Y520665D01*
X744224Y524143D02*
X744283Y524203D01*
X744345Y524260D01*
X744409Y524315D01*
X744476Y524366D01*
X744545Y524415D01*
X744615Y524461D01*
X744688Y524504D01*
X744762Y524544D01*
X744838Y524580D01*
X744916Y524613D01*
X744995Y524643D01*
X745075Y524670D01*
X745156Y524693D01*
X745238Y524712D01*
X745320Y524728D01*
X745404Y524741D01*
X745488Y524750D01*
X745572Y524755D01*
X745656Y524757D01*
X744223Y524143D02*
X740131Y520665D01*
X740131Y524757D01*
M02*
