G04 EAGLE Gerber RS-274X export*
G75*
%MOMM*%
%FSLAX34Y34*%
%LPD*%
%INSilkscreen Bottom*%
%IPPOS*%
%AMOC8*
5,1,8,0,0,1.08239X$1,22.5*%
G01*
%ADD10C,0.152400*%
%ADD11C,0.101600*%
%ADD12C,0.076200*%
%ADD13C,0.254000*%
%ADD14C,0.304800*%
%ADD15C,0.150000*%

G36*
X-5834Y5082D02*
X-5834Y5082D01*
X-5831Y5081D01*
X-5788Y5101D01*
X-5745Y5119D01*
X-5744Y5121D01*
X-5742Y5122D01*
X-5709Y5207D01*
X-5709Y7747D01*
X-5710Y7749D01*
X-5709Y7751D01*
X-5729Y7794D01*
X-5748Y7838D01*
X-5750Y7838D01*
X-5751Y7840D01*
X-5836Y7873D01*
X-9646Y7873D01*
X-9648Y7872D01*
X-9650Y7873D01*
X-9693Y7853D01*
X-9736Y7835D01*
X-9737Y7833D01*
X-9739Y7832D01*
X-9772Y7747D01*
X-9772Y5207D01*
X-9771Y5205D01*
X-9772Y5203D01*
X-9752Y5160D01*
X-9733Y5116D01*
X-9731Y5116D01*
X-9730Y5114D01*
X-9646Y5081D01*
X-5836Y5081D01*
X-5834Y5082D01*
G37*
G36*
X-35368Y-39456D02*
X-35368Y-39456D01*
X-35365Y-39457D01*
X-35322Y-39437D01*
X-35279Y-39419D01*
X-35278Y-39417D01*
X-35276Y-39416D01*
X-35243Y-39331D01*
X-35243Y-35521D01*
X-35244Y-35519D01*
X-35243Y-35517D01*
X-35263Y-35474D01*
X-35282Y-35430D01*
X-35284Y-35430D01*
X-35285Y-35428D01*
X-35370Y-35395D01*
X-37910Y-35395D01*
X-37912Y-35396D01*
X-37914Y-35395D01*
X-37957Y-35415D01*
X-38000Y-35433D01*
X-38001Y-35435D01*
X-38003Y-35436D01*
X-38036Y-35521D01*
X-38036Y-39331D01*
X-38035Y-39333D01*
X-38036Y-39335D01*
X-38016Y-39378D01*
X-37997Y-39422D01*
X-37995Y-39422D01*
X-37994Y-39424D01*
X-37910Y-39457D01*
X-35370Y-39457D01*
X-35368Y-39456D01*
G37*
G36*
X47437Y-54459D02*
X47437Y-54459D01*
X47439Y-54460D01*
X47482Y-54440D01*
X47525Y-54422D01*
X47526Y-54420D01*
X47528Y-54419D01*
X47561Y-54334D01*
X47561Y-50524D01*
X47560Y-50522D01*
X47561Y-50520D01*
X47541Y-50477D01*
X47522Y-50433D01*
X47520Y-50433D01*
X47519Y-50431D01*
X47435Y-50398D01*
X44895Y-50398D01*
X44893Y-50399D01*
X44890Y-50398D01*
X44847Y-50418D01*
X44804Y-50436D01*
X44803Y-50438D01*
X44801Y-50439D01*
X44768Y-50524D01*
X44768Y-54334D01*
X44769Y-54336D01*
X44768Y-54338D01*
X44788Y-54381D01*
X44807Y-54425D01*
X44809Y-54425D01*
X44810Y-54427D01*
X44895Y-54460D01*
X47435Y-54460D01*
X47437Y-54459D01*
G37*
G36*
X-833Y-77722D02*
X-833Y-77722D01*
X-830Y-77723D01*
X-787Y-77703D01*
X-744Y-77685D01*
X-743Y-77683D01*
X-741Y-77682D01*
X-708Y-77597D01*
X-708Y-75057D01*
X-709Y-75055D01*
X-708Y-75053D01*
X-728Y-75010D01*
X-747Y-74966D01*
X-749Y-74966D01*
X-750Y-74964D01*
X-835Y-74931D01*
X-4645Y-74931D01*
X-4647Y-74932D01*
X-4649Y-74931D01*
X-4692Y-74951D01*
X-4735Y-74969D01*
X-4736Y-74971D01*
X-4738Y-74972D01*
X-4771Y-75057D01*
X-4771Y-77597D01*
X-4770Y-77599D01*
X-4771Y-77601D01*
X-4751Y-77644D01*
X-4732Y-77688D01*
X-4730Y-77688D01*
X-4729Y-77690D01*
X-4645Y-77723D01*
X-835Y-77723D01*
X-833Y-77722D01*
G37*
D10*
X38926Y61087D02*
X38926Y77343D01*
X34410Y77343D01*
X34277Y77341D01*
X34145Y77335D01*
X34013Y77325D01*
X33881Y77312D01*
X33749Y77294D01*
X33619Y77273D01*
X33488Y77248D01*
X33359Y77219D01*
X33231Y77186D01*
X33103Y77150D01*
X32977Y77110D01*
X32852Y77066D01*
X32728Y77018D01*
X32606Y76967D01*
X32485Y76912D01*
X32366Y76854D01*
X32248Y76792D01*
X32133Y76727D01*
X32019Y76658D01*
X31908Y76587D01*
X31799Y76511D01*
X31692Y76433D01*
X31587Y76352D01*
X31485Y76267D01*
X31385Y76180D01*
X31288Y76090D01*
X31193Y75997D01*
X31102Y75901D01*
X31013Y75803D01*
X30927Y75702D01*
X30844Y75598D01*
X30764Y75492D01*
X30688Y75384D01*
X30614Y75274D01*
X30544Y75161D01*
X30477Y75047D01*
X30414Y74930D01*
X30354Y74812D01*
X30297Y74692D01*
X30244Y74570D01*
X30195Y74447D01*
X30149Y74323D01*
X30107Y74197D01*
X30069Y74070D01*
X30034Y73942D01*
X30003Y73813D01*
X29976Y73684D01*
X29953Y73553D01*
X29933Y73422D01*
X29918Y73290D01*
X29906Y73158D01*
X29898Y73026D01*
X29894Y72893D01*
X29894Y72761D01*
X29898Y72628D01*
X29906Y72496D01*
X29918Y72364D01*
X29933Y72232D01*
X29953Y72101D01*
X29976Y71970D01*
X30003Y71841D01*
X30034Y71712D01*
X30069Y71584D01*
X30107Y71457D01*
X30149Y71331D01*
X30195Y71207D01*
X30244Y71084D01*
X30297Y70962D01*
X30354Y70842D01*
X30414Y70724D01*
X30477Y70607D01*
X30544Y70493D01*
X30614Y70380D01*
X30688Y70270D01*
X30764Y70162D01*
X30844Y70056D01*
X30927Y69952D01*
X31013Y69851D01*
X31102Y69753D01*
X31193Y69657D01*
X31288Y69564D01*
X31385Y69474D01*
X31485Y69387D01*
X31587Y69302D01*
X31692Y69221D01*
X31799Y69143D01*
X31908Y69067D01*
X32019Y68996D01*
X32133Y68927D01*
X32248Y68862D01*
X32366Y68800D01*
X32485Y68742D01*
X32606Y68687D01*
X32728Y68636D01*
X32852Y68588D01*
X32977Y68544D01*
X33103Y68504D01*
X33231Y68468D01*
X33359Y68435D01*
X33488Y68406D01*
X33619Y68381D01*
X33749Y68360D01*
X33881Y68342D01*
X34013Y68329D01*
X34145Y68319D01*
X34277Y68313D01*
X34410Y68311D01*
X34410Y68312D02*
X38926Y68312D01*
X24026Y69215D02*
X24022Y69535D01*
X24011Y69854D01*
X23992Y70174D01*
X23965Y70492D01*
X23931Y70810D01*
X23889Y71127D01*
X23839Y71443D01*
X23782Y71758D01*
X23718Y72071D01*
X23646Y72383D01*
X23567Y72693D01*
X23480Y73000D01*
X23386Y73306D01*
X23285Y73609D01*
X23176Y73910D01*
X23061Y74208D01*
X22938Y74504D01*
X22808Y74796D01*
X22671Y75085D01*
X22672Y75086D02*
X22633Y75194D01*
X22590Y75301D01*
X22544Y75406D01*
X22493Y75510D01*
X22440Y75612D01*
X22383Y75712D01*
X22322Y75810D01*
X22258Y75905D01*
X22191Y75999D01*
X22120Y76090D01*
X22047Y76179D01*
X21970Y76265D01*
X21891Y76348D01*
X21809Y76429D01*
X21724Y76507D01*
X21636Y76581D01*
X21546Y76653D01*
X21454Y76721D01*
X21359Y76787D01*
X21262Y76849D01*
X21163Y76907D01*
X21061Y76963D01*
X20959Y77014D01*
X20854Y77062D01*
X20748Y77107D01*
X20640Y77148D01*
X20531Y77185D01*
X20421Y77218D01*
X20309Y77247D01*
X20197Y77273D01*
X20084Y77295D01*
X19970Y77312D01*
X19856Y77326D01*
X19741Y77336D01*
X19626Y77342D01*
X19511Y77344D01*
X19511Y77343D02*
X19396Y77341D01*
X19281Y77335D01*
X19166Y77325D01*
X19052Y77311D01*
X18938Y77294D01*
X18825Y77272D01*
X18713Y77246D01*
X18601Y77217D01*
X18491Y77184D01*
X18382Y77147D01*
X18274Y77106D01*
X18168Y77061D01*
X18064Y77013D01*
X17961Y76962D01*
X17860Y76906D01*
X17760Y76848D01*
X17663Y76786D01*
X17569Y76721D01*
X17476Y76652D01*
X17386Y76580D01*
X17298Y76506D01*
X17213Y76428D01*
X17131Y76347D01*
X17052Y76264D01*
X16975Y76178D01*
X16902Y76089D01*
X16831Y75998D01*
X16764Y75904D01*
X16700Y75809D01*
X16639Y75711D01*
X16582Y75611D01*
X16529Y75509D01*
X16478Y75405D01*
X16432Y75300D01*
X16389Y75193D01*
X16350Y75085D01*
X16213Y74796D01*
X16083Y74504D01*
X15960Y74208D01*
X15845Y73910D01*
X15736Y73609D01*
X15635Y73306D01*
X15541Y73000D01*
X15454Y72693D01*
X15375Y72383D01*
X15303Y72071D01*
X15239Y71758D01*
X15182Y71443D01*
X15132Y71127D01*
X15090Y70810D01*
X15056Y70492D01*
X15029Y70174D01*
X15010Y69854D01*
X14999Y69535D01*
X14995Y69215D01*
X24026Y69215D02*
X24022Y68895D01*
X24011Y68576D01*
X23992Y68256D01*
X23965Y67938D01*
X23931Y67620D01*
X23889Y67303D01*
X23839Y66987D01*
X23782Y66672D01*
X23718Y66359D01*
X23646Y66047D01*
X23567Y65737D01*
X23480Y65430D01*
X23386Y65124D01*
X23285Y64821D01*
X23176Y64520D01*
X23061Y64222D01*
X22938Y63926D01*
X22808Y63634D01*
X22671Y63345D01*
X22672Y63345D02*
X22633Y63237D01*
X22590Y63130D01*
X22544Y63025D01*
X22493Y62921D01*
X22440Y62819D01*
X22383Y62719D01*
X22322Y62621D01*
X22258Y62526D01*
X22191Y62432D01*
X22120Y62341D01*
X22047Y62252D01*
X21970Y62166D01*
X21891Y62083D01*
X21809Y62002D01*
X21724Y61924D01*
X21636Y61850D01*
X21546Y61778D01*
X21453Y61709D01*
X21359Y61644D01*
X21262Y61582D01*
X21162Y61524D01*
X21061Y61468D01*
X20959Y61417D01*
X20854Y61369D01*
X20748Y61324D01*
X20640Y61283D01*
X20531Y61246D01*
X20421Y61213D01*
X20309Y61184D01*
X20197Y61158D01*
X20084Y61136D01*
X19970Y61119D01*
X19856Y61105D01*
X19741Y61095D01*
X19626Y61089D01*
X19511Y61087D01*
X16351Y63345D02*
X16214Y63634D01*
X16084Y63926D01*
X15961Y64222D01*
X15846Y64520D01*
X15737Y64821D01*
X15636Y65124D01*
X15542Y65430D01*
X15455Y65737D01*
X15376Y66047D01*
X15304Y66359D01*
X15240Y66672D01*
X15183Y66987D01*
X15133Y67303D01*
X15091Y67620D01*
X15057Y67938D01*
X15030Y68256D01*
X15011Y68576D01*
X15000Y68895D01*
X14996Y69215D01*
X16350Y63345D02*
X16389Y63237D01*
X16432Y63130D01*
X16478Y63025D01*
X16529Y62921D01*
X16582Y62819D01*
X16640Y62719D01*
X16700Y62621D01*
X16764Y62526D01*
X16831Y62432D01*
X16902Y62341D01*
X16975Y62252D01*
X17052Y62166D01*
X17131Y62083D01*
X17213Y62002D01*
X17298Y61924D01*
X17386Y61850D01*
X17476Y61778D01*
X17569Y61709D01*
X17663Y61644D01*
X17760Y61582D01*
X17860Y61524D01*
X17961Y61468D01*
X18064Y61417D01*
X18168Y61369D01*
X18274Y61324D01*
X18382Y61283D01*
X18491Y61246D01*
X18601Y61213D01*
X18713Y61184D01*
X18825Y61158D01*
X18938Y61136D01*
X19052Y61119D01*
X19166Y61105D01*
X19281Y61095D01*
X19396Y61089D01*
X19511Y61087D01*
X23123Y64699D02*
X15898Y73731D01*
X8396Y65603D02*
X8394Y65736D01*
X8388Y65868D01*
X8378Y66000D01*
X8365Y66132D01*
X8347Y66264D01*
X8326Y66394D01*
X8301Y66525D01*
X8272Y66654D01*
X8239Y66782D01*
X8203Y66910D01*
X8163Y67036D01*
X8119Y67161D01*
X8071Y67285D01*
X8020Y67407D01*
X7965Y67528D01*
X7907Y67647D01*
X7845Y67765D01*
X7780Y67880D01*
X7711Y67994D01*
X7640Y68105D01*
X7564Y68214D01*
X7486Y68321D01*
X7405Y68426D01*
X7320Y68528D01*
X7233Y68628D01*
X7143Y68725D01*
X7050Y68820D01*
X6954Y68911D01*
X6856Y69000D01*
X6755Y69086D01*
X6651Y69169D01*
X6545Y69249D01*
X6437Y69325D01*
X6327Y69399D01*
X6214Y69469D01*
X6100Y69536D01*
X5983Y69599D01*
X5865Y69659D01*
X5745Y69716D01*
X5623Y69769D01*
X5500Y69818D01*
X5376Y69864D01*
X5250Y69906D01*
X5123Y69944D01*
X4995Y69979D01*
X4866Y70010D01*
X4737Y70037D01*
X4606Y70060D01*
X4475Y70080D01*
X4343Y70095D01*
X4211Y70107D01*
X4079Y70115D01*
X3946Y70119D01*
X3814Y70119D01*
X3681Y70115D01*
X3549Y70107D01*
X3417Y70095D01*
X3285Y70080D01*
X3154Y70060D01*
X3023Y70037D01*
X2894Y70010D01*
X2765Y69979D01*
X2637Y69944D01*
X2510Y69906D01*
X2384Y69864D01*
X2260Y69818D01*
X2137Y69769D01*
X2015Y69716D01*
X1895Y69659D01*
X1777Y69599D01*
X1660Y69536D01*
X1546Y69469D01*
X1433Y69399D01*
X1323Y69325D01*
X1215Y69249D01*
X1109Y69169D01*
X1005Y69086D01*
X904Y69000D01*
X806Y68911D01*
X710Y68820D01*
X617Y68725D01*
X527Y68628D01*
X440Y68528D01*
X355Y68426D01*
X274Y68321D01*
X196Y68214D01*
X120Y68105D01*
X49Y67994D01*
X-20Y67880D01*
X-85Y67765D01*
X-147Y67647D01*
X-205Y67528D01*
X-260Y67407D01*
X-311Y67285D01*
X-359Y67161D01*
X-403Y67036D01*
X-443Y66910D01*
X-479Y66782D01*
X-512Y66654D01*
X-541Y66525D01*
X-566Y66394D01*
X-587Y66264D01*
X-605Y66132D01*
X-618Y66000D01*
X-628Y65868D01*
X-634Y65736D01*
X-636Y65603D01*
X-634Y65470D01*
X-628Y65338D01*
X-618Y65206D01*
X-605Y65074D01*
X-587Y64942D01*
X-566Y64812D01*
X-541Y64681D01*
X-512Y64552D01*
X-479Y64424D01*
X-443Y64296D01*
X-403Y64170D01*
X-359Y64045D01*
X-311Y63921D01*
X-260Y63799D01*
X-205Y63678D01*
X-147Y63559D01*
X-85Y63441D01*
X-20Y63326D01*
X49Y63212D01*
X120Y63101D01*
X196Y62992D01*
X274Y62885D01*
X355Y62780D01*
X440Y62678D01*
X527Y62578D01*
X617Y62481D01*
X710Y62386D01*
X806Y62295D01*
X904Y62206D01*
X1005Y62120D01*
X1109Y62037D01*
X1215Y61957D01*
X1323Y61881D01*
X1433Y61807D01*
X1546Y61737D01*
X1660Y61670D01*
X1777Y61607D01*
X1895Y61547D01*
X2015Y61490D01*
X2137Y61437D01*
X2260Y61388D01*
X2384Y61342D01*
X2510Y61300D01*
X2637Y61262D01*
X2765Y61227D01*
X2894Y61196D01*
X3023Y61169D01*
X3154Y61146D01*
X3285Y61126D01*
X3417Y61111D01*
X3549Y61099D01*
X3681Y61091D01*
X3814Y61087D01*
X3946Y61087D01*
X4079Y61091D01*
X4211Y61099D01*
X4343Y61111D01*
X4475Y61126D01*
X4606Y61146D01*
X4737Y61169D01*
X4866Y61196D01*
X4995Y61227D01*
X5123Y61262D01*
X5250Y61300D01*
X5376Y61342D01*
X5500Y61388D01*
X5623Y61437D01*
X5745Y61490D01*
X5865Y61547D01*
X5983Y61607D01*
X6100Y61670D01*
X6214Y61737D01*
X6327Y61807D01*
X6437Y61881D01*
X6545Y61957D01*
X6651Y62037D01*
X6755Y62120D01*
X6856Y62206D01*
X6954Y62295D01*
X7050Y62386D01*
X7143Y62481D01*
X7233Y62578D01*
X7320Y62678D01*
X7405Y62780D01*
X7486Y62885D01*
X7564Y62992D01*
X7640Y63101D01*
X7711Y63212D01*
X7780Y63326D01*
X7845Y63441D01*
X7907Y63559D01*
X7965Y63678D01*
X8020Y63799D01*
X8071Y63921D01*
X8119Y64045D01*
X8163Y64170D01*
X8203Y64296D01*
X8239Y64424D01*
X8272Y64552D01*
X8301Y64681D01*
X8326Y64812D01*
X8347Y64942D01*
X8365Y65074D01*
X8378Y65206D01*
X8388Y65338D01*
X8394Y65470D01*
X8396Y65603D01*
X7492Y73731D02*
X7490Y73850D01*
X7484Y73970D01*
X7474Y74089D01*
X7460Y74207D01*
X7443Y74326D01*
X7421Y74443D01*
X7396Y74560D01*
X7366Y74675D01*
X7333Y74790D01*
X7296Y74904D01*
X7256Y75016D01*
X7211Y75127D01*
X7163Y75236D01*
X7112Y75344D01*
X7057Y75450D01*
X6998Y75554D01*
X6936Y75656D01*
X6871Y75756D01*
X6802Y75854D01*
X6730Y75950D01*
X6655Y76043D01*
X6578Y76133D01*
X6497Y76221D01*
X6413Y76306D01*
X6326Y76388D01*
X6237Y76468D01*
X6145Y76544D01*
X6051Y76618D01*
X5954Y76688D01*
X5856Y76755D01*
X5755Y76819D01*
X5651Y76879D01*
X5546Y76936D01*
X5439Y76989D01*
X5331Y77039D01*
X5221Y77085D01*
X5109Y77127D01*
X4996Y77166D01*
X4882Y77201D01*
X4767Y77232D01*
X4650Y77260D01*
X4533Y77283D01*
X4416Y77303D01*
X4297Y77319D01*
X4178Y77331D01*
X4059Y77339D01*
X3940Y77343D01*
X3820Y77343D01*
X3701Y77339D01*
X3582Y77331D01*
X3463Y77319D01*
X3344Y77303D01*
X3227Y77283D01*
X3110Y77260D01*
X2993Y77232D01*
X2878Y77201D01*
X2764Y77166D01*
X2651Y77127D01*
X2539Y77085D01*
X2429Y77039D01*
X2321Y76989D01*
X2214Y76936D01*
X2109Y76879D01*
X2005Y76819D01*
X1904Y76755D01*
X1806Y76688D01*
X1709Y76618D01*
X1615Y76544D01*
X1523Y76468D01*
X1434Y76388D01*
X1347Y76306D01*
X1263Y76221D01*
X1182Y76133D01*
X1105Y76043D01*
X1030Y75950D01*
X958Y75854D01*
X889Y75756D01*
X824Y75656D01*
X762Y75554D01*
X703Y75450D01*
X648Y75344D01*
X597Y75236D01*
X549Y75127D01*
X504Y75016D01*
X464Y74904D01*
X427Y74790D01*
X394Y74675D01*
X364Y74560D01*
X339Y74443D01*
X317Y74326D01*
X300Y74207D01*
X286Y74089D01*
X276Y73970D01*
X270Y73850D01*
X268Y73731D01*
X270Y73612D01*
X276Y73492D01*
X286Y73373D01*
X300Y73255D01*
X317Y73136D01*
X339Y73019D01*
X364Y72902D01*
X394Y72787D01*
X427Y72672D01*
X464Y72558D01*
X504Y72446D01*
X549Y72335D01*
X597Y72226D01*
X648Y72118D01*
X703Y72012D01*
X762Y71908D01*
X824Y71806D01*
X889Y71706D01*
X958Y71608D01*
X1030Y71512D01*
X1105Y71419D01*
X1182Y71329D01*
X1263Y71241D01*
X1347Y71156D01*
X1434Y71074D01*
X1523Y70994D01*
X1615Y70918D01*
X1709Y70844D01*
X1806Y70774D01*
X1904Y70707D01*
X2005Y70643D01*
X2109Y70583D01*
X2214Y70526D01*
X2321Y70473D01*
X2429Y70423D01*
X2539Y70377D01*
X2651Y70335D01*
X2764Y70296D01*
X2878Y70261D01*
X2993Y70230D01*
X3110Y70202D01*
X3227Y70179D01*
X3344Y70159D01*
X3463Y70143D01*
X3582Y70131D01*
X3701Y70123D01*
X3820Y70119D01*
X3940Y70119D01*
X4059Y70123D01*
X4178Y70131D01*
X4297Y70143D01*
X4416Y70159D01*
X4533Y70179D01*
X4650Y70202D01*
X4767Y70230D01*
X4882Y70261D01*
X4996Y70296D01*
X5109Y70335D01*
X5221Y70377D01*
X5331Y70423D01*
X5439Y70473D01*
X5546Y70526D01*
X5651Y70583D01*
X5755Y70643D01*
X5856Y70707D01*
X5954Y70774D01*
X6051Y70844D01*
X6145Y70918D01*
X6237Y70994D01*
X6326Y71074D01*
X6413Y71156D01*
X6497Y71241D01*
X6578Y71329D01*
X6655Y71419D01*
X6730Y71512D01*
X6802Y71608D01*
X6871Y71706D01*
X6936Y71806D01*
X6998Y71908D01*
X7057Y72012D01*
X7112Y72118D01*
X7163Y72226D01*
X7211Y72335D01*
X7256Y72446D01*
X7296Y72558D01*
X7333Y72672D01*
X7366Y72787D01*
X7396Y72902D01*
X7421Y73019D01*
X7443Y73136D01*
X7460Y73255D01*
X7474Y73373D01*
X7484Y73492D01*
X7490Y73612D01*
X7492Y73731D01*
X-7849Y77343D02*
X-7849Y61087D01*
X-7849Y77343D02*
X-12364Y77343D01*
X-12497Y77341D01*
X-12629Y77335D01*
X-12761Y77325D01*
X-12893Y77312D01*
X-13025Y77294D01*
X-13155Y77273D01*
X-13286Y77248D01*
X-13415Y77219D01*
X-13543Y77186D01*
X-13671Y77150D01*
X-13797Y77110D01*
X-13922Y77066D01*
X-14046Y77018D01*
X-14168Y76967D01*
X-14289Y76912D01*
X-14408Y76854D01*
X-14526Y76792D01*
X-14641Y76727D01*
X-14755Y76658D01*
X-14866Y76587D01*
X-14975Y76511D01*
X-15082Y76433D01*
X-15187Y76352D01*
X-15289Y76267D01*
X-15389Y76180D01*
X-15486Y76090D01*
X-15581Y75997D01*
X-15672Y75901D01*
X-15761Y75803D01*
X-15847Y75702D01*
X-15930Y75598D01*
X-16010Y75492D01*
X-16086Y75384D01*
X-16160Y75274D01*
X-16230Y75161D01*
X-16297Y75047D01*
X-16360Y74930D01*
X-16420Y74812D01*
X-16477Y74692D01*
X-16530Y74570D01*
X-16579Y74447D01*
X-16625Y74323D01*
X-16667Y74197D01*
X-16705Y74070D01*
X-16740Y73942D01*
X-16771Y73813D01*
X-16798Y73684D01*
X-16821Y73553D01*
X-16841Y73422D01*
X-16856Y73290D01*
X-16868Y73158D01*
X-16876Y73026D01*
X-16880Y72893D01*
X-16880Y72761D01*
X-16876Y72628D01*
X-16868Y72496D01*
X-16856Y72364D01*
X-16841Y72232D01*
X-16821Y72101D01*
X-16798Y71970D01*
X-16771Y71841D01*
X-16740Y71712D01*
X-16705Y71584D01*
X-16667Y71457D01*
X-16625Y71331D01*
X-16579Y71207D01*
X-16530Y71084D01*
X-16477Y70962D01*
X-16420Y70842D01*
X-16360Y70724D01*
X-16297Y70607D01*
X-16230Y70493D01*
X-16160Y70380D01*
X-16086Y70270D01*
X-16010Y70162D01*
X-15930Y70056D01*
X-15847Y69952D01*
X-15761Y69851D01*
X-15672Y69753D01*
X-15581Y69657D01*
X-15486Y69564D01*
X-15389Y69474D01*
X-15289Y69387D01*
X-15187Y69302D01*
X-15082Y69221D01*
X-14975Y69143D01*
X-14866Y69067D01*
X-14755Y68996D01*
X-14641Y68927D01*
X-14526Y68862D01*
X-14408Y68800D01*
X-14289Y68742D01*
X-14168Y68687D01*
X-14046Y68636D01*
X-13922Y68588D01*
X-13797Y68544D01*
X-13671Y68504D01*
X-13543Y68468D01*
X-13415Y68435D01*
X-13286Y68406D01*
X-13155Y68381D01*
X-13025Y68360D01*
X-12893Y68342D01*
X-12761Y68329D01*
X-12629Y68319D01*
X-12497Y68313D01*
X-12364Y68311D01*
X-12364Y68312D02*
X-7849Y68312D01*
X-13267Y68312D02*
X-16880Y61087D01*
X-23388Y75537D02*
X-23388Y77343D01*
X-32420Y77343D01*
X-27904Y61087D01*
X-39020Y69215D02*
X-39024Y69535D01*
X-39035Y69854D01*
X-39054Y70174D01*
X-39081Y70492D01*
X-39115Y70810D01*
X-39157Y71127D01*
X-39207Y71443D01*
X-39264Y71758D01*
X-39328Y72071D01*
X-39400Y72383D01*
X-39479Y72693D01*
X-39566Y73000D01*
X-39660Y73306D01*
X-39761Y73609D01*
X-39870Y73910D01*
X-39985Y74208D01*
X-40108Y74504D01*
X-40238Y74796D01*
X-40375Y75085D01*
X-40374Y75086D02*
X-40413Y75194D01*
X-40456Y75301D01*
X-40502Y75406D01*
X-40553Y75510D01*
X-40606Y75612D01*
X-40663Y75712D01*
X-40724Y75810D01*
X-40788Y75905D01*
X-40855Y75999D01*
X-40926Y76090D01*
X-40999Y76179D01*
X-41076Y76265D01*
X-41155Y76348D01*
X-41237Y76429D01*
X-41322Y76507D01*
X-41410Y76581D01*
X-41500Y76653D01*
X-41592Y76721D01*
X-41687Y76787D01*
X-41784Y76849D01*
X-41883Y76907D01*
X-41985Y76963D01*
X-42087Y77014D01*
X-42192Y77062D01*
X-42298Y77107D01*
X-42406Y77148D01*
X-42515Y77185D01*
X-42625Y77218D01*
X-42737Y77247D01*
X-42849Y77273D01*
X-42962Y77295D01*
X-43076Y77312D01*
X-43190Y77326D01*
X-43305Y77336D01*
X-43420Y77342D01*
X-43535Y77344D01*
X-43535Y77343D02*
X-43650Y77341D01*
X-43765Y77335D01*
X-43880Y77325D01*
X-43994Y77311D01*
X-44108Y77294D01*
X-44221Y77272D01*
X-44333Y77246D01*
X-44445Y77217D01*
X-44555Y77184D01*
X-44664Y77147D01*
X-44772Y77106D01*
X-44878Y77061D01*
X-44983Y77013D01*
X-45085Y76962D01*
X-45186Y76906D01*
X-45286Y76848D01*
X-45383Y76786D01*
X-45477Y76721D01*
X-45570Y76652D01*
X-45660Y76580D01*
X-45748Y76506D01*
X-45833Y76428D01*
X-45915Y76347D01*
X-45994Y76264D01*
X-46071Y76178D01*
X-46144Y76089D01*
X-46215Y75998D01*
X-46282Y75904D01*
X-46346Y75809D01*
X-46407Y75711D01*
X-46464Y75611D01*
X-46517Y75509D01*
X-46568Y75405D01*
X-46614Y75300D01*
X-46657Y75193D01*
X-46696Y75085D01*
X-46833Y74796D01*
X-46963Y74504D01*
X-47086Y74208D01*
X-47201Y73910D01*
X-47310Y73609D01*
X-47411Y73306D01*
X-47505Y73000D01*
X-47592Y72693D01*
X-47671Y72383D01*
X-47743Y72071D01*
X-47807Y71758D01*
X-47864Y71443D01*
X-47914Y71127D01*
X-47956Y70810D01*
X-47990Y70492D01*
X-48017Y70174D01*
X-48036Y69854D01*
X-48047Y69535D01*
X-48051Y69215D01*
X-39020Y69215D02*
X-39024Y68895D01*
X-39035Y68576D01*
X-39054Y68256D01*
X-39081Y67938D01*
X-39115Y67620D01*
X-39157Y67303D01*
X-39207Y66987D01*
X-39264Y66672D01*
X-39328Y66359D01*
X-39400Y66047D01*
X-39479Y65737D01*
X-39566Y65430D01*
X-39660Y65124D01*
X-39761Y64821D01*
X-39870Y64520D01*
X-39985Y64222D01*
X-40108Y63926D01*
X-40238Y63634D01*
X-40375Y63345D01*
X-40374Y63345D02*
X-40413Y63237D01*
X-40456Y63130D01*
X-40502Y63025D01*
X-40553Y62921D01*
X-40606Y62819D01*
X-40663Y62719D01*
X-40724Y62621D01*
X-40788Y62526D01*
X-40855Y62432D01*
X-40926Y62341D01*
X-40999Y62252D01*
X-41076Y62166D01*
X-41155Y62083D01*
X-41237Y62002D01*
X-41322Y61924D01*
X-41410Y61850D01*
X-41500Y61778D01*
X-41593Y61709D01*
X-41687Y61644D01*
X-41784Y61582D01*
X-41884Y61524D01*
X-41985Y61468D01*
X-42087Y61417D01*
X-42192Y61369D01*
X-42298Y61324D01*
X-42406Y61283D01*
X-42515Y61246D01*
X-42625Y61213D01*
X-42737Y61184D01*
X-42849Y61158D01*
X-42962Y61136D01*
X-43076Y61119D01*
X-43190Y61105D01*
X-43305Y61095D01*
X-43420Y61089D01*
X-43535Y61087D01*
X-46695Y63345D02*
X-46832Y63634D01*
X-46962Y63926D01*
X-47085Y64222D01*
X-47200Y64520D01*
X-47309Y64821D01*
X-47410Y65124D01*
X-47504Y65430D01*
X-47591Y65737D01*
X-47670Y66047D01*
X-47742Y66359D01*
X-47806Y66672D01*
X-47863Y66987D01*
X-47913Y67303D01*
X-47955Y67620D01*
X-47989Y67938D01*
X-48016Y68256D01*
X-48035Y68576D01*
X-48046Y68895D01*
X-48050Y69215D01*
X-46696Y63345D02*
X-46657Y63237D01*
X-46614Y63130D01*
X-46568Y63025D01*
X-46517Y62921D01*
X-46464Y62819D01*
X-46407Y62719D01*
X-46346Y62621D01*
X-46282Y62526D01*
X-46215Y62432D01*
X-46144Y62341D01*
X-46071Y62252D01*
X-45994Y62166D01*
X-45915Y62083D01*
X-45833Y62002D01*
X-45748Y61924D01*
X-45660Y61850D01*
X-45570Y61778D01*
X-45477Y61709D01*
X-45383Y61644D01*
X-45286Y61582D01*
X-45186Y61524D01*
X-45085Y61468D01*
X-44982Y61417D01*
X-44878Y61369D01*
X-44772Y61324D01*
X-44664Y61283D01*
X-44555Y61246D01*
X-44445Y61213D01*
X-44333Y61184D01*
X-44221Y61158D01*
X-44108Y61136D01*
X-43994Y61119D01*
X-43880Y61105D01*
X-43765Y61095D01*
X-43650Y61089D01*
X-43535Y61087D01*
X-39923Y64699D02*
X-47148Y73731D01*
D11*
X-63737Y-101437D02*
X-62142Y-102554D01*
X-63737Y-101437D02*
X-67460Y-106754D01*
X-64270Y-108988D01*
X-64269Y-108988D02*
X-64186Y-109043D01*
X-64102Y-109095D01*
X-64015Y-109144D01*
X-63927Y-109190D01*
X-63837Y-109232D01*
X-63745Y-109271D01*
X-63652Y-109306D01*
X-63558Y-109338D01*
X-63463Y-109366D01*
X-63366Y-109390D01*
X-63269Y-109411D01*
X-63171Y-109427D01*
X-63072Y-109440D01*
X-62973Y-109450D01*
X-62874Y-109455D01*
X-62774Y-109457D01*
X-62675Y-109455D01*
X-62576Y-109449D01*
X-62477Y-109439D01*
X-62378Y-109426D01*
X-62280Y-109408D01*
X-62183Y-109387D01*
X-62087Y-109363D01*
X-61991Y-109334D01*
X-61897Y-109302D01*
X-61804Y-109267D01*
X-61713Y-109228D01*
X-61623Y-109185D01*
X-61535Y-109139D01*
X-61449Y-109090D01*
X-61364Y-109037D01*
X-61282Y-108981D01*
X-61202Y-108922D01*
X-61124Y-108860D01*
X-61049Y-108795D01*
X-60976Y-108728D01*
X-60906Y-108657D01*
X-60838Y-108584D01*
X-60774Y-108508D01*
X-60712Y-108430D01*
X-60653Y-108350D01*
X-60653Y-108351D02*
X-56930Y-103033D01*
X-56930Y-103034D02*
X-56874Y-102951D01*
X-56822Y-102866D01*
X-56773Y-102780D01*
X-56727Y-102691D01*
X-56685Y-102601D01*
X-56646Y-102510D01*
X-56611Y-102417D01*
X-56579Y-102322D01*
X-56551Y-102227D01*
X-56527Y-102130D01*
X-56506Y-102033D01*
X-56490Y-101935D01*
X-56477Y-101836D01*
X-56467Y-101737D01*
X-56462Y-101638D01*
X-56460Y-101538D01*
X-56462Y-101439D01*
X-56468Y-101340D01*
X-56478Y-101241D01*
X-56491Y-101142D01*
X-56509Y-101044D01*
X-56530Y-100947D01*
X-56554Y-100851D01*
X-56583Y-100755D01*
X-56615Y-100661D01*
X-56650Y-100568D01*
X-56689Y-100477D01*
X-56732Y-100387D01*
X-56778Y-100299D01*
X-56828Y-100212D01*
X-56880Y-100128D01*
X-56936Y-100045D01*
X-56995Y-99965D01*
X-57057Y-99887D01*
X-57122Y-99812D01*
X-57190Y-99739D01*
X-57260Y-99669D01*
X-57333Y-99602D01*
X-57409Y-99537D01*
X-57487Y-99475D01*
X-57567Y-99417D01*
X-57568Y-99417D02*
X-60758Y-97183D01*
X-65428Y-93913D02*
X-72130Y-103484D01*
X-77447Y-99761D02*
X-65428Y-93913D01*
X-70745Y-90190D02*
X-77447Y-99761D01*
X-82117Y-96491D02*
X-75415Y-86920D01*
X-78074Y-85059D01*
X-78073Y-85058D02*
X-78167Y-84995D01*
X-78263Y-84935D01*
X-78361Y-84878D01*
X-78461Y-84825D01*
X-78563Y-84775D01*
X-78667Y-84729D01*
X-78772Y-84687D01*
X-78878Y-84648D01*
X-78986Y-84613D01*
X-79095Y-84582D01*
X-79205Y-84554D01*
X-79316Y-84531D01*
X-79427Y-84511D01*
X-79539Y-84495D01*
X-79652Y-84483D01*
X-79765Y-84475D01*
X-79878Y-84471D01*
X-79992Y-84471D01*
X-80105Y-84475D01*
X-80218Y-84483D01*
X-80331Y-84495D01*
X-80443Y-84511D01*
X-80554Y-84531D01*
X-80665Y-84554D01*
X-80775Y-84582D01*
X-80884Y-84613D01*
X-80992Y-84648D01*
X-81098Y-84687D01*
X-81203Y-84729D01*
X-81307Y-84775D01*
X-81409Y-84825D01*
X-81509Y-84878D01*
X-81607Y-84935D01*
X-81703Y-84995D01*
X-81797Y-85058D01*
X-81888Y-85125D01*
X-81978Y-85194D01*
X-82065Y-85267D01*
X-82149Y-85343D01*
X-82230Y-85422D01*
X-82309Y-85503D01*
X-82385Y-85587D01*
X-82458Y-85674D01*
X-82527Y-85764D01*
X-82594Y-85855D01*
X-82594Y-85856D02*
X-85573Y-90110D01*
X-85573Y-90109D02*
X-85636Y-90203D01*
X-85696Y-90299D01*
X-85753Y-90397D01*
X-85806Y-90497D01*
X-85856Y-90599D01*
X-85902Y-90703D01*
X-85944Y-90808D01*
X-85983Y-90914D01*
X-86018Y-91022D01*
X-86049Y-91131D01*
X-86077Y-91241D01*
X-86100Y-91352D01*
X-86120Y-91463D01*
X-86136Y-91575D01*
X-86148Y-91688D01*
X-86156Y-91801D01*
X-86160Y-91914D01*
X-86160Y-92028D01*
X-86156Y-92141D01*
X-86148Y-92254D01*
X-86136Y-92367D01*
X-86120Y-92479D01*
X-86100Y-92590D01*
X-86077Y-92701D01*
X-86049Y-92811D01*
X-86018Y-92920D01*
X-85983Y-93028D01*
X-85944Y-93134D01*
X-85902Y-93239D01*
X-85856Y-93343D01*
X-85806Y-93445D01*
X-85753Y-93545D01*
X-85696Y-93643D01*
X-85636Y-93739D01*
X-85573Y-93833D01*
X-85506Y-93925D01*
X-85437Y-94014D01*
X-85364Y-94101D01*
X-85288Y-94185D01*
X-85209Y-94266D01*
X-85128Y-94345D01*
X-85044Y-94421D01*
X-84957Y-94494D01*
X-84867Y-94563D01*
X-84776Y-94630D01*
X-82117Y-96491D01*
X73111Y-92177D02*
X74603Y-90925D01*
X73111Y-92177D02*
X77284Y-97150D01*
X80267Y-94646D01*
X80342Y-94580D01*
X80414Y-94512D01*
X80484Y-94441D01*
X80551Y-94368D01*
X80615Y-94292D01*
X80676Y-94213D01*
X80734Y-94132D01*
X80789Y-94049D01*
X80841Y-93965D01*
X80889Y-93878D01*
X80934Y-93789D01*
X80976Y-93699D01*
X81014Y-93607D01*
X81049Y-93514D01*
X81080Y-93419D01*
X81107Y-93324D01*
X81131Y-93227D01*
X81151Y-93130D01*
X81167Y-93031D01*
X81179Y-92933D01*
X81188Y-92834D01*
X81193Y-92734D01*
X81194Y-92635D01*
X81191Y-92535D01*
X81185Y-92436D01*
X81174Y-92337D01*
X81160Y-92239D01*
X81142Y-92141D01*
X81121Y-92044D01*
X81095Y-91948D01*
X81066Y-91853D01*
X81034Y-91759D01*
X80997Y-91666D01*
X80958Y-91575D01*
X80915Y-91485D01*
X80868Y-91397D01*
X80818Y-91311D01*
X80765Y-91227D01*
X80709Y-91145D01*
X80649Y-91066D01*
X80587Y-90988D01*
X76415Y-86016D01*
X76350Y-85941D01*
X76282Y-85868D01*
X76211Y-85799D01*
X76137Y-85732D01*
X76061Y-85667D01*
X75983Y-85606D01*
X75902Y-85548D01*
X75819Y-85493D01*
X75734Y-85441D01*
X75647Y-85393D01*
X75558Y-85348D01*
X75468Y-85306D01*
X75376Y-85268D01*
X75283Y-85233D01*
X75188Y-85202D01*
X75093Y-85175D01*
X74996Y-85151D01*
X74899Y-85131D01*
X74801Y-85115D01*
X74702Y-85103D01*
X74603Y-85094D01*
X74503Y-85089D01*
X74404Y-85088D01*
X74304Y-85091D01*
X74205Y-85097D01*
X74106Y-85108D01*
X74008Y-85122D01*
X73910Y-85140D01*
X73813Y-85161D01*
X73717Y-85187D01*
X73621Y-85216D01*
X73527Y-85248D01*
X73435Y-85285D01*
X73344Y-85324D01*
X73254Y-85368D01*
X73166Y-85414D01*
X73080Y-85464D01*
X72996Y-85517D01*
X72914Y-85574D01*
X72834Y-85633D01*
X72757Y-85696D01*
X69773Y-88199D01*
X65406Y-91864D02*
X72917Y-100814D01*
X67944Y-104986D02*
X65406Y-91864D01*
X60434Y-96036D02*
X67944Y-104986D01*
X63577Y-108651D02*
X56067Y-99700D01*
X53580Y-101787D01*
X53581Y-101786D02*
X53495Y-101861D01*
X53412Y-101938D01*
X53332Y-102018D01*
X53255Y-102101D01*
X53180Y-102186D01*
X53109Y-102275D01*
X53041Y-102365D01*
X52976Y-102458D01*
X52914Y-102553D01*
X52856Y-102650D01*
X52801Y-102749D01*
X52750Y-102850D01*
X52702Y-102953D01*
X52657Y-103057D01*
X52617Y-103163D01*
X52580Y-103270D01*
X52547Y-103378D01*
X52517Y-103488D01*
X52492Y-103598D01*
X52470Y-103709D01*
X52453Y-103821D01*
X52439Y-103934D01*
X52429Y-104047D01*
X52423Y-104160D01*
X52421Y-104273D01*
X52423Y-104386D01*
X52429Y-104499D01*
X52439Y-104612D01*
X52453Y-104725D01*
X52470Y-104837D01*
X52492Y-104948D01*
X52517Y-105058D01*
X52547Y-105168D01*
X52580Y-105276D01*
X52617Y-105383D01*
X52657Y-105489D01*
X52702Y-105593D01*
X52750Y-105696D01*
X52801Y-105797D01*
X52856Y-105896D01*
X52914Y-105993D01*
X52976Y-106088D01*
X53041Y-106181D01*
X53109Y-106271D01*
X53180Y-106359D01*
X56518Y-110337D01*
X56593Y-110423D01*
X56670Y-110506D01*
X56750Y-110586D01*
X56833Y-110663D01*
X56919Y-110738D01*
X57007Y-110809D01*
X57097Y-110877D01*
X57190Y-110942D01*
X57285Y-111004D01*
X57382Y-111062D01*
X57481Y-111117D01*
X57582Y-111168D01*
X57685Y-111216D01*
X57789Y-111261D01*
X57895Y-111301D01*
X58002Y-111338D01*
X58110Y-111371D01*
X58220Y-111401D01*
X58330Y-111426D01*
X58441Y-111448D01*
X58553Y-111465D01*
X58666Y-111479D01*
X58779Y-111489D01*
X58892Y-111495D01*
X59005Y-111497D01*
X59118Y-111495D01*
X59231Y-111489D01*
X59344Y-111479D01*
X59457Y-111465D01*
X59569Y-111448D01*
X59680Y-111426D01*
X59790Y-111401D01*
X59900Y-111371D01*
X60008Y-111338D01*
X60115Y-111301D01*
X60221Y-111261D01*
X60325Y-111216D01*
X60428Y-111168D01*
X60529Y-111117D01*
X60628Y-111062D01*
X60725Y-111004D01*
X60820Y-110942D01*
X60913Y-110877D01*
X61003Y-110809D01*
X61092Y-110738D01*
X61091Y-110737D02*
X63577Y-108651D01*
X10894Y121299D02*
X8946Y121299D01*
X8946Y114808D01*
X12841Y114808D01*
X12940Y114810D01*
X13040Y114816D01*
X13139Y114825D01*
X13237Y114838D01*
X13335Y114855D01*
X13433Y114876D01*
X13529Y114901D01*
X13624Y114929D01*
X13718Y114961D01*
X13811Y114996D01*
X13903Y115035D01*
X13993Y115078D01*
X14081Y115123D01*
X14168Y115173D01*
X14252Y115225D01*
X14335Y115281D01*
X14415Y115339D01*
X14493Y115401D01*
X14568Y115466D01*
X14641Y115534D01*
X14711Y115604D01*
X14779Y115677D01*
X14844Y115752D01*
X14906Y115830D01*
X14964Y115910D01*
X15020Y115993D01*
X15072Y116077D01*
X15122Y116164D01*
X15167Y116252D01*
X15210Y116342D01*
X15249Y116434D01*
X15284Y116527D01*
X15316Y116621D01*
X15344Y116716D01*
X15369Y116812D01*
X15390Y116910D01*
X15407Y117008D01*
X15420Y117106D01*
X15429Y117205D01*
X15435Y117305D01*
X15437Y117404D01*
X15438Y117404D02*
X15438Y123896D01*
X15437Y123896D02*
X15435Y123995D01*
X15429Y124095D01*
X15420Y124194D01*
X15407Y124292D01*
X15390Y124390D01*
X15369Y124488D01*
X15344Y124584D01*
X15316Y124679D01*
X15284Y124773D01*
X15249Y124866D01*
X15210Y124958D01*
X15167Y125048D01*
X15122Y125136D01*
X15072Y125223D01*
X15020Y125307D01*
X14964Y125390D01*
X14906Y125470D01*
X14844Y125548D01*
X14779Y125623D01*
X14711Y125696D01*
X14641Y125766D01*
X14568Y125834D01*
X14493Y125899D01*
X14415Y125961D01*
X14335Y126019D01*
X14252Y126075D01*
X14168Y126127D01*
X14081Y126177D01*
X13993Y126222D01*
X13903Y126265D01*
X13811Y126304D01*
X13718Y126339D01*
X13624Y126371D01*
X13529Y126399D01*
X13433Y126424D01*
X13335Y126445D01*
X13237Y126462D01*
X13139Y126475D01*
X13040Y126484D01*
X12940Y126490D01*
X12841Y126492D01*
X8946Y126492D01*
X3246Y126492D02*
X3246Y114808D01*
X-3246Y114808D02*
X3246Y126492D01*
X-3246Y126492D02*
X-3246Y114808D01*
X-8946Y114808D02*
X-8946Y126492D01*
X-12192Y126492D01*
X-12305Y126490D01*
X-12418Y126484D01*
X-12531Y126474D01*
X-12644Y126460D01*
X-12756Y126443D01*
X-12867Y126421D01*
X-12977Y126396D01*
X-13087Y126366D01*
X-13195Y126333D01*
X-13302Y126296D01*
X-13408Y126256D01*
X-13512Y126211D01*
X-13615Y126163D01*
X-13716Y126112D01*
X-13815Y126057D01*
X-13912Y125999D01*
X-14007Y125937D01*
X-14100Y125872D01*
X-14190Y125804D01*
X-14278Y125733D01*
X-14364Y125658D01*
X-14447Y125581D01*
X-14527Y125501D01*
X-14604Y125418D01*
X-14679Y125332D01*
X-14750Y125244D01*
X-14818Y125154D01*
X-14883Y125061D01*
X-14945Y124966D01*
X-15003Y124869D01*
X-15058Y124770D01*
X-15109Y124669D01*
X-15157Y124566D01*
X-15202Y124462D01*
X-15242Y124356D01*
X-15279Y124249D01*
X-15312Y124141D01*
X-15342Y124031D01*
X-15367Y123921D01*
X-15389Y123810D01*
X-15406Y123698D01*
X-15420Y123585D01*
X-15430Y123472D01*
X-15436Y123359D01*
X-15438Y123246D01*
X-15438Y118054D01*
X-15436Y117941D01*
X-15430Y117828D01*
X-15420Y117715D01*
X-15406Y117602D01*
X-15389Y117490D01*
X-15367Y117379D01*
X-15342Y117269D01*
X-15312Y117159D01*
X-15279Y117051D01*
X-15242Y116944D01*
X-15202Y116838D01*
X-15157Y116734D01*
X-15109Y116631D01*
X-15058Y116530D01*
X-15003Y116431D01*
X-14945Y116334D01*
X-14883Y116239D01*
X-14818Y116146D01*
X-14750Y116056D01*
X-14679Y115968D01*
X-14604Y115882D01*
X-14527Y115799D01*
X-14447Y115719D01*
X-14364Y115642D01*
X-14278Y115567D01*
X-14190Y115496D01*
X-14100Y115428D01*
X-14007Y115363D01*
X-13912Y115301D01*
X-13815Y115243D01*
X-13716Y115188D01*
X-13615Y115137D01*
X-13512Y115089D01*
X-13408Y115044D01*
X-13302Y115004D01*
X-13195Y114967D01*
X-13087Y114934D01*
X-12977Y114904D01*
X-12867Y114879D01*
X-12756Y114857D01*
X-12644Y114840D01*
X-12531Y114826D01*
X-12418Y114816D01*
X-12305Y114810D01*
X-12192Y114808D01*
X-8946Y114808D01*
X-110476Y33916D02*
X-110476Y31969D01*
X-110476Y33916D02*
X-116967Y33916D01*
X-116967Y30021D01*
X-116965Y29922D01*
X-116959Y29822D01*
X-116950Y29723D01*
X-116937Y29625D01*
X-116920Y29527D01*
X-116899Y29429D01*
X-116874Y29333D01*
X-116846Y29238D01*
X-116814Y29144D01*
X-116779Y29051D01*
X-116740Y28959D01*
X-116697Y28869D01*
X-116652Y28781D01*
X-116602Y28694D01*
X-116550Y28610D01*
X-116494Y28527D01*
X-116436Y28447D01*
X-116374Y28369D01*
X-116309Y28294D01*
X-116241Y28221D01*
X-116171Y28151D01*
X-116098Y28083D01*
X-116023Y28018D01*
X-115945Y27956D01*
X-115865Y27898D01*
X-115782Y27842D01*
X-115698Y27790D01*
X-115611Y27740D01*
X-115523Y27695D01*
X-115433Y27652D01*
X-115341Y27613D01*
X-115248Y27578D01*
X-115154Y27546D01*
X-115059Y27518D01*
X-114963Y27493D01*
X-114865Y27472D01*
X-114767Y27455D01*
X-114669Y27442D01*
X-114570Y27433D01*
X-114470Y27427D01*
X-114371Y27425D01*
X-107879Y27425D01*
X-107780Y27427D01*
X-107680Y27433D01*
X-107581Y27442D01*
X-107483Y27455D01*
X-107385Y27473D01*
X-107287Y27493D01*
X-107191Y27518D01*
X-107095Y27546D01*
X-107001Y27578D01*
X-106908Y27613D01*
X-106817Y27652D01*
X-106727Y27695D01*
X-106638Y27740D01*
X-106552Y27790D01*
X-106467Y27842D01*
X-106385Y27898D01*
X-106305Y27957D01*
X-106227Y28018D01*
X-106151Y28083D01*
X-106078Y28151D01*
X-106008Y28221D01*
X-105940Y28294D01*
X-105875Y28370D01*
X-105814Y28448D01*
X-105755Y28528D01*
X-105699Y28610D01*
X-105647Y28695D01*
X-105598Y28781D01*
X-105552Y28870D01*
X-105509Y28960D01*
X-105470Y29051D01*
X-105435Y29144D01*
X-105403Y29238D01*
X-105375Y29334D01*
X-105350Y29430D01*
X-105330Y29528D01*
X-105312Y29626D01*
X-105299Y29724D01*
X-105290Y29823D01*
X-105284Y29922D01*
X-105282Y30022D01*
X-105283Y30021D02*
X-105283Y33916D01*
X-105283Y39617D02*
X-116967Y39617D01*
X-116967Y46108D02*
X-105283Y39617D01*
X-105283Y46108D02*
X-116967Y46108D01*
X-116967Y51809D02*
X-105283Y51809D01*
X-105283Y55054D01*
X-105285Y55167D01*
X-105291Y55280D01*
X-105301Y55393D01*
X-105315Y55506D01*
X-105332Y55618D01*
X-105354Y55729D01*
X-105379Y55839D01*
X-105409Y55949D01*
X-105442Y56057D01*
X-105479Y56164D01*
X-105519Y56270D01*
X-105564Y56374D01*
X-105612Y56477D01*
X-105663Y56578D01*
X-105718Y56677D01*
X-105776Y56774D01*
X-105838Y56869D01*
X-105903Y56962D01*
X-105971Y57052D01*
X-106042Y57140D01*
X-106117Y57226D01*
X-106194Y57309D01*
X-106274Y57389D01*
X-106357Y57466D01*
X-106443Y57541D01*
X-106531Y57612D01*
X-106621Y57680D01*
X-106714Y57745D01*
X-106809Y57807D01*
X-106906Y57865D01*
X-107005Y57920D01*
X-107106Y57971D01*
X-107209Y58019D01*
X-107313Y58064D01*
X-107419Y58104D01*
X-107526Y58141D01*
X-107634Y58174D01*
X-107744Y58204D01*
X-107854Y58229D01*
X-107965Y58251D01*
X-108077Y58268D01*
X-108190Y58282D01*
X-108303Y58292D01*
X-108416Y58298D01*
X-108529Y58300D01*
X-113721Y58300D01*
X-113721Y58301D02*
X-113834Y58299D01*
X-113947Y58293D01*
X-114060Y58283D01*
X-114173Y58269D01*
X-114285Y58252D01*
X-114396Y58230D01*
X-114506Y58205D01*
X-114616Y58175D01*
X-114724Y58142D01*
X-114831Y58105D01*
X-114937Y58065D01*
X-115041Y58020D01*
X-115144Y57972D01*
X-115245Y57921D01*
X-115344Y57866D01*
X-115441Y57808D01*
X-115536Y57746D01*
X-115629Y57681D01*
X-115719Y57613D01*
X-115807Y57542D01*
X-115893Y57467D01*
X-115976Y57390D01*
X-116056Y57310D01*
X-116133Y57227D01*
X-116208Y57141D01*
X-116279Y57053D01*
X-116347Y56963D01*
X-116412Y56870D01*
X-116474Y56775D01*
X-116532Y56678D01*
X-116587Y56579D01*
X-116638Y56478D01*
X-116686Y56375D01*
X-116731Y56271D01*
X-116771Y56165D01*
X-116808Y56058D01*
X-116841Y55950D01*
X-116871Y55840D01*
X-116896Y55730D01*
X-116918Y55619D01*
X-116935Y55507D01*
X-116949Y55394D01*
X-116959Y55281D01*
X-116965Y55168D01*
X-116967Y55055D01*
X-116967Y55054D02*
X-116967Y51809D01*
X111774Y32329D02*
X111774Y30381D01*
X111774Y32329D02*
X105283Y32329D01*
X105283Y28434D01*
X105285Y28335D01*
X105291Y28235D01*
X105300Y28136D01*
X105313Y28038D01*
X105330Y27940D01*
X105351Y27842D01*
X105376Y27746D01*
X105404Y27651D01*
X105436Y27557D01*
X105471Y27464D01*
X105510Y27372D01*
X105553Y27282D01*
X105598Y27194D01*
X105648Y27107D01*
X105700Y27023D01*
X105756Y26940D01*
X105814Y26860D01*
X105876Y26782D01*
X105941Y26707D01*
X106009Y26634D01*
X106079Y26564D01*
X106152Y26496D01*
X106227Y26431D01*
X106305Y26369D01*
X106385Y26311D01*
X106468Y26255D01*
X106552Y26203D01*
X106639Y26153D01*
X106727Y26108D01*
X106817Y26065D01*
X106909Y26026D01*
X107002Y25991D01*
X107096Y25959D01*
X107191Y25931D01*
X107287Y25906D01*
X107385Y25885D01*
X107483Y25868D01*
X107581Y25855D01*
X107680Y25846D01*
X107780Y25840D01*
X107879Y25838D01*
X114371Y25838D01*
X114470Y25840D01*
X114570Y25846D01*
X114669Y25855D01*
X114767Y25868D01*
X114865Y25885D01*
X114963Y25906D01*
X115059Y25931D01*
X115154Y25959D01*
X115248Y25991D01*
X115341Y26026D01*
X115433Y26065D01*
X115523Y26108D01*
X115611Y26153D01*
X115698Y26203D01*
X115782Y26255D01*
X115865Y26311D01*
X115945Y26369D01*
X116023Y26431D01*
X116098Y26496D01*
X116171Y26564D01*
X116241Y26634D01*
X116309Y26707D01*
X116374Y26782D01*
X116436Y26860D01*
X116494Y26940D01*
X116550Y27023D01*
X116602Y27107D01*
X116652Y27194D01*
X116697Y27282D01*
X116740Y27372D01*
X116779Y27464D01*
X116814Y27556D01*
X116846Y27651D01*
X116874Y27746D01*
X116899Y27842D01*
X116920Y27940D01*
X116937Y28038D01*
X116950Y28136D01*
X116959Y28235D01*
X116965Y28335D01*
X116967Y28434D01*
X116967Y32329D01*
X116967Y38029D02*
X105283Y38029D01*
X105283Y44521D02*
X116967Y38029D01*
X116967Y44521D02*
X105283Y44521D01*
X105283Y50221D02*
X116967Y50221D01*
X116967Y53467D01*
X116965Y53580D01*
X116959Y53693D01*
X116949Y53806D01*
X116935Y53919D01*
X116918Y54031D01*
X116896Y54142D01*
X116871Y54252D01*
X116841Y54362D01*
X116808Y54470D01*
X116771Y54577D01*
X116731Y54683D01*
X116686Y54787D01*
X116638Y54890D01*
X116587Y54991D01*
X116532Y55090D01*
X116474Y55187D01*
X116412Y55282D01*
X116347Y55375D01*
X116279Y55465D01*
X116208Y55553D01*
X116133Y55639D01*
X116056Y55722D01*
X115976Y55802D01*
X115893Y55879D01*
X115807Y55954D01*
X115719Y56025D01*
X115629Y56093D01*
X115536Y56158D01*
X115441Y56220D01*
X115344Y56278D01*
X115245Y56333D01*
X115144Y56384D01*
X115041Y56432D01*
X114937Y56477D01*
X114831Y56517D01*
X114724Y56554D01*
X114616Y56587D01*
X114506Y56617D01*
X114396Y56642D01*
X114285Y56664D01*
X114173Y56681D01*
X114060Y56695D01*
X113947Y56705D01*
X113834Y56711D01*
X113721Y56713D01*
X108529Y56713D01*
X108416Y56711D01*
X108303Y56705D01*
X108190Y56695D01*
X108077Y56681D01*
X107965Y56664D01*
X107854Y56642D01*
X107744Y56617D01*
X107634Y56587D01*
X107526Y56554D01*
X107419Y56517D01*
X107313Y56477D01*
X107209Y56432D01*
X107106Y56384D01*
X107005Y56333D01*
X106906Y56278D01*
X106809Y56220D01*
X106714Y56158D01*
X106621Y56093D01*
X106531Y56025D01*
X106443Y55954D01*
X106357Y55879D01*
X106274Y55802D01*
X106194Y55722D01*
X106117Y55639D01*
X106042Y55553D01*
X105971Y55465D01*
X105903Y55375D01*
X105838Y55282D01*
X105776Y55187D01*
X105718Y55090D01*
X105663Y54991D01*
X105612Y54890D01*
X105564Y54787D01*
X105519Y54683D01*
X105479Y54577D01*
X105442Y54470D01*
X105409Y54362D01*
X105379Y54252D01*
X105354Y54142D01*
X105332Y54031D01*
X105315Y53919D01*
X105301Y53806D01*
X105291Y53693D01*
X105285Y53580D01*
X105283Y53467D01*
X105283Y50221D01*
D10*
X90964Y-29314D02*
X73454Y-32401D01*
X74311Y-37265D01*
X74337Y-37402D01*
X74367Y-37538D01*
X74401Y-37674D01*
X74439Y-37809D01*
X74481Y-37942D01*
X74526Y-38074D01*
X74575Y-38205D01*
X74628Y-38335D01*
X74684Y-38463D01*
X74744Y-38589D01*
X74808Y-38713D01*
X74875Y-38836D01*
X74945Y-38957D01*
X75019Y-39075D01*
X75096Y-39192D01*
X75177Y-39306D01*
X75260Y-39418D01*
X75347Y-39528D01*
X75437Y-39635D01*
X75530Y-39739D01*
X75625Y-39841D01*
X75724Y-39940D01*
X75825Y-40037D01*
X75929Y-40130D01*
X76036Y-40220D01*
X76145Y-40308D01*
X76257Y-40392D01*
X76371Y-40473D01*
X76487Y-40550D01*
X76605Y-40625D01*
X76726Y-40696D01*
X76848Y-40763D01*
X76972Y-40828D01*
X77098Y-40888D01*
X77226Y-40945D01*
X77355Y-40998D01*
X77486Y-41048D01*
X77618Y-41094D01*
X77751Y-41136D01*
X77885Y-41175D01*
X78021Y-41209D01*
X78157Y-41240D01*
X78294Y-41267D01*
X78432Y-41290D01*
X78571Y-41309D01*
X78710Y-41324D01*
X78849Y-41335D01*
X78989Y-41342D01*
X79128Y-41346D01*
X79268Y-41345D01*
X79408Y-41341D01*
X79547Y-41332D01*
X79687Y-41319D01*
X79825Y-41303D01*
X79964Y-41283D01*
X80101Y-41258D01*
X80238Y-41230D01*
X80374Y-41198D01*
X80509Y-41162D01*
X80644Y-41123D01*
X80776Y-41079D01*
X80908Y-41032D01*
X81038Y-40981D01*
X81167Y-40927D01*
X81294Y-40868D01*
X81419Y-40807D01*
X81543Y-40741D01*
X81665Y-40673D01*
X81784Y-40600D01*
X81902Y-40525D01*
X82017Y-40446D01*
X82131Y-40364D01*
X82241Y-40279D01*
X82350Y-40190D01*
X82456Y-40099D01*
X82559Y-40005D01*
X82659Y-39908D01*
X82757Y-39808D01*
X82852Y-39705D01*
X82943Y-39600D01*
X83032Y-39492D01*
X83118Y-39381D01*
X83201Y-39268D01*
X83280Y-39153D01*
X83356Y-39036D01*
X83429Y-38917D01*
X83498Y-38795D01*
X83564Y-38672D01*
X83626Y-38547D01*
X83685Y-38420D01*
X83740Y-38292D01*
X83792Y-38162D01*
X83840Y-38030D01*
X83884Y-37898D01*
X83924Y-37764D01*
X83960Y-37629D01*
X83993Y-37493D01*
X84022Y-37356D01*
X84047Y-37219D01*
X84068Y-37081D01*
X84085Y-36942D01*
X84098Y-36803D01*
X84107Y-36663D01*
X84113Y-36523D01*
X84114Y-36384D01*
X84111Y-36244D01*
X84105Y-36104D01*
X84094Y-35965D01*
X84080Y-35826D01*
X84061Y-35687D01*
X84039Y-35549D01*
X84039Y-35550D02*
X83181Y-30686D01*
X77175Y-53504D02*
X77199Y-53633D01*
X77228Y-53762D01*
X77260Y-53889D01*
X77297Y-54016D01*
X77336Y-54142D01*
X77380Y-54266D01*
X77427Y-54389D01*
X77478Y-54510D01*
X77533Y-54630D01*
X77591Y-54749D01*
X77652Y-54865D01*
X77717Y-54980D01*
X77785Y-55092D01*
X77857Y-55203D01*
X77932Y-55311D01*
X78010Y-55418D01*
X78091Y-55521D01*
X78175Y-55623D01*
X78262Y-55721D01*
X78352Y-55818D01*
X78445Y-55911D01*
X78541Y-56002D01*
X78639Y-56090D01*
X78740Y-56174D01*
X78843Y-56256D01*
X78949Y-56335D01*
X79057Y-56410D01*
X79167Y-56483D01*
X79279Y-56552D01*
X79393Y-56618D01*
X79509Y-56680D01*
X79627Y-56739D01*
X79747Y-56794D01*
X79868Y-56846D01*
X79991Y-56894D01*
X80115Y-56938D01*
X80240Y-56979D01*
X80366Y-57016D01*
X80494Y-57049D01*
X80622Y-57079D01*
X80751Y-57104D01*
X80881Y-57126D01*
X81012Y-57144D01*
X81143Y-57158D01*
X81274Y-57168D01*
X81406Y-57175D01*
X81537Y-57177D01*
X81669Y-57175D01*
X81801Y-57170D01*
X81932Y-57161D01*
X82063Y-57148D01*
X82194Y-57130D01*
X82324Y-57109D01*
X77175Y-53504D02*
X77151Y-53356D01*
X77131Y-53208D01*
X77114Y-53059D01*
X77102Y-52910D01*
X77093Y-52760D01*
X77089Y-52611D01*
X77088Y-52461D01*
X77092Y-52312D01*
X77099Y-52162D01*
X77110Y-52013D01*
X77125Y-51864D01*
X77144Y-51716D01*
X77167Y-51568D01*
X77193Y-51421D01*
X77224Y-51274D01*
X77258Y-51129D01*
X77296Y-50984D01*
X77338Y-50840D01*
X77384Y-50698D01*
X77433Y-50557D01*
X77486Y-50417D01*
X77543Y-50278D01*
X77603Y-50141D01*
X77667Y-50006D01*
X77735Y-49872D01*
X77805Y-49741D01*
X77880Y-49611D01*
X77957Y-49483D01*
X78038Y-49357D01*
X78123Y-49234D01*
X78210Y-49112D01*
X78301Y-48993D01*
X78395Y-48876D01*
X78491Y-48762D01*
X78591Y-48651D01*
X78694Y-48542D01*
X78799Y-48436D01*
X78907Y-48332D01*
X79018Y-48232D01*
X79131Y-48134D01*
X79247Y-48040D01*
X79366Y-47948D01*
X79487Y-47860D01*
X79610Y-47775D01*
X79735Y-47693D01*
X79862Y-47614D01*
X79991Y-47539D01*
X80123Y-47467D01*
X85471Y-55049D02*
X85396Y-55159D01*
X85318Y-55267D01*
X85236Y-55373D01*
X85152Y-55476D01*
X85065Y-55577D01*
X84975Y-55675D01*
X84882Y-55771D01*
X84787Y-55864D01*
X84689Y-55955D01*
X84589Y-56043D01*
X84486Y-56128D01*
X84381Y-56210D01*
X84274Y-56289D01*
X84164Y-56365D01*
X84053Y-56438D01*
X83939Y-56508D01*
X83824Y-56574D01*
X83707Y-56638D01*
X83588Y-56698D01*
X83467Y-56755D01*
X83345Y-56808D01*
X83221Y-56858D01*
X83096Y-56904D01*
X82970Y-56947D01*
X82843Y-56987D01*
X82714Y-57023D01*
X82585Y-57055D01*
X82455Y-57084D01*
X82324Y-57108D01*
X85471Y-55049D02*
X93741Y-45066D01*
X95456Y-54793D01*
X90795Y-68176D02*
X84958Y-69205D01*
X90795Y-68176D02*
X95773Y-70809D01*
X90795Y-68176D02*
X94572Y-63999D01*
X90795Y-68176D02*
X89793Y-73869D01*
X90795Y-68176D02*
X87906Y-63169D01*
X-74864Y-10228D02*
X-80945Y-26935D01*
X-74864Y-10228D02*
X-79505Y-8538D01*
X-79637Y-8492D01*
X-79770Y-8450D01*
X-79904Y-8411D01*
X-80040Y-8377D01*
X-80176Y-8346D01*
X-80313Y-8319D01*
X-80451Y-8296D01*
X-80590Y-8277D01*
X-80729Y-8262D01*
X-80868Y-8251D01*
X-81008Y-8244D01*
X-81147Y-8240D01*
X-81287Y-8241D01*
X-81427Y-8245D01*
X-81566Y-8254D01*
X-81706Y-8267D01*
X-81844Y-8283D01*
X-81983Y-8303D01*
X-82120Y-8328D01*
X-82257Y-8356D01*
X-82393Y-8388D01*
X-82528Y-8424D01*
X-82663Y-8463D01*
X-82795Y-8507D01*
X-82927Y-8554D01*
X-83057Y-8605D01*
X-83186Y-8659D01*
X-83313Y-8718D01*
X-83438Y-8779D01*
X-83562Y-8845D01*
X-83684Y-8913D01*
X-83803Y-8986D01*
X-83921Y-9061D01*
X-84036Y-9140D01*
X-84150Y-9222D01*
X-84260Y-9307D01*
X-84369Y-9396D01*
X-84475Y-9487D01*
X-84578Y-9581D01*
X-84678Y-9678D01*
X-84776Y-9778D01*
X-84871Y-9881D01*
X-84962Y-9986D01*
X-85051Y-10094D01*
X-85137Y-10205D01*
X-85220Y-10318D01*
X-85299Y-10433D01*
X-85375Y-10550D01*
X-85448Y-10669D01*
X-85517Y-10791D01*
X-85583Y-10914D01*
X-85645Y-11039D01*
X-85704Y-11166D01*
X-85759Y-11294D01*
X-85811Y-11424D01*
X-85859Y-11556D01*
X-85903Y-11688D01*
X-85943Y-11822D01*
X-85979Y-11957D01*
X-86012Y-12093D01*
X-86041Y-12230D01*
X-86066Y-12367D01*
X-86087Y-12505D01*
X-86104Y-12644D01*
X-86117Y-12783D01*
X-86126Y-12923D01*
X-86132Y-13063D01*
X-86133Y-13202D01*
X-86130Y-13342D01*
X-86124Y-13482D01*
X-86113Y-13621D01*
X-86099Y-13760D01*
X-86080Y-13899D01*
X-86058Y-14037D01*
X-86032Y-14174D01*
X-86002Y-14310D01*
X-85968Y-14446D01*
X-85930Y-14581D01*
X-85888Y-14714D01*
X-85843Y-14846D01*
X-85794Y-14977D01*
X-85741Y-15107D01*
X-85685Y-15235D01*
X-85625Y-15361D01*
X-85561Y-15485D01*
X-85494Y-15608D01*
X-85424Y-15729D01*
X-85350Y-15847D01*
X-85273Y-15964D01*
X-85192Y-16078D01*
X-85109Y-16190D01*
X-85022Y-16300D01*
X-84932Y-16407D01*
X-84839Y-16511D01*
X-84744Y-16613D01*
X-84645Y-16712D01*
X-84544Y-16809D01*
X-84440Y-16902D01*
X-84333Y-16992D01*
X-84224Y-17080D01*
X-84112Y-17164D01*
X-83998Y-17245D01*
X-83882Y-17322D01*
X-83764Y-17397D01*
X-83643Y-17468D01*
X-83521Y-17535D01*
X-83397Y-17600D01*
X-83271Y-17660D01*
X-83143Y-17717D01*
X-83014Y-17770D01*
X-82883Y-17820D01*
X-78242Y-19510D01*
X-94624Y-17752D02*
X-93607Y-3406D01*
X-94624Y-17752D02*
X-103906Y-14373D01*
X-99770Y-11674D02*
X-102473Y-19100D01*
X-114516Y-7358D02*
X-112489Y-1789D01*
X-114516Y-7358D02*
X-119285Y-10352D01*
X-114516Y-7358D02*
X-112788Y-12717D01*
X-114516Y-7358D02*
X-118946Y-3643D01*
X-114516Y-7358D02*
X-108736Y-7360D01*
X-24968Y85711D02*
X-24968Y103491D01*
X-29907Y103491D01*
X-30047Y103489D01*
X-30186Y103483D01*
X-30326Y103473D01*
X-30465Y103459D01*
X-30604Y103442D01*
X-30742Y103420D01*
X-30879Y103394D01*
X-31016Y103365D01*
X-31152Y103332D01*
X-31286Y103295D01*
X-31420Y103254D01*
X-31552Y103209D01*
X-31684Y103160D01*
X-31813Y103108D01*
X-31941Y103053D01*
X-32068Y102993D01*
X-32193Y102930D01*
X-32316Y102864D01*
X-32437Y102794D01*
X-32556Y102721D01*
X-32673Y102644D01*
X-32787Y102564D01*
X-32900Y102481D01*
X-33010Y102395D01*
X-33117Y102305D01*
X-33222Y102213D01*
X-33324Y102118D01*
X-33424Y102020D01*
X-33521Y101919D01*
X-33615Y101815D01*
X-33705Y101709D01*
X-33793Y101600D01*
X-33878Y101489D01*
X-33959Y101375D01*
X-34038Y101260D01*
X-34113Y101142D01*
X-34184Y101021D01*
X-34252Y100899D01*
X-34317Y100776D01*
X-34378Y100650D01*
X-34436Y100522D01*
X-34490Y100394D01*
X-34540Y100263D01*
X-34587Y100131D01*
X-34630Y99998D01*
X-34669Y99864D01*
X-34704Y99729D01*
X-34735Y99593D01*
X-34763Y99455D01*
X-34786Y99318D01*
X-34806Y99179D01*
X-34822Y99040D01*
X-34834Y98901D01*
X-34842Y98762D01*
X-34846Y98622D01*
X-34846Y98482D01*
X-34842Y98342D01*
X-34834Y98203D01*
X-34822Y98064D01*
X-34806Y97925D01*
X-34786Y97786D01*
X-34763Y97649D01*
X-34735Y97511D01*
X-34704Y97375D01*
X-34669Y97240D01*
X-34630Y97106D01*
X-34587Y96973D01*
X-34540Y96841D01*
X-34490Y96710D01*
X-34436Y96582D01*
X-34378Y96454D01*
X-34317Y96328D01*
X-34252Y96205D01*
X-34184Y96082D01*
X-34113Y95962D01*
X-34038Y95844D01*
X-33959Y95729D01*
X-33878Y95615D01*
X-33793Y95504D01*
X-33705Y95395D01*
X-33615Y95289D01*
X-33521Y95185D01*
X-33424Y95084D01*
X-33324Y94986D01*
X-33222Y94891D01*
X-33117Y94799D01*
X-33010Y94709D01*
X-32900Y94623D01*
X-32787Y94540D01*
X-32673Y94460D01*
X-32556Y94383D01*
X-32437Y94310D01*
X-32316Y94240D01*
X-32193Y94174D01*
X-32068Y94111D01*
X-31941Y94051D01*
X-31813Y93996D01*
X-31684Y93944D01*
X-31552Y93895D01*
X-31420Y93850D01*
X-31286Y93809D01*
X-31152Y93772D01*
X-31016Y93739D01*
X-30879Y93710D01*
X-30742Y93684D01*
X-30604Y93662D01*
X-30465Y93645D01*
X-30326Y93631D01*
X-30186Y93621D01*
X-30047Y93615D01*
X-29907Y93613D01*
X-24968Y93613D01*
X-40963Y85711D02*
X-46890Y85711D01*
X-47014Y85713D01*
X-47138Y85719D01*
X-47262Y85729D01*
X-47385Y85742D01*
X-47508Y85760D01*
X-47630Y85781D01*
X-47752Y85806D01*
X-47873Y85835D01*
X-47992Y85868D01*
X-48111Y85904D01*
X-48228Y85945D01*
X-48344Y85988D01*
X-48459Y86036D01*
X-48572Y86087D01*
X-48684Y86142D01*
X-48793Y86200D01*
X-48901Y86261D01*
X-49007Y86326D01*
X-49111Y86394D01*
X-49212Y86466D01*
X-49312Y86540D01*
X-49408Y86618D01*
X-49503Y86698D01*
X-49595Y86782D01*
X-49684Y86868D01*
X-49770Y86957D01*
X-49854Y87049D01*
X-49934Y87144D01*
X-50012Y87240D01*
X-50086Y87340D01*
X-50158Y87441D01*
X-50226Y87545D01*
X-50291Y87651D01*
X-50352Y87759D01*
X-50410Y87868D01*
X-50465Y87980D01*
X-50516Y88093D01*
X-50564Y88208D01*
X-50607Y88324D01*
X-50648Y88441D01*
X-50684Y88560D01*
X-50717Y88679D01*
X-50746Y88800D01*
X-50771Y88922D01*
X-50792Y89044D01*
X-50810Y89167D01*
X-50823Y89290D01*
X-50833Y89414D01*
X-50839Y89538D01*
X-50841Y89662D01*
X-50841Y91638D01*
X-50839Y91762D01*
X-50833Y91886D01*
X-50823Y92010D01*
X-50810Y92133D01*
X-50792Y92256D01*
X-50771Y92378D01*
X-50746Y92500D01*
X-50717Y92621D01*
X-50684Y92740D01*
X-50648Y92859D01*
X-50607Y92976D01*
X-50564Y93092D01*
X-50516Y93207D01*
X-50465Y93320D01*
X-50410Y93432D01*
X-50352Y93541D01*
X-50291Y93649D01*
X-50226Y93755D01*
X-50158Y93859D01*
X-50086Y93960D01*
X-50012Y94060D01*
X-49934Y94156D01*
X-49854Y94251D01*
X-49770Y94343D01*
X-49684Y94432D01*
X-49595Y94518D01*
X-49503Y94602D01*
X-49408Y94682D01*
X-49312Y94760D01*
X-49212Y94834D01*
X-49111Y94906D01*
X-49007Y94974D01*
X-48901Y95039D01*
X-48793Y95100D01*
X-48684Y95158D01*
X-48572Y95213D01*
X-48459Y95264D01*
X-48344Y95312D01*
X-48228Y95355D01*
X-48111Y95396D01*
X-47992Y95432D01*
X-47873Y95465D01*
X-47752Y95494D01*
X-47630Y95519D01*
X-47508Y95540D01*
X-47385Y95558D01*
X-47262Y95571D01*
X-47138Y95581D01*
X-47014Y95587D01*
X-46890Y95589D01*
X-40963Y95589D01*
X-40963Y103491D01*
X-50841Y103491D01*
X51036Y102553D02*
X51036Y84773D01*
X51036Y102553D02*
X46098Y102553D01*
X45958Y102551D01*
X45819Y102545D01*
X45679Y102535D01*
X45540Y102521D01*
X45401Y102504D01*
X45263Y102482D01*
X45126Y102456D01*
X44989Y102427D01*
X44853Y102394D01*
X44719Y102357D01*
X44585Y102316D01*
X44453Y102271D01*
X44321Y102222D01*
X44192Y102170D01*
X44064Y102115D01*
X43937Y102055D01*
X43812Y101992D01*
X43689Y101926D01*
X43568Y101856D01*
X43449Y101783D01*
X43332Y101706D01*
X43218Y101626D01*
X43105Y101543D01*
X42995Y101457D01*
X42888Y101367D01*
X42783Y101275D01*
X42681Y101180D01*
X42581Y101082D01*
X42484Y100981D01*
X42390Y100877D01*
X42300Y100771D01*
X42212Y100662D01*
X42127Y100551D01*
X42046Y100437D01*
X41967Y100322D01*
X41892Y100204D01*
X41821Y100083D01*
X41753Y99961D01*
X41688Y99838D01*
X41627Y99712D01*
X41569Y99584D01*
X41515Y99456D01*
X41465Y99325D01*
X41418Y99193D01*
X41375Y99060D01*
X41336Y98926D01*
X41301Y98791D01*
X41270Y98655D01*
X41242Y98517D01*
X41219Y98380D01*
X41199Y98241D01*
X41183Y98102D01*
X41171Y97963D01*
X41163Y97824D01*
X41159Y97684D01*
X41159Y97544D01*
X41163Y97404D01*
X41171Y97265D01*
X41183Y97126D01*
X41199Y96987D01*
X41219Y96848D01*
X41242Y96711D01*
X41270Y96573D01*
X41301Y96437D01*
X41336Y96302D01*
X41375Y96168D01*
X41418Y96035D01*
X41465Y95903D01*
X41515Y95772D01*
X41569Y95644D01*
X41627Y95516D01*
X41688Y95390D01*
X41753Y95267D01*
X41821Y95144D01*
X41892Y95024D01*
X41967Y94906D01*
X42046Y94791D01*
X42127Y94677D01*
X42212Y94566D01*
X42300Y94457D01*
X42390Y94351D01*
X42484Y94247D01*
X42581Y94146D01*
X42681Y94048D01*
X42783Y93953D01*
X42888Y93861D01*
X42995Y93771D01*
X43105Y93685D01*
X43218Y93602D01*
X43332Y93522D01*
X43449Y93445D01*
X43568Y93372D01*
X43689Y93302D01*
X43812Y93236D01*
X43937Y93173D01*
X44064Y93113D01*
X44192Y93058D01*
X44321Y93006D01*
X44453Y92957D01*
X44585Y92912D01*
X44719Y92871D01*
X44853Y92834D01*
X44989Y92801D01*
X45126Y92772D01*
X45263Y92746D01*
X45401Y92724D01*
X45540Y92707D01*
X45679Y92693D01*
X45819Y92683D01*
X45958Y92677D01*
X46098Y92675D01*
X51036Y92675D01*
X35041Y98601D02*
X30102Y102553D01*
X30102Y84773D01*
X25164Y84773D02*
X35041Y84773D01*
X12936Y-83185D02*
X12936Y-100965D01*
X12936Y-83185D02*
X7998Y-83185D01*
X7858Y-83187D01*
X7719Y-83193D01*
X7579Y-83203D01*
X7440Y-83217D01*
X7301Y-83234D01*
X7163Y-83256D01*
X7026Y-83282D01*
X6889Y-83311D01*
X6753Y-83344D01*
X6619Y-83381D01*
X6485Y-83422D01*
X6353Y-83467D01*
X6221Y-83516D01*
X6092Y-83568D01*
X5964Y-83623D01*
X5837Y-83683D01*
X5712Y-83746D01*
X5589Y-83812D01*
X5468Y-83882D01*
X5349Y-83955D01*
X5232Y-84032D01*
X5118Y-84112D01*
X5005Y-84195D01*
X4895Y-84281D01*
X4788Y-84371D01*
X4683Y-84463D01*
X4581Y-84558D01*
X4481Y-84656D01*
X4384Y-84757D01*
X4290Y-84861D01*
X4200Y-84967D01*
X4112Y-85076D01*
X4027Y-85187D01*
X3946Y-85301D01*
X3867Y-85416D01*
X3792Y-85534D01*
X3721Y-85655D01*
X3653Y-85777D01*
X3588Y-85900D01*
X3527Y-86026D01*
X3469Y-86154D01*
X3415Y-86282D01*
X3365Y-86413D01*
X3318Y-86545D01*
X3275Y-86678D01*
X3236Y-86812D01*
X3201Y-86947D01*
X3170Y-87083D01*
X3142Y-87221D01*
X3119Y-87358D01*
X3099Y-87497D01*
X3083Y-87636D01*
X3071Y-87775D01*
X3063Y-87914D01*
X3059Y-88054D01*
X3059Y-88194D01*
X3063Y-88334D01*
X3071Y-88473D01*
X3083Y-88612D01*
X3099Y-88751D01*
X3119Y-88890D01*
X3142Y-89027D01*
X3170Y-89165D01*
X3201Y-89301D01*
X3236Y-89436D01*
X3275Y-89570D01*
X3318Y-89703D01*
X3365Y-89835D01*
X3415Y-89966D01*
X3469Y-90094D01*
X3527Y-90222D01*
X3588Y-90348D01*
X3653Y-90471D01*
X3721Y-90594D01*
X3792Y-90714D01*
X3867Y-90832D01*
X3946Y-90947D01*
X4027Y-91061D01*
X4112Y-91172D01*
X4200Y-91281D01*
X4290Y-91387D01*
X4384Y-91491D01*
X4481Y-91592D01*
X4581Y-91690D01*
X4683Y-91785D01*
X4788Y-91877D01*
X4895Y-91967D01*
X5005Y-92053D01*
X5118Y-92136D01*
X5232Y-92216D01*
X5349Y-92293D01*
X5468Y-92366D01*
X5589Y-92436D01*
X5712Y-92502D01*
X5837Y-92565D01*
X5964Y-92625D01*
X6092Y-92680D01*
X6221Y-92732D01*
X6353Y-92781D01*
X6485Y-92826D01*
X6619Y-92867D01*
X6753Y-92904D01*
X6889Y-92937D01*
X7026Y-92966D01*
X7163Y-92992D01*
X7301Y-93014D01*
X7440Y-93031D01*
X7579Y-93045D01*
X7719Y-93055D01*
X7858Y-93061D01*
X7998Y-93063D01*
X12936Y-93063D01*
X-3059Y-100965D02*
X-7998Y-100965D01*
X-8138Y-100963D01*
X-8277Y-100957D01*
X-8417Y-100947D01*
X-8556Y-100933D01*
X-8695Y-100916D01*
X-8833Y-100894D01*
X-8970Y-100868D01*
X-9107Y-100839D01*
X-9243Y-100806D01*
X-9377Y-100769D01*
X-9511Y-100728D01*
X-9643Y-100683D01*
X-9775Y-100634D01*
X-9904Y-100582D01*
X-10032Y-100527D01*
X-10159Y-100467D01*
X-10284Y-100404D01*
X-10407Y-100338D01*
X-10528Y-100268D01*
X-10647Y-100195D01*
X-10764Y-100118D01*
X-10878Y-100038D01*
X-10991Y-99955D01*
X-11101Y-99869D01*
X-11208Y-99779D01*
X-11313Y-99687D01*
X-11415Y-99592D01*
X-11515Y-99494D01*
X-11612Y-99393D01*
X-11706Y-99289D01*
X-11796Y-99183D01*
X-11884Y-99074D01*
X-11969Y-98963D01*
X-12050Y-98849D01*
X-12129Y-98734D01*
X-12204Y-98616D01*
X-12275Y-98496D01*
X-12343Y-98373D01*
X-12408Y-98250D01*
X-12469Y-98124D01*
X-12527Y-97996D01*
X-12581Y-97868D01*
X-12631Y-97737D01*
X-12678Y-97605D01*
X-12721Y-97472D01*
X-12760Y-97338D01*
X-12795Y-97203D01*
X-12826Y-97067D01*
X-12854Y-96929D01*
X-12877Y-96792D01*
X-12897Y-96653D01*
X-12913Y-96514D01*
X-12925Y-96375D01*
X-12933Y-96236D01*
X-12937Y-96096D01*
X-12937Y-95956D01*
X-12933Y-95816D01*
X-12925Y-95677D01*
X-12913Y-95538D01*
X-12897Y-95399D01*
X-12877Y-95260D01*
X-12854Y-95123D01*
X-12826Y-94985D01*
X-12795Y-94849D01*
X-12760Y-94714D01*
X-12721Y-94580D01*
X-12678Y-94447D01*
X-12631Y-94315D01*
X-12581Y-94184D01*
X-12527Y-94056D01*
X-12469Y-93928D01*
X-12408Y-93802D01*
X-12343Y-93679D01*
X-12275Y-93557D01*
X-12204Y-93436D01*
X-12129Y-93318D01*
X-12050Y-93203D01*
X-11969Y-93089D01*
X-11884Y-92978D01*
X-11796Y-92869D01*
X-11706Y-92763D01*
X-11612Y-92659D01*
X-11515Y-92558D01*
X-11415Y-92460D01*
X-11313Y-92365D01*
X-11208Y-92273D01*
X-11101Y-92183D01*
X-10991Y-92097D01*
X-10878Y-92014D01*
X-10764Y-91934D01*
X-10647Y-91857D01*
X-10528Y-91784D01*
X-10407Y-91714D01*
X-10284Y-91648D01*
X-10159Y-91585D01*
X-10032Y-91525D01*
X-9904Y-91470D01*
X-9775Y-91418D01*
X-9643Y-91369D01*
X-9511Y-91324D01*
X-9377Y-91283D01*
X-9243Y-91246D01*
X-9107Y-91213D01*
X-8970Y-91184D01*
X-8833Y-91158D01*
X-8695Y-91136D01*
X-8556Y-91119D01*
X-8417Y-91105D01*
X-8277Y-91095D01*
X-8138Y-91089D01*
X-7998Y-91087D01*
X-8985Y-83185D02*
X-3059Y-83185D01*
X-8985Y-83185D02*
X-9109Y-83187D01*
X-9233Y-83193D01*
X-9357Y-83203D01*
X-9480Y-83216D01*
X-9603Y-83234D01*
X-9725Y-83255D01*
X-9847Y-83280D01*
X-9968Y-83309D01*
X-10087Y-83342D01*
X-10206Y-83378D01*
X-10323Y-83419D01*
X-10439Y-83462D01*
X-10554Y-83510D01*
X-10667Y-83561D01*
X-10779Y-83616D01*
X-10888Y-83674D01*
X-10996Y-83735D01*
X-11102Y-83800D01*
X-11206Y-83868D01*
X-11307Y-83940D01*
X-11407Y-84014D01*
X-11503Y-84092D01*
X-11598Y-84172D01*
X-11690Y-84256D01*
X-11779Y-84342D01*
X-11865Y-84431D01*
X-11949Y-84523D01*
X-12029Y-84618D01*
X-12107Y-84714D01*
X-12181Y-84814D01*
X-12253Y-84915D01*
X-12321Y-85019D01*
X-12386Y-85125D01*
X-12447Y-85233D01*
X-12505Y-85342D01*
X-12560Y-85454D01*
X-12611Y-85567D01*
X-12659Y-85682D01*
X-12702Y-85798D01*
X-12743Y-85915D01*
X-12779Y-86034D01*
X-12812Y-86153D01*
X-12841Y-86274D01*
X-12866Y-86396D01*
X-12887Y-86518D01*
X-12905Y-86641D01*
X-12918Y-86764D01*
X-12928Y-86888D01*
X-12934Y-87012D01*
X-12936Y-87136D01*
X-12934Y-87260D01*
X-12928Y-87384D01*
X-12918Y-87508D01*
X-12905Y-87631D01*
X-12887Y-87754D01*
X-12866Y-87876D01*
X-12841Y-87998D01*
X-12812Y-88119D01*
X-12779Y-88238D01*
X-12743Y-88357D01*
X-12702Y-88474D01*
X-12659Y-88590D01*
X-12611Y-88705D01*
X-12560Y-88818D01*
X-12505Y-88930D01*
X-12447Y-89039D01*
X-12386Y-89147D01*
X-12321Y-89253D01*
X-12253Y-89357D01*
X-12181Y-89458D01*
X-12107Y-89558D01*
X-12029Y-89654D01*
X-11949Y-89749D01*
X-11865Y-89841D01*
X-11779Y-89930D01*
X-11690Y-90016D01*
X-11598Y-90100D01*
X-11503Y-90180D01*
X-11407Y-90258D01*
X-11307Y-90332D01*
X-11206Y-90404D01*
X-11102Y-90472D01*
X-10996Y-90537D01*
X-10888Y-90598D01*
X-10779Y-90656D01*
X-10667Y-90711D01*
X-10554Y-90762D01*
X-10439Y-90810D01*
X-10323Y-90853D01*
X-10206Y-90894D01*
X-10087Y-90930D01*
X-9968Y-90963D01*
X-9847Y-90992D01*
X-9725Y-91017D01*
X-9603Y-91038D01*
X-9480Y-91056D01*
X-9357Y-91069D01*
X-9233Y-91079D01*
X-9109Y-91085D01*
X-8985Y-91087D01*
X-5034Y-91087D01*
D12*
X-17844Y-82733D02*
X-17844Y-75946D01*
X-17843Y-82733D02*
X-17845Y-82834D01*
X-17851Y-82935D01*
X-17861Y-83036D01*
X-17874Y-83136D01*
X-17892Y-83236D01*
X-17913Y-83335D01*
X-17939Y-83433D01*
X-17968Y-83530D01*
X-18000Y-83626D01*
X-18037Y-83720D01*
X-18077Y-83813D01*
X-18121Y-83905D01*
X-18168Y-83994D01*
X-18219Y-84082D01*
X-18273Y-84168D01*
X-18330Y-84251D01*
X-18390Y-84333D01*
X-18454Y-84411D01*
X-18520Y-84488D01*
X-18590Y-84561D01*
X-18662Y-84632D01*
X-18737Y-84700D01*
X-18815Y-84765D01*
X-18895Y-84827D01*
X-18977Y-84886D01*
X-19062Y-84942D01*
X-19149Y-84994D01*
X-19237Y-85043D01*
X-19328Y-85089D01*
X-19420Y-85130D01*
X-19514Y-85169D01*
X-19609Y-85203D01*
X-19705Y-85234D01*
X-19803Y-85261D01*
X-19901Y-85285D01*
X-20001Y-85304D01*
X-20101Y-85320D01*
X-20201Y-85332D01*
X-20302Y-85340D01*
X-20403Y-85344D01*
X-20505Y-85344D01*
X-20606Y-85340D01*
X-20707Y-85332D01*
X-20807Y-85320D01*
X-20907Y-85304D01*
X-21007Y-85285D01*
X-21105Y-85261D01*
X-21203Y-85234D01*
X-21299Y-85203D01*
X-21394Y-85169D01*
X-21488Y-85130D01*
X-21580Y-85089D01*
X-21671Y-85043D01*
X-21760Y-84994D01*
X-21846Y-84942D01*
X-21931Y-84886D01*
X-22013Y-84827D01*
X-22093Y-84765D01*
X-22171Y-84700D01*
X-22246Y-84632D01*
X-22318Y-84561D01*
X-22388Y-84488D01*
X-22454Y-84411D01*
X-22518Y-84333D01*
X-22578Y-84251D01*
X-22635Y-84168D01*
X-22689Y-84082D01*
X-22740Y-83994D01*
X-22787Y-83905D01*
X-22831Y-83813D01*
X-22871Y-83720D01*
X-22908Y-83626D01*
X-22940Y-83530D01*
X-22969Y-83433D01*
X-22995Y-83335D01*
X-23016Y-83236D01*
X-23034Y-83136D01*
X-23047Y-83036D01*
X-23057Y-82935D01*
X-23063Y-82834D01*
X-23065Y-82733D01*
X-23065Y-75946D01*
X-27292Y-78034D02*
X-29903Y-75946D01*
X-29903Y-85344D01*
X-32513Y-85344D02*
X-27292Y-85344D01*
D10*
X41758Y-5194D02*
X41758Y14935D01*
D13*
X58611Y4763D02*
X65215Y4763D01*
D12*
X87884Y1778D02*
X89521Y1778D01*
X89599Y1780D01*
X89677Y1785D01*
X89754Y1795D01*
X89831Y1808D01*
X89907Y1824D01*
X89982Y1844D01*
X90056Y1868D01*
X90129Y1895D01*
X90201Y1926D01*
X90271Y1960D01*
X90340Y1997D01*
X90406Y2038D01*
X90471Y2082D01*
X90533Y2128D01*
X90593Y2178D01*
X90651Y2230D01*
X90706Y2285D01*
X90758Y2343D01*
X90808Y2403D01*
X90854Y2465D01*
X90898Y2530D01*
X90939Y2597D01*
X90976Y2665D01*
X91010Y2735D01*
X91041Y2807D01*
X91068Y2880D01*
X91092Y2954D01*
X91112Y3029D01*
X91128Y3105D01*
X91141Y3182D01*
X91151Y3259D01*
X91156Y3337D01*
X91158Y3415D01*
X91158Y7507D01*
X91156Y7585D01*
X91151Y7663D01*
X91141Y7740D01*
X91128Y7817D01*
X91112Y7893D01*
X91092Y7968D01*
X91068Y8042D01*
X91041Y8115D01*
X91010Y8187D01*
X90976Y8257D01*
X90939Y8326D01*
X90898Y8392D01*
X90854Y8457D01*
X90808Y8519D01*
X90758Y8579D01*
X90706Y8637D01*
X90651Y8692D01*
X90593Y8744D01*
X90533Y8794D01*
X90471Y8840D01*
X90406Y8884D01*
X90340Y8925D01*
X90271Y8962D01*
X90201Y8996D01*
X90129Y9027D01*
X90056Y9054D01*
X89982Y9078D01*
X89907Y9098D01*
X89831Y9114D01*
X89754Y9127D01*
X89677Y9137D01*
X89599Y9142D01*
X89521Y9144D01*
X87884Y9144D01*
X82788Y9145D02*
X82703Y9143D01*
X82618Y9137D01*
X82534Y9127D01*
X82450Y9114D01*
X82366Y9096D01*
X82284Y9075D01*
X82203Y9050D01*
X82123Y9021D01*
X82044Y8988D01*
X81967Y8952D01*
X81892Y8912D01*
X81818Y8869D01*
X81747Y8823D01*
X81678Y8773D01*
X81611Y8720D01*
X81547Y8664D01*
X81486Y8605D01*
X81427Y8544D01*
X81371Y8480D01*
X81318Y8413D01*
X81268Y8344D01*
X81222Y8273D01*
X81179Y8199D01*
X81139Y8124D01*
X81103Y8047D01*
X81070Y7968D01*
X81041Y7888D01*
X81016Y7807D01*
X80995Y7725D01*
X80977Y7641D01*
X80964Y7557D01*
X80954Y7473D01*
X80948Y7388D01*
X80946Y7303D01*
X82788Y9144D02*
X82884Y9142D01*
X82980Y9136D01*
X83075Y9126D01*
X83170Y9113D01*
X83265Y9095D01*
X83358Y9074D01*
X83451Y9049D01*
X83542Y9020D01*
X83633Y8988D01*
X83722Y8952D01*
X83809Y8912D01*
X83895Y8869D01*
X83979Y8823D01*
X84061Y8773D01*
X84141Y8719D01*
X84218Y8663D01*
X84293Y8603D01*
X84366Y8541D01*
X84436Y8475D01*
X84504Y8407D01*
X84569Y8336D01*
X84630Y8263D01*
X84689Y8187D01*
X84745Y8108D01*
X84797Y8028D01*
X84846Y7945D01*
X84892Y7861D01*
X84934Y7775D01*
X84972Y7687D01*
X85007Y7598D01*
X85039Y7507D01*
X81561Y5871D02*
X81501Y5930D01*
X81444Y5992D01*
X81389Y6056D01*
X81338Y6123D01*
X81289Y6192D01*
X81243Y6262D01*
X81200Y6335D01*
X81160Y6409D01*
X81124Y6485D01*
X81091Y6563D01*
X81061Y6642D01*
X81034Y6722D01*
X81011Y6803D01*
X80992Y6885D01*
X80976Y6967D01*
X80963Y7051D01*
X80954Y7135D01*
X80949Y7219D01*
X80947Y7303D01*
X81560Y5870D02*
X85039Y1778D01*
X80947Y1778D01*
D13*
X65215Y-6350D02*
X58611Y-6350D01*
D12*
X88281Y-9731D02*
X89918Y-9731D01*
X89918Y-9732D02*
X89996Y-9730D01*
X90074Y-9725D01*
X90151Y-9715D01*
X90228Y-9702D01*
X90304Y-9686D01*
X90379Y-9666D01*
X90453Y-9642D01*
X90526Y-9615D01*
X90598Y-9584D01*
X90668Y-9550D01*
X90737Y-9513D01*
X90803Y-9472D01*
X90868Y-9428D01*
X90930Y-9382D01*
X90990Y-9332D01*
X91048Y-9280D01*
X91103Y-9225D01*
X91155Y-9167D01*
X91205Y-9107D01*
X91251Y-9045D01*
X91295Y-8980D01*
X91336Y-8913D01*
X91373Y-8845D01*
X91407Y-8775D01*
X91438Y-8703D01*
X91465Y-8630D01*
X91489Y-8556D01*
X91509Y-8481D01*
X91525Y-8405D01*
X91538Y-8328D01*
X91548Y-8251D01*
X91553Y-8173D01*
X91555Y-8095D01*
X91555Y-4002D01*
X91553Y-3922D01*
X91547Y-3842D01*
X91537Y-3762D01*
X91524Y-3683D01*
X91506Y-3604D01*
X91485Y-3527D01*
X91459Y-3451D01*
X91430Y-3376D01*
X91398Y-3302D01*
X91362Y-3230D01*
X91322Y-3160D01*
X91279Y-3093D01*
X91233Y-3027D01*
X91183Y-2964D01*
X91131Y-2903D01*
X91076Y-2844D01*
X91017Y-2789D01*
X90957Y-2737D01*
X90893Y-2687D01*
X90828Y-2641D01*
X90760Y-2598D01*
X90690Y-2558D01*
X90618Y-2522D01*
X90544Y-2490D01*
X90470Y-2461D01*
X90393Y-2436D01*
X90316Y-2414D01*
X90237Y-2396D01*
X90158Y-2383D01*
X90079Y-2373D01*
X89998Y-2367D01*
X89918Y-2365D01*
X88281Y-2365D01*
X85436Y-9731D02*
X82980Y-9731D01*
X82900Y-9729D01*
X82820Y-9723D01*
X82740Y-9713D01*
X82661Y-9700D01*
X82582Y-9682D01*
X82505Y-9661D01*
X82429Y-9635D01*
X82354Y-9606D01*
X82280Y-9574D01*
X82208Y-9538D01*
X82138Y-9498D01*
X82071Y-9455D01*
X82005Y-9409D01*
X81942Y-9359D01*
X81881Y-9307D01*
X81822Y-9252D01*
X81767Y-9193D01*
X81715Y-9133D01*
X81665Y-9069D01*
X81619Y-9004D01*
X81576Y-8936D01*
X81536Y-8866D01*
X81500Y-8794D01*
X81468Y-8720D01*
X81439Y-8646D01*
X81414Y-8569D01*
X81392Y-8492D01*
X81374Y-8413D01*
X81361Y-8334D01*
X81351Y-8255D01*
X81345Y-8174D01*
X81343Y-8094D01*
X81344Y-8095D02*
X81344Y-7276D01*
X81343Y-7276D02*
X81345Y-7198D01*
X81350Y-7120D01*
X81360Y-7043D01*
X81373Y-6966D01*
X81389Y-6890D01*
X81409Y-6815D01*
X81433Y-6741D01*
X81460Y-6668D01*
X81491Y-6596D01*
X81525Y-6526D01*
X81562Y-6457D01*
X81603Y-6391D01*
X81647Y-6326D01*
X81693Y-6264D01*
X81743Y-6204D01*
X81795Y-6146D01*
X81850Y-6091D01*
X81908Y-6039D01*
X81968Y-5989D01*
X82030Y-5943D01*
X82095Y-5899D01*
X82162Y-5858D01*
X82230Y-5821D01*
X82300Y-5787D01*
X82372Y-5756D01*
X82445Y-5729D01*
X82519Y-5705D01*
X82594Y-5685D01*
X82670Y-5669D01*
X82747Y-5656D01*
X82824Y-5646D01*
X82902Y-5641D01*
X82980Y-5639D01*
X85436Y-5639D01*
X85436Y-2365D01*
X81344Y-2365D01*
D13*
X65215Y-15875D02*
X58611Y-15875D01*
D12*
X87627Y-21050D02*
X89263Y-21050D01*
X89341Y-21048D01*
X89419Y-21043D01*
X89496Y-21033D01*
X89573Y-21020D01*
X89649Y-21004D01*
X89724Y-20984D01*
X89798Y-20960D01*
X89871Y-20933D01*
X89943Y-20902D01*
X90013Y-20868D01*
X90082Y-20831D01*
X90148Y-20790D01*
X90213Y-20746D01*
X90275Y-20700D01*
X90335Y-20650D01*
X90393Y-20598D01*
X90448Y-20543D01*
X90500Y-20485D01*
X90550Y-20425D01*
X90596Y-20363D01*
X90640Y-20298D01*
X90681Y-20231D01*
X90718Y-20163D01*
X90752Y-20093D01*
X90783Y-20021D01*
X90810Y-19948D01*
X90834Y-19874D01*
X90854Y-19799D01*
X90870Y-19723D01*
X90883Y-19646D01*
X90893Y-19569D01*
X90898Y-19491D01*
X90900Y-19413D01*
X90900Y-15321D01*
X90898Y-15241D01*
X90892Y-15161D01*
X90882Y-15081D01*
X90869Y-15002D01*
X90851Y-14923D01*
X90830Y-14846D01*
X90804Y-14770D01*
X90775Y-14695D01*
X90743Y-14621D01*
X90707Y-14549D01*
X90667Y-14479D01*
X90624Y-14412D01*
X90578Y-14346D01*
X90528Y-14283D01*
X90476Y-14222D01*
X90421Y-14163D01*
X90362Y-14108D01*
X90302Y-14056D01*
X90238Y-14006D01*
X90173Y-13960D01*
X90105Y-13917D01*
X90035Y-13877D01*
X89963Y-13841D01*
X89889Y-13809D01*
X89815Y-13780D01*
X89738Y-13755D01*
X89661Y-13733D01*
X89582Y-13715D01*
X89503Y-13702D01*
X89424Y-13692D01*
X89343Y-13686D01*
X89263Y-13684D01*
X87627Y-13684D01*
X84781Y-16958D02*
X82326Y-16958D01*
X82248Y-16960D01*
X82170Y-16965D01*
X82093Y-16975D01*
X82016Y-16988D01*
X81940Y-17004D01*
X81865Y-17024D01*
X81791Y-17048D01*
X81718Y-17075D01*
X81646Y-17106D01*
X81576Y-17140D01*
X81508Y-17177D01*
X81441Y-17218D01*
X81376Y-17262D01*
X81314Y-17308D01*
X81254Y-17358D01*
X81196Y-17410D01*
X81141Y-17465D01*
X81089Y-17523D01*
X81039Y-17583D01*
X80993Y-17645D01*
X80949Y-17710D01*
X80908Y-17776D01*
X80871Y-17845D01*
X80837Y-17915D01*
X80806Y-17987D01*
X80779Y-18060D01*
X80755Y-18134D01*
X80735Y-18209D01*
X80719Y-18285D01*
X80706Y-18362D01*
X80696Y-18439D01*
X80691Y-18517D01*
X80689Y-18595D01*
X80689Y-19004D01*
X80691Y-19093D01*
X80697Y-19182D01*
X80707Y-19271D01*
X80720Y-19359D01*
X80737Y-19447D01*
X80759Y-19534D01*
X80784Y-19619D01*
X80812Y-19704D01*
X80845Y-19787D01*
X80881Y-19869D01*
X80920Y-19949D01*
X80963Y-20027D01*
X81009Y-20103D01*
X81059Y-20178D01*
X81112Y-20250D01*
X81168Y-20319D01*
X81227Y-20386D01*
X81288Y-20451D01*
X81353Y-20512D01*
X81420Y-20571D01*
X81489Y-20627D01*
X81561Y-20680D01*
X81636Y-20730D01*
X81712Y-20776D01*
X81790Y-20819D01*
X81870Y-20858D01*
X81952Y-20894D01*
X82035Y-20927D01*
X82120Y-20955D01*
X82205Y-20980D01*
X82292Y-21002D01*
X82380Y-21019D01*
X82468Y-21032D01*
X82557Y-21042D01*
X82646Y-21048D01*
X82735Y-21050D01*
X82824Y-21048D01*
X82913Y-21042D01*
X83002Y-21032D01*
X83090Y-21019D01*
X83178Y-21002D01*
X83265Y-20980D01*
X83350Y-20955D01*
X83435Y-20927D01*
X83518Y-20894D01*
X83600Y-20858D01*
X83680Y-20819D01*
X83758Y-20776D01*
X83834Y-20730D01*
X83909Y-20680D01*
X83981Y-20627D01*
X84050Y-20571D01*
X84117Y-20512D01*
X84182Y-20451D01*
X84243Y-20386D01*
X84302Y-20319D01*
X84358Y-20250D01*
X84411Y-20178D01*
X84461Y-20103D01*
X84507Y-20027D01*
X84550Y-19949D01*
X84589Y-19869D01*
X84625Y-19787D01*
X84658Y-19704D01*
X84686Y-19619D01*
X84711Y-19534D01*
X84733Y-19447D01*
X84750Y-19359D01*
X84763Y-19271D01*
X84773Y-19182D01*
X84779Y-19093D01*
X84781Y-19004D01*
X84781Y-16958D01*
X84779Y-16844D01*
X84773Y-16730D01*
X84763Y-16616D01*
X84749Y-16502D01*
X84731Y-16389D01*
X84709Y-16277D01*
X84684Y-16166D01*
X84654Y-16056D01*
X84621Y-15946D01*
X84584Y-15838D01*
X84543Y-15732D01*
X84498Y-15626D01*
X84450Y-15523D01*
X84398Y-15421D01*
X84342Y-15321D01*
X84284Y-15223D01*
X84221Y-15127D01*
X84156Y-15034D01*
X84087Y-14942D01*
X84015Y-14854D01*
X83940Y-14767D01*
X83862Y-14684D01*
X83781Y-14603D01*
X83698Y-14525D01*
X83612Y-14450D01*
X83523Y-14378D01*
X83431Y-14309D01*
X83338Y-14244D01*
X83242Y-14182D01*
X83144Y-14123D01*
X83044Y-14067D01*
X82942Y-14015D01*
X82839Y-13967D01*
X82734Y-13922D01*
X82627Y-13881D01*
X82519Y-13844D01*
X82409Y-13811D01*
X82299Y-13781D01*
X82188Y-13756D01*
X82076Y-13734D01*
X81963Y-13716D01*
X81849Y-13702D01*
X81735Y-13692D01*
X81621Y-13686D01*
X81507Y-13684D01*
D10*
X41758Y9093D02*
X41758Y29223D01*
D13*
X58611Y19050D02*
X65215Y19050D01*
D12*
X87487Y13684D02*
X89124Y13684D01*
X89202Y13686D01*
X89280Y13691D01*
X89357Y13701D01*
X89434Y13714D01*
X89510Y13730D01*
X89585Y13750D01*
X89659Y13774D01*
X89732Y13801D01*
X89804Y13832D01*
X89874Y13866D01*
X89943Y13903D01*
X90009Y13944D01*
X90074Y13988D01*
X90136Y14034D01*
X90196Y14084D01*
X90254Y14136D01*
X90309Y14191D01*
X90361Y14249D01*
X90411Y14309D01*
X90457Y14371D01*
X90501Y14436D01*
X90542Y14503D01*
X90579Y14571D01*
X90613Y14641D01*
X90644Y14713D01*
X90671Y14786D01*
X90695Y14860D01*
X90715Y14935D01*
X90731Y15011D01*
X90744Y15088D01*
X90754Y15165D01*
X90759Y15243D01*
X90761Y15321D01*
X90761Y19413D01*
X90759Y19491D01*
X90754Y19569D01*
X90744Y19646D01*
X90731Y19723D01*
X90715Y19799D01*
X90695Y19874D01*
X90671Y19948D01*
X90644Y20021D01*
X90613Y20093D01*
X90579Y20163D01*
X90542Y20232D01*
X90501Y20298D01*
X90457Y20363D01*
X90411Y20425D01*
X90361Y20485D01*
X90309Y20543D01*
X90254Y20598D01*
X90196Y20650D01*
X90136Y20700D01*
X90074Y20746D01*
X90009Y20790D01*
X89943Y20831D01*
X89874Y20868D01*
X89804Y20902D01*
X89732Y20933D01*
X89659Y20960D01*
X89585Y20984D01*
X89510Y21004D01*
X89434Y21020D01*
X89357Y21033D01*
X89280Y21043D01*
X89202Y21048D01*
X89124Y21050D01*
X87487Y21050D01*
X84642Y21050D02*
X84642Y20232D01*
X84642Y21050D02*
X80550Y21050D01*
X82596Y13684D01*
D14*
X52134Y32830D02*
X52134Y46546D01*
D12*
X55578Y55553D02*
X48212Y55553D01*
X55578Y55553D02*
X55578Y58827D01*
X52305Y58827D02*
X52305Y55553D01*
X52305Y61995D02*
X52305Y64041D01*
X52304Y64041D02*
X52302Y64130D01*
X52296Y64219D01*
X52286Y64308D01*
X52273Y64396D01*
X52256Y64484D01*
X52234Y64571D01*
X52209Y64656D01*
X52181Y64741D01*
X52148Y64824D01*
X52112Y64906D01*
X52073Y64986D01*
X52030Y65064D01*
X51984Y65140D01*
X51934Y65215D01*
X51881Y65287D01*
X51825Y65356D01*
X51766Y65423D01*
X51705Y65488D01*
X51640Y65549D01*
X51573Y65608D01*
X51504Y65664D01*
X51432Y65717D01*
X51357Y65767D01*
X51281Y65813D01*
X51203Y65856D01*
X51123Y65895D01*
X51041Y65931D01*
X50958Y65964D01*
X50873Y65992D01*
X50788Y66017D01*
X50701Y66039D01*
X50613Y66056D01*
X50525Y66069D01*
X50436Y66079D01*
X50347Y66085D01*
X50258Y66087D01*
X50169Y66085D01*
X50080Y66079D01*
X49991Y66069D01*
X49903Y66056D01*
X49815Y66039D01*
X49728Y66017D01*
X49643Y65992D01*
X49558Y65964D01*
X49475Y65931D01*
X49393Y65895D01*
X49313Y65856D01*
X49235Y65813D01*
X49159Y65767D01*
X49084Y65717D01*
X49012Y65664D01*
X48943Y65608D01*
X48876Y65549D01*
X48811Y65488D01*
X48750Y65423D01*
X48691Y65356D01*
X48635Y65287D01*
X48582Y65215D01*
X48532Y65140D01*
X48486Y65064D01*
X48443Y64986D01*
X48404Y64906D01*
X48368Y64824D01*
X48335Y64741D01*
X48307Y64656D01*
X48282Y64571D01*
X48260Y64484D01*
X48243Y64396D01*
X48230Y64308D01*
X48220Y64219D01*
X48214Y64130D01*
X48212Y64041D01*
X48212Y61995D01*
X55578Y61995D01*
X55578Y64041D01*
X55576Y64120D01*
X55570Y64199D01*
X55561Y64278D01*
X55548Y64356D01*
X55530Y64433D01*
X55510Y64509D01*
X55485Y64584D01*
X55457Y64658D01*
X55426Y64731D01*
X55390Y64802D01*
X55352Y64871D01*
X55310Y64938D01*
X55265Y65003D01*
X55217Y65066D01*
X55166Y65127D01*
X55112Y65184D01*
X55056Y65240D01*
X54997Y65292D01*
X54935Y65342D01*
X54871Y65388D01*
X54805Y65432D01*
X54737Y65472D01*
X54667Y65508D01*
X54595Y65542D01*
X54521Y65572D01*
X54447Y65598D01*
X54371Y65621D01*
X54294Y65639D01*
X54217Y65655D01*
X54138Y65666D01*
X54060Y65674D01*
X53981Y65678D01*
X53901Y65678D01*
X53822Y65674D01*
X53744Y65666D01*
X53665Y65655D01*
X53588Y65639D01*
X53511Y65621D01*
X53435Y65598D01*
X53361Y65572D01*
X53287Y65542D01*
X53215Y65508D01*
X53145Y65472D01*
X53077Y65432D01*
X53011Y65388D01*
X52947Y65342D01*
X52885Y65292D01*
X52826Y65240D01*
X52770Y65184D01*
X52716Y65127D01*
X52665Y65066D01*
X52617Y65003D01*
X52572Y64938D01*
X52530Y64871D01*
X52492Y64802D01*
X52456Y64731D01*
X52425Y64658D01*
X52397Y64584D01*
X52372Y64509D01*
X52352Y64433D01*
X52334Y64356D01*
X52321Y64278D01*
X52312Y64199D01*
X52306Y64120D01*
X52304Y64041D01*
X53941Y68949D02*
X55578Y70995D01*
X48212Y70995D01*
X48212Y68949D02*
X48212Y73041D01*
D13*
X71438Y42736D02*
X71438Y36386D01*
D12*
X69040Y57531D02*
X76406Y57531D01*
X76406Y59577D01*
X76404Y59666D01*
X76398Y59755D01*
X76388Y59844D01*
X76375Y59932D01*
X76358Y60020D01*
X76336Y60107D01*
X76311Y60192D01*
X76283Y60277D01*
X76250Y60360D01*
X76214Y60442D01*
X76175Y60522D01*
X76132Y60600D01*
X76086Y60676D01*
X76036Y60751D01*
X75983Y60823D01*
X75927Y60892D01*
X75868Y60959D01*
X75807Y61024D01*
X75742Y61085D01*
X75675Y61144D01*
X75606Y61200D01*
X75534Y61253D01*
X75459Y61303D01*
X75383Y61349D01*
X75305Y61392D01*
X75225Y61431D01*
X75143Y61467D01*
X75060Y61500D01*
X74975Y61528D01*
X74890Y61553D01*
X74803Y61575D01*
X74715Y61592D01*
X74627Y61605D01*
X74538Y61615D01*
X74449Y61621D01*
X74360Y61623D01*
X74271Y61621D01*
X74182Y61615D01*
X74093Y61605D01*
X74005Y61592D01*
X73917Y61575D01*
X73830Y61553D01*
X73745Y61528D01*
X73660Y61500D01*
X73577Y61467D01*
X73495Y61431D01*
X73415Y61392D01*
X73337Y61349D01*
X73261Y61303D01*
X73186Y61253D01*
X73114Y61200D01*
X73045Y61144D01*
X72978Y61085D01*
X72913Y61024D01*
X72852Y60959D01*
X72793Y60892D01*
X72737Y60823D01*
X72684Y60751D01*
X72634Y60676D01*
X72588Y60600D01*
X72545Y60522D01*
X72506Y60442D01*
X72470Y60360D01*
X72437Y60277D01*
X72409Y60192D01*
X72384Y60107D01*
X72362Y60020D01*
X72345Y59932D01*
X72332Y59844D01*
X72322Y59755D01*
X72316Y59666D01*
X72314Y59577D01*
X72314Y57531D01*
X72314Y59986D02*
X69040Y61623D01*
X74565Y68888D02*
X74650Y68886D01*
X74735Y68880D01*
X74819Y68870D01*
X74903Y68857D01*
X74987Y68839D01*
X75069Y68818D01*
X75150Y68793D01*
X75230Y68764D01*
X75309Y68731D01*
X75386Y68695D01*
X75461Y68655D01*
X75535Y68612D01*
X75606Y68566D01*
X75675Y68516D01*
X75742Y68463D01*
X75806Y68407D01*
X75867Y68348D01*
X75926Y68287D01*
X75982Y68223D01*
X76035Y68156D01*
X76085Y68087D01*
X76131Y68016D01*
X76174Y67942D01*
X76214Y67867D01*
X76250Y67790D01*
X76283Y67711D01*
X76312Y67631D01*
X76337Y67550D01*
X76358Y67468D01*
X76376Y67384D01*
X76389Y67300D01*
X76399Y67216D01*
X76405Y67131D01*
X76407Y67046D01*
X76405Y66950D01*
X76399Y66854D01*
X76389Y66759D01*
X76376Y66664D01*
X76358Y66569D01*
X76337Y66476D01*
X76312Y66383D01*
X76283Y66292D01*
X76251Y66201D01*
X76215Y66112D01*
X76175Y66025D01*
X76132Y65939D01*
X76086Y65855D01*
X76036Y65773D01*
X75982Y65693D01*
X75926Y65616D01*
X75866Y65541D01*
X75804Y65468D01*
X75738Y65398D01*
X75670Y65330D01*
X75599Y65265D01*
X75526Y65204D01*
X75450Y65145D01*
X75371Y65089D01*
X75291Y65037D01*
X75208Y64988D01*
X75124Y64942D01*
X75038Y64900D01*
X74950Y64862D01*
X74861Y64827D01*
X74770Y64795D01*
X73133Y68273D02*
X73192Y68333D01*
X73254Y68390D01*
X73318Y68445D01*
X73385Y68496D01*
X73454Y68545D01*
X73524Y68591D01*
X73597Y68634D01*
X73671Y68674D01*
X73747Y68710D01*
X73825Y68743D01*
X73904Y68773D01*
X73984Y68800D01*
X74065Y68823D01*
X74147Y68842D01*
X74229Y68858D01*
X74313Y68871D01*
X74397Y68880D01*
X74481Y68885D01*
X74565Y68887D01*
X73133Y68273D02*
X69040Y64795D01*
X69040Y68887D01*
D13*
X-41275Y12573D02*
X-41275Y6223D01*
D12*
X-37687Y25966D02*
X-45053Y25966D01*
X-37687Y25966D02*
X-37687Y28012D01*
X-37689Y28101D01*
X-37695Y28190D01*
X-37705Y28279D01*
X-37718Y28367D01*
X-37735Y28455D01*
X-37757Y28542D01*
X-37782Y28627D01*
X-37810Y28712D01*
X-37843Y28795D01*
X-37879Y28877D01*
X-37918Y28957D01*
X-37961Y29035D01*
X-38007Y29111D01*
X-38057Y29186D01*
X-38110Y29258D01*
X-38166Y29327D01*
X-38225Y29394D01*
X-38286Y29459D01*
X-38351Y29520D01*
X-38418Y29579D01*
X-38487Y29635D01*
X-38559Y29688D01*
X-38634Y29738D01*
X-38710Y29784D01*
X-38788Y29827D01*
X-38868Y29866D01*
X-38950Y29902D01*
X-39033Y29935D01*
X-39118Y29963D01*
X-39203Y29988D01*
X-39290Y30010D01*
X-39378Y30027D01*
X-39466Y30040D01*
X-39555Y30050D01*
X-39644Y30056D01*
X-39733Y30058D01*
X-39822Y30056D01*
X-39911Y30050D01*
X-40000Y30040D01*
X-40088Y30027D01*
X-40176Y30010D01*
X-40263Y29988D01*
X-40348Y29963D01*
X-40433Y29935D01*
X-40516Y29902D01*
X-40598Y29866D01*
X-40678Y29827D01*
X-40756Y29784D01*
X-40832Y29738D01*
X-40907Y29688D01*
X-40979Y29635D01*
X-41048Y29579D01*
X-41115Y29520D01*
X-41180Y29459D01*
X-41241Y29394D01*
X-41300Y29327D01*
X-41356Y29258D01*
X-41409Y29186D01*
X-41459Y29111D01*
X-41505Y29035D01*
X-41548Y28957D01*
X-41587Y28877D01*
X-41623Y28795D01*
X-41656Y28712D01*
X-41684Y28627D01*
X-41709Y28542D01*
X-41731Y28455D01*
X-41748Y28367D01*
X-41761Y28279D01*
X-41771Y28190D01*
X-41777Y28101D01*
X-41779Y28012D01*
X-41780Y28012D02*
X-41780Y25966D01*
X-41780Y28421D02*
X-45053Y30058D01*
X-45053Y33230D02*
X-45053Y35276D01*
X-45051Y35365D01*
X-45045Y35454D01*
X-45035Y35543D01*
X-45022Y35631D01*
X-45005Y35719D01*
X-44983Y35806D01*
X-44958Y35891D01*
X-44930Y35976D01*
X-44897Y36059D01*
X-44861Y36141D01*
X-44822Y36221D01*
X-44779Y36299D01*
X-44733Y36375D01*
X-44683Y36450D01*
X-44630Y36522D01*
X-44574Y36591D01*
X-44515Y36658D01*
X-44454Y36723D01*
X-44389Y36784D01*
X-44322Y36843D01*
X-44253Y36899D01*
X-44181Y36952D01*
X-44106Y37002D01*
X-44030Y37048D01*
X-43952Y37091D01*
X-43872Y37130D01*
X-43790Y37166D01*
X-43707Y37199D01*
X-43622Y37227D01*
X-43537Y37252D01*
X-43450Y37274D01*
X-43362Y37291D01*
X-43274Y37304D01*
X-43185Y37314D01*
X-43096Y37320D01*
X-43007Y37322D01*
X-42918Y37320D01*
X-42829Y37314D01*
X-42740Y37304D01*
X-42652Y37291D01*
X-42564Y37274D01*
X-42477Y37252D01*
X-42392Y37227D01*
X-42307Y37199D01*
X-42224Y37166D01*
X-42142Y37130D01*
X-42062Y37091D01*
X-41984Y37048D01*
X-41908Y37002D01*
X-41833Y36952D01*
X-41761Y36899D01*
X-41692Y36843D01*
X-41625Y36784D01*
X-41560Y36723D01*
X-41499Y36658D01*
X-41440Y36591D01*
X-41384Y36522D01*
X-41331Y36450D01*
X-41281Y36375D01*
X-41235Y36299D01*
X-41192Y36221D01*
X-41153Y36141D01*
X-41117Y36059D01*
X-41084Y35976D01*
X-41056Y35891D01*
X-41031Y35806D01*
X-41009Y35719D01*
X-40992Y35631D01*
X-40979Y35543D01*
X-40969Y35454D01*
X-40963Y35365D01*
X-40961Y35276D01*
X-37687Y35685D02*
X-37687Y33230D01*
X-37687Y35685D02*
X-37689Y35764D01*
X-37695Y35843D01*
X-37704Y35922D01*
X-37717Y36000D01*
X-37735Y36077D01*
X-37755Y36153D01*
X-37780Y36228D01*
X-37808Y36302D01*
X-37839Y36375D01*
X-37875Y36446D01*
X-37913Y36515D01*
X-37955Y36582D01*
X-38000Y36647D01*
X-38048Y36710D01*
X-38099Y36771D01*
X-38153Y36828D01*
X-38209Y36884D01*
X-38268Y36936D01*
X-38330Y36986D01*
X-38394Y37032D01*
X-38460Y37076D01*
X-38528Y37116D01*
X-38598Y37152D01*
X-38670Y37186D01*
X-38744Y37216D01*
X-38818Y37242D01*
X-38894Y37265D01*
X-38971Y37283D01*
X-39048Y37299D01*
X-39127Y37310D01*
X-39205Y37318D01*
X-39284Y37322D01*
X-39364Y37322D01*
X-39443Y37318D01*
X-39521Y37310D01*
X-39600Y37299D01*
X-39677Y37283D01*
X-39754Y37265D01*
X-39830Y37242D01*
X-39904Y37216D01*
X-39978Y37186D01*
X-40050Y37152D01*
X-40120Y37116D01*
X-40188Y37076D01*
X-40254Y37032D01*
X-40318Y36986D01*
X-40380Y36936D01*
X-40439Y36884D01*
X-40495Y36828D01*
X-40549Y36771D01*
X-40600Y36710D01*
X-40648Y36647D01*
X-40693Y36582D01*
X-40735Y36515D01*
X-40773Y36446D01*
X-40809Y36375D01*
X-40840Y36302D01*
X-40868Y36228D01*
X-40893Y36153D01*
X-40913Y36077D01*
X-40931Y36000D01*
X-40944Y35922D01*
X-40953Y35843D01*
X-40959Y35764D01*
X-40961Y35685D01*
X-40961Y34048D01*
X50439Y-2264D02*
X50439Y-6243D01*
X48118Y-9228D01*
X50439Y-6243D02*
X52760Y-9228D01*
X50439Y-6243D02*
X46791Y-4917D01*
X50439Y-6243D02*
X54087Y-4917D01*
X59558Y-65675D02*
X64468Y-73041D01*
X59558Y-73041D02*
X64468Y-65675D01*
X56744Y-67312D02*
X54698Y-65675D01*
X54698Y-73041D01*
X56744Y-73041D02*
X52652Y-73041D01*
D15*
X37325Y41125D02*
X19825Y41125D01*
X19825Y54125D02*
X37325Y54125D01*
D12*
X10407Y52032D02*
X10407Y44666D01*
X10407Y52032D02*
X8361Y52032D01*
X8361Y52031D02*
X8272Y52029D01*
X8183Y52023D01*
X8094Y52013D01*
X8006Y52000D01*
X7918Y51983D01*
X7831Y51961D01*
X7746Y51936D01*
X7661Y51908D01*
X7578Y51875D01*
X7496Y51839D01*
X7416Y51800D01*
X7338Y51757D01*
X7262Y51711D01*
X7187Y51661D01*
X7115Y51608D01*
X7046Y51552D01*
X6979Y51493D01*
X6914Y51432D01*
X6853Y51367D01*
X6794Y51300D01*
X6738Y51231D01*
X6685Y51159D01*
X6635Y51084D01*
X6589Y51008D01*
X6546Y50930D01*
X6507Y50850D01*
X6471Y50768D01*
X6438Y50685D01*
X6410Y50600D01*
X6385Y50515D01*
X6363Y50428D01*
X6346Y50340D01*
X6333Y50252D01*
X6323Y50163D01*
X6317Y50074D01*
X6315Y49985D01*
X6315Y46712D01*
X6317Y46623D01*
X6323Y46534D01*
X6333Y46445D01*
X6346Y46357D01*
X6363Y46269D01*
X6385Y46182D01*
X6410Y46097D01*
X6438Y46012D01*
X6471Y45929D01*
X6507Y45847D01*
X6546Y45767D01*
X6589Y45689D01*
X6635Y45613D01*
X6685Y45538D01*
X6738Y45466D01*
X6794Y45397D01*
X6853Y45330D01*
X6914Y45265D01*
X6979Y45204D01*
X7046Y45145D01*
X7115Y45089D01*
X7187Y45036D01*
X7262Y44986D01*
X7338Y44940D01*
X7416Y44897D01*
X7496Y44858D01*
X7578Y44822D01*
X7661Y44789D01*
X7746Y44761D01*
X7831Y44736D01*
X7918Y44714D01*
X8006Y44697D01*
X8094Y44684D01*
X8183Y44674D01*
X8272Y44668D01*
X8361Y44666D01*
X10407Y44666D01*
X598Y52032D02*
X513Y52030D01*
X428Y52024D01*
X344Y52014D01*
X260Y52001D01*
X176Y51983D01*
X94Y51962D01*
X13Y51937D01*
X-67Y51908D01*
X-146Y51875D01*
X-223Y51839D01*
X-298Y51799D01*
X-372Y51756D01*
X-443Y51710D01*
X-512Y51660D01*
X-579Y51607D01*
X-643Y51551D01*
X-704Y51492D01*
X-763Y51431D01*
X-819Y51367D01*
X-872Y51300D01*
X-922Y51231D01*
X-968Y51160D01*
X-1011Y51086D01*
X-1051Y51011D01*
X-1087Y50934D01*
X-1120Y50855D01*
X-1149Y50775D01*
X-1174Y50694D01*
X-1195Y50612D01*
X-1213Y50528D01*
X-1226Y50444D01*
X-1236Y50360D01*
X-1242Y50275D01*
X-1244Y50190D01*
X598Y52032D02*
X694Y52030D01*
X790Y52024D01*
X885Y52014D01*
X980Y52001D01*
X1075Y51983D01*
X1168Y51962D01*
X1261Y51937D01*
X1352Y51908D01*
X1443Y51876D01*
X1532Y51840D01*
X1619Y51800D01*
X1705Y51757D01*
X1789Y51711D01*
X1871Y51661D01*
X1951Y51607D01*
X2028Y51551D01*
X2103Y51491D01*
X2176Y51429D01*
X2246Y51363D01*
X2314Y51295D01*
X2379Y51224D01*
X2440Y51151D01*
X2499Y51075D01*
X2555Y50996D01*
X2607Y50916D01*
X2656Y50833D01*
X2702Y50749D01*
X2744Y50663D01*
X2782Y50575D01*
X2817Y50486D01*
X2849Y50395D01*
X-630Y48758D02*
X-690Y48817D01*
X-747Y48879D01*
X-802Y48943D01*
X-853Y49010D01*
X-902Y49079D01*
X-948Y49149D01*
X-991Y49222D01*
X-1031Y49296D01*
X-1067Y49372D01*
X-1100Y49450D01*
X-1130Y49529D01*
X-1157Y49609D01*
X-1180Y49690D01*
X-1199Y49772D01*
X-1215Y49854D01*
X-1228Y49938D01*
X-1237Y50022D01*
X-1242Y50106D01*
X-1244Y50190D01*
X-630Y48758D02*
X2848Y44666D01*
X-1244Y44666D01*
M02*
