G04 EAGLE Gerber RS-274X export*
G75*
%MOMM*%
%FSLAX34Y34*%
%LPD*%
%INSilkscreen Bottom*%
%IPPOS*%
%AMOC8*
5,1,8,0,0,1.08239X$1,22.5*%
G01*
%ADD10C,0.152400*%
%ADD11C,0.101600*%
%ADD12C,0.076200*%
%ADD13C,0.254000*%
%ADD14C,0.406400*%
%ADD15C,0.150000*%

G36*
X-35368Y-39456D02*
X-35368Y-39456D01*
X-35365Y-39457D01*
X-35322Y-39437D01*
X-35279Y-39419D01*
X-35278Y-39417D01*
X-35276Y-39416D01*
X-35243Y-39331D01*
X-35243Y-35521D01*
X-35244Y-35519D01*
X-35243Y-35517D01*
X-35263Y-35474D01*
X-35282Y-35430D01*
X-35284Y-35430D01*
X-35285Y-35428D01*
X-35370Y-35395D01*
X-37910Y-35395D01*
X-37912Y-35396D01*
X-37914Y-35395D01*
X-37957Y-35415D01*
X-38000Y-35433D01*
X-38001Y-35435D01*
X-38003Y-35436D01*
X-38036Y-35521D01*
X-38036Y-39331D01*
X-38035Y-39333D01*
X-38036Y-39335D01*
X-38016Y-39378D01*
X-37997Y-39422D01*
X-37995Y-39422D01*
X-37994Y-39424D01*
X-37910Y-39457D01*
X-35370Y-39457D01*
X-35368Y-39456D01*
G37*
G36*
X47437Y-54459D02*
X47437Y-54459D01*
X47439Y-54460D01*
X47482Y-54440D01*
X47525Y-54422D01*
X47526Y-54420D01*
X47528Y-54419D01*
X47561Y-54334D01*
X47561Y-50524D01*
X47560Y-50522D01*
X47561Y-50520D01*
X47541Y-50477D01*
X47522Y-50433D01*
X47520Y-50433D01*
X47519Y-50431D01*
X47435Y-50398D01*
X44895Y-50398D01*
X44893Y-50399D01*
X44890Y-50398D01*
X44847Y-50418D01*
X44804Y-50436D01*
X44803Y-50438D01*
X44801Y-50439D01*
X44768Y-50524D01*
X44768Y-54334D01*
X44769Y-54336D01*
X44768Y-54338D01*
X44788Y-54381D01*
X44807Y-54425D01*
X44809Y-54425D01*
X44810Y-54427D01*
X44895Y-54460D01*
X47435Y-54460D01*
X47437Y-54459D01*
G37*
G36*
X-833Y-77722D02*
X-833Y-77722D01*
X-830Y-77723D01*
X-787Y-77703D01*
X-744Y-77685D01*
X-743Y-77683D01*
X-741Y-77682D01*
X-708Y-77597D01*
X-708Y-75057D01*
X-709Y-75055D01*
X-708Y-75053D01*
X-728Y-75010D01*
X-747Y-74966D01*
X-749Y-74966D01*
X-750Y-74964D01*
X-835Y-74931D01*
X-4645Y-74931D01*
X-4647Y-74932D01*
X-4649Y-74931D01*
X-4692Y-74951D01*
X-4735Y-74969D01*
X-4736Y-74971D01*
X-4738Y-74972D01*
X-4771Y-75057D01*
X-4771Y-77597D01*
X-4770Y-77599D01*
X-4771Y-77601D01*
X-4751Y-77644D01*
X-4732Y-77688D01*
X-4730Y-77688D01*
X-4729Y-77690D01*
X-4645Y-77723D01*
X-835Y-77723D01*
X-833Y-77722D01*
G37*
D10*
X38926Y46800D02*
X38926Y63056D01*
X38926Y55831D02*
X29894Y55831D01*
X29894Y63056D02*
X29894Y46800D01*
X22773Y54928D02*
X22769Y55248D01*
X22758Y55567D01*
X22739Y55887D01*
X22712Y56205D01*
X22678Y56523D01*
X22636Y56840D01*
X22586Y57156D01*
X22529Y57471D01*
X22465Y57784D01*
X22393Y58096D01*
X22314Y58406D01*
X22227Y58713D01*
X22133Y59019D01*
X22032Y59322D01*
X21923Y59623D01*
X21808Y59921D01*
X21685Y60217D01*
X21555Y60509D01*
X21418Y60798D01*
X21419Y60798D02*
X21380Y60906D01*
X21337Y61013D01*
X21291Y61118D01*
X21240Y61222D01*
X21187Y61324D01*
X21130Y61424D01*
X21069Y61522D01*
X21005Y61617D01*
X20938Y61711D01*
X20867Y61802D01*
X20794Y61891D01*
X20717Y61977D01*
X20638Y62060D01*
X20556Y62141D01*
X20471Y62219D01*
X20383Y62293D01*
X20293Y62365D01*
X20201Y62433D01*
X20106Y62499D01*
X20009Y62561D01*
X19910Y62619D01*
X19808Y62675D01*
X19706Y62726D01*
X19601Y62774D01*
X19495Y62819D01*
X19387Y62860D01*
X19278Y62897D01*
X19168Y62930D01*
X19056Y62959D01*
X18944Y62985D01*
X18831Y63007D01*
X18717Y63024D01*
X18603Y63038D01*
X18488Y63048D01*
X18373Y63054D01*
X18258Y63056D01*
X18143Y63054D01*
X18028Y63048D01*
X17913Y63038D01*
X17799Y63024D01*
X17685Y63007D01*
X17572Y62985D01*
X17460Y62959D01*
X17348Y62930D01*
X17238Y62897D01*
X17129Y62860D01*
X17021Y62819D01*
X16915Y62774D01*
X16811Y62726D01*
X16708Y62675D01*
X16607Y62619D01*
X16507Y62561D01*
X16410Y62499D01*
X16316Y62434D01*
X16223Y62365D01*
X16133Y62293D01*
X16045Y62219D01*
X15960Y62141D01*
X15878Y62060D01*
X15799Y61977D01*
X15722Y61891D01*
X15649Y61802D01*
X15578Y61711D01*
X15511Y61617D01*
X15447Y61522D01*
X15386Y61424D01*
X15329Y61324D01*
X15276Y61222D01*
X15225Y61118D01*
X15179Y61013D01*
X15136Y60906D01*
X15097Y60798D01*
X14960Y60509D01*
X14830Y60217D01*
X14707Y59921D01*
X14592Y59623D01*
X14483Y59322D01*
X14382Y59019D01*
X14288Y58713D01*
X14201Y58406D01*
X14122Y58096D01*
X14050Y57784D01*
X13986Y57471D01*
X13929Y57156D01*
X13879Y56840D01*
X13837Y56523D01*
X13803Y56205D01*
X13776Y55887D01*
X13757Y55567D01*
X13746Y55248D01*
X13742Y54928D01*
X22773Y54928D02*
X22769Y54608D01*
X22758Y54289D01*
X22739Y53969D01*
X22712Y53651D01*
X22678Y53333D01*
X22636Y53016D01*
X22586Y52700D01*
X22529Y52385D01*
X22465Y52072D01*
X22393Y51760D01*
X22314Y51450D01*
X22227Y51143D01*
X22133Y50837D01*
X22032Y50534D01*
X21923Y50233D01*
X21808Y49935D01*
X21685Y49639D01*
X21555Y49347D01*
X21418Y49058D01*
X21419Y49057D02*
X21380Y48949D01*
X21337Y48842D01*
X21291Y48737D01*
X21240Y48633D01*
X21187Y48531D01*
X21130Y48431D01*
X21069Y48333D01*
X21005Y48238D01*
X20938Y48144D01*
X20867Y48053D01*
X20794Y47964D01*
X20717Y47878D01*
X20638Y47795D01*
X20556Y47714D01*
X20471Y47636D01*
X20383Y47562D01*
X20293Y47490D01*
X20200Y47421D01*
X20106Y47356D01*
X20009Y47294D01*
X19909Y47236D01*
X19808Y47180D01*
X19706Y47129D01*
X19601Y47081D01*
X19495Y47036D01*
X19387Y46995D01*
X19278Y46958D01*
X19168Y46925D01*
X19056Y46896D01*
X18944Y46870D01*
X18831Y46848D01*
X18717Y46831D01*
X18603Y46817D01*
X18488Y46807D01*
X18373Y46801D01*
X18258Y46799D01*
X15097Y49058D02*
X14960Y49347D01*
X14830Y49639D01*
X14707Y49935D01*
X14592Y50233D01*
X14483Y50534D01*
X14382Y50837D01*
X14288Y51143D01*
X14201Y51450D01*
X14122Y51760D01*
X14050Y52072D01*
X13986Y52385D01*
X13929Y52700D01*
X13879Y53016D01*
X13837Y53333D01*
X13803Y53651D01*
X13776Y53969D01*
X13757Y54289D01*
X13746Y54608D01*
X13742Y54928D01*
X15097Y49057D02*
X15136Y48949D01*
X15179Y48842D01*
X15225Y48737D01*
X15276Y48633D01*
X15329Y48531D01*
X15387Y48431D01*
X15447Y48333D01*
X15511Y48238D01*
X15578Y48144D01*
X15649Y48053D01*
X15722Y47964D01*
X15799Y47878D01*
X15878Y47795D01*
X15960Y47714D01*
X16045Y47636D01*
X16133Y47562D01*
X16223Y47490D01*
X16316Y47421D01*
X16410Y47356D01*
X16507Y47294D01*
X16607Y47236D01*
X16708Y47180D01*
X16811Y47129D01*
X16915Y47081D01*
X17021Y47036D01*
X17129Y46995D01*
X17238Y46958D01*
X17348Y46925D01*
X17460Y46896D01*
X17572Y46870D01*
X17685Y46848D01*
X17799Y46831D01*
X17913Y46817D01*
X18028Y46807D01*
X18143Y46801D01*
X18258Y46799D01*
X21870Y50412D02*
X14645Y59443D01*
X7142Y51315D02*
X7140Y51448D01*
X7134Y51580D01*
X7124Y51712D01*
X7111Y51844D01*
X7093Y51976D01*
X7072Y52106D01*
X7047Y52237D01*
X7018Y52366D01*
X6985Y52494D01*
X6949Y52622D01*
X6909Y52748D01*
X6865Y52873D01*
X6817Y52997D01*
X6766Y53119D01*
X6711Y53240D01*
X6653Y53359D01*
X6591Y53477D01*
X6526Y53592D01*
X6457Y53706D01*
X6386Y53817D01*
X6310Y53926D01*
X6232Y54033D01*
X6151Y54138D01*
X6066Y54240D01*
X5979Y54340D01*
X5889Y54437D01*
X5796Y54532D01*
X5700Y54623D01*
X5602Y54712D01*
X5501Y54798D01*
X5397Y54881D01*
X5291Y54961D01*
X5183Y55037D01*
X5073Y55111D01*
X4960Y55181D01*
X4846Y55248D01*
X4729Y55311D01*
X4611Y55371D01*
X4491Y55428D01*
X4369Y55481D01*
X4246Y55530D01*
X4122Y55576D01*
X3996Y55618D01*
X3869Y55656D01*
X3741Y55691D01*
X3612Y55722D01*
X3483Y55749D01*
X3352Y55772D01*
X3221Y55792D01*
X3089Y55807D01*
X2957Y55819D01*
X2825Y55827D01*
X2692Y55831D01*
X2560Y55831D01*
X2427Y55827D01*
X2295Y55819D01*
X2163Y55807D01*
X2031Y55792D01*
X1900Y55772D01*
X1769Y55749D01*
X1640Y55722D01*
X1511Y55691D01*
X1383Y55656D01*
X1256Y55618D01*
X1130Y55576D01*
X1006Y55530D01*
X883Y55481D01*
X761Y55428D01*
X641Y55371D01*
X523Y55311D01*
X406Y55248D01*
X292Y55181D01*
X179Y55111D01*
X69Y55037D01*
X-39Y54961D01*
X-145Y54881D01*
X-249Y54798D01*
X-350Y54712D01*
X-448Y54623D01*
X-544Y54532D01*
X-637Y54437D01*
X-727Y54340D01*
X-814Y54240D01*
X-899Y54138D01*
X-980Y54033D01*
X-1058Y53926D01*
X-1134Y53817D01*
X-1205Y53706D01*
X-1274Y53592D01*
X-1339Y53477D01*
X-1401Y53359D01*
X-1459Y53240D01*
X-1514Y53119D01*
X-1565Y52997D01*
X-1613Y52873D01*
X-1657Y52748D01*
X-1697Y52622D01*
X-1733Y52494D01*
X-1766Y52366D01*
X-1795Y52237D01*
X-1820Y52106D01*
X-1841Y51976D01*
X-1859Y51844D01*
X-1872Y51712D01*
X-1882Y51580D01*
X-1888Y51448D01*
X-1890Y51315D01*
X-1888Y51182D01*
X-1882Y51050D01*
X-1872Y50918D01*
X-1859Y50786D01*
X-1841Y50654D01*
X-1820Y50524D01*
X-1795Y50393D01*
X-1766Y50264D01*
X-1733Y50136D01*
X-1697Y50008D01*
X-1657Y49882D01*
X-1613Y49757D01*
X-1565Y49633D01*
X-1514Y49511D01*
X-1459Y49390D01*
X-1401Y49271D01*
X-1339Y49153D01*
X-1274Y49038D01*
X-1205Y48924D01*
X-1134Y48813D01*
X-1058Y48704D01*
X-980Y48597D01*
X-899Y48492D01*
X-814Y48390D01*
X-727Y48290D01*
X-637Y48193D01*
X-544Y48098D01*
X-448Y48007D01*
X-350Y47918D01*
X-249Y47832D01*
X-145Y47749D01*
X-39Y47669D01*
X69Y47593D01*
X179Y47519D01*
X292Y47449D01*
X406Y47382D01*
X523Y47319D01*
X641Y47259D01*
X761Y47202D01*
X883Y47149D01*
X1006Y47100D01*
X1130Y47054D01*
X1256Y47012D01*
X1383Y46974D01*
X1511Y46939D01*
X1640Y46908D01*
X1769Y46881D01*
X1900Y46858D01*
X2031Y46838D01*
X2163Y46823D01*
X2295Y46811D01*
X2427Y46803D01*
X2560Y46799D01*
X2692Y46799D01*
X2825Y46803D01*
X2957Y46811D01*
X3089Y46823D01*
X3221Y46838D01*
X3352Y46858D01*
X3483Y46881D01*
X3612Y46908D01*
X3741Y46939D01*
X3869Y46974D01*
X3996Y47012D01*
X4122Y47054D01*
X4246Y47100D01*
X4369Y47149D01*
X4491Y47202D01*
X4611Y47259D01*
X4729Y47319D01*
X4846Y47382D01*
X4960Y47449D01*
X5073Y47519D01*
X5183Y47593D01*
X5291Y47669D01*
X5397Y47749D01*
X5501Y47832D01*
X5602Y47918D01*
X5700Y48007D01*
X5796Y48098D01*
X5889Y48193D01*
X5979Y48290D01*
X6066Y48390D01*
X6151Y48492D01*
X6232Y48597D01*
X6310Y48704D01*
X6386Y48813D01*
X6457Y48924D01*
X6526Y49038D01*
X6591Y49153D01*
X6653Y49271D01*
X6711Y49390D01*
X6766Y49511D01*
X6817Y49633D01*
X6865Y49757D01*
X6909Y49882D01*
X6949Y50008D01*
X6985Y50136D01*
X7018Y50264D01*
X7047Y50393D01*
X7072Y50524D01*
X7093Y50654D01*
X7111Y50786D01*
X7124Y50918D01*
X7134Y51050D01*
X7140Y51182D01*
X7142Y51315D01*
X6238Y59443D02*
X6236Y59562D01*
X6230Y59682D01*
X6220Y59801D01*
X6206Y59919D01*
X6189Y60038D01*
X6167Y60155D01*
X6142Y60272D01*
X6112Y60387D01*
X6079Y60502D01*
X6042Y60616D01*
X6002Y60728D01*
X5957Y60839D01*
X5909Y60948D01*
X5858Y61056D01*
X5803Y61162D01*
X5744Y61266D01*
X5682Y61368D01*
X5617Y61468D01*
X5548Y61566D01*
X5476Y61662D01*
X5401Y61755D01*
X5324Y61845D01*
X5243Y61933D01*
X5159Y62018D01*
X5072Y62100D01*
X4983Y62180D01*
X4891Y62256D01*
X4797Y62330D01*
X4700Y62400D01*
X4602Y62467D01*
X4501Y62531D01*
X4397Y62591D01*
X4292Y62648D01*
X4185Y62701D01*
X4077Y62751D01*
X3967Y62797D01*
X3855Y62839D01*
X3742Y62878D01*
X3628Y62913D01*
X3513Y62944D01*
X3396Y62972D01*
X3279Y62995D01*
X3162Y63015D01*
X3043Y63031D01*
X2924Y63043D01*
X2805Y63051D01*
X2686Y63055D01*
X2566Y63055D01*
X2447Y63051D01*
X2328Y63043D01*
X2209Y63031D01*
X2090Y63015D01*
X1973Y62995D01*
X1856Y62972D01*
X1739Y62944D01*
X1624Y62913D01*
X1510Y62878D01*
X1397Y62839D01*
X1285Y62797D01*
X1175Y62751D01*
X1067Y62701D01*
X960Y62648D01*
X855Y62591D01*
X751Y62531D01*
X650Y62467D01*
X552Y62400D01*
X455Y62330D01*
X361Y62256D01*
X269Y62180D01*
X180Y62100D01*
X93Y62018D01*
X9Y61933D01*
X-72Y61845D01*
X-149Y61755D01*
X-224Y61662D01*
X-296Y61566D01*
X-365Y61468D01*
X-430Y61368D01*
X-492Y61266D01*
X-551Y61162D01*
X-606Y61056D01*
X-657Y60948D01*
X-705Y60839D01*
X-750Y60728D01*
X-790Y60616D01*
X-827Y60502D01*
X-860Y60387D01*
X-890Y60272D01*
X-915Y60155D01*
X-937Y60038D01*
X-954Y59919D01*
X-968Y59801D01*
X-978Y59682D01*
X-984Y59562D01*
X-986Y59443D01*
X-984Y59324D01*
X-978Y59204D01*
X-968Y59085D01*
X-954Y58967D01*
X-937Y58848D01*
X-915Y58731D01*
X-890Y58614D01*
X-860Y58499D01*
X-827Y58384D01*
X-790Y58270D01*
X-750Y58158D01*
X-705Y58047D01*
X-657Y57938D01*
X-606Y57830D01*
X-551Y57724D01*
X-492Y57620D01*
X-430Y57518D01*
X-365Y57418D01*
X-296Y57320D01*
X-224Y57224D01*
X-149Y57131D01*
X-72Y57041D01*
X9Y56953D01*
X93Y56868D01*
X180Y56786D01*
X269Y56706D01*
X361Y56630D01*
X455Y56556D01*
X552Y56486D01*
X650Y56419D01*
X751Y56355D01*
X855Y56295D01*
X960Y56238D01*
X1067Y56185D01*
X1175Y56135D01*
X1285Y56089D01*
X1397Y56047D01*
X1510Y56008D01*
X1624Y55973D01*
X1739Y55942D01*
X1856Y55914D01*
X1973Y55891D01*
X2090Y55871D01*
X2209Y55855D01*
X2328Y55843D01*
X2447Y55835D01*
X2566Y55831D01*
X2686Y55831D01*
X2805Y55835D01*
X2924Y55843D01*
X3043Y55855D01*
X3162Y55871D01*
X3279Y55891D01*
X3396Y55914D01*
X3513Y55942D01*
X3628Y55973D01*
X3742Y56008D01*
X3855Y56047D01*
X3967Y56089D01*
X4077Y56135D01*
X4185Y56185D01*
X4292Y56238D01*
X4397Y56295D01*
X4501Y56355D01*
X4602Y56419D01*
X4700Y56486D01*
X4797Y56556D01*
X4891Y56630D01*
X4983Y56706D01*
X5072Y56786D01*
X5159Y56868D01*
X5243Y56953D01*
X5324Y57041D01*
X5401Y57131D01*
X5476Y57224D01*
X5548Y57320D01*
X5617Y57418D01*
X5682Y57518D01*
X5744Y57620D01*
X5803Y57724D01*
X5858Y57830D01*
X5909Y57938D01*
X5957Y58047D01*
X6002Y58158D01*
X6042Y58270D01*
X6079Y58384D01*
X6112Y58499D01*
X6142Y58614D01*
X6167Y58731D01*
X6189Y58848D01*
X6206Y58967D01*
X6220Y59085D01*
X6230Y59204D01*
X6236Y59324D01*
X6238Y59443D01*
X-9102Y63056D02*
X-9102Y46800D01*
X-9102Y63056D02*
X-13617Y63056D01*
X-13750Y63054D01*
X-13882Y63048D01*
X-14014Y63038D01*
X-14146Y63025D01*
X-14278Y63007D01*
X-14408Y62986D01*
X-14539Y62961D01*
X-14668Y62932D01*
X-14796Y62899D01*
X-14924Y62863D01*
X-15050Y62823D01*
X-15175Y62779D01*
X-15299Y62731D01*
X-15421Y62680D01*
X-15542Y62625D01*
X-15661Y62567D01*
X-15779Y62505D01*
X-15894Y62440D01*
X-16008Y62371D01*
X-16119Y62300D01*
X-16228Y62224D01*
X-16335Y62146D01*
X-16440Y62065D01*
X-16542Y61980D01*
X-16642Y61893D01*
X-16739Y61803D01*
X-16834Y61710D01*
X-16925Y61614D01*
X-17014Y61516D01*
X-17100Y61415D01*
X-17183Y61311D01*
X-17263Y61205D01*
X-17339Y61097D01*
X-17413Y60987D01*
X-17483Y60874D01*
X-17550Y60760D01*
X-17613Y60643D01*
X-17673Y60525D01*
X-17730Y60405D01*
X-17783Y60283D01*
X-17832Y60160D01*
X-17878Y60036D01*
X-17920Y59910D01*
X-17958Y59783D01*
X-17993Y59655D01*
X-18024Y59526D01*
X-18051Y59397D01*
X-18074Y59266D01*
X-18094Y59135D01*
X-18109Y59003D01*
X-18121Y58871D01*
X-18129Y58739D01*
X-18133Y58606D01*
X-18133Y58474D01*
X-18129Y58341D01*
X-18121Y58209D01*
X-18109Y58077D01*
X-18094Y57945D01*
X-18074Y57814D01*
X-18051Y57683D01*
X-18024Y57554D01*
X-17993Y57425D01*
X-17958Y57297D01*
X-17920Y57170D01*
X-17878Y57044D01*
X-17832Y56920D01*
X-17783Y56797D01*
X-17730Y56675D01*
X-17673Y56555D01*
X-17613Y56437D01*
X-17550Y56320D01*
X-17483Y56206D01*
X-17413Y56093D01*
X-17339Y55983D01*
X-17263Y55875D01*
X-17183Y55769D01*
X-17100Y55665D01*
X-17014Y55564D01*
X-16925Y55466D01*
X-16834Y55370D01*
X-16739Y55277D01*
X-16642Y55187D01*
X-16542Y55100D01*
X-16440Y55015D01*
X-16335Y54934D01*
X-16228Y54856D01*
X-16119Y54780D01*
X-16008Y54709D01*
X-15894Y54640D01*
X-15779Y54575D01*
X-15661Y54513D01*
X-15542Y54455D01*
X-15421Y54400D01*
X-15299Y54349D01*
X-15175Y54301D01*
X-15050Y54257D01*
X-14924Y54217D01*
X-14796Y54181D01*
X-14668Y54148D01*
X-14539Y54119D01*
X-14408Y54094D01*
X-14278Y54073D01*
X-14146Y54055D01*
X-14014Y54042D01*
X-13882Y54032D01*
X-13750Y54026D01*
X-13617Y54024D01*
X-9102Y54024D01*
X-14521Y54024D02*
X-18133Y46800D01*
X-24642Y61249D02*
X-24642Y63056D01*
X-33673Y63056D01*
X-29157Y46800D01*
X-40273Y54928D02*
X-40277Y55248D01*
X-40288Y55567D01*
X-40307Y55887D01*
X-40334Y56205D01*
X-40368Y56523D01*
X-40410Y56840D01*
X-40460Y57156D01*
X-40517Y57471D01*
X-40581Y57784D01*
X-40653Y58096D01*
X-40732Y58406D01*
X-40819Y58713D01*
X-40913Y59019D01*
X-41014Y59322D01*
X-41123Y59623D01*
X-41238Y59921D01*
X-41361Y60217D01*
X-41491Y60509D01*
X-41628Y60798D01*
X-41627Y60798D02*
X-41666Y60906D01*
X-41709Y61013D01*
X-41755Y61118D01*
X-41806Y61222D01*
X-41859Y61324D01*
X-41916Y61424D01*
X-41977Y61522D01*
X-42041Y61617D01*
X-42108Y61711D01*
X-42179Y61802D01*
X-42252Y61891D01*
X-42329Y61977D01*
X-42408Y62060D01*
X-42490Y62141D01*
X-42575Y62219D01*
X-42663Y62293D01*
X-42753Y62365D01*
X-42845Y62433D01*
X-42940Y62499D01*
X-43037Y62561D01*
X-43136Y62619D01*
X-43238Y62675D01*
X-43340Y62726D01*
X-43445Y62774D01*
X-43551Y62819D01*
X-43659Y62860D01*
X-43768Y62897D01*
X-43878Y62930D01*
X-43990Y62959D01*
X-44102Y62985D01*
X-44215Y63007D01*
X-44329Y63024D01*
X-44443Y63038D01*
X-44558Y63048D01*
X-44673Y63054D01*
X-44788Y63056D01*
X-44903Y63054D01*
X-45018Y63048D01*
X-45133Y63038D01*
X-45247Y63024D01*
X-45361Y63007D01*
X-45474Y62985D01*
X-45586Y62959D01*
X-45698Y62930D01*
X-45808Y62897D01*
X-45917Y62860D01*
X-46025Y62819D01*
X-46131Y62774D01*
X-46236Y62726D01*
X-46338Y62675D01*
X-46439Y62619D01*
X-46539Y62561D01*
X-46636Y62499D01*
X-46730Y62434D01*
X-46823Y62365D01*
X-46913Y62293D01*
X-47001Y62219D01*
X-47086Y62141D01*
X-47168Y62060D01*
X-47247Y61977D01*
X-47324Y61891D01*
X-47397Y61802D01*
X-47468Y61711D01*
X-47535Y61617D01*
X-47599Y61522D01*
X-47660Y61424D01*
X-47717Y61324D01*
X-47770Y61222D01*
X-47821Y61118D01*
X-47867Y61013D01*
X-47910Y60906D01*
X-47949Y60798D01*
X-48086Y60509D01*
X-48216Y60217D01*
X-48339Y59921D01*
X-48454Y59623D01*
X-48563Y59322D01*
X-48664Y59019D01*
X-48758Y58713D01*
X-48845Y58406D01*
X-48924Y58096D01*
X-48996Y57784D01*
X-49060Y57471D01*
X-49117Y57156D01*
X-49167Y56840D01*
X-49209Y56523D01*
X-49243Y56205D01*
X-49270Y55887D01*
X-49289Y55567D01*
X-49300Y55248D01*
X-49304Y54928D01*
X-40273Y54928D02*
X-40277Y54608D01*
X-40288Y54289D01*
X-40307Y53969D01*
X-40334Y53651D01*
X-40368Y53333D01*
X-40410Y53016D01*
X-40460Y52700D01*
X-40517Y52385D01*
X-40581Y52072D01*
X-40653Y51760D01*
X-40732Y51450D01*
X-40819Y51143D01*
X-40913Y50837D01*
X-41014Y50534D01*
X-41123Y50233D01*
X-41238Y49935D01*
X-41361Y49639D01*
X-41491Y49347D01*
X-41628Y49058D01*
X-41627Y49057D02*
X-41666Y48949D01*
X-41709Y48842D01*
X-41755Y48737D01*
X-41806Y48633D01*
X-41859Y48531D01*
X-41916Y48431D01*
X-41977Y48333D01*
X-42041Y48238D01*
X-42108Y48144D01*
X-42179Y48053D01*
X-42252Y47964D01*
X-42329Y47878D01*
X-42408Y47795D01*
X-42490Y47714D01*
X-42575Y47636D01*
X-42663Y47562D01*
X-42753Y47490D01*
X-42846Y47421D01*
X-42940Y47356D01*
X-43037Y47294D01*
X-43137Y47236D01*
X-43238Y47180D01*
X-43340Y47129D01*
X-43445Y47081D01*
X-43551Y47036D01*
X-43659Y46995D01*
X-43768Y46958D01*
X-43878Y46925D01*
X-43990Y46896D01*
X-44102Y46870D01*
X-44215Y46848D01*
X-44329Y46831D01*
X-44443Y46817D01*
X-44558Y46807D01*
X-44673Y46801D01*
X-44788Y46799D01*
X-47948Y49058D02*
X-48085Y49347D01*
X-48215Y49639D01*
X-48338Y49935D01*
X-48453Y50233D01*
X-48562Y50534D01*
X-48663Y50837D01*
X-48757Y51143D01*
X-48844Y51450D01*
X-48923Y51760D01*
X-48995Y52072D01*
X-49059Y52385D01*
X-49116Y52700D01*
X-49166Y53016D01*
X-49208Y53333D01*
X-49242Y53651D01*
X-49269Y53969D01*
X-49288Y54289D01*
X-49299Y54608D01*
X-49303Y54928D01*
X-47949Y49057D02*
X-47910Y48949D01*
X-47867Y48842D01*
X-47821Y48737D01*
X-47770Y48633D01*
X-47717Y48531D01*
X-47660Y48431D01*
X-47599Y48333D01*
X-47535Y48238D01*
X-47468Y48144D01*
X-47397Y48053D01*
X-47324Y47964D01*
X-47247Y47878D01*
X-47168Y47795D01*
X-47086Y47714D01*
X-47001Y47636D01*
X-46913Y47562D01*
X-46823Y47490D01*
X-46730Y47421D01*
X-46636Y47356D01*
X-46539Y47294D01*
X-46439Y47236D01*
X-46338Y47180D01*
X-46235Y47129D01*
X-46131Y47081D01*
X-46025Y47036D01*
X-45917Y46995D01*
X-45808Y46958D01*
X-45698Y46925D01*
X-45586Y46896D01*
X-45474Y46870D01*
X-45361Y46848D01*
X-45247Y46831D01*
X-45133Y46817D01*
X-45018Y46807D01*
X-44903Y46801D01*
X-44788Y46799D01*
X-41176Y50412D02*
X-48401Y59443D01*
D11*
X-63737Y-101437D02*
X-62142Y-102554D01*
X-63737Y-101437D02*
X-67460Y-106754D01*
X-64270Y-108988D01*
X-64269Y-108988D02*
X-64186Y-109043D01*
X-64102Y-109095D01*
X-64015Y-109144D01*
X-63927Y-109190D01*
X-63837Y-109232D01*
X-63745Y-109271D01*
X-63652Y-109306D01*
X-63558Y-109338D01*
X-63463Y-109366D01*
X-63366Y-109390D01*
X-63269Y-109411D01*
X-63171Y-109427D01*
X-63072Y-109440D01*
X-62973Y-109450D01*
X-62874Y-109455D01*
X-62774Y-109457D01*
X-62675Y-109455D01*
X-62576Y-109449D01*
X-62477Y-109439D01*
X-62378Y-109426D01*
X-62280Y-109408D01*
X-62183Y-109387D01*
X-62087Y-109363D01*
X-61991Y-109334D01*
X-61897Y-109302D01*
X-61804Y-109267D01*
X-61713Y-109228D01*
X-61623Y-109185D01*
X-61535Y-109139D01*
X-61449Y-109090D01*
X-61364Y-109037D01*
X-61282Y-108981D01*
X-61202Y-108922D01*
X-61124Y-108860D01*
X-61049Y-108795D01*
X-60976Y-108728D01*
X-60906Y-108657D01*
X-60838Y-108584D01*
X-60774Y-108508D01*
X-60712Y-108430D01*
X-60653Y-108350D01*
X-60653Y-108351D02*
X-56930Y-103033D01*
X-56930Y-103034D02*
X-56874Y-102951D01*
X-56822Y-102866D01*
X-56773Y-102780D01*
X-56727Y-102691D01*
X-56685Y-102601D01*
X-56646Y-102510D01*
X-56611Y-102417D01*
X-56579Y-102322D01*
X-56551Y-102227D01*
X-56527Y-102130D01*
X-56506Y-102033D01*
X-56490Y-101935D01*
X-56477Y-101836D01*
X-56467Y-101737D01*
X-56462Y-101638D01*
X-56460Y-101538D01*
X-56462Y-101439D01*
X-56468Y-101340D01*
X-56478Y-101241D01*
X-56491Y-101142D01*
X-56509Y-101044D01*
X-56530Y-100947D01*
X-56554Y-100851D01*
X-56583Y-100755D01*
X-56615Y-100661D01*
X-56650Y-100568D01*
X-56689Y-100477D01*
X-56732Y-100387D01*
X-56778Y-100299D01*
X-56828Y-100212D01*
X-56880Y-100128D01*
X-56936Y-100045D01*
X-56995Y-99965D01*
X-57057Y-99887D01*
X-57122Y-99812D01*
X-57190Y-99739D01*
X-57260Y-99669D01*
X-57333Y-99602D01*
X-57409Y-99537D01*
X-57487Y-99475D01*
X-57567Y-99417D01*
X-57568Y-99417D02*
X-60758Y-97183D01*
X-65428Y-93913D02*
X-72130Y-103484D01*
X-77447Y-99761D02*
X-65428Y-93913D01*
X-70745Y-90190D02*
X-77447Y-99761D01*
X-82117Y-96491D02*
X-75415Y-86920D01*
X-78074Y-85059D01*
X-78073Y-85058D02*
X-78167Y-84995D01*
X-78263Y-84935D01*
X-78361Y-84878D01*
X-78461Y-84825D01*
X-78563Y-84775D01*
X-78667Y-84729D01*
X-78772Y-84687D01*
X-78878Y-84648D01*
X-78986Y-84613D01*
X-79095Y-84582D01*
X-79205Y-84554D01*
X-79316Y-84531D01*
X-79427Y-84511D01*
X-79539Y-84495D01*
X-79652Y-84483D01*
X-79765Y-84475D01*
X-79878Y-84471D01*
X-79992Y-84471D01*
X-80105Y-84475D01*
X-80218Y-84483D01*
X-80331Y-84495D01*
X-80443Y-84511D01*
X-80554Y-84531D01*
X-80665Y-84554D01*
X-80775Y-84582D01*
X-80884Y-84613D01*
X-80992Y-84648D01*
X-81098Y-84687D01*
X-81203Y-84729D01*
X-81307Y-84775D01*
X-81409Y-84825D01*
X-81509Y-84878D01*
X-81607Y-84935D01*
X-81703Y-84995D01*
X-81797Y-85058D01*
X-81888Y-85125D01*
X-81978Y-85194D01*
X-82065Y-85267D01*
X-82149Y-85343D01*
X-82230Y-85422D01*
X-82309Y-85503D01*
X-82385Y-85587D01*
X-82458Y-85674D01*
X-82527Y-85764D01*
X-82594Y-85855D01*
X-82594Y-85856D02*
X-85573Y-90110D01*
X-85573Y-90109D02*
X-85636Y-90203D01*
X-85696Y-90299D01*
X-85753Y-90397D01*
X-85806Y-90497D01*
X-85856Y-90599D01*
X-85902Y-90703D01*
X-85944Y-90808D01*
X-85983Y-90914D01*
X-86018Y-91022D01*
X-86049Y-91131D01*
X-86077Y-91241D01*
X-86100Y-91352D01*
X-86120Y-91463D01*
X-86136Y-91575D01*
X-86148Y-91688D01*
X-86156Y-91801D01*
X-86160Y-91914D01*
X-86160Y-92028D01*
X-86156Y-92141D01*
X-86148Y-92254D01*
X-86136Y-92367D01*
X-86120Y-92479D01*
X-86100Y-92590D01*
X-86077Y-92701D01*
X-86049Y-92811D01*
X-86018Y-92920D01*
X-85983Y-93028D01*
X-85944Y-93134D01*
X-85902Y-93239D01*
X-85856Y-93343D01*
X-85806Y-93445D01*
X-85753Y-93545D01*
X-85696Y-93643D01*
X-85636Y-93739D01*
X-85573Y-93833D01*
X-85506Y-93925D01*
X-85437Y-94014D01*
X-85364Y-94101D01*
X-85288Y-94185D01*
X-85209Y-94266D01*
X-85128Y-94345D01*
X-85044Y-94421D01*
X-84957Y-94494D01*
X-84867Y-94563D01*
X-84776Y-94630D01*
X-82117Y-96491D01*
X73111Y-92177D02*
X74603Y-90925D01*
X73111Y-92177D02*
X77284Y-97150D01*
X80267Y-94646D01*
X80342Y-94580D01*
X80414Y-94512D01*
X80484Y-94441D01*
X80551Y-94368D01*
X80615Y-94292D01*
X80676Y-94213D01*
X80734Y-94132D01*
X80789Y-94049D01*
X80841Y-93965D01*
X80889Y-93878D01*
X80934Y-93789D01*
X80976Y-93699D01*
X81014Y-93607D01*
X81049Y-93514D01*
X81080Y-93419D01*
X81107Y-93324D01*
X81131Y-93227D01*
X81151Y-93130D01*
X81167Y-93031D01*
X81179Y-92933D01*
X81188Y-92834D01*
X81193Y-92734D01*
X81194Y-92635D01*
X81191Y-92535D01*
X81185Y-92436D01*
X81174Y-92337D01*
X81160Y-92239D01*
X81142Y-92141D01*
X81121Y-92044D01*
X81095Y-91948D01*
X81066Y-91853D01*
X81034Y-91759D01*
X80997Y-91666D01*
X80958Y-91575D01*
X80915Y-91485D01*
X80868Y-91397D01*
X80818Y-91311D01*
X80765Y-91227D01*
X80709Y-91145D01*
X80649Y-91066D01*
X80587Y-90988D01*
X76415Y-86016D01*
X76350Y-85941D01*
X76282Y-85868D01*
X76211Y-85799D01*
X76137Y-85732D01*
X76061Y-85667D01*
X75983Y-85606D01*
X75902Y-85548D01*
X75819Y-85493D01*
X75734Y-85441D01*
X75647Y-85393D01*
X75558Y-85348D01*
X75468Y-85306D01*
X75376Y-85268D01*
X75283Y-85233D01*
X75188Y-85202D01*
X75093Y-85175D01*
X74996Y-85151D01*
X74899Y-85131D01*
X74801Y-85115D01*
X74702Y-85103D01*
X74603Y-85094D01*
X74503Y-85089D01*
X74404Y-85088D01*
X74304Y-85091D01*
X74205Y-85097D01*
X74106Y-85108D01*
X74008Y-85122D01*
X73910Y-85140D01*
X73813Y-85161D01*
X73717Y-85187D01*
X73621Y-85216D01*
X73527Y-85248D01*
X73435Y-85285D01*
X73344Y-85324D01*
X73254Y-85368D01*
X73166Y-85414D01*
X73080Y-85464D01*
X72996Y-85517D01*
X72914Y-85574D01*
X72834Y-85633D01*
X72757Y-85696D01*
X69773Y-88199D01*
X65406Y-91864D02*
X72917Y-100814D01*
X67944Y-104986D02*
X65406Y-91864D01*
X60434Y-96036D02*
X67944Y-104986D01*
X63577Y-108651D02*
X56067Y-99700D01*
X53580Y-101787D01*
X53581Y-101786D02*
X53495Y-101861D01*
X53412Y-101938D01*
X53332Y-102018D01*
X53255Y-102101D01*
X53180Y-102186D01*
X53109Y-102275D01*
X53041Y-102365D01*
X52976Y-102458D01*
X52914Y-102553D01*
X52856Y-102650D01*
X52801Y-102749D01*
X52750Y-102850D01*
X52702Y-102953D01*
X52657Y-103057D01*
X52617Y-103163D01*
X52580Y-103270D01*
X52547Y-103378D01*
X52517Y-103488D01*
X52492Y-103598D01*
X52470Y-103709D01*
X52453Y-103821D01*
X52439Y-103934D01*
X52429Y-104047D01*
X52423Y-104160D01*
X52421Y-104273D01*
X52423Y-104386D01*
X52429Y-104499D01*
X52439Y-104612D01*
X52453Y-104725D01*
X52470Y-104837D01*
X52492Y-104948D01*
X52517Y-105058D01*
X52547Y-105168D01*
X52580Y-105276D01*
X52617Y-105383D01*
X52657Y-105489D01*
X52702Y-105593D01*
X52750Y-105696D01*
X52801Y-105797D01*
X52856Y-105896D01*
X52914Y-105993D01*
X52976Y-106088D01*
X53041Y-106181D01*
X53109Y-106271D01*
X53180Y-106359D01*
X56518Y-110337D01*
X56593Y-110423D01*
X56670Y-110506D01*
X56750Y-110586D01*
X56833Y-110663D01*
X56919Y-110738D01*
X57007Y-110809D01*
X57097Y-110877D01*
X57190Y-110942D01*
X57285Y-111004D01*
X57382Y-111062D01*
X57481Y-111117D01*
X57582Y-111168D01*
X57685Y-111216D01*
X57789Y-111261D01*
X57895Y-111301D01*
X58002Y-111338D01*
X58110Y-111371D01*
X58220Y-111401D01*
X58330Y-111426D01*
X58441Y-111448D01*
X58553Y-111465D01*
X58666Y-111479D01*
X58779Y-111489D01*
X58892Y-111495D01*
X59005Y-111497D01*
X59118Y-111495D01*
X59231Y-111489D01*
X59344Y-111479D01*
X59457Y-111465D01*
X59569Y-111448D01*
X59680Y-111426D01*
X59790Y-111401D01*
X59900Y-111371D01*
X60008Y-111338D01*
X60115Y-111301D01*
X60221Y-111261D01*
X60325Y-111216D01*
X60428Y-111168D01*
X60529Y-111117D01*
X60628Y-111062D01*
X60725Y-111004D01*
X60820Y-110942D01*
X60913Y-110877D01*
X61003Y-110809D01*
X61092Y-110738D01*
X61091Y-110737D02*
X63577Y-108651D01*
X10894Y121299D02*
X8946Y121299D01*
X8946Y114808D01*
X12841Y114808D01*
X12940Y114810D01*
X13040Y114816D01*
X13139Y114825D01*
X13237Y114838D01*
X13335Y114855D01*
X13433Y114876D01*
X13529Y114901D01*
X13624Y114929D01*
X13718Y114961D01*
X13811Y114996D01*
X13903Y115035D01*
X13993Y115078D01*
X14081Y115123D01*
X14168Y115173D01*
X14252Y115225D01*
X14335Y115281D01*
X14415Y115339D01*
X14493Y115401D01*
X14568Y115466D01*
X14641Y115534D01*
X14711Y115604D01*
X14779Y115677D01*
X14844Y115752D01*
X14906Y115830D01*
X14964Y115910D01*
X15020Y115993D01*
X15072Y116077D01*
X15122Y116164D01*
X15167Y116252D01*
X15210Y116342D01*
X15249Y116434D01*
X15284Y116527D01*
X15316Y116621D01*
X15344Y116716D01*
X15369Y116812D01*
X15390Y116910D01*
X15407Y117008D01*
X15420Y117106D01*
X15429Y117205D01*
X15435Y117305D01*
X15437Y117404D01*
X15438Y117404D02*
X15438Y123896D01*
X15437Y123896D02*
X15435Y123995D01*
X15429Y124095D01*
X15420Y124194D01*
X15407Y124292D01*
X15390Y124390D01*
X15369Y124488D01*
X15344Y124584D01*
X15316Y124679D01*
X15284Y124773D01*
X15249Y124866D01*
X15210Y124958D01*
X15167Y125048D01*
X15122Y125136D01*
X15072Y125223D01*
X15020Y125307D01*
X14964Y125390D01*
X14906Y125470D01*
X14844Y125548D01*
X14779Y125623D01*
X14711Y125696D01*
X14641Y125766D01*
X14568Y125834D01*
X14493Y125899D01*
X14415Y125961D01*
X14335Y126019D01*
X14252Y126075D01*
X14168Y126127D01*
X14081Y126177D01*
X13993Y126222D01*
X13903Y126265D01*
X13811Y126304D01*
X13718Y126339D01*
X13624Y126371D01*
X13529Y126399D01*
X13433Y126424D01*
X13335Y126445D01*
X13237Y126462D01*
X13139Y126475D01*
X13040Y126484D01*
X12940Y126490D01*
X12841Y126492D01*
X8946Y126492D01*
X3246Y126492D02*
X3246Y114808D01*
X-3246Y114808D02*
X3246Y126492D01*
X-3246Y126492D02*
X-3246Y114808D01*
X-8946Y114808D02*
X-8946Y126492D01*
X-12192Y126492D01*
X-12305Y126490D01*
X-12418Y126484D01*
X-12531Y126474D01*
X-12644Y126460D01*
X-12756Y126443D01*
X-12867Y126421D01*
X-12977Y126396D01*
X-13087Y126366D01*
X-13195Y126333D01*
X-13302Y126296D01*
X-13408Y126256D01*
X-13512Y126211D01*
X-13615Y126163D01*
X-13716Y126112D01*
X-13815Y126057D01*
X-13912Y125999D01*
X-14007Y125937D01*
X-14100Y125872D01*
X-14190Y125804D01*
X-14278Y125733D01*
X-14364Y125658D01*
X-14447Y125581D01*
X-14527Y125501D01*
X-14604Y125418D01*
X-14679Y125332D01*
X-14750Y125244D01*
X-14818Y125154D01*
X-14883Y125061D01*
X-14945Y124966D01*
X-15003Y124869D01*
X-15058Y124770D01*
X-15109Y124669D01*
X-15157Y124566D01*
X-15202Y124462D01*
X-15242Y124356D01*
X-15279Y124249D01*
X-15312Y124141D01*
X-15342Y124031D01*
X-15367Y123921D01*
X-15389Y123810D01*
X-15406Y123698D01*
X-15420Y123585D01*
X-15430Y123472D01*
X-15436Y123359D01*
X-15438Y123246D01*
X-15438Y118054D01*
X-15436Y117941D01*
X-15430Y117828D01*
X-15420Y117715D01*
X-15406Y117602D01*
X-15389Y117490D01*
X-15367Y117379D01*
X-15342Y117269D01*
X-15312Y117159D01*
X-15279Y117051D01*
X-15242Y116944D01*
X-15202Y116838D01*
X-15157Y116734D01*
X-15109Y116631D01*
X-15058Y116530D01*
X-15003Y116431D01*
X-14945Y116334D01*
X-14883Y116239D01*
X-14818Y116146D01*
X-14750Y116056D01*
X-14679Y115968D01*
X-14604Y115882D01*
X-14527Y115799D01*
X-14447Y115719D01*
X-14364Y115642D01*
X-14278Y115567D01*
X-14190Y115496D01*
X-14100Y115428D01*
X-14007Y115363D01*
X-13912Y115301D01*
X-13815Y115243D01*
X-13716Y115188D01*
X-13615Y115137D01*
X-13512Y115089D01*
X-13408Y115044D01*
X-13302Y115004D01*
X-13195Y114967D01*
X-13087Y114934D01*
X-12977Y114904D01*
X-12867Y114879D01*
X-12756Y114857D01*
X-12644Y114840D01*
X-12531Y114826D01*
X-12418Y114816D01*
X-12305Y114810D01*
X-12192Y114808D01*
X-8946Y114808D01*
X-110476Y33916D02*
X-110476Y31969D01*
X-110476Y33916D02*
X-116967Y33916D01*
X-116967Y30021D01*
X-116965Y29922D01*
X-116959Y29822D01*
X-116950Y29723D01*
X-116937Y29625D01*
X-116920Y29527D01*
X-116899Y29429D01*
X-116874Y29333D01*
X-116846Y29238D01*
X-116814Y29144D01*
X-116779Y29051D01*
X-116740Y28959D01*
X-116697Y28869D01*
X-116652Y28781D01*
X-116602Y28694D01*
X-116550Y28610D01*
X-116494Y28527D01*
X-116436Y28447D01*
X-116374Y28369D01*
X-116309Y28294D01*
X-116241Y28221D01*
X-116171Y28151D01*
X-116098Y28083D01*
X-116023Y28018D01*
X-115945Y27956D01*
X-115865Y27898D01*
X-115782Y27842D01*
X-115698Y27790D01*
X-115611Y27740D01*
X-115523Y27695D01*
X-115433Y27652D01*
X-115341Y27613D01*
X-115248Y27578D01*
X-115154Y27546D01*
X-115059Y27518D01*
X-114963Y27493D01*
X-114865Y27472D01*
X-114767Y27455D01*
X-114669Y27442D01*
X-114570Y27433D01*
X-114470Y27427D01*
X-114371Y27425D01*
X-107879Y27425D01*
X-107780Y27427D01*
X-107680Y27433D01*
X-107581Y27442D01*
X-107483Y27455D01*
X-107385Y27473D01*
X-107287Y27493D01*
X-107191Y27518D01*
X-107095Y27546D01*
X-107001Y27578D01*
X-106908Y27613D01*
X-106817Y27652D01*
X-106727Y27695D01*
X-106638Y27740D01*
X-106552Y27790D01*
X-106467Y27842D01*
X-106385Y27898D01*
X-106305Y27957D01*
X-106227Y28018D01*
X-106151Y28083D01*
X-106078Y28151D01*
X-106008Y28221D01*
X-105940Y28294D01*
X-105875Y28370D01*
X-105814Y28448D01*
X-105755Y28528D01*
X-105699Y28610D01*
X-105647Y28695D01*
X-105598Y28781D01*
X-105552Y28870D01*
X-105509Y28960D01*
X-105470Y29051D01*
X-105435Y29144D01*
X-105403Y29238D01*
X-105375Y29334D01*
X-105350Y29430D01*
X-105330Y29528D01*
X-105312Y29626D01*
X-105299Y29724D01*
X-105290Y29823D01*
X-105284Y29922D01*
X-105282Y30022D01*
X-105283Y30021D02*
X-105283Y33916D01*
X-105283Y39617D02*
X-116967Y39617D01*
X-116967Y46108D02*
X-105283Y39617D01*
X-105283Y46108D02*
X-116967Y46108D01*
X-116967Y51809D02*
X-105283Y51809D01*
X-105283Y55054D01*
X-105285Y55167D01*
X-105291Y55280D01*
X-105301Y55393D01*
X-105315Y55506D01*
X-105332Y55618D01*
X-105354Y55729D01*
X-105379Y55839D01*
X-105409Y55949D01*
X-105442Y56057D01*
X-105479Y56164D01*
X-105519Y56270D01*
X-105564Y56374D01*
X-105612Y56477D01*
X-105663Y56578D01*
X-105718Y56677D01*
X-105776Y56774D01*
X-105838Y56869D01*
X-105903Y56962D01*
X-105971Y57052D01*
X-106042Y57140D01*
X-106117Y57226D01*
X-106194Y57309D01*
X-106274Y57389D01*
X-106357Y57466D01*
X-106443Y57541D01*
X-106531Y57612D01*
X-106621Y57680D01*
X-106714Y57745D01*
X-106809Y57807D01*
X-106906Y57865D01*
X-107005Y57920D01*
X-107106Y57971D01*
X-107209Y58019D01*
X-107313Y58064D01*
X-107419Y58104D01*
X-107526Y58141D01*
X-107634Y58174D01*
X-107744Y58204D01*
X-107854Y58229D01*
X-107965Y58251D01*
X-108077Y58268D01*
X-108190Y58282D01*
X-108303Y58292D01*
X-108416Y58298D01*
X-108529Y58300D01*
X-113721Y58300D01*
X-113721Y58301D02*
X-113834Y58299D01*
X-113947Y58293D01*
X-114060Y58283D01*
X-114173Y58269D01*
X-114285Y58252D01*
X-114396Y58230D01*
X-114506Y58205D01*
X-114616Y58175D01*
X-114724Y58142D01*
X-114831Y58105D01*
X-114937Y58065D01*
X-115041Y58020D01*
X-115144Y57972D01*
X-115245Y57921D01*
X-115344Y57866D01*
X-115441Y57808D01*
X-115536Y57746D01*
X-115629Y57681D01*
X-115719Y57613D01*
X-115807Y57542D01*
X-115893Y57467D01*
X-115976Y57390D01*
X-116056Y57310D01*
X-116133Y57227D01*
X-116208Y57141D01*
X-116279Y57053D01*
X-116347Y56963D01*
X-116412Y56870D01*
X-116474Y56775D01*
X-116532Y56678D01*
X-116587Y56579D01*
X-116638Y56478D01*
X-116686Y56375D01*
X-116731Y56271D01*
X-116771Y56165D01*
X-116808Y56058D01*
X-116841Y55950D01*
X-116871Y55840D01*
X-116896Y55730D01*
X-116918Y55619D01*
X-116935Y55507D01*
X-116949Y55394D01*
X-116959Y55281D01*
X-116965Y55168D01*
X-116967Y55055D01*
X-116967Y55054D02*
X-116967Y51809D01*
X111774Y32329D02*
X111774Y30381D01*
X111774Y32329D02*
X105283Y32329D01*
X105283Y28434D01*
X105285Y28335D01*
X105291Y28235D01*
X105300Y28136D01*
X105313Y28038D01*
X105330Y27940D01*
X105351Y27842D01*
X105376Y27746D01*
X105404Y27651D01*
X105436Y27557D01*
X105471Y27464D01*
X105510Y27372D01*
X105553Y27282D01*
X105598Y27194D01*
X105648Y27107D01*
X105700Y27023D01*
X105756Y26940D01*
X105814Y26860D01*
X105876Y26782D01*
X105941Y26707D01*
X106009Y26634D01*
X106079Y26564D01*
X106152Y26496D01*
X106227Y26431D01*
X106305Y26369D01*
X106385Y26311D01*
X106468Y26255D01*
X106552Y26203D01*
X106639Y26153D01*
X106727Y26108D01*
X106817Y26065D01*
X106909Y26026D01*
X107002Y25991D01*
X107096Y25959D01*
X107191Y25931D01*
X107287Y25906D01*
X107385Y25885D01*
X107483Y25868D01*
X107581Y25855D01*
X107680Y25846D01*
X107780Y25840D01*
X107879Y25838D01*
X114371Y25838D01*
X114470Y25840D01*
X114570Y25846D01*
X114669Y25855D01*
X114767Y25868D01*
X114865Y25885D01*
X114963Y25906D01*
X115059Y25931D01*
X115154Y25959D01*
X115248Y25991D01*
X115341Y26026D01*
X115433Y26065D01*
X115523Y26108D01*
X115611Y26153D01*
X115698Y26203D01*
X115782Y26255D01*
X115865Y26311D01*
X115945Y26369D01*
X116023Y26431D01*
X116098Y26496D01*
X116171Y26564D01*
X116241Y26634D01*
X116309Y26707D01*
X116374Y26782D01*
X116436Y26860D01*
X116494Y26940D01*
X116550Y27023D01*
X116602Y27107D01*
X116652Y27194D01*
X116697Y27282D01*
X116740Y27372D01*
X116779Y27464D01*
X116814Y27556D01*
X116846Y27651D01*
X116874Y27746D01*
X116899Y27842D01*
X116920Y27940D01*
X116937Y28038D01*
X116950Y28136D01*
X116959Y28235D01*
X116965Y28335D01*
X116967Y28434D01*
X116967Y32329D01*
X116967Y38029D02*
X105283Y38029D01*
X105283Y44521D02*
X116967Y38029D01*
X116967Y44521D02*
X105283Y44521D01*
X105283Y50221D02*
X116967Y50221D01*
X116967Y53467D01*
X116965Y53580D01*
X116959Y53693D01*
X116949Y53806D01*
X116935Y53919D01*
X116918Y54031D01*
X116896Y54142D01*
X116871Y54252D01*
X116841Y54362D01*
X116808Y54470D01*
X116771Y54577D01*
X116731Y54683D01*
X116686Y54787D01*
X116638Y54890D01*
X116587Y54991D01*
X116532Y55090D01*
X116474Y55187D01*
X116412Y55282D01*
X116347Y55375D01*
X116279Y55465D01*
X116208Y55553D01*
X116133Y55639D01*
X116056Y55722D01*
X115976Y55802D01*
X115893Y55879D01*
X115807Y55954D01*
X115719Y56025D01*
X115629Y56093D01*
X115536Y56158D01*
X115441Y56220D01*
X115344Y56278D01*
X115245Y56333D01*
X115144Y56384D01*
X115041Y56432D01*
X114937Y56477D01*
X114831Y56517D01*
X114724Y56554D01*
X114616Y56587D01*
X114506Y56617D01*
X114396Y56642D01*
X114285Y56664D01*
X114173Y56681D01*
X114060Y56695D01*
X113947Y56705D01*
X113834Y56711D01*
X113721Y56713D01*
X108529Y56713D01*
X108416Y56711D01*
X108303Y56705D01*
X108190Y56695D01*
X108077Y56681D01*
X107965Y56664D01*
X107854Y56642D01*
X107744Y56617D01*
X107634Y56587D01*
X107526Y56554D01*
X107419Y56517D01*
X107313Y56477D01*
X107209Y56432D01*
X107106Y56384D01*
X107005Y56333D01*
X106906Y56278D01*
X106809Y56220D01*
X106714Y56158D01*
X106621Y56093D01*
X106531Y56025D01*
X106443Y55954D01*
X106357Y55879D01*
X106274Y55802D01*
X106194Y55722D01*
X106117Y55639D01*
X106042Y55553D01*
X105971Y55465D01*
X105903Y55375D01*
X105838Y55282D01*
X105776Y55187D01*
X105718Y55090D01*
X105663Y54991D01*
X105612Y54890D01*
X105564Y54787D01*
X105519Y54683D01*
X105479Y54577D01*
X105442Y54470D01*
X105409Y54362D01*
X105379Y54252D01*
X105354Y54142D01*
X105332Y54031D01*
X105315Y53919D01*
X105301Y53806D01*
X105291Y53693D01*
X105285Y53580D01*
X105283Y53467D01*
X105283Y50221D01*
D10*
X90964Y-29314D02*
X73454Y-32401D01*
X74311Y-37265D01*
X74337Y-37402D01*
X74367Y-37538D01*
X74401Y-37674D01*
X74439Y-37809D01*
X74481Y-37942D01*
X74526Y-38074D01*
X74575Y-38205D01*
X74628Y-38335D01*
X74684Y-38463D01*
X74744Y-38589D01*
X74808Y-38713D01*
X74875Y-38836D01*
X74945Y-38957D01*
X75019Y-39075D01*
X75096Y-39192D01*
X75177Y-39306D01*
X75260Y-39418D01*
X75347Y-39528D01*
X75437Y-39635D01*
X75530Y-39739D01*
X75625Y-39841D01*
X75724Y-39940D01*
X75825Y-40037D01*
X75929Y-40130D01*
X76036Y-40220D01*
X76145Y-40308D01*
X76257Y-40392D01*
X76371Y-40473D01*
X76487Y-40550D01*
X76605Y-40625D01*
X76726Y-40696D01*
X76848Y-40763D01*
X76972Y-40828D01*
X77098Y-40888D01*
X77226Y-40945D01*
X77355Y-40998D01*
X77486Y-41048D01*
X77618Y-41094D01*
X77751Y-41136D01*
X77885Y-41175D01*
X78021Y-41209D01*
X78157Y-41240D01*
X78294Y-41267D01*
X78432Y-41290D01*
X78571Y-41309D01*
X78710Y-41324D01*
X78849Y-41335D01*
X78989Y-41342D01*
X79128Y-41346D01*
X79268Y-41345D01*
X79408Y-41341D01*
X79547Y-41332D01*
X79687Y-41319D01*
X79825Y-41303D01*
X79964Y-41283D01*
X80101Y-41258D01*
X80238Y-41230D01*
X80374Y-41198D01*
X80509Y-41162D01*
X80644Y-41123D01*
X80776Y-41079D01*
X80908Y-41032D01*
X81038Y-40981D01*
X81167Y-40927D01*
X81294Y-40868D01*
X81419Y-40807D01*
X81543Y-40741D01*
X81665Y-40673D01*
X81784Y-40600D01*
X81902Y-40525D01*
X82017Y-40446D01*
X82131Y-40364D01*
X82241Y-40279D01*
X82350Y-40190D01*
X82456Y-40099D01*
X82559Y-40005D01*
X82659Y-39908D01*
X82757Y-39808D01*
X82852Y-39705D01*
X82943Y-39600D01*
X83032Y-39492D01*
X83118Y-39381D01*
X83201Y-39268D01*
X83280Y-39153D01*
X83356Y-39036D01*
X83429Y-38917D01*
X83498Y-38795D01*
X83564Y-38672D01*
X83626Y-38547D01*
X83685Y-38420D01*
X83740Y-38292D01*
X83792Y-38162D01*
X83840Y-38030D01*
X83884Y-37898D01*
X83924Y-37764D01*
X83960Y-37629D01*
X83993Y-37493D01*
X84022Y-37356D01*
X84047Y-37219D01*
X84068Y-37081D01*
X84085Y-36942D01*
X84098Y-36803D01*
X84107Y-36663D01*
X84113Y-36523D01*
X84114Y-36384D01*
X84111Y-36244D01*
X84105Y-36104D01*
X84094Y-35965D01*
X84080Y-35826D01*
X84061Y-35687D01*
X84039Y-35549D01*
X84039Y-35550D02*
X83181Y-30686D01*
X77175Y-53504D02*
X77199Y-53633D01*
X77228Y-53762D01*
X77260Y-53889D01*
X77297Y-54016D01*
X77336Y-54142D01*
X77380Y-54266D01*
X77427Y-54389D01*
X77478Y-54510D01*
X77533Y-54630D01*
X77591Y-54749D01*
X77652Y-54865D01*
X77717Y-54980D01*
X77785Y-55092D01*
X77857Y-55203D01*
X77932Y-55311D01*
X78010Y-55418D01*
X78091Y-55521D01*
X78175Y-55623D01*
X78262Y-55721D01*
X78352Y-55818D01*
X78445Y-55911D01*
X78541Y-56002D01*
X78639Y-56090D01*
X78740Y-56174D01*
X78843Y-56256D01*
X78949Y-56335D01*
X79057Y-56410D01*
X79167Y-56483D01*
X79279Y-56552D01*
X79393Y-56618D01*
X79509Y-56680D01*
X79627Y-56739D01*
X79747Y-56794D01*
X79868Y-56846D01*
X79991Y-56894D01*
X80115Y-56938D01*
X80240Y-56979D01*
X80366Y-57016D01*
X80494Y-57049D01*
X80622Y-57079D01*
X80751Y-57104D01*
X80881Y-57126D01*
X81012Y-57144D01*
X81143Y-57158D01*
X81274Y-57168D01*
X81406Y-57175D01*
X81537Y-57177D01*
X81669Y-57175D01*
X81801Y-57170D01*
X81932Y-57161D01*
X82063Y-57148D01*
X82194Y-57130D01*
X82324Y-57109D01*
X77175Y-53504D02*
X77151Y-53356D01*
X77131Y-53208D01*
X77114Y-53059D01*
X77102Y-52910D01*
X77093Y-52760D01*
X77089Y-52611D01*
X77088Y-52461D01*
X77092Y-52312D01*
X77099Y-52162D01*
X77110Y-52013D01*
X77125Y-51864D01*
X77144Y-51716D01*
X77167Y-51568D01*
X77193Y-51421D01*
X77224Y-51274D01*
X77258Y-51129D01*
X77296Y-50984D01*
X77338Y-50840D01*
X77384Y-50698D01*
X77433Y-50557D01*
X77486Y-50417D01*
X77543Y-50278D01*
X77603Y-50141D01*
X77667Y-50006D01*
X77735Y-49872D01*
X77805Y-49741D01*
X77880Y-49611D01*
X77957Y-49483D01*
X78038Y-49357D01*
X78123Y-49234D01*
X78210Y-49112D01*
X78301Y-48993D01*
X78395Y-48876D01*
X78491Y-48762D01*
X78591Y-48651D01*
X78694Y-48542D01*
X78799Y-48436D01*
X78907Y-48332D01*
X79018Y-48232D01*
X79131Y-48134D01*
X79247Y-48040D01*
X79366Y-47948D01*
X79487Y-47860D01*
X79610Y-47775D01*
X79735Y-47693D01*
X79862Y-47614D01*
X79991Y-47539D01*
X80123Y-47467D01*
X85471Y-55049D02*
X85396Y-55159D01*
X85318Y-55267D01*
X85236Y-55373D01*
X85152Y-55476D01*
X85065Y-55577D01*
X84975Y-55675D01*
X84882Y-55771D01*
X84787Y-55864D01*
X84689Y-55955D01*
X84589Y-56043D01*
X84486Y-56128D01*
X84381Y-56210D01*
X84274Y-56289D01*
X84164Y-56365D01*
X84053Y-56438D01*
X83939Y-56508D01*
X83824Y-56574D01*
X83707Y-56638D01*
X83588Y-56698D01*
X83467Y-56755D01*
X83345Y-56808D01*
X83221Y-56858D01*
X83096Y-56904D01*
X82970Y-56947D01*
X82843Y-56987D01*
X82714Y-57023D01*
X82585Y-57055D01*
X82455Y-57084D01*
X82324Y-57108D01*
X85471Y-55049D02*
X93741Y-45066D01*
X95456Y-54793D01*
X90795Y-68176D02*
X84958Y-69205D01*
X90795Y-68176D02*
X95773Y-70809D01*
X90795Y-68176D02*
X94572Y-63999D01*
X90795Y-68176D02*
X89793Y-73869D01*
X90795Y-68176D02*
X87906Y-63169D01*
X-74864Y-10228D02*
X-80945Y-26935D01*
X-74864Y-10228D02*
X-79505Y-8538D01*
X-79637Y-8492D01*
X-79770Y-8450D01*
X-79904Y-8411D01*
X-80040Y-8377D01*
X-80176Y-8346D01*
X-80313Y-8319D01*
X-80451Y-8296D01*
X-80590Y-8277D01*
X-80729Y-8262D01*
X-80868Y-8251D01*
X-81008Y-8244D01*
X-81147Y-8240D01*
X-81287Y-8241D01*
X-81427Y-8245D01*
X-81566Y-8254D01*
X-81706Y-8267D01*
X-81844Y-8283D01*
X-81983Y-8303D01*
X-82120Y-8328D01*
X-82257Y-8356D01*
X-82393Y-8388D01*
X-82528Y-8424D01*
X-82663Y-8463D01*
X-82795Y-8507D01*
X-82927Y-8554D01*
X-83057Y-8605D01*
X-83186Y-8659D01*
X-83313Y-8718D01*
X-83438Y-8779D01*
X-83562Y-8845D01*
X-83684Y-8913D01*
X-83803Y-8986D01*
X-83921Y-9061D01*
X-84036Y-9140D01*
X-84150Y-9222D01*
X-84260Y-9307D01*
X-84369Y-9396D01*
X-84475Y-9487D01*
X-84578Y-9581D01*
X-84678Y-9678D01*
X-84776Y-9778D01*
X-84871Y-9881D01*
X-84962Y-9986D01*
X-85051Y-10094D01*
X-85137Y-10205D01*
X-85220Y-10318D01*
X-85299Y-10433D01*
X-85375Y-10550D01*
X-85448Y-10669D01*
X-85517Y-10791D01*
X-85583Y-10914D01*
X-85645Y-11039D01*
X-85704Y-11166D01*
X-85759Y-11294D01*
X-85811Y-11424D01*
X-85859Y-11556D01*
X-85903Y-11688D01*
X-85943Y-11822D01*
X-85979Y-11957D01*
X-86012Y-12093D01*
X-86041Y-12230D01*
X-86066Y-12367D01*
X-86087Y-12505D01*
X-86104Y-12644D01*
X-86117Y-12783D01*
X-86126Y-12923D01*
X-86132Y-13063D01*
X-86133Y-13202D01*
X-86130Y-13342D01*
X-86124Y-13482D01*
X-86113Y-13621D01*
X-86099Y-13760D01*
X-86080Y-13899D01*
X-86058Y-14037D01*
X-86032Y-14174D01*
X-86002Y-14310D01*
X-85968Y-14446D01*
X-85930Y-14581D01*
X-85888Y-14714D01*
X-85843Y-14846D01*
X-85794Y-14977D01*
X-85741Y-15107D01*
X-85685Y-15235D01*
X-85625Y-15361D01*
X-85561Y-15485D01*
X-85494Y-15608D01*
X-85424Y-15729D01*
X-85350Y-15847D01*
X-85273Y-15964D01*
X-85192Y-16078D01*
X-85109Y-16190D01*
X-85022Y-16300D01*
X-84932Y-16407D01*
X-84839Y-16511D01*
X-84744Y-16613D01*
X-84645Y-16712D01*
X-84544Y-16809D01*
X-84440Y-16902D01*
X-84333Y-16992D01*
X-84224Y-17080D01*
X-84112Y-17164D01*
X-83998Y-17245D01*
X-83882Y-17322D01*
X-83764Y-17397D01*
X-83643Y-17468D01*
X-83521Y-17535D01*
X-83397Y-17600D01*
X-83271Y-17660D01*
X-83143Y-17717D01*
X-83014Y-17770D01*
X-82883Y-17820D01*
X-78242Y-19510D01*
X-94624Y-17752D02*
X-93607Y-3406D01*
X-94624Y-17752D02*
X-103906Y-14373D01*
X-99770Y-11674D02*
X-102473Y-19100D01*
X-114516Y-7358D02*
X-112489Y-1789D01*
X-114516Y-7358D02*
X-119285Y-10352D01*
X-114516Y-7358D02*
X-112788Y-12717D01*
X-114516Y-7358D02*
X-118946Y-3643D01*
X-114516Y-7358D02*
X-108736Y-7360D01*
X-24968Y77773D02*
X-24968Y95553D01*
X-29907Y95553D01*
X-29907Y95554D02*
X-30047Y95552D01*
X-30186Y95546D01*
X-30326Y95536D01*
X-30465Y95522D01*
X-30604Y95505D01*
X-30742Y95483D01*
X-30879Y95457D01*
X-31016Y95428D01*
X-31152Y95395D01*
X-31286Y95358D01*
X-31420Y95317D01*
X-31552Y95272D01*
X-31684Y95223D01*
X-31813Y95171D01*
X-31941Y95116D01*
X-32068Y95056D01*
X-32193Y94993D01*
X-32316Y94927D01*
X-32437Y94857D01*
X-32556Y94784D01*
X-32673Y94707D01*
X-32787Y94627D01*
X-32900Y94544D01*
X-33010Y94458D01*
X-33117Y94368D01*
X-33222Y94276D01*
X-33324Y94181D01*
X-33424Y94083D01*
X-33521Y93982D01*
X-33615Y93878D01*
X-33705Y93772D01*
X-33793Y93663D01*
X-33878Y93552D01*
X-33959Y93438D01*
X-34038Y93323D01*
X-34113Y93205D01*
X-34184Y93084D01*
X-34252Y92962D01*
X-34317Y92839D01*
X-34378Y92713D01*
X-34436Y92585D01*
X-34490Y92457D01*
X-34540Y92326D01*
X-34587Y92194D01*
X-34630Y92061D01*
X-34669Y91927D01*
X-34704Y91792D01*
X-34735Y91656D01*
X-34763Y91518D01*
X-34786Y91381D01*
X-34806Y91242D01*
X-34822Y91103D01*
X-34834Y90964D01*
X-34842Y90825D01*
X-34846Y90685D01*
X-34846Y90545D01*
X-34842Y90405D01*
X-34834Y90266D01*
X-34822Y90127D01*
X-34806Y89988D01*
X-34786Y89849D01*
X-34763Y89712D01*
X-34735Y89574D01*
X-34704Y89438D01*
X-34669Y89303D01*
X-34630Y89169D01*
X-34587Y89036D01*
X-34540Y88904D01*
X-34490Y88773D01*
X-34436Y88645D01*
X-34378Y88517D01*
X-34317Y88391D01*
X-34252Y88268D01*
X-34184Y88145D01*
X-34113Y88025D01*
X-34038Y87907D01*
X-33959Y87792D01*
X-33878Y87678D01*
X-33793Y87567D01*
X-33705Y87458D01*
X-33615Y87352D01*
X-33521Y87248D01*
X-33424Y87147D01*
X-33324Y87049D01*
X-33222Y86954D01*
X-33117Y86862D01*
X-33010Y86772D01*
X-32900Y86686D01*
X-32787Y86603D01*
X-32673Y86523D01*
X-32556Y86446D01*
X-32437Y86373D01*
X-32316Y86303D01*
X-32193Y86237D01*
X-32068Y86174D01*
X-31941Y86114D01*
X-31813Y86059D01*
X-31684Y86007D01*
X-31552Y85958D01*
X-31420Y85913D01*
X-31286Y85872D01*
X-31152Y85835D01*
X-31016Y85802D01*
X-30879Y85773D01*
X-30742Y85747D01*
X-30604Y85725D01*
X-30465Y85708D01*
X-30326Y85694D01*
X-30186Y85684D01*
X-30047Y85678D01*
X-29907Y85676D01*
X-24968Y85676D01*
X-40963Y77773D02*
X-46890Y77773D01*
X-46890Y77774D02*
X-47014Y77776D01*
X-47138Y77782D01*
X-47262Y77792D01*
X-47385Y77805D01*
X-47508Y77823D01*
X-47630Y77844D01*
X-47752Y77869D01*
X-47873Y77898D01*
X-47992Y77931D01*
X-48111Y77967D01*
X-48228Y78008D01*
X-48344Y78051D01*
X-48459Y78099D01*
X-48572Y78150D01*
X-48684Y78205D01*
X-48793Y78263D01*
X-48901Y78324D01*
X-49007Y78389D01*
X-49111Y78457D01*
X-49212Y78529D01*
X-49312Y78603D01*
X-49408Y78681D01*
X-49503Y78761D01*
X-49595Y78845D01*
X-49684Y78931D01*
X-49770Y79020D01*
X-49854Y79112D01*
X-49934Y79207D01*
X-50012Y79303D01*
X-50086Y79403D01*
X-50158Y79504D01*
X-50226Y79608D01*
X-50291Y79714D01*
X-50352Y79822D01*
X-50410Y79931D01*
X-50465Y80043D01*
X-50516Y80156D01*
X-50564Y80271D01*
X-50607Y80387D01*
X-50648Y80504D01*
X-50684Y80623D01*
X-50717Y80742D01*
X-50746Y80863D01*
X-50771Y80985D01*
X-50792Y81107D01*
X-50810Y81230D01*
X-50823Y81353D01*
X-50833Y81477D01*
X-50839Y81601D01*
X-50841Y81725D01*
X-50841Y83700D01*
X-50839Y83824D01*
X-50833Y83948D01*
X-50823Y84072D01*
X-50810Y84195D01*
X-50792Y84318D01*
X-50771Y84440D01*
X-50746Y84562D01*
X-50717Y84683D01*
X-50684Y84802D01*
X-50648Y84921D01*
X-50607Y85038D01*
X-50564Y85154D01*
X-50516Y85269D01*
X-50465Y85382D01*
X-50410Y85494D01*
X-50352Y85603D01*
X-50291Y85711D01*
X-50226Y85817D01*
X-50158Y85921D01*
X-50086Y86022D01*
X-50012Y86122D01*
X-49934Y86218D01*
X-49854Y86313D01*
X-49770Y86405D01*
X-49684Y86494D01*
X-49595Y86580D01*
X-49503Y86664D01*
X-49408Y86744D01*
X-49312Y86822D01*
X-49212Y86896D01*
X-49111Y86968D01*
X-49007Y87036D01*
X-48901Y87101D01*
X-48793Y87162D01*
X-48684Y87220D01*
X-48572Y87275D01*
X-48459Y87326D01*
X-48344Y87374D01*
X-48228Y87417D01*
X-48111Y87458D01*
X-47992Y87494D01*
X-47873Y87527D01*
X-47752Y87556D01*
X-47630Y87581D01*
X-47508Y87602D01*
X-47385Y87620D01*
X-47262Y87633D01*
X-47138Y87643D01*
X-47014Y87649D01*
X-46890Y87651D01*
X-40963Y87651D01*
X-40963Y95553D01*
X-50841Y95553D01*
X51036Y96203D02*
X51036Y78423D01*
X51036Y96203D02*
X46098Y96203D01*
X45958Y96201D01*
X45819Y96195D01*
X45679Y96185D01*
X45540Y96171D01*
X45401Y96154D01*
X45263Y96132D01*
X45126Y96106D01*
X44989Y96077D01*
X44853Y96044D01*
X44719Y96007D01*
X44585Y95966D01*
X44453Y95921D01*
X44321Y95872D01*
X44192Y95820D01*
X44064Y95765D01*
X43937Y95705D01*
X43812Y95642D01*
X43689Y95576D01*
X43568Y95506D01*
X43449Y95433D01*
X43332Y95356D01*
X43218Y95276D01*
X43105Y95193D01*
X42995Y95107D01*
X42888Y95017D01*
X42783Y94925D01*
X42681Y94830D01*
X42581Y94732D01*
X42484Y94631D01*
X42390Y94527D01*
X42300Y94421D01*
X42212Y94312D01*
X42127Y94201D01*
X42046Y94087D01*
X41967Y93972D01*
X41892Y93854D01*
X41821Y93733D01*
X41753Y93611D01*
X41688Y93488D01*
X41627Y93362D01*
X41569Y93234D01*
X41515Y93106D01*
X41465Y92975D01*
X41418Y92843D01*
X41375Y92710D01*
X41336Y92576D01*
X41301Y92441D01*
X41270Y92305D01*
X41242Y92167D01*
X41219Y92030D01*
X41199Y91891D01*
X41183Y91752D01*
X41171Y91613D01*
X41163Y91474D01*
X41159Y91334D01*
X41159Y91194D01*
X41163Y91054D01*
X41171Y90915D01*
X41183Y90776D01*
X41199Y90637D01*
X41219Y90498D01*
X41242Y90361D01*
X41270Y90223D01*
X41301Y90087D01*
X41336Y89952D01*
X41375Y89818D01*
X41418Y89685D01*
X41465Y89553D01*
X41515Y89422D01*
X41569Y89294D01*
X41627Y89166D01*
X41688Y89040D01*
X41753Y88917D01*
X41821Y88794D01*
X41892Y88674D01*
X41967Y88556D01*
X42046Y88441D01*
X42127Y88327D01*
X42212Y88216D01*
X42300Y88107D01*
X42390Y88001D01*
X42484Y87897D01*
X42581Y87796D01*
X42681Y87698D01*
X42783Y87603D01*
X42888Y87511D01*
X42995Y87421D01*
X43105Y87335D01*
X43218Y87252D01*
X43332Y87172D01*
X43449Y87095D01*
X43568Y87022D01*
X43689Y86952D01*
X43812Y86886D01*
X43937Y86823D01*
X44064Y86763D01*
X44192Y86708D01*
X44321Y86656D01*
X44453Y86607D01*
X44585Y86562D01*
X44719Y86521D01*
X44853Y86484D01*
X44989Y86451D01*
X45126Y86422D01*
X45263Y86396D01*
X45401Y86374D01*
X45540Y86357D01*
X45679Y86343D01*
X45819Y86333D01*
X45958Y86327D01*
X46098Y86325D01*
X51036Y86325D01*
X35041Y92251D02*
X30102Y96203D01*
X30102Y78423D01*
X25164Y78423D02*
X35041Y78423D01*
X12936Y-83185D02*
X12936Y-100965D01*
X12936Y-83185D02*
X7998Y-83185D01*
X7858Y-83187D01*
X7719Y-83193D01*
X7579Y-83203D01*
X7440Y-83217D01*
X7301Y-83234D01*
X7163Y-83256D01*
X7026Y-83282D01*
X6889Y-83311D01*
X6753Y-83344D01*
X6619Y-83381D01*
X6485Y-83422D01*
X6353Y-83467D01*
X6221Y-83516D01*
X6092Y-83568D01*
X5964Y-83623D01*
X5837Y-83683D01*
X5712Y-83746D01*
X5589Y-83812D01*
X5468Y-83882D01*
X5349Y-83955D01*
X5232Y-84032D01*
X5118Y-84112D01*
X5005Y-84195D01*
X4895Y-84281D01*
X4788Y-84371D01*
X4683Y-84463D01*
X4581Y-84558D01*
X4481Y-84656D01*
X4384Y-84757D01*
X4290Y-84861D01*
X4200Y-84967D01*
X4112Y-85076D01*
X4027Y-85187D01*
X3946Y-85301D01*
X3867Y-85416D01*
X3792Y-85534D01*
X3721Y-85655D01*
X3653Y-85777D01*
X3588Y-85900D01*
X3527Y-86026D01*
X3469Y-86154D01*
X3415Y-86282D01*
X3365Y-86413D01*
X3318Y-86545D01*
X3275Y-86678D01*
X3236Y-86812D01*
X3201Y-86947D01*
X3170Y-87083D01*
X3142Y-87221D01*
X3119Y-87358D01*
X3099Y-87497D01*
X3083Y-87636D01*
X3071Y-87775D01*
X3063Y-87914D01*
X3059Y-88054D01*
X3059Y-88194D01*
X3063Y-88334D01*
X3071Y-88473D01*
X3083Y-88612D01*
X3099Y-88751D01*
X3119Y-88890D01*
X3142Y-89027D01*
X3170Y-89165D01*
X3201Y-89301D01*
X3236Y-89436D01*
X3275Y-89570D01*
X3318Y-89703D01*
X3365Y-89835D01*
X3415Y-89966D01*
X3469Y-90094D01*
X3527Y-90222D01*
X3588Y-90348D01*
X3653Y-90471D01*
X3721Y-90594D01*
X3792Y-90714D01*
X3867Y-90832D01*
X3946Y-90947D01*
X4027Y-91061D01*
X4112Y-91172D01*
X4200Y-91281D01*
X4290Y-91387D01*
X4384Y-91491D01*
X4481Y-91592D01*
X4581Y-91690D01*
X4683Y-91785D01*
X4788Y-91877D01*
X4895Y-91967D01*
X5005Y-92053D01*
X5118Y-92136D01*
X5232Y-92216D01*
X5349Y-92293D01*
X5468Y-92366D01*
X5589Y-92436D01*
X5712Y-92502D01*
X5837Y-92565D01*
X5964Y-92625D01*
X6092Y-92680D01*
X6221Y-92732D01*
X6353Y-92781D01*
X6485Y-92826D01*
X6619Y-92867D01*
X6753Y-92904D01*
X6889Y-92937D01*
X7026Y-92966D01*
X7163Y-92992D01*
X7301Y-93014D01*
X7440Y-93031D01*
X7579Y-93045D01*
X7719Y-93055D01*
X7858Y-93061D01*
X7998Y-93063D01*
X12936Y-93063D01*
X-3059Y-100965D02*
X-7998Y-100965D01*
X-8138Y-100963D01*
X-8277Y-100957D01*
X-8417Y-100947D01*
X-8556Y-100933D01*
X-8695Y-100916D01*
X-8833Y-100894D01*
X-8970Y-100868D01*
X-9107Y-100839D01*
X-9243Y-100806D01*
X-9377Y-100769D01*
X-9511Y-100728D01*
X-9643Y-100683D01*
X-9775Y-100634D01*
X-9904Y-100582D01*
X-10032Y-100527D01*
X-10159Y-100467D01*
X-10284Y-100404D01*
X-10407Y-100338D01*
X-10528Y-100268D01*
X-10647Y-100195D01*
X-10764Y-100118D01*
X-10878Y-100038D01*
X-10991Y-99955D01*
X-11101Y-99869D01*
X-11208Y-99779D01*
X-11313Y-99687D01*
X-11415Y-99592D01*
X-11515Y-99494D01*
X-11612Y-99393D01*
X-11706Y-99289D01*
X-11796Y-99183D01*
X-11884Y-99074D01*
X-11969Y-98963D01*
X-12050Y-98849D01*
X-12129Y-98734D01*
X-12204Y-98616D01*
X-12275Y-98496D01*
X-12343Y-98373D01*
X-12408Y-98250D01*
X-12469Y-98124D01*
X-12527Y-97996D01*
X-12581Y-97868D01*
X-12631Y-97737D01*
X-12678Y-97605D01*
X-12721Y-97472D01*
X-12760Y-97338D01*
X-12795Y-97203D01*
X-12826Y-97067D01*
X-12854Y-96929D01*
X-12877Y-96792D01*
X-12897Y-96653D01*
X-12913Y-96514D01*
X-12925Y-96375D01*
X-12933Y-96236D01*
X-12937Y-96096D01*
X-12937Y-95956D01*
X-12933Y-95816D01*
X-12925Y-95677D01*
X-12913Y-95538D01*
X-12897Y-95399D01*
X-12877Y-95260D01*
X-12854Y-95123D01*
X-12826Y-94985D01*
X-12795Y-94849D01*
X-12760Y-94714D01*
X-12721Y-94580D01*
X-12678Y-94447D01*
X-12631Y-94315D01*
X-12581Y-94184D01*
X-12527Y-94056D01*
X-12469Y-93928D01*
X-12408Y-93802D01*
X-12343Y-93679D01*
X-12275Y-93557D01*
X-12204Y-93436D01*
X-12129Y-93318D01*
X-12050Y-93203D01*
X-11969Y-93089D01*
X-11884Y-92978D01*
X-11796Y-92869D01*
X-11706Y-92763D01*
X-11612Y-92659D01*
X-11515Y-92558D01*
X-11415Y-92460D01*
X-11313Y-92365D01*
X-11208Y-92273D01*
X-11101Y-92183D01*
X-10991Y-92097D01*
X-10878Y-92014D01*
X-10764Y-91934D01*
X-10647Y-91857D01*
X-10528Y-91784D01*
X-10407Y-91714D01*
X-10284Y-91648D01*
X-10159Y-91585D01*
X-10032Y-91525D01*
X-9904Y-91470D01*
X-9775Y-91418D01*
X-9643Y-91369D01*
X-9511Y-91324D01*
X-9377Y-91283D01*
X-9243Y-91246D01*
X-9107Y-91213D01*
X-8970Y-91184D01*
X-8833Y-91158D01*
X-8695Y-91136D01*
X-8556Y-91119D01*
X-8417Y-91105D01*
X-8277Y-91095D01*
X-8138Y-91089D01*
X-7998Y-91087D01*
X-8985Y-83185D02*
X-3059Y-83185D01*
X-8985Y-83185D02*
X-9109Y-83187D01*
X-9233Y-83193D01*
X-9357Y-83203D01*
X-9480Y-83216D01*
X-9603Y-83234D01*
X-9725Y-83255D01*
X-9847Y-83280D01*
X-9968Y-83309D01*
X-10087Y-83342D01*
X-10206Y-83378D01*
X-10323Y-83419D01*
X-10439Y-83462D01*
X-10554Y-83510D01*
X-10667Y-83561D01*
X-10779Y-83616D01*
X-10888Y-83674D01*
X-10996Y-83735D01*
X-11102Y-83800D01*
X-11206Y-83868D01*
X-11307Y-83940D01*
X-11407Y-84014D01*
X-11503Y-84092D01*
X-11598Y-84172D01*
X-11690Y-84256D01*
X-11779Y-84342D01*
X-11865Y-84431D01*
X-11949Y-84523D01*
X-12029Y-84618D01*
X-12107Y-84714D01*
X-12181Y-84814D01*
X-12253Y-84915D01*
X-12321Y-85019D01*
X-12386Y-85125D01*
X-12447Y-85233D01*
X-12505Y-85342D01*
X-12560Y-85454D01*
X-12611Y-85567D01*
X-12659Y-85682D01*
X-12702Y-85798D01*
X-12743Y-85915D01*
X-12779Y-86034D01*
X-12812Y-86153D01*
X-12841Y-86274D01*
X-12866Y-86396D01*
X-12887Y-86518D01*
X-12905Y-86641D01*
X-12918Y-86764D01*
X-12928Y-86888D01*
X-12934Y-87012D01*
X-12936Y-87136D01*
X-12934Y-87260D01*
X-12928Y-87384D01*
X-12918Y-87508D01*
X-12905Y-87631D01*
X-12887Y-87754D01*
X-12866Y-87876D01*
X-12841Y-87998D01*
X-12812Y-88119D01*
X-12779Y-88238D01*
X-12743Y-88357D01*
X-12702Y-88474D01*
X-12659Y-88590D01*
X-12611Y-88705D01*
X-12560Y-88818D01*
X-12505Y-88930D01*
X-12447Y-89039D01*
X-12386Y-89147D01*
X-12321Y-89253D01*
X-12253Y-89357D01*
X-12181Y-89458D01*
X-12107Y-89558D01*
X-12029Y-89654D01*
X-11949Y-89749D01*
X-11865Y-89841D01*
X-11779Y-89930D01*
X-11690Y-90016D01*
X-11598Y-90100D01*
X-11503Y-90180D01*
X-11407Y-90258D01*
X-11307Y-90332D01*
X-11206Y-90404D01*
X-11102Y-90472D01*
X-10996Y-90537D01*
X-10888Y-90598D01*
X-10779Y-90656D01*
X-10667Y-90711D01*
X-10554Y-90762D01*
X-10439Y-90810D01*
X-10323Y-90853D01*
X-10206Y-90894D01*
X-10087Y-90930D01*
X-9968Y-90963D01*
X-9847Y-90992D01*
X-9725Y-91017D01*
X-9603Y-91038D01*
X-9480Y-91056D01*
X-9357Y-91069D01*
X-9233Y-91079D01*
X-9109Y-91085D01*
X-8985Y-91087D01*
X-5034Y-91087D01*
D12*
X-17844Y-82733D02*
X-17844Y-75946D01*
X-17843Y-82733D02*
X-17845Y-82834D01*
X-17851Y-82935D01*
X-17861Y-83036D01*
X-17874Y-83136D01*
X-17892Y-83236D01*
X-17913Y-83335D01*
X-17939Y-83433D01*
X-17968Y-83530D01*
X-18000Y-83626D01*
X-18037Y-83720D01*
X-18077Y-83813D01*
X-18121Y-83905D01*
X-18168Y-83994D01*
X-18219Y-84082D01*
X-18273Y-84168D01*
X-18330Y-84251D01*
X-18390Y-84333D01*
X-18454Y-84411D01*
X-18520Y-84488D01*
X-18590Y-84561D01*
X-18662Y-84632D01*
X-18737Y-84700D01*
X-18815Y-84765D01*
X-18895Y-84827D01*
X-18977Y-84886D01*
X-19062Y-84942D01*
X-19149Y-84994D01*
X-19237Y-85043D01*
X-19328Y-85089D01*
X-19420Y-85130D01*
X-19514Y-85169D01*
X-19609Y-85203D01*
X-19705Y-85234D01*
X-19803Y-85261D01*
X-19901Y-85285D01*
X-20001Y-85304D01*
X-20101Y-85320D01*
X-20201Y-85332D01*
X-20302Y-85340D01*
X-20403Y-85344D01*
X-20505Y-85344D01*
X-20606Y-85340D01*
X-20707Y-85332D01*
X-20807Y-85320D01*
X-20907Y-85304D01*
X-21007Y-85285D01*
X-21105Y-85261D01*
X-21203Y-85234D01*
X-21299Y-85203D01*
X-21394Y-85169D01*
X-21488Y-85130D01*
X-21580Y-85089D01*
X-21671Y-85043D01*
X-21760Y-84994D01*
X-21846Y-84942D01*
X-21931Y-84886D01*
X-22013Y-84827D01*
X-22093Y-84765D01*
X-22171Y-84700D01*
X-22246Y-84632D01*
X-22318Y-84561D01*
X-22388Y-84488D01*
X-22454Y-84411D01*
X-22518Y-84333D01*
X-22578Y-84251D01*
X-22635Y-84168D01*
X-22689Y-84082D01*
X-22740Y-83994D01*
X-22787Y-83905D01*
X-22831Y-83813D01*
X-22871Y-83720D01*
X-22908Y-83626D01*
X-22940Y-83530D01*
X-22969Y-83433D01*
X-22995Y-83335D01*
X-23016Y-83236D01*
X-23034Y-83136D01*
X-23047Y-83036D01*
X-23057Y-82935D01*
X-23063Y-82834D01*
X-23065Y-82733D01*
X-23065Y-75946D01*
X-27292Y-78034D02*
X-29903Y-75946D01*
X-29903Y-85344D01*
X-32513Y-85344D02*
X-27292Y-85344D01*
D10*
X41758Y-5194D02*
X41758Y14935D01*
D13*
X58611Y4763D02*
X65215Y4763D01*
D12*
X87884Y3366D02*
X89521Y3366D01*
X89521Y3365D02*
X89599Y3367D01*
X89677Y3372D01*
X89754Y3382D01*
X89831Y3395D01*
X89907Y3411D01*
X89982Y3431D01*
X90056Y3455D01*
X90129Y3482D01*
X90201Y3513D01*
X90271Y3547D01*
X90340Y3584D01*
X90406Y3625D01*
X90471Y3669D01*
X90533Y3715D01*
X90593Y3765D01*
X90651Y3817D01*
X90706Y3872D01*
X90758Y3930D01*
X90808Y3990D01*
X90854Y4052D01*
X90898Y4117D01*
X90939Y4184D01*
X90976Y4252D01*
X91010Y4322D01*
X91041Y4394D01*
X91068Y4467D01*
X91092Y4541D01*
X91112Y4616D01*
X91128Y4692D01*
X91141Y4769D01*
X91151Y4846D01*
X91156Y4924D01*
X91158Y5002D01*
X91158Y9095D01*
X91156Y9173D01*
X91151Y9251D01*
X91141Y9328D01*
X91128Y9405D01*
X91112Y9481D01*
X91092Y9556D01*
X91068Y9630D01*
X91041Y9703D01*
X91010Y9775D01*
X90976Y9845D01*
X90939Y9914D01*
X90898Y9980D01*
X90854Y10045D01*
X90808Y10107D01*
X90758Y10167D01*
X90706Y10225D01*
X90651Y10280D01*
X90593Y10332D01*
X90533Y10382D01*
X90471Y10428D01*
X90406Y10472D01*
X90340Y10513D01*
X90271Y10550D01*
X90201Y10584D01*
X90129Y10615D01*
X90056Y10642D01*
X89982Y10666D01*
X89907Y10686D01*
X89831Y10702D01*
X89754Y10715D01*
X89677Y10725D01*
X89599Y10730D01*
X89521Y10732D01*
X87884Y10732D01*
X82788Y10732D02*
X82703Y10730D01*
X82618Y10724D01*
X82534Y10714D01*
X82450Y10701D01*
X82366Y10683D01*
X82284Y10662D01*
X82203Y10637D01*
X82123Y10608D01*
X82044Y10575D01*
X81967Y10539D01*
X81892Y10499D01*
X81818Y10456D01*
X81747Y10410D01*
X81678Y10360D01*
X81611Y10307D01*
X81547Y10251D01*
X81486Y10192D01*
X81427Y10131D01*
X81371Y10067D01*
X81318Y10000D01*
X81268Y9931D01*
X81222Y9860D01*
X81179Y9786D01*
X81139Y9711D01*
X81103Y9634D01*
X81070Y9555D01*
X81041Y9475D01*
X81016Y9394D01*
X80995Y9312D01*
X80977Y9228D01*
X80964Y9144D01*
X80954Y9060D01*
X80948Y8975D01*
X80946Y8890D01*
X82788Y10732D02*
X82884Y10730D01*
X82980Y10724D01*
X83075Y10714D01*
X83170Y10701D01*
X83265Y10683D01*
X83358Y10662D01*
X83451Y10637D01*
X83542Y10608D01*
X83633Y10576D01*
X83722Y10540D01*
X83809Y10500D01*
X83895Y10457D01*
X83979Y10411D01*
X84061Y10361D01*
X84141Y10307D01*
X84218Y10251D01*
X84293Y10191D01*
X84366Y10129D01*
X84436Y10063D01*
X84504Y9995D01*
X84569Y9924D01*
X84630Y9851D01*
X84689Y9775D01*
X84745Y9696D01*
X84797Y9616D01*
X84846Y9533D01*
X84892Y9449D01*
X84934Y9363D01*
X84972Y9275D01*
X85007Y9186D01*
X85039Y9095D01*
X81561Y7458D02*
X81501Y7517D01*
X81444Y7579D01*
X81389Y7643D01*
X81338Y7710D01*
X81289Y7779D01*
X81243Y7849D01*
X81200Y7922D01*
X81160Y7996D01*
X81124Y8072D01*
X81091Y8150D01*
X81061Y8229D01*
X81034Y8309D01*
X81011Y8390D01*
X80992Y8472D01*
X80976Y8554D01*
X80963Y8638D01*
X80954Y8722D01*
X80949Y8806D01*
X80947Y8890D01*
X81560Y7458D02*
X85039Y3366D01*
X80947Y3366D01*
D13*
X-42863Y-33211D02*
X-42863Y-39815D01*
D12*
X-45847Y-64469D02*
X-45847Y-66105D01*
X-45845Y-66183D01*
X-45840Y-66261D01*
X-45830Y-66338D01*
X-45817Y-66415D01*
X-45801Y-66491D01*
X-45781Y-66566D01*
X-45757Y-66640D01*
X-45730Y-66713D01*
X-45699Y-66785D01*
X-45665Y-66855D01*
X-45628Y-66924D01*
X-45587Y-66990D01*
X-45543Y-67055D01*
X-45497Y-67117D01*
X-45447Y-67177D01*
X-45395Y-67235D01*
X-45340Y-67290D01*
X-45282Y-67342D01*
X-45222Y-67392D01*
X-45160Y-67438D01*
X-45095Y-67482D01*
X-45029Y-67523D01*
X-44960Y-67560D01*
X-44890Y-67594D01*
X-44818Y-67625D01*
X-44745Y-67652D01*
X-44671Y-67676D01*
X-44596Y-67696D01*
X-44520Y-67712D01*
X-44443Y-67725D01*
X-44366Y-67735D01*
X-44288Y-67740D01*
X-44210Y-67742D01*
X-40118Y-67742D01*
X-40038Y-67740D01*
X-39958Y-67734D01*
X-39878Y-67724D01*
X-39799Y-67711D01*
X-39720Y-67693D01*
X-39643Y-67672D01*
X-39567Y-67646D01*
X-39492Y-67617D01*
X-39418Y-67585D01*
X-39346Y-67549D01*
X-39276Y-67509D01*
X-39209Y-67466D01*
X-39143Y-67420D01*
X-39080Y-67370D01*
X-39019Y-67318D01*
X-38960Y-67263D01*
X-38905Y-67204D01*
X-38853Y-67144D01*
X-38803Y-67080D01*
X-38757Y-67015D01*
X-38714Y-66947D01*
X-38674Y-66877D01*
X-38638Y-66805D01*
X-38606Y-66731D01*
X-38577Y-66657D01*
X-38552Y-66580D01*
X-38530Y-66503D01*
X-38512Y-66424D01*
X-38499Y-66345D01*
X-38489Y-66266D01*
X-38483Y-66185D01*
X-38481Y-66105D01*
X-38481Y-64469D01*
X-45847Y-61623D02*
X-45847Y-59577D01*
X-45845Y-59488D01*
X-45839Y-59399D01*
X-45829Y-59310D01*
X-45816Y-59222D01*
X-45799Y-59134D01*
X-45777Y-59047D01*
X-45752Y-58962D01*
X-45724Y-58877D01*
X-45691Y-58794D01*
X-45655Y-58712D01*
X-45616Y-58632D01*
X-45573Y-58554D01*
X-45527Y-58478D01*
X-45477Y-58403D01*
X-45424Y-58331D01*
X-45368Y-58262D01*
X-45309Y-58195D01*
X-45248Y-58130D01*
X-45183Y-58069D01*
X-45116Y-58010D01*
X-45047Y-57954D01*
X-44975Y-57901D01*
X-44900Y-57851D01*
X-44824Y-57805D01*
X-44746Y-57762D01*
X-44666Y-57723D01*
X-44584Y-57687D01*
X-44501Y-57654D01*
X-44416Y-57626D01*
X-44331Y-57601D01*
X-44244Y-57579D01*
X-44156Y-57562D01*
X-44068Y-57549D01*
X-43979Y-57539D01*
X-43890Y-57533D01*
X-43801Y-57531D01*
X-43712Y-57533D01*
X-43623Y-57539D01*
X-43534Y-57549D01*
X-43446Y-57562D01*
X-43358Y-57579D01*
X-43271Y-57601D01*
X-43186Y-57626D01*
X-43101Y-57654D01*
X-43018Y-57687D01*
X-42936Y-57723D01*
X-42856Y-57762D01*
X-42778Y-57805D01*
X-42702Y-57851D01*
X-42627Y-57901D01*
X-42555Y-57954D01*
X-42486Y-58010D01*
X-42419Y-58069D01*
X-42354Y-58130D01*
X-42293Y-58195D01*
X-42234Y-58262D01*
X-42178Y-58331D01*
X-42125Y-58403D01*
X-42075Y-58478D01*
X-42029Y-58554D01*
X-41986Y-58632D01*
X-41947Y-58712D01*
X-41911Y-58794D01*
X-41878Y-58877D01*
X-41850Y-58962D01*
X-41825Y-59047D01*
X-41803Y-59134D01*
X-41786Y-59222D01*
X-41773Y-59310D01*
X-41763Y-59399D01*
X-41757Y-59488D01*
X-41755Y-59577D01*
X-38481Y-59168D02*
X-38481Y-61623D01*
X-38481Y-59168D02*
X-38483Y-59089D01*
X-38489Y-59010D01*
X-38498Y-58931D01*
X-38511Y-58853D01*
X-38529Y-58776D01*
X-38549Y-58700D01*
X-38574Y-58625D01*
X-38602Y-58551D01*
X-38633Y-58478D01*
X-38669Y-58407D01*
X-38707Y-58338D01*
X-38749Y-58271D01*
X-38794Y-58206D01*
X-38842Y-58143D01*
X-38893Y-58082D01*
X-38947Y-58025D01*
X-39003Y-57969D01*
X-39062Y-57917D01*
X-39124Y-57867D01*
X-39188Y-57821D01*
X-39254Y-57777D01*
X-39322Y-57737D01*
X-39392Y-57701D01*
X-39464Y-57667D01*
X-39538Y-57637D01*
X-39612Y-57611D01*
X-39688Y-57588D01*
X-39765Y-57570D01*
X-39842Y-57554D01*
X-39921Y-57543D01*
X-39999Y-57535D01*
X-40078Y-57531D01*
X-40158Y-57531D01*
X-40237Y-57535D01*
X-40315Y-57543D01*
X-40394Y-57554D01*
X-40471Y-57570D01*
X-40548Y-57588D01*
X-40624Y-57611D01*
X-40698Y-57637D01*
X-40772Y-57667D01*
X-40844Y-57701D01*
X-40914Y-57737D01*
X-40982Y-57777D01*
X-41048Y-57821D01*
X-41112Y-57867D01*
X-41174Y-57917D01*
X-41233Y-57969D01*
X-41289Y-58025D01*
X-41343Y-58082D01*
X-41394Y-58143D01*
X-41442Y-58206D01*
X-41487Y-58271D01*
X-41529Y-58338D01*
X-41567Y-58407D01*
X-41603Y-58478D01*
X-41634Y-58551D01*
X-41662Y-58625D01*
X-41687Y-58700D01*
X-41707Y-58776D01*
X-41725Y-58853D01*
X-41738Y-58931D01*
X-41747Y-59010D01*
X-41753Y-59089D01*
X-41755Y-59168D01*
X-41755Y-60805D01*
D10*
X-43802Y-16358D02*
X-63932Y-16358D01*
D13*
X-53975Y-33211D02*
X-53975Y-39815D01*
D12*
X-58753Y-64211D02*
X-58753Y-65848D01*
X-58754Y-65848D02*
X-58752Y-65926D01*
X-58747Y-66004D01*
X-58737Y-66081D01*
X-58724Y-66158D01*
X-58708Y-66234D01*
X-58688Y-66309D01*
X-58664Y-66383D01*
X-58637Y-66456D01*
X-58606Y-66528D01*
X-58572Y-66598D01*
X-58535Y-66667D01*
X-58494Y-66733D01*
X-58450Y-66798D01*
X-58404Y-66860D01*
X-58354Y-66920D01*
X-58302Y-66978D01*
X-58247Y-67033D01*
X-58189Y-67085D01*
X-58129Y-67135D01*
X-58067Y-67181D01*
X-58002Y-67225D01*
X-57936Y-67266D01*
X-57867Y-67303D01*
X-57797Y-67337D01*
X-57725Y-67368D01*
X-57652Y-67395D01*
X-57578Y-67419D01*
X-57503Y-67439D01*
X-57427Y-67455D01*
X-57350Y-67468D01*
X-57273Y-67478D01*
X-57195Y-67483D01*
X-57117Y-67485D01*
X-53024Y-67485D01*
X-52944Y-67483D01*
X-52864Y-67477D01*
X-52784Y-67467D01*
X-52705Y-67454D01*
X-52626Y-67436D01*
X-52549Y-67415D01*
X-52473Y-67389D01*
X-52398Y-67360D01*
X-52324Y-67328D01*
X-52252Y-67292D01*
X-52182Y-67252D01*
X-52115Y-67209D01*
X-52049Y-67163D01*
X-51986Y-67113D01*
X-51925Y-67061D01*
X-51866Y-67006D01*
X-51811Y-66947D01*
X-51759Y-66887D01*
X-51709Y-66823D01*
X-51663Y-66758D01*
X-51620Y-66690D01*
X-51580Y-66620D01*
X-51544Y-66548D01*
X-51512Y-66474D01*
X-51483Y-66400D01*
X-51458Y-66323D01*
X-51436Y-66246D01*
X-51418Y-66167D01*
X-51405Y-66088D01*
X-51395Y-66009D01*
X-51389Y-65928D01*
X-51387Y-65848D01*
X-51387Y-64211D01*
X-51387Y-59729D02*
X-57117Y-61366D01*
X-57117Y-57273D01*
X-58753Y-58501D02*
X-55480Y-58501D01*
D13*
X58611Y-6350D02*
X65215Y-6350D01*
D12*
X88281Y-8144D02*
X89918Y-8144D01*
X89996Y-8142D01*
X90074Y-8137D01*
X90151Y-8127D01*
X90228Y-8114D01*
X90304Y-8098D01*
X90379Y-8078D01*
X90453Y-8054D01*
X90526Y-8027D01*
X90598Y-7996D01*
X90668Y-7962D01*
X90737Y-7925D01*
X90803Y-7884D01*
X90868Y-7840D01*
X90930Y-7794D01*
X90990Y-7744D01*
X91048Y-7692D01*
X91103Y-7637D01*
X91155Y-7579D01*
X91205Y-7519D01*
X91251Y-7457D01*
X91295Y-7392D01*
X91336Y-7325D01*
X91373Y-7257D01*
X91407Y-7187D01*
X91438Y-7115D01*
X91465Y-7042D01*
X91489Y-6968D01*
X91509Y-6893D01*
X91525Y-6817D01*
X91538Y-6740D01*
X91548Y-6663D01*
X91553Y-6585D01*
X91555Y-6507D01*
X91555Y-2415D01*
X91553Y-2335D01*
X91547Y-2255D01*
X91537Y-2175D01*
X91524Y-2096D01*
X91506Y-2017D01*
X91485Y-1940D01*
X91459Y-1864D01*
X91430Y-1789D01*
X91398Y-1715D01*
X91362Y-1643D01*
X91322Y-1573D01*
X91279Y-1506D01*
X91233Y-1440D01*
X91183Y-1377D01*
X91131Y-1316D01*
X91076Y-1257D01*
X91017Y-1202D01*
X90957Y-1150D01*
X90893Y-1100D01*
X90828Y-1054D01*
X90760Y-1011D01*
X90690Y-971D01*
X90618Y-935D01*
X90544Y-903D01*
X90470Y-874D01*
X90393Y-849D01*
X90316Y-827D01*
X90237Y-809D01*
X90158Y-796D01*
X90079Y-786D01*
X89998Y-780D01*
X89918Y-778D01*
X88281Y-778D01*
X85436Y-8144D02*
X82980Y-8144D01*
X82900Y-8142D01*
X82820Y-8136D01*
X82740Y-8126D01*
X82661Y-8113D01*
X82582Y-8095D01*
X82505Y-8074D01*
X82429Y-8048D01*
X82354Y-8019D01*
X82280Y-7987D01*
X82208Y-7951D01*
X82138Y-7911D01*
X82071Y-7868D01*
X82005Y-7822D01*
X81942Y-7772D01*
X81881Y-7720D01*
X81822Y-7665D01*
X81767Y-7606D01*
X81715Y-7546D01*
X81665Y-7482D01*
X81619Y-7417D01*
X81576Y-7349D01*
X81536Y-7279D01*
X81500Y-7207D01*
X81468Y-7133D01*
X81439Y-7059D01*
X81414Y-6982D01*
X81392Y-6905D01*
X81374Y-6826D01*
X81361Y-6747D01*
X81351Y-6668D01*
X81345Y-6587D01*
X81343Y-6507D01*
X81344Y-6507D02*
X81344Y-5689D01*
X81343Y-5689D02*
X81345Y-5611D01*
X81350Y-5533D01*
X81360Y-5456D01*
X81373Y-5379D01*
X81389Y-5303D01*
X81409Y-5228D01*
X81433Y-5154D01*
X81460Y-5081D01*
X81491Y-5009D01*
X81525Y-4939D01*
X81562Y-4870D01*
X81603Y-4804D01*
X81647Y-4739D01*
X81693Y-4677D01*
X81743Y-4617D01*
X81795Y-4559D01*
X81850Y-4504D01*
X81908Y-4452D01*
X81968Y-4402D01*
X82030Y-4356D01*
X82095Y-4312D01*
X82162Y-4271D01*
X82230Y-4234D01*
X82300Y-4200D01*
X82372Y-4169D01*
X82445Y-4142D01*
X82519Y-4118D01*
X82594Y-4098D01*
X82670Y-4082D01*
X82747Y-4069D01*
X82824Y-4059D01*
X82902Y-4054D01*
X82980Y-4052D01*
X85436Y-4052D01*
X85436Y-778D01*
X81344Y-778D01*
D13*
X65215Y-15875D02*
X58611Y-15875D01*
D12*
X87627Y-19463D02*
X89263Y-19463D01*
X89341Y-19461D01*
X89419Y-19456D01*
X89496Y-19446D01*
X89573Y-19433D01*
X89649Y-19417D01*
X89724Y-19397D01*
X89798Y-19373D01*
X89871Y-19346D01*
X89943Y-19315D01*
X90013Y-19281D01*
X90082Y-19244D01*
X90148Y-19203D01*
X90213Y-19159D01*
X90275Y-19113D01*
X90335Y-19063D01*
X90393Y-19011D01*
X90448Y-18956D01*
X90500Y-18898D01*
X90550Y-18838D01*
X90596Y-18776D01*
X90640Y-18711D01*
X90681Y-18644D01*
X90718Y-18576D01*
X90752Y-18506D01*
X90783Y-18434D01*
X90810Y-18361D01*
X90834Y-18287D01*
X90854Y-18212D01*
X90870Y-18136D01*
X90883Y-18059D01*
X90893Y-17982D01*
X90898Y-17904D01*
X90900Y-17826D01*
X90900Y-13734D01*
X90898Y-13654D01*
X90892Y-13574D01*
X90882Y-13494D01*
X90869Y-13415D01*
X90851Y-13336D01*
X90830Y-13259D01*
X90804Y-13183D01*
X90775Y-13108D01*
X90743Y-13034D01*
X90707Y-12962D01*
X90667Y-12892D01*
X90624Y-12825D01*
X90578Y-12759D01*
X90528Y-12696D01*
X90476Y-12635D01*
X90421Y-12576D01*
X90362Y-12521D01*
X90302Y-12469D01*
X90238Y-12419D01*
X90173Y-12373D01*
X90105Y-12330D01*
X90035Y-12290D01*
X89963Y-12254D01*
X89889Y-12222D01*
X89815Y-12193D01*
X89738Y-12168D01*
X89661Y-12146D01*
X89582Y-12128D01*
X89503Y-12115D01*
X89424Y-12105D01*
X89343Y-12099D01*
X89263Y-12097D01*
X87627Y-12097D01*
X84781Y-15371D02*
X82326Y-15371D01*
X82326Y-15370D02*
X82248Y-15372D01*
X82170Y-15377D01*
X82093Y-15387D01*
X82016Y-15400D01*
X81940Y-15416D01*
X81865Y-15436D01*
X81791Y-15460D01*
X81718Y-15487D01*
X81646Y-15518D01*
X81576Y-15552D01*
X81508Y-15589D01*
X81441Y-15630D01*
X81376Y-15674D01*
X81314Y-15720D01*
X81254Y-15770D01*
X81196Y-15822D01*
X81141Y-15877D01*
X81089Y-15935D01*
X81039Y-15995D01*
X80993Y-16057D01*
X80949Y-16122D01*
X80908Y-16188D01*
X80871Y-16257D01*
X80837Y-16327D01*
X80806Y-16399D01*
X80779Y-16472D01*
X80755Y-16546D01*
X80735Y-16621D01*
X80719Y-16697D01*
X80706Y-16774D01*
X80696Y-16851D01*
X80691Y-16929D01*
X80689Y-17007D01*
X80689Y-17417D01*
X80691Y-17506D01*
X80697Y-17595D01*
X80707Y-17684D01*
X80720Y-17772D01*
X80737Y-17860D01*
X80759Y-17947D01*
X80784Y-18032D01*
X80812Y-18117D01*
X80845Y-18200D01*
X80881Y-18282D01*
X80920Y-18362D01*
X80963Y-18440D01*
X81009Y-18516D01*
X81059Y-18591D01*
X81112Y-18663D01*
X81168Y-18732D01*
X81227Y-18799D01*
X81288Y-18864D01*
X81353Y-18925D01*
X81420Y-18984D01*
X81489Y-19040D01*
X81561Y-19093D01*
X81636Y-19143D01*
X81712Y-19189D01*
X81790Y-19232D01*
X81870Y-19271D01*
X81952Y-19307D01*
X82035Y-19340D01*
X82120Y-19368D01*
X82205Y-19393D01*
X82292Y-19415D01*
X82380Y-19432D01*
X82468Y-19445D01*
X82557Y-19455D01*
X82646Y-19461D01*
X82735Y-19463D01*
X82824Y-19461D01*
X82913Y-19455D01*
X83002Y-19445D01*
X83090Y-19432D01*
X83178Y-19415D01*
X83265Y-19393D01*
X83350Y-19368D01*
X83435Y-19340D01*
X83518Y-19307D01*
X83600Y-19271D01*
X83680Y-19232D01*
X83758Y-19189D01*
X83834Y-19143D01*
X83909Y-19093D01*
X83981Y-19040D01*
X84050Y-18984D01*
X84117Y-18925D01*
X84182Y-18864D01*
X84243Y-18799D01*
X84302Y-18732D01*
X84358Y-18663D01*
X84411Y-18591D01*
X84461Y-18516D01*
X84507Y-18440D01*
X84550Y-18362D01*
X84589Y-18282D01*
X84625Y-18200D01*
X84658Y-18117D01*
X84686Y-18032D01*
X84711Y-17947D01*
X84733Y-17860D01*
X84750Y-17772D01*
X84763Y-17684D01*
X84773Y-17595D01*
X84779Y-17506D01*
X84781Y-17417D01*
X84781Y-15371D01*
X84779Y-15257D01*
X84773Y-15143D01*
X84763Y-15029D01*
X84749Y-14915D01*
X84731Y-14802D01*
X84709Y-14690D01*
X84684Y-14579D01*
X84654Y-14469D01*
X84621Y-14359D01*
X84584Y-14251D01*
X84543Y-14145D01*
X84498Y-14039D01*
X84450Y-13936D01*
X84398Y-13834D01*
X84342Y-13734D01*
X84284Y-13636D01*
X84221Y-13540D01*
X84156Y-13447D01*
X84087Y-13355D01*
X84015Y-13267D01*
X83940Y-13180D01*
X83862Y-13097D01*
X83781Y-13016D01*
X83698Y-12938D01*
X83612Y-12863D01*
X83523Y-12791D01*
X83431Y-12722D01*
X83338Y-12657D01*
X83242Y-12595D01*
X83144Y-12536D01*
X83044Y-12480D01*
X82942Y-12428D01*
X82839Y-12380D01*
X82734Y-12335D01*
X82627Y-12294D01*
X82519Y-12257D01*
X82409Y-12224D01*
X82299Y-12194D01*
X82188Y-12169D01*
X82076Y-12147D01*
X81963Y-12129D01*
X81849Y-12115D01*
X81735Y-12105D01*
X81621Y-12099D01*
X81507Y-12097D01*
D10*
X41758Y9093D02*
X41758Y29223D01*
D13*
X58611Y19050D02*
X65215Y19050D01*
D12*
X87487Y16859D02*
X89124Y16859D01*
X89202Y16861D01*
X89280Y16866D01*
X89357Y16876D01*
X89434Y16889D01*
X89510Y16905D01*
X89585Y16925D01*
X89659Y16949D01*
X89732Y16976D01*
X89804Y17007D01*
X89874Y17041D01*
X89943Y17078D01*
X90009Y17119D01*
X90074Y17163D01*
X90136Y17209D01*
X90196Y17259D01*
X90254Y17311D01*
X90309Y17366D01*
X90361Y17424D01*
X90411Y17484D01*
X90457Y17546D01*
X90501Y17611D01*
X90542Y17678D01*
X90579Y17746D01*
X90613Y17816D01*
X90644Y17888D01*
X90671Y17961D01*
X90695Y18035D01*
X90715Y18110D01*
X90731Y18186D01*
X90744Y18263D01*
X90754Y18340D01*
X90759Y18418D01*
X90761Y18496D01*
X90761Y22588D01*
X90759Y22666D01*
X90754Y22744D01*
X90744Y22821D01*
X90731Y22898D01*
X90715Y22974D01*
X90695Y23049D01*
X90671Y23123D01*
X90644Y23196D01*
X90613Y23268D01*
X90579Y23338D01*
X90542Y23407D01*
X90501Y23473D01*
X90457Y23538D01*
X90411Y23600D01*
X90361Y23660D01*
X90309Y23718D01*
X90254Y23773D01*
X90196Y23825D01*
X90136Y23875D01*
X90074Y23921D01*
X90009Y23965D01*
X89943Y24006D01*
X89874Y24043D01*
X89804Y24077D01*
X89732Y24108D01*
X89659Y24135D01*
X89585Y24159D01*
X89510Y24179D01*
X89434Y24195D01*
X89357Y24208D01*
X89280Y24218D01*
X89202Y24223D01*
X89124Y24225D01*
X87487Y24225D01*
X84642Y24225D02*
X84642Y23407D01*
X84642Y24225D02*
X80550Y24225D01*
X82596Y16859D01*
X55578Y55553D02*
X48212Y55553D01*
X55578Y55553D02*
X55578Y58827D01*
X52305Y58827D02*
X52305Y55553D01*
X52305Y61995D02*
X52305Y64041D01*
X52304Y64041D02*
X52302Y64130D01*
X52296Y64219D01*
X52286Y64308D01*
X52273Y64396D01*
X52256Y64484D01*
X52234Y64571D01*
X52209Y64656D01*
X52181Y64741D01*
X52148Y64824D01*
X52112Y64906D01*
X52073Y64986D01*
X52030Y65064D01*
X51984Y65140D01*
X51934Y65215D01*
X51881Y65287D01*
X51825Y65356D01*
X51766Y65423D01*
X51705Y65488D01*
X51640Y65549D01*
X51573Y65608D01*
X51504Y65664D01*
X51432Y65717D01*
X51357Y65767D01*
X51281Y65813D01*
X51203Y65856D01*
X51123Y65895D01*
X51041Y65931D01*
X50958Y65964D01*
X50873Y65992D01*
X50788Y66017D01*
X50701Y66039D01*
X50613Y66056D01*
X50525Y66069D01*
X50436Y66079D01*
X50347Y66085D01*
X50258Y66087D01*
X50169Y66085D01*
X50080Y66079D01*
X49991Y66069D01*
X49903Y66056D01*
X49815Y66039D01*
X49728Y66017D01*
X49643Y65992D01*
X49558Y65964D01*
X49475Y65931D01*
X49393Y65895D01*
X49313Y65856D01*
X49235Y65813D01*
X49159Y65767D01*
X49084Y65717D01*
X49012Y65664D01*
X48943Y65608D01*
X48876Y65549D01*
X48811Y65488D01*
X48750Y65423D01*
X48691Y65356D01*
X48635Y65287D01*
X48582Y65215D01*
X48532Y65140D01*
X48486Y65064D01*
X48443Y64986D01*
X48404Y64906D01*
X48368Y64824D01*
X48335Y64741D01*
X48307Y64656D01*
X48282Y64571D01*
X48260Y64484D01*
X48243Y64396D01*
X48230Y64308D01*
X48220Y64219D01*
X48214Y64130D01*
X48212Y64041D01*
X48212Y61995D01*
X55578Y61995D01*
X55578Y64041D01*
X55576Y64120D01*
X55570Y64199D01*
X55561Y64278D01*
X55548Y64356D01*
X55530Y64433D01*
X55510Y64509D01*
X55485Y64584D01*
X55457Y64658D01*
X55426Y64731D01*
X55390Y64802D01*
X55352Y64871D01*
X55310Y64938D01*
X55265Y65003D01*
X55217Y65066D01*
X55166Y65127D01*
X55112Y65184D01*
X55056Y65240D01*
X54997Y65292D01*
X54935Y65342D01*
X54871Y65388D01*
X54805Y65432D01*
X54737Y65472D01*
X54667Y65508D01*
X54595Y65542D01*
X54521Y65572D01*
X54447Y65598D01*
X54371Y65621D01*
X54294Y65639D01*
X54217Y65655D01*
X54138Y65666D01*
X54060Y65674D01*
X53981Y65678D01*
X53901Y65678D01*
X53822Y65674D01*
X53744Y65666D01*
X53665Y65655D01*
X53588Y65639D01*
X53511Y65621D01*
X53435Y65598D01*
X53361Y65572D01*
X53287Y65542D01*
X53215Y65508D01*
X53145Y65472D01*
X53077Y65432D01*
X53011Y65388D01*
X52947Y65342D01*
X52885Y65292D01*
X52826Y65240D01*
X52770Y65184D01*
X52716Y65127D01*
X52665Y65066D01*
X52617Y65003D01*
X52572Y64938D01*
X52530Y64871D01*
X52492Y64802D01*
X52456Y64731D01*
X52425Y64658D01*
X52397Y64584D01*
X52372Y64509D01*
X52352Y64433D01*
X52334Y64356D01*
X52321Y64278D01*
X52312Y64199D01*
X52306Y64120D01*
X52304Y64041D01*
X53941Y68949D02*
X55578Y70995D01*
X48212Y70995D01*
X48212Y68949D02*
X48212Y73041D01*
X69040Y57531D02*
X76406Y57531D01*
X76406Y59577D01*
X76404Y59666D01*
X76398Y59755D01*
X76388Y59844D01*
X76375Y59932D01*
X76358Y60020D01*
X76336Y60107D01*
X76311Y60192D01*
X76283Y60277D01*
X76250Y60360D01*
X76214Y60442D01*
X76175Y60522D01*
X76132Y60600D01*
X76086Y60676D01*
X76036Y60751D01*
X75983Y60823D01*
X75927Y60892D01*
X75868Y60959D01*
X75807Y61024D01*
X75742Y61085D01*
X75675Y61144D01*
X75606Y61200D01*
X75534Y61253D01*
X75459Y61303D01*
X75383Y61349D01*
X75305Y61392D01*
X75225Y61431D01*
X75143Y61467D01*
X75060Y61500D01*
X74975Y61528D01*
X74890Y61553D01*
X74803Y61575D01*
X74715Y61592D01*
X74627Y61605D01*
X74538Y61615D01*
X74449Y61621D01*
X74360Y61623D01*
X74271Y61621D01*
X74182Y61615D01*
X74093Y61605D01*
X74005Y61592D01*
X73917Y61575D01*
X73830Y61553D01*
X73745Y61528D01*
X73660Y61500D01*
X73577Y61467D01*
X73495Y61431D01*
X73415Y61392D01*
X73337Y61349D01*
X73261Y61303D01*
X73186Y61253D01*
X73114Y61200D01*
X73045Y61144D01*
X72978Y61085D01*
X72913Y61024D01*
X72852Y60959D01*
X72793Y60892D01*
X72737Y60823D01*
X72684Y60751D01*
X72634Y60676D01*
X72588Y60600D01*
X72545Y60522D01*
X72506Y60442D01*
X72470Y60360D01*
X72437Y60277D01*
X72409Y60192D01*
X72384Y60107D01*
X72362Y60020D01*
X72345Y59932D01*
X72332Y59844D01*
X72322Y59755D01*
X72316Y59666D01*
X72314Y59577D01*
X72314Y57531D01*
X72314Y59986D02*
X69040Y61623D01*
X74565Y68888D02*
X74650Y68886D01*
X74735Y68880D01*
X74819Y68870D01*
X74903Y68857D01*
X74987Y68839D01*
X75069Y68818D01*
X75150Y68793D01*
X75230Y68764D01*
X75309Y68731D01*
X75386Y68695D01*
X75461Y68655D01*
X75535Y68612D01*
X75606Y68566D01*
X75675Y68516D01*
X75742Y68463D01*
X75806Y68407D01*
X75867Y68348D01*
X75926Y68287D01*
X75982Y68223D01*
X76035Y68156D01*
X76085Y68087D01*
X76131Y68016D01*
X76174Y67942D01*
X76214Y67867D01*
X76250Y67790D01*
X76283Y67711D01*
X76312Y67631D01*
X76337Y67550D01*
X76358Y67468D01*
X76376Y67384D01*
X76389Y67300D01*
X76399Y67216D01*
X76405Y67131D01*
X76407Y67046D01*
X76405Y66950D01*
X76399Y66854D01*
X76389Y66759D01*
X76376Y66664D01*
X76358Y66569D01*
X76337Y66476D01*
X76312Y66383D01*
X76283Y66292D01*
X76251Y66201D01*
X76215Y66112D01*
X76175Y66025D01*
X76132Y65939D01*
X76086Y65855D01*
X76036Y65773D01*
X75982Y65693D01*
X75926Y65616D01*
X75866Y65541D01*
X75804Y65468D01*
X75738Y65398D01*
X75670Y65330D01*
X75599Y65265D01*
X75526Y65204D01*
X75450Y65145D01*
X75371Y65089D01*
X75291Y65037D01*
X75208Y64988D01*
X75124Y64942D01*
X75038Y64900D01*
X74950Y64862D01*
X74861Y64827D01*
X74770Y64795D01*
X73133Y68273D02*
X73192Y68333D01*
X73254Y68390D01*
X73318Y68445D01*
X73385Y68496D01*
X73454Y68545D01*
X73524Y68591D01*
X73597Y68634D01*
X73671Y68674D01*
X73747Y68710D01*
X73825Y68743D01*
X73904Y68773D01*
X73984Y68800D01*
X74065Y68823D01*
X74147Y68842D01*
X74229Y68858D01*
X74313Y68871D01*
X74397Y68880D01*
X74481Y68885D01*
X74565Y68887D01*
X73133Y68273D02*
X69040Y64795D01*
X69040Y68887D01*
D13*
X-41275Y12573D02*
X-41275Y6223D01*
D12*
X-37687Y25966D02*
X-45053Y25966D01*
X-37687Y25966D02*
X-37687Y28012D01*
X-37689Y28101D01*
X-37695Y28190D01*
X-37705Y28279D01*
X-37718Y28367D01*
X-37735Y28455D01*
X-37757Y28542D01*
X-37782Y28627D01*
X-37810Y28712D01*
X-37843Y28795D01*
X-37879Y28877D01*
X-37918Y28957D01*
X-37961Y29035D01*
X-38007Y29111D01*
X-38057Y29186D01*
X-38110Y29258D01*
X-38166Y29327D01*
X-38225Y29394D01*
X-38286Y29459D01*
X-38351Y29520D01*
X-38418Y29579D01*
X-38487Y29635D01*
X-38559Y29688D01*
X-38634Y29738D01*
X-38710Y29784D01*
X-38788Y29827D01*
X-38868Y29866D01*
X-38950Y29902D01*
X-39033Y29935D01*
X-39118Y29963D01*
X-39203Y29988D01*
X-39290Y30010D01*
X-39378Y30027D01*
X-39466Y30040D01*
X-39555Y30050D01*
X-39644Y30056D01*
X-39733Y30058D01*
X-39822Y30056D01*
X-39911Y30050D01*
X-40000Y30040D01*
X-40088Y30027D01*
X-40176Y30010D01*
X-40263Y29988D01*
X-40348Y29963D01*
X-40433Y29935D01*
X-40516Y29902D01*
X-40598Y29866D01*
X-40678Y29827D01*
X-40756Y29784D01*
X-40832Y29738D01*
X-40907Y29688D01*
X-40979Y29635D01*
X-41048Y29579D01*
X-41115Y29520D01*
X-41180Y29459D01*
X-41241Y29394D01*
X-41300Y29327D01*
X-41356Y29258D01*
X-41409Y29186D01*
X-41459Y29111D01*
X-41505Y29035D01*
X-41548Y28957D01*
X-41587Y28877D01*
X-41623Y28795D01*
X-41656Y28712D01*
X-41684Y28627D01*
X-41709Y28542D01*
X-41731Y28455D01*
X-41748Y28367D01*
X-41761Y28279D01*
X-41771Y28190D01*
X-41777Y28101D01*
X-41779Y28012D01*
X-41780Y28012D02*
X-41780Y25966D01*
X-41780Y28421D02*
X-45053Y30058D01*
X-45053Y33230D02*
X-45053Y35276D01*
X-45051Y35365D01*
X-45045Y35454D01*
X-45035Y35543D01*
X-45022Y35631D01*
X-45005Y35719D01*
X-44983Y35806D01*
X-44958Y35891D01*
X-44930Y35976D01*
X-44897Y36059D01*
X-44861Y36141D01*
X-44822Y36221D01*
X-44779Y36299D01*
X-44733Y36375D01*
X-44683Y36450D01*
X-44630Y36522D01*
X-44574Y36591D01*
X-44515Y36658D01*
X-44454Y36723D01*
X-44389Y36784D01*
X-44322Y36843D01*
X-44253Y36899D01*
X-44181Y36952D01*
X-44106Y37002D01*
X-44030Y37048D01*
X-43952Y37091D01*
X-43872Y37130D01*
X-43790Y37166D01*
X-43707Y37199D01*
X-43622Y37227D01*
X-43537Y37252D01*
X-43450Y37274D01*
X-43362Y37291D01*
X-43274Y37304D01*
X-43185Y37314D01*
X-43096Y37320D01*
X-43007Y37322D01*
X-42918Y37320D01*
X-42829Y37314D01*
X-42740Y37304D01*
X-42652Y37291D01*
X-42564Y37274D01*
X-42477Y37252D01*
X-42392Y37227D01*
X-42307Y37199D01*
X-42224Y37166D01*
X-42142Y37130D01*
X-42062Y37091D01*
X-41984Y37048D01*
X-41908Y37002D01*
X-41833Y36952D01*
X-41761Y36899D01*
X-41692Y36843D01*
X-41625Y36784D01*
X-41560Y36723D01*
X-41499Y36658D01*
X-41440Y36591D01*
X-41384Y36522D01*
X-41331Y36450D01*
X-41281Y36375D01*
X-41235Y36299D01*
X-41192Y36221D01*
X-41153Y36141D01*
X-41117Y36059D01*
X-41084Y35976D01*
X-41056Y35891D01*
X-41031Y35806D01*
X-41009Y35719D01*
X-40992Y35631D01*
X-40979Y35543D01*
X-40969Y35454D01*
X-40963Y35365D01*
X-40961Y35276D01*
X-37687Y35685D02*
X-37687Y33230D01*
X-37687Y35685D02*
X-37689Y35764D01*
X-37695Y35843D01*
X-37704Y35922D01*
X-37717Y36000D01*
X-37735Y36077D01*
X-37755Y36153D01*
X-37780Y36228D01*
X-37808Y36302D01*
X-37839Y36375D01*
X-37875Y36446D01*
X-37913Y36515D01*
X-37955Y36582D01*
X-38000Y36647D01*
X-38048Y36710D01*
X-38099Y36771D01*
X-38153Y36828D01*
X-38209Y36884D01*
X-38268Y36936D01*
X-38330Y36986D01*
X-38394Y37032D01*
X-38460Y37076D01*
X-38528Y37116D01*
X-38598Y37152D01*
X-38670Y37186D01*
X-38744Y37216D01*
X-38818Y37242D01*
X-38894Y37265D01*
X-38971Y37283D01*
X-39048Y37299D01*
X-39127Y37310D01*
X-39205Y37318D01*
X-39284Y37322D01*
X-39364Y37322D01*
X-39443Y37318D01*
X-39521Y37310D01*
X-39600Y37299D01*
X-39677Y37283D01*
X-39754Y37265D01*
X-39830Y37242D01*
X-39904Y37216D01*
X-39978Y37186D01*
X-40050Y37152D01*
X-40120Y37116D01*
X-40188Y37076D01*
X-40254Y37032D01*
X-40318Y36986D01*
X-40380Y36936D01*
X-40439Y36884D01*
X-40495Y36828D01*
X-40549Y36771D01*
X-40600Y36710D01*
X-40648Y36647D01*
X-40693Y36582D01*
X-40735Y36515D01*
X-40773Y36446D01*
X-40809Y36375D01*
X-40840Y36302D01*
X-40868Y36228D01*
X-40893Y36153D01*
X-40913Y36077D01*
X-40931Y36000D01*
X-40944Y35922D01*
X-40953Y35843D01*
X-40959Y35764D01*
X-40961Y35685D01*
X-40961Y34048D01*
D10*
X36613Y-71755D02*
X41593Y-71755D01*
X-32068Y-71755D02*
X-32068Y-66775D01*
X-32068Y1905D02*
X-27088Y1905D01*
X41593Y1905D02*
X41593Y-3075D01*
X41593Y-66775D02*
X41593Y-71755D01*
X-27088Y-71755D02*
X-32068Y-71755D01*
X-32068Y-3075D02*
X-32068Y1905D01*
X36613Y1905D02*
X41593Y1905D01*
D14*
X35441Y-1080D02*
X35443Y-984D01*
X35449Y-888D01*
X35459Y-792D01*
X35473Y-697D01*
X35490Y-602D01*
X35512Y-509D01*
X35537Y-416D01*
X35566Y-324D01*
X35599Y-234D01*
X35636Y-145D01*
X35676Y-58D01*
X35720Y28D01*
X35767Y112D01*
X35818Y194D01*
X35871Y273D01*
X35929Y350D01*
X35989Y425D01*
X36052Y498D01*
X36118Y568D01*
X36188Y634D01*
X36259Y699D01*
X36334Y760D01*
X36410Y818D01*
X36489Y872D01*
X36571Y924D01*
X36654Y972D01*
X36739Y1016D01*
X36826Y1058D01*
X36915Y1095D01*
X37005Y1129D01*
X37096Y1159D01*
X37188Y1185D01*
X37282Y1208D01*
X37376Y1226D01*
X37471Y1241D01*
X37567Y1252D01*
X37663Y1259D01*
X37759Y1262D01*
X37855Y1261D01*
X37951Y1256D01*
X38047Y1247D01*
X38142Y1234D01*
X38237Y1218D01*
X38331Y1197D01*
X38424Y1173D01*
X38516Y1144D01*
X38607Y1112D01*
X38696Y1077D01*
X38784Y1037D01*
X38870Y995D01*
X38954Y948D01*
X39036Y898D01*
X39116Y845D01*
X39194Y789D01*
X39270Y729D01*
X39343Y667D01*
X39413Y601D01*
X39481Y533D01*
X39546Y462D01*
X39608Y388D01*
X39666Y312D01*
X39722Y234D01*
X39774Y153D01*
X39823Y70D01*
X39869Y-15D01*
X39911Y-101D01*
X39949Y-189D01*
X39984Y-279D01*
X40015Y-370D01*
X40042Y-462D01*
X40066Y-556D01*
X40085Y-650D01*
X40101Y-745D01*
X40113Y-840D01*
X40121Y-936D01*
X40125Y-1032D01*
X40125Y-1128D01*
X40121Y-1224D01*
X40113Y-1320D01*
X40101Y-1415D01*
X40085Y-1510D01*
X40066Y-1604D01*
X40042Y-1698D01*
X40015Y-1790D01*
X39984Y-1881D01*
X39949Y-1971D01*
X39911Y-2059D01*
X39869Y-2145D01*
X39823Y-2230D01*
X39774Y-2313D01*
X39722Y-2394D01*
X39666Y-2472D01*
X39608Y-2548D01*
X39546Y-2622D01*
X39481Y-2693D01*
X39413Y-2761D01*
X39343Y-2827D01*
X39270Y-2889D01*
X39194Y-2949D01*
X39116Y-3005D01*
X39036Y-3058D01*
X38954Y-3108D01*
X38870Y-3155D01*
X38784Y-3197D01*
X38696Y-3237D01*
X38607Y-3272D01*
X38516Y-3304D01*
X38424Y-3333D01*
X38331Y-3357D01*
X38237Y-3378D01*
X38142Y-3394D01*
X38047Y-3407D01*
X37951Y-3416D01*
X37855Y-3421D01*
X37759Y-3422D01*
X37663Y-3419D01*
X37567Y-3412D01*
X37471Y-3401D01*
X37376Y-3386D01*
X37282Y-3368D01*
X37188Y-3345D01*
X37096Y-3319D01*
X37005Y-3289D01*
X36915Y-3255D01*
X36826Y-3218D01*
X36739Y-3176D01*
X36654Y-3132D01*
X36571Y-3084D01*
X36489Y-3032D01*
X36410Y-2978D01*
X36334Y-2920D01*
X36259Y-2859D01*
X36188Y-2794D01*
X36118Y-2728D01*
X36052Y-2658D01*
X35989Y-2585D01*
X35929Y-2510D01*
X35871Y-2433D01*
X35818Y-2354D01*
X35767Y-2272D01*
X35720Y-2188D01*
X35676Y-2102D01*
X35636Y-2015D01*
X35599Y-1926D01*
X35566Y-1836D01*
X35537Y-1744D01*
X35512Y-1651D01*
X35490Y-1558D01*
X35473Y-1463D01*
X35459Y-1368D01*
X35449Y-1272D01*
X35443Y-1176D01*
X35441Y-1080D01*
D12*
X59558Y-65675D02*
X64468Y-73041D01*
X59558Y-73041D02*
X64468Y-65675D01*
X56744Y-67312D02*
X54698Y-65675D01*
X54698Y-73041D01*
X56744Y-73041D02*
X52652Y-73041D01*
D15*
X-64938Y-45263D02*
X-64938Y-27763D01*
X-77938Y-27763D02*
X-77938Y-45263D01*
D12*
X-75844Y-66332D02*
X-68478Y-66332D01*
X-68478Y-64285D01*
X-68480Y-64196D01*
X-68486Y-64107D01*
X-68496Y-64018D01*
X-68509Y-63930D01*
X-68526Y-63842D01*
X-68548Y-63755D01*
X-68573Y-63670D01*
X-68601Y-63585D01*
X-68634Y-63502D01*
X-68670Y-63420D01*
X-68709Y-63340D01*
X-68752Y-63262D01*
X-68798Y-63186D01*
X-68848Y-63111D01*
X-68901Y-63039D01*
X-68957Y-62970D01*
X-69016Y-62903D01*
X-69077Y-62838D01*
X-69142Y-62777D01*
X-69209Y-62718D01*
X-69278Y-62662D01*
X-69350Y-62609D01*
X-69425Y-62559D01*
X-69501Y-62513D01*
X-69579Y-62470D01*
X-69659Y-62431D01*
X-69741Y-62395D01*
X-69824Y-62362D01*
X-69909Y-62334D01*
X-69994Y-62309D01*
X-70081Y-62287D01*
X-70169Y-62270D01*
X-70257Y-62257D01*
X-70346Y-62247D01*
X-70435Y-62241D01*
X-70524Y-62239D01*
X-73798Y-62239D01*
X-73887Y-62241D01*
X-73976Y-62247D01*
X-74065Y-62257D01*
X-74153Y-62270D01*
X-74241Y-62287D01*
X-74328Y-62309D01*
X-74413Y-62334D01*
X-74498Y-62362D01*
X-74581Y-62395D01*
X-74663Y-62431D01*
X-74743Y-62470D01*
X-74821Y-62513D01*
X-74897Y-62559D01*
X-74972Y-62609D01*
X-75044Y-62662D01*
X-75113Y-62718D01*
X-75180Y-62777D01*
X-75245Y-62838D01*
X-75306Y-62903D01*
X-75365Y-62970D01*
X-75421Y-63039D01*
X-75474Y-63111D01*
X-75524Y-63186D01*
X-75570Y-63262D01*
X-75613Y-63340D01*
X-75652Y-63420D01*
X-75688Y-63502D01*
X-75721Y-63585D01*
X-75749Y-63670D01*
X-75774Y-63755D01*
X-75796Y-63842D01*
X-75813Y-63930D01*
X-75826Y-64018D01*
X-75836Y-64107D01*
X-75842Y-64196D01*
X-75844Y-64285D01*
X-75844Y-66332D01*
X-68478Y-56522D02*
X-68480Y-56437D01*
X-68486Y-56352D01*
X-68496Y-56268D01*
X-68509Y-56184D01*
X-68527Y-56100D01*
X-68548Y-56018D01*
X-68573Y-55937D01*
X-68602Y-55857D01*
X-68635Y-55778D01*
X-68671Y-55701D01*
X-68711Y-55626D01*
X-68754Y-55552D01*
X-68800Y-55481D01*
X-68850Y-55412D01*
X-68903Y-55345D01*
X-68959Y-55281D01*
X-69018Y-55220D01*
X-69079Y-55161D01*
X-69143Y-55105D01*
X-69210Y-55052D01*
X-69279Y-55002D01*
X-69350Y-54956D01*
X-69424Y-54913D01*
X-69499Y-54873D01*
X-69576Y-54837D01*
X-69655Y-54804D01*
X-69735Y-54775D01*
X-69816Y-54750D01*
X-69898Y-54729D01*
X-69982Y-54711D01*
X-70066Y-54698D01*
X-70150Y-54688D01*
X-70235Y-54682D01*
X-70320Y-54680D01*
X-68478Y-56522D02*
X-68480Y-56618D01*
X-68486Y-56714D01*
X-68496Y-56809D01*
X-68509Y-56904D01*
X-68527Y-56999D01*
X-68548Y-57092D01*
X-68573Y-57185D01*
X-68602Y-57276D01*
X-68634Y-57367D01*
X-68670Y-57456D01*
X-68710Y-57543D01*
X-68753Y-57629D01*
X-68799Y-57713D01*
X-68849Y-57795D01*
X-68903Y-57875D01*
X-68959Y-57952D01*
X-69019Y-58027D01*
X-69081Y-58100D01*
X-69147Y-58170D01*
X-69215Y-58238D01*
X-69286Y-58303D01*
X-69359Y-58364D01*
X-69435Y-58423D01*
X-69514Y-58479D01*
X-69594Y-58531D01*
X-69677Y-58580D01*
X-69761Y-58626D01*
X-69847Y-58668D01*
X-69935Y-58706D01*
X-70024Y-58741D01*
X-70115Y-58773D01*
X-71752Y-55294D02*
X-71693Y-55234D01*
X-71631Y-55177D01*
X-71567Y-55122D01*
X-71500Y-55071D01*
X-71431Y-55022D01*
X-71361Y-54976D01*
X-71288Y-54933D01*
X-71214Y-54893D01*
X-71138Y-54857D01*
X-71060Y-54824D01*
X-70981Y-54794D01*
X-70901Y-54767D01*
X-70820Y-54744D01*
X-70738Y-54725D01*
X-70656Y-54709D01*
X-70572Y-54696D01*
X-70488Y-54687D01*
X-70404Y-54682D01*
X-70320Y-54680D01*
X-71752Y-55294D02*
X-75844Y-58772D01*
X-75844Y-54680D01*
M02*
