G04 EAGLE Gerber RS-274X export*
G75*
%MOMM*%
%FSLAX34Y34*%
%LPD*%
%INSoldermask Bottom*%
%IPPOS*%
%AMOC8*
5,1,8,0,0,1.08239X$1,22.5*%
G01*
%ADD10R,1.503200X1.703200*%
%ADD11R,1.203200X1.303200*%
%ADD12R,1.703200X1.503200*%
%ADD13R,1.303200X1.203200*%
%ADD14P,1.869504X8X22.500000*%
%ADD15C,1.727200*%
%ADD16R,0.753200X0.500381*%
%ADD17R,0.500381X0.753200*%
%ADD18R,5.803200X5.803200*%
%ADD19R,1.603197X0.603200*%
%ADD20R,0.703200X1.003200*%
%ADD21C,1.003200*%

G36*
X72022Y79012D02*
X72022Y79012D01*
X72055Y79020D01*
X72104Y79021D01*
X74857Y79574D01*
X74889Y79587D01*
X74936Y79597D01*
X77561Y80594D01*
X77590Y80613D01*
X77635Y80630D01*
X80060Y82046D01*
X80086Y82069D01*
X80127Y82093D01*
X82286Y83889D01*
X82308Y83917D01*
X82345Y83947D01*
X84178Y86074D01*
X84192Y86099D01*
X84213Y86120D01*
X84241Y86186D01*
X84275Y86247D01*
X84279Y86277D01*
X84290Y86303D01*
X84289Y86374D01*
X84297Y86445D01*
X84289Y86473D01*
X84289Y86502D01*
X84261Y86568D01*
X84240Y86636D01*
X84222Y86658D01*
X84210Y86685D01*
X84140Y86756D01*
X84134Y86764D01*
X84123Y86779D01*
X84120Y86781D01*
X84113Y86789D01*
X84103Y86794D01*
X84094Y86804D01*
X56594Y106804D01*
X56567Y106816D01*
X56545Y106835D01*
X56477Y106857D01*
X56413Y106886D01*
X56384Y106887D01*
X56356Y106896D01*
X56285Y106890D01*
X56214Y106892D01*
X56187Y106881D01*
X56158Y106879D01*
X56095Y106845D01*
X56029Y106819D01*
X56008Y106799D01*
X55982Y106785D01*
X55935Y106731D01*
X55928Y106726D01*
X55920Y106714D01*
X55917Y106710D01*
X55887Y106680D01*
X55882Y106670D01*
X55873Y106659D01*
X54415Y104260D01*
X54403Y104227D01*
X54378Y104186D01*
X53335Y101579D01*
X53333Y101569D01*
X53331Y101566D01*
X53326Y101540D01*
X53310Y101500D01*
X52710Y98757D01*
X52710Y98722D01*
X52699Y98675D01*
X52559Y95871D01*
X52564Y95837D01*
X52561Y95789D01*
X52884Y92999D01*
X52895Y92966D01*
X52900Y92918D01*
X53678Y90220D01*
X53692Y90194D01*
X53692Y90193D01*
X53693Y90192D01*
X53694Y90189D01*
X53707Y90143D01*
X54919Y87610D01*
X54939Y87582D01*
X54960Y87539D01*
X56572Y85239D01*
X56597Y85215D01*
X56624Y85176D01*
X58593Y83173D01*
X58621Y83153D01*
X58655Y83119D01*
X60926Y81467D01*
X60957Y81453D01*
X60996Y81425D01*
X63508Y80169D01*
X63542Y80160D01*
X63585Y80139D01*
X66269Y79314D01*
X66304Y79311D01*
X66350Y79296D01*
X69133Y78925D01*
X69167Y78927D01*
X69215Y78920D01*
X72022Y79012D01*
G37*
G36*
X-69181Y78926D02*
X-69181Y78926D01*
X-69133Y78925D01*
X-66350Y79296D01*
X-66317Y79308D01*
X-66269Y79314D01*
X-63585Y80139D01*
X-63554Y80155D01*
X-63508Y80169D01*
X-60996Y81425D01*
X-60969Y81446D01*
X-60926Y81467D01*
X-58655Y83119D01*
X-58632Y83145D01*
X-58593Y83173D01*
X-56624Y85176D01*
X-56606Y85205D01*
X-56572Y85239D01*
X-54960Y87539D01*
X-54946Y87570D01*
X-54919Y87610D01*
X-53707Y90143D01*
X-53699Y90177D01*
X-53678Y90220D01*
X-52900Y92918D01*
X-52898Y92953D01*
X-52884Y92999D01*
X-52561Y95789D01*
X-52564Y95823D01*
X-52559Y95871D01*
X-52699Y98675D01*
X-52708Y98709D01*
X-52710Y98757D01*
X-53310Y101500D01*
X-53324Y101532D01*
X-53335Y101579D01*
X-54378Y104186D01*
X-54397Y104215D01*
X-54415Y104260D01*
X-55873Y106659D01*
X-55893Y106681D01*
X-55906Y106707D01*
X-55946Y106741D01*
X-55952Y106749D01*
X-55962Y106755D01*
X-56008Y106805D01*
X-56035Y106817D01*
X-56057Y106836D01*
X-56125Y106858D01*
X-56190Y106887D01*
X-56219Y106888D01*
X-56247Y106896D01*
X-56317Y106890D01*
X-56389Y106891D01*
X-56416Y106881D01*
X-56445Y106878D01*
X-56523Y106839D01*
X-56524Y106839D01*
X-56525Y106838D01*
X-56534Y106834D01*
X-56573Y106818D01*
X-56581Y106810D01*
X-56594Y106804D01*
X-84094Y86804D01*
X-84113Y86782D01*
X-84138Y86767D01*
X-84146Y86756D01*
X-84148Y86754D01*
X-84180Y86710D01*
X-84228Y86657D01*
X-84238Y86630D01*
X-84255Y86606D01*
X-84271Y86537D01*
X-84294Y86470D01*
X-84293Y86441D01*
X-84299Y86412D01*
X-84287Y86342D01*
X-84282Y86271D01*
X-84269Y86245D01*
X-84264Y86216D01*
X-84213Y86131D01*
X-84194Y86093D01*
X-84185Y86086D01*
X-84178Y86074D01*
X-82345Y83947D01*
X-82317Y83926D01*
X-82286Y83889D01*
X-80127Y82093D01*
X-80097Y82077D01*
X-80060Y82046D01*
X-77635Y80630D01*
X-77602Y80619D01*
X-77561Y80594D01*
X-74936Y79597D01*
X-74902Y79591D01*
X-74857Y79574D01*
X-72104Y79021D01*
X-72069Y79022D01*
X-72022Y79012D01*
X-69215Y78920D01*
X-69181Y78926D01*
G37*
G36*
X17029Y-119693D02*
X17029Y-119693D01*
X17058Y-119696D01*
X17125Y-119674D01*
X17195Y-119660D01*
X17219Y-119643D01*
X17247Y-119634D01*
X17300Y-119587D01*
X17359Y-119547D01*
X17375Y-119523D01*
X17397Y-119503D01*
X17428Y-119439D01*
X17466Y-119380D01*
X17471Y-119351D01*
X17483Y-119325D01*
X17492Y-119225D01*
X17499Y-119183D01*
X17496Y-119173D01*
X17498Y-119159D01*
X17266Y-116361D01*
X17256Y-116327D01*
X17252Y-116279D01*
X16563Y-113558D01*
X16548Y-113526D01*
X16536Y-113480D01*
X15408Y-110908D01*
X15388Y-110880D01*
X15369Y-110836D01*
X13833Y-108485D01*
X13809Y-108461D01*
X13783Y-108420D01*
X11881Y-106355D01*
X11853Y-106334D01*
X11820Y-106299D01*
X9605Y-104574D01*
X9574Y-104559D01*
X9536Y-104529D01*
X7066Y-103193D01*
X7033Y-103183D01*
X6991Y-103160D01*
X4351Y-102253D01*
X4335Y-102248D01*
X4301Y-102244D01*
X4255Y-102228D01*
X1486Y-101766D01*
X1451Y-101767D01*
X1404Y-101759D01*
X-1404Y-101759D01*
X-1438Y-101766D01*
X-1486Y-101766D01*
X-4255Y-102228D01*
X-4288Y-102240D01*
X-4335Y-102248D01*
X-6991Y-103160D01*
X-7021Y-103177D01*
X-7066Y-103193D01*
X-9536Y-104529D01*
X-9562Y-104551D01*
X-9605Y-104574D01*
X-11820Y-106299D01*
X-11843Y-106325D01*
X-11881Y-106355D01*
X-13783Y-108420D01*
X-13801Y-108450D01*
X-13833Y-108485D01*
X-15369Y-110836D01*
X-15382Y-110868D01*
X-15408Y-110908D01*
X-16536Y-113480D01*
X-16543Y-113513D01*
X-16546Y-113520D01*
X-16552Y-113529D01*
X-16553Y-113535D01*
X-16563Y-113558D01*
X-17252Y-116279D01*
X-17254Y-116314D01*
X-17266Y-116361D01*
X-17498Y-119159D01*
X-17494Y-119188D01*
X-17499Y-119217D01*
X-17483Y-119286D01*
X-17474Y-119356D01*
X-17460Y-119382D01*
X-17453Y-119410D01*
X-17411Y-119467D01*
X-17376Y-119529D01*
X-17352Y-119547D01*
X-17335Y-119570D01*
X-17274Y-119606D01*
X-17217Y-119649D01*
X-17189Y-119657D01*
X-17164Y-119672D01*
X-17066Y-119688D01*
X-17025Y-119699D01*
X-17014Y-119697D01*
X-17000Y-119699D01*
X17000Y-119699D01*
X17029Y-119693D01*
G37*
G36*
X108131Y-53493D02*
X108131Y-53493D01*
X108160Y-53496D01*
X108227Y-53473D01*
X108297Y-53459D01*
X108321Y-53442D01*
X108348Y-53433D01*
X108402Y-53386D01*
X108460Y-53346D01*
X108476Y-53321D01*
X108498Y-53302D01*
X108544Y-53214D01*
X108567Y-53178D01*
X108568Y-53167D01*
X108575Y-53154D01*
X119075Y-20854D01*
X119078Y-20825D01*
X119089Y-20798D01*
X119089Y-20727D01*
X119097Y-20657D01*
X119089Y-20629D01*
X119089Y-20600D01*
X119061Y-20534D01*
X119041Y-20466D01*
X119023Y-20444D01*
X119011Y-20417D01*
X118960Y-20367D01*
X118915Y-20312D01*
X118889Y-20299D01*
X118868Y-20279D01*
X118776Y-20240D01*
X118739Y-20220D01*
X118727Y-20219D01*
X118715Y-20214D01*
X115985Y-19570D01*
X115950Y-19569D01*
X115903Y-19558D01*
X113105Y-19372D01*
X113070Y-19377D01*
X113022Y-19374D01*
X110231Y-19651D01*
X110198Y-19661D01*
X110150Y-19666D01*
X107443Y-20399D01*
X107412Y-20414D01*
X107365Y-20427D01*
X104816Y-21596D01*
X104788Y-21616D01*
X104744Y-21636D01*
X102421Y-23208D01*
X102397Y-23233D01*
X102357Y-23260D01*
X100325Y-25193D01*
X100305Y-25221D01*
X100270Y-25255D01*
X98584Y-27496D01*
X98569Y-27527D01*
X98540Y-27566D01*
X97246Y-30054D01*
X97236Y-30087D01*
X97214Y-30130D01*
X96347Y-32797D01*
X96343Y-32832D01*
X96328Y-32878D01*
X95912Y-35651D01*
X95913Y-35686D01*
X95906Y-35733D01*
X95952Y-38538D01*
X95953Y-38540D01*
X95960Y-38572D01*
X95960Y-38620D01*
X96467Y-41378D01*
X96480Y-41411D01*
X96489Y-41458D01*
X97443Y-44095D01*
X97461Y-44125D01*
X97477Y-44170D01*
X98852Y-46615D01*
X98875Y-46641D01*
X98899Y-46683D01*
X100657Y-48868D01*
X100684Y-48890D01*
X100714Y-48928D01*
X102809Y-50793D01*
X102838Y-50811D01*
X102874Y-50843D01*
X105247Y-52338D01*
X105280Y-52350D01*
X105320Y-52376D01*
X107907Y-53460D01*
X107936Y-53466D01*
X107961Y-53480D01*
X108032Y-53485D01*
X108102Y-53499D01*
X108131Y-53493D01*
G37*
G36*
X-108098Y-53494D02*
X-108098Y-53494D01*
X-108069Y-53498D01*
X-107972Y-53476D01*
X-107930Y-53469D01*
X-107920Y-53464D01*
X-107907Y-53460D01*
X-105320Y-52376D01*
X-105292Y-52357D01*
X-105247Y-52338D01*
X-102874Y-50843D01*
X-102849Y-50819D01*
X-102809Y-50793D01*
X-100714Y-48928D01*
X-100693Y-48900D01*
X-100657Y-48868D01*
X-98899Y-46683D01*
X-98883Y-46652D01*
X-98852Y-46615D01*
X-97477Y-44170D01*
X-97467Y-44137D01*
X-97443Y-44095D01*
X-96489Y-41458D01*
X-96484Y-41424D01*
X-96467Y-41378D01*
X-95960Y-38620D01*
X-95961Y-38585D01*
X-95952Y-38538D01*
X-95906Y-35733D01*
X-95913Y-35699D01*
X-95912Y-35651D01*
X-96328Y-32878D01*
X-96340Y-32845D01*
X-96347Y-32797D01*
X-97214Y-30130D01*
X-97231Y-30100D01*
X-97246Y-30054D01*
X-98540Y-27566D01*
X-98562Y-27539D01*
X-98584Y-27496D01*
X-100270Y-25255D01*
X-100296Y-25232D01*
X-100325Y-25193D01*
X-102357Y-23260D01*
X-102387Y-23242D01*
X-102421Y-23208D01*
X-104744Y-21636D01*
X-104776Y-21623D01*
X-104816Y-21596D01*
X-107365Y-20427D01*
X-107399Y-20419D01*
X-107443Y-20399D01*
X-110150Y-19666D01*
X-110185Y-19664D01*
X-110231Y-19651D01*
X-113022Y-19374D01*
X-113057Y-19377D01*
X-113105Y-19372D01*
X-115903Y-19558D01*
X-115937Y-19567D01*
X-115985Y-19570D01*
X-118715Y-20214D01*
X-118741Y-20226D01*
X-118770Y-20231D01*
X-118831Y-20268D01*
X-118895Y-20297D01*
X-118915Y-20319D01*
X-118940Y-20334D01*
X-118981Y-20392D01*
X-119029Y-20445D01*
X-119039Y-20472D01*
X-119056Y-20496D01*
X-119071Y-20565D01*
X-119095Y-20632D01*
X-119093Y-20661D01*
X-119099Y-20690D01*
X-119085Y-20788D01*
X-119082Y-20831D01*
X-119077Y-20841D01*
X-119075Y-20854D01*
X-108575Y-53154D01*
X-108560Y-53180D01*
X-108554Y-53208D01*
X-108512Y-53266D01*
X-108477Y-53327D01*
X-108454Y-53345D01*
X-108437Y-53369D01*
X-108376Y-53405D01*
X-108319Y-53449D01*
X-108291Y-53456D01*
X-108266Y-53471D01*
X-108196Y-53481D01*
X-108127Y-53499D01*
X-108098Y-53494D01*
G37*
G36*
X-67572Y-119694D02*
X-67572Y-119694D01*
X-67545Y-119696D01*
X-67476Y-119674D01*
X-67405Y-119660D01*
X-67382Y-119644D01*
X-67355Y-119635D01*
X-67301Y-119588D01*
X-67241Y-119547D01*
X-67226Y-119523D01*
X-67205Y-119505D01*
X-67173Y-119440D01*
X-67134Y-119380D01*
X-67129Y-119352D01*
X-67117Y-119327D01*
X-67108Y-119225D01*
X-67101Y-119183D01*
X-67103Y-119174D01*
X-67102Y-119161D01*
X-67336Y-116185D01*
X-67345Y-116153D01*
X-67348Y-116107D01*
X-68044Y-113204D01*
X-68058Y-113174D01*
X-68068Y-113130D01*
X-69210Y-110371D01*
X-69229Y-110344D01*
X-69246Y-110302D01*
X-70805Y-107756D01*
X-70828Y-107731D01*
X-70851Y-107692D01*
X-72789Y-105422D01*
X-72816Y-105401D01*
X-72845Y-105366D01*
X-75114Y-103427D01*
X-75144Y-103411D01*
X-75178Y-103381D01*
X-77723Y-101820D01*
X-77754Y-101809D01*
X-77793Y-101785D01*
X-80551Y-100642D01*
X-80583Y-100635D01*
X-80625Y-100617D01*
X-83528Y-99920D01*
X-83561Y-99919D01*
X-83605Y-99908D01*
X-86581Y-99673D01*
X-86614Y-99677D01*
X-86660Y-99673D01*
X-89636Y-99906D01*
X-89668Y-99915D01*
X-89713Y-99918D01*
X-92616Y-100615D01*
X-92642Y-100627D01*
X-92670Y-100631D01*
X-92732Y-100668D01*
X-92797Y-100698D01*
X-92816Y-100720D01*
X-92840Y-100734D01*
X-92882Y-100793D01*
X-92930Y-100846D01*
X-92939Y-100873D01*
X-92956Y-100896D01*
X-92971Y-100966D01*
X-92995Y-101034D01*
X-92993Y-101062D01*
X-92999Y-101090D01*
X-92984Y-101190D01*
X-92981Y-101232D01*
X-92977Y-101242D01*
X-92975Y-101255D01*
X-87075Y-119355D01*
X-87060Y-119381D01*
X-87053Y-119410D01*
X-87011Y-119467D01*
X-86977Y-119528D01*
X-86953Y-119546D01*
X-86935Y-119570D01*
X-86875Y-119606D01*
X-86819Y-119649D01*
X-86790Y-119656D01*
X-86764Y-119672D01*
X-86668Y-119688D01*
X-86626Y-119699D01*
X-86615Y-119697D01*
X-86600Y-119699D01*
X-67600Y-119699D01*
X-67572Y-119694D01*
G37*
G36*
X86629Y-119693D02*
X86629Y-119693D01*
X86659Y-119696D01*
X86726Y-119674D01*
X86795Y-119660D01*
X86820Y-119643D01*
X86848Y-119633D01*
X86901Y-119587D01*
X86959Y-119547D01*
X86975Y-119522D01*
X86997Y-119502D01*
X87043Y-119416D01*
X87066Y-119380D01*
X87068Y-119368D01*
X87075Y-119355D01*
X92975Y-101255D01*
X92978Y-101227D01*
X92989Y-101200D01*
X92989Y-101128D01*
X92997Y-101057D01*
X92989Y-101030D01*
X92989Y-101001D01*
X92962Y-100935D01*
X92941Y-100866D01*
X92923Y-100844D01*
X92912Y-100818D01*
X92861Y-100768D01*
X92815Y-100713D01*
X92790Y-100700D01*
X92770Y-100680D01*
X92676Y-100640D01*
X92639Y-100620D01*
X92628Y-100620D01*
X92616Y-100615D01*
X89713Y-99918D01*
X89680Y-99917D01*
X89636Y-99906D01*
X86660Y-99673D01*
X86627Y-99677D01*
X86581Y-99673D01*
X83605Y-99908D01*
X83573Y-99917D01*
X83528Y-99920D01*
X80625Y-100617D01*
X80595Y-100631D01*
X80551Y-100642D01*
X77838Y-101766D01*
X77793Y-101785D01*
X77765Y-101803D01*
X77723Y-101820D01*
X75178Y-103381D01*
X75154Y-103403D01*
X75114Y-103427D01*
X72845Y-105366D01*
X72824Y-105392D01*
X72789Y-105422D01*
X70851Y-107692D01*
X70835Y-107721D01*
X70805Y-107756D01*
X69246Y-110302D01*
X69234Y-110333D01*
X69210Y-110371D01*
X68068Y-113130D01*
X68062Y-113162D01*
X68044Y-113204D01*
X67348Y-116107D01*
X67347Y-116140D01*
X67336Y-116185D01*
X67102Y-119161D01*
X67106Y-119189D01*
X67101Y-119217D01*
X67118Y-119287D01*
X67127Y-119358D01*
X67141Y-119383D01*
X67147Y-119410D01*
X67190Y-119468D01*
X67226Y-119531D01*
X67248Y-119548D01*
X67265Y-119570D01*
X67327Y-119607D01*
X67385Y-119650D01*
X67412Y-119657D01*
X67436Y-119672D01*
X67537Y-119689D01*
X67577Y-119699D01*
X67588Y-119697D01*
X67600Y-119699D01*
X86600Y-119699D01*
X86629Y-119693D01*
G37*
G36*
X3017Y128090D02*
X3017Y128090D01*
X3049Y128099D01*
X3094Y128102D01*
X5999Y128800D01*
X6029Y128814D01*
X6073Y128824D01*
X8833Y129967D01*
X8861Y129985D01*
X8903Y130002D01*
X11450Y131563D01*
X11474Y131586D01*
X11513Y131609D01*
X13784Y133549D01*
X13805Y133575D01*
X13840Y133604D01*
X15780Y135876D01*
X15794Y135901D01*
X15814Y135922D01*
X15842Y135987D01*
X15876Y136050D01*
X15879Y136079D01*
X15890Y136105D01*
X15890Y136177D01*
X15897Y136247D01*
X15889Y136275D01*
X15888Y136304D01*
X15860Y136370D01*
X15839Y136438D01*
X15820Y136460D01*
X15809Y136487D01*
X15739Y136558D01*
X15712Y136590D01*
X15702Y136595D01*
X15692Y136605D01*
X292Y147705D01*
X266Y147717D01*
X245Y147735D01*
X176Y147757D01*
X111Y147787D01*
X82Y147787D01*
X55Y147796D01*
X-16Y147790D01*
X-88Y147791D01*
X-114Y147781D01*
X-143Y147778D01*
X-234Y147734D01*
X-273Y147718D01*
X-280Y147711D01*
X-292Y147705D01*
X-15692Y136605D01*
X-15712Y136584D01*
X-15737Y136569D01*
X-15779Y136511D01*
X-15827Y136459D01*
X-15837Y136432D01*
X-15854Y136408D01*
X-15870Y136339D01*
X-15894Y136272D01*
X-15892Y136243D01*
X-15899Y136214D01*
X-15887Y136144D01*
X-15883Y136073D01*
X-15870Y136047D01*
X-15865Y136019D01*
X-15814Y135933D01*
X-15795Y135895D01*
X-15787Y135888D01*
X-15780Y135876D01*
X-13840Y133604D01*
X-13814Y133584D01*
X-13784Y133549D01*
X-11513Y131609D01*
X-11484Y131593D01*
X-11450Y131563D01*
X-8903Y130002D01*
X-8872Y129991D01*
X-8833Y129967D01*
X-6073Y128824D01*
X-6041Y128817D01*
X-5999Y128800D01*
X-3094Y128102D01*
X-3061Y128101D01*
X-3017Y128090D01*
X-39Y127856D01*
X-6Y127860D01*
X39Y127856D01*
X3017Y128090D01*
G37*
G36*
X134332Y27007D02*
X134332Y27007D01*
X134361Y27004D01*
X134429Y27027D01*
X134499Y27042D01*
X134522Y27058D01*
X134550Y27068D01*
X134603Y27115D01*
X134662Y27156D01*
X134677Y27180D01*
X134699Y27199D01*
X134745Y27289D01*
X134767Y27325D01*
X134769Y27335D01*
X134775Y27347D01*
X140575Y45347D01*
X140578Y45375D01*
X140590Y45402D01*
X140589Y45473D01*
X140597Y45545D01*
X140589Y45572D01*
X140589Y45601D01*
X140561Y45667D01*
X140540Y45735D01*
X140522Y45757D01*
X140511Y45784D01*
X140441Y45856D01*
X140414Y45888D01*
X140404Y45893D01*
X140395Y45903D01*
X125095Y57103D01*
X125068Y57115D01*
X125046Y57134D01*
X124979Y57156D01*
X124914Y57186D01*
X124885Y57187D01*
X124857Y57196D01*
X124787Y57190D01*
X124716Y57192D01*
X124688Y57182D01*
X124659Y57179D01*
X124596Y57146D01*
X124530Y57120D01*
X124509Y57100D01*
X124484Y57086D01*
X124418Y57011D01*
X124388Y56981D01*
X124383Y56971D01*
X124374Y56961D01*
X122819Y54421D01*
X122808Y54390D01*
X122784Y54351D01*
X121645Y51599D01*
X121639Y51567D01*
X121621Y51525D01*
X120927Y48629D01*
X120926Y48596D01*
X120915Y48552D01*
X120682Y45583D01*
X120686Y45550D01*
X120682Y45504D01*
X120917Y42536D01*
X120926Y42504D01*
X120929Y42458D01*
X121626Y39563D01*
X121640Y39533D01*
X121650Y39489D01*
X122790Y36738D01*
X122809Y36710D01*
X122826Y36668D01*
X124383Y34129D01*
X124406Y34105D01*
X124429Y34066D01*
X126364Y31802D01*
X126390Y31782D01*
X126419Y31747D01*
X128685Y29814D01*
X128714Y29798D01*
X128748Y29768D01*
X131288Y28213D01*
X131319Y28201D01*
X131357Y28177D01*
X134109Y27039D01*
X134137Y27033D01*
X134163Y27020D01*
X134234Y27014D01*
X134304Y27001D01*
X134332Y27007D01*
G37*
G36*
X-134300Y27006D02*
X-134300Y27006D01*
X-134271Y27002D01*
X-134173Y27024D01*
X-134131Y27030D01*
X-134122Y27036D01*
X-134109Y27039D01*
X-131357Y28177D01*
X-131330Y28196D01*
X-131288Y28213D01*
X-128748Y29768D01*
X-128724Y29790D01*
X-128685Y29814D01*
X-126419Y31747D01*
X-126399Y31773D01*
X-126364Y31802D01*
X-124429Y34066D01*
X-124413Y34095D01*
X-124383Y34129D01*
X-122826Y36668D01*
X-122815Y36699D01*
X-122790Y36738D01*
X-121650Y39489D01*
X-121643Y39521D01*
X-121626Y39563D01*
X-120929Y42458D01*
X-120928Y42492D01*
X-120917Y42536D01*
X-120682Y45504D01*
X-120686Y45537D01*
X-120682Y45583D01*
X-120915Y48552D01*
X-120924Y48584D01*
X-120927Y48629D01*
X-121621Y51525D01*
X-121635Y51555D01*
X-121645Y51599D01*
X-122784Y54351D01*
X-122802Y54379D01*
X-122819Y54421D01*
X-124374Y56961D01*
X-124394Y56982D01*
X-124407Y57008D01*
X-124461Y57054D01*
X-124510Y57106D01*
X-124536Y57118D01*
X-124559Y57137D01*
X-124626Y57158D01*
X-124691Y57187D01*
X-124720Y57188D01*
X-124748Y57197D01*
X-124819Y57190D01*
X-124890Y57191D01*
X-124917Y57180D01*
X-124946Y57177D01*
X-125035Y57133D01*
X-125075Y57117D01*
X-125083Y57109D01*
X-125095Y57103D01*
X-140395Y45903D01*
X-140414Y45882D01*
X-140439Y45867D01*
X-140481Y45809D01*
X-140529Y45756D01*
X-140538Y45729D01*
X-140555Y45705D01*
X-140571Y45636D01*
X-140595Y45568D01*
X-140593Y45540D01*
X-140599Y45512D01*
X-140585Y45412D01*
X-140582Y45370D01*
X-140577Y45360D01*
X-140575Y45347D01*
X-134775Y27347D01*
X-134761Y27322D01*
X-134755Y27294D01*
X-134713Y27236D01*
X-134678Y27174D01*
X-134655Y27156D01*
X-134638Y27133D01*
X-134577Y27096D01*
X-134520Y27052D01*
X-134493Y27045D01*
X-134468Y27030D01*
X-134397Y27020D01*
X-134328Y27002D01*
X-134300Y27006D01*
G37*
D10*
X52413Y4763D03*
X71413Y4763D03*
D11*
X-42863Y-28013D03*
X-42863Y-45013D03*
D12*
X-53975Y-27013D03*
X-53975Y-46013D03*
D13*
X53413Y-6350D03*
X70413Y-6350D03*
X53413Y-15875D03*
X70413Y-15875D03*
D10*
X52413Y19050D03*
X71413Y19050D03*
D13*
X52388Y31188D03*
X52388Y48188D03*
D14*
X103188Y9525D03*
D15*
X-61913Y46038D03*
X-61913Y20638D03*
X-61913Y-4763D03*
D13*
X71438Y48188D03*
X71438Y31188D03*
X-41275Y18025D03*
X-41275Y1025D03*
D16*
X38563Y-7418D03*
X38563Y-12419D03*
X38563Y-17421D03*
X38563Y-22422D03*
X38563Y-27423D03*
X38563Y-32424D03*
X38563Y-37426D03*
X38563Y-42427D03*
X38563Y-47428D03*
X38563Y-52429D03*
X38563Y-57431D03*
X38563Y-62432D03*
D17*
X32270Y-68725D03*
X27269Y-68725D03*
X22267Y-68725D03*
X17266Y-68725D03*
X12265Y-68725D03*
X7264Y-68725D03*
X2262Y-68725D03*
X-2740Y-68725D03*
X-7741Y-68725D03*
X-12742Y-68725D03*
X-17744Y-68725D03*
X-22745Y-68725D03*
D16*
X-29038Y-62432D03*
X-29038Y-57431D03*
X-29038Y-52429D03*
X-29038Y-47428D03*
X-29038Y-42427D03*
X-29038Y-37426D03*
X-29038Y-32424D03*
X-29038Y-27423D03*
X-29038Y-22422D03*
X-29038Y-17421D03*
X-29038Y-12419D03*
X-29038Y-7418D03*
D17*
X-22745Y-1125D03*
X-17744Y-1125D03*
X-12742Y-1125D03*
X-7741Y-1125D03*
X-2740Y-1125D03*
X2262Y-1125D03*
X7264Y-1125D03*
X12265Y-1125D03*
X17266Y-1125D03*
X22267Y-1125D03*
X27269Y-1125D03*
X32270Y-1125D03*
D18*
X4763Y-34925D03*
D19*
X58738Y-56450D03*
X58738Y-44450D03*
X58738Y-32450D03*
D20*
X-71438Y-47513D03*
X-71438Y-25513D03*
D21*
X0Y140500D03*
X133600Y43400D03*
X82600Y-113700D03*
X-82600Y-113700D03*
X-133600Y43400D03*
X66800Y92000D03*
X108100Y-35100D03*
X0Y-113700D03*
X-108100Y-35100D03*
X-66800Y92000D03*
M02*
