G04 EAGLE Gerber RS-274X export*
G75*
%MOMM*%
%FSLAX34Y34*%
%LPD*%
%INSoldermask Top*%
%IPPOS*%
%AMOC8*
5,1,8,0,0,1.08239X$1,22.5*%
G01*
%ADD10R,1.303200X1.203200*%
%ADD11R,1.503200X1.703200*%
%ADD12R,1.003200X1.003200*%
%ADD13P,1.869504X8X22.500000*%
%ADD14C,1.727200*%
%ADD15C,1.203200*%
%ADD16R,0.703200X0.703200*%

G36*
X839354Y395607D02*
X839354Y395607D01*
X839383Y395604D01*
X839450Y395626D01*
X839520Y395640D01*
X839544Y395657D01*
X839572Y395666D01*
X839625Y395713D01*
X839684Y395753D01*
X839700Y395777D01*
X839722Y395797D01*
X839753Y395861D01*
X839791Y395920D01*
X839796Y395949D01*
X839808Y395975D01*
X839817Y396075D01*
X839824Y396117D01*
X839821Y396127D01*
X839823Y396141D01*
X839591Y398939D01*
X839581Y398973D01*
X839577Y399021D01*
X838888Y401742D01*
X838873Y401774D01*
X838861Y401820D01*
X837733Y404392D01*
X837713Y404420D01*
X837694Y404464D01*
X836158Y406815D01*
X836134Y406839D01*
X836108Y406880D01*
X834206Y408945D01*
X834178Y408966D01*
X834145Y409001D01*
X831930Y410726D01*
X831899Y410741D01*
X831861Y410771D01*
X829391Y412107D01*
X829358Y412117D01*
X829316Y412140D01*
X828130Y412548D01*
X826676Y413047D01*
X826660Y413052D01*
X826626Y413057D01*
X826580Y413072D01*
X823811Y413534D01*
X823776Y413533D01*
X823729Y413541D01*
X820921Y413541D01*
X820887Y413534D01*
X820839Y413534D01*
X818070Y413072D01*
X818037Y413060D01*
X817990Y413052D01*
X815334Y412140D01*
X815304Y412123D01*
X815259Y412107D01*
X812789Y410771D01*
X812763Y410749D01*
X812720Y410726D01*
X810505Y409001D01*
X810482Y408975D01*
X810444Y408945D01*
X808542Y406880D01*
X808524Y406850D01*
X808492Y406815D01*
X806956Y404464D01*
X806943Y404432D01*
X806917Y404392D01*
X805789Y401820D01*
X805782Y401787D01*
X805779Y401780D01*
X805773Y401771D01*
X805772Y401765D01*
X805762Y401742D01*
X805073Y399021D01*
X805071Y398986D01*
X805059Y398939D01*
X804827Y396141D01*
X804831Y396112D01*
X804826Y396083D01*
X804843Y396014D01*
X804851Y395944D01*
X804865Y395918D01*
X804872Y395890D01*
X804914Y395833D01*
X804949Y395771D01*
X804973Y395753D01*
X804990Y395730D01*
X805051Y395694D01*
X805108Y395651D01*
X805136Y395643D01*
X805161Y395628D01*
X805259Y395612D01*
X805300Y395601D01*
X805311Y395603D01*
X805325Y395601D01*
X839325Y395601D01*
X839354Y395607D01*
G37*
G36*
X823763Y678666D02*
X823763Y678666D01*
X823811Y678666D01*
X826580Y679128D01*
X826613Y679140D01*
X826660Y679148D01*
X829316Y680060D01*
X829346Y680077D01*
X829391Y680093D01*
X831861Y681429D01*
X831887Y681451D01*
X831930Y681474D01*
X834145Y683199D01*
X834168Y683225D01*
X834206Y683255D01*
X836108Y685320D01*
X836126Y685350D01*
X836158Y685385D01*
X837694Y687736D01*
X837707Y687768D01*
X837733Y687808D01*
X838861Y690380D01*
X838868Y690413D01*
X838888Y690458D01*
X839577Y693179D01*
X839579Y693214D01*
X839591Y693261D01*
X839823Y696059D01*
X839819Y696088D01*
X839824Y696117D01*
X839808Y696186D01*
X839799Y696256D01*
X839785Y696282D01*
X839778Y696310D01*
X839736Y696367D01*
X839701Y696429D01*
X839677Y696447D01*
X839660Y696470D01*
X839599Y696506D01*
X839542Y696549D01*
X839514Y696557D01*
X839489Y696572D01*
X839391Y696588D01*
X839350Y696599D01*
X839339Y696597D01*
X839325Y696599D01*
X805325Y696599D01*
X805296Y696593D01*
X805267Y696596D01*
X805200Y696574D01*
X805130Y696560D01*
X805106Y696543D01*
X805078Y696534D01*
X805025Y696487D01*
X804966Y696447D01*
X804951Y696423D01*
X804929Y696403D01*
X804897Y696339D01*
X804859Y696280D01*
X804854Y696251D01*
X804842Y696225D01*
X804833Y696125D01*
X804826Y696083D01*
X804829Y696073D01*
X804827Y696059D01*
X805059Y693261D01*
X805069Y693227D01*
X805073Y693179D01*
X805762Y690458D01*
X805777Y690426D01*
X805789Y690380D01*
X806917Y687808D01*
X806937Y687780D01*
X806956Y687736D01*
X808492Y685385D01*
X808516Y685361D01*
X808542Y685320D01*
X810444Y683255D01*
X810472Y683234D01*
X810505Y683199D01*
X812720Y681474D01*
X812751Y681459D01*
X812789Y681429D01*
X815259Y680093D01*
X815292Y680083D01*
X815334Y680060D01*
X817990Y679148D01*
X818024Y679144D01*
X818070Y679128D01*
X820839Y678666D01*
X820874Y678667D01*
X820921Y678659D01*
X823729Y678659D01*
X823763Y678666D01*
G37*
G36*
X700932Y455910D02*
X700932Y455910D01*
X701003Y455907D01*
X701030Y455917D01*
X701059Y455919D01*
X701149Y455961D01*
X701189Y455976D01*
X701197Y455984D01*
X701210Y455990D01*
X703513Y457589D01*
X703537Y457615D01*
X703577Y457642D01*
X705586Y459599D01*
X705605Y459628D01*
X705640Y459661D01*
X707299Y461922D01*
X707314Y461953D01*
X707343Y461992D01*
X708607Y464495D01*
X708616Y464529D01*
X708638Y464572D01*
X709474Y467249D01*
X709477Y467283D01*
X709492Y467329D01*
X709875Y470108D01*
X709873Y470142D01*
X709879Y470190D01*
X709800Y472993D01*
X709792Y473027D01*
X709791Y473075D01*
X709252Y475827D01*
X709238Y475859D01*
X709229Y475907D01*
X708244Y478532D01*
X708229Y478557D01*
X708224Y478577D01*
X708216Y478588D01*
X708209Y478607D01*
X706805Y481035D01*
X706782Y481061D01*
X706758Y481103D01*
X704974Y483266D01*
X704947Y483288D01*
X704916Y483325D01*
X702800Y485166D01*
X702770Y485183D01*
X702734Y485215D01*
X700343Y486682D01*
X700311Y486693D01*
X700270Y486719D01*
X697671Y487772D01*
X697637Y487779D01*
X697592Y487797D01*
X694855Y488408D01*
X694820Y488409D01*
X694773Y488420D01*
X691973Y488572D01*
X691939Y488567D01*
X691891Y488570D01*
X689103Y488260D01*
X689070Y488249D01*
X689022Y488244D01*
X686324Y487479D01*
X686294Y487463D01*
X686247Y487450D01*
X683712Y486251D01*
X683688Y486234D01*
X683661Y486224D01*
X683609Y486175D01*
X683552Y486132D01*
X683538Y486107D01*
X683517Y486087D01*
X683488Y486022D01*
X683452Y485961D01*
X683449Y485932D01*
X683437Y485905D01*
X683436Y485834D01*
X683427Y485763D01*
X683435Y485735D01*
X683435Y485706D01*
X683469Y485613D01*
X683481Y485572D01*
X683488Y485563D01*
X683493Y485550D01*
X700493Y456150D01*
X700512Y456128D01*
X700525Y456102D01*
X700578Y456054D01*
X700625Y456001D01*
X700651Y455989D01*
X700673Y455969D01*
X700740Y455946D01*
X700804Y455916D01*
X700833Y455914D01*
X700861Y455905D01*
X700932Y455910D01*
G37*
G36*
X952711Y603633D02*
X952711Y603633D01*
X952759Y603630D01*
X955547Y603940D01*
X955580Y603951D01*
X955628Y603956D01*
X958326Y604721D01*
X958356Y604737D01*
X958403Y604750D01*
X960938Y605949D01*
X960962Y605966D01*
X960989Y605976D01*
X961041Y606025D01*
X961098Y606068D01*
X961112Y606093D01*
X961134Y606113D01*
X961162Y606178D01*
X961198Y606240D01*
X961201Y606268D01*
X961213Y606295D01*
X961214Y606366D01*
X961223Y606437D01*
X961215Y606465D01*
X961215Y606494D01*
X961181Y606587D01*
X961169Y606628D01*
X961162Y606637D01*
X961157Y606650D01*
X944157Y636050D01*
X944138Y636072D01*
X944125Y636098D01*
X944072Y636146D01*
X944025Y636199D01*
X943999Y636211D01*
X943977Y636231D01*
X943910Y636254D01*
X943846Y636284D01*
X943817Y636286D01*
X943789Y636295D01*
X943718Y636290D01*
X943647Y636293D01*
X943620Y636283D01*
X943591Y636281D01*
X943501Y636239D01*
X943461Y636224D01*
X943453Y636216D01*
X943440Y636210D01*
X941137Y634611D01*
X941113Y634586D01*
X941073Y634558D01*
X939064Y632601D01*
X939045Y632572D01*
X939010Y632539D01*
X937351Y630278D01*
X937336Y630247D01*
X937307Y630208D01*
X936043Y627705D01*
X936034Y627671D01*
X936012Y627628D01*
X935176Y624951D01*
X935173Y624917D01*
X935158Y624871D01*
X934775Y622092D01*
X934777Y622058D01*
X934771Y622010D01*
X934850Y619207D01*
X934858Y619173D01*
X934859Y619125D01*
X935398Y616373D01*
X935412Y616341D01*
X935421Y616293D01*
X936406Y613668D01*
X936424Y613638D01*
X936441Y613593D01*
X937845Y611165D01*
X937868Y611139D01*
X937892Y611098D01*
X939676Y608934D01*
X939703Y608912D01*
X939734Y608875D01*
X941850Y607034D01*
X941880Y607017D01*
X941916Y606986D01*
X944307Y605518D01*
X944339Y605507D01*
X944380Y605481D01*
X946979Y604428D01*
X947013Y604421D01*
X947058Y604403D01*
X949795Y603792D01*
X949830Y603791D01*
X949877Y603780D01*
X952677Y603628D01*
X952711Y603633D01*
G37*
G36*
X943751Y455911D02*
X943751Y455911D01*
X943822Y455910D01*
X943849Y455921D01*
X943878Y455925D01*
X943940Y455959D01*
X944005Y455987D01*
X944026Y456008D01*
X944051Y456022D01*
X944114Y456098D01*
X944144Y456129D01*
X944148Y456139D01*
X944157Y456150D01*
X961157Y485550D01*
X961166Y485578D01*
X961183Y485602D01*
X961198Y485671D01*
X961220Y485739D01*
X961218Y485768D01*
X961224Y485796D01*
X961211Y485866D01*
X961205Y485937D01*
X961192Y485963D01*
X961186Y485991D01*
X961146Y486050D01*
X961114Y486113D01*
X961091Y486132D01*
X961075Y486156D01*
X960993Y486213D01*
X960960Y486240D01*
X960950Y486243D01*
X960938Y486251D01*
X958403Y487450D01*
X958369Y487458D01*
X958326Y487479D01*
X955628Y488244D01*
X955593Y488246D01*
X955547Y488260D01*
X952759Y488570D01*
X952725Y488567D01*
X952677Y488572D01*
X949877Y488420D01*
X949843Y488411D01*
X949795Y488408D01*
X947058Y487797D01*
X947026Y487783D01*
X946979Y487772D01*
X944380Y486719D01*
X944351Y486700D01*
X944307Y486682D01*
X941916Y485215D01*
X941891Y485191D01*
X941850Y485166D01*
X939734Y483325D01*
X939713Y483298D01*
X939676Y483266D01*
X937892Y481103D01*
X937876Y481072D01*
X937845Y481035D01*
X936441Y478607D01*
X936430Y478574D01*
X936423Y478561D01*
X936413Y478547D01*
X936413Y478544D01*
X936406Y478532D01*
X935421Y475907D01*
X935415Y475872D01*
X935398Y475827D01*
X934859Y473075D01*
X934859Y473041D01*
X934850Y472993D01*
X934771Y470190D01*
X934777Y470156D01*
X934775Y470108D01*
X935158Y467329D01*
X935170Y467297D01*
X935176Y467249D01*
X936012Y464572D01*
X936029Y464541D01*
X936043Y464495D01*
X937307Y461992D01*
X937329Y461965D01*
X937351Y461922D01*
X939010Y459661D01*
X939036Y459638D01*
X939064Y459599D01*
X941073Y457642D01*
X941102Y457623D01*
X941137Y457589D01*
X943440Y455990D01*
X943467Y455978D01*
X943490Y455960D01*
X943558Y455939D01*
X943623Y455911D01*
X943652Y455911D01*
X943680Y455903D01*
X943751Y455911D01*
G37*
G36*
X694773Y603780D02*
X694773Y603780D01*
X694807Y603789D01*
X694855Y603792D01*
X697592Y604403D01*
X697624Y604417D01*
X697671Y604428D01*
X700270Y605481D01*
X700299Y605500D01*
X700343Y605518D01*
X702734Y606986D01*
X702759Y607009D01*
X702800Y607034D01*
X704916Y608875D01*
X704937Y608902D01*
X704974Y608934D01*
X706758Y611098D01*
X706774Y611128D01*
X706805Y611165D01*
X708209Y613593D01*
X708220Y613626D01*
X708244Y613668D01*
X709229Y616293D01*
X709235Y616328D01*
X709252Y616373D01*
X709791Y619125D01*
X709791Y619160D01*
X709800Y619207D01*
X709879Y622010D01*
X709874Y622044D01*
X709875Y622092D01*
X709492Y624871D01*
X709480Y624903D01*
X709474Y624951D01*
X708638Y627628D01*
X708621Y627659D01*
X708607Y627705D01*
X707343Y630208D01*
X707321Y630235D01*
X707299Y630278D01*
X705640Y632539D01*
X705614Y632562D01*
X705586Y632601D01*
X703577Y634558D01*
X703548Y634577D01*
X703513Y634611D01*
X701210Y636210D01*
X701183Y636222D01*
X701160Y636240D01*
X701092Y636261D01*
X701027Y636289D01*
X700998Y636289D01*
X700970Y636297D01*
X700899Y636289D01*
X700828Y636290D01*
X700801Y636279D01*
X700772Y636275D01*
X700710Y636241D01*
X700645Y636213D01*
X700624Y636192D01*
X700599Y636178D01*
X700536Y636102D01*
X700506Y636071D01*
X700502Y636061D01*
X700493Y636050D01*
X683493Y606650D01*
X683484Y606622D01*
X683467Y606598D01*
X683452Y606529D01*
X683430Y606461D01*
X683432Y606432D01*
X683426Y606404D01*
X683439Y606334D01*
X683445Y606263D01*
X683458Y606237D01*
X683464Y606209D01*
X683504Y606150D01*
X683536Y606087D01*
X683559Y606068D01*
X683575Y606044D01*
X683657Y605987D01*
X683690Y605960D01*
X683700Y605957D01*
X683712Y605949D01*
X686247Y604750D01*
X686281Y604742D01*
X686324Y604721D01*
X689022Y603956D01*
X689057Y603954D01*
X689103Y603940D01*
X691891Y603630D01*
X691925Y603633D01*
X691973Y603628D01*
X694773Y603780D01*
G37*
G36*
X986052Y529111D02*
X986052Y529111D01*
X986123Y529111D01*
X986150Y529122D01*
X986179Y529125D01*
X986241Y529160D01*
X986306Y529188D01*
X986327Y529208D01*
X986352Y529223D01*
X986415Y529300D01*
X986445Y529330D01*
X986449Y529340D01*
X986458Y529351D01*
X995958Y545851D01*
X995968Y545883D01*
X995977Y545896D01*
X995981Y545920D01*
X995982Y545924D01*
X996013Y545994D01*
X996013Y546018D01*
X996021Y546040D01*
X996015Y546116D01*
X996016Y546193D01*
X996006Y546217D01*
X996005Y546238D01*
X995984Y546277D01*
X995958Y546349D01*
X986458Y562849D01*
X986439Y562871D01*
X986426Y562897D01*
X986373Y562945D01*
X986326Y562998D01*
X986300Y563011D01*
X986279Y563030D01*
X986211Y563053D01*
X986147Y563084D01*
X986118Y563086D01*
X986091Y563095D01*
X986019Y563090D01*
X985948Y563093D01*
X985921Y563083D01*
X985892Y563081D01*
X985802Y563039D01*
X985762Y563024D01*
X985754Y563017D01*
X985741Y563011D01*
X983218Y561269D01*
X983194Y561245D01*
X983156Y561218D01*
X980944Y559094D01*
X980925Y559066D01*
X980891Y559034D01*
X979049Y556583D01*
X979035Y556552D01*
X979006Y556515D01*
X977581Y553800D01*
X977572Y553769D01*
X977556Y553744D01*
X977555Y553736D01*
X977550Y553726D01*
X976579Y550818D01*
X976575Y550784D01*
X976560Y550740D01*
X976068Y547713D01*
X976069Y547679D01*
X976061Y547633D01*
X976061Y544567D01*
X976062Y544563D01*
X976062Y544561D01*
X976068Y544534D01*
X976068Y544487D01*
X976560Y541460D01*
X976572Y541429D01*
X976579Y541382D01*
X977550Y538474D01*
X977567Y538445D01*
X977581Y538400D01*
X979006Y535685D01*
X979028Y535659D01*
X979049Y535617D01*
X980891Y533166D01*
X980916Y533143D01*
X980944Y533106D01*
X983156Y530982D01*
X983184Y530964D01*
X983218Y530931D01*
X985741Y529189D01*
X985768Y529178D01*
X985790Y529159D01*
X985859Y529139D01*
X985924Y529111D01*
X985953Y529111D01*
X985981Y529103D01*
X986052Y529111D01*
G37*
G36*
X658631Y529110D02*
X658631Y529110D01*
X658702Y529107D01*
X658729Y529117D01*
X658758Y529119D01*
X658848Y529161D01*
X658888Y529176D01*
X658896Y529183D01*
X658909Y529189D01*
X661432Y530931D01*
X661456Y530955D01*
X661494Y530982D01*
X663706Y533106D01*
X663725Y533134D01*
X663759Y533166D01*
X665601Y535617D01*
X665615Y535648D01*
X665644Y535685D01*
X667069Y538400D01*
X667078Y538433D01*
X667100Y538474D01*
X668071Y541382D01*
X668075Y541416D01*
X668090Y541460D01*
X668582Y544487D01*
X668581Y544521D01*
X668589Y544567D01*
X668589Y547633D01*
X668582Y547666D01*
X668582Y547713D01*
X668090Y550740D01*
X668078Y550771D01*
X668071Y550818D01*
X667100Y553726D01*
X667087Y553749D01*
X667081Y553774D01*
X667074Y553783D01*
X667069Y553800D01*
X665644Y556515D01*
X665622Y556541D01*
X665601Y556583D01*
X663759Y559034D01*
X663734Y559057D01*
X663706Y559094D01*
X661494Y561218D01*
X661466Y561236D01*
X661432Y561269D01*
X658909Y563011D01*
X658882Y563022D01*
X658860Y563041D01*
X658791Y563061D01*
X658726Y563089D01*
X658697Y563089D01*
X658669Y563097D01*
X658598Y563089D01*
X658527Y563090D01*
X658500Y563078D01*
X658471Y563075D01*
X658409Y563040D01*
X658344Y563012D01*
X658323Y562992D01*
X658298Y562977D01*
X658235Y562900D01*
X658205Y562870D01*
X658201Y562860D01*
X658192Y562849D01*
X648692Y546349D01*
X648668Y546276D01*
X648637Y546206D01*
X648637Y546182D01*
X648629Y546160D01*
X648636Y546084D01*
X648635Y546007D01*
X648644Y545983D01*
X648645Y545962D01*
X648666Y545923D01*
X648685Y545871D01*
X648686Y545865D01*
X648688Y545863D01*
X648692Y545851D01*
X658192Y529351D01*
X658211Y529329D01*
X658224Y529303D01*
X658277Y529255D01*
X658324Y529202D01*
X658350Y529189D01*
X658372Y529170D01*
X658439Y529147D01*
X658503Y529116D01*
X658532Y529115D01*
X658559Y529105D01*
X658631Y529110D01*
G37*
G36*
X909001Y395616D02*
X909001Y395616D01*
X909079Y395625D01*
X909098Y395636D01*
X909120Y395640D01*
X909184Y395684D01*
X909252Y395723D01*
X909268Y395742D01*
X909284Y395753D01*
X909308Y395791D01*
X909358Y395851D01*
X918858Y412351D01*
X918867Y412378D01*
X918883Y412402D01*
X918898Y412472D01*
X918921Y412540D01*
X918918Y412568D01*
X918924Y412596D01*
X918911Y412667D01*
X918905Y412738D01*
X918892Y412763D01*
X918886Y412791D01*
X918846Y412851D01*
X918813Y412914D01*
X918791Y412932D01*
X918775Y412956D01*
X918692Y413014D01*
X918660Y413041D01*
X918649Y413044D01*
X918639Y413051D01*
X915873Y414360D01*
X915840Y414368D01*
X915797Y414388D01*
X912857Y415236D01*
X912823Y415239D01*
X912779Y415252D01*
X909741Y415617D01*
X909707Y415614D01*
X909660Y415620D01*
X906603Y415493D01*
X906570Y415485D01*
X906523Y415484D01*
X903526Y414868D01*
X903495Y414855D01*
X903449Y414846D01*
X900589Y413757D01*
X900561Y413739D01*
X900517Y413723D01*
X897869Y412189D01*
X897843Y412167D01*
X897803Y412144D01*
X895435Y410206D01*
X895413Y410179D01*
X895377Y410150D01*
X893350Y407857D01*
X893334Y407828D01*
X893302Y407793D01*
X891670Y405205D01*
X891658Y405173D01*
X891633Y405134D01*
X890437Y402317D01*
X890430Y402284D01*
X890427Y402277D01*
X890423Y402271D01*
X890422Y402265D01*
X890411Y402241D01*
X889683Y399269D01*
X889681Y399235D01*
X889670Y399190D01*
X889427Y396140D01*
X889431Y396111D01*
X889426Y396083D01*
X889443Y396014D01*
X889451Y395942D01*
X889466Y395918D01*
X889472Y395890D01*
X889515Y395832D01*
X889551Y395770D01*
X889573Y395753D01*
X889590Y395730D01*
X889652Y395693D01*
X889709Y395650D01*
X889737Y395643D01*
X889761Y395628D01*
X889861Y395612D01*
X889902Y395601D01*
X889912Y395603D01*
X889925Y395601D01*
X908925Y395601D01*
X909001Y395616D01*
G37*
G36*
X909694Y676585D02*
X909694Y676585D01*
X909741Y676583D01*
X912779Y676948D01*
X912811Y676959D01*
X912857Y676964D01*
X915797Y677812D01*
X915827Y677828D01*
X915873Y677840D01*
X918639Y679149D01*
X918661Y679166D01*
X918688Y679176D01*
X918740Y679225D01*
X918798Y679268D01*
X918812Y679293D01*
X918833Y679312D01*
X918862Y679378D01*
X918898Y679440D01*
X918901Y679468D01*
X918913Y679494D01*
X918914Y679566D01*
X918923Y679637D01*
X918915Y679664D01*
X918916Y679693D01*
X918880Y679788D01*
X918869Y679828D01*
X918862Y679837D01*
X918858Y679849D01*
X909358Y696349D01*
X909306Y696408D01*
X909260Y696470D01*
X909241Y696481D01*
X909226Y696498D01*
X909156Y696532D01*
X909089Y696572D01*
X909065Y696576D01*
X909047Y696584D01*
X909002Y696586D01*
X908925Y696599D01*
X889925Y696599D01*
X889897Y696594D01*
X889869Y696596D01*
X889801Y696574D01*
X889730Y696560D01*
X889707Y696544D01*
X889680Y696535D01*
X889625Y696488D01*
X889566Y696447D01*
X889551Y696423D01*
X889530Y696405D01*
X889498Y696340D01*
X889459Y696280D01*
X889454Y696252D01*
X889442Y696226D01*
X889433Y696125D01*
X889426Y696083D01*
X889428Y696073D01*
X889427Y696060D01*
X889670Y693010D01*
X889679Y692978D01*
X889683Y692931D01*
X890411Y689959D01*
X890426Y689928D01*
X890437Y689883D01*
X891633Y687066D01*
X891652Y687038D01*
X891670Y686995D01*
X893302Y684407D01*
X893326Y684383D01*
X893350Y684343D01*
X895377Y682050D01*
X895404Y682030D01*
X895435Y681994D01*
X897803Y680056D01*
X897833Y680040D01*
X897869Y680011D01*
X900517Y678478D01*
X900549Y678467D01*
X900589Y678443D01*
X903449Y677355D01*
X903482Y677349D01*
X903526Y677332D01*
X906523Y676716D01*
X906557Y676716D01*
X906603Y676707D01*
X909660Y676580D01*
X909694Y676585D01*
G37*
G36*
X754753Y395606D02*
X754753Y395606D01*
X754781Y395604D01*
X754849Y395626D01*
X754920Y395640D01*
X754943Y395656D01*
X754970Y395665D01*
X755025Y395712D01*
X755084Y395753D01*
X755099Y395777D01*
X755121Y395795D01*
X755152Y395860D01*
X755191Y395920D01*
X755196Y395948D01*
X755208Y395974D01*
X755217Y396075D01*
X755224Y396117D01*
X755222Y396127D01*
X755223Y396140D01*
X754980Y399190D01*
X754971Y399222D01*
X754967Y399269D01*
X754239Y402241D01*
X754224Y402272D01*
X754213Y402317D01*
X753017Y405134D01*
X752998Y405162D01*
X752980Y405205D01*
X751348Y407793D01*
X751324Y407817D01*
X751300Y407857D01*
X749273Y410150D01*
X749246Y410170D01*
X749215Y410206D01*
X746848Y412144D01*
X746817Y412160D01*
X746781Y412189D01*
X744133Y413723D01*
X744101Y413733D01*
X744061Y413757D01*
X741201Y414846D01*
X741168Y414851D01*
X741124Y414868D01*
X738127Y415484D01*
X738093Y415484D01*
X738047Y415493D01*
X734990Y415620D01*
X734956Y415615D01*
X734909Y415617D01*
X731871Y415252D01*
X731839Y415241D01*
X731793Y415236D01*
X728853Y414388D01*
X728823Y414372D01*
X728778Y414360D01*
X726012Y413051D01*
X725989Y413034D01*
X725962Y413024D01*
X725910Y412975D01*
X725852Y412932D01*
X725838Y412907D01*
X725817Y412888D01*
X725788Y412822D01*
X725752Y412760D01*
X725749Y412732D01*
X725737Y412706D01*
X725736Y412634D01*
X725727Y412563D01*
X725735Y412536D01*
X725735Y412507D01*
X725770Y412412D01*
X725781Y412372D01*
X725788Y412363D01*
X725792Y412351D01*
X735292Y395851D01*
X735344Y395793D01*
X735390Y395730D01*
X735409Y395719D01*
X735424Y395702D01*
X735494Y395668D01*
X735561Y395628D01*
X735586Y395624D01*
X735603Y395616D01*
X735648Y395614D01*
X735725Y395601D01*
X754725Y395601D01*
X754753Y395606D01*
G37*
G36*
X738047Y676707D02*
X738047Y676707D01*
X738080Y676715D01*
X738127Y676716D01*
X741124Y677332D01*
X741155Y677345D01*
X741201Y677355D01*
X744061Y678443D01*
X744090Y678461D01*
X744133Y678478D01*
X746781Y680011D01*
X746807Y680033D01*
X746848Y680056D01*
X749215Y681994D01*
X749237Y682021D01*
X749273Y682050D01*
X751300Y684343D01*
X751317Y684372D01*
X751348Y684407D01*
X752980Y686995D01*
X752992Y687027D01*
X753017Y687066D01*
X754213Y689883D01*
X754220Y689916D01*
X754239Y689959D01*
X754967Y692931D01*
X754969Y692965D01*
X754980Y693010D01*
X755223Y696060D01*
X755219Y696089D01*
X755224Y696117D01*
X755207Y696186D01*
X755199Y696258D01*
X755185Y696282D01*
X755178Y696310D01*
X755135Y696368D01*
X755100Y696430D01*
X755077Y696447D01*
X755060Y696470D01*
X754998Y696507D01*
X754941Y696550D01*
X754913Y696557D01*
X754889Y696572D01*
X754789Y696588D01*
X754748Y696599D01*
X754738Y696597D01*
X754725Y696599D01*
X735725Y696599D01*
X735649Y696584D01*
X735571Y696575D01*
X735552Y696564D01*
X735530Y696560D01*
X735466Y696516D01*
X735398Y696477D01*
X735382Y696458D01*
X735366Y696447D01*
X735342Y696409D01*
X735292Y696349D01*
X725792Y679849D01*
X725783Y679822D01*
X725767Y679798D01*
X725752Y679728D01*
X725729Y679660D01*
X725732Y679632D01*
X725726Y679604D01*
X725740Y679534D01*
X725745Y679462D01*
X725758Y679437D01*
X725764Y679409D01*
X725804Y679349D01*
X725837Y679286D01*
X725859Y679268D01*
X725875Y679244D01*
X725958Y679186D01*
X725990Y679159D01*
X726001Y679156D01*
X726012Y679149D01*
X728778Y677840D01*
X728811Y677832D01*
X728853Y677812D01*
X731793Y676964D01*
X731827Y676961D01*
X731871Y676948D01*
X734909Y676583D01*
X734943Y676586D01*
X734990Y676580D01*
X738047Y676707D01*
G37*
D10*
X823350Y581025D03*
X840350Y581025D03*
X862575Y525463D03*
X845575Y525463D03*
D11*
X822350Y593725D03*
X841350Y593725D03*
D12*
X829825Y627063D03*
X814825Y627063D03*
D13*
X925513Y546100D03*
D14*
X752475Y633413D03*
X752475Y608013D03*
X752475Y582613D03*
D15*
X904925Y689200D03*
X987525Y546100D03*
X904925Y403000D03*
X739725Y403000D03*
X657125Y546100D03*
X739725Y689200D03*
X946225Y617600D03*
X946225Y474600D03*
X822325Y403000D03*
X698425Y474600D03*
X698425Y617600D03*
X822325Y689200D03*
D10*
X842963Y499038D03*
X842963Y482038D03*
X798513Y499038D03*
X798513Y482038D03*
X820738Y499038D03*
X820738Y482038D03*
X776288Y499038D03*
X776288Y482038D03*
D16*
X830325Y562100D03*
X830325Y554100D03*
X830325Y546100D03*
X830325Y538100D03*
X830325Y530100D03*
X822325Y530100D03*
X814325Y530100D03*
X814325Y538100D03*
X814325Y546100D03*
X814325Y554100D03*
X814325Y562100D03*
X822325Y562100D03*
M02*
