G04 EAGLE Gerber RS-274X export*
G75*
%MOMM*%
%FSLAX34Y34*%
%LPD*%
%INSolderpaste Bottom*%
%IPPOS*%
%AMOC8*
5,1,8,0,0,1.08239X$1,22.5*%
G01*
%ADD10R,1.300000X1.500000*%
%ADD11R,1.000000X1.100000*%
%ADD12R,1.500000X1.300000*%
%ADD13R,1.100000X1.000000*%
%ADD14R,0.550000X0.297181*%
%ADD15R,0.297181X0.550000*%
%ADD16R,1.399997X0.400000*%
%ADD17R,0.500000X0.800000*%

G36*
X-10460Y-19826D02*
X-10460Y-19826D01*
X-10457Y-19827D01*
X-10414Y-19807D01*
X-10371Y-19789D01*
X-10370Y-19787D01*
X-10368Y-19786D01*
X-10335Y-19701D01*
X-10335Y-7477D01*
X-10336Y-7475D01*
X-10335Y-7473D01*
X-10355Y-7430D01*
X-10374Y-7386D01*
X-10376Y-7386D01*
X-10377Y-7384D01*
X-10462Y-7351D01*
X-22686Y-7351D01*
X-22688Y-7352D01*
X-22690Y-7351D01*
X-22733Y-7371D01*
X-22776Y-7389D01*
X-22777Y-7391D01*
X-22779Y-7392D01*
X-22812Y-7477D01*
X-22812Y-19701D01*
X-22811Y-19703D01*
X-22812Y-19705D01*
X-22792Y-19748D01*
X-22773Y-19792D01*
X-22771Y-19792D01*
X-22770Y-19794D01*
X-22686Y-19827D01*
X-10462Y-19827D01*
X-10460Y-19826D01*
G37*
G36*
X17989Y-19826D02*
X17989Y-19826D01*
X17991Y-19827D01*
X18034Y-19807D01*
X18077Y-19789D01*
X18078Y-19787D01*
X18080Y-19786D01*
X18113Y-19701D01*
X18113Y-7477D01*
X18112Y-7475D01*
X18113Y-7473D01*
X18093Y-7430D01*
X18074Y-7386D01*
X18072Y-7386D01*
X18071Y-7384D01*
X17987Y-7351D01*
X5763Y-7351D01*
X5761Y-7352D01*
X5758Y-7351D01*
X5715Y-7371D01*
X5672Y-7389D01*
X5671Y-7391D01*
X5669Y-7392D01*
X5636Y-7477D01*
X5636Y-19701D01*
X5637Y-19703D01*
X5636Y-19705D01*
X5656Y-19748D01*
X5675Y-19792D01*
X5677Y-19792D01*
X5678Y-19794D01*
X5763Y-19827D01*
X17987Y-19827D01*
X17989Y-19826D01*
G37*
G36*
X3765Y-19826D02*
X3765Y-19826D01*
X3767Y-19827D01*
X3810Y-19807D01*
X3853Y-19789D01*
X3854Y-19787D01*
X3856Y-19786D01*
X3889Y-19701D01*
X3889Y-7477D01*
X3888Y-7475D01*
X3889Y-7473D01*
X3869Y-7430D01*
X3850Y-7386D01*
X3848Y-7386D01*
X3847Y-7384D01*
X3763Y-7351D01*
X-8462Y-7351D01*
X-8464Y-7352D01*
X-8466Y-7351D01*
X-8509Y-7371D01*
X-8552Y-7389D01*
X-8553Y-7391D01*
X-8555Y-7392D01*
X-8588Y-7477D01*
X-8588Y-19701D01*
X-8587Y-19703D01*
X-8588Y-19705D01*
X-8568Y-19748D01*
X-8549Y-19792D01*
X-8547Y-19792D01*
X-8546Y-19794D01*
X-8462Y-19827D01*
X3763Y-19827D01*
X3765Y-19826D01*
G37*
G36*
X32213Y-19826D02*
X32213Y-19826D01*
X32215Y-19827D01*
X32258Y-19807D01*
X32301Y-19789D01*
X32302Y-19787D01*
X32304Y-19786D01*
X32337Y-19701D01*
X32337Y-7477D01*
X32336Y-7475D01*
X32337Y-7473D01*
X32317Y-7430D01*
X32298Y-7386D01*
X32296Y-7386D01*
X32295Y-7384D01*
X32211Y-7351D01*
X19987Y-7351D01*
X19985Y-7352D01*
X19982Y-7351D01*
X19939Y-7371D01*
X19896Y-7389D01*
X19895Y-7391D01*
X19893Y-7392D01*
X19860Y-7477D01*
X19860Y-19701D01*
X19861Y-19703D01*
X19860Y-19705D01*
X19880Y-19748D01*
X19899Y-19792D01*
X19901Y-19792D01*
X19902Y-19794D01*
X19987Y-19827D01*
X32211Y-19827D01*
X32213Y-19826D01*
G37*
G36*
X17989Y-34050D02*
X17989Y-34050D01*
X17991Y-34051D01*
X18034Y-34031D01*
X18077Y-34013D01*
X18078Y-34011D01*
X18080Y-34010D01*
X18113Y-33925D01*
X18113Y-21701D01*
X18112Y-21699D01*
X18113Y-21697D01*
X18093Y-21654D01*
X18074Y-21610D01*
X18072Y-21610D01*
X18071Y-21608D01*
X17987Y-21575D01*
X5763Y-21575D01*
X5761Y-21576D01*
X5758Y-21575D01*
X5715Y-21595D01*
X5672Y-21613D01*
X5671Y-21615D01*
X5669Y-21616D01*
X5636Y-21701D01*
X5636Y-33925D01*
X5637Y-33927D01*
X5636Y-33929D01*
X5656Y-33972D01*
X5675Y-34016D01*
X5677Y-34016D01*
X5678Y-34018D01*
X5763Y-34051D01*
X17987Y-34051D01*
X17989Y-34050D01*
G37*
G36*
X-10460Y-34050D02*
X-10460Y-34050D01*
X-10457Y-34051D01*
X-10414Y-34031D01*
X-10371Y-34013D01*
X-10370Y-34011D01*
X-10368Y-34010D01*
X-10335Y-33925D01*
X-10335Y-21701D01*
X-10336Y-21699D01*
X-10335Y-21697D01*
X-10355Y-21654D01*
X-10374Y-21610D01*
X-10376Y-21610D01*
X-10377Y-21608D01*
X-10462Y-21575D01*
X-22686Y-21575D01*
X-22688Y-21576D01*
X-22690Y-21575D01*
X-22733Y-21595D01*
X-22776Y-21613D01*
X-22777Y-21615D01*
X-22779Y-21616D01*
X-22812Y-21701D01*
X-22812Y-33925D01*
X-22811Y-33927D01*
X-22812Y-33929D01*
X-22792Y-33972D01*
X-22773Y-34016D01*
X-22771Y-34016D01*
X-22770Y-34018D01*
X-22686Y-34051D01*
X-10462Y-34051D01*
X-10460Y-34050D01*
G37*
G36*
X3765Y-34050D02*
X3765Y-34050D01*
X3767Y-34051D01*
X3810Y-34031D01*
X3853Y-34013D01*
X3854Y-34011D01*
X3856Y-34010D01*
X3889Y-33925D01*
X3889Y-21701D01*
X3888Y-21699D01*
X3889Y-21697D01*
X3869Y-21654D01*
X3850Y-21610D01*
X3848Y-21610D01*
X3847Y-21608D01*
X3763Y-21575D01*
X-8462Y-21575D01*
X-8464Y-21576D01*
X-8466Y-21575D01*
X-8509Y-21595D01*
X-8552Y-21613D01*
X-8553Y-21615D01*
X-8555Y-21616D01*
X-8588Y-21701D01*
X-8588Y-33925D01*
X-8587Y-33927D01*
X-8588Y-33929D01*
X-8568Y-33972D01*
X-8549Y-34016D01*
X-8547Y-34016D01*
X-8546Y-34018D01*
X-8462Y-34051D01*
X3763Y-34051D01*
X3765Y-34050D01*
G37*
G36*
X32213Y-34050D02*
X32213Y-34050D01*
X32215Y-34051D01*
X32258Y-34031D01*
X32301Y-34013D01*
X32302Y-34011D01*
X32304Y-34010D01*
X32337Y-33925D01*
X32337Y-21701D01*
X32336Y-21699D01*
X32337Y-21697D01*
X32317Y-21654D01*
X32298Y-21610D01*
X32296Y-21610D01*
X32295Y-21608D01*
X32211Y-21575D01*
X19987Y-21575D01*
X19985Y-21576D01*
X19982Y-21575D01*
X19939Y-21595D01*
X19896Y-21613D01*
X19895Y-21615D01*
X19893Y-21616D01*
X19860Y-21701D01*
X19860Y-33925D01*
X19861Y-33927D01*
X19860Y-33929D01*
X19880Y-33972D01*
X19899Y-34016D01*
X19901Y-34016D01*
X19902Y-34018D01*
X19987Y-34051D01*
X32211Y-34051D01*
X32213Y-34050D01*
G37*
G36*
X-10460Y-48274D02*
X-10460Y-48274D01*
X-10457Y-48275D01*
X-10414Y-48255D01*
X-10371Y-48237D01*
X-10370Y-48235D01*
X-10368Y-48234D01*
X-10335Y-48149D01*
X-10335Y-35925D01*
X-10336Y-35923D01*
X-10335Y-35921D01*
X-10355Y-35878D01*
X-10374Y-35834D01*
X-10376Y-35834D01*
X-10377Y-35832D01*
X-10462Y-35799D01*
X-22686Y-35799D01*
X-22688Y-35800D01*
X-22690Y-35799D01*
X-22733Y-35819D01*
X-22776Y-35837D01*
X-22777Y-35839D01*
X-22779Y-35840D01*
X-22812Y-35925D01*
X-22812Y-48149D01*
X-22811Y-48151D01*
X-22812Y-48153D01*
X-22792Y-48196D01*
X-22773Y-48240D01*
X-22771Y-48240D01*
X-22770Y-48242D01*
X-22686Y-48275D01*
X-10462Y-48275D01*
X-10460Y-48274D01*
G37*
G36*
X17989Y-48274D02*
X17989Y-48274D01*
X17991Y-48275D01*
X18034Y-48255D01*
X18077Y-48237D01*
X18078Y-48235D01*
X18080Y-48234D01*
X18113Y-48149D01*
X18113Y-35925D01*
X18112Y-35923D01*
X18113Y-35921D01*
X18093Y-35878D01*
X18074Y-35834D01*
X18072Y-35834D01*
X18071Y-35832D01*
X17987Y-35799D01*
X5763Y-35799D01*
X5761Y-35800D01*
X5758Y-35799D01*
X5715Y-35819D01*
X5672Y-35837D01*
X5671Y-35839D01*
X5669Y-35840D01*
X5636Y-35925D01*
X5636Y-48149D01*
X5637Y-48151D01*
X5636Y-48153D01*
X5656Y-48196D01*
X5675Y-48240D01*
X5677Y-48240D01*
X5678Y-48242D01*
X5763Y-48275D01*
X17987Y-48275D01*
X17989Y-48274D01*
G37*
G36*
X3765Y-48274D02*
X3765Y-48274D01*
X3767Y-48275D01*
X3810Y-48255D01*
X3853Y-48237D01*
X3854Y-48235D01*
X3856Y-48234D01*
X3889Y-48149D01*
X3889Y-35925D01*
X3888Y-35923D01*
X3889Y-35921D01*
X3869Y-35878D01*
X3850Y-35834D01*
X3848Y-35834D01*
X3847Y-35832D01*
X3763Y-35799D01*
X-8462Y-35799D01*
X-8464Y-35800D01*
X-8466Y-35799D01*
X-8509Y-35819D01*
X-8552Y-35837D01*
X-8553Y-35839D01*
X-8555Y-35840D01*
X-8588Y-35925D01*
X-8588Y-48149D01*
X-8587Y-48151D01*
X-8588Y-48153D01*
X-8568Y-48196D01*
X-8549Y-48240D01*
X-8547Y-48240D01*
X-8546Y-48242D01*
X-8462Y-48275D01*
X3763Y-48275D01*
X3765Y-48274D01*
G37*
G36*
X32213Y-48274D02*
X32213Y-48274D01*
X32215Y-48275D01*
X32258Y-48255D01*
X32301Y-48237D01*
X32302Y-48235D01*
X32304Y-48234D01*
X32337Y-48149D01*
X32337Y-35925D01*
X32336Y-35923D01*
X32337Y-35921D01*
X32317Y-35878D01*
X32298Y-35834D01*
X32296Y-35834D01*
X32295Y-35832D01*
X32211Y-35799D01*
X19987Y-35799D01*
X19985Y-35800D01*
X19982Y-35799D01*
X19939Y-35819D01*
X19896Y-35837D01*
X19895Y-35839D01*
X19893Y-35840D01*
X19860Y-35925D01*
X19860Y-48149D01*
X19861Y-48151D01*
X19860Y-48153D01*
X19880Y-48196D01*
X19899Y-48240D01*
X19901Y-48240D01*
X19902Y-48242D01*
X19987Y-48275D01*
X32211Y-48275D01*
X32213Y-48274D01*
G37*
G36*
X3765Y-62498D02*
X3765Y-62498D01*
X3767Y-62499D01*
X3810Y-62479D01*
X3853Y-62461D01*
X3854Y-62459D01*
X3856Y-62458D01*
X3889Y-62373D01*
X3889Y-50149D01*
X3888Y-50147D01*
X3889Y-50145D01*
X3869Y-50102D01*
X3850Y-50058D01*
X3848Y-50058D01*
X3847Y-50056D01*
X3763Y-50023D01*
X-8462Y-50023D01*
X-8464Y-50024D01*
X-8466Y-50023D01*
X-8509Y-50043D01*
X-8552Y-50061D01*
X-8553Y-50063D01*
X-8555Y-50064D01*
X-8588Y-50149D01*
X-8588Y-62373D01*
X-8587Y-62375D01*
X-8588Y-62377D01*
X-8568Y-62420D01*
X-8549Y-62464D01*
X-8547Y-62464D01*
X-8546Y-62466D01*
X-8462Y-62499D01*
X3763Y-62499D01*
X3765Y-62498D01*
G37*
G36*
X17989Y-62498D02*
X17989Y-62498D01*
X17991Y-62499D01*
X18034Y-62479D01*
X18077Y-62461D01*
X18078Y-62459D01*
X18080Y-62458D01*
X18113Y-62373D01*
X18113Y-50149D01*
X18112Y-50147D01*
X18113Y-50145D01*
X18093Y-50102D01*
X18074Y-50058D01*
X18072Y-50058D01*
X18071Y-50056D01*
X17987Y-50023D01*
X5763Y-50023D01*
X5761Y-50024D01*
X5758Y-50023D01*
X5715Y-50043D01*
X5672Y-50061D01*
X5671Y-50063D01*
X5669Y-50064D01*
X5636Y-50149D01*
X5636Y-62373D01*
X5637Y-62375D01*
X5636Y-62377D01*
X5656Y-62420D01*
X5675Y-62464D01*
X5677Y-62464D01*
X5678Y-62466D01*
X5763Y-62499D01*
X17987Y-62499D01*
X17989Y-62498D01*
G37*
G36*
X32213Y-62498D02*
X32213Y-62498D01*
X32215Y-62499D01*
X32258Y-62479D01*
X32301Y-62461D01*
X32302Y-62459D01*
X32304Y-62458D01*
X32337Y-62373D01*
X32337Y-50149D01*
X32336Y-50147D01*
X32337Y-50145D01*
X32317Y-50102D01*
X32298Y-50058D01*
X32296Y-50058D01*
X32295Y-50056D01*
X32211Y-50023D01*
X19987Y-50023D01*
X19985Y-50024D01*
X19982Y-50023D01*
X19939Y-50043D01*
X19896Y-50061D01*
X19895Y-50063D01*
X19893Y-50064D01*
X19860Y-50149D01*
X19860Y-62373D01*
X19861Y-62375D01*
X19860Y-62377D01*
X19880Y-62420D01*
X19899Y-62464D01*
X19901Y-62464D01*
X19902Y-62466D01*
X19987Y-62499D01*
X32211Y-62499D01*
X32213Y-62498D01*
G37*
G36*
X-10460Y-62498D02*
X-10460Y-62498D01*
X-10457Y-62499D01*
X-10414Y-62479D01*
X-10371Y-62461D01*
X-10370Y-62459D01*
X-10368Y-62458D01*
X-10335Y-62373D01*
X-10335Y-50149D01*
X-10336Y-50147D01*
X-10335Y-50145D01*
X-10355Y-50102D01*
X-10374Y-50058D01*
X-10376Y-50058D01*
X-10377Y-50056D01*
X-10462Y-50023D01*
X-22686Y-50023D01*
X-22688Y-50024D01*
X-22690Y-50023D01*
X-22733Y-50043D01*
X-22776Y-50061D01*
X-22777Y-50063D01*
X-22779Y-50064D01*
X-22812Y-50149D01*
X-22812Y-62373D01*
X-22811Y-62375D01*
X-22812Y-62377D01*
X-22792Y-62420D01*
X-22773Y-62464D01*
X-22771Y-62464D01*
X-22770Y-62466D01*
X-22686Y-62499D01*
X-10462Y-62499D01*
X-10460Y-62498D01*
G37*
D10*
X52413Y4763D03*
X71413Y4763D03*
D11*
X-42863Y-28013D03*
X-42863Y-45013D03*
D12*
X-53975Y-27013D03*
X-53975Y-46013D03*
D13*
X53413Y-6350D03*
X70413Y-6350D03*
X53413Y-15875D03*
X70413Y-15875D03*
D10*
X52413Y19050D03*
X71413Y19050D03*
D13*
X52388Y31188D03*
X52388Y48188D03*
X71438Y48188D03*
X71438Y31188D03*
X-41275Y18025D03*
X-41275Y1025D03*
D14*
X38563Y-7418D03*
X38563Y-12419D03*
X38563Y-17421D03*
X38563Y-22422D03*
X38563Y-27423D03*
X38563Y-32424D03*
X38563Y-37426D03*
X38563Y-42427D03*
X38563Y-47428D03*
X38563Y-52429D03*
X38563Y-57431D03*
X38563Y-62432D03*
D15*
X32270Y-68725D03*
X27269Y-68725D03*
X22267Y-68725D03*
X17266Y-68725D03*
X12265Y-68725D03*
X7264Y-68725D03*
X2262Y-68725D03*
X-2740Y-68725D03*
X-7741Y-68725D03*
X-12742Y-68725D03*
X-17744Y-68725D03*
X-22745Y-68725D03*
D14*
X-29038Y-62432D03*
X-29038Y-57431D03*
X-29038Y-52429D03*
X-29038Y-47428D03*
X-29038Y-42427D03*
X-29038Y-37426D03*
X-29038Y-32424D03*
X-29038Y-27423D03*
X-29038Y-22422D03*
X-29038Y-17421D03*
X-29038Y-12419D03*
X-29038Y-7418D03*
D15*
X-22745Y-1125D03*
X-17744Y-1125D03*
X-12742Y-1125D03*
X-7741Y-1125D03*
X-2740Y-1125D03*
X2262Y-1125D03*
X7264Y-1125D03*
X12265Y-1125D03*
X17266Y-1125D03*
X22267Y-1125D03*
X27269Y-1125D03*
X32270Y-1125D03*
D16*
X58738Y-56450D03*
X58738Y-44450D03*
X58738Y-32450D03*
D17*
X-71438Y-47513D03*
X-71438Y-25513D03*
M02*
